G04 #@! TF.GenerationSoftware,KiCad,Pcbnew,(5.0.0-3-g5ebb6b6)*
G04 #@! TF.CreationDate,2018-10-07T19:48:24+09:00*
G04 #@! TF.ProjectId,Z80-8251-PPI,5A38302D383235312D5050492E6B6963,rev?*
G04 #@! TF.SameCoordinates,Original*
G04 #@! TF.FileFunction,Copper,L1,Top,Signal*
G04 #@! TF.FilePolarity,Positive*
%FSLAX46Y46*%
G04 Gerber Fmt 4.6, Leading zero omitted, Abs format (unit mm)*
G04 Created by KiCad (PCBNEW (5.0.0-3-g5ebb6b6)) date *
%MOMM*%
%LPD*%
G01*
G04 APERTURE LIST*
G04 #@! TA.AperFunction,ComponentPad*
%ADD10O,1.727200X2.032000*%
G04 #@! TD*
G04 #@! TA.AperFunction,ComponentPad*
%ADD11C,1.600000*%
G04 #@! TD*
G04 #@! TA.AperFunction,ComponentPad*
%ADD12R,1.727200X1.727200*%
G04 #@! TD*
G04 #@! TA.AperFunction,ComponentPad*
%ADD13O,1.727200X1.727200*%
G04 #@! TD*
G04 #@! TA.AperFunction,ComponentPad*
%ADD14R,2.032000X1.727200*%
G04 #@! TD*
G04 #@! TA.AperFunction,ComponentPad*
%ADD15O,2.032000X1.727200*%
G04 #@! TD*
G04 #@! TA.AperFunction,ComponentPad*
%ADD16R,1.700000X1.700000*%
G04 #@! TD*
G04 #@! TA.AperFunction,ComponentPad*
%ADD17O,1.700000X1.700000*%
G04 #@! TD*
G04 #@! TA.AperFunction,ComponentPad*
%ADD18C,4.064000*%
G04 #@! TD*
G04 #@! TA.AperFunction,ComponentPad*
%ADD19O,1.600000X1.600000*%
G04 #@! TD*
G04 #@! TA.AperFunction,ComponentPad*
%ADD20R,1.600000X1.600000*%
G04 #@! TD*
G04 #@! TA.AperFunction,ComponentPad*
%ADD21C,1.422400*%
G04 #@! TD*
G04 #@! TA.AperFunction,ComponentPad*
%ADD22O,1.050000X1.500000*%
G04 #@! TD*
G04 #@! TA.AperFunction,ComponentPad*
%ADD23R,1.050000X1.500000*%
G04 #@! TD*
G04 #@! TA.AperFunction,ViaPad*
%ADD24C,0.889000*%
G04 #@! TD*
G04 #@! TA.AperFunction,Conductor*
%ADD25C,0.609600*%
G04 #@! TD*
G04 #@! TA.AperFunction,Conductor*
%ADD26C,0.203200*%
G04 #@! TD*
G04 #@! TA.AperFunction,Conductor*
%ADD27C,0.254000*%
G04 #@! TD*
G04 APERTURE END LIST*
D10*
G04 #@! TO.P,P1,1*
G04 #@! TO.N,Net-(P1-Pad1)*
X133223000Y-131445000D03*
G04 #@! TO.P,P1,2*
G04 #@! TO.N,Net-(P1-Pad2)*
X135763000Y-131445000D03*
G04 #@! TO.P,P1,3*
G04 #@! TO.N,Net-(P1-Pad3)*
X138303000Y-131445000D03*
G04 #@! TO.P,P1,4*
G04 #@! TO.N,Net-(P1-Pad4)*
X140843000Y-131445000D03*
G04 #@! TO.P,P1,5*
G04 #@! TO.N,VCC*
X143383000Y-131445000D03*
G04 #@! TO.P,P1,6*
G04 #@! TO.N,GND*
X145923000Y-131445000D03*
G04 #@! TO.P,P1,7*
X148463000Y-131445000D03*
G04 #@! TO.P,P1,8*
G04 #@! TO.N,Net-(P1-Pad8)*
X151003000Y-131445000D03*
G04 #@! TD*
G04 #@! TO.P,P2,1*
G04 #@! TO.N,~CE*
X156083000Y-131445000D03*
G04 #@! TO.P,P2,2*
G04 #@! TO.N,A1*
X158623000Y-131445000D03*
G04 #@! TO.P,P2,3*
G04 #@! TO.N,A2*
X161163000Y-131445000D03*
G04 #@! TO.P,P2,4*
G04 #@! TO.N,A3*
X163703000Y-131445000D03*
G04 #@! TO.P,P2,5*
G04 #@! TO.N,A4*
X166243000Y-131445000D03*
G04 #@! TO.P,P2,6*
G04 #@! TO.N,A5*
X168783000Y-131445000D03*
G04 #@! TD*
G04 #@! TO.P,P3,1*
G04 #@! TO.N,Net-(P3-Pad1)*
X124079000Y-83185000D03*
G04 #@! TO.P,P3,2*
G04 #@! TO.N,Net-(P3-Pad2)*
X126619000Y-83185000D03*
G04 #@! TO.P,P3,3*
G04 #@! TO.N,Net-(P3-Pad3)*
X129159000Y-83185000D03*
G04 #@! TO.P,P3,4*
G04 #@! TO.N,GND*
X131699000Y-83185000D03*
G04 #@! TO.P,P3,5*
G04 #@! TO.N,/~RESIN*
X134239000Y-83185000D03*
G04 #@! TO.P,P3,6*
G04 #@! TO.N,A0*
X136779000Y-83185000D03*
G04 #@! TO.P,P3,7*
G04 #@! TO.N,~IOW*
X139319000Y-83185000D03*
G04 #@! TO.P,P3,8*
G04 #@! TO.N,~IOR*
X141859000Y-83185000D03*
G04 #@! TO.P,P3,9*
G04 #@! TO.N,D7*
X144399000Y-83185000D03*
G04 #@! TO.P,P3,10*
G04 #@! TO.N,D6*
X146939000Y-83185000D03*
G04 #@! TD*
G04 #@! TO.P,P4,1*
G04 #@! TO.N,D5*
X151003000Y-83185000D03*
G04 #@! TO.P,P4,2*
G04 #@! TO.N,D4*
X153543000Y-83185000D03*
G04 #@! TO.P,P4,3*
G04 #@! TO.N,D3*
X156083000Y-83185000D03*
G04 #@! TO.P,P4,4*
G04 #@! TO.N,D2*
X158623000Y-83185000D03*
G04 #@! TO.P,P4,5*
G04 #@! TO.N,D1*
X161163000Y-83185000D03*
G04 #@! TO.P,P4,6*
G04 #@! TO.N,D0*
X163703000Y-83185000D03*
G04 #@! TO.P,P4,7*
G04 #@! TO.N,Net-(P4-Pad7)*
X166243000Y-83185000D03*
G04 #@! TO.P,P4,8*
G04 #@! TO.N,Net-(P4-Pad8)*
X168783000Y-83185000D03*
G04 #@! TD*
D11*
G04 #@! TO.P,C1,1*
G04 #@! TO.N,Net-(C1-Pad1)*
X144653000Y-123190000D03*
G04 #@! TO.P,C1,2*
G04 #@! TO.N,GND*
X147153000Y-123190000D03*
G04 #@! TD*
G04 #@! TO.P,C2,1*
G04 #@! TO.N,Net-(C2-Pad1)*
X144653000Y-116205000D03*
G04 #@! TO.P,C2,2*
G04 #@! TO.N,GND*
X147153000Y-116205000D03*
G04 #@! TD*
G04 #@! TO.P,C3,1*
G04 #@! TO.N,VCC*
X113538000Y-116840000D03*
G04 #@! TO.P,C3,2*
G04 #@! TO.N,GND*
X116038000Y-116840000D03*
G04 #@! TD*
G04 #@! TO.P,C4,1*
G04 #@! TO.N,VCC*
X124333000Y-112395000D03*
G04 #@! TO.P,C4,2*
G04 #@! TO.N,GND*
X121833000Y-112395000D03*
G04 #@! TD*
G04 #@! TO.P,C5,1*
G04 #@! TO.N,VCC*
X124333000Y-89535000D03*
G04 #@! TO.P,C5,2*
G04 #@! TO.N,GND*
X121833000Y-89535000D03*
G04 #@! TD*
G04 #@! TO.P,C6,1*
G04 #@! TO.N,VCC*
X169291000Y-88011000D03*
G04 #@! TO.P,C6,2*
G04 #@! TO.N,GND*
X166791000Y-88011000D03*
G04 #@! TD*
D12*
G04 #@! TO.P,J1,1*
G04 #@! TO.N,VCC*
X106807000Y-76073000D03*
D13*
G04 #@! TO.P,J1,2*
G04 #@! TO.N,GND*
X106807000Y-73533000D03*
G04 #@! TO.P,J1,3*
G04 #@! TO.N,VCC*
X109347000Y-76073000D03*
G04 #@! TO.P,J1,4*
G04 #@! TO.N,GND*
X109347000Y-73533000D03*
G04 #@! TO.P,J1,5*
G04 #@! TO.N,Net-(J1-Pad5)*
X111887000Y-76073000D03*
G04 #@! TO.P,J1,6*
G04 #@! TO.N,Net-(J1-Pad6)*
X111887000Y-73533000D03*
G04 #@! TO.P,J1,7*
G04 #@! TO.N,Net-(J1-Pad7)*
X114427000Y-76073000D03*
G04 #@! TO.P,J1,8*
G04 #@! TO.N,CLK*
X114427000Y-73533000D03*
G04 #@! TO.P,J1,9*
G04 #@! TO.N,D0*
X116967000Y-76073000D03*
G04 #@! TO.P,J1,10*
G04 #@! TO.N,D1*
X116967000Y-73533000D03*
G04 #@! TO.P,J1,11*
G04 #@! TO.N,D2*
X119507000Y-76073000D03*
G04 #@! TO.P,J1,12*
G04 #@! TO.N,D3*
X119507000Y-73533000D03*
G04 #@! TO.P,J1,13*
G04 #@! TO.N,D4*
X122047000Y-76073000D03*
G04 #@! TO.P,J1,14*
G04 #@! TO.N,D5*
X122047000Y-73533000D03*
G04 #@! TO.P,J1,15*
G04 #@! TO.N,D6*
X124587000Y-76073000D03*
G04 #@! TO.P,J1,16*
G04 #@! TO.N,D7*
X124587000Y-73533000D03*
G04 #@! TO.P,J1,17*
G04 #@! TO.N,~IOR*
X127127000Y-76073000D03*
G04 #@! TO.P,J1,18*
G04 #@! TO.N,Net-(J1-Pad18)*
X127127000Y-73533000D03*
G04 #@! TO.P,J1,19*
G04 #@! TO.N,~IOW*
X129667000Y-76073000D03*
G04 #@! TO.P,J1,20*
G04 #@! TO.N,Net-(J1-Pad20)*
X129667000Y-73533000D03*
G04 #@! TO.P,J1,21*
G04 #@! TO.N,RES*
X132207000Y-76073000D03*
G04 #@! TO.P,J1,22*
G04 #@! TO.N,Net-(J1-Pad22)*
X132207000Y-73533000D03*
G04 #@! TO.P,J1,23*
G04 #@! TO.N,INT*
X134747000Y-76073000D03*
G04 #@! TO.P,J1,24*
G04 #@! TO.N,Net-(J1-Pad24)*
X134747000Y-73533000D03*
G04 #@! TO.P,J1,25*
G04 #@! TO.N,A0*
X137287000Y-76073000D03*
G04 #@! TO.P,J1,26*
G04 #@! TO.N,A1*
X137287000Y-73533000D03*
G04 #@! TO.P,J1,27*
G04 #@! TO.N,A2*
X139827000Y-76073000D03*
G04 #@! TO.P,J1,28*
G04 #@! TO.N,A3*
X139827000Y-73533000D03*
G04 #@! TO.P,J1,29*
G04 #@! TO.N,A4*
X142367000Y-76073000D03*
G04 #@! TO.P,J1,30*
G04 #@! TO.N,A5*
X142367000Y-73533000D03*
G04 #@! TO.P,J1,31*
G04 #@! TO.N,A6*
X144907000Y-76073000D03*
G04 #@! TO.P,J1,32*
G04 #@! TO.N,A7*
X144907000Y-73533000D03*
G04 #@! TO.P,J1,33*
G04 #@! TO.N,Net-(J1-Pad33)*
X147447000Y-76073000D03*
G04 #@! TO.P,J1,34*
G04 #@! TO.N,Net-(J1-Pad34)*
X147447000Y-73533000D03*
G04 #@! TO.P,J1,35*
G04 #@! TO.N,Net-(J1-Pad35)*
X149987000Y-76073000D03*
G04 #@! TO.P,J1,36*
G04 #@! TO.N,Net-(J1-Pad36)*
X149987000Y-73533000D03*
G04 #@! TO.P,J1,37*
G04 #@! TO.N,Net-(J1-Pad37)*
X152527000Y-76073000D03*
G04 #@! TO.P,J1,38*
G04 #@! TO.N,Net-(J1-Pad38)*
X152527000Y-73533000D03*
G04 #@! TO.P,J1,39*
G04 #@! TO.N,Net-(J1-Pad39)*
X155067000Y-76073000D03*
G04 #@! TO.P,J1,40*
G04 #@! TO.N,Net-(J1-Pad40)*
X155067000Y-73533000D03*
G04 #@! TD*
D12*
G04 #@! TO.P,J2,1*
G04 #@! TO.N,Net-(J2-Pad1)*
X148463000Y-92710000D03*
D13*
G04 #@! TO.P,J2,2*
G04 #@! TO.N,Net-(J2-Pad10)*
X151003000Y-92710000D03*
G04 #@! TO.P,J2,3*
G04 #@! TO.N,Net-(J2-Pad3)*
X148463000Y-95250000D03*
G04 #@! TO.P,J2,4*
G04 #@! TO.N,Net-(J2-Pad10)*
X151003000Y-95250000D03*
G04 #@! TO.P,J2,5*
G04 #@! TO.N,Net-(J2-Pad5)*
X148463000Y-97790000D03*
G04 #@! TO.P,J2,6*
G04 #@! TO.N,Net-(J2-Pad10)*
X151003000Y-97790000D03*
G04 #@! TO.P,J2,7*
G04 #@! TO.N,Net-(J2-Pad7)*
X148463000Y-100330000D03*
G04 #@! TO.P,J2,8*
G04 #@! TO.N,Net-(J2-Pad10)*
X151003000Y-100330000D03*
G04 #@! TO.P,J2,9*
G04 #@! TO.N,Net-(J2-Pad9)*
X148463000Y-102870000D03*
G04 #@! TO.P,J2,10*
G04 #@! TO.N,Net-(J2-Pad10)*
X151003000Y-102870000D03*
G04 #@! TO.P,J2,11*
G04 #@! TO.N,Net-(J2-Pad11)*
X148463000Y-105410000D03*
G04 #@! TO.P,J2,12*
G04 #@! TO.N,Net-(J2-Pad10)*
X151003000Y-105410000D03*
G04 #@! TO.P,J2,13*
G04 #@! TO.N,Net-(J2-Pad13)*
X148463000Y-107950000D03*
G04 #@! TO.P,J2,14*
G04 #@! TO.N,Net-(J2-Pad10)*
X151003000Y-107950000D03*
G04 #@! TO.P,J2,15*
G04 #@! TO.N,Net-(J2-Pad15)*
X148463000Y-110490000D03*
G04 #@! TO.P,J2,16*
G04 #@! TO.N,Net-(J2-Pad10)*
X151003000Y-110490000D03*
G04 #@! TD*
D12*
G04 #@! TO.P,J3,1*
G04 #@! TO.N,Net-(J2-Pad1)*
X133223000Y-92710000D03*
D13*
G04 #@! TO.P,J3,2*
G04 #@! TO.N,Net-(J3-Pad10)*
X135763000Y-92710000D03*
G04 #@! TO.P,J3,3*
G04 #@! TO.N,Net-(J2-Pad3)*
X133223000Y-95250000D03*
G04 #@! TO.P,J3,4*
G04 #@! TO.N,Net-(J3-Pad10)*
X135763000Y-95250000D03*
G04 #@! TO.P,J3,5*
G04 #@! TO.N,Net-(J2-Pad5)*
X133223000Y-97790000D03*
G04 #@! TO.P,J3,6*
G04 #@! TO.N,Net-(J3-Pad10)*
X135763000Y-97790000D03*
G04 #@! TO.P,J3,7*
G04 #@! TO.N,Net-(J2-Pad7)*
X133223000Y-100330000D03*
G04 #@! TO.P,J3,8*
G04 #@! TO.N,Net-(J3-Pad10)*
X135763000Y-100330000D03*
G04 #@! TO.P,J3,9*
G04 #@! TO.N,Net-(J2-Pad9)*
X133223000Y-102870000D03*
G04 #@! TO.P,J3,10*
G04 #@! TO.N,Net-(J3-Pad10)*
X135763000Y-102870000D03*
G04 #@! TO.P,J3,11*
G04 #@! TO.N,Net-(J2-Pad11)*
X133223000Y-105410000D03*
G04 #@! TO.P,J3,12*
G04 #@! TO.N,Net-(J3-Pad10)*
X135763000Y-105410000D03*
G04 #@! TO.P,J3,13*
G04 #@! TO.N,Net-(J2-Pad13)*
X133223000Y-107950000D03*
G04 #@! TO.P,J3,14*
G04 #@! TO.N,Net-(J3-Pad10)*
X135763000Y-107950000D03*
G04 #@! TO.P,J3,15*
G04 #@! TO.N,Net-(J2-Pad15)*
X133223000Y-110490000D03*
G04 #@! TO.P,J3,16*
G04 #@! TO.N,Net-(J3-Pad10)*
X135763000Y-110490000D03*
G04 #@! TD*
D14*
G04 #@! TO.P,J4,1*
G04 #@! TO.N,GND*
X177038000Y-90805000D03*
D15*
G04 #@! TO.P,J4,2*
G04 #@! TO.N,Net-(J4-Pad2)*
X177038000Y-93345000D03*
G04 #@! TO.P,J4,3*
G04 #@! TO.N,Net-(J4-Pad3)*
X177038000Y-95885000D03*
G04 #@! TO.P,J4,4*
G04 #@! TO.N,Net-(J4-Pad4)*
X177038000Y-98425000D03*
G04 #@! TO.P,J4,5*
G04 #@! TO.N,Net-(J4-Pad5)*
X177038000Y-100965000D03*
G04 #@! TO.P,J4,6*
G04 #@! TO.N,Net-(J4-Pad6)*
X177038000Y-103505000D03*
G04 #@! TD*
D16*
G04 #@! TO.P,J5,1*
G04 #@! TO.N,PA0*
X89408000Y-98425000D03*
D17*
G04 #@! TO.P,J5,2*
G04 #@! TO.N,PA1*
X86868000Y-98425000D03*
G04 #@! TO.P,J5,3*
G04 #@! TO.N,PA2*
X89408000Y-95885000D03*
G04 #@! TO.P,J5,4*
G04 #@! TO.N,PA3*
X86868000Y-95885000D03*
G04 #@! TO.P,J5,5*
G04 #@! TO.N,PA4*
X89408000Y-93345000D03*
G04 #@! TO.P,J5,6*
G04 #@! TO.N,PA5*
X86868000Y-93345000D03*
G04 #@! TO.P,J5,7*
G04 #@! TO.N,PA6*
X89408000Y-90805000D03*
G04 #@! TO.P,J5,8*
G04 #@! TO.N,PA7*
X86868000Y-90805000D03*
G04 #@! TO.P,J5,9*
G04 #@! TO.N,PC0*
X89408000Y-88265000D03*
G04 #@! TO.P,J5,10*
G04 #@! TO.N,PC1*
X86868000Y-88265000D03*
G04 #@! TO.P,J5,11*
G04 #@! TO.N,PC2*
X89408000Y-85725000D03*
G04 #@! TO.P,J5,12*
G04 #@! TO.N,PC3*
X86868000Y-85725000D03*
G04 #@! TO.P,J5,13*
G04 #@! TO.N,VCC*
X89408000Y-83185000D03*
G04 #@! TO.P,J5,14*
G04 #@! TO.N,GND*
X86868000Y-83185000D03*
G04 #@! TD*
D16*
G04 #@! TO.P,J6,1*
G04 #@! TO.N,PB0*
X89408000Y-122555000D03*
D17*
G04 #@! TO.P,J6,2*
G04 #@! TO.N,PB1*
X86868000Y-122555000D03*
G04 #@! TO.P,J6,3*
G04 #@! TO.N,PB2*
X89408000Y-120015000D03*
G04 #@! TO.P,J6,4*
G04 #@! TO.N,PB3*
X86868000Y-120015000D03*
G04 #@! TO.P,J6,5*
G04 #@! TO.N,PB4*
X89408000Y-117475000D03*
G04 #@! TO.P,J6,6*
G04 #@! TO.N,PB5*
X86868000Y-117475000D03*
G04 #@! TO.P,J6,7*
G04 #@! TO.N,PB6*
X89408000Y-114935000D03*
G04 #@! TO.P,J6,8*
G04 #@! TO.N,PB7*
X86868000Y-114935000D03*
G04 #@! TO.P,J6,9*
G04 #@! TO.N,PC4*
X89408000Y-112395000D03*
G04 #@! TO.P,J6,10*
G04 #@! TO.N,PC5*
X86868000Y-112395000D03*
G04 #@! TO.P,J6,11*
G04 #@! TO.N,PC6*
X89408000Y-109855000D03*
G04 #@! TO.P,J6,12*
G04 #@! TO.N,PC7*
X86868000Y-109855000D03*
G04 #@! TO.P,J6,13*
G04 #@! TO.N,VCC*
X89408000Y-107315000D03*
G04 #@! TO.P,J6,14*
G04 #@! TO.N,GND*
X86868000Y-107315000D03*
G04 #@! TD*
D12*
G04 #@! TO.P,J7,1*
G04 #@! TO.N,Net-(J2-Pad1)*
X140843000Y-92710000D03*
D13*
G04 #@! TO.P,J7,2*
G04 #@! TO.N,~CE*
X143383000Y-92710000D03*
G04 #@! TO.P,J7,3*
G04 #@! TO.N,Net-(J2-Pad3)*
X140843000Y-95250000D03*
G04 #@! TO.P,J7,4*
G04 #@! TO.N,~CE*
X143383000Y-95250000D03*
G04 #@! TO.P,J7,5*
G04 #@! TO.N,Net-(J2-Pad5)*
X140843000Y-97790000D03*
G04 #@! TO.P,J7,6*
G04 #@! TO.N,~CE*
X143383000Y-97790000D03*
G04 #@! TO.P,J7,7*
G04 #@! TO.N,Net-(J2-Pad7)*
X140843000Y-100330000D03*
G04 #@! TO.P,J7,8*
G04 #@! TO.N,~CE*
X143383000Y-100330000D03*
G04 #@! TO.P,J7,9*
G04 #@! TO.N,Net-(J2-Pad9)*
X140843000Y-102870000D03*
G04 #@! TO.P,J7,10*
G04 #@! TO.N,~CE*
X143383000Y-102870000D03*
G04 #@! TO.P,J7,11*
G04 #@! TO.N,Net-(J2-Pad11)*
X140843000Y-105410000D03*
G04 #@! TO.P,J7,12*
G04 #@! TO.N,~CE*
X143383000Y-105410000D03*
G04 #@! TO.P,J7,13*
G04 #@! TO.N,Net-(J2-Pad13)*
X140843000Y-107950000D03*
G04 #@! TO.P,J7,14*
G04 #@! TO.N,~CE*
X143383000Y-107950000D03*
G04 #@! TO.P,J7,15*
G04 #@! TO.N,Net-(J2-Pad15)*
X140843000Y-110490000D03*
G04 #@! TO.P,J7,16*
G04 #@! TO.N,~CE*
X143383000Y-110490000D03*
G04 #@! TD*
D18*
G04 #@! TO.P,P5,1*
G04 #@! TO.N,Net-(P5-Pad1)*
X86523000Y-67285000D03*
G04 #@! TD*
G04 #@! TO.P,P6,1*
G04 #@! TO.N,Net-(P6-Pad1)*
X175523000Y-67285000D03*
G04 #@! TD*
G04 #@! TO.P,P7,1*
G04 #@! TO.N,Net-(P7-Pad1)*
X86513000Y-133285000D03*
G04 #@! TD*
G04 #@! TO.P,P8,1*
G04 #@! TO.N,Net-(P8-Pad1)*
X175533000Y-133315000D03*
G04 #@! TD*
D11*
G04 #@! TO.P,R1,1*
G04 #@! TO.N,Net-(C2-Pad1)*
X139573000Y-115570000D03*
D19*
G04 #@! TO.P,R1,2*
G04 #@! TO.N,Net-(C1-Pad1)*
X139573000Y-125730000D03*
G04 #@! TD*
D20*
G04 #@! TO.P,U1,1*
G04 #@! TO.N,A5*
X118618000Y-92075000D03*
D19*
G04 #@! TO.P,U1,9*
G04 #@! TO.N,Net-(J2-Pad13)*
X126238000Y-109855000D03*
G04 #@! TO.P,U1,2*
G04 #@! TO.N,A6*
X118618000Y-94615000D03*
G04 #@! TO.P,U1,10*
G04 #@! TO.N,Net-(J2-Pad11)*
X126238000Y-107315000D03*
G04 #@! TO.P,U1,3*
G04 #@! TO.N,A7*
X118618000Y-97155000D03*
G04 #@! TO.P,U1,11*
G04 #@! TO.N,Net-(J2-Pad9)*
X126238000Y-104775000D03*
G04 #@! TO.P,U1,4*
G04 #@! TO.N,GND*
X118618000Y-99695000D03*
G04 #@! TO.P,U1,12*
G04 #@! TO.N,Net-(J2-Pad7)*
X126238000Y-102235000D03*
G04 #@! TO.P,U1,5*
G04 #@! TO.N,GND*
X118618000Y-102235000D03*
G04 #@! TO.P,U1,13*
G04 #@! TO.N,Net-(J2-Pad5)*
X126238000Y-99695000D03*
G04 #@! TO.P,U1,6*
G04 #@! TO.N,VCC*
X118618000Y-104775000D03*
G04 #@! TO.P,U1,14*
G04 #@! TO.N,Net-(J2-Pad3)*
X126238000Y-97155000D03*
G04 #@! TO.P,U1,7*
G04 #@! TO.N,Net-(J2-Pad15)*
X118618000Y-107315000D03*
G04 #@! TO.P,U1,15*
G04 #@! TO.N,Net-(J2-Pad1)*
X126238000Y-94615000D03*
G04 #@! TO.P,U1,8*
G04 #@! TO.N,GND*
X118618000Y-109855000D03*
G04 #@! TO.P,U1,16*
G04 #@! TO.N,VCC*
X126238000Y-92075000D03*
G04 #@! TD*
D20*
G04 #@! TO.P,U2,1*
G04 #@! TO.N,D2*
X156083000Y-90805000D03*
D19*
G04 #@! TO.P,U2,15*
G04 #@! TO.N,Net-(U2-Pad15)*
X171323000Y-123825000D03*
G04 #@! TO.P,U2,2*
G04 #@! TO.N,D3*
X156083000Y-93345000D03*
G04 #@! TO.P,U2,16*
G04 #@! TO.N,Net-(U2-Pad16)*
X171323000Y-121285000D03*
G04 #@! TO.P,U2,3*
G04 #@! TO.N,Net-(J4-Pad4)*
X156083000Y-95885000D03*
G04 #@! TO.P,U2,17*
G04 #@! TO.N,Net-(J4-Pad6)*
X171323000Y-118745000D03*
G04 #@! TO.P,U2,4*
G04 #@! TO.N,GND*
X156083000Y-98425000D03*
G04 #@! TO.P,U2,18*
G04 #@! TO.N,Net-(U2-Pad18)*
X171323000Y-116205000D03*
G04 #@! TO.P,U2,5*
G04 #@! TO.N,D4*
X156083000Y-100965000D03*
G04 #@! TO.P,U2,19*
G04 #@! TO.N,Net-(J4-Pad5)*
X171323000Y-113665000D03*
G04 #@! TO.P,U2,6*
G04 #@! TO.N,D5*
X156083000Y-103505000D03*
G04 #@! TO.P,U2,20*
G04 #@! TO.N,CLK*
X171323000Y-111125000D03*
G04 #@! TO.P,U2,7*
G04 #@! TO.N,D6*
X156083000Y-106045000D03*
G04 #@! TO.P,U2,21*
G04 #@! TO.N,RES*
X171323000Y-108585000D03*
G04 #@! TO.P,U2,8*
G04 #@! TO.N,D7*
X156083000Y-108585000D03*
G04 #@! TO.P,U2,22*
G04 #@! TO.N,Net-(U2-Pad22)*
X171323000Y-106045000D03*
G04 #@! TO.P,U2,9*
G04 #@! TO.N,Net-(U2-Pad25)*
X156083000Y-111125000D03*
G04 #@! TO.P,U2,23*
G04 #@! TO.N,Net-(J4-Pad2)*
X171323000Y-103505000D03*
G04 #@! TO.P,U2,10*
G04 #@! TO.N,~IOW*
X156083000Y-113665000D03*
G04 #@! TO.P,U2,24*
G04 #@! TO.N,Net-(U2-Pad22)*
X171323000Y-100965000D03*
G04 #@! TO.P,U2,11*
G04 #@! TO.N,Net-(J2-Pad10)*
X156083000Y-116205000D03*
G04 #@! TO.P,U2,25*
G04 #@! TO.N,Net-(U2-Pad25)*
X171323000Y-98425000D03*
G04 #@! TO.P,U2,12*
G04 #@! TO.N,A0*
X156083000Y-118745000D03*
G04 #@! TO.P,U2,26*
G04 #@! TO.N,VCC*
X171323000Y-95885000D03*
G04 #@! TO.P,U2,13*
G04 #@! TO.N,~IOR*
X156083000Y-121285000D03*
G04 #@! TO.P,U2,27*
G04 #@! TO.N,D0*
X171323000Y-93345000D03*
G04 #@! TO.P,U2,14*
G04 #@! TO.N,INT*
X156083000Y-123825000D03*
G04 #@! TO.P,U2,28*
G04 #@! TO.N,D1*
X171323000Y-90805000D03*
G04 #@! TD*
G04 #@! TO.P,U3,1*
G04 #@! TO.N,PA3*
X95758000Y-83820000D03*
G04 #@! TO.P,U3,2*
G04 #@! TO.N,PA2*
X95758000Y-86360000D03*
G04 #@! TO.P,U3,3*
G04 #@! TO.N,PA1*
X95758000Y-88900000D03*
G04 #@! TO.P,U3,4*
G04 #@! TO.N,PA0*
X95758000Y-91440000D03*
G04 #@! TO.P,U3,5*
G04 #@! TO.N,~IOR*
X95758000Y-93980000D03*
G04 #@! TO.P,U3,6*
G04 #@! TO.N,Net-(J3-Pad10)*
X95758000Y-96520000D03*
G04 #@! TO.P,U3,7*
G04 #@! TO.N,GND*
X95758000Y-99060000D03*
G04 #@! TO.P,U3,8*
G04 #@! TO.N,A1*
X95758000Y-101600000D03*
G04 #@! TO.P,U3,9*
G04 #@! TO.N,A0*
X95758000Y-104140000D03*
G04 #@! TO.P,U3,10*
G04 #@! TO.N,PC7*
X95758000Y-106680000D03*
G04 #@! TO.P,U3,11*
G04 #@! TO.N,PC6*
X95758000Y-109220000D03*
G04 #@! TO.P,U3,12*
G04 #@! TO.N,PC5*
X95758000Y-111760000D03*
G04 #@! TO.P,U3,13*
G04 #@! TO.N,PC4*
X95758000Y-114300000D03*
G04 #@! TO.P,U3,14*
G04 #@! TO.N,PC0*
X95758000Y-116840000D03*
G04 #@! TO.P,U3,15*
G04 #@! TO.N,PC1*
X95758000Y-119380000D03*
G04 #@! TO.P,U3,16*
G04 #@! TO.N,PC2*
X95758000Y-121920000D03*
G04 #@! TO.P,U3,17*
G04 #@! TO.N,PC3*
X95758000Y-124460000D03*
G04 #@! TO.P,U3,18*
G04 #@! TO.N,PB0*
X95758000Y-127000000D03*
G04 #@! TO.P,U3,19*
G04 #@! TO.N,PB1*
X95758000Y-129540000D03*
G04 #@! TO.P,U3,20*
G04 #@! TO.N,PB2*
X95758000Y-132080000D03*
G04 #@! TO.P,U3,21*
G04 #@! TO.N,PB3*
X110998000Y-132080000D03*
G04 #@! TO.P,U3,22*
G04 #@! TO.N,PB4*
X110998000Y-129540000D03*
G04 #@! TO.P,U3,23*
G04 #@! TO.N,PB5*
X110998000Y-127000000D03*
G04 #@! TO.P,U3,24*
G04 #@! TO.N,PB6*
X110998000Y-124460000D03*
G04 #@! TO.P,U3,25*
G04 #@! TO.N,PB7*
X110998000Y-121920000D03*
G04 #@! TO.P,U3,26*
G04 #@! TO.N,VCC*
X110998000Y-119380000D03*
G04 #@! TO.P,U3,27*
G04 #@! TO.N,D7*
X110998000Y-116840000D03*
G04 #@! TO.P,U3,28*
G04 #@! TO.N,D6*
X110998000Y-114300000D03*
G04 #@! TO.P,U3,29*
G04 #@! TO.N,D5*
X110998000Y-111760000D03*
G04 #@! TO.P,U3,30*
G04 #@! TO.N,D4*
X110998000Y-109220000D03*
G04 #@! TO.P,U3,31*
G04 #@! TO.N,D3*
X110998000Y-106680000D03*
G04 #@! TO.P,U3,32*
G04 #@! TO.N,D2*
X110998000Y-104140000D03*
G04 #@! TO.P,U3,33*
G04 #@! TO.N,D1*
X110998000Y-101600000D03*
G04 #@! TO.P,U3,34*
G04 #@! TO.N,D0*
X110998000Y-99060000D03*
G04 #@! TO.P,U3,35*
G04 #@! TO.N,RES*
X110998000Y-96520000D03*
G04 #@! TO.P,U3,36*
G04 #@! TO.N,~IOW*
X110998000Y-93980000D03*
G04 #@! TO.P,U3,37*
G04 #@! TO.N,PA7*
X110998000Y-91440000D03*
G04 #@! TO.P,U3,38*
G04 #@! TO.N,PA6*
X110998000Y-88900000D03*
G04 #@! TO.P,U3,39*
G04 #@! TO.N,PA5*
X110998000Y-86360000D03*
G04 #@! TO.P,U3,40*
G04 #@! TO.N,PA4*
X110998000Y-83820000D03*
G04 #@! TD*
D20*
G04 #@! TO.P,U4,1*
G04 #@! TO.N,Net-(U4-Pad1)*
X118618000Y-115570000D03*
D19*
G04 #@! TO.P,U4,9*
G04 #@! TO.N,Net-(U4-Pad9)*
X126238000Y-133350000D03*
G04 #@! TO.P,U4,2*
G04 #@! TO.N,Net-(U4-Pad2)*
X118618000Y-118110000D03*
G04 #@! TO.P,U4,10*
G04 #@! TO.N,Net-(C1-Pad1)*
X126238000Y-130810000D03*
G04 #@! TO.P,U4,3*
G04 #@! TO.N,Net-(U4-Pad3)*
X118618000Y-120650000D03*
G04 #@! TO.P,U4,11*
G04 #@! TO.N,Net-(C2-Pad1)*
X126238000Y-128270000D03*
G04 #@! TO.P,U4,4*
G04 #@! TO.N,Net-(U4-Pad4)*
X118618000Y-123190000D03*
G04 #@! TO.P,U4,12*
G04 #@! TO.N,GND*
X126238000Y-125730000D03*
G04 #@! TO.P,U4,5*
G04 #@! TO.N,Net-(U2-Pad25)*
X118618000Y-125730000D03*
G04 #@! TO.P,U4,13*
G04 #@! TO.N,Net-(U4-Pad13)*
X126238000Y-123190000D03*
G04 #@! TO.P,U4,6*
G04 #@! TO.N,Net-(U4-Pad6)*
X118618000Y-128270000D03*
G04 #@! TO.P,U4,14*
G04 #@! TO.N,Net-(U4-Pad14)*
X126238000Y-120650000D03*
G04 #@! TO.P,U4,7*
G04 #@! TO.N,Net-(U4-Pad7)*
X118618000Y-130810000D03*
G04 #@! TO.P,U4,15*
G04 #@! TO.N,Net-(U4-Pad15)*
X126238000Y-118110000D03*
G04 #@! TO.P,U4,8*
G04 #@! TO.N,GND*
X118618000Y-133350000D03*
G04 #@! TO.P,U4,16*
G04 #@! TO.N,VCC*
X126238000Y-115570000D03*
G04 #@! TD*
D21*
G04 #@! TO.P,Y1,1*
G04 #@! TO.N,Net-(C2-Pad1)*
X133223000Y-117475000D03*
G04 #@! TO.P,Y1,2*
G04 #@! TO.N,Net-(C1-Pad1)*
X133223000Y-122555000D03*
G04 #@! TD*
D22*
G04 #@! TO.P,Q1,2*
G04 #@! TO.N,/~RESIN*
X175133000Y-81915000D03*
G04 #@! TO.P,Q1,3*
G04 #@! TO.N,Net-(Q1-Pad3)*
X173863000Y-81915000D03*
D23*
G04 #@! TO.P,Q1,1*
G04 #@! TO.N,GND*
X176403000Y-81915000D03*
G04 #@! TD*
D11*
G04 #@! TO.P,R2,1*
G04 #@! TO.N,Net-(Q1-Pad3)*
X165608000Y-78105000D03*
D19*
G04 #@! TO.P,R2,2*
G04 #@! TO.N,RES*
X165608000Y-67945000D03*
G04 #@! TD*
G04 #@! TO.P,R3,2*
G04 #@! TO.N,/~RESIN*
X170688000Y-67945000D03*
D11*
G04 #@! TO.P,R3,1*
G04 #@! TO.N,VCC*
X170688000Y-78105000D03*
G04 #@! TD*
D24*
G04 #@! TO.N,GND*
X105438300Y-79257200D03*
G04 #@! TO.N,D6*
X124344600Y-81007600D03*
G04 #@! TO.N,~IOR*
X125420300Y-84970400D03*
G04 #@! TO.N,~IOW*
X137532800Y-78200800D03*
G04 #@! TO.N,A0*
X146021700Y-111656500D03*
G04 #@! TO.N,RES*
X120949800Y-95815400D03*
G04 #@! TO.N,A1*
X136510700Y-71184300D03*
G04 #@! TO.N,A5*
X122992500Y-92075000D03*
G04 #@! TO.N,A6*
X140527700Y-85781900D03*
G04 #@! TO.N,PA0*
X92828700Y-98425000D03*
G04 #@! TO.N,PA1*
X93243000Y-94303900D03*
G04 #@! TO.N,PA2*
X92720900Y-93194800D03*
G04 #@! TD*
D25*
G04 #@! TO.N,GND*
X176403000Y-86687600D02*
X177038000Y-87322600D01*
X177038000Y-87322600D02*
X177038000Y-90805000D01*
X166791000Y-88011000D02*
X168114400Y-86687600D01*
X168114400Y-86687600D02*
X176403000Y-86687600D01*
X176403000Y-83170100D02*
X176403000Y-86687600D01*
X176403000Y-81915000D02*
X176403000Y-83170100D01*
X148463000Y-131445000D02*
X145923000Y-131445000D01*
X142410500Y-127932500D02*
X145923000Y-131445000D01*
X121833000Y-89535000D02*
X111555200Y-79257200D01*
X111555200Y-79257200D02*
X105438300Y-79257200D01*
X156083000Y-98425000D02*
X154540500Y-99967500D01*
X154540500Y-99967500D02*
X154540500Y-108903400D01*
X154540500Y-108903400D02*
X147238900Y-116205000D01*
X147238900Y-116205000D02*
X147153000Y-116205000D01*
X86868000Y-107315000D02*
X86868000Y-105959900D01*
X95758000Y-99060000D02*
X94452900Y-99060000D01*
X94452900Y-99060000D02*
X87553000Y-105959900D01*
X87553000Y-105959900D02*
X86868000Y-105959900D01*
X127543100Y-125730000D02*
X129745600Y-127932500D01*
X129745600Y-127932500D02*
X142410500Y-127932500D01*
X147153000Y-123190000D02*
X142410500Y-127932500D01*
X109347000Y-73533000D02*
X106807000Y-73533000D01*
X126238000Y-125730000D02*
X127543100Y-125730000D01*
X118618000Y-102235000D02*
X117308400Y-103544600D01*
X117308400Y-103544600D02*
X117308400Y-108545400D01*
X117308400Y-108545400D02*
X118618000Y-109855000D01*
G04 #@! TO.N,VCC*
X109347000Y-76073000D02*
X108175700Y-76073000D01*
X124333000Y-89535000D02*
X113007500Y-78209500D01*
X113007500Y-78209500D02*
X111483500Y-78209500D01*
X111483500Y-78209500D02*
X109347000Y-76073000D01*
X106807000Y-76073000D02*
X108175700Y-76073000D01*
X126238000Y-92075000D02*
X127543100Y-92075000D01*
X169291000Y-88011000D02*
X167982600Y-89319400D01*
X167982600Y-89319400D02*
X130298700Y-89319400D01*
X130298700Y-89319400D02*
X127543100Y-92075000D01*
X123627800Y-114264900D02*
X124932900Y-115570000D01*
X113538000Y-116840000D02*
X116113100Y-114264900D01*
X116113100Y-114264900D02*
X123627800Y-114264900D01*
X123627800Y-114264900D02*
X123627800Y-113100200D01*
X123627800Y-113100200D02*
X124333000Y-112395000D01*
X126238000Y-115570000D02*
X124932900Y-115570000D01*
X90763100Y-83185000D02*
X97875100Y-76073000D01*
X97875100Y-76073000D02*
X106807000Y-76073000D01*
X89408000Y-83185000D02*
X90763100Y-83185000D01*
D26*
G04 #@! TO.N,D0*
X162537500Y-83185000D02*
X162537500Y-83622100D01*
X162537500Y-83622100D02*
X161252500Y-84907100D01*
X161252500Y-84907100D02*
X150327200Y-84907100D01*
X150327200Y-84907100D02*
X149063400Y-83643300D01*
X149063400Y-83643300D02*
X149063400Y-83465000D01*
X149063400Y-83465000D02*
X145799000Y-80200600D01*
X145799000Y-80200600D02*
X121968700Y-80200600D01*
X121968700Y-80200600D02*
X118132500Y-76364400D01*
X118132500Y-76364400D02*
X118132500Y-76073000D01*
X163703000Y-83185000D02*
X162537500Y-83185000D01*
X116967000Y-76073000D02*
X118132500Y-76073000D01*
G04 #@! TO.N,D1*
X159997500Y-83185000D02*
X159997500Y-82747900D01*
X159997500Y-82747900D02*
X154901400Y-77651800D01*
X154901400Y-77651800D02*
X138039500Y-77651800D01*
X138039500Y-77651800D02*
X137676800Y-77289100D01*
X137676800Y-77289100D02*
X131724500Y-77289100D01*
X131724500Y-77289100D02*
X130937000Y-76501600D01*
X130937000Y-76501600D02*
X130937000Y-73142500D01*
X130937000Y-73142500D02*
X129743300Y-71948800D01*
X129743300Y-71948800D02*
X119354400Y-71948800D01*
X119354400Y-71948800D02*
X118132500Y-73170700D01*
X118132500Y-73170700D02*
X118132500Y-73533000D01*
X161163000Y-83185000D02*
X159997500Y-83185000D01*
X116967000Y-73533000D02*
X118132500Y-73533000D01*
G04 #@! TO.N,D2*
X157457500Y-83185000D02*
X157457500Y-83661500D01*
X157457500Y-83661500D02*
X156615400Y-84503600D01*
X156615400Y-84503600D02*
X150494400Y-84503600D01*
X150494400Y-84503600D02*
X149538000Y-83547200D01*
X149538000Y-83547200D02*
X149538000Y-83368900D01*
X149538000Y-83368900D02*
X145966200Y-79797100D01*
X145966200Y-79797100D02*
X124105200Y-79797100D01*
X124105200Y-79797100D02*
X120672500Y-76364400D01*
X120672500Y-76364400D02*
X120672500Y-76073000D01*
X158623000Y-83185000D02*
X157457500Y-83185000D01*
X119507000Y-76073000D02*
X120672500Y-76073000D01*
G04 #@! TO.N,D3*
X154917500Y-83185000D02*
X154917500Y-82747900D01*
X154917500Y-82747900D02*
X151116900Y-78947300D01*
X151116900Y-78947300D02*
X130842900Y-78947300D01*
X130842900Y-78947300D02*
X128397000Y-76501400D01*
X128397000Y-76501400D02*
X128397000Y-73134300D01*
X128397000Y-73134300D02*
X127615100Y-72352400D01*
X127615100Y-72352400D02*
X121490800Y-72352400D01*
X121490800Y-72352400D02*
X120672500Y-73170700D01*
X120672500Y-73170700D02*
X120672500Y-73533000D01*
X119507000Y-73533000D02*
X120672500Y-73533000D01*
X156083000Y-83185000D02*
X154917500Y-83185000D01*
G04 #@! TO.N,D4*
X152377500Y-83185000D02*
X152377500Y-82708500D01*
X152377500Y-82708500D02*
X149062600Y-79393600D01*
X149062600Y-79393600D02*
X126241700Y-79393600D01*
X126241700Y-79393600D02*
X123212500Y-76364400D01*
X123212500Y-76364400D02*
X123212500Y-76073000D01*
X153543000Y-83185000D02*
X152377500Y-83185000D01*
X122047000Y-76073000D02*
X123212500Y-76073000D01*
G04 #@! TO.N,D6*
X145773500Y-83185000D02*
X145773500Y-82708500D01*
X145773500Y-82708500D02*
X143669100Y-80604100D01*
X143669100Y-80604100D02*
X124748100Y-80604100D01*
X124748100Y-80604100D02*
X124344600Y-81007600D01*
X146939000Y-83185000D02*
X145773500Y-83185000D01*
G04 #@! TO.N,D7*
X124587000Y-73533000D02*
X123421500Y-73533000D01*
X144399000Y-83185000D02*
X142221600Y-81007600D01*
X142221600Y-81007600D02*
X135258200Y-81007600D01*
X135258200Y-81007600D02*
X134506800Y-81759000D01*
X134506800Y-81759000D02*
X121000200Y-81759000D01*
X121000200Y-81759000D02*
X115801400Y-76560200D01*
X115801400Y-76560200D02*
X115801400Y-75488700D01*
X115801400Y-75488700D02*
X116487100Y-74803000D01*
X116487100Y-74803000D02*
X122513700Y-74803000D01*
X122513700Y-74803000D02*
X123421500Y-73895200D01*
X123421500Y-73895200D02*
X123421500Y-73533000D01*
X156083000Y-108585000D02*
X156083000Y-109686900D01*
X110998000Y-116840000D02*
X112099900Y-116840000D01*
X112099900Y-116840000D02*
X112099900Y-116977700D01*
X112099900Y-116977700D02*
X114341600Y-119219400D01*
X114341600Y-119219400D02*
X145699700Y-119219400D01*
X145699700Y-119219400D02*
X155232200Y-109686900D01*
X155232200Y-109686900D02*
X156083000Y-109686900D01*
G04 #@! TO.N,~IOR*
X125825900Y-85376000D02*
X125420300Y-84970400D01*
X140693500Y-83185000D02*
X140693500Y-82708500D01*
X140693500Y-82708500D02*
X139831700Y-81846700D01*
X139831700Y-81846700D02*
X136306500Y-81846700D01*
X136306500Y-81846700D02*
X135509000Y-82644200D01*
X135509000Y-82644200D02*
X135509000Y-83753900D01*
X135509000Y-83753900D02*
X134359900Y-84903000D01*
X134359900Y-84903000D02*
X126298900Y-84903000D01*
X126298900Y-84903000D02*
X125825900Y-85376000D01*
X125825900Y-85376000D02*
X125825900Y-89682900D01*
X125825900Y-89682900D02*
X124575900Y-90932900D01*
X124575900Y-90932900D02*
X113083700Y-90932900D01*
X113083700Y-90932900D02*
X111306600Y-92710000D01*
X111306600Y-92710000D02*
X109115100Y-92710000D01*
X109115100Y-92710000D02*
X107845100Y-93980000D01*
X107845100Y-93980000D02*
X95758000Y-93980000D01*
X141859000Y-83185000D02*
X140693500Y-83185000D01*
G04 #@! TO.N,~IOW*
X137532800Y-78200800D02*
X131794800Y-78200800D01*
X131794800Y-78200800D02*
X129667000Y-76073000D01*
X139319000Y-83185000D02*
X138153500Y-83185000D01*
X110998000Y-93980000D02*
X112099900Y-93980000D01*
X112099900Y-93980000D02*
X112586700Y-93493200D01*
X112586700Y-93493200D02*
X122688600Y-93493200D01*
X122688600Y-93493200D02*
X130875200Y-85306600D01*
X130875200Y-85306600D02*
X136508400Y-85306600D01*
X136508400Y-85306600D02*
X138153500Y-83661500D01*
X138153500Y-83661500D02*
X138153500Y-83185000D01*
G04 #@! TO.N,A0*
X96859900Y-104140000D02*
X97961800Y-105241900D01*
X97961800Y-105241900D02*
X111627700Y-105241900D01*
X111627700Y-105241900D02*
X117342800Y-110957000D01*
X117342800Y-110957000D02*
X130893700Y-110957000D01*
X130893700Y-110957000D02*
X131593200Y-111656500D01*
X131593200Y-111656500D02*
X146021700Y-111656500D01*
X95758000Y-104140000D02*
X96859900Y-104140000D01*
G04 #@! TO.N,Net-(C1-Pad1)*
X139573000Y-125730000D02*
X138471100Y-125730000D01*
X133223000Y-122555000D02*
X135296100Y-122555000D01*
X135296100Y-122555000D02*
X138471100Y-125730000D01*
X139573000Y-125730000D02*
X142113000Y-125730000D01*
X142113000Y-125730000D02*
X144653000Y-123190000D01*
G04 #@! TO.N,Net-(C2-Pad1)*
X139573000Y-116205000D02*
X139573000Y-115570000D01*
X133223000Y-117475000D02*
X138303000Y-117475000D01*
X138303000Y-117475000D02*
X139573000Y-116205000D01*
X139573000Y-116205000D02*
X144653000Y-116205000D01*
G04 #@! TO.N,CLK*
X114427000Y-73533000D02*
X115592500Y-73533000D01*
X171323000Y-111125000D02*
X171323000Y-110023100D01*
X171323000Y-110023100D02*
X172424900Y-110023100D01*
X172424900Y-110023100D02*
X179216500Y-103231500D01*
X179216500Y-103231500D02*
X179216500Y-79988300D01*
X179216500Y-79988300D02*
X166030800Y-66802600D01*
X166030800Y-66802600D02*
X121960600Y-66802600D01*
X121960600Y-66802600D02*
X115592500Y-73170700D01*
X115592500Y-73170700D02*
X115592500Y-73533000D01*
G04 #@! TO.N,RES*
X165608000Y-67945000D02*
X164506100Y-67945000D01*
X132207000Y-74907500D02*
X132569200Y-74907500D01*
X132569200Y-74907500D02*
X133477000Y-73999700D01*
X133477000Y-73999700D02*
X133477000Y-73141300D01*
X133477000Y-73141300D02*
X138673200Y-67945100D01*
X138673200Y-67945100D02*
X164506100Y-67945100D01*
X164506100Y-67945100D02*
X164506100Y-67945000D01*
X132207000Y-76073000D02*
X132207000Y-74907500D01*
X112099900Y-96520000D02*
X112804500Y-95815400D01*
X112804500Y-95815400D02*
X120949800Y-95815400D01*
X110998000Y-96520000D02*
X112099900Y-96520000D01*
G04 #@! TO.N,A1*
X137287000Y-73533000D02*
X137287000Y-71960600D01*
X137287000Y-71960600D02*
X136510700Y-71184300D01*
X95758000Y-101600000D02*
X95758000Y-102701900D01*
X158623000Y-131445000D02*
X157457500Y-131445000D01*
X157457500Y-131445000D02*
X157457500Y-131882100D01*
X157457500Y-131882100D02*
X156554800Y-132784800D01*
X156554800Y-132784800D02*
X142916700Y-132784800D01*
X142916700Y-132784800D02*
X142113000Y-131981100D01*
X142113000Y-131981100D02*
X142113000Y-130894700D01*
X142113000Y-130894700D02*
X139811600Y-128593300D01*
X139811600Y-128593300D02*
X129036000Y-128593300D01*
X129036000Y-128593300D02*
X127442700Y-127000000D01*
X127442700Y-127000000D02*
X118271300Y-127000000D01*
X118271300Y-127000000D02*
X112175900Y-120904600D01*
X112175900Y-120904600D02*
X112175900Y-118995600D01*
X112175900Y-118995600D02*
X111290300Y-118110000D01*
X111290300Y-118110000D02*
X108988200Y-118110000D01*
X108988200Y-118110000D02*
X96373800Y-105495600D01*
X96373800Y-105495600D02*
X95493700Y-105495600D01*
X95493700Y-105495600D02*
X94613400Y-104615300D01*
X94613400Y-104615300D02*
X94613400Y-103618100D01*
X94613400Y-103618100D02*
X95529600Y-102701900D01*
X95529600Y-102701900D02*
X95758000Y-102701900D01*
G04 #@! TO.N,A5*
X118618000Y-92075000D02*
X122992500Y-92075000D01*
G04 #@! TO.N,A6*
X118618000Y-94615000D02*
X122137600Y-94615000D01*
X122137600Y-94615000D02*
X130970700Y-85781900D01*
X130970700Y-85781900D02*
X140527700Y-85781900D01*
G04 #@! TO.N,Net-(J2-Pad1)*
X140843000Y-92710000D02*
X139677500Y-92710000D01*
X133223000Y-92710000D02*
X134388500Y-92710000D01*
X134388500Y-92710000D02*
X134388500Y-92418600D01*
X134388500Y-92418600D02*
X135262600Y-91544500D01*
X135262600Y-91544500D02*
X138512000Y-91544500D01*
X138512000Y-91544500D02*
X139677500Y-92710000D01*
X148463000Y-92710000D02*
X147297500Y-92710000D01*
X140843000Y-92710000D02*
X142008500Y-92710000D01*
X142008500Y-92710000D02*
X142008500Y-92418600D01*
X142008500Y-92418600D02*
X142882600Y-91544500D01*
X142882600Y-91544500D02*
X146132000Y-91544500D01*
X146132000Y-91544500D02*
X147297500Y-92710000D01*
G04 #@! TO.N,Net-(J2-Pad3)*
X140843000Y-95250000D02*
X139677500Y-95250000D01*
X133223000Y-95250000D02*
X134388500Y-95250000D01*
X134388500Y-95250000D02*
X134388500Y-94958600D01*
X134388500Y-94958600D02*
X135287700Y-94059400D01*
X135287700Y-94059400D02*
X138486900Y-94059400D01*
X138486900Y-94059400D02*
X139677500Y-95250000D01*
X148463000Y-95250000D02*
X147297500Y-95250000D01*
X140843000Y-95250000D02*
X142008500Y-95250000D01*
X142008500Y-95250000D02*
X142008500Y-94958600D01*
X142008500Y-94958600D02*
X142907700Y-94059400D01*
X142907700Y-94059400D02*
X146106900Y-94059400D01*
X146106900Y-94059400D02*
X147297500Y-95250000D01*
G04 #@! TO.N,Net-(J2-Pad5)*
X133223000Y-97790000D02*
X132057500Y-97790000D01*
X126238000Y-99695000D02*
X130152500Y-99695000D01*
X130152500Y-99695000D02*
X132057500Y-97790000D01*
X133223000Y-97790000D02*
X134388500Y-97790000D01*
X134388500Y-97790000D02*
X134388500Y-97498600D01*
X134388500Y-97498600D02*
X135287700Y-96599400D01*
X135287700Y-96599400D02*
X138486900Y-96599400D01*
X138486900Y-96599400D02*
X139677500Y-97790000D01*
X140843000Y-97790000D02*
X139677500Y-97790000D01*
X141425800Y-97790000D02*
X140843000Y-97790000D01*
X141425800Y-97790000D02*
X142008500Y-97790000D01*
X148463000Y-97790000D02*
X147297500Y-97790000D01*
X142008500Y-97790000D02*
X142008500Y-97498600D01*
X142008500Y-97498600D02*
X142907700Y-96599400D01*
X142907700Y-96599400D02*
X146106900Y-96599400D01*
X146106900Y-96599400D02*
X147297500Y-97790000D01*
G04 #@! TO.N,Net-(J2-Pad7)*
X140843000Y-100330000D02*
X139677500Y-100330000D01*
X133223000Y-100330000D02*
X134388500Y-100330000D01*
X134388500Y-100330000D02*
X134388500Y-100038600D01*
X134388500Y-100038600D02*
X135287700Y-99139400D01*
X135287700Y-99139400D02*
X138486900Y-99139400D01*
X138486900Y-99139400D02*
X139677500Y-100330000D01*
X141425800Y-100330000D02*
X140843000Y-100330000D01*
X141425800Y-100330000D02*
X142008500Y-100330000D01*
X148463000Y-100330000D02*
X147297500Y-100330000D01*
X142008500Y-100330000D02*
X142008500Y-100038600D01*
X142008500Y-100038600D02*
X142907700Y-99139400D01*
X142907700Y-99139400D02*
X146106900Y-99139400D01*
X146106900Y-99139400D02*
X147297500Y-100330000D01*
G04 #@! TO.N,Net-(J2-Pad9)*
X148463000Y-102870000D02*
X147297500Y-102870000D01*
X140260300Y-102870000D02*
X141450900Y-101679400D01*
X141450900Y-101679400D02*
X146106900Y-101679400D01*
X146106900Y-101679400D02*
X147297500Y-102870000D01*
X140260300Y-102870000D02*
X139677500Y-102870000D01*
X140843000Y-102870000D02*
X140260300Y-102870000D01*
X133223000Y-102870000D02*
X134388500Y-102870000D01*
X134388500Y-102870000D02*
X134388500Y-102578600D01*
X134388500Y-102578600D02*
X135287700Y-101679400D01*
X135287700Y-101679400D02*
X138486900Y-101679400D01*
X138486900Y-101679400D02*
X139677500Y-102870000D01*
G04 #@! TO.N,Net-(J2-Pad11)*
X133223000Y-105410000D02*
X134388500Y-105410000D01*
X140843000Y-105410000D02*
X139677500Y-105410000D01*
X139677500Y-105410000D02*
X138486900Y-104219400D01*
X138486900Y-104219400D02*
X135216800Y-104219400D01*
X135216800Y-104219400D02*
X134388500Y-105047700D01*
X134388500Y-105047700D02*
X134388500Y-105410000D01*
X141425800Y-105410000D02*
X140843000Y-105410000D01*
X141425800Y-105410000D02*
X142008500Y-105410000D01*
X148463000Y-105410000D02*
X147297500Y-105410000D01*
X142008500Y-105410000D02*
X142008500Y-105118600D01*
X142008500Y-105118600D02*
X142886300Y-104240800D01*
X142886300Y-104240800D02*
X146128300Y-104240800D01*
X146128300Y-104240800D02*
X147297500Y-105410000D01*
X133223000Y-105410000D02*
X132057500Y-105410000D01*
X126238000Y-107315000D02*
X130152500Y-107315000D01*
X130152500Y-107315000D02*
X132057500Y-105410000D01*
G04 #@! TO.N,Net-(J2-Pad13)*
X140843000Y-107950000D02*
X139677500Y-107950000D01*
X133223000Y-107950000D02*
X134388500Y-107950000D01*
X134388500Y-107950000D02*
X134388500Y-107658600D01*
X134388500Y-107658600D02*
X135287700Y-106759400D01*
X135287700Y-106759400D02*
X138486900Y-106759400D01*
X138486900Y-106759400D02*
X139677500Y-107950000D01*
X141425800Y-107950000D02*
X140843000Y-107950000D01*
X141425800Y-107950000D02*
X142008500Y-107950000D01*
X148463000Y-107950000D02*
X147297500Y-107950000D01*
X142008500Y-107950000D02*
X142008500Y-107658600D01*
X142008500Y-107658600D02*
X142907700Y-106759400D01*
X142907700Y-106759400D02*
X146106900Y-106759400D01*
X146106900Y-106759400D02*
X147297500Y-107950000D01*
G04 #@! TO.N,Net-(J2-Pad15)*
X147297500Y-110490000D02*
X146088800Y-109281300D01*
X146088800Y-109281300D02*
X142925800Y-109281300D01*
X142925800Y-109281300D02*
X142008500Y-110198600D01*
X142008500Y-110198600D02*
X142008500Y-110490000D01*
X133223000Y-110490000D02*
X134388500Y-110490000D01*
X140843000Y-110490000D02*
X139677500Y-110490000D01*
X139677500Y-110490000D02*
X138486900Y-109299400D01*
X138486900Y-109299400D02*
X135216800Y-109299400D01*
X135216800Y-109299400D02*
X134388500Y-110127700D01*
X134388500Y-110127700D02*
X134388500Y-110490000D01*
X141425800Y-110490000D02*
X140843000Y-110490000D01*
X141425800Y-110490000D02*
X142008500Y-110490000D01*
X133223000Y-110490000D02*
X132057500Y-110490000D01*
X118618000Y-107315000D02*
X119719900Y-107315000D01*
X119719900Y-107315000D02*
X120821800Y-108416900D01*
X120821800Y-108416900D02*
X129984400Y-108416900D01*
X129984400Y-108416900D02*
X132057500Y-110490000D01*
X148463000Y-110490000D02*
X147297500Y-110490000D01*
G04 #@! TO.N,Net-(J3-Pad10)*
X95758000Y-96520000D02*
X96859900Y-96520000D01*
X96859900Y-96520000D02*
X100527100Y-100187200D01*
X100527100Y-100187200D02*
X111490200Y-100187200D01*
X111490200Y-100187200D02*
X112436000Y-101133000D01*
X112436000Y-101133000D02*
X130408600Y-101133000D01*
X130408600Y-101133000D02*
X130783000Y-101507400D01*
X130783000Y-101507400D02*
X134585600Y-101507400D01*
X134585600Y-101507400D02*
X135763000Y-100330000D01*
G04 #@! TO.N,Net-(J4-Pad4)*
X177038000Y-98425000D02*
X177038000Y-97259500D01*
X156083000Y-95885000D02*
X157184900Y-95885000D01*
X157184900Y-95885000D02*
X158559400Y-97259500D01*
X158559400Y-97259500D02*
X177038000Y-97259500D01*
G04 #@! TO.N,PA0*
X89408000Y-98425000D02*
X92828700Y-98425000D01*
G04 #@! TO.N,PA1*
X86868000Y-98425000D02*
X88019900Y-98425000D01*
X93243000Y-94303900D02*
X90273900Y-97273000D01*
X90273900Y-97273000D02*
X88357200Y-97273000D01*
X88357200Y-97273000D02*
X88019900Y-97610300D01*
X88019900Y-97610300D02*
X88019900Y-98425000D01*
G04 #@! TO.N,PA2*
X89408000Y-95885000D02*
X90559900Y-95885000D01*
X92720900Y-93194800D02*
X90559900Y-95355800D01*
X90559900Y-95355800D02*
X90559900Y-95885000D01*
G04 #@! TO.N,PA3*
X86868000Y-95885000D02*
X86868000Y-94733100D01*
X95758000Y-83820000D02*
X94656100Y-83820000D01*
X94656100Y-83820000D02*
X94021100Y-84455000D01*
X94021100Y-84455000D02*
X88988800Y-84455000D01*
X88988800Y-84455000D02*
X88020000Y-85423800D01*
X88020000Y-85423800D02*
X88020000Y-86262300D01*
X88020000Y-86262300D02*
X87287300Y-86995000D01*
X87287300Y-86995000D02*
X86501600Y-86995000D01*
X86501600Y-86995000D02*
X85671500Y-87825100D01*
X85671500Y-87825100D02*
X85671500Y-93805200D01*
X85671500Y-93805200D02*
X86599400Y-94733100D01*
X86599400Y-94733100D02*
X86868000Y-94733100D01*
G04 #@! TO.N,PA4*
X110998000Y-84921900D02*
X111135700Y-84921900D01*
X111135700Y-84921900D02*
X112112500Y-85898700D01*
X112112500Y-85898700D02*
X112112500Y-89344000D01*
X112112500Y-89344000D02*
X111223300Y-90233200D01*
X111223300Y-90233200D02*
X109830600Y-90233200D01*
X109830600Y-90233200D02*
X107475700Y-92588100D01*
X107475700Y-92588100D02*
X93169900Y-92588100D01*
X93169900Y-92588100D02*
X93030200Y-92448400D01*
X93030200Y-92448400D02*
X91456500Y-92448400D01*
X91456500Y-92448400D02*
X90559900Y-93345000D01*
X89408000Y-93345000D02*
X90559900Y-93345000D01*
X110998000Y-83820000D02*
X110998000Y-84921900D01*
G04 #@! TO.N,PA5*
X86868000Y-93345000D02*
X86868000Y-92193100D01*
X110998000Y-86360000D02*
X109896100Y-86360000D01*
X109896100Y-86360000D02*
X108794200Y-87461900D01*
X108794200Y-87461900D02*
X92745300Y-87461900D01*
X92745300Y-87461900D02*
X90613100Y-89594100D01*
X90613100Y-89594100D02*
X88962900Y-89594100D01*
X88962900Y-89594100D02*
X88019900Y-90537100D01*
X88019900Y-90537100D02*
X88019900Y-91309700D01*
X88019900Y-91309700D02*
X87136500Y-92193100D01*
X87136500Y-92193100D02*
X86868000Y-92193100D01*
G04 #@! TO.N,PA6*
X89408000Y-90805000D02*
X90559900Y-90805000D01*
X110998000Y-88900000D02*
X104156700Y-88900000D01*
X104156700Y-88900000D02*
X102729000Y-90327700D01*
X102729000Y-90327700D02*
X91037200Y-90327700D01*
X91037200Y-90327700D02*
X90559900Y-90805000D01*
G04 #@! TO.N,PA7*
X86868000Y-90805000D02*
X86868000Y-89653100D01*
X110998000Y-91440000D02*
X112526800Y-89911200D01*
X112526800Y-89911200D02*
X112526800Y-83784600D01*
X112526800Y-83784600D02*
X111415700Y-82673500D01*
X111415700Y-82673500D02*
X100342600Y-82673500D01*
X100342600Y-82673500D02*
X98094100Y-84922000D01*
X98094100Y-84922000D02*
X93554100Y-84922000D01*
X93554100Y-84922000D02*
X91481100Y-86995000D01*
X91481100Y-86995000D02*
X88988700Y-86995000D01*
X88988700Y-86995000D02*
X88256100Y-87727600D01*
X88256100Y-87727600D02*
X88256100Y-88533500D01*
X88256100Y-88533500D02*
X87136500Y-89653100D01*
X87136500Y-89653100D02*
X86868000Y-89653100D01*
G04 #@! TO.N,PB0*
X89408000Y-122555000D02*
X90559900Y-122555000D01*
X95758000Y-127000000D02*
X94656100Y-127000000D01*
X94656100Y-127000000D02*
X90559900Y-122903800D01*
X90559900Y-122903800D02*
X90559900Y-122555000D01*
G04 #@! TO.N,PB1*
X86868000Y-122555000D02*
X88019900Y-122555000D01*
X95758000Y-129540000D02*
X94190300Y-129540000D01*
X94190300Y-129540000D02*
X88019900Y-123369600D01*
X88019900Y-123369600D02*
X88019900Y-122555000D01*
G04 #@! TO.N,PB3*
X88019900Y-120015000D02*
X88019900Y-120283600D01*
X88019900Y-120283600D02*
X89139300Y-121403000D01*
X89139300Y-121403000D02*
X91925300Y-121403000D01*
X91925300Y-121403000D02*
X93712300Y-123190000D01*
X93712300Y-123190000D02*
X101006100Y-123190000D01*
X101006100Y-123190000D02*
X109896100Y-132080000D01*
X86868000Y-120015000D02*
X88019900Y-120015000D01*
X110998000Y-132080000D02*
X109896100Y-132080000D01*
G04 #@! TO.N,PB5*
X86868000Y-117475000D02*
X88019900Y-117475000D01*
X110998000Y-127000000D02*
X109896100Y-127000000D01*
X109896100Y-127000000D02*
X103546100Y-120650000D01*
X103546100Y-120650000D02*
X93341300Y-120650000D01*
X93341300Y-120650000D02*
X91436300Y-118745000D01*
X91436300Y-118745000D02*
X89021300Y-118745000D01*
X89021300Y-118745000D02*
X88019900Y-117743600D01*
X88019900Y-117743600D02*
X88019900Y-117475000D01*
G04 #@! TO.N,PB6*
X89408000Y-114935000D02*
X90559900Y-114935000D01*
X110998000Y-124460000D02*
X110998000Y-123358100D01*
X110998000Y-123358100D02*
X111135700Y-123358100D01*
X111135700Y-123358100D02*
X112102500Y-122391300D01*
X112102500Y-122391300D02*
X112102500Y-121433900D01*
X112102500Y-121433900D02*
X111318600Y-120650000D01*
X111318600Y-120650000D02*
X109896000Y-120650000D01*
X109896000Y-120650000D02*
X104658300Y-115412300D01*
X104658300Y-115412300D02*
X91037200Y-115412300D01*
X91037200Y-115412300D02*
X90559900Y-114935000D01*
G04 #@! TO.N,PB7*
X88019900Y-114935000D02*
X88019900Y-115203600D01*
X88019900Y-115203600D02*
X89021300Y-116205000D01*
X89021300Y-116205000D02*
X91436300Y-116205000D01*
X91436300Y-116205000D02*
X93341300Y-118110000D01*
X93341300Y-118110000D02*
X106086100Y-118110000D01*
X106086100Y-118110000D02*
X109896100Y-121920000D01*
X86868000Y-114935000D02*
X88019900Y-114935000D01*
X110998000Y-121920000D02*
X109896100Y-121920000D01*
G04 #@! TO.N,PC4*
X89408000Y-112395000D02*
X90559900Y-112395000D01*
X95758000Y-114300000D02*
X92464900Y-114300000D01*
X92464900Y-114300000D02*
X90559900Y-112395000D01*
G04 #@! TO.N,PC5*
X86868000Y-112395000D02*
X88019900Y-112395000D01*
X95758000Y-111760000D02*
X94656100Y-111760000D01*
X94656100Y-111760000D02*
X94100500Y-111204400D01*
X94100500Y-111204400D02*
X88941900Y-111204400D01*
X88941900Y-111204400D02*
X88019900Y-112126400D01*
X88019900Y-112126400D02*
X88019900Y-112395000D01*
G04 #@! TO.N,PC6*
X89408000Y-109855000D02*
X90559900Y-109855000D01*
X95758000Y-109220000D02*
X91194900Y-109220000D01*
X91194900Y-109220000D02*
X90559900Y-109855000D01*
G04 #@! TO.N,PC7*
X86868000Y-109855000D02*
X88019900Y-109855000D01*
X95758000Y-106680000D02*
X94656100Y-106680000D01*
X94656100Y-106680000D02*
X92751100Y-108585000D01*
X92751100Y-108585000D02*
X89021300Y-108585000D01*
X89021300Y-108585000D02*
X88019900Y-109586400D01*
X88019900Y-109586400D02*
X88019900Y-109855000D01*
G04 #@! TO.N,Net-(U2-Pad25)*
X156083000Y-111125000D02*
X154981100Y-111125000D01*
X154981100Y-111125000D02*
X145665000Y-120441100D01*
X145665000Y-120441100D02*
X132570000Y-120441100D01*
X132570000Y-120441100D02*
X128551100Y-124460000D01*
X128551100Y-124460000D02*
X120989900Y-124460000D01*
X120989900Y-124460000D02*
X119719900Y-125730000D01*
X170221100Y-98425000D02*
X157521100Y-111125000D01*
X157521100Y-111125000D02*
X156083000Y-111125000D01*
X118618000Y-125730000D02*
X119719900Y-125730000D01*
X171323000Y-98425000D02*
X170221100Y-98425000D01*
G04 #@! TO.N,/~RESIN*
X134239000Y-83185000D02*
X136005200Y-81418800D01*
X136005200Y-81418800D02*
X141931600Y-81418800D01*
X141931600Y-81418800D02*
X143129000Y-82616200D01*
X143129000Y-82616200D02*
X143129000Y-83735500D01*
X143129000Y-83735500D02*
X144707600Y-85314100D01*
X144707600Y-85314100D02*
X172785800Y-85314100D01*
X172785800Y-85314100D02*
X175133000Y-82966900D01*
X175133000Y-81915000D02*
X175133000Y-82966900D01*
G04 #@! TO.N,Net-(Q1-Pad3)*
X173863000Y-81915000D02*
X169418000Y-81915000D01*
X169418000Y-81915000D02*
X165608000Y-78105000D01*
G04 #@! TO.N,A3*
X140992500Y-73533000D02*
X140992500Y-73824500D01*
X140992500Y-73824500D02*
X141866500Y-74698500D01*
X141866500Y-74698500D02*
X170931600Y-74698500D01*
X170931600Y-74698500D02*
X178378000Y-82144900D01*
X178378000Y-82144900D02*
X178378000Y-98894200D01*
X178378000Y-98894200D02*
X177577200Y-99695000D01*
X177577200Y-99695000D02*
X176487900Y-99695000D01*
X176487900Y-99695000D02*
X173170800Y-103012100D01*
X173170800Y-103012100D02*
X173170800Y-103232600D01*
X173170800Y-103232600D02*
X171628400Y-104775000D01*
X171628400Y-104775000D02*
X171012600Y-104775000D01*
X171012600Y-104775000D02*
X163703000Y-112084600D01*
X163703000Y-112084600D02*
X163703000Y-131445000D01*
X139827000Y-73533000D02*
X140992500Y-73533000D01*
G04 #@! TO.N,A4*
X142367000Y-76073000D02*
X141201500Y-76073000D01*
X141201500Y-76073000D02*
X141201500Y-76364400D01*
X141201500Y-76364400D02*
X140317700Y-77248200D01*
X140317700Y-77248200D02*
X139271000Y-77248200D01*
X139271000Y-77248200D02*
X138646200Y-76623400D01*
X138646200Y-76623400D02*
X138646200Y-73059400D01*
X138646200Y-73059400D02*
X139381500Y-72324100D01*
X139381500Y-72324100D02*
X169143900Y-72324100D01*
X169143900Y-72324100D02*
X178809100Y-81989300D01*
X178809100Y-81989300D02*
X178809100Y-101059200D01*
X178809100Y-101059200D02*
X177633300Y-102235000D01*
X177633300Y-102235000D02*
X176499600Y-102235000D01*
X176499600Y-102235000D02*
X173288800Y-105445800D01*
X173288800Y-105445800D02*
X173288800Y-105679600D01*
X173288800Y-105679600D02*
X171653400Y-107315000D01*
X171653400Y-107315000D02*
X171026600Y-107315000D01*
X171026600Y-107315000D02*
X166243000Y-112098600D01*
X166243000Y-112098600D02*
X166243000Y-131445000D01*
G04 #@! TD*
D27*
G04 #@! TO.N,GND*
G36*
X180086000Y-136906000D02*
X81915000Y-136906000D01*
X81915000Y-132754501D01*
X83846000Y-132754501D01*
X83846000Y-133815499D01*
X84252026Y-134795734D01*
X85002266Y-135545974D01*
X85982501Y-135952000D01*
X87043499Y-135952000D01*
X88023734Y-135545974D01*
X88773974Y-134795734D01*
X89180000Y-133815499D01*
X89180000Y-133699039D01*
X117226096Y-133699039D01*
X117386959Y-134087423D01*
X117762866Y-134502389D01*
X118268959Y-134741914D01*
X118491000Y-134620629D01*
X118491000Y-133477000D01*
X118745000Y-133477000D01*
X118745000Y-134620629D01*
X118967041Y-134741914D01*
X119473134Y-134502389D01*
X119849041Y-134087423D01*
X120009904Y-133699039D01*
X119887915Y-133477000D01*
X118745000Y-133477000D01*
X118491000Y-133477000D01*
X117348085Y-133477000D01*
X117226096Y-133699039D01*
X89180000Y-133699039D01*
X89180000Y-132754501D01*
X88773974Y-131774266D01*
X88023734Y-131024026D01*
X87043499Y-130618000D01*
X85982501Y-130618000D01*
X85002266Y-131024026D01*
X84252026Y-131774266D01*
X83846000Y-132754501D01*
X81915000Y-132754501D01*
X81915000Y-106958110D01*
X85426524Y-106958110D01*
X85547845Y-107188000D01*
X86741000Y-107188000D01*
X86741000Y-105994181D01*
X86511108Y-105873514D01*
X85986642Y-106119817D01*
X85596355Y-106548076D01*
X85426524Y-106958110D01*
X81915000Y-106958110D01*
X81915000Y-87825100D01*
X84920471Y-87825100D01*
X84934900Y-87897640D01*
X84934901Y-93732655D01*
X84920471Y-93805200D01*
X84977639Y-94092606D01*
X85099349Y-94274758D01*
X85099352Y-94274761D01*
X85140443Y-94336258D01*
X85201940Y-94377349D01*
X85733925Y-94909335D01*
X85469161Y-95305582D01*
X85353908Y-95885000D01*
X85469161Y-96464418D01*
X85797375Y-96955625D01*
X86095761Y-97155000D01*
X85797375Y-97354375D01*
X85469161Y-97845582D01*
X85353908Y-98425000D01*
X85469161Y-99004418D01*
X85797375Y-99495625D01*
X86288582Y-99823839D01*
X86721744Y-99910000D01*
X87014256Y-99910000D01*
X87447418Y-99823839D01*
X87938625Y-99495625D01*
X87950816Y-99477381D01*
X87959843Y-99522765D01*
X88100191Y-99732809D01*
X88310235Y-99873157D01*
X88558000Y-99922440D01*
X90258000Y-99922440D01*
X90505765Y-99873157D01*
X90715809Y-99732809D01*
X90856157Y-99522765D01*
X90905440Y-99275000D01*
X90905440Y-99161600D01*
X92038656Y-99161600D01*
X92217212Y-99340156D01*
X92613974Y-99504500D01*
X93043426Y-99504500D01*
X93440188Y-99340156D01*
X93743856Y-99036488D01*
X93908200Y-98639726D01*
X93908200Y-98210274D01*
X93743856Y-97813512D01*
X93440188Y-97509844D01*
X93043426Y-97345500D01*
X92613974Y-97345500D01*
X92217212Y-97509844D01*
X92038656Y-97688400D01*
X90905440Y-97688400D01*
X90905440Y-97683169D01*
X93205209Y-95383400D01*
X93457726Y-95383400D01*
X93854488Y-95219056D01*
X94158156Y-94915388D01*
X94322500Y-94518626D01*
X94322500Y-94118820D01*
X94406260Y-94539909D01*
X94723423Y-95014577D01*
X95075758Y-95250000D01*
X94723423Y-95485423D01*
X94406260Y-95960091D01*
X94294887Y-96520000D01*
X94406260Y-97079909D01*
X94723423Y-97554577D01*
X95107108Y-97810947D01*
X94902866Y-97907611D01*
X94526959Y-98322577D01*
X94366096Y-98710961D01*
X94488085Y-98933000D01*
X95631000Y-98933000D01*
X95631000Y-98913000D01*
X95885000Y-98913000D01*
X95885000Y-98933000D01*
X97027915Y-98933000D01*
X97149904Y-98710961D01*
X96989041Y-98322577D01*
X96613134Y-97907611D01*
X96408892Y-97810947D01*
X96792577Y-97554577D01*
X96816686Y-97518495D01*
X99954951Y-100656761D01*
X99996042Y-100718258D01*
X100057539Y-100759349D01*
X100057541Y-100759351D01*
X100239693Y-100881061D01*
X100454556Y-100923800D01*
X100454559Y-100923800D01*
X100527100Y-100938229D01*
X100599640Y-100923800D01*
X109723963Y-100923800D01*
X109646260Y-101040091D01*
X109534887Y-101600000D01*
X109646260Y-102159909D01*
X109963423Y-102634577D01*
X110315758Y-102870000D01*
X109963423Y-103105423D01*
X109646260Y-103580091D01*
X109534887Y-104140000D01*
X109607550Y-104505300D01*
X98266910Y-104505300D01*
X97432051Y-103670442D01*
X97390958Y-103608942D01*
X97147307Y-103446139D01*
X97000758Y-103416989D01*
X96792577Y-103105423D01*
X96471445Y-102890850D01*
X96481011Y-102842758D01*
X96792577Y-102634577D01*
X97109740Y-102159909D01*
X97221113Y-101600000D01*
X97109740Y-101040091D01*
X96792577Y-100565423D01*
X96408892Y-100309053D01*
X96613134Y-100212389D01*
X96989041Y-99797423D01*
X97149904Y-99409039D01*
X97027915Y-99187000D01*
X95885000Y-99187000D01*
X95885000Y-99207000D01*
X95631000Y-99207000D01*
X95631000Y-99187000D01*
X94488085Y-99187000D01*
X94366096Y-99409039D01*
X94526959Y-99797423D01*
X94902866Y-100212389D01*
X95107108Y-100309053D01*
X94723423Y-100565423D01*
X94406260Y-101040091D01*
X94294887Y-101600000D01*
X94406260Y-102159909D01*
X94656048Y-102533743D01*
X94143840Y-103045951D01*
X94082343Y-103087042D01*
X94041252Y-103148539D01*
X94041249Y-103148542D01*
X93919539Y-103330694D01*
X93862371Y-103618100D01*
X93876801Y-103690645D01*
X93876800Y-104542759D01*
X93862371Y-104615300D01*
X93876800Y-104687840D01*
X93876800Y-104687843D01*
X93919539Y-104902706D01*
X94082342Y-105146358D01*
X94143842Y-105187451D01*
X94674713Y-105718323D01*
X94515242Y-105956989D01*
X94415352Y-105976858D01*
X94368693Y-105986139D01*
X94186541Y-106107849D01*
X94186539Y-106107851D01*
X94125042Y-106148942D01*
X94083950Y-106210440D01*
X92445991Y-107848400D01*
X90815993Y-107848400D01*
X90922092Y-107315000D01*
X90806839Y-106735582D01*
X90478625Y-106244375D01*
X89987418Y-105916161D01*
X89554256Y-105830000D01*
X89261744Y-105830000D01*
X88828582Y-105916161D01*
X88337375Y-106244375D01*
X88136647Y-106544786D01*
X87749358Y-106119817D01*
X87224892Y-105873514D01*
X86995000Y-105994181D01*
X86995000Y-107188000D01*
X87015000Y-107188000D01*
X87015000Y-107442000D01*
X86995000Y-107442000D01*
X86995000Y-107462000D01*
X86741000Y-107462000D01*
X86741000Y-107442000D01*
X85547845Y-107442000D01*
X85426524Y-107671890D01*
X85596355Y-108081924D01*
X85986642Y-108510183D01*
X86116478Y-108571157D01*
X85797375Y-108784375D01*
X85469161Y-109275582D01*
X85353908Y-109855000D01*
X85469161Y-110434418D01*
X85797375Y-110925625D01*
X86095761Y-111125000D01*
X85797375Y-111324375D01*
X85469161Y-111815582D01*
X85353908Y-112395000D01*
X85469161Y-112974418D01*
X85797375Y-113465625D01*
X86095761Y-113665000D01*
X85797375Y-113864375D01*
X85469161Y-114355582D01*
X85353908Y-114935000D01*
X85469161Y-115514418D01*
X85797375Y-116005625D01*
X86095761Y-116205000D01*
X85797375Y-116404375D01*
X85469161Y-116895582D01*
X85353908Y-117475000D01*
X85469161Y-118054418D01*
X85797375Y-118545625D01*
X86095761Y-118745000D01*
X85797375Y-118944375D01*
X85469161Y-119435582D01*
X85353908Y-120015000D01*
X85469161Y-120594418D01*
X85797375Y-121085625D01*
X86095761Y-121285000D01*
X85797375Y-121484375D01*
X85469161Y-121975582D01*
X85353908Y-122555000D01*
X85469161Y-123134418D01*
X85797375Y-123625625D01*
X86288582Y-123953839D01*
X86721744Y-124040000D01*
X87014256Y-124040000D01*
X87447418Y-123953839D01*
X87507925Y-123913409D01*
X87550342Y-123941751D01*
X93618149Y-130009558D01*
X93659242Y-130071058D01*
X93902893Y-130233861D01*
X94117756Y-130276600D01*
X94117760Y-130276600D01*
X94190299Y-130291029D01*
X94262838Y-130276600D01*
X94524321Y-130276600D01*
X94723423Y-130574577D01*
X95075758Y-130810000D01*
X94723423Y-131045423D01*
X94406260Y-131520091D01*
X94294887Y-132080000D01*
X94406260Y-132639909D01*
X94723423Y-133114577D01*
X95198091Y-133431740D01*
X95616667Y-133515000D01*
X95899333Y-133515000D01*
X96317909Y-133431740D01*
X96792577Y-133114577D01*
X97109740Y-132639909D01*
X97221113Y-132080000D01*
X97109740Y-131520091D01*
X96792577Y-131045423D01*
X96440242Y-130810000D01*
X96792577Y-130574577D01*
X97109740Y-130099909D01*
X97221113Y-129540000D01*
X97109740Y-128980091D01*
X96792577Y-128505423D01*
X96440242Y-128270000D01*
X96792577Y-128034577D01*
X97109740Y-127559909D01*
X97221113Y-127000000D01*
X97109740Y-126440091D01*
X96792577Y-125965423D01*
X96440242Y-125730000D01*
X96792577Y-125494577D01*
X97109740Y-125019909D01*
X97221113Y-124460000D01*
X97115013Y-123926600D01*
X100700991Y-123926600D01*
X109323951Y-132549561D01*
X109365042Y-132611058D01*
X109426539Y-132652149D01*
X109426541Y-132652151D01*
X109546238Y-132732130D01*
X109608693Y-132773861D01*
X109755242Y-132803011D01*
X109963423Y-133114577D01*
X110438091Y-133431740D01*
X110856667Y-133515000D01*
X111139333Y-133515000D01*
X111557909Y-133431740D01*
X112032577Y-133114577D01*
X112349740Y-132639909D01*
X112461113Y-132080000D01*
X112349740Y-131520091D01*
X112032577Y-131045423D01*
X111680242Y-130810000D01*
X112032577Y-130574577D01*
X112349740Y-130099909D01*
X112461113Y-129540000D01*
X112349740Y-128980091D01*
X112032577Y-128505423D01*
X111680242Y-128270000D01*
X112032577Y-128034577D01*
X112349740Y-127559909D01*
X112461113Y-127000000D01*
X112349740Y-126440091D01*
X112032577Y-125965423D01*
X111680242Y-125730000D01*
X112032577Y-125494577D01*
X112349740Y-125019909D01*
X112461113Y-124460000D01*
X112349740Y-123900091D01*
X112063623Y-123471887D01*
X112572061Y-122963449D01*
X112633558Y-122922358D01*
X112674649Y-122860861D01*
X112674651Y-122860859D01*
X112796361Y-122678707D01*
X112799239Y-122664239D01*
X112814933Y-122585342D01*
X117535995Y-127306404D01*
X117266260Y-127710091D01*
X117154887Y-128270000D01*
X117266260Y-128829909D01*
X117583423Y-129304577D01*
X117935758Y-129540000D01*
X117583423Y-129775423D01*
X117266260Y-130250091D01*
X117154887Y-130810000D01*
X117266260Y-131369909D01*
X117583423Y-131844577D01*
X117967108Y-132100947D01*
X117762866Y-132197611D01*
X117386959Y-132612577D01*
X117226096Y-133000961D01*
X117348085Y-133223000D01*
X118491000Y-133223000D01*
X118491000Y-133203000D01*
X118745000Y-133203000D01*
X118745000Y-133223000D01*
X119887915Y-133223000D01*
X120009904Y-133000961D01*
X119849041Y-132612577D01*
X119473134Y-132197611D01*
X119268892Y-132100947D01*
X119652577Y-131844577D01*
X119969740Y-131369909D01*
X120081113Y-130810000D01*
X119969740Y-130250091D01*
X119652577Y-129775423D01*
X119300242Y-129540000D01*
X119652577Y-129304577D01*
X119969740Y-128829909D01*
X120081113Y-128270000D01*
X119975013Y-127736600D01*
X124880987Y-127736600D01*
X124774887Y-128270000D01*
X124886260Y-128829909D01*
X125203423Y-129304577D01*
X125555758Y-129540000D01*
X125203423Y-129775423D01*
X124886260Y-130250091D01*
X124774887Y-130810000D01*
X124886260Y-131369909D01*
X125203423Y-131844577D01*
X125555758Y-132080000D01*
X125203423Y-132315423D01*
X124886260Y-132790091D01*
X124774887Y-133350000D01*
X124886260Y-133909909D01*
X125203423Y-134384577D01*
X125678091Y-134701740D01*
X126096667Y-134785000D01*
X126379333Y-134785000D01*
X126797909Y-134701740D01*
X127272577Y-134384577D01*
X127589740Y-133909909D01*
X127701113Y-133350000D01*
X127589740Y-132790091D01*
X127272577Y-132315423D01*
X126920242Y-132080000D01*
X127272577Y-131844577D01*
X127589740Y-131369909D01*
X127701113Y-130810000D01*
X127589740Y-130250091D01*
X127272577Y-129775423D01*
X126920242Y-129540000D01*
X127272577Y-129304577D01*
X127589740Y-128829909D01*
X127696115Y-128295124D01*
X128463849Y-129062858D01*
X128504942Y-129124358D01*
X128748593Y-129287161D01*
X128963456Y-129329900D01*
X128963460Y-129329900D01*
X129035999Y-129344329D01*
X129108538Y-129329900D01*
X139506491Y-129329900D01*
X140137944Y-129961353D01*
X139762570Y-130212170D01*
X139573000Y-130495881D01*
X139383430Y-130212170D01*
X138887724Y-129880950D01*
X138303000Y-129764641D01*
X137718275Y-129880950D01*
X137222570Y-130212170D01*
X137033000Y-130495881D01*
X136843430Y-130212170D01*
X136347724Y-129880950D01*
X135763000Y-129764641D01*
X135178275Y-129880950D01*
X134682570Y-130212170D01*
X134493000Y-130495881D01*
X134303430Y-130212170D01*
X133807724Y-129880950D01*
X133223000Y-129764641D01*
X132638275Y-129880950D01*
X132142570Y-130212170D01*
X131811350Y-130707876D01*
X131724400Y-131145003D01*
X131724400Y-131744998D01*
X131811350Y-132182125D01*
X132142570Y-132677830D01*
X132638276Y-133009050D01*
X133223000Y-133125359D01*
X133807725Y-133009050D01*
X134303430Y-132677830D01*
X134493000Y-132394119D01*
X134682570Y-132677830D01*
X135178276Y-133009050D01*
X135763000Y-133125359D01*
X136347725Y-133009050D01*
X136843430Y-132677830D01*
X137033000Y-132394119D01*
X137222570Y-132677830D01*
X137718276Y-133009050D01*
X138303000Y-133125359D01*
X138887725Y-133009050D01*
X139383430Y-132677830D01*
X139573000Y-132394119D01*
X139762570Y-132677830D01*
X140258276Y-133009050D01*
X140843000Y-133125359D01*
X141427725Y-133009050D01*
X141830269Y-132740078D01*
X142344549Y-133254358D01*
X142385642Y-133315858D01*
X142629293Y-133478661D01*
X142844156Y-133521400D01*
X142844160Y-133521400D01*
X142916699Y-133535829D01*
X142989238Y-133521400D01*
X156482260Y-133521400D01*
X156554800Y-133535829D01*
X156627340Y-133521400D01*
X156627344Y-133521400D01*
X156842207Y-133478661D01*
X157085858Y-133315858D01*
X157126951Y-133254358D01*
X157639028Y-132742281D01*
X158038276Y-133009050D01*
X158623000Y-133125359D01*
X159207725Y-133009050D01*
X159703430Y-132677830D01*
X159893000Y-132394119D01*
X160082570Y-132677830D01*
X160578276Y-133009050D01*
X161163000Y-133125359D01*
X161747725Y-133009050D01*
X162243430Y-132677830D01*
X162433000Y-132394119D01*
X162622570Y-132677830D01*
X163118276Y-133009050D01*
X163703000Y-133125359D01*
X164287725Y-133009050D01*
X164783430Y-132677830D01*
X164973000Y-132394119D01*
X165162570Y-132677830D01*
X165658276Y-133009050D01*
X166243000Y-133125359D01*
X166827725Y-133009050D01*
X167323430Y-132677830D01*
X167513000Y-132394119D01*
X167702570Y-132677830D01*
X168198276Y-133009050D01*
X168783000Y-133125359D01*
X169367725Y-133009050D01*
X169703785Y-132784501D01*
X172866000Y-132784501D01*
X172866000Y-133845499D01*
X173272026Y-134825734D01*
X174022266Y-135575974D01*
X175002501Y-135982000D01*
X176063499Y-135982000D01*
X177043734Y-135575974D01*
X177793974Y-134825734D01*
X178200000Y-133845499D01*
X178200000Y-132784501D01*
X177793974Y-131804266D01*
X177043734Y-131054026D01*
X176063499Y-130648000D01*
X175002501Y-130648000D01*
X174022266Y-131054026D01*
X173272026Y-131804266D01*
X172866000Y-132784501D01*
X169703785Y-132784501D01*
X169863430Y-132677830D01*
X170194650Y-132182124D01*
X170281600Y-131744997D01*
X170281600Y-131145002D01*
X170194650Y-130707875D01*
X169863430Y-130212170D01*
X169367724Y-129880950D01*
X168783000Y-129764641D01*
X168198275Y-129880950D01*
X167702570Y-130212170D01*
X167513000Y-130495881D01*
X167323430Y-130212170D01*
X166979600Y-129982430D01*
X166979600Y-112403709D01*
X170078262Y-109305048D01*
X170288423Y-109619577D01*
X170609555Y-109834150D01*
X170599989Y-109882242D01*
X170288423Y-110090423D01*
X169971260Y-110565091D01*
X169859887Y-111125000D01*
X169971260Y-111684909D01*
X170288423Y-112159577D01*
X170640758Y-112395000D01*
X170288423Y-112630423D01*
X169971260Y-113105091D01*
X169859887Y-113665000D01*
X169971260Y-114224909D01*
X170288423Y-114699577D01*
X170640758Y-114935000D01*
X170288423Y-115170423D01*
X169971260Y-115645091D01*
X169859887Y-116205000D01*
X169971260Y-116764909D01*
X170288423Y-117239577D01*
X170640758Y-117475000D01*
X170288423Y-117710423D01*
X169971260Y-118185091D01*
X169859887Y-118745000D01*
X169971260Y-119304909D01*
X170288423Y-119779577D01*
X170640758Y-120015000D01*
X170288423Y-120250423D01*
X169971260Y-120725091D01*
X169859887Y-121285000D01*
X169971260Y-121844909D01*
X170288423Y-122319577D01*
X170640758Y-122555000D01*
X170288423Y-122790423D01*
X169971260Y-123265091D01*
X169859887Y-123825000D01*
X169971260Y-124384909D01*
X170288423Y-124859577D01*
X170763091Y-125176740D01*
X171181667Y-125260000D01*
X171464333Y-125260000D01*
X171882909Y-125176740D01*
X172357577Y-124859577D01*
X172674740Y-124384909D01*
X172786113Y-123825000D01*
X172674740Y-123265091D01*
X172357577Y-122790423D01*
X172005242Y-122555000D01*
X172357577Y-122319577D01*
X172674740Y-121844909D01*
X172786113Y-121285000D01*
X172674740Y-120725091D01*
X172357577Y-120250423D01*
X172005242Y-120015000D01*
X172357577Y-119779577D01*
X172674740Y-119304909D01*
X172786113Y-118745000D01*
X172674740Y-118185091D01*
X172357577Y-117710423D01*
X172005242Y-117475000D01*
X172357577Y-117239577D01*
X172674740Y-116764909D01*
X172786113Y-116205000D01*
X172674740Y-115645091D01*
X172357577Y-115170423D01*
X172005242Y-114935000D01*
X172357577Y-114699577D01*
X172674740Y-114224909D01*
X172786113Y-113665000D01*
X172674740Y-113105091D01*
X172357577Y-112630423D01*
X172005242Y-112395000D01*
X172357577Y-112159577D01*
X172674740Y-111684909D01*
X172786113Y-111125000D01*
X172705229Y-110718369D01*
X172712307Y-110716961D01*
X172955958Y-110554158D01*
X172997051Y-110492658D01*
X179686061Y-103803649D01*
X179747558Y-103762558D01*
X179788649Y-103701061D01*
X179788651Y-103701059D01*
X179910361Y-103518907D01*
X179913286Y-103504200D01*
X179953100Y-103304044D01*
X179953100Y-103304041D01*
X179967529Y-103231500D01*
X179953100Y-103158960D01*
X179953100Y-80060840D01*
X179967529Y-79988300D01*
X179953100Y-79915759D01*
X179953100Y-79915756D01*
X179910361Y-79700893D01*
X179861955Y-79628449D01*
X179788651Y-79518741D01*
X179788649Y-79518739D01*
X179747558Y-79457242D01*
X179686061Y-79416151D01*
X168214910Y-67945000D01*
X169224887Y-67945000D01*
X169336260Y-68504909D01*
X169653423Y-68979577D01*
X170128091Y-69296740D01*
X170546667Y-69380000D01*
X170829333Y-69380000D01*
X171247909Y-69296740D01*
X171722577Y-68979577D01*
X172039740Y-68504909D01*
X172151113Y-67945000D01*
X172039740Y-67385091D01*
X171722577Y-66910423D01*
X171489224Y-66754501D01*
X172856000Y-66754501D01*
X172856000Y-67815499D01*
X173262026Y-68795734D01*
X174012266Y-69545974D01*
X174992501Y-69952000D01*
X176053499Y-69952000D01*
X177033734Y-69545974D01*
X177783974Y-68795734D01*
X178190000Y-67815499D01*
X178190000Y-66754501D01*
X177783974Y-65774266D01*
X177033734Y-65024026D01*
X176053499Y-64618000D01*
X174992501Y-64618000D01*
X174012266Y-65024026D01*
X173262026Y-65774266D01*
X172856000Y-66754501D01*
X171489224Y-66754501D01*
X171247909Y-66593260D01*
X170829333Y-66510000D01*
X170546667Y-66510000D01*
X170128091Y-66593260D01*
X169653423Y-66910423D01*
X169336260Y-67385091D01*
X169224887Y-67945000D01*
X168214910Y-67945000D01*
X166602951Y-66333042D01*
X166561858Y-66271542D01*
X166318207Y-66108739D01*
X166103344Y-66066000D01*
X166103340Y-66066000D01*
X166030800Y-66051571D01*
X165958260Y-66066000D01*
X122033138Y-66066000D01*
X121960599Y-66051571D01*
X121888060Y-66066000D01*
X121888056Y-66066000D01*
X121673193Y-66108739D01*
X121429542Y-66271542D01*
X121388449Y-66333042D01*
X115364454Y-72357037D01*
X115011725Y-72121350D01*
X114574598Y-72034400D01*
X114279402Y-72034400D01*
X113842275Y-72121350D01*
X113346570Y-72452570D01*
X113157000Y-72736281D01*
X112967430Y-72452570D01*
X112471725Y-72121350D01*
X112034598Y-72034400D01*
X111739402Y-72034400D01*
X111302275Y-72121350D01*
X110806570Y-72452570D01*
X110605146Y-72754021D01*
X110553821Y-72644510D01*
X110121947Y-72250312D01*
X109706026Y-72078042D01*
X109474000Y-72199183D01*
X109474000Y-73406000D01*
X109494000Y-73406000D01*
X109494000Y-73660000D01*
X109474000Y-73660000D01*
X109474000Y-73680000D01*
X109220000Y-73680000D01*
X109220000Y-73660000D01*
X106934000Y-73660000D01*
X106934000Y-73680000D01*
X106680000Y-73680000D01*
X106680000Y-73660000D01*
X105472531Y-73660000D01*
X105352032Y-73892027D01*
X105600179Y-74421490D01*
X105787950Y-74592881D01*
X105695635Y-74611243D01*
X105485591Y-74751591D01*
X105345243Y-74961635D01*
X105311117Y-75133200D01*
X97967654Y-75133200D01*
X97875100Y-75114790D01*
X97782546Y-75133200D01*
X97782541Y-75133200D01*
X97508409Y-75187728D01*
X97508408Y-75187729D01*
X97508407Y-75187729D01*
X97276010Y-75343012D01*
X97276008Y-75343014D01*
X97197543Y-75395443D01*
X97145114Y-75473908D01*
X90489048Y-82129975D01*
X90478625Y-82114375D01*
X89987418Y-81786161D01*
X89554256Y-81700000D01*
X89261744Y-81700000D01*
X88828582Y-81786161D01*
X88337375Y-82114375D01*
X88136647Y-82414786D01*
X87749358Y-81989817D01*
X87224892Y-81743514D01*
X86995000Y-81864181D01*
X86995000Y-83058000D01*
X87015000Y-83058000D01*
X87015000Y-83312000D01*
X86995000Y-83312000D01*
X86995000Y-83332000D01*
X86741000Y-83332000D01*
X86741000Y-83312000D01*
X85547845Y-83312000D01*
X85426524Y-83541890D01*
X85596355Y-83951924D01*
X85986642Y-84380183D01*
X86116478Y-84441157D01*
X85797375Y-84654375D01*
X85469161Y-85145582D01*
X85353908Y-85725000D01*
X85469161Y-86304418D01*
X85742056Y-86712834D01*
X85201942Y-87252949D01*
X85140442Y-87294042D01*
X84977639Y-87537694D01*
X84934900Y-87752557D01*
X84934900Y-87752560D01*
X84920471Y-87825100D01*
X81915000Y-87825100D01*
X81915000Y-82828110D01*
X85426524Y-82828110D01*
X85547845Y-83058000D01*
X86741000Y-83058000D01*
X86741000Y-81864181D01*
X86511108Y-81743514D01*
X85986642Y-81989817D01*
X85596355Y-82418076D01*
X85426524Y-82828110D01*
X81915000Y-82828110D01*
X81915000Y-73173973D01*
X105352032Y-73173973D01*
X105472531Y-73406000D01*
X106680000Y-73406000D01*
X106680000Y-72199183D01*
X106934000Y-72199183D01*
X106934000Y-73406000D01*
X109220000Y-73406000D01*
X109220000Y-72199183D01*
X108987974Y-72078042D01*
X108572053Y-72250312D01*
X108140179Y-72644510D01*
X108077000Y-72779313D01*
X108013821Y-72644510D01*
X107581947Y-72250312D01*
X107166026Y-72078042D01*
X106934000Y-72199183D01*
X106680000Y-72199183D01*
X106447974Y-72078042D01*
X106032053Y-72250312D01*
X105600179Y-72644510D01*
X105352032Y-73173973D01*
X81915000Y-73173973D01*
X81915000Y-66754501D01*
X83856000Y-66754501D01*
X83856000Y-67815499D01*
X84262026Y-68795734D01*
X85012266Y-69545974D01*
X85992501Y-69952000D01*
X87053499Y-69952000D01*
X88033734Y-69545974D01*
X88783974Y-68795734D01*
X89190000Y-67815499D01*
X89190000Y-66754501D01*
X88783974Y-65774266D01*
X88033734Y-65024026D01*
X87053499Y-64618000D01*
X85992501Y-64618000D01*
X85012266Y-65024026D01*
X84262026Y-65774266D01*
X83856000Y-66754501D01*
X81915000Y-66754501D01*
X81915000Y-63575000D01*
X180086000Y-63575000D01*
X180086000Y-136906000D01*
X180086000Y-136906000D01*
G37*
X180086000Y-136906000D02*
X81915000Y-136906000D01*
X81915000Y-132754501D01*
X83846000Y-132754501D01*
X83846000Y-133815499D01*
X84252026Y-134795734D01*
X85002266Y-135545974D01*
X85982501Y-135952000D01*
X87043499Y-135952000D01*
X88023734Y-135545974D01*
X88773974Y-134795734D01*
X89180000Y-133815499D01*
X89180000Y-133699039D01*
X117226096Y-133699039D01*
X117386959Y-134087423D01*
X117762866Y-134502389D01*
X118268959Y-134741914D01*
X118491000Y-134620629D01*
X118491000Y-133477000D01*
X118745000Y-133477000D01*
X118745000Y-134620629D01*
X118967041Y-134741914D01*
X119473134Y-134502389D01*
X119849041Y-134087423D01*
X120009904Y-133699039D01*
X119887915Y-133477000D01*
X118745000Y-133477000D01*
X118491000Y-133477000D01*
X117348085Y-133477000D01*
X117226096Y-133699039D01*
X89180000Y-133699039D01*
X89180000Y-132754501D01*
X88773974Y-131774266D01*
X88023734Y-131024026D01*
X87043499Y-130618000D01*
X85982501Y-130618000D01*
X85002266Y-131024026D01*
X84252026Y-131774266D01*
X83846000Y-132754501D01*
X81915000Y-132754501D01*
X81915000Y-106958110D01*
X85426524Y-106958110D01*
X85547845Y-107188000D01*
X86741000Y-107188000D01*
X86741000Y-105994181D01*
X86511108Y-105873514D01*
X85986642Y-106119817D01*
X85596355Y-106548076D01*
X85426524Y-106958110D01*
X81915000Y-106958110D01*
X81915000Y-87825100D01*
X84920471Y-87825100D01*
X84934900Y-87897640D01*
X84934901Y-93732655D01*
X84920471Y-93805200D01*
X84977639Y-94092606D01*
X85099349Y-94274758D01*
X85099352Y-94274761D01*
X85140443Y-94336258D01*
X85201940Y-94377349D01*
X85733925Y-94909335D01*
X85469161Y-95305582D01*
X85353908Y-95885000D01*
X85469161Y-96464418D01*
X85797375Y-96955625D01*
X86095761Y-97155000D01*
X85797375Y-97354375D01*
X85469161Y-97845582D01*
X85353908Y-98425000D01*
X85469161Y-99004418D01*
X85797375Y-99495625D01*
X86288582Y-99823839D01*
X86721744Y-99910000D01*
X87014256Y-99910000D01*
X87447418Y-99823839D01*
X87938625Y-99495625D01*
X87950816Y-99477381D01*
X87959843Y-99522765D01*
X88100191Y-99732809D01*
X88310235Y-99873157D01*
X88558000Y-99922440D01*
X90258000Y-99922440D01*
X90505765Y-99873157D01*
X90715809Y-99732809D01*
X90856157Y-99522765D01*
X90905440Y-99275000D01*
X90905440Y-99161600D01*
X92038656Y-99161600D01*
X92217212Y-99340156D01*
X92613974Y-99504500D01*
X93043426Y-99504500D01*
X93440188Y-99340156D01*
X93743856Y-99036488D01*
X93908200Y-98639726D01*
X93908200Y-98210274D01*
X93743856Y-97813512D01*
X93440188Y-97509844D01*
X93043426Y-97345500D01*
X92613974Y-97345500D01*
X92217212Y-97509844D01*
X92038656Y-97688400D01*
X90905440Y-97688400D01*
X90905440Y-97683169D01*
X93205209Y-95383400D01*
X93457726Y-95383400D01*
X93854488Y-95219056D01*
X94158156Y-94915388D01*
X94322500Y-94518626D01*
X94322500Y-94118820D01*
X94406260Y-94539909D01*
X94723423Y-95014577D01*
X95075758Y-95250000D01*
X94723423Y-95485423D01*
X94406260Y-95960091D01*
X94294887Y-96520000D01*
X94406260Y-97079909D01*
X94723423Y-97554577D01*
X95107108Y-97810947D01*
X94902866Y-97907611D01*
X94526959Y-98322577D01*
X94366096Y-98710961D01*
X94488085Y-98933000D01*
X95631000Y-98933000D01*
X95631000Y-98913000D01*
X95885000Y-98913000D01*
X95885000Y-98933000D01*
X97027915Y-98933000D01*
X97149904Y-98710961D01*
X96989041Y-98322577D01*
X96613134Y-97907611D01*
X96408892Y-97810947D01*
X96792577Y-97554577D01*
X96816686Y-97518495D01*
X99954951Y-100656761D01*
X99996042Y-100718258D01*
X100057539Y-100759349D01*
X100057541Y-100759351D01*
X100239693Y-100881061D01*
X100454556Y-100923800D01*
X100454559Y-100923800D01*
X100527100Y-100938229D01*
X100599640Y-100923800D01*
X109723963Y-100923800D01*
X109646260Y-101040091D01*
X109534887Y-101600000D01*
X109646260Y-102159909D01*
X109963423Y-102634577D01*
X110315758Y-102870000D01*
X109963423Y-103105423D01*
X109646260Y-103580091D01*
X109534887Y-104140000D01*
X109607550Y-104505300D01*
X98266910Y-104505300D01*
X97432051Y-103670442D01*
X97390958Y-103608942D01*
X97147307Y-103446139D01*
X97000758Y-103416989D01*
X96792577Y-103105423D01*
X96471445Y-102890850D01*
X96481011Y-102842758D01*
X96792577Y-102634577D01*
X97109740Y-102159909D01*
X97221113Y-101600000D01*
X97109740Y-101040091D01*
X96792577Y-100565423D01*
X96408892Y-100309053D01*
X96613134Y-100212389D01*
X96989041Y-99797423D01*
X97149904Y-99409039D01*
X97027915Y-99187000D01*
X95885000Y-99187000D01*
X95885000Y-99207000D01*
X95631000Y-99207000D01*
X95631000Y-99187000D01*
X94488085Y-99187000D01*
X94366096Y-99409039D01*
X94526959Y-99797423D01*
X94902866Y-100212389D01*
X95107108Y-100309053D01*
X94723423Y-100565423D01*
X94406260Y-101040091D01*
X94294887Y-101600000D01*
X94406260Y-102159909D01*
X94656048Y-102533743D01*
X94143840Y-103045951D01*
X94082343Y-103087042D01*
X94041252Y-103148539D01*
X94041249Y-103148542D01*
X93919539Y-103330694D01*
X93862371Y-103618100D01*
X93876801Y-103690645D01*
X93876800Y-104542759D01*
X93862371Y-104615300D01*
X93876800Y-104687840D01*
X93876800Y-104687843D01*
X93919539Y-104902706D01*
X94082342Y-105146358D01*
X94143842Y-105187451D01*
X94674713Y-105718323D01*
X94515242Y-105956989D01*
X94415352Y-105976858D01*
X94368693Y-105986139D01*
X94186541Y-106107849D01*
X94186539Y-106107851D01*
X94125042Y-106148942D01*
X94083950Y-106210440D01*
X92445991Y-107848400D01*
X90815993Y-107848400D01*
X90922092Y-107315000D01*
X90806839Y-106735582D01*
X90478625Y-106244375D01*
X89987418Y-105916161D01*
X89554256Y-105830000D01*
X89261744Y-105830000D01*
X88828582Y-105916161D01*
X88337375Y-106244375D01*
X88136647Y-106544786D01*
X87749358Y-106119817D01*
X87224892Y-105873514D01*
X86995000Y-105994181D01*
X86995000Y-107188000D01*
X87015000Y-107188000D01*
X87015000Y-107442000D01*
X86995000Y-107442000D01*
X86995000Y-107462000D01*
X86741000Y-107462000D01*
X86741000Y-107442000D01*
X85547845Y-107442000D01*
X85426524Y-107671890D01*
X85596355Y-108081924D01*
X85986642Y-108510183D01*
X86116478Y-108571157D01*
X85797375Y-108784375D01*
X85469161Y-109275582D01*
X85353908Y-109855000D01*
X85469161Y-110434418D01*
X85797375Y-110925625D01*
X86095761Y-111125000D01*
X85797375Y-111324375D01*
X85469161Y-111815582D01*
X85353908Y-112395000D01*
X85469161Y-112974418D01*
X85797375Y-113465625D01*
X86095761Y-113665000D01*
X85797375Y-113864375D01*
X85469161Y-114355582D01*
X85353908Y-114935000D01*
X85469161Y-115514418D01*
X85797375Y-116005625D01*
X86095761Y-116205000D01*
X85797375Y-116404375D01*
X85469161Y-116895582D01*
X85353908Y-117475000D01*
X85469161Y-118054418D01*
X85797375Y-118545625D01*
X86095761Y-118745000D01*
X85797375Y-118944375D01*
X85469161Y-119435582D01*
X85353908Y-120015000D01*
X85469161Y-120594418D01*
X85797375Y-121085625D01*
X86095761Y-121285000D01*
X85797375Y-121484375D01*
X85469161Y-121975582D01*
X85353908Y-122555000D01*
X85469161Y-123134418D01*
X85797375Y-123625625D01*
X86288582Y-123953839D01*
X86721744Y-124040000D01*
X87014256Y-124040000D01*
X87447418Y-123953839D01*
X87507925Y-123913409D01*
X87550342Y-123941751D01*
X93618149Y-130009558D01*
X93659242Y-130071058D01*
X93902893Y-130233861D01*
X94117756Y-130276600D01*
X94117760Y-130276600D01*
X94190299Y-130291029D01*
X94262838Y-130276600D01*
X94524321Y-130276600D01*
X94723423Y-130574577D01*
X95075758Y-130810000D01*
X94723423Y-131045423D01*
X94406260Y-131520091D01*
X94294887Y-132080000D01*
X94406260Y-132639909D01*
X94723423Y-133114577D01*
X95198091Y-133431740D01*
X95616667Y-133515000D01*
X95899333Y-133515000D01*
X96317909Y-133431740D01*
X96792577Y-133114577D01*
X97109740Y-132639909D01*
X97221113Y-132080000D01*
X97109740Y-131520091D01*
X96792577Y-131045423D01*
X96440242Y-130810000D01*
X96792577Y-130574577D01*
X97109740Y-130099909D01*
X97221113Y-129540000D01*
X97109740Y-128980091D01*
X96792577Y-128505423D01*
X96440242Y-128270000D01*
X96792577Y-128034577D01*
X97109740Y-127559909D01*
X97221113Y-127000000D01*
X97109740Y-126440091D01*
X96792577Y-125965423D01*
X96440242Y-125730000D01*
X96792577Y-125494577D01*
X97109740Y-125019909D01*
X97221113Y-124460000D01*
X97115013Y-123926600D01*
X100700991Y-123926600D01*
X109323951Y-132549561D01*
X109365042Y-132611058D01*
X109426539Y-132652149D01*
X109426541Y-132652151D01*
X109546238Y-132732130D01*
X109608693Y-132773861D01*
X109755242Y-132803011D01*
X109963423Y-133114577D01*
X110438091Y-133431740D01*
X110856667Y-133515000D01*
X111139333Y-133515000D01*
X111557909Y-133431740D01*
X112032577Y-133114577D01*
X112349740Y-132639909D01*
X112461113Y-132080000D01*
X112349740Y-131520091D01*
X112032577Y-131045423D01*
X111680242Y-130810000D01*
X112032577Y-130574577D01*
X112349740Y-130099909D01*
X112461113Y-129540000D01*
X112349740Y-128980091D01*
X112032577Y-128505423D01*
X111680242Y-128270000D01*
X112032577Y-128034577D01*
X112349740Y-127559909D01*
X112461113Y-127000000D01*
X112349740Y-126440091D01*
X112032577Y-125965423D01*
X111680242Y-125730000D01*
X112032577Y-125494577D01*
X112349740Y-125019909D01*
X112461113Y-124460000D01*
X112349740Y-123900091D01*
X112063623Y-123471887D01*
X112572061Y-122963449D01*
X112633558Y-122922358D01*
X112674649Y-122860861D01*
X112674651Y-122860859D01*
X112796361Y-122678707D01*
X112799239Y-122664239D01*
X112814933Y-122585342D01*
X117535995Y-127306404D01*
X117266260Y-127710091D01*
X117154887Y-128270000D01*
X117266260Y-128829909D01*
X117583423Y-129304577D01*
X117935758Y-129540000D01*
X117583423Y-129775423D01*
X117266260Y-130250091D01*
X117154887Y-130810000D01*
X117266260Y-131369909D01*
X117583423Y-131844577D01*
X117967108Y-132100947D01*
X117762866Y-132197611D01*
X117386959Y-132612577D01*
X117226096Y-133000961D01*
X117348085Y-133223000D01*
X118491000Y-133223000D01*
X118491000Y-133203000D01*
X118745000Y-133203000D01*
X118745000Y-133223000D01*
X119887915Y-133223000D01*
X120009904Y-133000961D01*
X119849041Y-132612577D01*
X119473134Y-132197611D01*
X119268892Y-132100947D01*
X119652577Y-131844577D01*
X119969740Y-131369909D01*
X120081113Y-130810000D01*
X119969740Y-130250091D01*
X119652577Y-129775423D01*
X119300242Y-129540000D01*
X119652577Y-129304577D01*
X119969740Y-128829909D01*
X120081113Y-128270000D01*
X119975013Y-127736600D01*
X124880987Y-127736600D01*
X124774887Y-128270000D01*
X124886260Y-128829909D01*
X125203423Y-129304577D01*
X125555758Y-129540000D01*
X125203423Y-129775423D01*
X124886260Y-130250091D01*
X124774887Y-130810000D01*
X124886260Y-131369909D01*
X125203423Y-131844577D01*
X125555758Y-132080000D01*
X125203423Y-132315423D01*
X124886260Y-132790091D01*
X124774887Y-133350000D01*
X124886260Y-133909909D01*
X125203423Y-134384577D01*
X125678091Y-134701740D01*
X126096667Y-134785000D01*
X126379333Y-134785000D01*
X126797909Y-134701740D01*
X127272577Y-134384577D01*
X127589740Y-133909909D01*
X127701113Y-133350000D01*
X127589740Y-132790091D01*
X127272577Y-132315423D01*
X126920242Y-132080000D01*
X127272577Y-131844577D01*
X127589740Y-131369909D01*
X127701113Y-130810000D01*
X127589740Y-130250091D01*
X127272577Y-129775423D01*
X126920242Y-129540000D01*
X127272577Y-129304577D01*
X127589740Y-128829909D01*
X127696115Y-128295124D01*
X128463849Y-129062858D01*
X128504942Y-129124358D01*
X128748593Y-129287161D01*
X128963456Y-129329900D01*
X128963460Y-129329900D01*
X129035999Y-129344329D01*
X129108538Y-129329900D01*
X139506491Y-129329900D01*
X140137944Y-129961353D01*
X139762570Y-130212170D01*
X139573000Y-130495881D01*
X139383430Y-130212170D01*
X138887724Y-129880950D01*
X138303000Y-129764641D01*
X137718275Y-129880950D01*
X137222570Y-130212170D01*
X137033000Y-130495881D01*
X136843430Y-130212170D01*
X136347724Y-129880950D01*
X135763000Y-129764641D01*
X135178275Y-129880950D01*
X134682570Y-130212170D01*
X134493000Y-130495881D01*
X134303430Y-130212170D01*
X133807724Y-129880950D01*
X133223000Y-129764641D01*
X132638275Y-129880950D01*
X132142570Y-130212170D01*
X131811350Y-130707876D01*
X131724400Y-131145003D01*
X131724400Y-131744998D01*
X131811350Y-132182125D01*
X132142570Y-132677830D01*
X132638276Y-133009050D01*
X133223000Y-133125359D01*
X133807725Y-133009050D01*
X134303430Y-132677830D01*
X134493000Y-132394119D01*
X134682570Y-132677830D01*
X135178276Y-133009050D01*
X135763000Y-133125359D01*
X136347725Y-133009050D01*
X136843430Y-132677830D01*
X137033000Y-132394119D01*
X137222570Y-132677830D01*
X137718276Y-133009050D01*
X138303000Y-133125359D01*
X138887725Y-133009050D01*
X139383430Y-132677830D01*
X139573000Y-132394119D01*
X139762570Y-132677830D01*
X140258276Y-133009050D01*
X140843000Y-133125359D01*
X141427725Y-133009050D01*
X141830269Y-132740078D01*
X142344549Y-133254358D01*
X142385642Y-133315858D01*
X142629293Y-133478661D01*
X142844156Y-133521400D01*
X142844160Y-133521400D01*
X142916699Y-133535829D01*
X142989238Y-133521400D01*
X156482260Y-133521400D01*
X156554800Y-133535829D01*
X156627340Y-133521400D01*
X156627344Y-133521400D01*
X156842207Y-133478661D01*
X157085858Y-133315858D01*
X157126951Y-133254358D01*
X157639028Y-132742281D01*
X158038276Y-133009050D01*
X158623000Y-133125359D01*
X159207725Y-133009050D01*
X159703430Y-132677830D01*
X159893000Y-132394119D01*
X160082570Y-132677830D01*
X160578276Y-133009050D01*
X161163000Y-133125359D01*
X161747725Y-133009050D01*
X162243430Y-132677830D01*
X162433000Y-132394119D01*
X162622570Y-132677830D01*
X163118276Y-133009050D01*
X163703000Y-133125359D01*
X164287725Y-133009050D01*
X164783430Y-132677830D01*
X164973000Y-132394119D01*
X165162570Y-132677830D01*
X165658276Y-133009050D01*
X166243000Y-133125359D01*
X166827725Y-133009050D01*
X167323430Y-132677830D01*
X167513000Y-132394119D01*
X167702570Y-132677830D01*
X168198276Y-133009050D01*
X168783000Y-133125359D01*
X169367725Y-133009050D01*
X169703785Y-132784501D01*
X172866000Y-132784501D01*
X172866000Y-133845499D01*
X173272026Y-134825734D01*
X174022266Y-135575974D01*
X175002501Y-135982000D01*
X176063499Y-135982000D01*
X177043734Y-135575974D01*
X177793974Y-134825734D01*
X178200000Y-133845499D01*
X178200000Y-132784501D01*
X177793974Y-131804266D01*
X177043734Y-131054026D01*
X176063499Y-130648000D01*
X175002501Y-130648000D01*
X174022266Y-131054026D01*
X173272026Y-131804266D01*
X172866000Y-132784501D01*
X169703785Y-132784501D01*
X169863430Y-132677830D01*
X170194650Y-132182124D01*
X170281600Y-131744997D01*
X170281600Y-131145002D01*
X170194650Y-130707875D01*
X169863430Y-130212170D01*
X169367724Y-129880950D01*
X168783000Y-129764641D01*
X168198275Y-129880950D01*
X167702570Y-130212170D01*
X167513000Y-130495881D01*
X167323430Y-130212170D01*
X166979600Y-129982430D01*
X166979600Y-112403709D01*
X170078262Y-109305048D01*
X170288423Y-109619577D01*
X170609555Y-109834150D01*
X170599989Y-109882242D01*
X170288423Y-110090423D01*
X169971260Y-110565091D01*
X169859887Y-111125000D01*
X169971260Y-111684909D01*
X170288423Y-112159577D01*
X170640758Y-112395000D01*
X170288423Y-112630423D01*
X169971260Y-113105091D01*
X169859887Y-113665000D01*
X169971260Y-114224909D01*
X170288423Y-114699577D01*
X170640758Y-114935000D01*
X170288423Y-115170423D01*
X169971260Y-115645091D01*
X169859887Y-116205000D01*
X169971260Y-116764909D01*
X170288423Y-117239577D01*
X170640758Y-117475000D01*
X170288423Y-117710423D01*
X169971260Y-118185091D01*
X169859887Y-118745000D01*
X169971260Y-119304909D01*
X170288423Y-119779577D01*
X170640758Y-120015000D01*
X170288423Y-120250423D01*
X169971260Y-120725091D01*
X169859887Y-121285000D01*
X169971260Y-121844909D01*
X170288423Y-122319577D01*
X170640758Y-122555000D01*
X170288423Y-122790423D01*
X169971260Y-123265091D01*
X169859887Y-123825000D01*
X169971260Y-124384909D01*
X170288423Y-124859577D01*
X170763091Y-125176740D01*
X171181667Y-125260000D01*
X171464333Y-125260000D01*
X171882909Y-125176740D01*
X172357577Y-124859577D01*
X172674740Y-124384909D01*
X172786113Y-123825000D01*
X172674740Y-123265091D01*
X172357577Y-122790423D01*
X172005242Y-122555000D01*
X172357577Y-122319577D01*
X172674740Y-121844909D01*
X172786113Y-121285000D01*
X172674740Y-120725091D01*
X172357577Y-120250423D01*
X172005242Y-120015000D01*
X172357577Y-119779577D01*
X172674740Y-119304909D01*
X172786113Y-118745000D01*
X172674740Y-118185091D01*
X172357577Y-117710423D01*
X172005242Y-117475000D01*
X172357577Y-117239577D01*
X172674740Y-116764909D01*
X172786113Y-116205000D01*
X172674740Y-115645091D01*
X172357577Y-115170423D01*
X172005242Y-114935000D01*
X172357577Y-114699577D01*
X172674740Y-114224909D01*
X172786113Y-113665000D01*
X172674740Y-113105091D01*
X172357577Y-112630423D01*
X172005242Y-112395000D01*
X172357577Y-112159577D01*
X172674740Y-111684909D01*
X172786113Y-111125000D01*
X172705229Y-110718369D01*
X172712307Y-110716961D01*
X172955958Y-110554158D01*
X172997051Y-110492658D01*
X179686061Y-103803649D01*
X179747558Y-103762558D01*
X179788649Y-103701061D01*
X179788651Y-103701059D01*
X179910361Y-103518907D01*
X179913286Y-103504200D01*
X179953100Y-103304044D01*
X179953100Y-103304041D01*
X179967529Y-103231500D01*
X179953100Y-103158960D01*
X179953100Y-80060840D01*
X179967529Y-79988300D01*
X179953100Y-79915759D01*
X179953100Y-79915756D01*
X179910361Y-79700893D01*
X179861955Y-79628449D01*
X179788651Y-79518741D01*
X179788649Y-79518739D01*
X179747558Y-79457242D01*
X179686061Y-79416151D01*
X168214910Y-67945000D01*
X169224887Y-67945000D01*
X169336260Y-68504909D01*
X169653423Y-68979577D01*
X170128091Y-69296740D01*
X170546667Y-69380000D01*
X170829333Y-69380000D01*
X171247909Y-69296740D01*
X171722577Y-68979577D01*
X172039740Y-68504909D01*
X172151113Y-67945000D01*
X172039740Y-67385091D01*
X171722577Y-66910423D01*
X171489224Y-66754501D01*
X172856000Y-66754501D01*
X172856000Y-67815499D01*
X173262026Y-68795734D01*
X174012266Y-69545974D01*
X174992501Y-69952000D01*
X176053499Y-69952000D01*
X177033734Y-69545974D01*
X177783974Y-68795734D01*
X178190000Y-67815499D01*
X178190000Y-66754501D01*
X177783974Y-65774266D01*
X177033734Y-65024026D01*
X176053499Y-64618000D01*
X174992501Y-64618000D01*
X174012266Y-65024026D01*
X173262026Y-65774266D01*
X172856000Y-66754501D01*
X171489224Y-66754501D01*
X171247909Y-66593260D01*
X170829333Y-66510000D01*
X170546667Y-66510000D01*
X170128091Y-66593260D01*
X169653423Y-66910423D01*
X169336260Y-67385091D01*
X169224887Y-67945000D01*
X168214910Y-67945000D01*
X166602951Y-66333042D01*
X166561858Y-66271542D01*
X166318207Y-66108739D01*
X166103344Y-66066000D01*
X166103340Y-66066000D01*
X166030800Y-66051571D01*
X165958260Y-66066000D01*
X122033138Y-66066000D01*
X121960599Y-66051571D01*
X121888060Y-66066000D01*
X121888056Y-66066000D01*
X121673193Y-66108739D01*
X121429542Y-66271542D01*
X121388449Y-66333042D01*
X115364454Y-72357037D01*
X115011725Y-72121350D01*
X114574598Y-72034400D01*
X114279402Y-72034400D01*
X113842275Y-72121350D01*
X113346570Y-72452570D01*
X113157000Y-72736281D01*
X112967430Y-72452570D01*
X112471725Y-72121350D01*
X112034598Y-72034400D01*
X111739402Y-72034400D01*
X111302275Y-72121350D01*
X110806570Y-72452570D01*
X110605146Y-72754021D01*
X110553821Y-72644510D01*
X110121947Y-72250312D01*
X109706026Y-72078042D01*
X109474000Y-72199183D01*
X109474000Y-73406000D01*
X109494000Y-73406000D01*
X109494000Y-73660000D01*
X109474000Y-73660000D01*
X109474000Y-73680000D01*
X109220000Y-73680000D01*
X109220000Y-73660000D01*
X106934000Y-73660000D01*
X106934000Y-73680000D01*
X106680000Y-73680000D01*
X106680000Y-73660000D01*
X105472531Y-73660000D01*
X105352032Y-73892027D01*
X105600179Y-74421490D01*
X105787950Y-74592881D01*
X105695635Y-74611243D01*
X105485591Y-74751591D01*
X105345243Y-74961635D01*
X105311117Y-75133200D01*
X97967654Y-75133200D01*
X97875100Y-75114790D01*
X97782546Y-75133200D01*
X97782541Y-75133200D01*
X97508409Y-75187728D01*
X97508408Y-75187729D01*
X97508407Y-75187729D01*
X97276010Y-75343012D01*
X97276008Y-75343014D01*
X97197543Y-75395443D01*
X97145114Y-75473908D01*
X90489048Y-82129975D01*
X90478625Y-82114375D01*
X89987418Y-81786161D01*
X89554256Y-81700000D01*
X89261744Y-81700000D01*
X88828582Y-81786161D01*
X88337375Y-82114375D01*
X88136647Y-82414786D01*
X87749358Y-81989817D01*
X87224892Y-81743514D01*
X86995000Y-81864181D01*
X86995000Y-83058000D01*
X87015000Y-83058000D01*
X87015000Y-83312000D01*
X86995000Y-83312000D01*
X86995000Y-83332000D01*
X86741000Y-83332000D01*
X86741000Y-83312000D01*
X85547845Y-83312000D01*
X85426524Y-83541890D01*
X85596355Y-83951924D01*
X85986642Y-84380183D01*
X86116478Y-84441157D01*
X85797375Y-84654375D01*
X85469161Y-85145582D01*
X85353908Y-85725000D01*
X85469161Y-86304418D01*
X85742056Y-86712834D01*
X85201942Y-87252949D01*
X85140442Y-87294042D01*
X84977639Y-87537694D01*
X84934900Y-87752557D01*
X84934900Y-87752560D01*
X84920471Y-87825100D01*
X81915000Y-87825100D01*
X81915000Y-82828110D01*
X85426524Y-82828110D01*
X85547845Y-83058000D01*
X86741000Y-83058000D01*
X86741000Y-81864181D01*
X86511108Y-81743514D01*
X85986642Y-81989817D01*
X85596355Y-82418076D01*
X85426524Y-82828110D01*
X81915000Y-82828110D01*
X81915000Y-73173973D01*
X105352032Y-73173973D01*
X105472531Y-73406000D01*
X106680000Y-73406000D01*
X106680000Y-72199183D01*
X106934000Y-72199183D01*
X106934000Y-73406000D01*
X109220000Y-73406000D01*
X109220000Y-72199183D01*
X108987974Y-72078042D01*
X108572053Y-72250312D01*
X108140179Y-72644510D01*
X108077000Y-72779313D01*
X108013821Y-72644510D01*
X107581947Y-72250312D01*
X107166026Y-72078042D01*
X106934000Y-72199183D01*
X106680000Y-72199183D01*
X106447974Y-72078042D01*
X106032053Y-72250312D01*
X105600179Y-72644510D01*
X105352032Y-73173973D01*
X81915000Y-73173973D01*
X81915000Y-66754501D01*
X83856000Y-66754501D01*
X83856000Y-67815499D01*
X84262026Y-68795734D01*
X85012266Y-69545974D01*
X85992501Y-69952000D01*
X87053499Y-69952000D01*
X88033734Y-69545974D01*
X88783974Y-68795734D01*
X89190000Y-67815499D01*
X89190000Y-66754501D01*
X88783974Y-65774266D01*
X88033734Y-65024026D01*
X87053499Y-64618000D01*
X85992501Y-64618000D01*
X85012266Y-65024026D01*
X84262026Y-65774266D01*
X83856000Y-66754501D01*
X81915000Y-66754501D01*
X81915000Y-63575000D01*
X180086000Y-63575000D01*
X180086000Y-136906000D01*
G36*
X170288423Y-99459577D02*
X170640758Y-99695000D01*
X170288423Y-99930423D01*
X169971260Y-100405091D01*
X169859887Y-100965000D01*
X169971260Y-101524909D01*
X170288423Y-101999577D01*
X170640758Y-102235000D01*
X170288423Y-102470423D01*
X169971260Y-102945091D01*
X169859887Y-103505000D01*
X169971260Y-104064909D01*
X170255535Y-104490356D01*
X163233442Y-111512449D01*
X163171942Y-111553542D01*
X163009139Y-111797194D01*
X162966400Y-112012057D01*
X162966400Y-112012060D01*
X162951971Y-112084600D01*
X162966400Y-112157140D01*
X162966401Y-129982429D01*
X162622570Y-130212170D01*
X162433000Y-130495881D01*
X162243430Y-130212170D01*
X161747724Y-129880950D01*
X161163000Y-129764641D01*
X160578275Y-129880950D01*
X160082570Y-130212170D01*
X159893000Y-130495881D01*
X159703430Y-130212170D01*
X159207724Y-129880950D01*
X158623000Y-129764641D01*
X158038275Y-129880950D01*
X157542570Y-130212170D01*
X157353000Y-130495881D01*
X157163430Y-130212170D01*
X156667724Y-129880950D01*
X156083000Y-129764641D01*
X155498275Y-129880950D01*
X155002570Y-130212170D01*
X154671350Y-130707876D01*
X154584400Y-131145003D01*
X154584400Y-131744998D01*
X154644711Y-132048200D01*
X152441289Y-132048200D01*
X152501600Y-131744997D01*
X152501600Y-131145002D01*
X152414650Y-130707875D01*
X152083430Y-130212170D01*
X151587724Y-129880950D01*
X151003000Y-129764641D01*
X150418275Y-129880950D01*
X149922570Y-130212170D01*
X149729091Y-130501733D01*
X149365036Y-130094268D01*
X148837791Y-129840291D01*
X148822026Y-129837642D01*
X148590000Y-129958783D01*
X148590000Y-131318000D01*
X148610000Y-131318000D01*
X148610000Y-131572000D01*
X148590000Y-131572000D01*
X148590000Y-131592000D01*
X148336000Y-131592000D01*
X148336000Y-131572000D01*
X146050000Y-131572000D01*
X146050000Y-131592000D01*
X145796000Y-131592000D01*
X145796000Y-131572000D01*
X145776000Y-131572000D01*
X145776000Y-131318000D01*
X145796000Y-131318000D01*
X145796000Y-129958783D01*
X146050000Y-129958783D01*
X146050000Y-131318000D01*
X148336000Y-131318000D01*
X148336000Y-129958783D01*
X148103974Y-129837642D01*
X148088209Y-129840291D01*
X147560964Y-130094268D01*
X147193000Y-130506108D01*
X146825036Y-130094268D01*
X146297791Y-129840291D01*
X146282026Y-129837642D01*
X146050000Y-129958783D01*
X145796000Y-129958783D01*
X145563974Y-129837642D01*
X145548209Y-129840291D01*
X145020964Y-130094268D01*
X144656910Y-130501732D01*
X144463430Y-130212170D01*
X143967724Y-129880950D01*
X143383000Y-129764641D01*
X142798275Y-129880950D01*
X142404244Y-130144234D01*
X140383750Y-128123741D01*
X140342658Y-128062242D01*
X140099007Y-127899439D01*
X139884144Y-127856700D01*
X139884140Y-127856700D01*
X139811600Y-127842271D01*
X139739060Y-127856700D01*
X129341109Y-127856700D01*
X128014850Y-126530441D01*
X127973758Y-126468942D01*
X127730107Y-126306139D01*
X127550629Y-126270439D01*
X127629904Y-126079039D01*
X127507915Y-125857000D01*
X126365000Y-125857000D01*
X126365000Y-125877000D01*
X126111000Y-125877000D01*
X126111000Y-125857000D01*
X124968085Y-125857000D01*
X124846096Y-126079039D01*
X124922456Y-126263400D01*
X120247453Y-126263400D01*
X120250958Y-126261058D01*
X120292051Y-126199558D01*
X121295010Y-125196600D01*
X124922456Y-125196600D01*
X124846096Y-125380961D01*
X124968085Y-125603000D01*
X126111000Y-125603000D01*
X126111000Y-125583000D01*
X126365000Y-125583000D01*
X126365000Y-125603000D01*
X127507915Y-125603000D01*
X127629904Y-125380961D01*
X127553544Y-125196600D01*
X128478560Y-125196600D01*
X128551100Y-125211029D01*
X128623640Y-125196600D01*
X128623644Y-125196600D01*
X128838507Y-125153861D01*
X129082158Y-124991058D01*
X129123251Y-124929558D01*
X131955440Y-122097370D01*
X131876800Y-122287224D01*
X131876800Y-122822776D01*
X132081746Y-123317561D01*
X132460439Y-123696254D01*
X132955224Y-123901200D01*
X133490776Y-123901200D01*
X133985561Y-123696254D01*
X134364254Y-123317561D01*
X134375007Y-123291600D01*
X134990991Y-123291600D01*
X137898951Y-126199560D01*
X137940042Y-126261058D01*
X138001539Y-126302149D01*
X138001541Y-126302151D01*
X138183693Y-126423861D01*
X138330242Y-126453011D01*
X138538423Y-126764577D01*
X139013091Y-127081740D01*
X139431667Y-127165000D01*
X139714333Y-127165000D01*
X140132909Y-127081740D01*
X140607577Y-126764577D01*
X140806679Y-126466600D01*
X142040460Y-126466600D01*
X142113000Y-126481029D01*
X142185540Y-126466600D01*
X142185544Y-126466600D01*
X142400407Y-126423861D01*
X142644058Y-126261058D01*
X142685151Y-126199558D01*
X144291298Y-124593411D01*
X144367561Y-124625000D01*
X144938439Y-124625000D01*
X145465862Y-124406534D01*
X145674651Y-124197745D01*
X146324861Y-124197745D01*
X146398995Y-124443864D01*
X146936223Y-124636965D01*
X147506454Y-124609778D01*
X147907005Y-124443864D01*
X147981139Y-124197745D01*
X147153000Y-123369605D01*
X146324861Y-124197745D01*
X145674651Y-124197745D01*
X145869534Y-124002862D01*
X145896525Y-123937701D01*
X145899136Y-123944005D01*
X146145255Y-124018139D01*
X146973395Y-123190000D01*
X147332605Y-123190000D01*
X148160745Y-124018139D01*
X148406864Y-123944005D01*
X148599965Y-123406777D01*
X148572778Y-122836546D01*
X148406864Y-122435995D01*
X148160745Y-122361861D01*
X147332605Y-123190000D01*
X146973395Y-123190000D01*
X146145255Y-122361861D01*
X145899136Y-122435995D01*
X145896710Y-122442746D01*
X145869534Y-122377138D01*
X145674651Y-122182255D01*
X146324861Y-122182255D01*
X147153000Y-123010395D01*
X147981139Y-122182255D01*
X147907005Y-121936136D01*
X147369777Y-121743035D01*
X146799546Y-121770222D01*
X146398995Y-121936136D01*
X146324861Y-122182255D01*
X145674651Y-122182255D01*
X145465862Y-121973466D01*
X144938439Y-121755000D01*
X144367561Y-121755000D01*
X143840138Y-121973466D01*
X143436466Y-122377138D01*
X143218000Y-122904561D01*
X143218000Y-123475439D01*
X143249589Y-123551702D01*
X141807891Y-124993400D01*
X140806679Y-124993400D01*
X140607577Y-124695423D01*
X140132909Y-124378260D01*
X139714333Y-124295000D01*
X139431667Y-124295000D01*
X139013091Y-124378260D01*
X138538423Y-124695423D01*
X138514314Y-124731504D01*
X135868251Y-122085442D01*
X135827158Y-122023942D01*
X135583507Y-121861139D01*
X135368644Y-121818400D01*
X135368640Y-121818400D01*
X135296100Y-121803971D01*
X135223560Y-121818400D01*
X134375007Y-121818400D01*
X134364254Y-121792439D01*
X133985561Y-121413746D01*
X133490776Y-121208800D01*
X132955224Y-121208800D01*
X132765370Y-121287440D01*
X132875110Y-121177700D01*
X145592460Y-121177700D01*
X145665000Y-121192129D01*
X145737540Y-121177700D01*
X145737544Y-121177700D01*
X145952407Y-121134961D01*
X146196058Y-120972158D01*
X146237151Y-120910658D01*
X155024314Y-112123496D01*
X155048423Y-112159577D01*
X155400758Y-112395000D01*
X155048423Y-112630423D01*
X154731260Y-113105091D01*
X154619887Y-113665000D01*
X154731260Y-114224909D01*
X155048423Y-114699577D01*
X155400758Y-114935000D01*
X155048423Y-115170423D01*
X154731260Y-115645091D01*
X154619887Y-116205000D01*
X154731260Y-116764909D01*
X155048423Y-117239577D01*
X155400758Y-117475000D01*
X155048423Y-117710423D01*
X154731260Y-118185091D01*
X154619887Y-118745000D01*
X154731260Y-119304909D01*
X155048423Y-119779577D01*
X155400758Y-120015000D01*
X155048423Y-120250423D01*
X154731260Y-120725091D01*
X154619887Y-121285000D01*
X154731260Y-121844909D01*
X155048423Y-122319577D01*
X155400758Y-122555000D01*
X155048423Y-122790423D01*
X154731260Y-123265091D01*
X154619887Y-123825000D01*
X154731260Y-124384909D01*
X155048423Y-124859577D01*
X155523091Y-125176740D01*
X155941667Y-125260000D01*
X156224333Y-125260000D01*
X156642909Y-125176740D01*
X157117577Y-124859577D01*
X157434740Y-124384909D01*
X157546113Y-123825000D01*
X157434740Y-123265091D01*
X157117577Y-122790423D01*
X156765242Y-122555000D01*
X157117577Y-122319577D01*
X157434740Y-121844909D01*
X157546113Y-121285000D01*
X157434740Y-120725091D01*
X157117577Y-120250423D01*
X156765242Y-120015000D01*
X157117577Y-119779577D01*
X157434740Y-119304909D01*
X157546113Y-118745000D01*
X157434740Y-118185091D01*
X157117577Y-117710423D01*
X156765242Y-117475000D01*
X157117577Y-117239577D01*
X157434740Y-116764909D01*
X157546113Y-116205000D01*
X157434740Y-115645091D01*
X157117577Y-115170423D01*
X156765242Y-114935000D01*
X157117577Y-114699577D01*
X157434740Y-114224909D01*
X157546113Y-113665000D01*
X157434740Y-113105091D01*
X157117577Y-112630423D01*
X156765242Y-112395000D01*
X157117577Y-112159577D01*
X157316679Y-111861600D01*
X157448560Y-111861600D01*
X157521100Y-111876029D01*
X157593640Y-111861600D01*
X157593644Y-111861600D01*
X157808507Y-111818861D01*
X158052158Y-111656058D01*
X158093251Y-111594558D01*
X170264314Y-99423496D01*
X170288423Y-99459577D01*
X170288423Y-99459577D01*
G37*
X170288423Y-99459577D02*
X170640758Y-99695000D01*
X170288423Y-99930423D01*
X169971260Y-100405091D01*
X169859887Y-100965000D01*
X169971260Y-101524909D01*
X170288423Y-101999577D01*
X170640758Y-102235000D01*
X170288423Y-102470423D01*
X169971260Y-102945091D01*
X169859887Y-103505000D01*
X169971260Y-104064909D01*
X170255535Y-104490356D01*
X163233442Y-111512449D01*
X163171942Y-111553542D01*
X163009139Y-111797194D01*
X162966400Y-112012057D01*
X162966400Y-112012060D01*
X162951971Y-112084600D01*
X162966400Y-112157140D01*
X162966401Y-129982429D01*
X162622570Y-130212170D01*
X162433000Y-130495881D01*
X162243430Y-130212170D01*
X161747724Y-129880950D01*
X161163000Y-129764641D01*
X160578275Y-129880950D01*
X160082570Y-130212170D01*
X159893000Y-130495881D01*
X159703430Y-130212170D01*
X159207724Y-129880950D01*
X158623000Y-129764641D01*
X158038275Y-129880950D01*
X157542570Y-130212170D01*
X157353000Y-130495881D01*
X157163430Y-130212170D01*
X156667724Y-129880950D01*
X156083000Y-129764641D01*
X155498275Y-129880950D01*
X155002570Y-130212170D01*
X154671350Y-130707876D01*
X154584400Y-131145003D01*
X154584400Y-131744998D01*
X154644711Y-132048200D01*
X152441289Y-132048200D01*
X152501600Y-131744997D01*
X152501600Y-131145002D01*
X152414650Y-130707875D01*
X152083430Y-130212170D01*
X151587724Y-129880950D01*
X151003000Y-129764641D01*
X150418275Y-129880950D01*
X149922570Y-130212170D01*
X149729091Y-130501733D01*
X149365036Y-130094268D01*
X148837791Y-129840291D01*
X148822026Y-129837642D01*
X148590000Y-129958783D01*
X148590000Y-131318000D01*
X148610000Y-131318000D01*
X148610000Y-131572000D01*
X148590000Y-131572000D01*
X148590000Y-131592000D01*
X148336000Y-131592000D01*
X148336000Y-131572000D01*
X146050000Y-131572000D01*
X146050000Y-131592000D01*
X145796000Y-131592000D01*
X145796000Y-131572000D01*
X145776000Y-131572000D01*
X145776000Y-131318000D01*
X145796000Y-131318000D01*
X145796000Y-129958783D01*
X146050000Y-129958783D01*
X146050000Y-131318000D01*
X148336000Y-131318000D01*
X148336000Y-129958783D01*
X148103974Y-129837642D01*
X148088209Y-129840291D01*
X147560964Y-130094268D01*
X147193000Y-130506108D01*
X146825036Y-130094268D01*
X146297791Y-129840291D01*
X146282026Y-129837642D01*
X146050000Y-129958783D01*
X145796000Y-129958783D01*
X145563974Y-129837642D01*
X145548209Y-129840291D01*
X145020964Y-130094268D01*
X144656910Y-130501732D01*
X144463430Y-130212170D01*
X143967724Y-129880950D01*
X143383000Y-129764641D01*
X142798275Y-129880950D01*
X142404244Y-130144234D01*
X140383750Y-128123741D01*
X140342658Y-128062242D01*
X140099007Y-127899439D01*
X139884144Y-127856700D01*
X139884140Y-127856700D01*
X139811600Y-127842271D01*
X139739060Y-127856700D01*
X129341109Y-127856700D01*
X128014850Y-126530441D01*
X127973758Y-126468942D01*
X127730107Y-126306139D01*
X127550629Y-126270439D01*
X127629904Y-126079039D01*
X127507915Y-125857000D01*
X126365000Y-125857000D01*
X126365000Y-125877000D01*
X126111000Y-125877000D01*
X126111000Y-125857000D01*
X124968085Y-125857000D01*
X124846096Y-126079039D01*
X124922456Y-126263400D01*
X120247453Y-126263400D01*
X120250958Y-126261058D01*
X120292051Y-126199558D01*
X121295010Y-125196600D01*
X124922456Y-125196600D01*
X124846096Y-125380961D01*
X124968085Y-125603000D01*
X126111000Y-125603000D01*
X126111000Y-125583000D01*
X126365000Y-125583000D01*
X126365000Y-125603000D01*
X127507915Y-125603000D01*
X127629904Y-125380961D01*
X127553544Y-125196600D01*
X128478560Y-125196600D01*
X128551100Y-125211029D01*
X128623640Y-125196600D01*
X128623644Y-125196600D01*
X128838507Y-125153861D01*
X129082158Y-124991058D01*
X129123251Y-124929558D01*
X131955440Y-122097370D01*
X131876800Y-122287224D01*
X131876800Y-122822776D01*
X132081746Y-123317561D01*
X132460439Y-123696254D01*
X132955224Y-123901200D01*
X133490776Y-123901200D01*
X133985561Y-123696254D01*
X134364254Y-123317561D01*
X134375007Y-123291600D01*
X134990991Y-123291600D01*
X137898951Y-126199560D01*
X137940042Y-126261058D01*
X138001539Y-126302149D01*
X138001541Y-126302151D01*
X138183693Y-126423861D01*
X138330242Y-126453011D01*
X138538423Y-126764577D01*
X139013091Y-127081740D01*
X139431667Y-127165000D01*
X139714333Y-127165000D01*
X140132909Y-127081740D01*
X140607577Y-126764577D01*
X140806679Y-126466600D01*
X142040460Y-126466600D01*
X142113000Y-126481029D01*
X142185540Y-126466600D01*
X142185544Y-126466600D01*
X142400407Y-126423861D01*
X142644058Y-126261058D01*
X142685151Y-126199558D01*
X144291298Y-124593411D01*
X144367561Y-124625000D01*
X144938439Y-124625000D01*
X145465862Y-124406534D01*
X145674651Y-124197745D01*
X146324861Y-124197745D01*
X146398995Y-124443864D01*
X146936223Y-124636965D01*
X147506454Y-124609778D01*
X147907005Y-124443864D01*
X147981139Y-124197745D01*
X147153000Y-123369605D01*
X146324861Y-124197745D01*
X145674651Y-124197745D01*
X145869534Y-124002862D01*
X145896525Y-123937701D01*
X145899136Y-123944005D01*
X146145255Y-124018139D01*
X146973395Y-123190000D01*
X147332605Y-123190000D01*
X148160745Y-124018139D01*
X148406864Y-123944005D01*
X148599965Y-123406777D01*
X148572778Y-122836546D01*
X148406864Y-122435995D01*
X148160745Y-122361861D01*
X147332605Y-123190000D01*
X146973395Y-123190000D01*
X146145255Y-122361861D01*
X145899136Y-122435995D01*
X145896710Y-122442746D01*
X145869534Y-122377138D01*
X145674651Y-122182255D01*
X146324861Y-122182255D01*
X147153000Y-123010395D01*
X147981139Y-122182255D01*
X147907005Y-121936136D01*
X147369777Y-121743035D01*
X146799546Y-121770222D01*
X146398995Y-121936136D01*
X146324861Y-122182255D01*
X145674651Y-122182255D01*
X145465862Y-121973466D01*
X144938439Y-121755000D01*
X144367561Y-121755000D01*
X143840138Y-121973466D01*
X143436466Y-122377138D01*
X143218000Y-122904561D01*
X143218000Y-123475439D01*
X143249589Y-123551702D01*
X141807891Y-124993400D01*
X140806679Y-124993400D01*
X140607577Y-124695423D01*
X140132909Y-124378260D01*
X139714333Y-124295000D01*
X139431667Y-124295000D01*
X139013091Y-124378260D01*
X138538423Y-124695423D01*
X138514314Y-124731504D01*
X135868251Y-122085442D01*
X135827158Y-122023942D01*
X135583507Y-121861139D01*
X135368644Y-121818400D01*
X135368640Y-121818400D01*
X135296100Y-121803971D01*
X135223560Y-121818400D01*
X134375007Y-121818400D01*
X134364254Y-121792439D01*
X133985561Y-121413746D01*
X133490776Y-121208800D01*
X132955224Y-121208800D01*
X132765370Y-121287440D01*
X132875110Y-121177700D01*
X145592460Y-121177700D01*
X145665000Y-121192129D01*
X145737540Y-121177700D01*
X145737544Y-121177700D01*
X145952407Y-121134961D01*
X146196058Y-120972158D01*
X146237151Y-120910658D01*
X155024314Y-112123496D01*
X155048423Y-112159577D01*
X155400758Y-112395000D01*
X155048423Y-112630423D01*
X154731260Y-113105091D01*
X154619887Y-113665000D01*
X154731260Y-114224909D01*
X155048423Y-114699577D01*
X155400758Y-114935000D01*
X155048423Y-115170423D01*
X154731260Y-115645091D01*
X154619887Y-116205000D01*
X154731260Y-116764909D01*
X155048423Y-117239577D01*
X155400758Y-117475000D01*
X155048423Y-117710423D01*
X154731260Y-118185091D01*
X154619887Y-118745000D01*
X154731260Y-119304909D01*
X155048423Y-119779577D01*
X155400758Y-120015000D01*
X155048423Y-120250423D01*
X154731260Y-120725091D01*
X154619887Y-121285000D01*
X154731260Y-121844909D01*
X155048423Y-122319577D01*
X155400758Y-122555000D01*
X155048423Y-122790423D01*
X154731260Y-123265091D01*
X154619887Y-123825000D01*
X154731260Y-124384909D01*
X155048423Y-124859577D01*
X155523091Y-125176740D01*
X155941667Y-125260000D01*
X156224333Y-125260000D01*
X156642909Y-125176740D01*
X157117577Y-124859577D01*
X157434740Y-124384909D01*
X157546113Y-123825000D01*
X157434740Y-123265091D01*
X157117577Y-122790423D01*
X156765242Y-122555000D01*
X157117577Y-122319577D01*
X157434740Y-121844909D01*
X157546113Y-121285000D01*
X157434740Y-120725091D01*
X157117577Y-120250423D01*
X156765242Y-120015000D01*
X157117577Y-119779577D01*
X157434740Y-119304909D01*
X157546113Y-118745000D01*
X157434740Y-118185091D01*
X157117577Y-117710423D01*
X156765242Y-117475000D01*
X157117577Y-117239577D01*
X157434740Y-116764909D01*
X157546113Y-116205000D01*
X157434740Y-115645091D01*
X157117577Y-115170423D01*
X156765242Y-114935000D01*
X157117577Y-114699577D01*
X157434740Y-114224909D01*
X157546113Y-113665000D01*
X157434740Y-113105091D01*
X157117577Y-112630423D01*
X156765242Y-112395000D01*
X157117577Y-112159577D01*
X157316679Y-111861600D01*
X157448560Y-111861600D01*
X157521100Y-111876029D01*
X157593640Y-111861600D01*
X157593644Y-111861600D01*
X157808507Y-111818861D01*
X158052158Y-111656058D01*
X158093251Y-111594558D01*
X170264314Y-99423496D01*
X170288423Y-99459577D01*
G36*
X117170560Y-116049457D02*
X117045745Y-116011861D01*
X116217605Y-116840000D01*
X117045745Y-117668139D01*
X117255336Y-117605008D01*
X117154887Y-118110000D01*
X117229042Y-118482800D01*
X114646710Y-118482800D01*
X114258642Y-118094733D01*
X114350862Y-118056534D01*
X114559651Y-117847745D01*
X115209861Y-117847745D01*
X115283995Y-118093864D01*
X115821223Y-118286965D01*
X116391454Y-118259778D01*
X116792005Y-118093864D01*
X116866139Y-117847745D01*
X116038000Y-117019605D01*
X115209861Y-117847745D01*
X114559651Y-117847745D01*
X114754534Y-117652862D01*
X114781525Y-117587701D01*
X114784136Y-117594005D01*
X115030255Y-117668139D01*
X115858395Y-116840000D01*
X115844252Y-116825858D01*
X116023858Y-116646252D01*
X116038000Y-116660395D01*
X116866139Y-115832255D01*
X116792005Y-115586136D01*
X116298373Y-115408705D01*
X116502378Y-115204700D01*
X117170560Y-115204700D01*
X117170560Y-116049457D01*
X117170560Y-116049457D01*
G37*
X117170560Y-116049457D02*
X117045745Y-116011861D01*
X116217605Y-116840000D01*
X117045745Y-117668139D01*
X117255336Y-117605008D01*
X117154887Y-118110000D01*
X117229042Y-118482800D01*
X114646710Y-118482800D01*
X114258642Y-118094733D01*
X114350862Y-118056534D01*
X114559651Y-117847745D01*
X115209861Y-117847745D01*
X115283995Y-118093864D01*
X115821223Y-118286965D01*
X116391454Y-118259778D01*
X116792005Y-118093864D01*
X116866139Y-117847745D01*
X116038000Y-117019605D01*
X115209861Y-117847745D01*
X114559651Y-117847745D01*
X114754534Y-117652862D01*
X114781525Y-117587701D01*
X114784136Y-117594005D01*
X115030255Y-117668139D01*
X115858395Y-116840000D01*
X115844252Y-116825858D01*
X116023858Y-116646252D01*
X116038000Y-116660395D01*
X116866139Y-115832255D01*
X116792005Y-115586136D01*
X116298373Y-115408705D01*
X116502378Y-115204700D01*
X117170560Y-115204700D01*
X117170560Y-116049457D01*
G36*
X154635560Y-91605000D02*
X154684843Y-91852765D01*
X154825191Y-92062809D01*
X155035235Y-92203157D01*
X155169106Y-92229785D01*
X155048423Y-92310423D01*
X154731260Y-92785091D01*
X154619887Y-93345000D01*
X154731260Y-93904909D01*
X155048423Y-94379577D01*
X155400758Y-94615000D01*
X155048423Y-94850423D01*
X154731260Y-95325091D01*
X154619887Y-95885000D01*
X154731260Y-96444909D01*
X155048423Y-96919577D01*
X155432108Y-97175947D01*
X155227866Y-97272611D01*
X154851959Y-97687577D01*
X154691096Y-98075961D01*
X154813085Y-98298000D01*
X155956000Y-98298000D01*
X155956000Y-98278000D01*
X156210000Y-98278000D01*
X156210000Y-98298000D01*
X157352915Y-98298000D01*
X157474904Y-98075961D01*
X157314041Y-97687577D01*
X156938134Y-97272611D01*
X156733892Y-97175947D01*
X157117577Y-96919577D01*
X157141686Y-96883495D01*
X157987250Y-97729060D01*
X158028342Y-97790558D01*
X158089839Y-97831649D01*
X158089841Y-97831651D01*
X158271993Y-97953361D01*
X158486856Y-97996100D01*
X158486859Y-97996100D01*
X158559400Y-98010529D01*
X158631940Y-97996100D01*
X169608290Y-97996100D01*
X157276349Y-110328042D01*
X157117577Y-110090423D01*
X156796445Y-109875850D01*
X156806011Y-109827758D01*
X157117577Y-109619577D01*
X157434740Y-109144909D01*
X157546113Y-108585000D01*
X157434740Y-108025091D01*
X157117577Y-107550423D01*
X156765242Y-107315000D01*
X157117577Y-107079577D01*
X157434740Y-106604909D01*
X157546113Y-106045000D01*
X157434740Y-105485091D01*
X157117577Y-105010423D01*
X156765242Y-104775000D01*
X157117577Y-104539577D01*
X157434740Y-104064909D01*
X157546113Y-103505000D01*
X157434740Y-102945091D01*
X157117577Y-102470423D01*
X156765242Y-102235000D01*
X157117577Y-101999577D01*
X157434740Y-101524909D01*
X157546113Y-100965000D01*
X157434740Y-100405091D01*
X157117577Y-99930423D01*
X156733892Y-99674053D01*
X156938134Y-99577389D01*
X157314041Y-99162423D01*
X157474904Y-98774039D01*
X157352915Y-98552000D01*
X156210000Y-98552000D01*
X156210000Y-98572000D01*
X155956000Y-98572000D01*
X155956000Y-98552000D01*
X154813085Y-98552000D01*
X154691096Y-98774039D01*
X154851959Y-99162423D01*
X155227866Y-99577389D01*
X155432108Y-99674053D01*
X155048423Y-99930423D01*
X154731260Y-100405091D01*
X154619887Y-100965000D01*
X154731260Y-101524909D01*
X155048423Y-101999577D01*
X155400758Y-102235000D01*
X155048423Y-102470423D01*
X154731260Y-102945091D01*
X154619887Y-103505000D01*
X154731260Y-104064909D01*
X155048423Y-104539577D01*
X155400758Y-104775000D01*
X155048423Y-105010423D01*
X154731260Y-105485091D01*
X154619887Y-106045000D01*
X154731260Y-106604909D01*
X155048423Y-107079577D01*
X155400758Y-107315000D01*
X155048423Y-107550423D01*
X154731260Y-108025091D01*
X154619887Y-108585000D01*
X154729646Y-109136796D01*
X154701142Y-109155842D01*
X154660051Y-109217339D01*
X148412585Y-115464806D01*
X148406864Y-115450995D01*
X148160745Y-115376861D01*
X147332605Y-116205000D01*
X147346748Y-116219143D01*
X147167143Y-116398748D01*
X147153000Y-116384605D01*
X146324861Y-117212745D01*
X146398995Y-117458864D01*
X146413363Y-117464028D01*
X145394591Y-118482800D01*
X134119015Y-118482800D01*
X134364254Y-118237561D01*
X134375007Y-118211600D01*
X138230460Y-118211600D01*
X138303000Y-118226029D01*
X138375540Y-118211600D01*
X138375544Y-118211600D01*
X138590407Y-118168861D01*
X138834058Y-118006058D01*
X138875151Y-117944558D01*
X139814710Y-117005000D01*
X139858439Y-117005000D01*
X140011500Y-116941600D01*
X143404877Y-116941600D01*
X143436466Y-117017862D01*
X143840138Y-117421534D01*
X144367561Y-117640000D01*
X144938439Y-117640000D01*
X145465862Y-117421534D01*
X145869534Y-117017862D01*
X145896525Y-116952701D01*
X145899136Y-116959005D01*
X146145255Y-117033139D01*
X146973395Y-116205000D01*
X146145255Y-115376861D01*
X145899136Y-115450995D01*
X145896710Y-115457746D01*
X145869534Y-115392138D01*
X145674651Y-115197255D01*
X146324861Y-115197255D01*
X147153000Y-116025395D01*
X147981139Y-115197255D01*
X147907005Y-114951136D01*
X147369777Y-114758035D01*
X146799546Y-114785222D01*
X146398995Y-114951136D01*
X146324861Y-115197255D01*
X145674651Y-115197255D01*
X145465862Y-114988466D01*
X144938439Y-114770000D01*
X144367561Y-114770000D01*
X143840138Y-114988466D01*
X143436466Y-115392138D01*
X143404877Y-115468400D01*
X141008000Y-115468400D01*
X141008000Y-115284561D01*
X140789534Y-114757138D01*
X140385862Y-114353466D01*
X139858439Y-114135000D01*
X139287561Y-114135000D01*
X138760138Y-114353466D01*
X138356466Y-114757138D01*
X138138000Y-115284561D01*
X138138000Y-115855439D01*
X138355576Y-116380714D01*
X137997891Y-116738400D01*
X134375007Y-116738400D01*
X134364254Y-116712439D01*
X133985561Y-116333746D01*
X133490776Y-116128800D01*
X132955224Y-116128800D01*
X132460439Y-116333746D01*
X132081746Y-116712439D01*
X131876800Y-117207224D01*
X131876800Y-117742776D01*
X132081746Y-118237561D01*
X132326985Y-118482800D01*
X127626958Y-118482800D01*
X127701113Y-118110000D01*
X127589740Y-117550091D01*
X127272577Y-117075423D01*
X126920242Y-116840000D01*
X127272577Y-116604577D01*
X127589740Y-116129909D01*
X127701113Y-115570000D01*
X127589740Y-115010091D01*
X127272577Y-114535423D01*
X126797909Y-114218260D01*
X126379333Y-114135000D01*
X126096667Y-114135000D01*
X125678091Y-114218260D01*
X125217796Y-114525819D01*
X124567600Y-113875623D01*
X124567600Y-113830000D01*
X124618439Y-113830000D01*
X125145862Y-113611534D01*
X125549534Y-113207862D01*
X125768000Y-112680439D01*
X125768000Y-112109561D01*
X125595703Y-111693600D01*
X130588591Y-111693600D01*
X131021049Y-112126058D01*
X131062142Y-112187558D01*
X131305793Y-112350361D01*
X131520656Y-112393100D01*
X131520660Y-112393100D01*
X131593199Y-112407529D01*
X131665738Y-112393100D01*
X145231656Y-112393100D01*
X145410212Y-112571656D01*
X145806974Y-112736000D01*
X146236426Y-112736000D01*
X146633188Y-112571656D01*
X146936856Y-112267988D01*
X147101200Y-111871226D01*
X147101200Y-111441774D01*
X146988352Y-111169334D01*
X147002019Y-111178466D01*
X147010093Y-111183861D01*
X147141774Y-111210054D01*
X147382570Y-111570430D01*
X147878275Y-111901650D01*
X148315402Y-111988600D01*
X148610598Y-111988600D01*
X149047725Y-111901650D01*
X149543430Y-111570430D01*
X149733000Y-111286719D01*
X149922570Y-111570430D01*
X150418275Y-111901650D01*
X150855402Y-111988600D01*
X151150598Y-111988600D01*
X151587725Y-111901650D01*
X152083430Y-111570430D01*
X152414650Y-111074725D01*
X152530959Y-110490000D01*
X152414650Y-109905275D01*
X152083430Y-109409570D01*
X151799719Y-109220000D01*
X152083430Y-109030430D01*
X152414650Y-108534725D01*
X152530959Y-107950000D01*
X152414650Y-107365275D01*
X152083430Y-106869570D01*
X151799719Y-106680000D01*
X152083430Y-106490430D01*
X152414650Y-105994725D01*
X152530959Y-105410000D01*
X152414650Y-104825275D01*
X152083430Y-104329570D01*
X151799719Y-104140000D01*
X152083430Y-103950430D01*
X152414650Y-103454725D01*
X152530959Y-102870000D01*
X152414650Y-102285275D01*
X152083430Y-101789570D01*
X151799719Y-101600000D01*
X152083430Y-101410430D01*
X152414650Y-100914725D01*
X152530959Y-100330000D01*
X152414650Y-99745275D01*
X152083430Y-99249570D01*
X151799719Y-99060000D01*
X152083430Y-98870430D01*
X152414650Y-98374725D01*
X152530959Y-97790000D01*
X152414650Y-97205275D01*
X152083430Y-96709570D01*
X151799719Y-96520000D01*
X152083430Y-96330430D01*
X152414650Y-95834725D01*
X152530959Y-95250000D01*
X152414650Y-94665275D01*
X152083430Y-94169570D01*
X151799719Y-93980000D01*
X152083430Y-93790430D01*
X152414650Y-93294725D01*
X152530959Y-92710000D01*
X152414650Y-92125275D01*
X152083430Y-91629570D01*
X151587725Y-91298350D01*
X151150598Y-91211400D01*
X150855402Y-91211400D01*
X150418275Y-91298350D01*
X149929932Y-91624651D01*
X149924757Y-91598635D01*
X149784409Y-91388591D01*
X149574365Y-91248243D01*
X149326600Y-91198960D01*
X147599400Y-91198960D01*
X147351635Y-91248243D01*
X147141591Y-91388591D01*
X147092007Y-91462798D01*
X146704151Y-91074942D01*
X146663058Y-91013442D01*
X146419407Y-90850639D01*
X146204544Y-90807900D01*
X146204540Y-90807900D01*
X146132000Y-90793471D01*
X146059460Y-90807900D01*
X142955140Y-90807900D01*
X142882599Y-90793471D01*
X142810059Y-90807900D01*
X142810056Y-90807900D01*
X142595193Y-90850639D01*
X142413041Y-90972349D01*
X142413039Y-90972351D01*
X142351542Y-91013442D01*
X142310450Y-91074940D01*
X142063935Y-91321456D01*
X141954365Y-91248243D01*
X141706600Y-91198960D01*
X139979400Y-91198960D01*
X139731635Y-91248243D01*
X139521591Y-91388591D01*
X139472007Y-91462798D01*
X139084151Y-91074942D01*
X139043058Y-91013442D01*
X138799407Y-90850639D01*
X138584544Y-90807900D01*
X138584540Y-90807900D01*
X138512000Y-90793471D01*
X138439460Y-90807900D01*
X135335140Y-90807900D01*
X135262599Y-90793471D01*
X135190059Y-90807900D01*
X135190056Y-90807900D01*
X134975193Y-90850639D01*
X134793041Y-90972349D01*
X134793039Y-90972351D01*
X134731542Y-91013442D01*
X134690450Y-91074940D01*
X134443935Y-91321456D01*
X134334365Y-91248243D01*
X134086600Y-91198960D01*
X132359400Y-91198960D01*
X132111635Y-91248243D01*
X131901591Y-91388591D01*
X131761243Y-91598635D01*
X131711960Y-91846400D01*
X131711960Y-93573600D01*
X131761243Y-93821365D01*
X131901591Y-94031409D01*
X132111635Y-94171757D01*
X132137651Y-94176932D01*
X131811350Y-94665275D01*
X131695041Y-95250000D01*
X131811350Y-95834725D01*
X132142570Y-96330430D01*
X132426281Y-96520000D01*
X132142570Y-96709570D01*
X131901774Y-97069946D01*
X131790142Y-97092151D01*
X131770093Y-97096139D01*
X131587941Y-97217849D01*
X131587939Y-97217851D01*
X131526442Y-97258942D01*
X131485350Y-97320440D01*
X129847391Y-98958400D01*
X127471679Y-98958400D01*
X127272577Y-98660423D01*
X126920242Y-98425000D01*
X127272577Y-98189577D01*
X127589740Y-97714909D01*
X127701113Y-97155000D01*
X127589740Y-96595091D01*
X127272577Y-96120423D01*
X126920242Y-95885000D01*
X127272577Y-95649577D01*
X127589740Y-95174909D01*
X127701113Y-94615000D01*
X127589740Y-94055091D01*
X127272577Y-93580423D01*
X126920242Y-93345000D01*
X127272577Y-93109577D01*
X127335905Y-93014800D01*
X127450546Y-93014800D01*
X127543100Y-93033210D01*
X127635654Y-93014800D01*
X127635659Y-93014800D01*
X127909791Y-92960272D01*
X128220657Y-92752557D01*
X128273088Y-92674089D01*
X130687978Y-90259200D01*
X154635560Y-90259200D01*
X154635560Y-91605000D01*
X154635560Y-91605000D01*
G37*
X154635560Y-91605000D02*
X154684843Y-91852765D01*
X154825191Y-92062809D01*
X155035235Y-92203157D01*
X155169106Y-92229785D01*
X155048423Y-92310423D01*
X154731260Y-92785091D01*
X154619887Y-93345000D01*
X154731260Y-93904909D01*
X155048423Y-94379577D01*
X155400758Y-94615000D01*
X155048423Y-94850423D01*
X154731260Y-95325091D01*
X154619887Y-95885000D01*
X154731260Y-96444909D01*
X155048423Y-96919577D01*
X155432108Y-97175947D01*
X155227866Y-97272611D01*
X154851959Y-97687577D01*
X154691096Y-98075961D01*
X154813085Y-98298000D01*
X155956000Y-98298000D01*
X155956000Y-98278000D01*
X156210000Y-98278000D01*
X156210000Y-98298000D01*
X157352915Y-98298000D01*
X157474904Y-98075961D01*
X157314041Y-97687577D01*
X156938134Y-97272611D01*
X156733892Y-97175947D01*
X157117577Y-96919577D01*
X157141686Y-96883495D01*
X157987250Y-97729060D01*
X158028342Y-97790558D01*
X158089839Y-97831649D01*
X158089841Y-97831651D01*
X158271993Y-97953361D01*
X158486856Y-97996100D01*
X158486859Y-97996100D01*
X158559400Y-98010529D01*
X158631940Y-97996100D01*
X169608290Y-97996100D01*
X157276349Y-110328042D01*
X157117577Y-110090423D01*
X156796445Y-109875850D01*
X156806011Y-109827758D01*
X157117577Y-109619577D01*
X157434740Y-109144909D01*
X157546113Y-108585000D01*
X157434740Y-108025091D01*
X157117577Y-107550423D01*
X156765242Y-107315000D01*
X157117577Y-107079577D01*
X157434740Y-106604909D01*
X157546113Y-106045000D01*
X157434740Y-105485091D01*
X157117577Y-105010423D01*
X156765242Y-104775000D01*
X157117577Y-104539577D01*
X157434740Y-104064909D01*
X157546113Y-103505000D01*
X157434740Y-102945091D01*
X157117577Y-102470423D01*
X156765242Y-102235000D01*
X157117577Y-101999577D01*
X157434740Y-101524909D01*
X157546113Y-100965000D01*
X157434740Y-100405091D01*
X157117577Y-99930423D01*
X156733892Y-99674053D01*
X156938134Y-99577389D01*
X157314041Y-99162423D01*
X157474904Y-98774039D01*
X157352915Y-98552000D01*
X156210000Y-98552000D01*
X156210000Y-98572000D01*
X155956000Y-98572000D01*
X155956000Y-98552000D01*
X154813085Y-98552000D01*
X154691096Y-98774039D01*
X154851959Y-99162423D01*
X155227866Y-99577389D01*
X155432108Y-99674053D01*
X155048423Y-99930423D01*
X154731260Y-100405091D01*
X154619887Y-100965000D01*
X154731260Y-101524909D01*
X155048423Y-101999577D01*
X155400758Y-102235000D01*
X155048423Y-102470423D01*
X154731260Y-102945091D01*
X154619887Y-103505000D01*
X154731260Y-104064909D01*
X155048423Y-104539577D01*
X155400758Y-104775000D01*
X155048423Y-105010423D01*
X154731260Y-105485091D01*
X154619887Y-106045000D01*
X154731260Y-106604909D01*
X155048423Y-107079577D01*
X155400758Y-107315000D01*
X155048423Y-107550423D01*
X154731260Y-108025091D01*
X154619887Y-108585000D01*
X154729646Y-109136796D01*
X154701142Y-109155842D01*
X154660051Y-109217339D01*
X148412585Y-115464806D01*
X148406864Y-115450995D01*
X148160745Y-115376861D01*
X147332605Y-116205000D01*
X147346748Y-116219143D01*
X147167143Y-116398748D01*
X147153000Y-116384605D01*
X146324861Y-117212745D01*
X146398995Y-117458864D01*
X146413363Y-117464028D01*
X145394591Y-118482800D01*
X134119015Y-118482800D01*
X134364254Y-118237561D01*
X134375007Y-118211600D01*
X138230460Y-118211600D01*
X138303000Y-118226029D01*
X138375540Y-118211600D01*
X138375544Y-118211600D01*
X138590407Y-118168861D01*
X138834058Y-118006058D01*
X138875151Y-117944558D01*
X139814710Y-117005000D01*
X139858439Y-117005000D01*
X140011500Y-116941600D01*
X143404877Y-116941600D01*
X143436466Y-117017862D01*
X143840138Y-117421534D01*
X144367561Y-117640000D01*
X144938439Y-117640000D01*
X145465862Y-117421534D01*
X145869534Y-117017862D01*
X145896525Y-116952701D01*
X145899136Y-116959005D01*
X146145255Y-117033139D01*
X146973395Y-116205000D01*
X146145255Y-115376861D01*
X145899136Y-115450995D01*
X145896710Y-115457746D01*
X145869534Y-115392138D01*
X145674651Y-115197255D01*
X146324861Y-115197255D01*
X147153000Y-116025395D01*
X147981139Y-115197255D01*
X147907005Y-114951136D01*
X147369777Y-114758035D01*
X146799546Y-114785222D01*
X146398995Y-114951136D01*
X146324861Y-115197255D01*
X145674651Y-115197255D01*
X145465862Y-114988466D01*
X144938439Y-114770000D01*
X144367561Y-114770000D01*
X143840138Y-114988466D01*
X143436466Y-115392138D01*
X143404877Y-115468400D01*
X141008000Y-115468400D01*
X141008000Y-115284561D01*
X140789534Y-114757138D01*
X140385862Y-114353466D01*
X139858439Y-114135000D01*
X139287561Y-114135000D01*
X138760138Y-114353466D01*
X138356466Y-114757138D01*
X138138000Y-115284561D01*
X138138000Y-115855439D01*
X138355576Y-116380714D01*
X137997891Y-116738400D01*
X134375007Y-116738400D01*
X134364254Y-116712439D01*
X133985561Y-116333746D01*
X133490776Y-116128800D01*
X132955224Y-116128800D01*
X132460439Y-116333746D01*
X132081746Y-116712439D01*
X131876800Y-117207224D01*
X131876800Y-117742776D01*
X132081746Y-118237561D01*
X132326985Y-118482800D01*
X127626958Y-118482800D01*
X127701113Y-118110000D01*
X127589740Y-117550091D01*
X127272577Y-117075423D01*
X126920242Y-116840000D01*
X127272577Y-116604577D01*
X127589740Y-116129909D01*
X127701113Y-115570000D01*
X127589740Y-115010091D01*
X127272577Y-114535423D01*
X126797909Y-114218260D01*
X126379333Y-114135000D01*
X126096667Y-114135000D01*
X125678091Y-114218260D01*
X125217796Y-114525819D01*
X124567600Y-113875623D01*
X124567600Y-113830000D01*
X124618439Y-113830000D01*
X125145862Y-113611534D01*
X125549534Y-113207862D01*
X125768000Y-112680439D01*
X125768000Y-112109561D01*
X125595703Y-111693600D01*
X130588591Y-111693600D01*
X131021049Y-112126058D01*
X131062142Y-112187558D01*
X131305793Y-112350361D01*
X131520656Y-112393100D01*
X131520660Y-112393100D01*
X131593199Y-112407529D01*
X131665738Y-112393100D01*
X145231656Y-112393100D01*
X145410212Y-112571656D01*
X145806974Y-112736000D01*
X146236426Y-112736000D01*
X146633188Y-112571656D01*
X146936856Y-112267988D01*
X147101200Y-111871226D01*
X147101200Y-111441774D01*
X146988352Y-111169334D01*
X147002019Y-111178466D01*
X147010093Y-111183861D01*
X147141774Y-111210054D01*
X147382570Y-111570430D01*
X147878275Y-111901650D01*
X148315402Y-111988600D01*
X148610598Y-111988600D01*
X149047725Y-111901650D01*
X149543430Y-111570430D01*
X149733000Y-111286719D01*
X149922570Y-111570430D01*
X150418275Y-111901650D01*
X150855402Y-111988600D01*
X151150598Y-111988600D01*
X151587725Y-111901650D01*
X152083430Y-111570430D01*
X152414650Y-111074725D01*
X152530959Y-110490000D01*
X152414650Y-109905275D01*
X152083430Y-109409570D01*
X151799719Y-109220000D01*
X152083430Y-109030430D01*
X152414650Y-108534725D01*
X152530959Y-107950000D01*
X152414650Y-107365275D01*
X152083430Y-106869570D01*
X151799719Y-106680000D01*
X152083430Y-106490430D01*
X152414650Y-105994725D01*
X152530959Y-105410000D01*
X152414650Y-104825275D01*
X152083430Y-104329570D01*
X151799719Y-104140000D01*
X152083430Y-103950430D01*
X152414650Y-103454725D01*
X152530959Y-102870000D01*
X152414650Y-102285275D01*
X152083430Y-101789570D01*
X151799719Y-101600000D01*
X152083430Y-101410430D01*
X152414650Y-100914725D01*
X152530959Y-100330000D01*
X152414650Y-99745275D01*
X152083430Y-99249570D01*
X151799719Y-99060000D01*
X152083430Y-98870430D01*
X152414650Y-98374725D01*
X152530959Y-97790000D01*
X152414650Y-97205275D01*
X152083430Y-96709570D01*
X151799719Y-96520000D01*
X152083430Y-96330430D01*
X152414650Y-95834725D01*
X152530959Y-95250000D01*
X152414650Y-94665275D01*
X152083430Y-94169570D01*
X151799719Y-93980000D01*
X152083430Y-93790430D01*
X152414650Y-93294725D01*
X152530959Y-92710000D01*
X152414650Y-92125275D01*
X152083430Y-91629570D01*
X151587725Y-91298350D01*
X151150598Y-91211400D01*
X150855402Y-91211400D01*
X150418275Y-91298350D01*
X149929932Y-91624651D01*
X149924757Y-91598635D01*
X149784409Y-91388591D01*
X149574365Y-91248243D01*
X149326600Y-91198960D01*
X147599400Y-91198960D01*
X147351635Y-91248243D01*
X147141591Y-91388591D01*
X147092007Y-91462798D01*
X146704151Y-91074942D01*
X146663058Y-91013442D01*
X146419407Y-90850639D01*
X146204544Y-90807900D01*
X146204540Y-90807900D01*
X146132000Y-90793471D01*
X146059460Y-90807900D01*
X142955140Y-90807900D01*
X142882599Y-90793471D01*
X142810059Y-90807900D01*
X142810056Y-90807900D01*
X142595193Y-90850639D01*
X142413041Y-90972349D01*
X142413039Y-90972351D01*
X142351542Y-91013442D01*
X142310450Y-91074940D01*
X142063935Y-91321456D01*
X141954365Y-91248243D01*
X141706600Y-91198960D01*
X139979400Y-91198960D01*
X139731635Y-91248243D01*
X139521591Y-91388591D01*
X139472007Y-91462798D01*
X139084151Y-91074942D01*
X139043058Y-91013442D01*
X138799407Y-90850639D01*
X138584544Y-90807900D01*
X138584540Y-90807900D01*
X138512000Y-90793471D01*
X138439460Y-90807900D01*
X135335140Y-90807900D01*
X135262599Y-90793471D01*
X135190059Y-90807900D01*
X135190056Y-90807900D01*
X134975193Y-90850639D01*
X134793041Y-90972349D01*
X134793039Y-90972351D01*
X134731542Y-91013442D01*
X134690450Y-91074940D01*
X134443935Y-91321456D01*
X134334365Y-91248243D01*
X134086600Y-91198960D01*
X132359400Y-91198960D01*
X132111635Y-91248243D01*
X131901591Y-91388591D01*
X131761243Y-91598635D01*
X131711960Y-91846400D01*
X131711960Y-93573600D01*
X131761243Y-93821365D01*
X131901591Y-94031409D01*
X132111635Y-94171757D01*
X132137651Y-94176932D01*
X131811350Y-94665275D01*
X131695041Y-95250000D01*
X131811350Y-95834725D01*
X132142570Y-96330430D01*
X132426281Y-96520000D01*
X132142570Y-96709570D01*
X131901774Y-97069946D01*
X131790142Y-97092151D01*
X131770093Y-97096139D01*
X131587941Y-97217849D01*
X131587939Y-97217851D01*
X131526442Y-97258942D01*
X131485350Y-97320440D01*
X129847391Y-98958400D01*
X127471679Y-98958400D01*
X127272577Y-98660423D01*
X126920242Y-98425000D01*
X127272577Y-98189577D01*
X127589740Y-97714909D01*
X127701113Y-97155000D01*
X127589740Y-96595091D01*
X127272577Y-96120423D01*
X126920242Y-95885000D01*
X127272577Y-95649577D01*
X127589740Y-95174909D01*
X127701113Y-94615000D01*
X127589740Y-94055091D01*
X127272577Y-93580423D01*
X126920242Y-93345000D01*
X127272577Y-93109577D01*
X127335905Y-93014800D01*
X127450546Y-93014800D01*
X127543100Y-93033210D01*
X127635654Y-93014800D01*
X127635659Y-93014800D01*
X127909791Y-92960272D01*
X128220657Y-92752557D01*
X128273088Y-92674089D01*
X130687978Y-90259200D01*
X154635560Y-90259200D01*
X154635560Y-91605000D01*
G36*
X122026748Y-112380858D02*
X122012605Y-112395000D01*
X122026748Y-112409143D01*
X121847142Y-112588748D01*
X121833000Y-112574605D01*
X121818858Y-112588748D01*
X121639252Y-112409142D01*
X121653395Y-112395000D01*
X121639252Y-112380858D01*
X121818858Y-112201252D01*
X121833000Y-112215395D01*
X121847142Y-112201252D01*
X122026748Y-112380858D01*
X122026748Y-112380858D01*
G37*
X122026748Y-112380858D02*
X122012605Y-112395000D01*
X122026748Y-112409143D01*
X121847142Y-112588748D01*
X121833000Y-112574605D01*
X121818858Y-112588748D01*
X121639252Y-112409142D01*
X121653395Y-112395000D01*
X121639252Y-112380858D01*
X121818858Y-112201252D01*
X121833000Y-112215395D01*
X121847142Y-112201252D01*
X122026748Y-112380858D01*
G36*
X120249650Y-108886460D02*
X120290742Y-108947958D01*
X120352239Y-108989049D01*
X120352241Y-108989051D01*
X120534393Y-109110761D01*
X120749256Y-109153500D01*
X120749259Y-109153500D01*
X120821800Y-109167929D01*
X120894340Y-109153500D01*
X124980868Y-109153500D01*
X124886260Y-109295091D01*
X124774887Y-109855000D01*
X124847570Y-110220400D01*
X120003128Y-110220400D01*
X120009904Y-110204039D01*
X119887915Y-109982000D01*
X118745000Y-109982000D01*
X118745000Y-110002000D01*
X118491000Y-110002000D01*
X118491000Y-109982000D01*
X118471000Y-109982000D01*
X118471000Y-109728000D01*
X118491000Y-109728000D01*
X118491000Y-109708000D01*
X118745000Y-109708000D01*
X118745000Y-109728000D01*
X119887915Y-109728000D01*
X120009904Y-109505961D01*
X119849041Y-109117577D01*
X119473134Y-108702611D01*
X119268892Y-108605947D01*
X119652577Y-108349577D01*
X119676686Y-108313495D01*
X120249650Y-108886460D01*
X120249650Y-108886460D01*
G37*
X120249650Y-108886460D02*
X120290742Y-108947958D01*
X120352239Y-108989049D01*
X120352241Y-108989051D01*
X120534393Y-109110761D01*
X120749256Y-109153500D01*
X120749259Y-109153500D01*
X120821800Y-109167929D01*
X120894340Y-109153500D01*
X124980868Y-109153500D01*
X124886260Y-109295091D01*
X124774887Y-109855000D01*
X124847570Y-110220400D01*
X120003128Y-110220400D01*
X120009904Y-110204039D01*
X119887915Y-109982000D01*
X118745000Y-109982000D01*
X118745000Y-110002000D01*
X118491000Y-110002000D01*
X118491000Y-109982000D01*
X118471000Y-109982000D01*
X118471000Y-109728000D01*
X118491000Y-109728000D01*
X118491000Y-109708000D01*
X118745000Y-109708000D01*
X118745000Y-109728000D01*
X119887915Y-109728000D01*
X120009904Y-109505961D01*
X119849041Y-109117577D01*
X119473134Y-108702611D01*
X119268892Y-108605947D01*
X119652577Y-108349577D01*
X119676686Y-108313495D01*
X120249650Y-108886460D01*
G36*
X117226096Y-101885961D02*
X117348085Y-102108000D01*
X118491000Y-102108000D01*
X118491000Y-102088000D01*
X118745000Y-102088000D01*
X118745000Y-102108000D01*
X119887915Y-102108000D01*
X120009904Y-101885961D01*
X120003128Y-101869600D01*
X124847570Y-101869600D01*
X124774887Y-102235000D01*
X124886260Y-102794909D01*
X125203423Y-103269577D01*
X125555758Y-103505000D01*
X125203423Y-103740423D01*
X124886260Y-104215091D01*
X124774887Y-104775000D01*
X124886260Y-105334909D01*
X125203423Y-105809577D01*
X125555758Y-106045000D01*
X125203423Y-106280423D01*
X124886260Y-106755091D01*
X124774887Y-107315000D01*
X124847550Y-107680300D01*
X121126910Y-107680300D01*
X120292051Y-106845442D01*
X120250958Y-106783942D01*
X120007307Y-106621139D01*
X119860758Y-106591989D01*
X119652577Y-106280423D01*
X119300242Y-106045000D01*
X119652577Y-105809577D01*
X119969740Y-105334909D01*
X120081113Y-104775000D01*
X119969740Y-104215091D01*
X119652577Y-103740423D01*
X119268892Y-103484053D01*
X119473134Y-103387389D01*
X119849041Y-102972423D01*
X120009904Y-102584039D01*
X119887915Y-102362000D01*
X118745000Y-102362000D01*
X118745000Y-102382000D01*
X118491000Y-102382000D01*
X118491000Y-102362000D01*
X117348085Y-102362000D01*
X117226096Y-102584039D01*
X117386959Y-102972423D01*
X117762866Y-103387389D01*
X117967108Y-103484053D01*
X117583423Y-103740423D01*
X117266260Y-104215091D01*
X117154887Y-104775000D01*
X117266260Y-105334909D01*
X117583423Y-105809577D01*
X117935758Y-106045000D01*
X117583423Y-106280423D01*
X117266260Y-106755091D01*
X117154887Y-107315000D01*
X117266260Y-107874909D01*
X117583423Y-108349577D01*
X117967108Y-108605947D01*
X117762866Y-108702611D01*
X117386959Y-109117577D01*
X117226096Y-109505961D01*
X117348084Y-109727998D01*
X117183000Y-109727998D01*
X117183000Y-109755490D01*
X112260690Y-104833181D01*
X112349740Y-104699909D01*
X112461113Y-104140000D01*
X112349740Y-103580091D01*
X112032577Y-103105423D01*
X111680242Y-102870000D01*
X112032577Y-102634577D01*
X112349740Y-102159909D01*
X112405810Y-101878024D01*
X112435999Y-101884029D01*
X112508540Y-101869600D01*
X117232872Y-101869600D01*
X117226096Y-101885961D01*
X117226096Y-101885961D01*
G37*
X117226096Y-101885961D02*
X117348085Y-102108000D01*
X118491000Y-102108000D01*
X118491000Y-102088000D01*
X118745000Y-102088000D01*
X118745000Y-102108000D01*
X119887915Y-102108000D01*
X120009904Y-101885961D01*
X120003128Y-101869600D01*
X124847570Y-101869600D01*
X124774887Y-102235000D01*
X124886260Y-102794909D01*
X125203423Y-103269577D01*
X125555758Y-103505000D01*
X125203423Y-103740423D01*
X124886260Y-104215091D01*
X124774887Y-104775000D01*
X124886260Y-105334909D01*
X125203423Y-105809577D01*
X125555758Y-106045000D01*
X125203423Y-106280423D01*
X124886260Y-106755091D01*
X124774887Y-107315000D01*
X124847550Y-107680300D01*
X121126910Y-107680300D01*
X120292051Y-106845442D01*
X120250958Y-106783942D01*
X120007307Y-106621139D01*
X119860758Y-106591989D01*
X119652577Y-106280423D01*
X119300242Y-106045000D01*
X119652577Y-105809577D01*
X119969740Y-105334909D01*
X120081113Y-104775000D01*
X119969740Y-104215091D01*
X119652577Y-103740423D01*
X119268892Y-103484053D01*
X119473134Y-103387389D01*
X119849041Y-102972423D01*
X120009904Y-102584039D01*
X119887915Y-102362000D01*
X118745000Y-102362000D01*
X118745000Y-102382000D01*
X118491000Y-102382000D01*
X118491000Y-102362000D01*
X117348085Y-102362000D01*
X117226096Y-102584039D01*
X117386959Y-102972423D01*
X117762866Y-103387389D01*
X117967108Y-103484053D01*
X117583423Y-103740423D01*
X117266260Y-104215091D01*
X117154887Y-104775000D01*
X117266260Y-105334909D01*
X117583423Y-105809577D01*
X117935758Y-106045000D01*
X117583423Y-106280423D01*
X117266260Y-106755091D01*
X117154887Y-107315000D01*
X117266260Y-107874909D01*
X117583423Y-108349577D01*
X117967108Y-108605947D01*
X117762866Y-108702611D01*
X117386959Y-109117577D01*
X117226096Y-109505961D01*
X117348084Y-109727998D01*
X117183000Y-109727998D01*
X117183000Y-109755490D01*
X112260690Y-104833181D01*
X112349740Y-104699909D01*
X112461113Y-104140000D01*
X112349740Y-103580091D01*
X112032577Y-103105423D01*
X111680242Y-102870000D01*
X112032577Y-102634577D01*
X112349740Y-102159909D01*
X112405810Y-101878024D01*
X112435999Y-101884029D01*
X112508540Y-101869600D01*
X117232872Y-101869600D01*
X117226096Y-101885961D01*
G36*
X125203423Y-93109577D02*
X125555758Y-93345000D01*
X125203423Y-93580423D01*
X124886260Y-94055091D01*
X124774887Y-94615000D01*
X124886260Y-95174909D01*
X125203423Y-95649577D01*
X125555758Y-95885000D01*
X125203423Y-96120423D01*
X124886260Y-96595091D01*
X124774887Y-97155000D01*
X124886260Y-97714909D01*
X125203423Y-98189577D01*
X125555758Y-98425000D01*
X125203423Y-98660423D01*
X124886260Y-99135091D01*
X124774887Y-99695000D01*
X124886260Y-100254909D01*
X124980801Y-100396400D01*
X119863961Y-100396400D01*
X120009904Y-100044039D01*
X119887915Y-99822000D01*
X118745000Y-99822000D01*
X118745000Y-99842000D01*
X118491000Y-99842000D01*
X118491000Y-99822000D01*
X117348085Y-99822000D01*
X117226096Y-100044039D01*
X117372039Y-100396400D01*
X112741110Y-100396400D01*
X112195482Y-99850773D01*
X112349740Y-99619909D01*
X112461113Y-99060000D01*
X112349740Y-98500091D01*
X112032577Y-98025423D01*
X111680242Y-97790000D01*
X112032577Y-97554577D01*
X112240758Y-97243011D01*
X112387307Y-97213861D01*
X112630958Y-97051058D01*
X112672051Y-96989558D01*
X113109610Y-96552000D01*
X117295052Y-96552000D01*
X117266260Y-96595091D01*
X117154887Y-97155000D01*
X117266260Y-97714909D01*
X117583423Y-98189577D01*
X117967108Y-98445947D01*
X117762866Y-98542611D01*
X117386959Y-98957577D01*
X117226096Y-99345961D01*
X117348085Y-99568000D01*
X118491000Y-99568000D01*
X118491000Y-99548000D01*
X118745000Y-99548000D01*
X118745000Y-99568000D01*
X119887915Y-99568000D01*
X120009904Y-99345961D01*
X119849041Y-98957577D01*
X119473134Y-98542611D01*
X119268892Y-98445947D01*
X119652577Y-98189577D01*
X119969740Y-97714909D01*
X120081113Y-97155000D01*
X119969740Y-96595091D01*
X119940948Y-96552000D01*
X120159756Y-96552000D01*
X120338312Y-96730556D01*
X120735074Y-96894900D01*
X121164526Y-96894900D01*
X121561288Y-96730556D01*
X121864956Y-96426888D01*
X122029300Y-96030126D01*
X122029300Y-95600674D01*
X121926130Y-95351600D01*
X122065060Y-95351600D01*
X122137600Y-95366029D01*
X122210140Y-95351600D01*
X122210144Y-95351600D01*
X122425007Y-95308861D01*
X122668658Y-95146058D01*
X122709751Y-95084558D01*
X124995665Y-92798645D01*
X125203423Y-93109577D01*
X125203423Y-93109577D01*
G37*
X125203423Y-93109577D02*
X125555758Y-93345000D01*
X125203423Y-93580423D01*
X124886260Y-94055091D01*
X124774887Y-94615000D01*
X124886260Y-95174909D01*
X125203423Y-95649577D01*
X125555758Y-95885000D01*
X125203423Y-96120423D01*
X124886260Y-96595091D01*
X124774887Y-97155000D01*
X124886260Y-97714909D01*
X125203423Y-98189577D01*
X125555758Y-98425000D01*
X125203423Y-98660423D01*
X124886260Y-99135091D01*
X124774887Y-99695000D01*
X124886260Y-100254909D01*
X124980801Y-100396400D01*
X119863961Y-100396400D01*
X120009904Y-100044039D01*
X119887915Y-99822000D01*
X118745000Y-99822000D01*
X118745000Y-99842000D01*
X118491000Y-99842000D01*
X118491000Y-99822000D01*
X117348085Y-99822000D01*
X117226096Y-100044039D01*
X117372039Y-100396400D01*
X112741110Y-100396400D01*
X112195482Y-99850773D01*
X112349740Y-99619909D01*
X112461113Y-99060000D01*
X112349740Y-98500091D01*
X112032577Y-98025423D01*
X111680242Y-97790000D01*
X112032577Y-97554577D01*
X112240758Y-97243011D01*
X112387307Y-97213861D01*
X112630958Y-97051058D01*
X112672051Y-96989558D01*
X113109610Y-96552000D01*
X117295052Y-96552000D01*
X117266260Y-96595091D01*
X117154887Y-97155000D01*
X117266260Y-97714909D01*
X117583423Y-98189577D01*
X117967108Y-98445947D01*
X117762866Y-98542611D01*
X117386959Y-98957577D01*
X117226096Y-99345961D01*
X117348085Y-99568000D01*
X118491000Y-99568000D01*
X118491000Y-99548000D01*
X118745000Y-99548000D01*
X118745000Y-99568000D01*
X119887915Y-99568000D01*
X120009904Y-99345961D01*
X119849041Y-98957577D01*
X119473134Y-98542611D01*
X119268892Y-98445947D01*
X119652577Y-98189577D01*
X119969740Y-97714909D01*
X120081113Y-97155000D01*
X119969740Y-96595091D01*
X119940948Y-96552000D01*
X120159756Y-96552000D01*
X120338312Y-96730556D01*
X120735074Y-96894900D01*
X121164526Y-96894900D01*
X121561288Y-96730556D01*
X121864956Y-96426888D01*
X122029300Y-96030126D01*
X122029300Y-95600674D01*
X121926130Y-95351600D01*
X122065060Y-95351600D01*
X122137600Y-95366029D01*
X122210140Y-95351600D01*
X122210144Y-95351600D01*
X122425007Y-95308861D01*
X122668658Y-95146058D01*
X122709751Y-95084558D01*
X124995665Y-92798645D01*
X125203423Y-93109577D01*
G36*
X176530000Y-81788000D02*
X176550000Y-81788000D01*
X176550000Y-82042000D01*
X176530000Y-82042000D01*
X176530000Y-83141250D01*
X176688750Y-83300000D01*
X177054309Y-83300000D01*
X177287698Y-83203327D01*
X177466327Y-83024699D01*
X177563000Y-82791310D01*
X177563000Y-82371610D01*
X177641400Y-82450010D01*
X177641400Y-89306400D01*
X177323750Y-89306400D01*
X177165000Y-89465150D01*
X177165000Y-90678000D01*
X177185000Y-90678000D01*
X177185000Y-90932000D01*
X177165000Y-90932000D01*
X177165000Y-90952000D01*
X176911000Y-90952000D01*
X176911000Y-90932000D01*
X175545750Y-90932000D01*
X175387000Y-91090750D01*
X175387000Y-91794910D01*
X175483673Y-92028299D01*
X175662302Y-92206927D01*
X175804367Y-92265772D01*
X175473950Y-92760275D01*
X175357641Y-93345000D01*
X175473950Y-93929725D01*
X175805170Y-94425430D01*
X176088881Y-94615000D01*
X175805170Y-94804570D01*
X175473950Y-95300275D01*
X175357641Y-95885000D01*
X175473950Y-96469725D01*
X175509480Y-96522900D01*
X172622628Y-96522900D01*
X172674740Y-96444909D01*
X172786113Y-95885000D01*
X172674740Y-95325091D01*
X172357577Y-94850423D01*
X172005242Y-94615000D01*
X172357577Y-94379577D01*
X172674740Y-93904909D01*
X172786113Y-93345000D01*
X172674740Y-92785091D01*
X172357577Y-92310423D01*
X172005242Y-92075000D01*
X172357577Y-91839577D01*
X172674740Y-91364909D01*
X172786113Y-90805000D01*
X172674740Y-90245091D01*
X172387423Y-89815090D01*
X175387000Y-89815090D01*
X175387000Y-90519250D01*
X175545750Y-90678000D01*
X176911000Y-90678000D01*
X176911000Y-89465150D01*
X176752250Y-89306400D01*
X175895691Y-89306400D01*
X175662302Y-89403073D01*
X175483673Y-89581701D01*
X175387000Y-89815090D01*
X172387423Y-89815090D01*
X172357577Y-89770423D01*
X171882909Y-89453260D01*
X171464333Y-89370000D01*
X171181667Y-89370000D01*
X170763091Y-89453260D01*
X170288423Y-89770423D01*
X169971260Y-90245091D01*
X169859887Y-90805000D01*
X169971260Y-91364909D01*
X170288423Y-91839577D01*
X170640758Y-92075000D01*
X170288423Y-92310423D01*
X169971260Y-92785091D01*
X169859887Y-93345000D01*
X169971260Y-93904909D01*
X170288423Y-94379577D01*
X170640758Y-94615000D01*
X170288423Y-94850423D01*
X169971260Y-95325091D01*
X169859887Y-95885000D01*
X169971260Y-96444909D01*
X170023372Y-96522900D01*
X158864510Y-96522900D01*
X157757051Y-95415442D01*
X157715958Y-95353942D01*
X157472307Y-95191139D01*
X157325758Y-95161989D01*
X157117577Y-94850423D01*
X156765242Y-94615000D01*
X157117577Y-94379577D01*
X157434740Y-93904909D01*
X157546113Y-93345000D01*
X157434740Y-92785091D01*
X157117577Y-92310423D01*
X156996894Y-92229785D01*
X157130765Y-92203157D01*
X157340809Y-92062809D01*
X157481157Y-91852765D01*
X157530440Y-91605000D01*
X157530440Y-90259200D01*
X167890046Y-90259200D01*
X167982600Y-90277610D01*
X168075154Y-90259200D01*
X168075159Y-90259200D01*
X168349291Y-90204672D01*
X168523513Y-90088260D01*
X168581689Y-90049388D01*
X168660157Y-89996957D01*
X168712587Y-89918490D01*
X169185077Y-89446000D01*
X169576439Y-89446000D01*
X170103862Y-89227534D01*
X170507534Y-88823862D01*
X170726000Y-88296439D01*
X170726000Y-87725561D01*
X170507534Y-87198138D01*
X170103862Y-86794466D01*
X169576439Y-86576000D01*
X169005561Y-86576000D01*
X168478138Y-86794466D01*
X168074466Y-87198138D01*
X168047475Y-87263299D01*
X168044864Y-87256995D01*
X167798745Y-87182861D01*
X166970605Y-88011000D01*
X166984748Y-88025143D01*
X166805143Y-88204748D01*
X166791000Y-88190605D01*
X166776858Y-88204748D01*
X166597253Y-88025143D01*
X166611395Y-88011000D01*
X165783255Y-87182861D01*
X165537136Y-87256995D01*
X165344035Y-87794223D01*
X165371222Y-88364454D01*
X165377496Y-88379600D01*
X130391254Y-88379600D01*
X130298700Y-88361190D01*
X130206146Y-88379600D01*
X130206141Y-88379600D01*
X129932009Y-88434128D01*
X129932008Y-88434129D01*
X129932007Y-88434129D01*
X129699610Y-88589412D01*
X129699608Y-88589414D01*
X129621143Y-88641843D01*
X129568714Y-88720308D01*
X127258204Y-91030819D01*
X126961645Y-90832665D01*
X130791055Y-87003255D01*
X165962861Y-87003255D01*
X166791000Y-87831395D01*
X167619139Y-87003255D01*
X167545005Y-86757136D01*
X167007777Y-86564035D01*
X166437546Y-86591222D01*
X166036995Y-86757136D01*
X165962861Y-87003255D01*
X130791055Y-87003255D01*
X131275810Y-86518500D01*
X139737656Y-86518500D01*
X139916212Y-86697056D01*
X140312974Y-86861400D01*
X140742426Y-86861400D01*
X141139188Y-86697056D01*
X141442856Y-86393388D01*
X141607200Y-85996626D01*
X141607200Y-85567174D01*
X141442856Y-85170412D01*
X141139188Y-84866744D01*
X140742426Y-84702400D01*
X140312974Y-84702400D01*
X139916212Y-84866744D01*
X139737656Y-85045300D01*
X137811409Y-85045300D01*
X138358647Y-84498063D01*
X138734276Y-84749050D01*
X139319000Y-84865359D01*
X139903725Y-84749050D01*
X140399430Y-84417830D01*
X140589000Y-84134119D01*
X140778570Y-84417830D01*
X141274276Y-84749050D01*
X141859000Y-84865359D01*
X142443725Y-84749050D01*
X142837637Y-84485846D01*
X144135450Y-85783660D01*
X144176542Y-85845158D01*
X144238039Y-85886249D01*
X144238041Y-85886251D01*
X144330681Y-85948151D01*
X144420193Y-86007961D01*
X144635056Y-86050700D01*
X144635059Y-86050700D01*
X144707600Y-86065129D01*
X144780140Y-86050700D01*
X172713260Y-86050700D01*
X172785800Y-86065129D01*
X172858340Y-86050700D01*
X172858344Y-86050700D01*
X173073207Y-86007961D01*
X173316858Y-85845158D01*
X173357951Y-85783658D01*
X175602560Y-83539049D01*
X175664058Y-83497958D01*
X175705149Y-83436461D01*
X175705151Y-83436459D01*
X175796330Y-83300000D01*
X176117250Y-83300000D01*
X176276000Y-83141250D01*
X176276000Y-82339710D01*
X176293000Y-82254246D01*
X176293000Y-81768000D01*
X176530000Y-81768000D01*
X176530000Y-81788000D01*
X176530000Y-81788000D01*
G37*
X176530000Y-81788000D02*
X176550000Y-81788000D01*
X176550000Y-82042000D01*
X176530000Y-82042000D01*
X176530000Y-83141250D01*
X176688750Y-83300000D01*
X177054309Y-83300000D01*
X177287698Y-83203327D01*
X177466327Y-83024699D01*
X177563000Y-82791310D01*
X177563000Y-82371610D01*
X177641400Y-82450010D01*
X177641400Y-89306400D01*
X177323750Y-89306400D01*
X177165000Y-89465150D01*
X177165000Y-90678000D01*
X177185000Y-90678000D01*
X177185000Y-90932000D01*
X177165000Y-90932000D01*
X177165000Y-90952000D01*
X176911000Y-90952000D01*
X176911000Y-90932000D01*
X175545750Y-90932000D01*
X175387000Y-91090750D01*
X175387000Y-91794910D01*
X175483673Y-92028299D01*
X175662302Y-92206927D01*
X175804367Y-92265772D01*
X175473950Y-92760275D01*
X175357641Y-93345000D01*
X175473950Y-93929725D01*
X175805170Y-94425430D01*
X176088881Y-94615000D01*
X175805170Y-94804570D01*
X175473950Y-95300275D01*
X175357641Y-95885000D01*
X175473950Y-96469725D01*
X175509480Y-96522900D01*
X172622628Y-96522900D01*
X172674740Y-96444909D01*
X172786113Y-95885000D01*
X172674740Y-95325091D01*
X172357577Y-94850423D01*
X172005242Y-94615000D01*
X172357577Y-94379577D01*
X172674740Y-93904909D01*
X172786113Y-93345000D01*
X172674740Y-92785091D01*
X172357577Y-92310423D01*
X172005242Y-92075000D01*
X172357577Y-91839577D01*
X172674740Y-91364909D01*
X172786113Y-90805000D01*
X172674740Y-90245091D01*
X172387423Y-89815090D01*
X175387000Y-89815090D01*
X175387000Y-90519250D01*
X175545750Y-90678000D01*
X176911000Y-90678000D01*
X176911000Y-89465150D01*
X176752250Y-89306400D01*
X175895691Y-89306400D01*
X175662302Y-89403073D01*
X175483673Y-89581701D01*
X175387000Y-89815090D01*
X172387423Y-89815090D01*
X172357577Y-89770423D01*
X171882909Y-89453260D01*
X171464333Y-89370000D01*
X171181667Y-89370000D01*
X170763091Y-89453260D01*
X170288423Y-89770423D01*
X169971260Y-90245091D01*
X169859887Y-90805000D01*
X169971260Y-91364909D01*
X170288423Y-91839577D01*
X170640758Y-92075000D01*
X170288423Y-92310423D01*
X169971260Y-92785091D01*
X169859887Y-93345000D01*
X169971260Y-93904909D01*
X170288423Y-94379577D01*
X170640758Y-94615000D01*
X170288423Y-94850423D01*
X169971260Y-95325091D01*
X169859887Y-95885000D01*
X169971260Y-96444909D01*
X170023372Y-96522900D01*
X158864510Y-96522900D01*
X157757051Y-95415442D01*
X157715958Y-95353942D01*
X157472307Y-95191139D01*
X157325758Y-95161989D01*
X157117577Y-94850423D01*
X156765242Y-94615000D01*
X157117577Y-94379577D01*
X157434740Y-93904909D01*
X157546113Y-93345000D01*
X157434740Y-92785091D01*
X157117577Y-92310423D01*
X156996894Y-92229785D01*
X157130765Y-92203157D01*
X157340809Y-92062809D01*
X157481157Y-91852765D01*
X157530440Y-91605000D01*
X157530440Y-90259200D01*
X167890046Y-90259200D01*
X167982600Y-90277610D01*
X168075154Y-90259200D01*
X168075159Y-90259200D01*
X168349291Y-90204672D01*
X168523513Y-90088260D01*
X168581689Y-90049388D01*
X168660157Y-89996957D01*
X168712587Y-89918490D01*
X169185077Y-89446000D01*
X169576439Y-89446000D01*
X170103862Y-89227534D01*
X170507534Y-88823862D01*
X170726000Y-88296439D01*
X170726000Y-87725561D01*
X170507534Y-87198138D01*
X170103862Y-86794466D01*
X169576439Y-86576000D01*
X169005561Y-86576000D01*
X168478138Y-86794466D01*
X168074466Y-87198138D01*
X168047475Y-87263299D01*
X168044864Y-87256995D01*
X167798745Y-87182861D01*
X166970605Y-88011000D01*
X166984748Y-88025143D01*
X166805143Y-88204748D01*
X166791000Y-88190605D01*
X166776858Y-88204748D01*
X166597253Y-88025143D01*
X166611395Y-88011000D01*
X165783255Y-87182861D01*
X165537136Y-87256995D01*
X165344035Y-87794223D01*
X165371222Y-88364454D01*
X165377496Y-88379600D01*
X130391254Y-88379600D01*
X130298700Y-88361190D01*
X130206146Y-88379600D01*
X130206141Y-88379600D01*
X129932009Y-88434128D01*
X129932008Y-88434129D01*
X129932007Y-88434129D01*
X129699610Y-88589412D01*
X129699608Y-88589414D01*
X129621143Y-88641843D01*
X129568714Y-88720308D01*
X127258204Y-91030819D01*
X126961645Y-90832665D01*
X130791055Y-87003255D01*
X165962861Y-87003255D01*
X166791000Y-87831395D01*
X167619139Y-87003255D01*
X167545005Y-86757136D01*
X167007777Y-86564035D01*
X166437546Y-86591222D01*
X166036995Y-86757136D01*
X165962861Y-87003255D01*
X130791055Y-87003255D01*
X131275810Y-86518500D01*
X139737656Y-86518500D01*
X139916212Y-86697056D01*
X140312974Y-86861400D01*
X140742426Y-86861400D01*
X141139188Y-86697056D01*
X141442856Y-86393388D01*
X141607200Y-85996626D01*
X141607200Y-85567174D01*
X141442856Y-85170412D01*
X141139188Y-84866744D01*
X140742426Y-84702400D01*
X140312974Y-84702400D01*
X139916212Y-84866744D01*
X139737656Y-85045300D01*
X137811409Y-85045300D01*
X138358647Y-84498063D01*
X138734276Y-84749050D01*
X139319000Y-84865359D01*
X139903725Y-84749050D01*
X140399430Y-84417830D01*
X140589000Y-84134119D01*
X140778570Y-84417830D01*
X141274276Y-84749050D01*
X141859000Y-84865359D01*
X142443725Y-84749050D01*
X142837637Y-84485846D01*
X144135450Y-85783660D01*
X144176542Y-85845158D01*
X144238039Y-85886249D01*
X144238041Y-85886251D01*
X144330681Y-85948151D01*
X144420193Y-86007961D01*
X144635056Y-86050700D01*
X144635059Y-86050700D01*
X144707600Y-86065129D01*
X144780140Y-86050700D01*
X172713260Y-86050700D01*
X172785800Y-86065129D01*
X172858340Y-86050700D01*
X172858344Y-86050700D01*
X173073207Y-86007961D01*
X173316858Y-85845158D01*
X173357951Y-85783658D01*
X175602560Y-83539049D01*
X175664058Y-83497958D01*
X175705149Y-83436461D01*
X175705151Y-83436459D01*
X175796330Y-83300000D01*
X176117250Y-83300000D01*
X176276000Y-83141250D01*
X176276000Y-82339710D01*
X176293000Y-82254246D01*
X176293000Y-81768000D01*
X176530000Y-81768000D01*
X176530000Y-81788000D01*
G36*
X105345243Y-77184365D02*
X105485591Y-77394409D01*
X105695635Y-77534757D01*
X105943400Y-77584040D01*
X107670600Y-77584040D01*
X107918365Y-77534757D01*
X108128409Y-77394409D01*
X108268757Y-77184365D01*
X108273932Y-77158349D01*
X108762275Y-77484650D01*
X109199402Y-77571600D01*
X109494598Y-77571600D01*
X109512885Y-77567962D01*
X110753514Y-78808592D01*
X110805943Y-78887057D01*
X110884408Y-78939486D01*
X110884409Y-78939487D01*
X111116807Y-79094771D01*
X111116808Y-79094771D01*
X111116809Y-79094772D01*
X111390941Y-79149300D01*
X111390945Y-79149300D01*
X111483499Y-79167710D01*
X111576053Y-79149300D01*
X112618223Y-79149300D01*
X121579384Y-88110462D01*
X121479546Y-88115222D01*
X121078995Y-88281136D01*
X121004861Y-88527255D01*
X121833000Y-89355395D01*
X121847142Y-89341252D01*
X122026748Y-89520858D01*
X122012605Y-89535000D01*
X122026748Y-89549142D01*
X121847142Y-89728748D01*
X121833000Y-89714605D01*
X121818858Y-89728748D01*
X121639252Y-89549142D01*
X121653395Y-89535000D01*
X120825255Y-88706861D01*
X120579136Y-88780995D01*
X120386035Y-89318223D01*
X120413222Y-89888454D01*
X120540736Y-90196300D01*
X113221120Y-90196300D01*
X113235271Y-90125158D01*
X113263400Y-89983744D01*
X113263400Y-89983741D01*
X113277829Y-89911200D01*
X113263400Y-89838660D01*
X113263400Y-83857140D01*
X113277829Y-83784600D01*
X113263400Y-83712059D01*
X113263400Y-83712056D01*
X113220661Y-83497193D01*
X113212512Y-83484997D01*
X113098951Y-83315041D01*
X113098949Y-83315039D01*
X113057858Y-83253542D01*
X112996360Y-83212450D01*
X111987851Y-82203942D01*
X111946758Y-82142442D01*
X111703107Y-81979639D01*
X111488244Y-81936900D01*
X111488240Y-81936900D01*
X111415700Y-81922471D01*
X111343160Y-81936900D01*
X100415140Y-81936900D01*
X100342599Y-81922471D01*
X100270059Y-81936900D01*
X100270056Y-81936900D01*
X100055193Y-81979639D01*
X99873041Y-82101349D01*
X99873039Y-82101351D01*
X99811542Y-82142442D01*
X99770451Y-82203940D01*
X97788991Y-84185400D01*
X97148430Y-84185400D01*
X97221113Y-83820000D01*
X97109740Y-83260091D01*
X96792577Y-82785423D01*
X96317909Y-82468260D01*
X95899333Y-82385000D01*
X95616667Y-82385000D01*
X95198091Y-82468260D01*
X94723423Y-82785423D01*
X94515242Y-83096989D01*
X94368693Y-83126139D01*
X94186541Y-83247849D01*
X94186539Y-83247851D01*
X94125042Y-83288942D01*
X94083950Y-83350440D01*
X93715991Y-83718400D01*
X91558777Y-83718400D01*
X98264378Y-77012800D01*
X105311117Y-77012800D01*
X105345243Y-77184365D01*
X105345243Y-77184365D01*
G37*
X105345243Y-77184365D02*
X105485591Y-77394409D01*
X105695635Y-77534757D01*
X105943400Y-77584040D01*
X107670600Y-77584040D01*
X107918365Y-77534757D01*
X108128409Y-77394409D01*
X108268757Y-77184365D01*
X108273932Y-77158349D01*
X108762275Y-77484650D01*
X109199402Y-77571600D01*
X109494598Y-77571600D01*
X109512885Y-77567962D01*
X110753514Y-78808592D01*
X110805943Y-78887057D01*
X110884408Y-78939486D01*
X110884409Y-78939487D01*
X111116807Y-79094771D01*
X111116808Y-79094771D01*
X111116809Y-79094772D01*
X111390941Y-79149300D01*
X111390945Y-79149300D01*
X111483499Y-79167710D01*
X111576053Y-79149300D01*
X112618223Y-79149300D01*
X121579384Y-88110462D01*
X121479546Y-88115222D01*
X121078995Y-88281136D01*
X121004861Y-88527255D01*
X121833000Y-89355395D01*
X121847142Y-89341252D01*
X122026748Y-89520858D01*
X122012605Y-89535000D01*
X122026748Y-89549142D01*
X121847142Y-89728748D01*
X121833000Y-89714605D01*
X121818858Y-89728748D01*
X121639252Y-89549142D01*
X121653395Y-89535000D01*
X120825255Y-88706861D01*
X120579136Y-88780995D01*
X120386035Y-89318223D01*
X120413222Y-89888454D01*
X120540736Y-90196300D01*
X113221120Y-90196300D01*
X113235271Y-90125158D01*
X113263400Y-89983744D01*
X113263400Y-89983741D01*
X113277829Y-89911200D01*
X113263400Y-89838660D01*
X113263400Y-83857140D01*
X113277829Y-83784600D01*
X113263400Y-83712059D01*
X113263400Y-83712056D01*
X113220661Y-83497193D01*
X113212512Y-83484997D01*
X113098951Y-83315041D01*
X113098949Y-83315039D01*
X113057858Y-83253542D01*
X112996360Y-83212450D01*
X111987851Y-82203942D01*
X111946758Y-82142442D01*
X111703107Y-81979639D01*
X111488244Y-81936900D01*
X111488240Y-81936900D01*
X111415700Y-81922471D01*
X111343160Y-81936900D01*
X100415140Y-81936900D01*
X100342599Y-81922471D01*
X100270059Y-81936900D01*
X100270056Y-81936900D01*
X100055193Y-81979639D01*
X99873041Y-82101349D01*
X99873039Y-82101351D01*
X99811542Y-82142442D01*
X99770451Y-82203940D01*
X97788991Y-84185400D01*
X97148430Y-84185400D01*
X97221113Y-83820000D01*
X97109740Y-83260091D01*
X96792577Y-82785423D01*
X96317909Y-82468260D01*
X95899333Y-82385000D01*
X95616667Y-82385000D01*
X95198091Y-82468260D01*
X94723423Y-82785423D01*
X94515242Y-83096989D01*
X94368693Y-83126139D01*
X94186541Y-83247849D01*
X94186539Y-83247851D01*
X94125042Y-83288942D01*
X94083950Y-83350440D01*
X93715991Y-83718400D01*
X91558777Y-83718400D01*
X98264378Y-77012800D01*
X105311117Y-77012800D01*
X105345243Y-77184365D01*
G36*
X131826000Y-83058000D02*
X131846000Y-83058000D01*
X131846000Y-83312000D01*
X131826000Y-83312000D01*
X131826000Y-83332000D01*
X131572000Y-83332000D01*
X131572000Y-83312000D01*
X131552000Y-83312000D01*
X131552000Y-83058000D01*
X131572000Y-83058000D01*
X131572000Y-83038000D01*
X131826000Y-83038000D01*
X131826000Y-83058000D01*
X131826000Y-83058000D01*
G37*
X131826000Y-83058000D02*
X131846000Y-83058000D01*
X131846000Y-83312000D01*
X131826000Y-83312000D01*
X131826000Y-83332000D01*
X131572000Y-83332000D01*
X131572000Y-83312000D01*
X131552000Y-83312000D01*
X131552000Y-83058000D01*
X131572000Y-83058000D01*
X131572000Y-83038000D01*
X131826000Y-83038000D01*
X131826000Y-83058000D01*
G04 #@! TD*
M02*
