G04 #@! TF.GenerationSoftware,KiCad,Pcbnew,(5.0.0-3-g5ebb6b6)*
G04 #@! TF.CreationDate,2019-03-17T21:35:56+09:00*
G04 #@! TF.ProjectId,Z80-8251-PPI,5A38302D383235312D5050492E6B6963,rev?*
G04 #@! TF.SameCoordinates,Original*
G04 #@! TF.FileFunction,Soldermask,Top*
G04 #@! TF.FilePolarity,Negative*
%FSLAX46Y46*%
G04 Gerber Fmt 4.6, Leading zero omitted, Abs format (unit mm)*
G04 Created by KiCad (PCBNEW (5.0.0-3-g5ebb6b6)) date *
%MOMM*%
%LPD*%
G01*
G04 APERTURE LIST*
%ADD10R,2.100000X2.100000*%
%ADD11O,2.100000X2.100000*%
%ADD12C,3.600000*%
%ADD13C,1.900000*%
%ADD14R,1.900000X1.900000*%
%ADD15R,2.000000X2.000000*%
%ADD16O,2.000000X2.000000*%
%ADD17C,2.000000*%
%ADD18R,2.127200X2.127200*%
%ADD19O,2.127200X2.127200*%
%ADD20C,1.822400*%
G04 APERTURE END LIST*
D10*
G04 #@! TO.C,J8*
X176653000Y-92915000D03*
D11*
X176653000Y-95455000D03*
G04 #@! TD*
D10*
G04 #@! TO.C,J3*
X176653000Y-115855000D03*
D11*
X176653000Y-118395000D03*
X176653000Y-120935000D03*
X176653000Y-123475000D03*
X176653000Y-126015000D03*
G04 #@! TD*
G04 #@! TO.C,J5*
X83693000Y-79995000D03*
X86233000Y-79995000D03*
X83693000Y-82535000D03*
X86233000Y-82535000D03*
X83693000Y-85075000D03*
X86233000Y-85075000D03*
X83693000Y-87615000D03*
X86233000Y-87615000D03*
X83693000Y-90155000D03*
X86233000Y-90155000D03*
X83693000Y-92695000D03*
X86233000Y-92695000D03*
X83693000Y-95235000D03*
D10*
X86233000Y-95235000D03*
G04 #@! TD*
G04 #@! TO.C,J6*
X86233000Y-123825000D03*
D11*
X83693000Y-123825000D03*
X86233000Y-121285000D03*
X83693000Y-121285000D03*
X86233000Y-118745000D03*
X83693000Y-118745000D03*
X86233000Y-116205000D03*
X83693000Y-116205000D03*
X86233000Y-113665000D03*
X83693000Y-113665000D03*
X86233000Y-111125000D03*
X83693000Y-111125000D03*
X86233000Y-108585000D03*
X83693000Y-108585000D03*
G04 #@! TD*
D12*
G04 #@! TO.C,MH2*
X174823000Y-67215000D03*
G04 #@! TD*
G04 #@! TO.C,MH3*
X86753000Y-133225000D03*
G04 #@! TD*
G04 #@! TO.C,MH4*
X174793000Y-133265000D03*
G04 #@! TD*
G04 #@! TO.C,MH1*
X86715600Y-67208400D03*
G04 #@! TD*
D11*
G04 #@! TO.C,JP1*
X116815000Y-114275000D03*
X114275000Y-114275000D03*
D10*
X111735000Y-114275000D03*
G04 #@! TD*
G04 #@! TO.C,JP2*
X171450000Y-72771000D03*
D11*
X168910000Y-72771000D03*
X166370000Y-72771000D03*
G04 #@! TD*
D13*
G04 #@! TO.C,Q1*
X113483000Y-122905000D03*
X116023000Y-122905000D03*
D14*
X110943000Y-122905000D03*
G04 #@! TD*
D15*
G04 #@! TO.C,U3*
X91948000Y-80645000D03*
D16*
X107188000Y-128905000D03*
X91948000Y-83185000D03*
X107188000Y-126365000D03*
X91948000Y-85725000D03*
X107188000Y-123825000D03*
X91948000Y-88265000D03*
X107188000Y-121285000D03*
X91948000Y-90805000D03*
X107188000Y-118745000D03*
X91948000Y-93345000D03*
X107188000Y-116205000D03*
X91948000Y-95885000D03*
X107188000Y-113665000D03*
X91948000Y-98425000D03*
X107188000Y-111125000D03*
X91948000Y-100965000D03*
X107188000Y-108585000D03*
X91948000Y-103505000D03*
X107188000Y-106045000D03*
X91948000Y-106045000D03*
X107188000Y-103505000D03*
X91948000Y-108585000D03*
X107188000Y-100965000D03*
X91948000Y-111125000D03*
X107188000Y-98425000D03*
X91948000Y-113665000D03*
X107188000Y-95885000D03*
X91948000Y-116205000D03*
X107188000Y-93345000D03*
X91948000Y-118745000D03*
X107188000Y-90805000D03*
X91948000Y-121285000D03*
X107188000Y-88265000D03*
X91948000Y-123825000D03*
X107188000Y-85725000D03*
X91948000Y-126365000D03*
X107188000Y-83185000D03*
X91948000Y-128905000D03*
X107188000Y-80645000D03*
G04 #@! TD*
D17*
G04 #@! TO.C,C1*
X126893000Y-123915000D03*
X129393000Y-123915000D03*
G04 #@! TD*
G04 #@! TO.C,C2*
X119273000Y-123985000D03*
X121773000Y-123985000D03*
G04 #@! TD*
G04 #@! TO.C,C3*
X113443000Y-118105000D03*
X110943000Y-118105000D03*
G04 #@! TD*
G04 #@! TO.C,C4*
X131953000Y-81280000D03*
X129453000Y-81280000D03*
G04 #@! TD*
G04 #@! TO.C,C5*
X117388000Y-81280000D03*
X119888000Y-81280000D03*
G04 #@! TD*
G04 #@! TO.C,C6*
X135128000Y-80010000D03*
X135128000Y-82510000D03*
G04 #@! TD*
G04 #@! TO.C,C8*
X135043000Y-102365000D03*
X135043000Y-99865000D03*
G04 #@! TD*
G04 #@! TO.C,C9*
X133273000Y-118255000D03*
X133273000Y-120755000D03*
G04 #@! TD*
D10*
G04 #@! TO.C,J4*
X176809000Y-74041000D03*
D11*
X176809000Y-76581000D03*
X176809000Y-79121000D03*
X176809000Y-81661000D03*
X176809000Y-84201000D03*
X176809000Y-86741000D03*
G04 #@! TD*
G04 #@! TO.C,J2*
X119253000Y-107315000D03*
X119253000Y-109855000D03*
X116713000Y-107315000D03*
X116713000Y-109855000D03*
X114173000Y-107315000D03*
X114173000Y-109855000D03*
X111633000Y-107315000D03*
D10*
X111633000Y-109855000D03*
G04 #@! TD*
G04 #@! TO.C,J7*
X123698000Y-109855000D03*
D11*
X123698000Y-107315000D03*
X126238000Y-109855000D03*
X126238000Y-107315000D03*
X128778000Y-109855000D03*
X128778000Y-107315000D03*
X131318000Y-109855000D03*
X131318000Y-107315000D03*
G04 #@! TD*
D15*
G04 #@! TO.C,U1*
X111633000Y-84455000D03*
D16*
X119253000Y-102235000D03*
X111633000Y-86995000D03*
X119253000Y-99695000D03*
X111633000Y-89535000D03*
X119253000Y-97155000D03*
X111633000Y-92075000D03*
X119253000Y-94615000D03*
X111633000Y-94615000D03*
X119253000Y-92075000D03*
X111633000Y-97155000D03*
X119253000Y-89535000D03*
X111633000Y-99695000D03*
X119253000Y-86995000D03*
X111633000Y-102235000D03*
X119253000Y-84455000D03*
G04 #@! TD*
D15*
G04 #@! TO.C,U6*
X138354000Y-115037000D03*
D16*
X166294000Y-99797000D03*
X140894000Y-115037000D03*
X163754000Y-99797000D03*
X143434000Y-115037000D03*
X161214000Y-99797000D03*
X145974000Y-115037000D03*
X158674000Y-99797000D03*
X148514000Y-115037000D03*
X156134000Y-99797000D03*
X151054000Y-115037000D03*
X153594000Y-99797000D03*
X153594000Y-115037000D03*
X151054000Y-99797000D03*
X156134000Y-115037000D03*
X148514000Y-99797000D03*
X158674000Y-115037000D03*
X145974000Y-99797000D03*
X161214000Y-115037000D03*
X143434000Y-99797000D03*
X163754000Y-115037000D03*
X140894000Y-99797000D03*
X166294000Y-115037000D03*
X138354000Y-99797000D03*
G04 #@! TD*
G04 #@! TO.C,U2*
X138303000Y-80645000D03*
X171323000Y-95885000D03*
X140843000Y-80645000D03*
X168783000Y-95885000D03*
X143383000Y-80645000D03*
X166243000Y-95885000D03*
X145923000Y-80645000D03*
X163703000Y-95885000D03*
X148463000Y-80645000D03*
X161163000Y-95885000D03*
X151003000Y-80645000D03*
X158623000Y-95885000D03*
X153543000Y-80645000D03*
X156083000Y-95885000D03*
X156083000Y-80645000D03*
X153543000Y-95885000D03*
X158623000Y-80645000D03*
X151003000Y-95885000D03*
X161163000Y-80645000D03*
X148463000Y-95885000D03*
X163703000Y-80645000D03*
X145923000Y-95885000D03*
X166243000Y-80645000D03*
X143383000Y-95885000D03*
X168783000Y-80645000D03*
X140843000Y-95885000D03*
X171323000Y-80645000D03*
D15*
X138303000Y-95885000D03*
G04 #@! TD*
G04 #@! TO.C,U5*
X136613000Y-133935000D03*
D16*
X169633000Y-118695000D03*
X139153000Y-133935000D03*
X167093000Y-118695000D03*
X141693000Y-133935000D03*
X164553000Y-118695000D03*
X144233000Y-133935000D03*
X162013000Y-118695000D03*
X146773000Y-133935000D03*
X159473000Y-118695000D03*
X149313000Y-133935000D03*
X156933000Y-118695000D03*
X151853000Y-133935000D03*
X154393000Y-118695000D03*
X154393000Y-133935000D03*
X151853000Y-118695000D03*
X156933000Y-133935000D03*
X149313000Y-118695000D03*
X159473000Y-133935000D03*
X146773000Y-118695000D03*
X162013000Y-133935000D03*
X144233000Y-118695000D03*
X164553000Y-133935000D03*
X141693000Y-118695000D03*
X167093000Y-133935000D03*
X139153000Y-118695000D03*
X169633000Y-133935000D03*
X136613000Y-118695000D03*
G04 #@! TD*
G04 #@! TO.C,R1*
X129403000Y-120495000D03*
D17*
X119243000Y-120495000D03*
G04 #@! TD*
G04 #@! TO.C,R4*
X170345000Y-110019000D03*
D16*
X170345000Y-99859000D03*
G04 #@! TD*
G04 #@! TO.C,R5*
X173951000Y-99859000D03*
D17*
X173951000Y-110019000D03*
G04 #@! TD*
G04 #@! TO.C,R6*
X177253000Y-110019000D03*
D16*
X177253000Y-99859000D03*
G04 #@! TD*
D18*
G04 #@! TO.C,J1*
X106807000Y-76073000D03*
D19*
X106807000Y-73533000D03*
X109347000Y-76073000D03*
X109347000Y-73533000D03*
X111887000Y-76073000D03*
X111887000Y-73533000D03*
X114427000Y-76073000D03*
X114427000Y-73533000D03*
X116967000Y-76073000D03*
X116967000Y-73533000D03*
X119507000Y-76073000D03*
X119507000Y-73533000D03*
X122047000Y-76073000D03*
X122047000Y-73533000D03*
X124587000Y-76073000D03*
X124587000Y-73533000D03*
X127127000Y-76073000D03*
X127127000Y-73533000D03*
X129667000Y-76073000D03*
X129667000Y-73533000D03*
X132207000Y-76073000D03*
X132207000Y-73533000D03*
X134747000Y-76073000D03*
X134747000Y-73533000D03*
X137287000Y-76073000D03*
X137287000Y-73533000D03*
X139827000Y-76073000D03*
X139827000Y-73533000D03*
X142367000Y-76073000D03*
X142367000Y-73533000D03*
X144907000Y-76073000D03*
X144907000Y-73533000D03*
X147447000Y-76073000D03*
X147447000Y-73533000D03*
X149987000Y-76073000D03*
X149987000Y-73533000D03*
X152527000Y-76073000D03*
X152527000Y-73533000D03*
X155067000Y-76073000D03*
X155067000Y-73533000D03*
G04 #@! TD*
D15*
G04 #@! TO.C,U4*
X123698000Y-84455000D03*
D16*
X131318000Y-102235000D03*
X123698000Y-86995000D03*
X131318000Y-99695000D03*
X123698000Y-89535000D03*
X131318000Y-97155000D03*
X123698000Y-92075000D03*
X131318000Y-94615000D03*
X123698000Y-94615000D03*
X131318000Y-92075000D03*
X123698000Y-97155000D03*
X131318000Y-89535000D03*
X123698000Y-99695000D03*
X131318000Y-86995000D03*
X123698000Y-102235000D03*
X131318000Y-84455000D03*
G04 #@! TD*
D20*
G04 #@! TO.C,Y1*
X123563000Y-115145000D03*
X128643000Y-115145000D03*
G04 #@! TD*
D17*
G04 #@! TO.C,R2*
X111100000Y-128676000D03*
D16*
X121260000Y-128676000D03*
G04 #@! TD*
G04 #@! TO.C,R3*
X111100000Y-132486000D03*
D17*
X121260000Y-132486000D03*
G04 #@! TD*
D15*
G04 #@! TO.C,C7*
X98552000Y-73025000D03*
D17*
X96052000Y-73025000D03*
G04 #@! TD*
M02*
