G04 #@! TF.GenerationSoftware,KiCad,Pcbnew,(5.0.0-3-g5ebb6b6)*
G04 #@! TF.CreationDate,2018-10-07T19:48:24+09:00*
G04 #@! TF.ProjectId,Z80-8251-PPI,5A38302D383235312D5050492E6B6963,rev?*
G04 #@! TF.SameCoordinates,Original*
G04 #@! TF.FileFunction,Copper,L2,Bot,Signal*
G04 #@! TF.FilePolarity,Positive*
%FSLAX46Y46*%
G04 Gerber Fmt 4.6, Leading zero omitted, Abs format (unit mm)*
G04 Created by KiCad (PCBNEW (5.0.0-3-g5ebb6b6)) date *
%MOMM*%
%LPD*%
G01*
G04 APERTURE LIST*
G04 #@! TA.AperFunction,ComponentPad*
%ADD10O,1.727200X2.032000*%
G04 #@! TD*
G04 #@! TA.AperFunction,ComponentPad*
%ADD11C,1.600000*%
G04 #@! TD*
G04 #@! TA.AperFunction,ComponentPad*
%ADD12R,1.727200X1.727200*%
G04 #@! TD*
G04 #@! TA.AperFunction,ComponentPad*
%ADD13O,1.727200X1.727200*%
G04 #@! TD*
G04 #@! TA.AperFunction,ComponentPad*
%ADD14R,2.032000X1.727200*%
G04 #@! TD*
G04 #@! TA.AperFunction,ComponentPad*
%ADD15O,2.032000X1.727200*%
G04 #@! TD*
G04 #@! TA.AperFunction,ComponentPad*
%ADD16R,1.700000X1.700000*%
G04 #@! TD*
G04 #@! TA.AperFunction,ComponentPad*
%ADD17O,1.700000X1.700000*%
G04 #@! TD*
G04 #@! TA.AperFunction,ComponentPad*
%ADD18C,4.064000*%
G04 #@! TD*
G04 #@! TA.AperFunction,ComponentPad*
%ADD19O,1.600000X1.600000*%
G04 #@! TD*
G04 #@! TA.AperFunction,ComponentPad*
%ADD20R,1.600000X1.600000*%
G04 #@! TD*
G04 #@! TA.AperFunction,ComponentPad*
%ADD21C,1.422400*%
G04 #@! TD*
G04 #@! TA.AperFunction,ComponentPad*
%ADD22O,1.050000X1.500000*%
G04 #@! TD*
G04 #@! TA.AperFunction,ComponentPad*
%ADD23R,1.050000X1.500000*%
G04 #@! TD*
G04 #@! TA.AperFunction,ViaPad*
%ADD24C,0.889000*%
G04 #@! TD*
G04 #@! TA.AperFunction,Conductor*
%ADD25C,0.609600*%
G04 #@! TD*
G04 #@! TA.AperFunction,Conductor*
%ADD26C,0.203200*%
G04 #@! TD*
G04 #@! TA.AperFunction,Conductor*
%ADD27C,0.254000*%
G04 #@! TD*
G04 APERTURE END LIST*
D10*
G04 #@! TO.P,P1,1*
G04 #@! TO.N,Net-(P1-Pad1)*
X133223000Y-131445000D03*
G04 #@! TO.P,P1,2*
G04 #@! TO.N,Net-(P1-Pad2)*
X135763000Y-131445000D03*
G04 #@! TO.P,P1,3*
G04 #@! TO.N,Net-(P1-Pad3)*
X138303000Y-131445000D03*
G04 #@! TO.P,P1,4*
G04 #@! TO.N,Net-(P1-Pad4)*
X140843000Y-131445000D03*
G04 #@! TO.P,P1,5*
G04 #@! TO.N,VCC*
X143383000Y-131445000D03*
G04 #@! TO.P,P1,6*
G04 #@! TO.N,GND*
X145923000Y-131445000D03*
G04 #@! TO.P,P1,7*
X148463000Y-131445000D03*
G04 #@! TO.P,P1,8*
G04 #@! TO.N,Net-(P1-Pad8)*
X151003000Y-131445000D03*
G04 #@! TD*
G04 #@! TO.P,P2,1*
G04 #@! TO.N,~CE*
X156083000Y-131445000D03*
G04 #@! TO.P,P2,2*
G04 #@! TO.N,A1*
X158623000Y-131445000D03*
G04 #@! TO.P,P2,3*
G04 #@! TO.N,A2*
X161163000Y-131445000D03*
G04 #@! TO.P,P2,4*
G04 #@! TO.N,A3*
X163703000Y-131445000D03*
G04 #@! TO.P,P2,5*
G04 #@! TO.N,A4*
X166243000Y-131445000D03*
G04 #@! TO.P,P2,6*
G04 #@! TO.N,A5*
X168783000Y-131445000D03*
G04 #@! TD*
G04 #@! TO.P,P3,1*
G04 #@! TO.N,Net-(P3-Pad1)*
X124079000Y-83185000D03*
G04 #@! TO.P,P3,2*
G04 #@! TO.N,Net-(P3-Pad2)*
X126619000Y-83185000D03*
G04 #@! TO.P,P3,3*
G04 #@! TO.N,Net-(P3-Pad3)*
X129159000Y-83185000D03*
G04 #@! TO.P,P3,4*
G04 #@! TO.N,GND*
X131699000Y-83185000D03*
G04 #@! TO.P,P3,5*
G04 #@! TO.N,/~RESIN*
X134239000Y-83185000D03*
G04 #@! TO.P,P3,6*
G04 #@! TO.N,A0*
X136779000Y-83185000D03*
G04 #@! TO.P,P3,7*
G04 #@! TO.N,~IOW*
X139319000Y-83185000D03*
G04 #@! TO.P,P3,8*
G04 #@! TO.N,~IOR*
X141859000Y-83185000D03*
G04 #@! TO.P,P3,9*
G04 #@! TO.N,D7*
X144399000Y-83185000D03*
G04 #@! TO.P,P3,10*
G04 #@! TO.N,D6*
X146939000Y-83185000D03*
G04 #@! TD*
G04 #@! TO.P,P4,1*
G04 #@! TO.N,D5*
X151003000Y-83185000D03*
G04 #@! TO.P,P4,2*
G04 #@! TO.N,D4*
X153543000Y-83185000D03*
G04 #@! TO.P,P4,3*
G04 #@! TO.N,D3*
X156083000Y-83185000D03*
G04 #@! TO.P,P4,4*
G04 #@! TO.N,D2*
X158623000Y-83185000D03*
G04 #@! TO.P,P4,5*
G04 #@! TO.N,D1*
X161163000Y-83185000D03*
G04 #@! TO.P,P4,6*
G04 #@! TO.N,D0*
X163703000Y-83185000D03*
G04 #@! TO.P,P4,7*
G04 #@! TO.N,Net-(P4-Pad7)*
X166243000Y-83185000D03*
G04 #@! TO.P,P4,8*
G04 #@! TO.N,Net-(P4-Pad8)*
X168783000Y-83185000D03*
G04 #@! TD*
D11*
G04 #@! TO.P,C1,1*
G04 #@! TO.N,Net-(C1-Pad1)*
X144653000Y-123190000D03*
G04 #@! TO.P,C1,2*
G04 #@! TO.N,GND*
X147153000Y-123190000D03*
G04 #@! TD*
G04 #@! TO.P,C2,1*
G04 #@! TO.N,Net-(C2-Pad1)*
X144653000Y-116205000D03*
G04 #@! TO.P,C2,2*
G04 #@! TO.N,GND*
X147153000Y-116205000D03*
G04 #@! TD*
G04 #@! TO.P,C3,1*
G04 #@! TO.N,VCC*
X113538000Y-116840000D03*
G04 #@! TO.P,C3,2*
G04 #@! TO.N,GND*
X116038000Y-116840000D03*
G04 #@! TD*
G04 #@! TO.P,C4,1*
G04 #@! TO.N,VCC*
X124333000Y-112395000D03*
G04 #@! TO.P,C4,2*
G04 #@! TO.N,GND*
X121833000Y-112395000D03*
G04 #@! TD*
G04 #@! TO.P,C5,1*
G04 #@! TO.N,VCC*
X124333000Y-89535000D03*
G04 #@! TO.P,C5,2*
G04 #@! TO.N,GND*
X121833000Y-89535000D03*
G04 #@! TD*
G04 #@! TO.P,C6,1*
G04 #@! TO.N,VCC*
X169291000Y-88011000D03*
G04 #@! TO.P,C6,2*
G04 #@! TO.N,GND*
X166791000Y-88011000D03*
G04 #@! TD*
D12*
G04 #@! TO.P,J1,1*
G04 #@! TO.N,VCC*
X106807000Y-76073000D03*
D13*
G04 #@! TO.P,J1,2*
G04 #@! TO.N,GND*
X106807000Y-73533000D03*
G04 #@! TO.P,J1,3*
G04 #@! TO.N,VCC*
X109347000Y-76073000D03*
G04 #@! TO.P,J1,4*
G04 #@! TO.N,GND*
X109347000Y-73533000D03*
G04 #@! TO.P,J1,5*
G04 #@! TO.N,Net-(J1-Pad5)*
X111887000Y-76073000D03*
G04 #@! TO.P,J1,6*
G04 #@! TO.N,Net-(J1-Pad6)*
X111887000Y-73533000D03*
G04 #@! TO.P,J1,7*
G04 #@! TO.N,Net-(J1-Pad7)*
X114427000Y-76073000D03*
G04 #@! TO.P,J1,8*
G04 #@! TO.N,CLK*
X114427000Y-73533000D03*
G04 #@! TO.P,J1,9*
G04 #@! TO.N,D0*
X116967000Y-76073000D03*
G04 #@! TO.P,J1,10*
G04 #@! TO.N,D1*
X116967000Y-73533000D03*
G04 #@! TO.P,J1,11*
G04 #@! TO.N,D2*
X119507000Y-76073000D03*
G04 #@! TO.P,J1,12*
G04 #@! TO.N,D3*
X119507000Y-73533000D03*
G04 #@! TO.P,J1,13*
G04 #@! TO.N,D4*
X122047000Y-76073000D03*
G04 #@! TO.P,J1,14*
G04 #@! TO.N,D5*
X122047000Y-73533000D03*
G04 #@! TO.P,J1,15*
G04 #@! TO.N,D6*
X124587000Y-76073000D03*
G04 #@! TO.P,J1,16*
G04 #@! TO.N,D7*
X124587000Y-73533000D03*
G04 #@! TO.P,J1,17*
G04 #@! TO.N,~IOR*
X127127000Y-76073000D03*
G04 #@! TO.P,J1,18*
G04 #@! TO.N,Net-(J1-Pad18)*
X127127000Y-73533000D03*
G04 #@! TO.P,J1,19*
G04 #@! TO.N,~IOW*
X129667000Y-76073000D03*
G04 #@! TO.P,J1,20*
G04 #@! TO.N,Net-(J1-Pad20)*
X129667000Y-73533000D03*
G04 #@! TO.P,J1,21*
G04 #@! TO.N,RES*
X132207000Y-76073000D03*
G04 #@! TO.P,J1,22*
G04 #@! TO.N,Net-(J1-Pad22)*
X132207000Y-73533000D03*
G04 #@! TO.P,J1,23*
G04 #@! TO.N,INT*
X134747000Y-76073000D03*
G04 #@! TO.P,J1,24*
G04 #@! TO.N,Net-(J1-Pad24)*
X134747000Y-73533000D03*
G04 #@! TO.P,J1,25*
G04 #@! TO.N,A0*
X137287000Y-76073000D03*
G04 #@! TO.P,J1,26*
G04 #@! TO.N,A1*
X137287000Y-73533000D03*
G04 #@! TO.P,J1,27*
G04 #@! TO.N,A2*
X139827000Y-76073000D03*
G04 #@! TO.P,J1,28*
G04 #@! TO.N,A3*
X139827000Y-73533000D03*
G04 #@! TO.P,J1,29*
G04 #@! TO.N,A4*
X142367000Y-76073000D03*
G04 #@! TO.P,J1,30*
G04 #@! TO.N,A5*
X142367000Y-73533000D03*
G04 #@! TO.P,J1,31*
G04 #@! TO.N,A6*
X144907000Y-76073000D03*
G04 #@! TO.P,J1,32*
G04 #@! TO.N,A7*
X144907000Y-73533000D03*
G04 #@! TO.P,J1,33*
G04 #@! TO.N,Net-(J1-Pad33)*
X147447000Y-76073000D03*
G04 #@! TO.P,J1,34*
G04 #@! TO.N,Net-(J1-Pad34)*
X147447000Y-73533000D03*
G04 #@! TO.P,J1,35*
G04 #@! TO.N,Net-(J1-Pad35)*
X149987000Y-76073000D03*
G04 #@! TO.P,J1,36*
G04 #@! TO.N,Net-(J1-Pad36)*
X149987000Y-73533000D03*
G04 #@! TO.P,J1,37*
G04 #@! TO.N,Net-(J1-Pad37)*
X152527000Y-76073000D03*
G04 #@! TO.P,J1,38*
G04 #@! TO.N,Net-(J1-Pad38)*
X152527000Y-73533000D03*
G04 #@! TO.P,J1,39*
G04 #@! TO.N,Net-(J1-Pad39)*
X155067000Y-76073000D03*
G04 #@! TO.P,J1,40*
G04 #@! TO.N,Net-(J1-Pad40)*
X155067000Y-73533000D03*
G04 #@! TD*
D12*
G04 #@! TO.P,J2,1*
G04 #@! TO.N,Net-(J2-Pad1)*
X148463000Y-92710000D03*
D13*
G04 #@! TO.P,J2,2*
G04 #@! TO.N,Net-(J2-Pad10)*
X151003000Y-92710000D03*
G04 #@! TO.P,J2,3*
G04 #@! TO.N,Net-(J2-Pad3)*
X148463000Y-95250000D03*
G04 #@! TO.P,J2,4*
G04 #@! TO.N,Net-(J2-Pad10)*
X151003000Y-95250000D03*
G04 #@! TO.P,J2,5*
G04 #@! TO.N,Net-(J2-Pad5)*
X148463000Y-97790000D03*
G04 #@! TO.P,J2,6*
G04 #@! TO.N,Net-(J2-Pad10)*
X151003000Y-97790000D03*
G04 #@! TO.P,J2,7*
G04 #@! TO.N,Net-(J2-Pad7)*
X148463000Y-100330000D03*
G04 #@! TO.P,J2,8*
G04 #@! TO.N,Net-(J2-Pad10)*
X151003000Y-100330000D03*
G04 #@! TO.P,J2,9*
G04 #@! TO.N,Net-(J2-Pad9)*
X148463000Y-102870000D03*
G04 #@! TO.P,J2,10*
G04 #@! TO.N,Net-(J2-Pad10)*
X151003000Y-102870000D03*
G04 #@! TO.P,J2,11*
G04 #@! TO.N,Net-(J2-Pad11)*
X148463000Y-105410000D03*
G04 #@! TO.P,J2,12*
G04 #@! TO.N,Net-(J2-Pad10)*
X151003000Y-105410000D03*
G04 #@! TO.P,J2,13*
G04 #@! TO.N,Net-(J2-Pad13)*
X148463000Y-107950000D03*
G04 #@! TO.P,J2,14*
G04 #@! TO.N,Net-(J2-Pad10)*
X151003000Y-107950000D03*
G04 #@! TO.P,J2,15*
G04 #@! TO.N,Net-(J2-Pad15)*
X148463000Y-110490000D03*
G04 #@! TO.P,J2,16*
G04 #@! TO.N,Net-(J2-Pad10)*
X151003000Y-110490000D03*
G04 #@! TD*
D12*
G04 #@! TO.P,J3,1*
G04 #@! TO.N,Net-(J2-Pad1)*
X133223000Y-92710000D03*
D13*
G04 #@! TO.P,J3,2*
G04 #@! TO.N,Net-(J3-Pad10)*
X135763000Y-92710000D03*
G04 #@! TO.P,J3,3*
G04 #@! TO.N,Net-(J2-Pad3)*
X133223000Y-95250000D03*
G04 #@! TO.P,J3,4*
G04 #@! TO.N,Net-(J3-Pad10)*
X135763000Y-95250000D03*
G04 #@! TO.P,J3,5*
G04 #@! TO.N,Net-(J2-Pad5)*
X133223000Y-97790000D03*
G04 #@! TO.P,J3,6*
G04 #@! TO.N,Net-(J3-Pad10)*
X135763000Y-97790000D03*
G04 #@! TO.P,J3,7*
G04 #@! TO.N,Net-(J2-Pad7)*
X133223000Y-100330000D03*
G04 #@! TO.P,J3,8*
G04 #@! TO.N,Net-(J3-Pad10)*
X135763000Y-100330000D03*
G04 #@! TO.P,J3,9*
G04 #@! TO.N,Net-(J2-Pad9)*
X133223000Y-102870000D03*
G04 #@! TO.P,J3,10*
G04 #@! TO.N,Net-(J3-Pad10)*
X135763000Y-102870000D03*
G04 #@! TO.P,J3,11*
G04 #@! TO.N,Net-(J2-Pad11)*
X133223000Y-105410000D03*
G04 #@! TO.P,J3,12*
G04 #@! TO.N,Net-(J3-Pad10)*
X135763000Y-105410000D03*
G04 #@! TO.P,J3,13*
G04 #@! TO.N,Net-(J2-Pad13)*
X133223000Y-107950000D03*
G04 #@! TO.P,J3,14*
G04 #@! TO.N,Net-(J3-Pad10)*
X135763000Y-107950000D03*
G04 #@! TO.P,J3,15*
G04 #@! TO.N,Net-(J2-Pad15)*
X133223000Y-110490000D03*
G04 #@! TO.P,J3,16*
G04 #@! TO.N,Net-(J3-Pad10)*
X135763000Y-110490000D03*
G04 #@! TD*
D14*
G04 #@! TO.P,J4,1*
G04 #@! TO.N,GND*
X177038000Y-90805000D03*
D15*
G04 #@! TO.P,J4,2*
G04 #@! TO.N,Net-(J4-Pad2)*
X177038000Y-93345000D03*
G04 #@! TO.P,J4,3*
G04 #@! TO.N,Net-(J4-Pad3)*
X177038000Y-95885000D03*
G04 #@! TO.P,J4,4*
G04 #@! TO.N,Net-(J4-Pad4)*
X177038000Y-98425000D03*
G04 #@! TO.P,J4,5*
G04 #@! TO.N,Net-(J4-Pad5)*
X177038000Y-100965000D03*
G04 #@! TO.P,J4,6*
G04 #@! TO.N,Net-(J4-Pad6)*
X177038000Y-103505000D03*
G04 #@! TD*
D16*
G04 #@! TO.P,J5,1*
G04 #@! TO.N,PA0*
X89408000Y-98425000D03*
D17*
G04 #@! TO.P,J5,2*
G04 #@! TO.N,PA1*
X86868000Y-98425000D03*
G04 #@! TO.P,J5,3*
G04 #@! TO.N,PA2*
X89408000Y-95885000D03*
G04 #@! TO.P,J5,4*
G04 #@! TO.N,PA3*
X86868000Y-95885000D03*
G04 #@! TO.P,J5,5*
G04 #@! TO.N,PA4*
X89408000Y-93345000D03*
G04 #@! TO.P,J5,6*
G04 #@! TO.N,PA5*
X86868000Y-93345000D03*
G04 #@! TO.P,J5,7*
G04 #@! TO.N,PA6*
X89408000Y-90805000D03*
G04 #@! TO.P,J5,8*
G04 #@! TO.N,PA7*
X86868000Y-90805000D03*
G04 #@! TO.P,J5,9*
G04 #@! TO.N,PC0*
X89408000Y-88265000D03*
G04 #@! TO.P,J5,10*
G04 #@! TO.N,PC1*
X86868000Y-88265000D03*
G04 #@! TO.P,J5,11*
G04 #@! TO.N,PC2*
X89408000Y-85725000D03*
G04 #@! TO.P,J5,12*
G04 #@! TO.N,PC3*
X86868000Y-85725000D03*
G04 #@! TO.P,J5,13*
G04 #@! TO.N,VCC*
X89408000Y-83185000D03*
G04 #@! TO.P,J5,14*
G04 #@! TO.N,GND*
X86868000Y-83185000D03*
G04 #@! TD*
D16*
G04 #@! TO.P,J6,1*
G04 #@! TO.N,PB0*
X89408000Y-122555000D03*
D17*
G04 #@! TO.P,J6,2*
G04 #@! TO.N,PB1*
X86868000Y-122555000D03*
G04 #@! TO.P,J6,3*
G04 #@! TO.N,PB2*
X89408000Y-120015000D03*
G04 #@! TO.P,J6,4*
G04 #@! TO.N,PB3*
X86868000Y-120015000D03*
G04 #@! TO.P,J6,5*
G04 #@! TO.N,PB4*
X89408000Y-117475000D03*
G04 #@! TO.P,J6,6*
G04 #@! TO.N,PB5*
X86868000Y-117475000D03*
G04 #@! TO.P,J6,7*
G04 #@! TO.N,PB6*
X89408000Y-114935000D03*
G04 #@! TO.P,J6,8*
G04 #@! TO.N,PB7*
X86868000Y-114935000D03*
G04 #@! TO.P,J6,9*
G04 #@! TO.N,PC4*
X89408000Y-112395000D03*
G04 #@! TO.P,J6,10*
G04 #@! TO.N,PC5*
X86868000Y-112395000D03*
G04 #@! TO.P,J6,11*
G04 #@! TO.N,PC6*
X89408000Y-109855000D03*
G04 #@! TO.P,J6,12*
G04 #@! TO.N,PC7*
X86868000Y-109855000D03*
G04 #@! TO.P,J6,13*
G04 #@! TO.N,VCC*
X89408000Y-107315000D03*
G04 #@! TO.P,J6,14*
G04 #@! TO.N,GND*
X86868000Y-107315000D03*
G04 #@! TD*
D12*
G04 #@! TO.P,J7,1*
G04 #@! TO.N,Net-(J2-Pad1)*
X140843000Y-92710000D03*
D13*
G04 #@! TO.P,J7,2*
G04 #@! TO.N,~CE*
X143383000Y-92710000D03*
G04 #@! TO.P,J7,3*
G04 #@! TO.N,Net-(J2-Pad3)*
X140843000Y-95250000D03*
G04 #@! TO.P,J7,4*
G04 #@! TO.N,~CE*
X143383000Y-95250000D03*
G04 #@! TO.P,J7,5*
G04 #@! TO.N,Net-(J2-Pad5)*
X140843000Y-97790000D03*
G04 #@! TO.P,J7,6*
G04 #@! TO.N,~CE*
X143383000Y-97790000D03*
G04 #@! TO.P,J7,7*
G04 #@! TO.N,Net-(J2-Pad7)*
X140843000Y-100330000D03*
G04 #@! TO.P,J7,8*
G04 #@! TO.N,~CE*
X143383000Y-100330000D03*
G04 #@! TO.P,J7,9*
G04 #@! TO.N,Net-(J2-Pad9)*
X140843000Y-102870000D03*
G04 #@! TO.P,J7,10*
G04 #@! TO.N,~CE*
X143383000Y-102870000D03*
G04 #@! TO.P,J7,11*
G04 #@! TO.N,Net-(J2-Pad11)*
X140843000Y-105410000D03*
G04 #@! TO.P,J7,12*
G04 #@! TO.N,~CE*
X143383000Y-105410000D03*
G04 #@! TO.P,J7,13*
G04 #@! TO.N,Net-(J2-Pad13)*
X140843000Y-107950000D03*
G04 #@! TO.P,J7,14*
G04 #@! TO.N,~CE*
X143383000Y-107950000D03*
G04 #@! TO.P,J7,15*
G04 #@! TO.N,Net-(J2-Pad15)*
X140843000Y-110490000D03*
G04 #@! TO.P,J7,16*
G04 #@! TO.N,~CE*
X143383000Y-110490000D03*
G04 #@! TD*
D18*
G04 #@! TO.P,P5,1*
G04 #@! TO.N,Net-(P5-Pad1)*
X86523000Y-67285000D03*
G04 #@! TD*
G04 #@! TO.P,P6,1*
G04 #@! TO.N,Net-(P6-Pad1)*
X175523000Y-67285000D03*
G04 #@! TD*
G04 #@! TO.P,P7,1*
G04 #@! TO.N,Net-(P7-Pad1)*
X86513000Y-133285000D03*
G04 #@! TD*
G04 #@! TO.P,P8,1*
G04 #@! TO.N,Net-(P8-Pad1)*
X175533000Y-133315000D03*
G04 #@! TD*
D11*
G04 #@! TO.P,R1,1*
G04 #@! TO.N,Net-(C2-Pad1)*
X139573000Y-115570000D03*
D19*
G04 #@! TO.P,R1,2*
G04 #@! TO.N,Net-(C1-Pad1)*
X139573000Y-125730000D03*
G04 #@! TD*
D20*
G04 #@! TO.P,U1,1*
G04 #@! TO.N,A5*
X118618000Y-92075000D03*
D19*
G04 #@! TO.P,U1,9*
G04 #@! TO.N,Net-(J2-Pad13)*
X126238000Y-109855000D03*
G04 #@! TO.P,U1,2*
G04 #@! TO.N,A6*
X118618000Y-94615000D03*
G04 #@! TO.P,U1,10*
G04 #@! TO.N,Net-(J2-Pad11)*
X126238000Y-107315000D03*
G04 #@! TO.P,U1,3*
G04 #@! TO.N,A7*
X118618000Y-97155000D03*
G04 #@! TO.P,U1,11*
G04 #@! TO.N,Net-(J2-Pad9)*
X126238000Y-104775000D03*
G04 #@! TO.P,U1,4*
G04 #@! TO.N,GND*
X118618000Y-99695000D03*
G04 #@! TO.P,U1,12*
G04 #@! TO.N,Net-(J2-Pad7)*
X126238000Y-102235000D03*
G04 #@! TO.P,U1,5*
G04 #@! TO.N,GND*
X118618000Y-102235000D03*
G04 #@! TO.P,U1,13*
G04 #@! TO.N,Net-(J2-Pad5)*
X126238000Y-99695000D03*
G04 #@! TO.P,U1,6*
G04 #@! TO.N,VCC*
X118618000Y-104775000D03*
G04 #@! TO.P,U1,14*
G04 #@! TO.N,Net-(J2-Pad3)*
X126238000Y-97155000D03*
G04 #@! TO.P,U1,7*
G04 #@! TO.N,Net-(J2-Pad15)*
X118618000Y-107315000D03*
G04 #@! TO.P,U1,15*
G04 #@! TO.N,Net-(J2-Pad1)*
X126238000Y-94615000D03*
G04 #@! TO.P,U1,8*
G04 #@! TO.N,GND*
X118618000Y-109855000D03*
G04 #@! TO.P,U1,16*
G04 #@! TO.N,VCC*
X126238000Y-92075000D03*
G04 #@! TD*
D20*
G04 #@! TO.P,U2,1*
G04 #@! TO.N,D2*
X156083000Y-90805000D03*
D19*
G04 #@! TO.P,U2,15*
G04 #@! TO.N,Net-(U2-Pad15)*
X171323000Y-123825000D03*
G04 #@! TO.P,U2,2*
G04 #@! TO.N,D3*
X156083000Y-93345000D03*
G04 #@! TO.P,U2,16*
G04 #@! TO.N,Net-(U2-Pad16)*
X171323000Y-121285000D03*
G04 #@! TO.P,U2,3*
G04 #@! TO.N,Net-(J4-Pad4)*
X156083000Y-95885000D03*
G04 #@! TO.P,U2,17*
G04 #@! TO.N,Net-(J4-Pad6)*
X171323000Y-118745000D03*
G04 #@! TO.P,U2,4*
G04 #@! TO.N,GND*
X156083000Y-98425000D03*
G04 #@! TO.P,U2,18*
G04 #@! TO.N,Net-(U2-Pad18)*
X171323000Y-116205000D03*
G04 #@! TO.P,U2,5*
G04 #@! TO.N,D4*
X156083000Y-100965000D03*
G04 #@! TO.P,U2,19*
G04 #@! TO.N,Net-(J4-Pad5)*
X171323000Y-113665000D03*
G04 #@! TO.P,U2,6*
G04 #@! TO.N,D5*
X156083000Y-103505000D03*
G04 #@! TO.P,U2,20*
G04 #@! TO.N,CLK*
X171323000Y-111125000D03*
G04 #@! TO.P,U2,7*
G04 #@! TO.N,D6*
X156083000Y-106045000D03*
G04 #@! TO.P,U2,21*
G04 #@! TO.N,RES*
X171323000Y-108585000D03*
G04 #@! TO.P,U2,8*
G04 #@! TO.N,D7*
X156083000Y-108585000D03*
G04 #@! TO.P,U2,22*
G04 #@! TO.N,Net-(U2-Pad22)*
X171323000Y-106045000D03*
G04 #@! TO.P,U2,9*
G04 #@! TO.N,Net-(U2-Pad25)*
X156083000Y-111125000D03*
G04 #@! TO.P,U2,23*
G04 #@! TO.N,Net-(J4-Pad2)*
X171323000Y-103505000D03*
G04 #@! TO.P,U2,10*
G04 #@! TO.N,~IOW*
X156083000Y-113665000D03*
G04 #@! TO.P,U2,24*
G04 #@! TO.N,Net-(U2-Pad22)*
X171323000Y-100965000D03*
G04 #@! TO.P,U2,11*
G04 #@! TO.N,Net-(J2-Pad10)*
X156083000Y-116205000D03*
G04 #@! TO.P,U2,25*
G04 #@! TO.N,Net-(U2-Pad25)*
X171323000Y-98425000D03*
G04 #@! TO.P,U2,12*
G04 #@! TO.N,A0*
X156083000Y-118745000D03*
G04 #@! TO.P,U2,26*
G04 #@! TO.N,VCC*
X171323000Y-95885000D03*
G04 #@! TO.P,U2,13*
G04 #@! TO.N,~IOR*
X156083000Y-121285000D03*
G04 #@! TO.P,U2,27*
G04 #@! TO.N,D0*
X171323000Y-93345000D03*
G04 #@! TO.P,U2,14*
G04 #@! TO.N,INT*
X156083000Y-123825000D03*
G04 #@! TO.P,U2,28*
G04 #@! TO.N,D1*
X171323000Y-90805000D03*
G04 #@! TD*
G04 #@! TO.P,U3,1*
G04 #@! TO.N,PA3*
X95758000Y-83820000D03*
G04 #@! TO.P,U3,2*
G04 #@! TO.N,PA2*
X95758000Y-86360000D03*
G04 #@! TO.P,U3,3*
G04 #@! TO.N,PA1*
X95758000Y-88900000D03*
G04 #@! TO.P,U3,4*
G04 #@! TO.N,PA0*
X95758000Y-91440000D03*
G04 #@! TO.P,U3,5*
G04 #@! TO.N,~IOR*
X95758000Y-93980000D03*
G04 #@! TO.P,U3,6*
G04 #@! TO.N,Net-(J3-Pad10)*
X95758000Y-96520000D03*
G04 #@! TO.P,U3,7*
G04 #@! TO.N,GND*
X95758000Y-99060000D03*
G04 #@! TO.P,U3,8*
G04 #@! TO.N,A1*
X95758000Y-101600000D03*
G04 #@! TO.P,U3,9*
G04 #@! TO.N,A0*
X95758000Y-104140000D03*
G04 #@! TO.P,U3,10*
G04 #@! TO.N,PC7*
X95758000Y-106680000D03*
G04 #@! TO.P,U3,11*
G04 #@! TO.N,PC6*
X95758000Y-109220000D03*
G04 #@! TO.P,U3,12*
G04 #@! TO.N,PC5*
X95758000Y-111760000D03*
G04 #@! TO.P,U3,13*
G04 #@! TO.N,PC4*
X95758000Y-114300000D03*
G04 #@! TO.P,U3,14*
G04 #@! TO.N,PC0*
X95758000Y-116840000D03*
G04 #@! TO.P,U3,15*
G04 #@! TO.N,PC1*
X95758000Y-119380000D03*
G04 #@! TO.P,U3,16*
G04 #@! TO.N,PC2*
X95758000Y-121920000D03*
G04 #@! TO.P,U3,17*
G04 #@! TO.N,PC3*
X95758000Y-124460000D03*
G04 #@! TO.P,U3,18*
G04 #@! TO.N,PB0*
X95758000Y-127000000D03*
G04 #@! TO.P,U3,19*
G04 #@! TO.N,PB1*
X95758000Y-129540000D03*
G04 #@! TO.P,U3,20*
G04 #@! TO.N,PB2*
X95758000Y-132080000D03*
G04 #@! TO.P,U3,21*
G04 #@! TO.N,PB3*
X110998000Y-132080000D03*
G04 #@! TO.P,U3,22*
G04 #@! TO.N,PB4*
X110998000Y-129540000D03*
G04 #@! TO.P,U3,23*
G04 #@! TO.N,PB5*
X110998000Y-127000000D03*
G04 #@! TO.P,U3,24*
G04 #@! TO.N,PB6*
X110998000Y-124460000D03*
G04 #@! TO.P,U3,25*
G04 #@! TO.N,PB7*
X110998000Y-121920000D03*
G04 #@! TO.P,U3,26*
G04 #@! TO.N,VCC*
X110998000Y-119380000D03*
G04 #@! TO.P,U3,27*
G04 #@! TO.N,D7*
X110998000Y-116840000D03*
G04 #@! TO.P,U3,28*
G04 #@! TO.N,D6*
X110998000Y-114300000D03*
G04 #@! TO.P,U3,29*
G04 #@! TO.N,D5*
X110998000Y-111760000D03*
G04 #@! TO.P,U3,30*
G04 #@! TO.N,D4*
X110998000Y-109220000D03*
G04 #@! TO.P,U3,31*
G04 #@! TO.N,D3*
X110998000Y-106680000D03*
G04 #@! TO.P,U3,32*
G04 #@! TO.N,D2*
X110998000Y-104140000D03*
G04 #@! TO.P,U3,33*
G04 #@! TO.N,D1*
X110998000Y-101600000D03*
G04 #@! TO.P,U3,34*
G04 #@! TO.N,D0*
X110998000Y-99060000D03*
G04 #@! TO.P,U3,35*
G04 #@! TO.N,RES*
X110998000Y-96520000D03*
G04 #@! TO.P,U3,36*
G04 #@! TO.N,~IOW*
X110998000Y-93980000D03*
G04 #@! TO.P,U3,37*
G04 #@! TO.N,PA7*
X110998000Y-91440000D03*
G04 #@! TO.P,U3,38*
G04 #@! TO.N,PA6*
X110998000Y-88900000D03*
G04 #@! TO.P,U3,39*
G04 #@! TO.N,PA5*
X110998000Y-86360000D03*
G04 #@! TO.P,U3,40*
G04 #@! TO.N,PA4*
X110998000Y-83820000D03*
G04 #@! TD*
D20*
G04 #@! TO.P,U4,1*
G04 #@! TO.N,Net-(U4-Pad1)*
X118618000Y-115570000D03*
D19*
G04 #@! TO.P,U4,9*
G04 #@! TO.N,Net-(U4-Pad9)*
X126238000Y-133350000D03*
G04 #@! TO.P,U4,2*
G04 #@! TO.N,Net-(U4-Pad2)*
X118618000Y-118110000D03*
G04 #@! TO.P,U4,10*
G04 #@! TO.N,Net-(C1-Pad1)*
X126238000Y-130810000D03*
G04 #@! TO.P,U4,3*
G04 #@! TO.N,Net-(U4-Pad3)*
X118618000Y-120650000D03*
G04 #@! TO.P,U4,11*
G04 #@! TO.N,Net-(C2-Pad1)*
X126238000Y-128270000D03*
G04 #@! TO.P,U4,4*
G04 #@! TO.N,Net-(U4-Pad4)*
X118618000Y-123190000D03*
G04 #@! TO.P,U4,12*
G04 #@! TO.N,GND*
X126238000Y-125730000D03*
G04 #@! TO.P,U4,5*
G04 #@! TO.N,Net-(U2-Pad25)*
X118618000Y-125730000D03*
G04 #@! TO.P,U4,13*
G04 #@! TO.N,Net-(U4-Pad13)*
X126238000Y-123190000D03*
G04 #@! TO.P,U4,6*
G04 #@! TO.N,Net-(U4-Pad6)*
X118618000Y-128270000D03*
G04 #@! TO.P,U4,14*
G04 #@! TO.N,Net-(U4-Pad14)*
X126238000Y-120650000D03*
G04 #@! TO.P,U4,7*
G04 #@! TO.N,Net-(U4-Pad7)*
X118618000Y-130810000D03*
G04 #@! TO.P,U4,15*
G04 #@! TO.N,Net-(U4-Pad15)*
X126238000Y-118110000D03*
G04 #@! TO.P,U4,8*
G04 #@! TO.N,GND*
X118618000Y-133350000D03*
G04 #@! TO.P,U4,16*
G04 #@! TO.N,VCC*
X126238000Y-115570000D03*
G04 #@! TD*
D21*
G04 #@! TO.P,Y1,1*
G04 #@! TO.N,Net-(C2-Pad1)*
X133223000Y-117475000D03*
G04 #@! TO.P,Y1,2*
G04 #@! TO.N,Net-(C1-Pad1)*
X133223000Y-122555000D03*
G04 #@! TD*
D22*
G04 #@! TO.P,Q1,2*
G04 #@! TO.N,/~RESIN*
X175133000Y-81915000D03*
G04 #@! TO.P,Q1,3*
G04 #@! TO.N,Net-(Q1-Pad3)*
X173863000Y-81915000D03*
D23*
G04 #@! TO.P,Q1,1*
G04 #@! TO.N,GND*
X176403000Y-81915000D03*
G04 #@! TD*
D11*
G04 #@! TO.P,R2,1*
G04 #@! TO.N,Net-(Q1-Pad3)*
X165608000Y-78105000D03*
D19*
G04 #@! TO.P,R2,2*
G04 #@! TO.N,RES*
X165608000Y-67945000D03*
G04 #@! TD*
G04 #@! TO.P,R3,2*
G04 #@! TO.N,/~RESIN*
X170688000Y-67945000D03*
D11*
G04 #@! TO.P,R3,1*
G04 #@! TO.N,VCC*
X170688000Y-78105000D03*
G04 #@! TD*
D24*
G04 #@! TO.N,GND*
X105438300Y-79257200D03*
G04 #@! TO.N,D6*
X124344600Y-81007600D03*
G04 #@! TO.N,~IOR*
X125420300Y-84970400D03*
G04 #@! TO.N,~IOW*
X137532800Y-78200800D03*
G04 #@! TO.N,A0*
X146021700Y-111656500D03*
G04 #@! TO.N,RES*
X120949800Y-95815400D03*
G04 #@! TO.N,A1*
X136510700Y-71184300D03*
G04 #@! TO.N,A5*
X122992500Y-92075000D03*
G04 #@! TO.N,A6*
X140527700Y-85781900D03*
G04 #@! TO.N,PA0*
X92828700Y-98425000D03*
G04 #@! TO.N,PA1*
X93243000Y-94303900D03*
G04 #@! TO.N,PA2*
X92720900Y-93194800D03*
G04 #@! TD*
D25*
G04 #@! TO.N,GND*
X156083000Y-98425000D02*
X157388100Y-98425000D01*
X166791000Y-88011000D02*
X157388100Y-97413900D01*
X157388100Y-97413900D02*
X157388100Y-98425000D01*
X121833000Y-112395000D02*
X121833000Y-122630100D01*
X121833000Y-122630100D02*
X124932900Y-125730000D01*
X121833000Y-112395000D02*
X119852900Y-112395000D01*
X119852900Y-112395000D02*
X119660000Y-112202000D01*
X126238000Y-125730000D02*
X124932900Y-125730000D01*
X124932900Y-125730000D02*
X124932900Y-127035100D01*
X124932900Y-127035100D02*
X118618000Y-133350000D01*
X118618000Y-99695000D02*
X121946400Y-96366600D01*
X121946400Y-96366600D02*
X121946400Y-89648400D01*
X121946400Y-89648400D02*
X121833000Y-89535000D01*
X121833000Y-89535000D02*
X124982100Y-86385900D01*
X124982100Y-86385900D02*
X128498100Y-86385900D01*
X128498100Y-86385900D02*
X131699000Y-83185000D01*
X97116600Y-83316600D02*
X95575000Y-81775000D01*
X95575000Y-81775000D02*
X88278000Y-81775000D01*
X88278000Y-81775000D02*
X86868000Y-83185000D01*
X95758000Y-99060000D02*
X97116600Y-97701400D01*
X97116600Y-97701400D02*
X97116600Y-83316600D01*
X97116600Y-83316600D02*
X101378900Y-83316600D01*
X101378900Y-83316600D02*
X105438300Y-79257200D01*
X106807000Y-73533000D02*
X105438300Y-74901700D01*
X105438300Y-74901700D02*
X105438300Y-79257200D01*
X119660000Y-112202000D02*
X118618000Y-111160100D01*
X119660000Y-112202000D02*
X116038000Y-115824000D01*
X116038000Y-115824000D02*
X116038000Y-116840000D01*
X118618000Y-109855000D02*
X118618000Y-111160100D01*
X118618000Y-102235000D02*
X118618000Y-99695000D01*
X147153000Y-116205000D02*
X147153000Y-123190000D01*
G04 #@! TO.N,VCC*
X120019800Y-104775000D02*
X120019800Y-108081800D01*
X120019800Y-108081800D02*
X124333000Y-112395000D01*
X143383000Y-131445000D02*
X143383000Y-125903200D01*
X143383000Y-125903200D02*
X133049800Y-115570000D01*
X133049800Y-115570000D02*
X126238000Y-115570000D01*
X119923100Y-104775000D02*
X120019800Y-104775000D01*
X120019800Y-104775000D02*
X123942200Y-100852600D01*
X123942200Y-100852600D02*
X123942200Y-94370800D01*
X123942200Y-94370800D02*
X126238000Y-92075000D01*
X126238000Y-92075000D02*
X126238000Y-90769900D01*
X126238000Y-90769900D02*
X125567900Y-90769900D01*
X125567900Y-90769900D02*
X124333000Y-89535000D01*
X89408000Y-107315000D02*
X89408000Y-105959900D01*
X89408000Y-83185000D02*
X90763200Y-84540200D01*
X90763200Y-84540200D02*
X90763200Y-104604700D01*
X90763200Y-104604700D02*
X89408000Y-105959900D01*
X170688000Y-78105000D02*
X170688000Y-86614000D01*
X170688000Y-86614000D02*
X169291000Y-88011000D01*
X118618000Y-104775000D02*
X119923100Y-104775000D01*
X171323000Y-95885000D02*
X169291000Y-93853000D01*
X169291000Y-93853000D02*
X169291000Y-88011000D01*
X110998000Y-119380000D02*
X112303100Y-119380000D01*
X112303100Y-119380000D02*
X112303100Y-118074900D01*
X112303100Y-118074900D02*
X113538000Y-116840000D01*
D26*
G04 #@! TO.N,D0*
X116967000Y-77238500D02*
X112503400Y-81702100D01*
X112503400Y-81702100D02*
X112503400Y-96590600D01*
X112503400Y-96590600D02*
X111135900Y-97958100D01*
X111135900Y-97958100D02*
X110998000Y-97958100D01*
X171323000Y-93345000D02*
X171323000Y-94446900D01*
X163703000Y-83185000D02*
X164868500Y-83185000D01*
X164868500Y-83185000D02*
X164868500Y-84350500D01*
X164868500Y-84350500D02*
X167898300Y-87380300D01*
X167898300Y-87380300D02*
X167898300Y-94057800D01*
X167898300Y-94057800D02*
X170844700Y-97004200D01*
X170844700Y-97004200D02*
X171771800Y-97004200D01*
X171771800Y-97004200D02*
X172425900Y-96350100D01*
X172425900Y-96350100D02*
X172425900Y-95321500D01*
X172425900Y-95321500D02*
X171551300Y-94446900D01*
X171551300Y-94446900D02*
X171323000Y-94446900D01*
X116967000Y-76073000D02*
X116967000Y-77238500D01*
X110998000Y-99060000D02*
X110998000Y-97958100D01*
G04 #@! TO.N,D1*
X116967000Y-73533000D02*
X116967000Y-74698500D01*
X110998000Y-101600000D02*
X110998000Y-100498100D01*
X110998000Y-100498100D02*
X111135700Y-100498100D01*
X111135700Y-100498100D02*
X113108800Y-98525000D01*
X113108800Y-98525000D02*
X113108800Y-82524700D01*
X113108800Y-82524700D02*
X118157600Y-77475900D01*
X118157600Y-77475900D02*
X118157600Y-75526900D01*
X118157600Y-75526900D02*
X117329200Y-74698500D01*
X117329200Y-74698500D02*
X116967000Y-74698500D01*
X171323000Y-90805000D02*
X171323000Y-89703100D01*
X161163000Y-83185000D02*
X162328500Y-83185000D01*
X162328500Y-83185000D02*
X162328500Y-82747900D01*
X162328500Y-82747900D02*
X165074800Y-80001600D01*
X165074800Y-80001600D02*
X167184100Y-80001600D01*
X167184100Y-80001600D02*
X170190900Y-76994800D01*
X170190900Y-76994800D02*
X171144900Y-76994800D01*
X171144900Y-76994800D02*
X171802300Y-77652200D01*
X171802300Y-77652200D02*
X171802300Y-89223800D01*
X171802300Y-89223800D02*
X171323000Y-89703100D01*
G04 #@! TO.N,D2*
X110998000Y-103038100D02*
X111135700Y-103038100D01*
X111135700Y-103038100D02*
X113713800Y-100460000D01*
X113713800Y-100460000D02*
X113713800Y-83031700D01*
X113713800Y-83031700D02*
X119507000Y-77238500D01*
X119507000Y-76073000D02*
X119507000Y-77238500D01*
X110998000Y-104140000D02*
X110998000Y-103038100D01*
X156083000Y-90805000D02*
X156083000Y-89703100D01*
X158623000Y-83185000D02*
X158623000Y-87163100D01*
X158623000Y-87163100D02*
X156083000Y-89703100D01*
G04 #@! TO.N,D3*
X110998000Y-105578100D02*
X111135700Y-105578100D01*
X111135700Y-105578100D02*
X114219800Y-102494000D01*
X114219800Y-102494000D02*
X114219800Y-84495000D01*
X114219800Y-84495000D02*
X120679600Y-78035200D01*
X120679600Y-78035200D02*
X120679600Y-75508900D01*
X120679600Y-75508900D02*
X119869200Y-74698500D01*
X119869200Y-74698500D02*
X119507000Y-74698500D01*
X119507000Y-73533000D02*
X119507000Y-74698500D01*
X110998000Y-106680000D02*
X110998000Y-105578100D01*
X156083000Y-93345000D02*
X156083000Y-92243100D01*
X156083000Y-83185000D02*
X156083000Y-88091200D01*
X156083000Y-88091200D02*
X154981100Y-89193100D01*
X154981100Y-89193100D02*
X154981100Y-91730100D01*
X154981100Y-91730100D02*
X155494100Y-92243100D01*
X155494100Y-92243100D02*
X156083000Y-92243100D01*
G04 #@! TO.N,D4*
X110998000Y-108118100D02*
X111135700Y-108118100D01*
X111135700Y-108118100D02*
X116658300Y-102595500D01*
X116658300Y-102595500D02*
X116658300Y-82627200D01*
X116658300Y-82627200D02*
X122047000Y-77238500D01*
X122047000Y-76073000D02*
X122047000Y-77238500D01*
X110998000Y-109220000D02*
X110998000Y-108118100D01*
X156083000Y-99863100D02*
X155945200Y-99863100D01*
X155945200Y-99863100D02*
X154577600Y-98495500D01*
X154577600Y-98495500D02*
X154577600Y-88824300D01*
X154577600Y-88824300D02*
X154708500Y-88693400D01*
X154708500Y-88693400D02*
X154708500Y-83185000D01*
X153543000Y-83185000D02*
X154708500Y-83185000D01*
X156083000Y-100965000D02*
X156083000Y-99863100D01*
G04 #@! TO.N,D5*
X151003000Y-83185000D02*
X149837500Y-83185000D01*
X121565200Y-73533000D02*
X123140000Y-71958200D01*
X123140000Y-71958200D02*
X145055200Y-71958200D01*
X145055200Y-71958200D02*
X146072500Y-72975500D01*
X146072500Y-72975500D02*
X146072500Y-73840900D01*
X146072500Y-73840900D02*
X147139000Y-74907400D01*
X147139000Y-74907400D02*
X147973000Y-74907400D01*
X147973000Y-74907400D02*
X148717000Y-75651400D01*
X148717000Y-75651400D02*
X148717000Y-82064500D01*
X148717000Y-82064500D02*
X149837500Y-83185000D01*
X121565200Y-73533000D02*
X120881500Y-73533000D01*
X122047000Y-73533000D02*
X121565200Y-73533000D01*
X151003000Y-83185000D02*
X152168500Y-83185000D01*
X156083000Y-103505000D02*
X156083000Y-102403100D01*
X156083000Y-102403100D02*
X155945300Y-102403100D01*
X155945300Y-102403100D02*
X154122200Y-100580000D01*
X154122200Y-100580000D02*
X154122200Y-86304200D01*
X154122200Y-86304200D02*
X152168500Y-84350500D01*
X152168500Y-84350500D02*
X152168500Y-83185000D01*
X120881500Y-73533000D02*
X120881500Y-73170800D01*
X120881500Y-73170800D02*
X120039600Y-72328900D01*
X120039600Y-72328900D02*
X116520400Y-72328900D01*
X116520400Y-72328900D02*
X115697000Y-73152300D01*
X115697000Y-73152300D02*
X115697000Y-77396500D01*
X115697000Y-77396500D02*
X112099900Y-80993600D01*
X112099900Y-80993600D02*
X112099900Y-86839000D01*
X112099900Y-86839000D02*
X111140800Y-87798100D01*
X111140800Y-87798100D02*
X110541500Y-87798100D01*
X110541500Y-87798100D02*
X109896100Y-88443500D01*
X109896100Y-88443500D02*
X109896100Y-109693900D01*
X109896100Y-109693900D02*
X110860300Y-110658100D01*
X110860300Y-110658100D02*
X110998000Y-110658100D01*
X110998000Y-111760000D02*
X110998000Y-110658100D01*
G04 #@! TO.N,D6*
X148104500Y-83185000D02*
X153315000Y-88395500D01*
X153315000Y-88395500D02*
X153315000Y-103277000D01*
X153315000Y-103277000D02*
X156083000Y-106045000D01*
X124587000Y-76073000D02*
X124587000Y-80765200D01*
X124587000Y-80765200D02*
X124344600Y-81007600D01*
X110998000Y-113198100D02*
X111135700Y-113198100D01*
X111135700Y-113198100D02*
X117314300Y-107019500D01*
X117314300Y-107019500D02*
X117314300Y-99404900D01*
X117314300Y-99404900D02*
X118151500Y-98567700D01*
X118151500Y-98567700D02*
X118846600Y-98567700D01*
X118846600Y-98567700D02*
X120199000Y-97215300D01*
X120199000Y-97215300D02*
X120199000Y-95492700D01*
X120199000Y-95492700D02*
X120327300Y-95364400D01*
X120327300Y-95364400D02*
X120327300Y-85024900D01*
X120327300Y-85024900D02*
X124344600Y-81007600D01*
X110998000Y-114300000D02*
X110998000Y-113198100D01*
X146939000Y-83185000D02*
X148104500Y-83185000D01*
G04 #@! TO.N,D7*
X156083000Y-107483100D02*
X155945300Y-107483100D01*
X155945300Y-107483100D02*
X152911400Y-104449200D01*
X152911400Y-104449200D02*
X152911400Y-91559800D01*
X152911400Y-91559800D02*
X144536600Y-83185000D01*
X144467800Y-83185000D02*
X144536600Y-83185000D01*
X144399000Y-83185000D02*
X144467800Y-83185000D01*
X156083000Y-108585000D02*
X156083000Y-107483100D01*
G04 #@! TO.N,~IOR*
X125420300Y-84970400D02*
X125420300Y-78945200D01*
X125420300Y-78945200D02*
X127127000Y-77238500D01*
X156083000Y-121285000D02*
X156083000Y-120183100D01*
X141859000Y-83185000D02*
X143024500Y-83185000D01*
X143024500Y-83185000D02*
X143024500Y-83622100D01*
X143024500Y-83622100D02*
X149657300Y-90254900D01*
X149657300Y-90254900D02*
X150227700Y-90254900D01*
X150227700Y-90254900D02*
X152168600Y-92195800D01*
X152168600Y-92195800D02*
X152168600Y-108779000D01*
X152168600Y-108779000D02*
X155784600Y-112395000D01*
X155784600Y-112395000D02*
X156376600Y-112395000D01*
X156376600Y-112395000D02*
X157589300Y-113607700D01*
X157589300Y-113607700D02*
X157589300Y-118814500D01*
X157589300Y-118814500D02*
X156220700Y-120183100D01*
X156220700Y-120183100D02*
X156083000Y-120183100D01*
X127127000Y-76073000D02*
X127127000Y-77238500D01*
G04 #@! TO.N,~IOW*
X139319000Y-83185000D02*
X139319000Y-84502900D01*
X139319000Y-84502900D02*
X139319000Y-85748200D01*
X139319000Y-85748200D02*
X147161400Y-93590600D01*
X147161400Y-93590600D02*
X147161400Y-105804500D01*
X147161400Y-105804500D02*
X147932500Y-106575600D01*
X147932500Y-106575600D02*
X148771000Y-106575600D01*
X148771000Y-106575600D02*
X149733000Y-107537600D01*
X149733000Y-107537600D02*
X149733000Y-111417300D01*
X149733000Y-111417300D02*
X155689500Y-117373800D01*
X155689500Y-117373800D02*
X156497300Y-117373800D01*
X156497300Y-117373800D02*
X157184900Y-116686200D01*
X157184900Y-116686200D02*
X157184900Y-114766900D01*
X157184900Y-114766900D02*
X156083000Y-113665000D01*
X139319000Y-83185000D02*
X139319000Y-79987000D01*
X139319000Y-79987000D02*
X137532800Y-78200800D01*
G04 #@! TO.N,A0*
X137944500Y-83185000D02*
X137944500Y-84992400D01*
X137944500Y-84992400D02*
X146757800Y-93805700D01*
X146757800Y-93805700D02*
X146757800Y-110524600D01*
X146757800Y-110524600D02*
X146021700Y-111260700D01*
X146021700Y-111260700D02*
X146021700Y-111656500D01*
X154981100Y-118745000D02*
X146760700Y-110524600D01*
X146760700Y-110524600D02*
X146757800Y-110524600D01*
X136779000Y-83185000D02*
X137944500Y-83185000D01*
X156083000Y-118745000D02*
X154981100Y-118745000D01*
X137287000Y-77238500D02*
X136779000Y-77746500D01*
X136779000Y-77746500D02*
X136779000Y-81867100D01*
X136779000Y-83185000D02*
X136779000Y-81867100D01*
X137287000Y-76073000D02*
X137287000Y-77238500D01*
G04 #@! TO.N,~CE*
X143383000Y-107950000D02*
X143383000Y-105410000D01*
X143383000Y-110490000D02*
X143383000Y-107950000D01*
X156083000Y-131445000D02*
X154917500Y-131445000D01*
X143383000Y-110490000D02*
X143383000Y-111655500D01*
X143383000Y-111655500D02*
X144184300Y-111655500D01*
X144184300Y-111655500D02*
X154917500Y-122388700D01*
X154917500Y-122388700D02*
X154917500Y-131445000D01*
X143383000Y-95250000D02*
X143383000Y-92710000D01*
X143383000Y-97790000D02*
X143383000Y-95250000D01*
X143383000Y-100330000D02*
X143383000Y-97790000D01*
X143383000Y-102870000D02*
X143383000Y-100330000D01*
X143383000Y-105410000D02*
X143383000Y-102870000D01*
G04 #@! TO.N,Net-(C1-Pad1)*
X126238000Y-130810000D02*
X126238000Y-129708100D01*
X126238000Y-129708100D02*
X126375700Y-129708100D01*
X126375700Y-129708100D02*
X133223000Y-122860800D01*
X133223000Y-122860800D02*
X133223000Y-122555000D01*
G04 #@! TO.N,Net-(C2-Pad1)*
X126238000Y-128270000D02*
X126238000Y-127168100D01*
X126238000Y-127168100D02*
X126375900Y-127168100D01*
X126375900Y-127168100D02*
X133223000Y-120321000D01*
X133223000Y-120321000D02*
X133223000Y-117475000D01*
G04 #@! TO.N,RES*
X171323000Y-107483100D02*
X171094600Y-107483100D01*
X171094600Y-107483100D02*
X169812600Y-106201100D01*
X169812600Y-106201100D02*
X169812600Y-100901100D01*
X169812600Y-100901100D02*
X171018700Y-99695000D01*
X171018700Y-99695000D02*
X171639100Y-99695000D01*
X171639100Y-99695000D02*
X172829500Y-98504600D01*
X172829500Y-98504600D02*
X172829500Y-76268400D01*
X172829500Y-76268400D02*
X165608000Y-69046900D01*
X132207000Y-77238500D02*
X127895600Y-81549900D01*
X127895600Y-81549900D02*
X127895600Y-83742100D01*
X127895600Y-83742100D02*
X126456200Y-85181500D01*
X126456200Y-85181500D02*
X126264800Y-85181500D01*
X126264800Y-85181500D02*
X126264800Y-85181600D01*
X126264800Y-85181600D02*
X125729600Y-85716800D01*
X125729600Y-85716800D02*
X124080300Y-85716800D01*
X124080300Y-85716800D02*
X120731000Y-89066100D01*
X120731000Y-89066100D02*
X120731000Y-95596600D01*
X120731000Y-95596600D02*
X120949800Y-95815400D01*
X132207000Y-76073000D02*
X132207000Y-77238500D01*
X171323000Y-108585000D02*
X171323000Y-107483100D01*
X165608000Y-67945000D02*
X165608000Y-69046900D01*
G04 #@! TO.N,INT*
X134747000Y-76073000D02*
X134747000Y-77238500D01*
X156083000Y-123825000D02*
X156083000Y-122723100D01*
X156083000Y-122723100D02*
X155952900Y-122723100D01*
X155952900Y-122723100D02*
X145247400Y-112017600D01*
X145247400Y-112017600D02*
X145247400Y-92926100D01*
X145247400Y-92926100D02*
X141939700Y-89618400D01*
X141939700Y-89618400D02*
X141361400Y-89618400D01*
X141361400Y-89618400D02*
X135509000Y-83766000D01*
X135509000Y-83766000D02*
X135509000Y-78000500D01*
X135509000Y-78000500D02*
X134747000Y-77238500D01*
G04 #@! TO.N,A1*
X95758000Y-100498100D02*
X95895700Y-100498100D01*
X95895700Y-100498100D02*
X108077000Y-88316800D01*
X108077000Y-88316800D02*
X108077000Y-73111100D01*
X108077000Y-73111100D02*
X110003800Y-71184300D01*
X110003800Y-71184300D02*
X136510700Y-71184300D01*
X95758000Y-101600000D02*
X95758000Y-100498100D01*
G04 #@! TO.N,A5*
X132969000Y-88247100D02*
X124050600Y-88247100D01*
X124050600Y-88247100D02*
X122992500Y-89305200D01*
X122992500Y-89305200D02*
X122992500Y-92075000D01*
X142367000Y-73533000D02*
X141201500Y-73533000D01*
X132969000Y-88247100D02*
X138706500Y-93984600D01*
X138706500Y-93984600D02*
X138706500Y-112940600D01*
X138706500Y-112940600D02*
X145903000Y-120137100D01*
X145903000Y-120137100D02*
X145903000Y-123527400D01*
X145903000Y-123527400D02*
X155154500Y-132778900D01*
X155154500Y-132778900D02*
X166760100Y-132778900D01*
X166760100Y-132778900D02*
X167617500Y-131921500D01*
X167617500Y-131921500D02*
X167617500Y-131445000D01*
X132969000Y-88247100D02*
X132969000Y-77238400D01*
X132969000Y-77238400D02*
X133477000Y-76730400D01*
X133477000Y-76730400D02*
X133477000Y-75680500D01*
X133477000Y-75680500D02*
X134250100Y-74907400D01*
X134250100Y-74907400D02*
X140189300Y-74907400D01*
X140189300Y-74907400D02*
X141201500Y-73895200D01*
X141201500Y-73895200D02*
X141201500Y-73533000D01*
X168783000Y-131445000D02*
X167617500Y-131445000D01*
G04 #@! TO.N,A6*
X144907000Y-77238500D02*
X140527700Y-81617800D01*
X140527700Y-81617800D02*
X140527700Y-85781900D01*
X144907000Y-76073000D02*
X144907000Y-77238500D01*
G04 #@! TO.N,A7*
X143741500Y-73533000D02*
X143741500Y-73241600D01*
X143741500Y-73241600D02*
X142861700Y-72361800D01*
X142861700Y-72361800D02*
X129155800Y-72361800D01*
X129155800Y-72361800D02*
X128397000Y-73120600D01*
X128397000Y-73120600D02*
X128397000Y-73927500D01*
X128397000Y-73927500D02*
X127417100Y-74907400D01*
X127417100Y-74907400D02*
X124070000Y-74907400D01*
X124070000Y-74907400D02*
X123218300Y-75759100D01*
X123218300Y-75759100D02*
X123218300Y-77768500D01*
X123218300Y-77768500D02*
X119923700Y-81063100D01*
X119923700Y-81063100D02*
X119923700Y-94975700D01*
X119923700Y-94975700D02*
X118846300Y-96053100D01*
X118846300Y-96053100D02*
X118618000Y-96053100D01*
X144907000Y-73533000D02*
X143741500Y-73533000D01*
X118618000Y-97155000D02*
X118618000Y-96053100D01*
G04 #@! TO.N,Net-(J2-Pad1)*
X133223000Y-92710000D02*
X132057500Y-92710000D01*
X126238000Y-94615000D02*
X130152500Y-94615000D01*
X130152500Y-94615000D02*
X132057500Y-92710000D01*
G04 #@! TO.N,Net-(J2-Pad10)*
X156083000Y-116205000D02*
X156083000Y-115103100D01*
X156083000Y-115103100D02*
X155945300Y-115103100D01*
X155945300Y-115103100D02*
X151585800Y-110743600D01*
X151585800Y-110743600D02*
X151585800Y-110490000D01*
X151003000Y-107950000D02*
X151003000Y-109115500D01*
X151585800Y-110490000D02*
X151585800Y-109698300D01*
X151585800Y-109698300D02*
X151003000Y-109115500D01*
X151003000Y-110490000D02*
X151585800Y-110490000D01*
X151003000Y-95250000D02*
X151003000Y-92710000D01*
X151003000Y-97790000D02*
X151003000Y-95250000D01*
X151003000Y-100330000D02*
X151003000Y-97790000D01*
X151003000Y-102870000D02*
X151003000Y-100330000D01*
X151003000Y-105410000D02*
X151003000Y-102870000D01*
X151003000Y-107950000D02*
X151003000Y-105410000D01*
G04 #@! TO.N,Net-(J2-Pad3)*
X133223000Y-95250000D02*
X132057500Y-95250000D01*
X126238000Y-97155000D02*
X130152500Y-97155000D01*
X130152500Y-97155000D02*
X132057500Y-95250000D01*
G04 #@! TO.N,Net-(J2-Pad7)*
X133223000Y-100330000D02*
X132057500Y-100330000D01*
X126238000Y-102235000D02*
X130152500Y-102235000D01*
X130152500Y-102235000D02*
X132057500Y-100330000D01*
G04 #@! TO.N,Net-(J2-Pad9)*
X133223000Y-102870000D02*
X132057500Y-102870000D01*
X126238000Y-104775000D02*
X130152500Y-104775000D01*
X130152500Y-104775000D02*
X132057500Y-102870000D01*
G04 #@! TO.N,Net-(J2-Pad13)*
X133223000Y-107950000D02*
X132057500Y-107950000D01*
X126238000Y-109855000D02*
X130152500Y-109855000D01*
X130152500Y-109855000D02*
X132057500Y-107950000D01*
G04 #@! TO.N,Net-(J3-Pad10)*
X135763000Y-95250000D02*
X135763000Y-92710000D01*
X135763000Y-97790000D02*
X135763000Y-95250000D01*
X135763000Y-100330000D02*
X135763000Y-97790000D01*
X135763000Y-102870000D02*
X135763000Y-100330000D01*
X135763000Y-105410000D02*
X135763000Y-102870000D01*
X135763000Y-107950000D02*
X135763000Y-105410000D01*
X135763000Y-110490000D02*
X135763000Y-107950000D01*
G04 #@! TO.N,Net-(J4-Pad2)*
X177038000Y-94510500D02*
X176561500Y-94510500D01*
X176561500Y-94510500D02*
X173515000Y-97557000D01*
X173515000Y-97557000D02*
X173515000Y-101313000D01*
X173515000Y-101313000D02*
X171323000Y-103505000D01*
X177038000Y-93345000D02*
X177038000Y-94510500D01*
G04 #@! TO.N,Net-(J4-Pad5)*
X177038000Y-100965000D02*
X177038000Y-102130500D01*
X171323000Y-113665000D02*
X171323000Y-112563100D01*
X171323000Y-112563100D02*
X171460700Y-112563100D01*
X171460700Y-112563100D02*
X174633200Y-109390600D01*
X174633200Y-109390600D02*
X174633200Y-104058800D01*
X174633200Y-104058800D02*
X176561500Y-102130500D01*
X176561500Y-102130500D02*
X177038000Y-102130500D01*
G04 #@! TO.N,Net-(J4-Pad6)*
X177038000Y-103505000D02*
X177038000Y-112065800D01*
X177038000Y-112065800D02*
X171460700Y-117643100D01*
X171460700Y-117643100D02*
X171323000Y-117643100D01*
X171323000Y-118745000D02*
X171323000Y-117643100D01*
G04 #@! TO.N,PA0*
X92828700Y-98425000D02*
X93989400Y-97264300D01*
X93989400Y-97264300D02*
X93989400Y-94172800D01*
X93989400Y-94172800D02*
X95620300Y-92541900D01*
X95620300Y-92541900D02*
X95758000Y-92541900D01*
X95758000Y-91440000D02*
X95758000Y-92541900D01*
G04 #@! TO.N,PA1*
X95758000Y-88900000D02*
X95758000Y-90001900D01*
X95758000Y-90001900D02*
X95620100Y-90001900D01*
X95620100Y-90001900D02*
X94656100Y-90965900D01*
X94656100Y-90965900D02*
X94656100Y-92890800D01*
X94656100Y-92890800D02*
X93243000Y-94303900D01*
G04 #@! TO.N,PA2*
X95758000Y-86360000D02*
X95758000Y-87461900D01*
X95758000Y-87461900D02*
X95620300Y-87461900D01*
X95620300Y-87461900D02*
X92720900Y-90361300D01*
X92720900Y-90361300D02*
X92720900Y-93194800D01*
G04 #@! TO.N,PC0*
X89408000Y-88265000D02*
X89408000Y-89416900D01*
X95758000Y-116840000D02*
X95758000Y-115738100D01*
X95758000Y-115738100D02*
X95620100Y-115738100D01*
X95620100Y-115738100D02*
X94656100Y-114774100D01*
X94656100Y-114774100D02*
X94656100Y-113449500D01*
X94656100Y-113449500D02*
X89791600Y-108585000D01*
X89791600Y-108585000D02*
X89026400Y-108585000D01*
X89026400Y-108585000D02*
X88254000Y-107812600D01*
X88254000Y-107812600D02*
X88254000Y-90302300D01*
X88254000Y-90302300D02*
X89139400Y-89416900D01*
X89139400Y-89416900D02*
X89408000Y-89416900D01*
G04 #@! TO.N,PC1*
X95758000Y-119380000D02*
X95758000Y-118278100D01*
X86868000Y-88265000D02*
X86868000Y-89416900D01*
X86868000Y-89416900D02*
X86580000Y-89416900D01*
X86580000Y-89416900D02*
X85685500Y-90311400D01*
X85685500Y-90311400D02*
X85685500Y-107786200D01*
X85685500Y-107786200D02*
X86602300Y-108703000D01*
X86602300Y-108703000D02*
X87405300Y-108703000D01*
X87405300Y-108703000D02*
X88256000Y-109553700D01*
X88256000Y-109553700D02*
X88256000Y-110392300D01*
X88256000Y-110392300D02*
X88988700Y-111125000D01*
X88988700Y-111125000D02*
X89803000Y-111125000D01*
X89803000Y-111125000D02*
X94320000Y-115642000D01*
X94320000Y-115642000D02*
X94320000Y-117068500D01*
X94320000Y-117068500D02*
X95529600Y-118278100D01*
X95529600Y-118278100D02*
X95758000Y-118278100D01*
G04 #@! TO.N,PC2*
X89408000Y-85725000D02*
X88256100Y-85725000D01*
X95758000Y-121920000D02*
X95758000Y-120818100D01*
X95758000Y-120818100D02*
X95620100Y-120818100D01*
X95620100Y-120818100D02*
X94656100Y-119854100D01*
X94656100Y-119854100D02*
X94656100Y-118522600D01*
X94656100Y-118522600D02*
X89680500Y-113547000D01*
X89680500Y-113547000D02*
X88870700Y-113547000D01*
X88870700Y-113547000D02*
X88020000Y-112696300D01*
X88020000Y-112696300D02*
X88020000Y-111857700D01*
X88020000Y-111857700D02*
X87287300Y-111125000D01*
X87287300Y-111125000D02*
X86501600Y-111125000D01*
X86501600Y-111125000D02*
X85269900Y-109893300D01*
X85269900Y-109893300D02*
X85269900Y-88233400D01*
X85269900Y-88233400D02*
X86508300Y-86995000D01*
X86508300Y-86995000D02*
X87254600Y-86995000D01*
X87254600Y-86995000D02*
X88256100Y-85993500D01*
X88256100Y-85993500D02*
X88256100Y-85725000D01*
G04 #@! TO.N,PC3*
X95758000Y-124460000D02*
X94656100Y-124460000D01*
X94656100Y-124460000D02*
X94656100Y-123609400D01*
X94656100Y-123609400D02*
X89673700Y-118627000D01*
X89673700Y-118627000D02*
X88919800Y-118627000D01*
X88919800Y-118627000D02*
X88020000Y-117727200D01*
X88020000Y-117727200D02*
X88020000Y-114397700D01*
X88020000Y-114397700D02*
X87287300Y-113665000D01*
X87287300Y-113665000D02*
X86501600Y-113665000D01*
X86501600Y-113665000D02*
X84860400Y-112023800D01*
X84860400Y-112023800D02*
X84860400Y-87732600D01*
X84860400Y-87732600D02*
X86868000Y-85725000D01*
G04 #@! TO.N,PB2*
X89408000Y-120015000D02*
X89408000Y-121166900D01*
X95758000Y-132080000D02*
X95758000Y-130978100D01*
X95758000Y-130978100D02*
X95620100Y-130978100D01*
X95620100Y-130978100D02*
X94656100Y-130014100D01*
X94656100Y-130014100D02*
X94656100Y-125600400D01*
X94656100Y-125600400D02*
X90222600Y-121166900D01*
X90222600Y-121166900D02*
X89408000Y-121166900D01*
G04 #@! TO.N,PB4*
X89408000Y-117475000D02*
X90559900Y-117475000D01*
X110998000Y-129540000D02*
X109896100Y-129540000D01*
X109896100Y-129540000D02*
X103546100Y-123190000D01*
X103546100Y-123190000D02*
X95460200Y-123190000D01*
X95460200Y-123190000D02*
X90559900Y-118289700D01*
X90559900Y-118289700D02*
X90559900Y-117475000D01*
G04 #@! TO.N,Net-(U2-Pad22)*
X171323000Y-106045000D02*
X171323000Y-104943100D01*
X171323000Y-100965000D02*
X171323000Y-102066900D01*
X171323000Y-102066900D02*
X171185300Y-102066900D01*
X171185300Y-102066900D02*
X170219000Y-103033200D01*
X170219000Y-103033200D02*
X170219000Y-104067500D01*
X170219000Y-104067500D02*
X171094600Y-104943100D01*
X171094600Y-104943100D02*
X171323000Y-104943100D01*
G04 #@! TO.N,/~RESIN*
X170688000Y-67945000D02*
X170688000Y-69046900D01*
X170688000Y-69046900D02*
X175133000Y-73491900D01*
X175133000Y-73491900D02*
X175133000Y-81915000D01*
G04 #@! TO.N,A2*
X139827000Y-76073000D02*
X140992500Y-76073000D01*
X140992500Y-76073000D02*
X140992500Y-75781600D01*
X140992500Y-75781600D02*
X141872800Y-74901300D01*
X141872800Y-74901300D02*
X145384400Y-74901300D01*
X145384400Y-74901300D02*
X146280500Y-75797400D01*
X146280500Y-75797400D02*
X146280500Y-80526800D01*
X146280500Y-80526800D02*
X153718600Y-87964900D01*
X153718600Y-87964900D02*
X153718600Y-102740300D01*
X153718600Y-102740300D02*
X155753300Y-104775000D01*
X155753300Y-104775000D02*
X156379700Y-104775000D01*
X156379700Y-104775000D02*
X161163000Y-109558300D01*
X161163000Y-109558300D02*
X161163000Y-131445000D01*
G04 #@! TD*
D27*
G04 #@! TO.N,GND*
G36*
X180086000Y-136906000D02*
X81915000Y-136906000D01*
X81915000Y-132754501D01*
X83846000Y-132754501D01*
X83846000Y-133815499D01*
X84252026Y-134795734D01*
X85002266Y-135545974D01*
X85982501Y-135952000D01*
X87043499Y-135952000D01*
X88023734Y-135545974D01*
X88773974Y-134795734D01*
X89180000Y-133815499D01*
X89180000Y-133699039D01*
X117226096Y-133699039D01*
X117386959Y-134087423D01*
X117762866Y-134502389D01*
X118268959Y-134741914D01*
X118491000Y-134620629D01*
X118491000Y-133477000D01*
X118745000Y-133477000D01*
X118745000Y-134620629D01*
X118967041Y-134741914D01*
X119473134Y-134502389D01*
X119849041Y-134087423D01*
X120009904Y-133699039D01*
X119887915Y-133477000D01*
X118745000Y-133477000D01*
X118491000Y-133477000D01*
X117348085Y-133477000D01*
X117226096Y-133699039D01*
X89180000Y-133699039D01*
X89180000Y-132754501D01*
X88773974Y-131774266D01*
X88023734Y-131024026D01*
X87043499Y-130618000D01*
X85982501Y-130618000D01*
X85002266Y-131024026D01*
X84252026Y-131774266D01*
X83846000Y-132754501D01*
X81915000Y-132754501D01*
X81915000Y-87732600D01*
X84109371Y-87732600D01*
X84123801Y-87805145D01*
X84123800Y-111951260D01*
X84109371Y-112023800D01*
X84123800Y-112096340D01*
X84123800Y-112096343D01*
X84166539Y-112311206D01*
X84329342Y-112554858D01*
X84390842Y-112595951D01*
X85742056Y-113947165D01*
X85469161Y-114355582D01*
X85353908Y-114935000D01*
X85469161Y-115514418D01*
X85797375Y-116005625D01*
X86095761Y-116205000D01*
X85797375Y-116404375D01*
X85469161Y-116895582D01*
X85353908Y-117475000D01*
X85469161Y-118054418D01*
X85797375Y-118545625D01*
X86095761Y-118745000D01*
X85797375Y-118944375D01*
X85469161Y-119435582D01*
X85353908Y-120015000D01*
X85469161Y-120594418D01*
X85797375Y-121085625D01*
X86095761Y-121285000D01*
X85797375Y-121484375D01*
X85469161Y-121975582D01*
X85353908Y-122555000D01*
X85469161Y-123134418D01*
X85797375Y-123625625D01*
X86288582Y-123953839D01*
X86721744Y-124040000D01*
X87014256Y-124040000D01*
X87447418Y-123953839D01*
X87938625Y-123625625D01*
X87950816Y-123607381D01*
X87959843Y-123652765D01*
X88100191Y-123862809D01*
X88310235Y-124003157D01*
X88558000Y-124052440D01*
X90258000Y-124052440D01*
X90505765Y-124003157D01*
X90715809Y-123862809D01*
X90856157Y-123652765D01*
X90905440Y-123405000D01*
X90905440Y-122891449D01*
X93919501Y-125905511D01*
X93919500Y-129941560D01*
X93905071Y-130014100D01*
X93919500Y-130086640D01*
X93919500Y-130086643D01*
X93962239Y-130301506D01*
X94125042Y-130545158D01*
X94186542Y-130586251D01*
X94692297Y-131092006D01*
X94406260Y-131520091D01*
X94294887Y-132080000D01*
X94406260Y-132639909D01*
X94723423Y-133114577D01*
X95198091Y-133431740D01*
X95616667Y-133515000D01*
X95899333Y-133515000D01*
X96317909Y-133431740D01*
X96792577Y-133114577D01*
X97109740Y-132639909D01*
X97221113Y-132080000D01*
X97109740Y-131520091D01*
X96792577Y-131045423D01*
X96481011Y-130837242D01*
X96471445Y-130789150D01*
X96792577Y-130574577D01*
X97109740Y-130099909D01*
X97221113Y-129540000D01*
X97109740Y-128980091D01*
X96792577Y-128505423D01*
X96440242Y-128270000D01*
X96792577Y-128034577D01*
X97109740Y-127559909D01*
X97221113Y-127000000D01*
X97109740Y-126440091D01*
X96792577Y-125965423D01*
X96440242Y-125730000D01*
X96792577Y-125494577D01*
X97109740Y-125019909D01*
X97221113Y-124460000D01*
X97115013Y-123926600D01*
X103240991Y-123926600D01*
X109323951Y-130009561D01*
X109365042Y-130071058D01*
X109426539Y-130112149D01*
X109426541Y-130112151D01*
X109576230Y-130212170D01*
X109608693Y-130233861D01*
X109755242Y-130263011D01*
X109963423Y-130574577D01*
X110315758Y-130810000D01*
X109963423Y-131045423D01*
X109646260Y-131520091D01*
X109534887Y-132080000D01*
X109646260Y-132639909D01*
X109963423Y-133114577D01*
X110438091Y-133431740D01*
X110856667Y-133515000D01*
X111139333Y-133515000D01*
X111557909Y-133431740D01*
X112032577Y-133114577D01*
X112349740Y-132639909D01*
X112461113Y-132080000D01*
X112349740Y-131520091D01*
X112032577Y-131045423D01*
X111680242Y-130810000D01*
X112032577Y-130574577D01*
X112349740Y-130099909D01*
X112461113Y-129540000D01*
X112349740Y-128980091D01*
X112032577Y-128505423D01*
X111680242Y-128270000D01*
X112032577Y-128034577D01*
X112349740Y-127559909D01*
X112461113Y-127000000D01*
X112349740Y-126440091D01*
X112032577Y-125965423D01*
X111680242Y-125730000D01*
X112032577Y-125494577D01*
X112349740Y-125019909D01*
X112461113Y-124460000D01*
X112349740Y-123900091D01*
X112032577Y-123425423D01*
X111680242Y-123190000D01*
X112032577Y-122954577D01*
X112349740Y-122479909D01*
X112461113Y-121920000D01*
X112349740Y-121360091D01*
X112032577Y-120885423D01*
X111680242Y-120650000D01*
X112032577Y-120414577D01*
X112095905Y-120319800D01*
X112210541Y-120319800D01*
X112303100Y-120338211D01*
X112395659Y-120319800D01*
X112669791Y-120265272D01*
X112980657Y-120057557D01*
X113188372Y-119746691D01*
X113261311Y-119380000D01*
X113242900Y-119287441D01*
X113242900Y-118464177D01*
X113432077Y-118275000D01*
X113823439Y-118275000D01*
X114350862Y-118056534D01*
X114559651Y-117847745D01*
X115209861Y-117847745D01*
X115283995Y-118093864D01*
X115821223Y-118286965D01*
X116391454Y-118259778D01*
X116792005Y-118093864D01*
X116866139Y-117847745D01*
X116038000Y-117019605D01*
X115209861Y-117847745D01*
X114559651Y-117847745D01*
X114754534Y-117652862D01*
X114781525Y-117587701D01*
X114784136Y-117594005D01*
X115030255Y-117668139D01*
X115858395Y-116840000D01*
X116217605Y-116840000D01*
X117045745Y-117668139D01*
X117255336Y-117605008D01*
X117154887Y-118110000D01*
X117266260Y-118669909D01*
X117583423Y-119144577D01*
X117935758Y-119380000D01*
X117583423Y-119615423D01*
X117266260Y-120090091D01*
X117154887Y-120650000D01*
X117266260Y-121209909D01*
X117583423Y-121684577D01*
X117935758Y-121920000D01*
X117583423Y-122155423D01*
X117266260Y-122630091D01*
X117154887Y-123190000D01*
X117266260Y-123749909D01*
X117583423Y-124224577D01*
X117935758Y-124460000D01*
X117583423Y-124695423D01*
X117266260Y-125170091D01*
X117154887Y-125730000D01*
X117266260Y-126289909D01*
X117583423Y-126764577D01*
X117935758Y-127000000D01*
X117583423Y-127235423D01*
X117266260Y-127710091D01*
X117154887Y-128270000D01*
X117266260Y-128829909D01*
X117583423Y-129304577D01*
X117935758Y-129540000D01*
X117583423Y-129775423D01*
X117266260Y-130250091D01*
X117154887Y-130810000D01*
X117266260Y-131369909D01*
X117583423Y-131844577D01*
X117967108Y-132100947D01*
X117762866Y-132197611D01*
X117386959Y-132612577D01*
X117226096Y-133000961D01*
X117348085Y-133223000D01*
X118491000Y-133223000D01*
X118491000Y-133203000D01*
X118745000Y-133203000D01*
X118745000Y-133223000D01*
X119887915Y-133223000D01*
X120009904Y-133000961D01*
X119849041Y-132612577D01*
X119473134Y-132197611D01*
X119268892Y-132100947D01*
X119652577Y-131844577D01*
X119969740Y-131369909D01*
X120081113Y-130810000D01*
X119969740Y-130250091D01*
X119652577Y-129775423D01*
X119300242Y-129540000D01*
X119652577Y-129304577D01*
X119969740Y-128829909D01*
X120081113Y-128270000D01*
X119969740Y-127710091D01*
X119652577Y-127235423D01*
X119300242Y-127000000D01*
X119652577Y-126764577D01*
X119969740Y-126289909D01*
X120081113Y-125730000D01*
X119969740Y-125170091D01*
X119652577Y-124695423D01*
X119300242Y-124460000D01*
X119652577Y-124224577D01*
X119969740Y-123749909D01*
X120081113Y-123190000D01*
X119969740Y-122630091D01*
X119652577Y-122155423D01*
X119300242Y-121920000D01*
X119652577Y-121684577D01*
X119969740Y-121209909D01*
X120081113Y-120650000D01*
X119969740Y-120090091D01*
X119652577Y-119615423D01*
X119300242Y-119380000D01*
X119652577Y-119144577D01*
X119969740Y-118669909D01*
X120081113Y-118110000D01*
X119969740Y-117550091D01*
X119652577Y-117075423D01*
X119531894Y-116994785D01*
X119665765Y-116968157D01*
X119875809Y-116827809D01*
X120016157Y-116617765D01*
X120065440Y-116370000D01*
X120065440Y-115570000D01*
X124774887Y-115570000D01*
X124886260Y-116129909D01*
X125203423Y-116604577D01*
X125555758Y-116840000D01*
X125203423Y-117075423D01*
X124886260Y-117550091D01*
X124774887Y-118110000D01*
X124886260Y-118669909D01*
X125203423Y-119144577D01*
X125555758Y-119380000D01*
X125203423Y-119615423D01*
X124886260Y-120090091D01*
X124774887Y-120650000D01*
X124886260Y-121209909D01*
X125203423Y-121684577D01*
X125555758Y-121920000D01*
X125203423Y-122155423D01*
X124886260Y-122630091D01*
X124774887Y-123190000D01*
X124886260Y-123749909D01*
X125203423Y-124224577D01*
X125587108Y-124480947D01*
X125382866Y-124577611D01*
X125006959Y-124992577D01*
X124846096Y-125380961D01*
X124968085Y-125603000D01*
X126111000Y-125603000D01*
X126111000Y-125583000D01*
X126365000Y-125583000D01*
X126365000Y-125603000D01*
X126385000Y-125603000D01*
X126385000Y-125857000D01*
X126365000Y-125857000D01*
X126365000Y-125877000D01*
X126111000Y-125877000D01*
X126111000Y-125857000D01*
X124968085Y-125857000D01*
X124846096Y-126079039D01*
X125006959Y-126467423D01*
X125382866Y-126882389D01*
X125529954Y-126952003D01*
X125514989Y-127027242D01*
X125203423Y-127235423D01*
X124886260Y-127710091D01*
X124774887Y-128270000D01*
X124886260Y-128829909D01*
X125203423Y-129304577D01*
X125524555Y-129519150D01*
X125514989Y-129567242D01*
X125203423Y-129775423D01*
X124886260Y-130250091D01*
X124774887Y-130810000D01*
X124886260Y-131369909D01*
X125203423Y-131844577D01*
X125555758Y-132080000D01*
X125203423Y-132315423D01*
X124886260Y-132790091D01*
X124774887Y-133350000D01*
X124886260Y-133909909D01*
X125203423Y-134384577D01*
X125678091Y-134701740D01*
X126096667Y-134785000D01*
X126379333Y-134785000D01*
X126797909Y-134701740D01*
X127272577Y-134384577D01*
X127589740Y-133909909D01*
X127701113Y-133350000D01*
X127589740Y-132790091D01*
X127272577Y-132315423D01*
X126920242Y-132080000D01*
X127272577Y-131844577D01*
X127589740Y-131369909D01*
X127701113Y-130810000D01*
X127589740Y-130250091D01*
X127303623Y-129821886D01*
X131395509Y-125730000D01*
X138109887Y-125730000D01*
X138221260Y-126289909D01*
X138538423Y-126764577D01*
X139013091Y-127081740D01*
X139431667Y-127165000D01*
X139714333Y-127165000D01*
X140132909Y-127081740D01*
X140607577Y-126764577D01*
X140924740Y-126289909D01*
X141036113Y-125730000D01*
X140924740Y-125170091D01*
X140607577Y-124695423D01*
X140132909Y-124378260D01*
X139714333Y-124295000D01*
X139431667Y-124295000D01*
X139013091Y-124378260D01*
X138538423Y-124695423D01*
X138221260Y-125170091D01*
X138109887Y-125730000D01*
X131395509Y-125730000D01*
X133224310Y-123901200D01*
X133490776Y-123901200D01*
X133985561Y-123696254D01*
X134364254Y-123317561D01*
X134569200Y-122822776D01*
X134569200Y-122287224D01*
X134364254Y-121792439D01*
X133985561Y-121413746D01*
X133490776Y-121208800D01*
X133376910Y-121208800D01*
X133692561Y-120893149D01*
X133754058Y-120852058D01*
X133795149Y-120790561D01*
X133795151Y-120790559D01*
X133916861Y-120608407D01*
X133944291Y-120470506D01*
X133959600Y-120393544D01*
X133959600Y-120393541D01*
X133974029Y-120321000D01*
X133959600Y-120248460D01*
X133959600Y-118627007D01*
X133985561Y-118616254D01*
X134364254Y-118237561D01*
X134371292Y-118220569D01*
X142443201Y-126292479D01*
X142443200Y-130118204D01*
X142302570Y-130212170D01*
X142113000Y-130495881D01*
X141923430Y-130212170D01*
X141427724Y-129880950D01*
X140843000Y-129764641D01*
X140258275Y-129880950D01*
X139762570Y-130212170D01*
X139573000Y-130495881D01*
X139383430Y-130212170D01*
X138887724Y-129880950D01*
X138303000Y-129764641D01*
X137718275Y-129880950D01*
X137222570Y-130212170D01*
X137033000Y-130495881D01*
X136843430Y-130212170D01*
X136347724Y-129880950D01*
X135763000Y-129764641D01*
X135178275Y-129880950D01*
X134682570Y-130212170D01*
X134493000Y-130495881D01*
X134303430Y-130212170D01*
X133807724Y-129880950D01*
X133223000Y-129764641D01*
X132638275Y-129880950D01*
X132142570Y-130212170D01*
X131811350Y-130707876D01*
X131724400Y-131145003D01*
X131724400Y-131744998D01*
X131811350Y-132182125D01*
X132142570Y-132677830D01*
X132638276Y-133009050D01*
X133223000Y-133125359D01*
X133807725Y-133009050D01*
X134303430Y-132677830D01*
X134493000Y-132394119D01*
X134682570Y-132677830D01*
X135178276Y-133009050D01*
X135763000Y-133125359D01*
X136347725Y-133009050D01*
X136843430Y-132677830D01*
X137033000Y-132394119D01*
X137222570Y-132677830D01*
X137718276Y-133009050D01*
X138303000Y-133125359D01*
X138887725Y-133009050D01*
X139383430Y-132677830D01*
X139573000Y-132394119D01*
X139762570Y-132677830D01*
X140258276Y-133009050D01*
X140843000Y-133125359D01*
X141427725Y-133009050D01*
X141923430Y-132677830D01*
X142113000Y-132394119D01*
X142302570Y-132677830D01*
X142798276Y-133009050D01*
X143383000Y-133125359D01*
X143967725Y-133009050D01*
X144463430Y-132677830D01*
X144656909Y-132388267D01*
X145020964Y-132795732D01*
X145548209Y-133049709D01*
X145563974Y-133052358D01*
X145796000Y-132931217D01*
X145796000Y-131572000D01*
X146050000Y-131572000D01*
X146050000Y-132931217D01*
X146282026Y-133052358D01*
X146297791Y-133049709D01*
X146825036Y-132795732D01*
X147193000Y-132383892D01*
X147560964Y-132795732D01*
X148088209Y-133049709D01*
X148103974Y-133052358D01*
X148336000Y-132931217D01*
X148336000Y-131572000D01*
X146050000Y-131572000D01*
X145796000Y-131572000D01*
X145776000Y-131572000D01*
X145776000Y-131318000D01*
X145796000Y-131318000D01*
X145796000Y-129958783D01*
X146050000Y-129958783D01*
X146050000Y-131318000D01*
X148336000Y-131318000D01*
X148336000Y-129958783D01*
X148103974Y-129837642D01*
X148088209Y-129840291D01*
X147560964Y-130094268D01*
X147193000Y-130506108D01*
X146825036Y-130094268D01*
X146297791Y-129840291D01*
X146282026Y-129837642D01*
X146050000Y-129958783D01*
X145796000Y-129958783D01*
X145563974Y-129837642D01*
X145548209Y-129840291D01*
X145020964Y-130094268D01*
X144656910Y-130501732D01*
X144463430Y-130212170D01*
X144322800Y-130118204D01*
X144322800Y-125995754D01*
X144341210Y-125903200D01*
X144322800Y-125810646D01*
X144322800Y-125810641D01*
X144268272Y-125536509D01*
X144118923Y-125312993D01*
X144112988Y-125304110D01*
X144112986Y-125304108D01*
X144060557Y-125225643D01*
X143982092Y-125173214D01*
X133779788Y-114970911D01*
X133727357Y-114892443D01*
X133416491Y-114684728D01*
X133142359Y-114630200D01*
X133142354Y-114630200D01*
X133049800Y-114611790D01*
X132957246Y-114630200D01*
X127335905Y-114630200D01*
X127272577Y-114535423D01*
X126797909Y-114218260D01*
X126379333Y-114135000D01*
X126096667Y-114135000D01*
X125678091Y-114218260D01*
X125203423Y-114535423D01*
X124886260Y-115010091D01*
X124774887Y-115570000D01*
X120065440Y-115570000D01*
X120065440Y-114770000D01*
X120016157Y-114522235D01*
X119875809Y-114312191D01*
X119665765Y-114171843D01*
X119418000Y-114122560D01*
X117818000Y-114122560D01*
X117570235Y-114171843D01*
X117360191Y-114312191D01*
X117219843Y-114522235D01*
X117170560Y-114770000D01*
X117170560Y-116049457D01*
X117045745Y-116011861D01*
X116217605Y-116840000D01*
X115858395Y-116840000D01*
X115030255Y-116011861D01*
X114784136Y-116085995D01*
X114781710Y-116092746D01*
X114754534Y-116027138D01*
X114559651Y-115832255D01*
X115209861Y-115832255D01*
X116038000Y-116660395D01*
X116866139Y-115832255D01*
X116792005Y-115586136D01*
X116254777Y-115393035D01*
X115684546Y-115420222D01*
X115283995Y-115586136D01*
X115209861Y-115832255D01*
X114559651Y-115832255D01*
X114350862Y-115623466D01*
X113823439Y-115405000D01*
X113252561Y-115405000D01*
X112725138Y-115623466D01*
X112321466Y-116027138D01*
X112267606Y-116157168D01*
X112032577Y-115805423D01*
X111680242Y-115570000D01*
X112032577Y-115334577D01*
X112349740Y-114859909D01*
X112461113Y-114300000D01*
X112349740Y-113740091D01*
X112124333Y-113402745D01*
X121004861Y-113402745D01*
X121078995Y-113648864D01*
X121616223Y-113841965D01*
X122186454Y-113814778D01*
X122587005Y-113648864D01*
X122661139Y-113402745D01*
X121833000Y-112574605D01*
X121004861Y-113402745D01*
X112124333Y-113402745D01*
X112063623Y-113311886D01*
X113197286Y-112178223D01*
X120386035Y-112178223D01*
X120413222Y-112748454D01*
X120579136Y-113149005D01*
X120825255Y-113223139D01*
X121653395Y-112395000D01*
X120825255Y-111566861D01*
X120579136Y-111640995D01*
X120386035Y-112178223D01*
X113197286Y-112178223D01*
X115171470Y-110204039D01*
X117226096Y-110204039D01*
X117386959Y-110592423D01*
X117762866Y-111007389D01*
X118268959Y-111246914D01*
X118491000Y-111125629D01*
X118491000Y-109982000D01*
X118745000Y-109982000D01*
X118745000Y-111125629D01*
X118967041Y-111246914D01*
X119473134Y-111007389D01*
X119849041Y-110592423D01*
X120009904Y-110204039D01*
X119887915Y-109982000D01*
X118745000Y-109982000D01*
X118491000Y-109982000D01*
X117348085Y-109982000D01*
X117226096Y-110204039D01*
X115171470Y-110204039D01*
X117360124Y-108015386D01*
X117583423Y-108349577D01*
X117967108Y-108605947D01*
X117762866Y-108702611D01*
X117386959Y-109117577D01*
X117226096Y-109505961D01*
X117348085Y-109728000D01*
X118491000Y-109728000D01*
X118491000Y-109708000D01*
X118745000Y-109708000D01*
X118745000Y-109728000D01*
X119887915Y-109728000D01*
X120009904Y-109505961D01*
X119935681Y-109326758D01*
X121579384Y-110970462D01*
X121479546Y-110975222D01*
X121078995Y-111141136D01*
X121004861Y-111387255D01*
X121833000Y-112215395D01*
X121847142Y-112201252D01*
X122026748Y-112380858D01*
X122012605Y-112395000D01*
X122840745Y-113223139D01*
X123086864Y-113149005D01*
X123089290Y-113142254D01*
X123116466Y-113207862D01*
X123520138Y-113611534D01*
X124047561Y-113830000D01*
X124618439Y-113830000D01*
X125145862Y-113611534D01*
X125549534Y-113207862D01*
X125768000Y-112680439D01*
X125768000Y-112109561D01*
X125549534Y-111582138D01*
X125145862Y-111178466D01*
X124618439Y-110960000D01*
X124227078Y-110960000D01*
X120959600Y-107692523D01*
X120959600Y-105164277D01*
X124541293Y-101582585D01*
X124619757Y-101530157D01*
X124685239Y-101432158D01*
X124827471Y-101219293D01*
X124827471Y-101219292D01*
X124827472Y-101219291D01*
X124882000Y-100945159D01*
X124882000Y-100945155D01*
X124900410Y-100852601D01*
X124882000Y-100760047D01*
X124882000Y-100233493D01*
X124886260Y-100254909D01*
X125203423Y-100729577D01*
X125555758Y-100965000D01*
X125203423Y-101200423D01*
X124886260Y-101675091D01*
X124774887Y-102235000D01*
X124886260Y-102794909D01*
X125203423Y-103269577D01*
X125555758Y-103505000D01*
X125203423Y-103740423D01*
X124886260Y-104215091D01*
X124774887Y-104775000D01*
X124886260Y-105334909D01*
X125203423Y-105809577D01*
X125555758Y-106045000D01*
X125203423Y-106280423D01*
X124886260Y-106755091D01*
X124774887Y-107315000D01*
X124886260Y-107874909D01*
X125203423Y-108349577D01*
X125555758Y-108585000D01*
X125203423Y-108820423D01*
X124886260Y-109295091D01*
X124774887Y-109855000D01*
X124886260Y-110414909D01*
X125203423Y-110889577D01*
X125678091Y-111206740D01*
X126096667Y-111290000D01*
X126379333Y-111290000D01*
X126797909Y-111206740D01*
X127272577Y-110889577D01*
X127471679Y-110591600D01*
X130079960Y-110591600D01*
X130152500Y-110606029D01*
X130225040Y-110591600D01*
X130225044Y-110591600D01*
X130439907Y-110548861D01*
X130683558Y-110386058D01*
X130724651Y-110324558D01*
X132092987Y-108956223D01*
X132142570Y-109030430D01*
X132426281Y-109220000D01*
X132142570Y-109409570D01*
X131811350Y-109905275D01*
X131695041Y-110490000D01*
X131811350Y-111074725D01*
X132142570Y-111570430D01*
X132638275Y-111901650D01*
X133075402Y-111988600D01*
X133370598Y-111988600D01*
X133807725Y-111901650D01*
X134303430Y-111570430D01*
X134493000Y-111286719D01*
X134682570Y-111570430D01*
X135178275Y-111901650D01*
X135615402Y-111988600D01*
X135910598Y-111988600D01*
X136347725Y-111901650D01*
X136843430Y-111570430D01*
X137174650Y-111074725D01*
X137290959Y-110490000D01*
X137174650Y-109905275D01*
X136843430Y-109409570D01*
X136559719Y-109220000D01*
X136843430Y-109030430D01*
X137174650Y-108534725D01*
X137290959Y-107950000D01*
X137174650Y-107365275D01*
X136843430Y-106869570D01*
X136559719Y-106680000D01*
X136843430Y-106490430D01*
X137174650Y-105994725D01*
X137290959Y-105410000D01*
X137174650Y-104825275D01*
X136843430Y-104329570D01*
X136559719Y-104140000D01*
X136843430Y-103950430D01*
X137174650Y-103454725D01*
X137290959Y-102870000D01*
X137174650Y-102285275D01*
X136843430Y-101789570D01*
X136559719Y-101600000D01*
X136843430Y-101410430D01*
X137174650Y-100914725D01*
X137290959Y-100330000D01*
X137174650Y-99745275D01*
X136843430Y-99249570D01*
X136559719Y-99060000D01*
X136843430Y-98870430D01*
X137174650Y-98374725D01*
X137290959Y-97790000D01*
X137174650Y-97205275D01*
X136843430Y-96709570D01*
X136559719Y-96520000D01*
X136843430Y-96330430D01*
X137174650Y-95834725D01*
X137290959Y-95250000D01*
X137174650Y-94665275D01*
X136843430Y-94169570D01*
X136559719Y-93980000D01*
X136843430Y-93790430D01*
X137094648Y-93414457D01*
X137969900Y-94289709D01*
X137969901Y-112868055D01*
X137955471Y-112940600D01*
X138012639Y-113228006D01*
X138134349Y-113410158D01*
X138134352Y-113410161D01*
X138175443Y-113471658D01*
X138236940Y-113512749D01*
X138984658Y-114260467D01*
X138760138Y-114353466D01*
X138356466Y-114757138D01*
X138138000Y-115284561D01*
X138138000Y-115855439D01*
X138356466Y-116382862D01*
X138760138Y-116786534D01*
X139287561Y-117005000D01*
X139858439Y-117005000D01*
X140385862Y-116786534D01*
X140789534Y-116382862D01*
X140882533Y-116158343D01*
X145166400Y-120442210D01*
X145166401Y-121849425D01*
X144938439Y-121755000D01*
X144367561Y-121755000D01*
X143840138Y-121973466D01*
X143436466Y-122377138D01*
X143218000Y-122904561D01*
X143218000Y-123475439D01*
X143436466Y-124002862D01*
X143840138Y-124406534D01*
X144367561Y-124625000D01*
X144938439Y-124625000D01*
X145465862Y-124406534D01*
X145603143Y-124269253D01*
X151122252Y-129788362D01*
X151003000Y-129764641D01*
X150418275Y-129880950D01*
X149922570Y-130212170D01*
X149729091Y-130501733D01*
X149365036Y-130094268D01*
X148837791Y-129840291D01*
X148822026Y-129837642D01*
X148590000Y-129958783D01*
X148590000Y-131318000D01*
X148610000Y-131318000D01*
X148610000Y-131572000D01*
X148590000Y-131572000D01*
X148590000Y-132931217D01*
X148822026Y-133052358D01*
X148837791Y-133049709D01*
X149365036Y-132795732D01*
X149729090Y-132388268D01*
X149922570Y-132677830D01*
X150418276Y-133009050D01*
X151003000Y-133125359D01*
X151587725Y-133009050D01*
X152083430Y-132677830D01*
X152414650Y-132182124D01*
X152501600Y-131744997D01*
X152501600Y-131167710D01*
X154582351Y-133248461D01*
X154623442Y-133309958D01*
X154684939Y-133351049D01*
X154684941Y-133351051D01*
X154805701Y-133431740D01*
X154867093Y-133472761D01*
X155081956Y-133515500D01*
X155081959Y-133515500D01*
X155154500Y-133529929D01*
X155227040Y-133515500D01*
X166687560Y-133515500D01*
X166760100Y-133529929D01*
X166832640Y-133515500D01*
X166832644Y-133515500D01*
X167047507Y-133472761D01*
X167291158Y-133309958D01*
X167332251Y-133248458D01*
X167822647Y-132758063D01*
X168198276Y-133009050D01*
X168783000Y-133125359D01*
X169367725Y-133009050D01*
X169703785Y-132784501D01*
X172866000Y-132784501D01*
X172866000Y-133845499D01*
X173272026Y-134825734D01*
X174022266Y-135575974D01*
X175002501Y-135982000D01*
X176063499Y-135982000D01*
X177043734Y-135575974D01*
X177793974Y-134825734D01*
X178200000Y-133845499D01*
X178200000Y-132784501D01*
X177793974Y-131804266D01*
X177043734Y-131054026D01*
X176063499Y-130648000D01*
X175002501Y-130648000D01*
X174022266Y-131054026D01*
X173272026Y-131804266D01*
X172866000Y-132784501D01*
X169703785Y-132784501D01*
X169863430Y-132677830D01*
X170194650Y-132182124D01*
X170281600Y-131744997D01*
X170281600Y-131145002D01*
X170194650Y-130707875D01*
X169863430Y-130212170D01*
X169367724Y-129880950D01*
X168783000Y-129764641D01*
X168198275Y-129880950D01*
X167702570Y-130212170D01*
X167513000Y-130495881D01*
X167323430Y-130212170D01*
X166827724Y-129880950D01*
X166243000Y-129764641D01*
X165658275Y-129880950D01*
X165162570Y-130212170D01*
X164973000Y-130495881D01*
X164783430Y-130212170D01*
X164287724Y-129880950D01*
X163703000Y-129764641D01*
X163118275Y-129880950D01*
X162622570Y-130212170D01*
X162433000Y-130495881D01*
X162243430Y-130212170D01*
X161899600Y-129982430D01*
X161899600Y-109630840D01*
X161914029Y-109558300D01*
X161899600Y-109485757D01*
X161899600Y-109485756D01*
X161856861Y-109270893D01*
X161801503Y-109188044D01*
X161735151Y-109088741D01*
X161735149Y-109088739D01*
X161694058Y-109027242D01*
X161632561Y-108986151D01*
X157144978Y-104498569D01*
X157434740Y-104064909D01*
X157546113Y-103505000D01*
X157434740Y-102945091D01*
X157117577Y-102470423D01*
X156806011Y-102262242D01*
X156796445Y-102214150D01*
X157117577Y-101999577D01*
X157434740Y-101524909D01*
X157546113Y-100965000D01*
X157434740Y-100405091D01*
X157117577Y-99930423D01*
X156806011Y-99722242D01*
X156791046Y-99647003D01*
X156938134Y-99577389D01*
X157314041Y-99162423D01*
X157474904Y-98774039D01*
X157352915Y-98552000D01*
X156210000Y-98552000D01*
X156210000Y-98572000D01*
X155956000Y-98572000D01*
X155956000Y-98552000D01*
X155936000Y-98552000D01*
X155936000Y-98298000D01*
X155956000Y-98298000D01*
X155956000Y-98278000D01*
X156210000Y-98278000D01*
X156210000Y-98298000D01*
X157352915Y-98298000D01*
X157474904Y-98075961D01*
X157314041Y-97687577D01*
X156938134Y-97272611D01*
X156733892Y-97175947D01*
X157117577Y-96919577D01*
X157434740Y-96444909D01*
X157546113Y-95885000D01*
X157434740Y-95325091D01*
X157117577Y-94850423D01*
X156765242Y-94615000D01*
X157117577Y-94379577D01*
X157434740Y-93904909D01*
X157546113Y-93345000D01*
X157434740Y-92785091D01*
X157117577Y-92310423D01*
X156996894Y-92229785D01*
X157130765Y-92203157D01*
X157340809Y-92062809D01*
X157481157Y-91852765D01*
X157530440Y-91605000D01*
X157530440Y-90005000D01*
X157481157Y-89757235D01*
X157340809Y-89547191D01*
X157304727Y-89523082D01*
X159033586Y-87794223D01*
X165344035Y-87794223D01*
X165371222Y-88364454D01*
X165537136Y-88765005D01*
X165783255Y-88839139D01*
X166611395Y-88011000D01*
X165783255Y-87182861D01*
X165537136Y-87256995D01*
X165344035Y-87794223D01*
X159033586Y-87794223D01*
X159092558Y-87735251D01*
X159154058Y-87694158D01*
X159316861Y-87450507D01*
X159359600Y-87235644D01*
X159359600Y-87235640D01*
X159374029Y-87163101D01*
X159359600Y-87090562D01*
X159359600Y-84647570D01*
X159703430Y-84417830D01*
X159893000Y-84134119D01*
X160082570Y-84417830D01*
X160578276Y-84749050D01*
X161163000Y-84865359D01*
X161747725Y-84749050D01*
X162243430Y-84417830D01*
X162433000Y-84134119D01*
X162622570Y-84417830D01*
X163118276Y-84749050D01*
X163703000Y-84865359D01*
X164253457Y-84755866D01*
X164296349Y-84820058D01*
X164296352Y-84820061D01*
X164337443Y-84881558D01*
X164398940Y-84922649D01*
X166175893Y-86699602D01*
X166036995Y-86757136D01*
X165962861Y-87003255D01*
X166791000Y-87831395D01*
X166805142Y-87817252D01*
X166984748Y-87996858D01*
X166970605Y-88011000D01*
X166984748Y-88025143D01*
X166805142Y-88204748D01*
X166791000Y-88190605D01*
X165962861Y-89018745D01*
X166036995Y-89264864D01*
X166574223Y-89457965D01*
X167144454Y-89430778D01*
X167161700Y-89423634D01*
X167161701Y-93985255D01*
X167147271Y-94057800D01*
X167204439Y-94345206D01*
X167326149Y-94527358D01*
X167326152Y-94527361D01*
X167367243Y-94588858D01*
X167428740Y-94629949D01*
X170248685Y-97449895D01*
X169971260Y-97865091D01*
X169859887Y-98425000D01*
X169971260Y-98984909D01*
X170257978Y-99414012D01*
X169343040Y-100328951D01*
X169281543Y-100370042D01*
X169240452Y-100431539D01*
X169240449Y-100431542D01*
X169118739Y-100613694D01*
X169061571Y-100901100D01*
X169076001Y-100973645D01*
X169076000Y-106128560D01*
X169061571Y-106201100D01*
X169076000Y-106273640D01*
X169076000Y-106273643D01*
X169118739Y-106488506D01*
X169281542Y-106732158D01*
X169343042Y-106773251D01*
X170221048Y-107651257D01*
X169971260Y-108025091D01*
X169859887Y-108585000D01*
X169971260Y-109144909D01*
X170288423Y-109619577D01*
X170640758Y-109855000D01*
X170288423Y-110090423D01*
X169971260Y-110565091D01*
X169859887Y-111125000D01*
X169971260Y-111684909D01*
X170288423Y-112159577D01*
X170609555Y-112374150D01*
X170599989Y-112422242D01*
X170288423Y-112630423D01*
X169971260Y-113105091D01*
X169859887Y-113665000D01*
X169971260Y-114224909D01*
X170288423Y-114699577D01*
X170640758Y-114935000D01*
X170288423Y-115170423D01*
X169971260Y-115645091D01*
X169859887Y-116205000D01*
X169971260Y-116764909D01*
X170288423Y-117239577D01*
X170609555Y-117454150D01*
X170599989Y-117502242D01*
X170288423Y-117710423D01*
X169971260Y-118185091D01*
X169859887Y-118745000D01*
X169971260Y-119304909D01*
X170288423Y-119779577D01*
X170640758Y-120015000D01*
X170288423Y-120250423D01*
X169971260Y-120725091D01*
X169859887Y-121285000D01*
X169971260Y-121844909D01*
X170288423Y-122319577D01*
X170640758Y-122555000D01*
X170288423Y-122790423D01*
X169971260Y-123265091D01*
X169859887Y-123825000D01*
X169971260Y-124384909D01*
X170288423Y-124859577D01*
X170763091Y-125176740D01*
X171181667Y-125260000D01*
X171464333Y-125260000D01*
X171882909Y-125176740D01*
X172357577Y-124859577D01*
X172674740Y-124384909D01*
X172786113Y-123825000D01*
X172674740Y-123265091D01*
X172357577Y-122790423D01*
X172005242Y-122555000D01*
X172357577Y-122319577D01*
X172674740Y-121844909D01*
X172786113Y-121285000D01*
X172674740Y-120725091D01*
X172357577Y-120250423D01*
X172005242Y-120015000D01*
X172357577Y-119779577D01*
X172674740Y-119304909D01*
X172786113Y-118745000D01*
X172674740Y-118185091D01*
X172388623Y-117756886D01*
X177507558Y-112637951D01*
X177569058Y-112596858D01*
X177731861Y-112353207D01*
X177774600Y-112138344D01*
X177774600Y-112138341D01*
X177789029Y-112065801D01*
X177774600Y-111993260D01*
X177774600Y-104916754D01*
X177775125Y-104916650D01*
X178270830Y-104585430D01*
X178602050Y-104089725D01*
X178718359Y-103505000D01*
X178602050Y-102920275D01*
X178270830Y-102424570D01*
X177987119Y-102235000D01*
X178270830Y-102045430D01*
X178602050Y-101549725D01*
X178718359Y-100965000D01*
X178602050Y-100380275D01*
X178270830Y-99884570D01*
X177987119Y-99695000D01*
X178270830Y-99505430D01*
X178602050Y-99009725D01*
X178718359Y-98425000D01*
X178602050Y-97840275D01*
X178270830Y-97344570D01*
X177987119Y-97155000D01*
X178270830Y-96965430D01*
X178602050Y-96469725D01*
X178718359Y-95885000D01*
X178602050Y-95300275D01*
X178270830Y-94804570D01*
X177987119Y-94615000D01*
X178270830Y-94425430D01*
X178602050Y-93929725D01*
X178718359Y-93345000D01*
X178602050Y-92760275D01*
X178271633Y-92265772D01*
X178413698Y-92206927D01*
X178592327Y-92028299D01*
X178689000Y-91794910D01*
X178689000Y-91090750D01*
X178530250Y-90932000D01*
X177165000Y-90932000D01*
X177165000Y-90952000D01*
X176911000Y-90952000D01*
X176911000Y-90932000D01*
X175545750Y-90932000D01*
X175387000Y-91090750D01*
X175387000Y-91794910D01*
X175483673Y-92028299D01*
X175662302Y-92206927D01*
X175804367Y-92265772D01*
X175473950Y-92760275D01*
X175357641Y-93345000D01*
X175473950Y-93929725D01*
X175724937Y-94305353D01*
X173566100Y-96464191D01*
X173566100Y-89815090D01*
X175387000Y-89815090D01*
X175387000Y-90519250D01*
X175545750Y-90678000D01*
X176911000Y-90678000D01*
X176911000Y-89465150D01*
X177165000Y-89465150D01*
X177165000Y-90678000D01*
X178530250Y-90678000D01*
X178689000Y-90519250D01*
X178689000Y-89815090D01*
X178592327Y-89581701D01*
X178413698Y-89403073D01*
X178180309Y-89306400D01*
X177323750Y-89306400D01*
X177165000Y-89465150D01*
X176911000Y-89465150D01*
X176752250Y-89306400D01*
X175895691Y-89306400D01*
X175662302Y-89403073D01*
X175483673Y-89581701D01*
X175387000Y-89815090D01*
X173566100Y-89815090D01*
X173566100Y-83263668D01*
X173863000Y-83322725D01*
X174315608Y-83232695D01*
X174498000Y-83110825D01*
X174680391Y-83232695D01*
X175133000Y-83322725D01*
X175585608Y-83232695D01*
X175586984Y-83231776D01*
X175751691Y-83300000D01*
X176117250Y-83300000D01*
X176276000Y-83141250D01*
X176276000Y-82339710D01*
X176293000Y-82254246D01*
X176293000Y-82042000D01*
X176530000Y-82042000D01*
X176530000Y-83141250D01*
X176688750Y-83300000D01*
X177054309Y-83300000D01*
X177287698Y-83203327D01*
X177466327Y-83024699D01*
X177563000Y-82791310D01*
X177563000Y-82200750D01*
X177404250Y-82042000D01*
X176530000Y-82042000D01*
X176293000Y-82042000D01*
X176293000Y-81575755D01*
X176276000Y-81490291D01*
X176276000Y-80688750D01*
X176530000Y-80688750D01*
X176530000Y-81788000D01*
X177404250Y-81788000D01*
X177563000Y-81629250D01*
X177563000Y-81038690D01*
X177466327Y-80805301D01*
X177287698Y-80626673D01*
X177054309Y-80530000D01*
X176688750Y-80530000D01*
X176530000Y-80688750D01*
X176276000Y-80688750D01*
X176117250Y-80530000D01*
X175869600Y-80530000D01*
X175869600Y-73564440D01*
X175884029Y-73491899D01*
X175869600Y-73419357D01*
X175869600Y-73419356D01*
X175826861Y-73204493D01*
X175786555Y-73144171D01*
X175705151Y-73022341D01*
X175705149Y-73022339D01*
X175664058Y-72960842D01*
X175602561Y-72919751D01*
X171686495Y-69003686D01*
X171722577Y-68979577D01*
X172039740Y-68504909D01*
X172151113Y-67945000D01*
X172039740Y-67385091D01*
X171722577Y-66910423D01*
X171489224Y-66754501D01*
X172856000Y-66754501D01*
X172856000Y-67815499D01*
X173262026Y-68795734D01*
X174012266Y-69545974D01*
X174992501Y-69952000D01*
X176053499Y-69952000D01*
X177033734Y-69545974D01*
X177783974Y-68795734D01*
X178190000Y-67815499D01*
X178190000Y-66754501D01*
X177783974Y-65774266D01*
X177033734Y-65024026D01*
X176053499Y-64618000D01*
X174992501Y-64618000D01*
X174012266Y-65024026D01*
X173262026Y-65774266D01*
X172856000Y-66754501D01*
X171489224Y-66754501D01*
X171247909Y-66593260D01*
X170829333Y-66510000D01*
X170546667Y-66510000D01*
X170128091Y-66593260D01*
X169653423Y-66910423D01*
X169336260Y-67385091D01*
X169224887Y-67945000D01*
X169336260Y-68504909D01*
X169653423Y-68979577D01*
X169964989Y-69187759D01*
X169994139Y-69334306D01*
X170115849Y-69516458D01*
X170115852Y-69516461D01*
X170156943Y-69577958D01*
X170218440Y-69619049D01*
X174396400Y-73797010D01*
X174396401Y-80651288D01*
X174315609Y-80597305D01*
X173863000Y-80507275D01*
X173566100Y-80566333D01*
X173566100Y-76340940D01*
X173580529Y-76268399D01*
X173566100Y-76195859D01*
X173566100Y-76195856D01*
X173523361Y-75980993D01*
X173514617Y-75967906D01*
X173401651Y-75798841D01*
X173401649Y-75798839D01*
X173360558Y-75737342D01*
X173299061Y-75696251D01*
X166606495Y-69003686D01*
X166642577Y-68979577D01*
X166959740Y-68504909D01*
X167071113Y-67945000D01*
X166959740Y-67385091D01*
X166642577Y-66910423D01*
X166167909Y-66593260D01*
X165749333Y-66510000D01*
X165466667Y-66510000D01*
X165048091Y-66593260D01*
X164573423Y-66910423D01*
X164256260Y-67385091D01*
X164144887Y-67945000D01*
X164256260Y-68504909D01*
X164573423Y-68979577D01*
X164884989Y-69187759D01*
X164914139Y-69334306D01*
X165035849Y-69516458D01*
X165035852Y-69516461D01*
X165076943Y-69577958D01*
X165138440Y-69619049D01*
X172092901Y-76573511D01*
X172092901Y-76901091D01*
X171717051Y-76525242D01*
X171675958Y-76463742D01*
X171432307Y-76300939D01*
X171217444Y-76258200D01*
X171217440Y-76258200D01*
X171144900Y-76243771D01*
X171072360Y-76258200D01*
X170263440Y-76258200D01*
X170190899Y-76243771D01*
X170118359Y-76258200D01*
X170118356Y-76258200D01*
X169903493Y-76300939D01*
X169659842Y-76463742D01*
X169618749Y-76525242D01*
X166878991Y-79265000D01*
X166477396Y-79265000D01*
X166824534Y-78917862D01*
X167043000Y-78390439D01*
X167043000Y-77819561D01*
X166824534Y-77292138D01*
X166420862Y-76888466D01*
X165893439Y-76670000D01*
X165322561Y-76670000D01*
X164795138Y-76888466D01*
X164391466Y-77292138D01*
X164173000Y-77819561D01*
X164173000Y-78390439D01*
X164391466Y-78917862D01*
X164783766Y-79310162D01*
X164605241Y-79429449D01*
X164605239Y-79429451D01*
X164543742Y-79470542D01*
X164502651Y-79532040D01*
X162146972Y-81887719D01*
X161747724Y-81620950D01*
X161163000Y-81504641D01*
X160578275Y-81620950D01*
X160082570Y-81952170D01*
X159893000Y-82235881D01*
X159703430Y-81952170D01*
X159207724Y-81620950D01*
X158623000Y-81504641D01*
X158038275Y-81620950D01*
X157542570Y-81952170D01*
X157353000Y-82235881D01*
X157163430Y-81952170D01*
X156667724Y-81620950D01*
X156083000Y-81504641D01*
X155498275Y-81620950D01*
X155002570Y-81952170D01*
X154813000Y-82235881D01*
X154623430Y-81952170D01*
X154127724Y-81620950D01*
X153543000Y-81504641D01*
X152958275Y-81620950D01*
X152462570Y-81952170D01*
X152273000Y-82235881D01*
X152083430Y-81952170D01*
X151587724Y-81620950D01*
X151003000Y-81504641D01*
X150418275Y-81620950D01*
X149922570Y-81952170D01*
X149811943Y-82117734D01*
X149453600Y-81759391D01*
X149453600Y-77494859D01*
X149839402Y-77571600D01*
X150134598Y-77571600D01*
X150571725Y-77484650D01*
X151067430Y-77153430D01*
X151257000Y-76869719D01*
X151446570Y-77153430D01*
X151942275Y-77484650D01*
X152379402Y-77571600D01*
X152674598Y-77571600D01*
X153111725Y-77484650D01*
X153607430Y-77153430D01*
X153797000Y-76869719D01*
X153986570Y-77153430D01*
X154482275Y-77484650D01*
X154919402Y-77571600D01*
X155214598Y-77571600D01*
X155651725Y-77484650D01*
X156147430Y-77153430D01*
X156478650Y-76657725D01*
X156594959Y-76073000D01*
X156478650Y-75488275D01*
X156147430Y-74992570D01*
X155863719Y-74803000D01*
X156147430Y-74613430D01*
X156478650Y-74117725D01*
X156594959Y-73533000D01*
X156478650Y-72948275D01*
X156147430Y-72452570D01*
X155651725Y-72121350D01*
X155214598Y-72034400D01*
X154919402Y-72034400D01*
X154482275Y-72121350D01*
X153986570Y-72452570D01*
X153797000Y-72736281D01*
X153607430Y-72452570D01*
X153111725Y-72121350D01*
X152674598Y-72034400D01*
X152379402Y-72034400D01*
X151942275Y-72121350D01*
X151446570Y-72452570D01*
X151257000Y-72736281D01*
X151067430Y-72452570D01*
X150571725Y-72121350D01*
X150134598Y-72034400D01*
X149839402Y-72034400D01*
X149402275Y-72121350D01*
X148906570Y-72452570D01*
X148717000Y-72736281D01*
X148527430Y-72452570D01*
X148031725Y-72121350D01*
X147594598Y-72034400D01*
X147299402Y-72034400D01*
X146862275Y-72121350D01*
X146501273Y-72362564D01*
X145627351Y-71488642D01*
X145586258Y-71427142D01*
X145342607Y-71264339D01*
X145127744Y-71221600D01*
X145127740Y-71221600D01*
X145055200Y-71207171D01*
X144982660Y-71221600D01*
X137590200Y-71221600D01*
X137590200Y-70969574D01*
X137425856Y-70572812D01*
X137122188Y-70269144D01*
X136725426Y-70104800D01*
X136295974Y-70104800D01*
X135899212Y-70269144D01*
X135720656Y-70447700D01*
X110076340Y-70447700D01*
X110003800Y-70433271D01*
X109931259Y-70447700D01*
X109931256Y-70447700D01*
X109716393Y-70490439D01*
X109534241Y-70612149D01*
X109534239Y-70612151D01*
X109472742Y-70653242D01*
X109431650Y-70714740D01*
X107746177Y-72400214D01*
X107581947Y-72250312D01*
X107166026Y-72078042D01*
X106934000Y-72199183D01*
X106934000Y-73406000D01*
X106954000Y-73406000D01*
X106954000Y-73660000D01*
X106934000Y-73660000D01*
X106934000Y-73680000D01*
X106680000Y-73680000D01*
X106680000Y-73660000D01*
X105472531Y-73660000D01*
X105352032Y-73892027D01*
X105600179Y-74421490D01*
X105787950Y-74592881D01*
X105695635Y-74611243D01*
X105485591Y-74751591D01*
X105345243Y-74961635D01*
X105295960Y-75209400D01*
X105295960Y-76936600D01*
X105345243Y-77184365D01*
X105485591Y-77394409D01*
X105695635Y-77534757D01*
X105943400Y-77584040D01*
X107340401Y-77584040D01*
X107340400Y-88011690D01*
X97000895Y-98351196D01*
X96989041Y-98322577D01*
X96613134Y-97907611D01*
X96408892Y-97810947D01*
X96792577Y-97554577D01*
X97109740Y-97079909D01*
X97221113Y-96520000D01*
X97109740Y-95960091D01*
X96792577Y-95485423D01*
X96440242Y-95250000D01*
X96792577Y-95014577D01*
X97109740Y-94539909D01*
X97221113Y-93980000D01*
X97109740Y-93420091D01*
X96792577Y-92945423D01*
X96471445Y-92730850D01*
X96481011Y-92682758D01*
X96792577Y-92474577D01*
X97109740Y-91999909D01*
X97221113Y-91440000D01*
X97109740Y-90880091D01*
X96792577Y-90405423D01*
X96471445Y-90190850D01*
X96481011Y-90142758D01*
X96792577Y-89934577D01*
X97109740Y-89459909D01*
X97221113Y-88900000D01*
X97109740Y-88340091D01*
X96792577Y-87865423D01*
X96471445Y-87650850D01*
X96481011Y-87602758D01*
X96792577Y-87394577D01*
X97109740Y-86919909D01*
X97221113Y-86360000D01*
X97109740Y-85800091D01*
X96792577Y-85325423D01*
X96440242Y-85090000D01*
X96792577Y-84854577D01*
X97109740Y-84379909D01*
X97221113Y-83820000D01*
X97109740Y-83260091D01*
X96792577Y-82785423D01*
X96317909Y-82468260D01*
X95899333Y-82385000D01*
X95616667Y-82385000D01*
X95198091Y-82468260D01*
X94723423Y-82785423D01*
X94406260Y-83260091D01*
X94294887Y-83820000D01*
X94406260Y-84379909D01*
X94723423Y-84854577D01*
X95075758Y-85090000D01*
X94723423Y-85325423D01*
X94406260Y-85800091D01*
X94294887Y-86360000D01*
X94406260Y-86919909D01*
X94692377Y-87348113D01*
X92251342Y-89789149D01*
X92189842Y-89830242D01*
X92148749Y-89891742D01*
X92120128Y-89934577D01*
X92027039Y-90073894D01*
X91984300Y-90288757D01*
X91984300Y-90288760D01*
X91969871Y-90361300D01*
X91984300Y-90433840D01*
X91984301Y-92404755D01*
X91805744Y-92583312D01*
X91703000Y-92831358D01*
X91703000Y-84632753D01*
X91721410Y-84540199D01*
X91703000Y-84447645D01*
X91703000Y-84447641D01*
X91648472Y-84173509D01*
X91634874Y-84153158D01*
X91493187Y-83941109D01*
X91493186Y-83941108D01*
X91440757Y-83862643D01*
X91362293Y-83810215D01*
X90891396Y-83339319D01*
X90922092Y-83185000D01*
X90806839Y-82605582D01*
X90478625Y-82114375D01*
X89987418Y-81786161D01*
X89554256Y-81700000D01*
X89261744Y-81700000D01*
X88828582Y-81786161D01*
X88337375Y-82114375D01*
X88136647Y-82414786D01*
X87749358Y-81989817D01*
X87224892Y-81743514D01*
X86995000Y-81864181D01*
X86995000Y-83058000D01*
X87015000Y-83058000D01*
X87015000Y-83312000D01*
X86995000Y-83312000D01*
X86995000Y-83332000D01*
X86741000Y-83332000D01*
X86741000Y-83312000D01*
X85547845Y-83312000D01*
X85426524Y-83541890D01*
X85596355Y-83951924D01*
X85986642Y-84380183D01*
X86116478Y-84441157D01*
X85797375Y-84654375D01*
X85469161Y-85145582D01*
X85353908Y-85725000D01*
X85432281Y-86119009D01*
X84390840Y-87160451D01*
X84329343Y-87201542D01*
X84288252Y-87263039D01*
X84288249Y-87263042D01*
X84166539Y-87445194D01*
X84109371Y-87732600D01*
X81915000Y-87732600D01*
X81915000Y-82828110D01*
X85426524Y-82828110D01*
X85547845Y-83058000D01*
X86741000Y-83058000D01*
X86741000Y-81864181D01*
X86511108Y-81743514D01*
X85986642Y-81989817D01*
X85596355Y-82418076D01*
X85426524Y-82828110D01*
X81915000Y-82828110D01*
X81915000Y-73173973D01*
X105352032Y-73173973D01*
X105472531Y-73406000D01*
X106680000Y-73406000D01*
X106680000Y-72199183D01*
X106447974Y-72078042D01*
X106032053Y-72250312D01*
X105600179Y-72644510D01*
X105352032Y-73173973D01*
X81915000Y-73173973D01*
X81915000Y-66754501D01*
X83856000Y-66754501D01*
X83856000Y-67815499D01*
X84262026Y-68795734D01*
X85012266Y-69545974D01*
X85992501Y-69952000D01*
X87053499Y-69952000D01*
X88033734Y-69545974D01*
X88783974Y-68795734D01*
X89190000Y-67815499D01*
X89190000Y-66754501D01*
X88783974Y-65774266D01*
X88033734Y-65024026D01*
X87053499Y-64618000D01*
X85992501Y-64618000D01*
X85012266Y-65024026D01*
X84262026Y-65774266D01*
X83856000Y-66754501D01*
X81915000Y-66754501D01*
X81915000Y-63575000D01*
X180086000Y-63575000D01*
X180086000Y-136906000D01*
X180086000Y-136906000D01*
G37*
X180086000Y-136906000D02*
X81915000Y-136906000D01*
X81915000Y-132754501D01*
X83846000Y-132754501D01*
X83846000Y-133815499D01*
X84252026Y-134795734D01*
X85002266Y-135545974D01*
X85982501Y-135952000D01*
X87043499Y-135952000D01*
X88023734Y-135545974D01*
X88773974Y-134795734D01*
X89180000Y-133815499D01*
X89180000Y-133699039D01*
X117226096Y-133699039D01*
X117386959Y-134087423D01*
X117762866Y-134502389D01*
X118268959Y-134741914D01*
X118491000Y-134620629D01*
X118491000Y-133477000D01*
X118745000Y-133477000D01*
X118745000Y-134620629D01*
X118967041Y-134741914D01*
X119473134Y-134502389D01*
X119849041Y-134087423D01*
X120009904Y-133699039D01*
X119887915Y-133477000D01*
X118745000Y-133477000D01*
X118491000Y-133477000D01*
X117348085Y-133477000D01*
X117226096Y-133699039D01*
X89180000Y-133699039D01*
X89180000Y-132754501D01*
X88773974Y-131774266D01*
X88023734Y-131024026D01*
X87043499Y-130618000D01*
X85982501Y-130618000D01*
X85002266Y-131024026D01*
X84252026Y-131774266D01*
X83846000Y-132754501D01*
X81915000Y-132754501D01*
X81915000Y-87732600D01*
X84109371Y-87732600D01*
X84123801Y-87805145D01*
X84123800Y-111951260D01*
X84109371Y-112023800D01*
X84123800Y-112096340D01*
X84123800Y-112096343D01*
X84166539Y-112311206D01*
X84329342Y-112554858D01*
X84390842Y-112595951D01*
X85742056Y-113947165D01*
X85469161Y-114355582D01*
X85353908Y-114935000D01*
X85469161Y-115514418D01*
X85797375Y-116005625D01*
X86095761Y-116205000D01*
X85797375Y-116404375D01*
X85469161Y-116895582D01*
X85353908Y-117475000D01*
X85469161Y-118054418D01*
X85797375Y-118545625D01*
X86095761Y-118745000D01*
X85797375Y-118944375D01*
X85469161Y-119435582D01*
X85353908Y-120015000D01*
X85469161Y-120594418D01*
X85797375Y-121085625D01*
X86095761Y-121285000D01*
X85797375Y-121484375D01*
X85469161Y-121975582D01*
X85353908Y-122555000D01*
X85469161Y-123134418D01*
X85797375Y-123625625D01*
X86288582Y-123953839D01*
X86721744Y-124040000D01*
X87014256Y-124040000D01*
X87447418Y-123953839D01*
X87938625Y-123625625D01*
X87950816Y-123607381D01*
X87959843Y-123652765D01*
X88100191Y-123862809D01*
X88310235Y-124003157D01*
X88558000Y-124052440D01*
X90258000Y-124052440D01*
X90505765Y-124003157D01*
X90715809Y-123862809D01*
X90856157Y-123652765D01*
X90905440Y-123405000D01*
X90905440Y-122891449D01*
X93919501Y-125905511D01*
X93919500Y-129941560D01*
X93905071Y-130014100D01*
X93919500Y-130086640D01*
X93919500Y-130086643D01*
X93962239Y-130301506D01*
X94125042Y-130545158D01*
X94186542Y-130586251D01*
X94692297Y-131092006D01*
X94406260Y-131520091D01*
X94294887Y-132080000D01*
X94406260Y-132639909D01*
X94723423Y-133114577D01*
X95198091Y-133431740D01*
X95616667Y-133515000D01*
X95899333Y-133515000D01*
X96317909Y-133431740D01*
X96792577Y-133114577D01*
X97109740Y-132639909D01*
X97221113Y-132080000D01*
X97109740Y-131520091D01*
X96792577Y-131045423D01*
X96481011Y-130837242D01*
X96471445Y-130789150D01*
X96792577Y-130574577D01*
X97109740Y-130099909D01*
X97221113Y-129540000D01*
X97109740Y-128980091D01*
X96792577Y-128505423D01*
X96440242Y-128270000D01*
X96792577Y-128034577D01*
X97109740Y-127559909D01*
X97221113Y-127000000D01*
X97109740Y-126440091D01*
X96792577Y-125965423D01*
X96440242Y-125730000D01*
X96792577Y-125494577D01*
X97109740Y-125019909D01*
X97221113Y-124460000D01*
X97115013Y-123926600D01*
X103240991Y-123926600D01*
X109323951Y-130009561D01*
X109365042Y-130071058D01*
X109426539Y-130112149D01*
X109426541Y-130112151D01*
X109576230Y-130212170D01*
X109608693Y-130233861D01*
X109755242Y-130263011D01*
X109963423Y-130574577D01*
X110315758Y-130810000D01*
X109963423Y-131045423D01*
X109646260Y-131520091D01*
X109534887Y-132080000D01*
X109646260Y-132639909D01*
X109963423Y-133114577D01*
X110438091Y-133431740D01*
X110856667Y-133515000D01*
X111139333Y-133515000D01*
X111557909Y-133431740D01*
X112032577Y-133114577D01*
X112349740Y-132639909D01*
X112461113Y-132080000D01*
X112349740Y-131520091D01*
X112032577Y-131045423D01*
X111680242Y-130810000D01*
X112032577Y-130574577D01*
X112349740Y-130099909D01*
X112461113Y-129540000D01*
X112349740Y-128980091D01*
X112032577Y-128505423D01*
X111680242Y-128270000D01*
X112032577Y-128034577D01*
X112349740Y-127559909D01*
X112461113Y-127000000D01*
X112349740Y-126440091D01*
X112032577Y-125965423D01*
X111680242Y-125730000D01*
X112032577Y-125494577D01*
X112349740Y-125019909D01*
X112461113Y-124460000D01*
X112349740Y-123900091D01*
X112032577Y-123425423D01*
X111680242Y-123190000D01*
X112032577Y-122954577D01*
X112349740Y-122479909D01*
X112461113Y-121920000D01*
X112349740Y-121360091D01*
X112032577Y-120885423D01*
X111680242Y-120650000D01*
X112032577Y-120414577D01*
X112095905Y-120319800D01*
X112210541Y-120319800D01*
X112303100Y-120338211D01*
X112395659Y-120319800D01*
X112669791Y-120265272D01*
X112980657Y-120057557D01*
X113188372Y-119746691D01*
X113261311Y-119380000D01*
X113242900Y-119287441D01*
X113242900Y-118464177D01*
X113432077Y-118275000D01*
X113823439Y-118275000D01*
X114350862Y-118056534D01*
X114559651Y-117847745D01*
X115209861Y-117847745D01*
X115283995Y-118093864D01*
X115821223Y-118286965D01*
X116391454Y-118259778D01*
X116792005Y-118093864D01*
X116866139Y-117847745D01*
X116038000Y-117019605D01*
X115209861Y-117847745D01*
X114559651Y-117847745D01*
X114754534Y-117652862D01*
X114781525Y-117587701D01*
X114784136Y-117594005D01*
X115030255Y-117668139D01*
X115858395Y-116840000D01*
X116217605Y-116840000D01*
X117045745Y-117668139D01*
X117255336Y-117605008D01*
X117154887Y-118110000D01*
X117266260Y-118669909D01*
X117583423Y-119144577D01*
X117935758Y-119380000D01*
X117583423Y-119615423D01*
X117266260Y-120090091D01*
X117154887Y-120650000D01*
X117266260Y-121209909D01*
X117583423Y-121684577D01*
X117935758Y-121920000D01*
X117583423Y-122155423D01*
X117266260Y-122630091D01*
X117154887Y-123190000D01*
X117266260Y-123749909D01*
X117583423Y-124224577D01*
X117935758Y-124460000D01*
X117583423Y-124695423D01*
X117266260Y-125170091D01*
X117154887Y-125730000D01*
X117266260Y-126289909D01*
X117583423Y-126764577D01*
X117935758Y-127000000D01*
X117583423Y-127235423D01*
X117266260Y-127710091D01*
X117154887Y-128270000D01*
X117266260Y-128829909D01*
X117583423Y-129304577D01*
X117935758Y-129540000D01*
X117583423Y-129775423D01*
X117266260Y-130250091D01*
X117154887Y-130810000D01*
X117266260Y-131369909D01*
X117583423Y-131844577D01*
X117967108Y-132100947D01*
X117762866Y-132197611D01*
X117386959Y-132612577D01*
X117226096Y-133000961D01*
X117348085Y-133223000D01*
X118491000Y-133223000D01*
X118491000Y-133203000D01*
X118745000Y-133203000D01*
X118745000Y-133223000D01*
X119887915Y-133223000D01*
X120009904Y-133000961D01*
X119849041Y-132612577D01*
X119473134Y-132197611D01*
X119268892Y-132100947D01*
X119652577Y-131844577D01*
X119969740Y-131369909D01*
X120081113Y-130810000D01*
X119969740Y-130250091D01*
X119652577Y-129775423D01*
X119300242Y-129540000D01*
X119652577Y-129304577D01*
X119969740Y-128829909D01*
X120081113Y-128270000D01*
X119969740Y-127710091D01*
X119652577Y-127235423D01*
X119300242Y-127000000D01*
X119652577Y-126764577D01*
X119969740Y-126289909D01*
X120081113Y-125730000D01*
X119969740Y-125170091D01*
X119652577Y-124695423D01*
X119300242Y-124460000D01*
X119652577Y-124224577D01*
X119969740Y-123749909D01*
X120081113Y-123190000D01*
X119969740Y-122630091D01*
X119652577Y-122155423D01*
X119300242Y-121920000D01*
X119652577Y-121684577D01*
X119969740Y-121209909D01*
X120081113Y-120650000D01*
X119969740Y-120090091D01*
X119652577Y-119615423D01*
X119300242Y-119380000D01*
X119652577Y-119144577D01*
X119969740Y-118669909D01*
X120081113Y-118110000D01*
X119969740Y-117550091D01*
X119652577Y-117075423D01*
X119531894Y-116994785D01*
X119665765Y-116968157D01*
X119875809Y-116827809D01*
X120016157Y-116617765D01*
X120065440Y-116370000D01*
X120065440Y-115570000D01*
X124774887Y-115570000D01*
X124886260Y-116129909D01*
X125203423Y-116604577D01*
X125555758Y-116840000D01*
X125203423Y-117075423D01*
X124886260Y-117550091D01*
X124774887Y-118110000D01*
X124886260Y-118669909D01*
X125203423Y-119144577D01*
X125555758Y-119380000D01*
X125203423Y-119615423D01*
X124886260Y-120090091D01*
X124774887Y-120650000D01*
X124886260Y-121209909D01*
X125203423Y-121684577D01*
X125555758Y-121920000D01*
X125203423Y-122155423D01*
X124886260Y-122630091D01*
X124774887Y-123190000D01*
X124886260Y-123749909D01*
X125203423Y-124224577D01*
X125587108Y-124480947D01*
X125382866Y-124577611D01*
X125006959Y-124992577D01*
X124846096Y-125380961D01*
X124968085Y-125603000D01*
X126111000Y-125603000D01*
X126111000Y-125583000D01*
X126365000Y-125583000D01*
X126365000Y-125603000D01*
X126385000Y-125603000D01*
X126385000Y-125857000D01*
X126365000Y-125857000D01*
X126365000Y-125877000D01*
X126111000Y-125877000D01*
X126111000Y-125857000D01*
X124968085Y-125857000D01*
X124846096Y-126079039D01*
X125006959Y-126467423D01*
X125382866Y-126882389D01*
X125529954Y-126952003D01*
X125514989Y-127027242D01*
X125203423Y-127235423D01*
X124886260Y-127710091D01*
X124774887Y-128270000D01*
X124886260Y-128829909D01*
X125203423Y-129304577D01*
X125524555Y-129519150D01*
X125514989Y-129567242D01*
X125203423Y-129775423D01*
X124886260Y-130250091D01*
X124774887Y-130810000D01*
X124886260Y-131369909D01*
X125203423Y-131844577D01*
X125555758Y-132080000D01*
X125203423Y-132315423D01*
X124886260Y-132790091D01*
X124774887Y-133350000D01*
X124886260Y-133909909D01*
X125203423Y-134384577D01*
X125678091Y-134701740D01*
X126096667Y-134785000D01*
X126379333Y-134785000D01*
X126797909Y-134701740D01*
X127272577Y-134384577D01*
X127589740Y-133909909D01*
X127701113Y-133350000D01*
X127589740Y-132790091D01*
X127272577Y-132315423D01*
X126920242Y-132080000D01*
X127272577Y-131844577D01*
X127589740Y-131369909D01*
X127701113Y-130810000D01*
X127589740Y-130250091D01*
X127303623Y-129821886D01*
X131395509Y-125730000D01*
X138109887Y-125730000D01*
X138221260Y-126289909D01*
X138538423Y-126764577D01*
X139013091Y-127081740D01*
X139431667Y-127165000D01*
X139714333Y-127165000D01*
X140132909Y-127081740D01*
X140607577Y-126764577D01*
X140924740Y-126289909D01*
X141036113Y-125730000D01*
X140924740Y-125170091D01*
X140607577Y-124695423D01*
X140132909Y-124378260D01*
X139714333Y-124295000D01*
X139431667Y-124295000D01*
X139013091Y-124378260D01*
X138538423Y-124695423D01*
X138221260Y-125170091D01*
X138109887Y-125730000D01*
X131395509Y-125730000D01*
X133224310Y-123901200D01*
X133490776Y-123901200D01*
X133985561Y-123696254D01*
X134364254Y-123317561D01*
X134569200Y-122822776D01*
X134569200Y-122287224D01*
X134364254Y-121792439D01*
X133985561Y-121413746D01*
X133490776Y-121208800D01*
X133376910Y-121208800D01*
X133692561Y-120893149D01*
X133754058Y-120852058D01*
X133795149Y-120790561D01*
X133795151Y-120790559D01*
X133916861Y-120608407D01*
X133944291Y-120470506D01*
X133959600Y-120393544D01*
X133959600Y-120393541D01*
X133974029Y-120321000D01*
X133959600Y-120248460D01*
X133959600Y-118627007D01*
X133985561Y-118616254D01*
X134364254Y-118237561D01*
X134371292Y-118220569D01*
X142443201Y-126292479D01*
X142443200Y-130118204D01*
X142302570Y-130212170D01*
X142113000Y-130495881D01*
X141923430Y-130212170D01*
X141427724Y-129880950D01*
X140843000Y-129764641D01*
X140258275Y-129880950D01*
X139762570Y-130212170D01*
X139573000Y-130495881D01*
X139383430Y-130212170D01*
X138887724Y-129880950D01*
X138303000Y-129764641D01*
X137718275Y-129880950D01*
X137222570Y-130212170D01*
X137033000Y-130495881D01*
X136843430Y-130212170D01*
X136347724Y-129880950D01*
X135763000Y-129764641D01*
X135178275Y-129880950D01*
X134682570Y-130212170D01*
X134493000Y-130495881D01*
X134303430Y-130212170D01*
X133807724Y-129880950D01*
X133223000Y-129764641D01*
X132638275Y-129880950D01*
X132142570Y-130212170D01*
X131811350Y-130707876D01*
X131724400Y-131145003D01*
X131724400Y-131744998D01*
X131811350Y-132182125D01*
X132142570Y-132677830D01*
X132638276Y-133009050D01*
X133223000Y-133125359D01*
X133807725Y-133009050D01*
X134303430Y-132677830D01*
X134493000Y-132394119D01*
X134682570Y-132677830D01*
X135178276Y-133009050D01*
X135763000Y-133125359D01*
X136347725Y-133009050D01*
X136843430Y-132677830D01*
X137033000Y-132394119D01*
X137222570Y-132677830D01*
X137718276Y-133009050D01*
X138303000Y-133125359D01*
X138887725Y-133009050D01*
X139383430Y-132677830D01*
X139573000Y-132394119D01*
X139762570Y-132677830D01*
X140258276Y-133009050D01*
X140843000Y-133125359D01*
X141427725Y-133009050D01*
X141923430Y-132677830D01*
X142113000Y-132394119D01*
X142302570Y-132677830D01*
X142798276Y-133009050D01*
X143383000Y-133125359D01*
X143967725Y-133009050D01*
X144463430Y-132677830D01*
X144656909Y-132388267D01*
X145020964Y-132795732D01*
X145548209Y-133049709D01*
X145563974Y-133052358D01*
X145796000Y-132931217D01*
X145796000Y-131572000D01*
X146050000Y-131572000D01*
X146050000Y-132931217D01*
X146282026Y-133052358D01*
X146297791Y-133049709D01*
X146825036Y-132795732D01*
X147193000Y-132383892D01*
X147560964Y-132795732D01*
X148088209Y-133049709D01*
X148103974Y-133052358D01*
X148336000Y-132931217D01*
X148336000Y-131572000D01*
X146050000Y-131572000D01*
X145796000Y-131572000D01*
X145776000Y-131572000D01*
X145776000Y-131318000D01*
X145796000Y-131318000D01*
X145796000Y-129958783D01*
X146050000Y-129958783D01*
X146050000Y-131318000D01*
X148336000Y-131318000D01*
X148336000Y-129958783D01*
X148103974Y-129837642D01*
X148088209Y-129840291D01*
X147560964Y-130094268D01*
X147193000Y-130506108D01*
X146825036Y-130094268D01*
X146297791Y-129840291D01*
X146282026Y-129837642D01*
X146050000Y-129958783D01*
X145796000Y-129958783D01*
X145563974Y-129837642D01*
X145548209Y-129840291D01*
X145020964Y-130094268D01*
X144656910Y-130501732D01*
X144463430Y-130212170D01*
X144322800Y-130118204D01*
X144322800Y-125995754D01*
X144341210Y-125903200D01*
X144322800Y-125810646D01*
X144322800Y-125810641D01*
X144268272Y-125536509D01*
X144118923Y-125312993D01*
X144112988Y-125304110D01*
X144112986Y-125304108D01*
X144060557Y-125225643D01*
X143982092Y-125173214D01*
X133779788Y-114970911D01*
X133727357Y-114892443D01*
X133416491Y-114684728D01*
X133142359Y-114630200D01*
X133142354Y-114630200D01*
X133049800Y-114611790D01*
X132957246Y-114630200D01*
X127335905Y-114630200D01*
X127272577Y-114535423D01*
X126797909Y-114218260D01*
X126379333Y-114135000D01*
X126096667Y-114135000D01*
X125678091Y-114218260D01*
X125203423Y-114535423D01*
X124886260Y-115010091D01*
X124774887Y-115570000D01*
X120065440Y-115570000D01*
X120065440Y-114770000D01*
X120016157Y-114522235D01*
X119875809Y-114312191D01*
X119665765Y-114171843D01*
X119418000Y-114122560D01*
X117818000Y-114122560D01*
X117570235Y-114171843D01*
X117360191Y-114312191D01*
X117219843Y-114522235D01*
X117170560Y-114770000D01*
X117170560Y-116049457D01*
X117045745Y-116011861D01*
X116217605Y-116840000D01*
X115858395Y-116840000D01*
X115030255Y-116011861D01*
X114784136Y-116085995D01*
X114781710Y-116092746D01*
X114754534Y-116027138D01*
X114559651Y-115832255D01*
X115209861Y-115832255D01*
X116038000Y-116660395D01*
X116866139Y-115832255D01*
X116792005Y-115586136D01*
X116254777Y-115393035D01*
X115684546Y-115420222D01*
X115283995Y-115586136D01*
X115209861Y-115832255D01*
X114559651Y-115832255D01*
X114350862Y-115623466D01*
X113823439Y-115405000D01*
X113252561Y-115405000D01*
X112725138Y-115623466D01*
X112321466Y-116027138D01*
X112267606Y-116157168D01*
X112032577Y-115805423D01*
X111680242Y-115570000D01*
X112032577Y-115334577D01*
X112349740Y-114859909D01*
X112461113Y-114300000D01*
X112349740Y-113740091D01*
X112124333Y-113402745D01*
X121004861Y-113402745D01*
X121078995Y-113648864D01*
X121616223Y-113841965D01*
X122186454Y-113814778D01*
X122587005Y-113648864D01*
X122661139Y-113402745D01*
X121833000Y-112574605D01*
X121004861Y-113402745D01*
X112124333Y-113402745D01*
X112063623Y-113311886D01*
X113197286Y-112178223D01*
X120386035Y-112178223D01*
X120413222Y-112748454D01*
X120579136Y-113149005D01*
X120825255Y-113223139D01*
X121653395Y-112395000D01*
X120825255Y-111566861D01*
X120579136Y-111640995D01*
X120386035Y-112178223D01*
X113197286Y-112178223D01*
X115171470Y-110204039D01*
X117226096Y-110204039D01*
X117386959Y-110592423D01*
X117762866Y-111007389D01*
X118268959Y-111246914D01*
X118491000Y-111125629D01*
X118491000Y-109982000D01*
X118745000Y-109982000D01*
X118745000Y-111125629D01*
X118967041Y-111246914D01*
X119473134Y-111007389D01*
X119849041Y-110592423D01*
X120009904Y-110204039D01*
X119887915Y-109982000D01*
X118745000Y-109982000D01*
X118491000Y-109982000D01*
X117348085Y-109982000D01*
X117226096Y-110204039D01*
X115171470Y-110204039D01*
X117360124Y-108015386D01*
X117583423Y-108349577D01*
X117967108Y-108605947D01*
X117762866Y-108702611D01*
X117386959Y-109117577D01*
X117226096Y-109505961D01*
X117348085Y-109728000D01*
X118491000Y-109728000D01*
X118491000Y-109708000D01*
X118745000Y-109708000D01*
X118745000Y-109728000D01*
X119887915Y-109728000D01*
X120009904Y-109505961D01*
X119935681Y-109326758D01*
X121579384Y-110970462D01*
X121479546Y-110975222D01*
X121078995Y-111141136D01*
X121004861Y-111387255D01*
X121833000Y-112215395D01*
X121847142Y-112201252D01*
X122026748Y-112380858D01*
X122012605Y-112395000D01*
X122840745Y-113223139D01*
X123086864Y-113149005D01*
X123089290Y-113142254D01*
X123116466Y-113207862D01*
X123520138Y-113611534D01*
X124047561Y-113830000D01*
X124618439Y-113830000D01*
X125145862Y-113611534D01*
X125549534Y-113207862D01*
X125768000Y-112680439D01*
X125768000Y-112109561D01*
X125549534Y-111582138D01*
X125145862Y-111178466D01*
X124618439Y-110960000D01*
X124227078Y-110960000D01*
X120959600Y-107692523D01*
X120959600Y-105164277D01*
X124541293Y-101582585D01*
X124619757Y-101530157D01*
X124685239Y-101432158D01*
X124827471Y-101219293D01*
X124827471Y-101219292D01*
X124827472Y-101219291D01*
X124882000Y-100945159D01*
X124882000Y-100945155D01*
X124900410Y-100852601D01*
X124882000Y-100760047D01*
X124882000Y-100233493D01*
X124886260Y-100254909D01*
X125203423Y-100729577D01*
X125555758Y-100965000D01*
X125203423Y-101200423D01*
X124886260Y-101675091D01*
X124774887Y-102235000D01*
X124886260Y-102794909D01*
X125203423Y-103269577D01*
X125555758Y-103505000D01*
X125203423Y-103740423D01*
X124886260Y-104215091D01*
X124774887Y-104775000D01*
X124886260Y-105334909D01*
X125203423Y-105809577D01*
X125555758Y-106045000D01*
X125203423Y-106280423D01*
X124886260Y-106755091D01*
X124774887Y-107315000D01*
X124886260Y-107874909D01*
X125203423Y-108349577D01*
X125555758Y-108585000D01*
X125203423Y-108820423D01*
X124886260Y-109295091D01*
X124774887Y-109855000D01*
X124886260Y-110414909D01*
X125203423Y-110889577D01*
X125678091Y-111206740D01*
X126096667Y-111290000D01*
X126379333Y-111290000D01*
X126797909Y-111206740D01*
X127272577Y-110889577D01*
X127471679Y-110591600D01*
X130079960Y-110591600D01*
X130152500Y-110606029D01*
X130225040Y-110591600D01*
X130225044Y-110591600D01*
X130439907Y-110548861D01*
X130683558Y-110386058D01*
X130724651Y-110324558D01*
X132092987Y-108956223D01*
X132142570Y-109030430D01*
X132426281Y-109220000D01*
X132142570Y-109409570D01*
X131811350Y-109905275D01*
X131695041Y-110490000D01*
X131811350Y-111074725D01*
X132142570Y-111570430D01*
X132638275Y-111901650D01*
X133075402Y-111988600D01*
X133370598Y-111988600D01*
X133807725Y-111901650D01*
X134303430Y-111570430D01*
X134493000Y-111286719D01*
X134682570Y-111570430D01*
X135178275Y-111901650D01*
X135615402Y-111988600D01*
X135910598Y-111988600D01*
X136347725Y-111901650D01*
X136843430Y-111570430D01*
X137174650Y-111074725D01*
X137290959Y-110490000D01*
X137174650Y-109905275D01*
X136843430Y-109409570D01*
X136559719Y-109220000D01*
X136843430Y-109030430D01*
X137174650Y-108534725D01*
X137290959Y-107950000D01*
X137174650Y-107365275D01*
X136843430Y-106869570D01*
X136559719Y-106680000D01*
X136843430Y-106490430D01*
X137174650Y-105994725D01*
X137290959Y-105410000D01*
X137174650Y-104825275D01*
X136843430Y-104329570D01*
X136559719Y-104140000D01*
X136843430Y-103950430D01*
X137174650Y-103454725D01*
X137290959Y-102870000D01*
X137174650Y-102285275D01*
X136843430Y-101789570D01*
X136559719Y-101600000D01*
X136843430Y-101410430D01*
X137174650Y-100914725D01*
X137290959Y-100330000D01*
X137174650Y-99745275D01*
X136843430Y-99249570D01*
X136559719Y-99060000D01*
X136843430Y-98870430D01*
X137174650Y-98374725D01*
X137290959Y-97790000D01*
X137174650Y-97205275D01*
X136843430Y-96709570D01*
X136559719Y-96520000D01*
X136843430Y-96330430D01*
X137174650Y-95834725D01*
X137290959Y-95250000D01*
X137174650Y-94665275D01*
X136843430Y-94169570D01*
X136559719Y-93980000D01*
X136843430Y-93790430D01*
X137094648Y-93414457D01*
X137969900Y-94289709D01*
X137969901Y-112868055D01*
X137955471Y-112940600D01*
X138012639Y-113228006D01*
X138134349Y-113410158D01*
X138134352Y-113410161D01*
X138175443Y-113471658D01*
X138236940Y-113512749D01*
X138984658Y-114260467D01*
X138760138Y-114353466D01*
X138356466Y-114757138D01*
X138138000Y-115284561D01*
X138138000Y-115855439D01*
X138356466Y-116382862D01*
X138760138Y-116786534D01*
X139287561Y-117005000D01*
X139858439Y-117005000D01*
X140385862Y-116786534D01*
X140789534Y-116382862D01*
X140882533Y-116158343D01*
X145166400Y-120442210D01*
X145166401Y-121849425D01*
X144938439Y-121755000D01*
X144367561Y-121755000D01*
X143840138Y-121973466D01*
X143436466Y-122377138D01*
X143218000Y-122904561D01*
X143218000Y-123475439D01*
X143436466Y-124002862D01*
X143840138Y-124406534D01*
X144367561Y-124625000D01*
X144938439Y-124625000D01*
X145465862Y-124406534D01*
X145603143Y-124269253D01*
X151122252Y-129788362D01*
X151003000Y-129764641D01*
X150418275Y-129880950D01*
X149922570Y-130212170D01*
X149729091Y-130501733D01*
X149365036Y-130094268D01*
X148837791Y-129840291D01*
X148822026Y-129837642D01*
X148590000Y-129958783D01*
X148590000Y-131318000D01*
X148610000Y-131318000D01*
X148610000Y-131572000D01*
X148590000Y-131572000D01*
X148590000Y-132931217D01*
X148822026Y-133052358D01*
X148837791Y-133049709D01*
X149365036Y-132795732D01*
X149729090Y-132388268D01*
X149922570Y-132677830D01*
X150418276Y-133009050D01*
X151003000Y-133125359D01*
X151587725Y-133009050D01*
X152083430Y-132677830D01*
X152414650Y-132182124D01*
X152501600Y-131744997D01*
X152501600Y-131167710D01*
X154582351Y-133248461D01*
X154623442Y-133309958D01*
X154684939Y-133351049D01*
X154684941Y-133351051D01*
X154805701Y-133431740D01*
X154867093Y-133472761D01*
X155081956Y-133515500D01*
X155081959Y-133515500D01*
X155154500Y-133529929D01*
X155227040Y-133515500D01*
X166687560Y-133515500D01*
X166760100Y-133529929D01*
X166832640Y-133515500D01*
X166832644Y-133515500D01*
X167047507Y-133472761D01*
X167291158Y-133309958D01*
X167332251Y-133248458D01*
X167822647Y-132758063D01*
X168198276Y-133009050D01*
X168783000Y-133125359D01*
X169367725Y-133009050D01*
X169703785Y-132784501D01*
X172866000Y-132784501D01*
X172866000Y-133845499D01*
X173272026Y-134825734D01*
X174022266Y-135575974D01*
X175002501Y-135982000D01*
X176063499Y-135982000D01*
X177043734Y-135575974D01*
X177793974Y-134825734D01*
X178200000Y-133845499D01*
X178200000Y-132784501D01*
X177793974Y-131804266D01*
X177043734Y-131054026D01*
X176063499Y-130648000D01*
X175002501Y-130648000D01*
X174022266Y-131054026D01*
X173272026Y-131804266D01*
X172866000Y-132784501D01*
X169703785Y-132784501D01*
X169863430Y-132677830D01*
X170194650Y-132182124D01*
X170281600Y-131744997D01*
X170281600Y-131145002D01*
X170194650Y-130707875D01*
X169863430Y-130212170D01*
X169367724Y-129880950D01*
X168783000Y-129764641D01*
X168198275Y-129880950D01*
X167702570Y-130212170D01*
X167513000Y-130495881D01*
X167323430Y-130212170D01*
X166827724Y-129880950D01*
X166243000Y-129764641D01*
X165658275Y-129880950D01*
X165162570Y-130212170D01*
X164973000Y-130495881D01*
X164783430Y-130212170D01*
X164287724Y-129880950D01*
X163703000Y-129764641D01*
X163118275Y-129880950D01*
X162622570Y-130212170D01*
X162433000Y-130495881D01*
X162243430Y-130212170D01*
X161899600Y-129982430D01*
X161899600Y-109630840D01*
X161914029Y-109558300D01*
X161899600Y-109485757D01*
X161899600Y-109485756D01*
X161856861Y-109270893D01*
X161801503Y-109188044D01*
X161735151Y-109088741D01*
X161735149Y-109088739D01*
X161694058Y-109027242D01*
X161632561Y-108986151D01*
X157144978Y-104498569D01*
X157434740Y-104064909D01*
X157546113Y-103505000D01*
X157434740Y-102945091D01*
X157117577Y-102470423D01*
X156806011Y-102262242D01*
X156796445Y-102214150D01*
X157117577Y-101999577D01*
X157434740Y-101524909D01*
X157546113Y-100965000D01*
X157434740Y-100405091D01*
X157117577Y-99930423D01*
X156806011Y-99722242D01*
X156791046Y-99647003D01*
X156938134Y-99577389D01*
X157314041Y-99162423D01*
X157474904Y-98774039D01*
X157352915Y-98552000D01*
X156210000Y-98552000D01*
X156210000Y-98572000D01*
X155956000Y-98572000D01*
X155956000Y-98552000D01*
X155936000Y-98552000D01*
X155936000Y-98298000D01*
X155956000Y-98298000D01*
X155956000Y-98278000D01*
X156210000Y-98278000D01*
X156210000Y-98298000D01*
X157352915Y-98298000D01*
X157474904Y-98075961D01*
X157314041Y-97687577D01*
X156938134Y-97272611D01*
X156733892Y-97175947D01*
X157117577Y-96919577D01*
X157434740Y-96444909D01*
X157546113Y-95885000D01*
X157434740Y-95325091D01*
X157117577Y-94850423D01*
X156765242Y-94615000D01*
X157117577Y-94379577D01*
X157434740Y-93904909D01*
X157546113Y-93345000D01*
X157434740Y-92785091D01*
X157117577Y-92310423D01*
X156996894Y-92229785D01*
X157130765Y-92203157D01*
X157340809Y-92062809D01*
X157481157Y-91852765D01*
X157530440Y-91605000D01*
X157530440Y-90005000D01*
X157481157Y-89757235D01*
X157340809Y-89547191D01*
X157304727Y-89523082D01*
X159033586Y-87794223D01*
X165344035Y-87794223D01*
X165371222Y-88364454D01*
X165537136Y-88765005D01*
X165783255Y-88839139D01*
X166611395Y-88011000D01*
X165783255Y-87182861D01*
X165537136Y-87256995D01*
X165344035Y-87794223D01*
X159033586Y-87794223D01*
X159092558Y-87735251D01*
X159154058Y-87694158D01*
X159316861Y-87450507D01*
X159359600Y-87235644D01*
X159359600Y-87235640D01*
X159374029Y-87163101D01*
X159359600Y-87090562D01*
X159359600Y-84647570D01*
X159703430Y-84417830D01*
X159893000Y-84134119D01*
X160082570Y-84417830D01*
X160578276Y-84749050D01*
X161163000Y-84865359D01*
X161747725Y-84749050D01*
X162243430Y-84417830D01*
X162433000Y-84134119D01*
X162622570Y-84417830D01*
X163118276Y-84749050D01*
X163703000Y-84865359D01*
X164253457Y-84755866D01*
X164296349Y-84820058D01*
X164296352Y-84820061D01*
X164337443Y-84881558D01*
X164398940Y-84922649D01*
X166175893Y-86699602D01*
X166036995Y-86757136D01*
X165962861Y-87003255D01*
X166791000Y-87831395D01*
X166805142Y-87817252D01*
X166984748Y-87996858D01*
X166970605Y-88011000D01*
X166984748Y-88025143D01*
X166805142Y-88204748D01*
X166791000Y-88190605D01*
X165962861Y-89018745D01*
X166036995Y-89264864D01*
X166574223Y-89457965D01*
X167144454Y-89430778D01*
X167161700Y-89423634D01*
X167161701Y-93985255D01*
X167147271Y-94057800D01*
X167204439Y-94345206D01*
X167326149Y-94527358D01*
X167326152Y-94527361D01*
X167367243Y-94588858D01*
X167428740Y-94629949D01*
X170248685Y-97449895D01*
X169971260Y-97865091D01*
X169859887Y-98425000D01*
X169971260Y-98984909D01*
X170257978Y-99414012D01*
X169343040Y-100328951D01*
X169281543Y-100370042D01*
X169240452Y-100431539D01*
X169240449Y-100431542D01*
X169118739Y-100613694D01*
X169061571Y-100901100D01*
X169076001Y-100973645D01*
X169076000Y-106128560D01*
X169061571Y-106201100D01*
X169076000Y-106273640D01*
X169076000Y-106273643D01*
X169118739Y-106488506D01*
X169281542Y-106732158D01*
X169343042Y-106773251D01*
X170221048Y-107651257D01*
X169971260Y-108025091D01*
X169859887Y-108585000D01*
X169971260Y-109144909D01*
X170288423Y-109619577D01*
X170640758Y-109855000D01*
X170288423Y-110090423D01*
X169971260Y-110565091D01*
X169859887Y-111125000D01*
X169971260Y-111684909D01*
X170288423Y-112159577D01*
X170609555Y-112374150D01*
X170599989Y-112422242D01*
X170288423Y-112630423D01*
X169971260Y-113105091D01*
X169859887Y-113665000D01*
X169971260Y-114224909D01*
X170288423Y-114699577D01*
X170640758Y-114935000D01*
X170288423Y-115170423D01*
X169971260Y-115645091D01*
X169859887Y-116205000D01*
X169971260Y-116764909D01*
X170288423Y-117239577D01*
X170609555Y-117454150D01*
X170599989Y-117502242D01*
X170288423Y-117710423D01*
X169971260Y-118185091D01*
X169859887Y-118745000D01*
X169971260Y-119304909D01*
X170288423Y-119779577D01*
X170640758Y-120015000D01*
X170288423Y-120250423D01*
X169971260Y-120725091D01*
X169859887Y-121285000D01*
X169971260Y-121844909D01*
X170288423Y-122319577D01*
X170640758Y-122555000D01*
X170288423Y-122790423D01*
X169971260Y-123265091D01*
X169859887Y-123825000D01*
X169971260Y-124384909D01*
X170288423Y-124859577D01*
X170763091Y-125176740D01*
X171181667Y-125260000D01*
X171464333Y-125260000D01*
X171882909Y-125176740D01*
X172357577Y-124859577D01*
X172674740Y-124384909D01*
X172786113Y-123825000D01*
X172674740Y-123265091D01*
X172357577Y-122790423D01*
X172005242Y-122555000D01*
X172357577Y-122319577D01*
X172674740Y-121844909D01*
X172786113Y-121285000D01*
X172674740Y-120725091D01*
X172357577Y-120250423D01*
X172005242Y-120015000D01*
X172357577Y-119779577D01*
X172674740Y-119304909D01*
X172786113Y-118745000D01*
X172674740Y-118185091D01*
X172388623Y-117756886D01*
X177507558Y-112637951D01*
X177569058Y-112596858D01*
X177731861Y-112353207D01*
X177774600Y-112138344D01*
X177774600Y-112138341D01*
X177789029Y-112065801D01*
X177774600Y-111993260D01*
X177774600Y-104916754D01*
X177775125Y-104916650D01*
X178270830Y-104585430D01*
X178602050Y-104089725D01*
X178718359Y-103505000D01*
X178602050Y-102920275D01*
X178270830Y-102424570D01*
X177987119Y-102235000D01*
X178270830Y-102045430D01*
X178602050Y-101549725D01*
X178718359Y-100965000D01*
X178602050Y-100380275D01*
X178270830Y-99884570D01*
X177987119Y-99695000D01*
X178270830Y-99505430D01*
X178602050Y-99009725D01*
X178718359Y-98425000D01*
X178602050Y-97840275D01*
X178270830Y-97344570D01*
X177987119Y-97155000D01*
X178270830Y-96965430D01*
X178602050Y-96469725D01*
X178718359Y-95885000D01*
X178602050Y-95300275D01*
X178270830Y-94804570D01*
X177987119Y-94615000D01*
X178270830Y-94425430D01*
X178602050Y-93929725D01*
X178718359Y-93345000D01*
X178602050Y-92760275D01*
X178271633Y-92265772D01*
X178413698Y-92206927D01*
X178592327Y-92028299D01*
X178689000Y-91794910D01*
X178689000Y-91090750D01*
X178530250Y-90932000D01*
X177165000Y-90932000D01*
X177165000Y-90952000D01*
X176911000Y-90952000D01*
X176911000Y-90932000D01*
X175545750Y-90932000D01*
X175387000Y-91090750D01*
X175387000Y-91794910D01*
X175483673Y-92028299D01*
X175662302Y-92206927D01*
X175804367Y-92265772D01*
X175473950Y-92760275D01*
X175357641Y-93345000D01*
X175473950Y-93929725D01*
X175724937Y-94305353D01*
X173566100Y-96464191D01*
X173566100Y-89815090D01*
X175387000Y-89815090D01*
X175387000Y-90519250D01*
X175545750Y-90678000D01*
X176911000Y-90678000D01*
X176911000Y-89465150D01*
X177165000Y-89465150D01*
X177165000Y-90678000D01*
X178530250Y-90678000D01*
X178689000Y-90519250D01*
X178689000Y-89815090D01*
X178592327Y-89581701D01*
X178413698Y-89403073D01*
X178180309Y-89306400D01*
X177323750Y-89306400D01*
X177165000Y-89465150D01*
X176911000Y-89465150D01*
X176752250Y-89306400D01*
X175895691Y-89306400D01*
X175662302Y-89403073D01*
X175483673Y-89581701D01*
X175387000Y-89815090D01*
X173566100Y-89815090D01*
X173566100Y-83263668D01*
X173863000Y-83322725D01*
X174315608Y-83232695D01*
X174498000Y-83110825D01*
X174680391Y-83232695D01*
X175133000Y-83322725D01*
X175585608Y-83232695D01*
X175586984Y-83231776D01*
X175751691Y-83300000D01*
X176117250Y-83300000D01*
X176276000Y-83141250D01*
X176276000Y-82339710D01*
X176293000Y-82254246D01*
X176293000Y-82042000D01*
X176530000Y-82042000D01*
X176530000Y-83141250D01*
X176688750Y-83300000D01*
X177054309Y-83300000D01*
X177287698Y-83203327D01*
X177466327Y-83024699D01*
X177563000Y-82791310D01*
X177563000Y-82200750D01*
X177404250Y-82042000D01*
X176530000Y-82042000D01*
X176293000Y-82042000D01*
X176293000Y-81575755D01*
X176276000Y-81490291D01*
X176276000Y-80688750D01*
X176530000Y-80688750D01*
X176530000Y-81788000D01*
X177404250Y-81788000D01*
X177563000Y-81629250D01*
X177563000Y-81038690D01*
X177466327Y-80805301D01*
X177287698Y-80626673D01*
X177054309Y-80530000D01*
X176688750Y-80530000D01*
X176530000Y-80688750D01*
X176276000Y-80688750D01*
X176117250Y-80530000D01*
X175869600Y-80530000D01*
X175869600Y-73564440D01*
X175884029Y-73491899D01*
X175869600Y-73419357D01*
X175869600Y-73419356D01*
X175826861Y-73204493D01*
X175786555Y-73144171D01*
X175705151Y-73022341D01*
X175705149Y-73022339D01*
X175664058Y-72960842D01*
X175602561Y-72919751D01*
X171686495Y-69003686D01*
X171722577Y-68979577D01*
X172039740Y-68504909D01*
X172151113Y-67945000D01*
X172039740Y-67385091D01*
X171722577Y-66910423D01*
X171489224Y-66754501D01*
X172856000Y-66754501D01*
X172856000Y-67815499D01*
X173262026Y-68795734D01*
X174012266Y-69545974D01*
X174992501Y-69952000D01*
X176053499Y-69952000D01*
X177033734Y-69545974D01*
X177783974Y-68795734D01*
X178190000Y-67815499D01*
X178190000Y-66754501D01*
X177783974Y-65774266D01*
X177033734Y-65024026D01*
X176053499Y-64618000D01*
X174992501Y-64618000D01*
X174012266Y-65024026D01*
X173262026Y-65774266D01*
X172856000Y-66754501D01*
X171489224Y-66754501D01*
X171247909Y-66593260D01*
X170829333Y-66510000D01*
X170546667Y-66510000D01*
X170128091Y-66593260D01*
X169653423Y-66910423D01*
X169336260Y-67385091D01*
X169224887Y-67945000D01*
X169336260Y-68504909D01*
X169653423Y-68979577D01*
X169964989Y-69187759D01*
X169994139Y-69334306D01*
X170115849Y-69516458D01*
X170115852Y-69516461D01*
X170156943Y-69577958D01*
X170218440Y-69619049D01*
X174396400Y-73797010D01*
X174396401Y-80651288D01*
X174315609Y-80597305D01*
X173863000Y-80507275D01*
X173566100Y-80566333D01*
X173566100Y-76340940D01*
X173580529Y-76268399D01*
X173566100Y-76195859D01*
X173566100Y-76195856D01*
X173523361Y-75980993D01*
X173514617Y-75967906D01*
X173401651Y-75798841D01*
X173401649Y-75798839D01*
X173360558Y-75737342D01*
X173299061Y-75696251D01*
X166606495Y-69003686D01*
X166642577Y-68979577D01*
X166959740Y-68504909D01*
X167071113Y-67945000D01*
X166959740Y-67385091D01*
X166642577Y-66910423D01*
X166167909Y-66593260D01*
X165749333Y-66510000D01*
X165466667Y-66510000D01*
X165048091Y-66593260D01*
X164573423Y-66910423D01*
X164256260Y-67385091D01*
X164144887Y-67945000D01*
X164256260Y-68504909D01*
X164573423Y-68979577D01*
X164884989Y-69187759D01*
X164914139Y-69334306D01*
X165035849Y-69516458D01*
X165035852Y-69516461D01*
X165076943Y-69577958D01*
X165138440Y-69619049D01*
X172092901Y-76573511D01*
X172092901Y-76901091D01*
X171717051Y-76525242D01*
X171675958Y-76463742D01*
X171432307Y-76300939D01*
X171217444Y-76258200D01*
X171217440Y-76258200D01*
X171144900Y-76243771D01*
X171072360Y-76258200D01*
X170263440Y-76258200D01*
X170190899Y-76243771D01*
X170118359Y-76258200D01*
X170118356Y-76258200D01*
X169903493Y-76300939D01*
X169659842Y-76463742D01*
X169618749Y-76525242D01*
X166878991Y-79265000D01*
X166477396Y-79265000D01*
X166824534Y-78917862D01*
X167043000Y-78390439D01*
X167043000Y-77819561D01*
X166824534Y-77292138D01*
X166420862Y-76888466D01*
X165893439Y-76670000D01*
X165322561Y-76670000D01*
X164795138Y-76888466D01*
X164391466Y-77292138D01*
X164173000Y-77819561D01*
X164173000Y-78390439D01*
X164391466Y-78917862D01*
X164783766Y-79310162D01*
X164605241Y-79429449D01*
X164605239Y-79429451D01*
X164543742Y-79470542D01*
X164502651Y-79532040D01*
X162146972Y-81887719D01*
X161747724Y-81620950D01*
X161163000Y-81504641D01*
X160578275Y-81620950D01*
X160082570Y-81952170D01*
X159893000Y-82235881D01*
X159703430Y-81952170D01*
X159207724Y-81620950D01*
X158623000Y-81504641D01*
X158038275Y-81620950D01*
X157542570Y-81952170D01*
X157353000Y-82235881D01*
X157163430Y-81952170D01*
X156667724Y-81620950D01*
X156083000Y-81504641D01*
X155498275Y-81620950D01*
X155002570Y-81952170D01*
X154813000Y-82235881D01*
X154623430Y-81952170D01*
X154127724Y-81620950D01*
X153543000Y-81504641D01*
X152958275Y-81620950D01*
X152462570Y-81952170D01*
X152273000Y-82235881D01*
X152083430Y-81952170D01*
X151587724Y-81620950D01*
X151003000Y-81504641D01*
X150418275Y-81620950D01*
X149922570Y-81952170D01*
X149811943Y-82117734D01*
X149453600Y-81759391D01*
X149453600Y-77494859D01*
X149839402Y-77571600D01*
X150134598Y-77571600D01*
X150571725Y-77484650D01*
X151067430Y-77153430D01*
X151257000Y-76869719D01*
X151446570Y-77153430D01*
X151942275Y-77484650D01*
X152379402Y-77571600D01*
X152674598Y-77571600D01*
X153111725Y-77484650D01*
X153607430Y-77153430D01*
X153797000Y-76869719D01*
X153986570Y-77153430D01*
X154482275Y-77484650D01*
X154919402Y-77571600D01*
X155214598Y-77571600D01*
X155651725Y-77484650D01*
X156147430Y-77153430D01*
X156478650Y-76657725D01*
X156594959Y-76073000D01*
X156478650Y-75488275D01*
X156147430Y-74992570D01*
X155863719Y-74803000D01*
X156147430Y-74613430D01*
X156478650Y-74117725D01*
X156594959Y-73533000D01*
X156478650Y-72948275D01*
X156147430Y-72452570D01*
X155651725Y-72121350D01*
X155214598Y-72034400D01*
X154919402Y-72034400D01*
X154482275Y-72121350D01*
X153986570Y-72452570D01*
X153797000Y-72736281D01*
X153607430Y-72452570D01*
X153111725Y-72121350D01*
X152674598Y-72034400D01*
X152379402Y-72034400D01*
X151942275Y-72121350D01*
X151446570Y-72452570D01*
X151257000Y-72736281D01*
X151067430Y-72452570D01*
X150571725Y-72121350D01*
X150134598Y-72034400D01*
X149839402Y-72034400D01*
X149402275Y-72121350D01*
X148906570Y-72452570D01*
X148717000Y-72736281D01*
X148527430Y-72452570D01*
X148031725Y-72121350D01*
X147594598Y-72034400D01*
X147299402Y-72034400D01*
X146862275Y-72121350D01*
X146501273Y-72362564D01*
X145627351Y-71488642D01*
X145586258Y-71427142D01*
X145342607Y-71264339D01*
X145127744Y-71221600D01*
X145127740Y-71221600D01*
X145055200Y-71207171D01*
X144982660Y-71221600D01*
X137590200Y-71221600D01*
X137590200Y-70969574D01*
X137425856Y-70572812D01*
X137122188Y-70269144D01*
X136725426Y-70104800D01*
X136295974Y-70104800D01*
X135899212Y-70269144D01*
X135720656Y-70447700D01*
X110076340Y-70447700D01*
X110003800Y-70433271D01*
X109931259Y-70447700D01*
X109931256Y-70447700D01*
X109716393Y-70490439D01*
X109534241Y-70612149D01*
X109534239Y-70612151D01*
X109472742Y-70653242D01*
X109431650Y-70714740D01*
X107746177Y-72400214D01*
X107581947Y-72250312D01*
X107166026Y-72078042D01*
X106934000Y-72199183D01*
X106934000Y-73406000D01*
X106954000Y-73406000D01*
X106954000Y-73660000D01*
X106934000Y-73660000D01*
X106934000Y-73680000D01*
X106680000Y-73680000D01*
X106680000Y-73660000D01*
X105472531Y-73660000D01*
X105352032Y-73892027D01*
X105600179Y-74421490D01*
X105787950Y-74592881D01*
X105695635Y-74611243D01*
X105485591Y-74751591D01*
X105345243Y-74961635D01*
X105295960Y-75209400D01*
X105295960Y-76936600D01*
X105345243Y-77184365D01*
X105485591Y-77394409D01*
X105695635Y-77534757D01*
X105943400Y-77584040D01*
X107340401Y-77584040D01*
X107340400Y-88011690D01*
X97000895Y-98351196D01*
X96989041Y-98322577D01*
X96613134Y-97907611D01*
X96408892Y-97810947D01*
X96792577Y-97554577D01*
X97109740Y-97079909D01*
X97221113Y-96520000D01*
X97109740Y-95960091D01*
X96792577Y-95485423D01*
X96440242Y-95250000D01*
X96792577Y-95014577D01*
X97109740Y-94539909D01*
X97221113Y-93980000D01*
X97109740Y-93420091D01*
X96792577Y-92945423D01*
X96471445Y-92730850D01*
X96481011Y-92682758D01*
X96792577Y-92474577D01*
X97109740Y-91999909D01*
X97221113Y-91440000D01*
X97109740Y-90880091D01*
X96792577Y-90405423D01*
X96471445Y-90190850D01*
X96481011Y-90142758D01*
X96792577Y-89934577D01*
X97109740Y-89459909D01*
X97221113Y-88900000D01*
X97109740Y-88340091D01*
X96792577Y-87865423D01*
X96471445Y-87650850D01*
X96481011Y-87602758D01*
X96792577Y-87394577D01*
X97109740Y-86919909D01*
X97221113Y-86360000D01*
X97109740Y-85800091D01*
X96792577Y-85325423D01*
X96440242Y-85090000D01*
X96792577Y-84854577D01*
X97109740Y-84379909D01*
X97221113Y-83820000D01*
X97109740Y-83260091D01*
X96792577Y-82785423D01*
X96317909Y-82468260D01*
X95899333Y-82385000D01*
X95616667Y-82385000D01*
X95198091Y-82468260D01*
X94723423Y-82785423D01*
X94406260Y-83260091D01*
X94294887Y-83820000D01*
X94406260Y-84379909D01*
X94723423Y-84854577D01*
X95075758Y-85090000D01*
X94723423Y-85325423D01*
X94406260Y-85800091D01*
X94294887Y-86360000D01*
X94406260Y-86919909D01*
X94692377Y-87348113D01*
X92251342Y-89789149D01*
X92189842Y-89830242D01*
X92148749Y-89891742D01*
X92120128Y-89934577D01*
X92027039Y-90073894D01*
X91984300Y-90288757D01*
X91984300Y-90288760D01*
X91969871Y-90361300D01*
X91984300Y-90433840D01*
X91984301Y-92404755D01*
X91805744Y-92583312D01*
X91703000Y-92831358D01*
X91703000Y-84632753D01*
X91721410Y-84540199D01*
X91703000Y-84447645D01*
X91703000Y-84447641D01*
X91648472Y-84173509D01*
X91634874Y-84153158D01*
X91493187Y-83941109D01*
X91493186Y-83941108D01*
X91440757Y-83862643D01*
X91362293Y-83810215D01*
X90891396Y-83339319D01*
X90922092Y-83185000D01*
X90806839Y-82605582D01*
X90478625Y-82114375D01*
X89987418Y-81786161D01*
X89554256Y-81700000D01*
X89261744Y-81700000D01*
X88828582Y-81786161D01*
X88337375Y-82114375D01*
X88136647Y-82414786D01*
X87749358Y-81989817D01*
X87224892Y-81743514D01*
X86995000Y-81864181D01*
X86995000Y-83058000D01*
X87015000Y-83058000D01*
X87015000Y-83312000D01*
X86995000Y-83312000D01*
X86995000Y-83332000D01*
X86741000Y-83332000D01*
X86741000Y-83312000D01*
X85547845Y-83312000D01*
X85426524Y-83541890D01*
X85596355Y-83951924D01*
X85986642Y-84380183D01*
X86116478Y-84441157D01*
X85797375Y-84654375D01*
X85469161Y-85145582D01*
X85353908Y-85725000D01*
X85432281Y-86119009D01*
X84390840Y-87160451D01*
X84329343Y-87201542D01*
X84288252Y-87263039D01*
X84288249Y-87263042D01*
X84166539Y-87445194D01*
X84109371Y-87732600D01*
X81915000Y-87732600D01*
X81915000Y-82828110D01*
X85426524Y-82828110D01*
X85547845Y-83058000D01*
X86741000Y-83058000D01*
X86741000Y-81864181D01*
X86511108Y-81743514D01*
X85986642Y-81989817D01*
X85596355Y-82418076D01*
X85426524Y-82828110D01*
X81915000Y-82828110D01*
X81915000Y-73173973D01*
X105352032Y-73173973D01*
X105472531Y-73406000D01*
X106680000Y-73406000D01*
X106680000Y-72199183D01*
X106447974Y-72078042D01*
X106032053Y-72250312D01*
X105600179Y-72644510D01*
X105352032Y-73173973D01*
X81915000Y-73173973D01*
X81915000Y-66754501D01*
X83856000Y-66754501D01*
X83856000Y-67815499D01*
X84262026Y-68795734D01*
X85012266Y-69545974D01*
X85992501Y-69952000D01*
X87053499Y-69952000D01*
X88033734Y-69545974D01*
X88783974Y-68795734D01*
X89190000Y-67815499D01*
X89190000Y-66754501D01*
X88783974Y-65774266D01*
X88033734Y-65024026D01*
X87053499Y-64618000D01*
X85992501Y-64618000D01*
X85012266Y-65024026D01*
X84262026Y-65774266D01*
X83856000Y-66754501D01*
X81915000Y-66754501D01*
X81915000Y-63575000D01*
X180086000Y-63575000D01*
X180086000Y-136906000D01*
G36*
X139762570Y-111570430D02*
X140258275Y-111901650D01*
X140695402Y-111988600D01*
X140990598Y-111988600D01*
X141427725Y-111901650D01*
X141923430Y-111570430D01*
X142113000Y-111286719D01*
X142302570Y-111570430D01*
X142662946Y-111811226D01*
X142689139Y-111942907D01*
X142851942Y-112186558D01*
X143095593Y-112349361D01*
X143310456Y-112392100D01*
X143383000Y-112406530D01*
X143455544Y-112392100D01*
X143879191Y-112392100D01*
X146426736Y-114939645D01*
X146398995Y-114951136D01*
X146324861Y-115197255D01*
X147153000Y-116025395D01*
X147167143Y-116011253D01*
X147346748Y-116190858D01*
X147332605Y-116205000D01*
X148160745Y-117033139D01*
X148406864Y-116959005D01*
X148417237Y-116930146D01*
X154180900Y-122693810D01*
X154180901Y-130763591D01*
X147874597Y-124457288D01*
X147907005Y-124443864D01*
X147981139Y-124197745D01*
X147153000Y-123369605D01*
X147138858Y-123383748D01*
X146959253Y-123204143D01*
X146973395Y-123190000D01*
X147332605Y-123190000D01*
X148160745Y-124018139D01*
X148406864Y-123944005D01*
X148599965Y-123406777D01*
X148572778Y-122836546D01*
X148406864Y-122435995D01*
X148160745Y-122361861D01*
X147332605Y-123190000D01*
X146973395Y-123190000D01*
X146959253Y-123175858D01*
X147138858Y-122996252D01*
X147153000Y-123010395D01*
X147981139Y-122182255D01*
X147907005Y-121936136D01*
X147369777Y-121743035D01*
X146799546Y-121770222D01*
X146639600Y-121836474D01*
X146639600Y-120209640D01*
X146654029Y-120137100D01*
X146639600Y-120064557D01*
X146639600Y-120064556D01*
X146596861Y-119849693D01*
X146528037Y-119746691D01*
X146475151Y-119667541D01*
X146475149Y-119667539D01*
X146434058Y-119606042D01*
X146372561Y-119564951D01*
X144447610Y-117640000D01*
X144938439Y-117640000D01*
X145465862Y-117421534D01*
X145674651Y-117212745D01*
X146324861Y-117212745D01*
X146398995Y-117458864D01*
X146936223Y-117651965D01*
X147506454Y-117624778D01*
X147907005Y-117458864D01*
X147981139Y-117212745D01*
X147153000Y-116384605D01*
X146324861Y-117212745D01*
X145674651Y-117212745D01*
X145869534Y-117017862D01*
X145896525Y-116952701D01*
X145899136Y-116959005D01*
X146145255Y-117033139D01*
X146973395Y-116205000D01*
X146145255Y-115376861D01*
X145899136Y-115450995D01*
X145896710Y-115457746D01*
X145869534Y-115392138D01*
X145465862Y-114988466D01*
X144938439Y-114770000D01*
X144367561Y-114770000D01*
X143840138Y-114988466D01*
X143436466Y-115392138D01*
X143218000Y-115919561D01*
X143218000Y-116410390D01*
X139443100Y-112635491D01*
X139443100Y-111092310D01*
X139762570Y-111570430D01*
X139762570Y-111570430D01*
G37*
X139762570Y-111570430D02*
X140258275Y-111901650D01*
X140695402Y-111988600D01*
X140990598Y-111988600D01*
X141427725Y-111901650D01*
X141923430Y-111570430D01*
X142113000Y-111286719D01*
X142302570Y-111570430D01*
X142662946Y-111811226D01*
X142689139Y-111942907D01*
X142851942Y-112186558D01*
X143095593Y-112349361D01*
X143310456Y-112392100D01*
X143383000Y-112406530D01*
X143455544Y-112392100D01*
X143879191Y-112392100D01*
X146426736Y-114939645D01*
X146398995Y-114951136D01*
X146324861Y-115197255D01*
X147153000Y-116025395D01*
X147167143Y-116011253D01*
X147346748Y-116190858D01*
X147332605Y-116205000D01*
X148160745Y-117033139D01*
X148406864Y-116959005D01*
X148417237Y-116930146D01*
X154180900Y-122693810D01*
X154180901Y-130763591D01*
X147874597Y-124457288D01*
X147907005Y-124443864D01*
X147981139Y-124197745D01*
X147153000Y-123369605D01*
X147138858Y-123383748D01*
X146959253Y-123204143D01*
X146973395Y-123190000D01*
X147332605Y-123190000D01*
X148160745Y-124018139D01*
X148406864Y-123944005D01*
X148599965Y-123406777D01*
X148572778Y-122836546D01*
X148406864Y-122435995D01*
X148160745Y-122361861D01*
X147332605Y-123190000D01*
X146973395Y-123190000D01*
X146959253Y-123175858D01*
X147138858Y-122996252D01*
X147153000Y-123010395D01*
X147981139Y-122182255D01*
X147907005Y-121936136D01*
X147369777Y-121743035D01*
X146799546Y-121770222D01*
X146639600Y-121836474D01*
X146639600Y-120209640D01*
X146654029Y-120137100D01*
X146639600Y-120064557D01*
X146639600Y-120064556D01*
X146596861Y-119849693D01*
X146528037Y-119746691D01*
X146475151Y-119667541D01*
X146475149Y-119667539D01*
X146434058Y-119606042D01*
X146372561Y-119564951D01*
X144447610Y-117640000D01*
X144938439Y-117640000D01*
X145465862Y-117421534D01*
X145674651Y-117212745D01*
X146324861Y-117212745D01*
X146398995Y-117458864D01*
X146936223Y-117651965D01*
X147506454Y-117624778D01*
X147907005Y-117458864D01*
X147981139Y-117212745D01*
X147153000Y-116384605D01*
X146324861Y-117212745D01*
X145674651Y-117212745D01*
X145869534Y-117017862D01*
X145896525Y-116952701D01*
X145899136Y-116959005D01*
X146145255Y-117033139D01*
X146973395Y-116205000D01*
X146145255Y-115376861D01*
X145899136Y-115450995D01*
X145896710Y-115457746D01*
X145869534Y-115392138D01*
X145465862Y-114988466D01*
X144938439Y-114770000D01*
X144367561Y-114770000D01*
X143840138Y-114988466D01*
X143436466Y-115392138D01*
X143218000Y-115919561D01*
X143218000Y-116410390D01*
X139443100Y-112635491D01*
X139443100Y-111092310D01*
X139762570Y-111570430D01*
G36*
X91805744Y-93806288D02*
X92109412Y-94109956D01*
X92163500Y-94132360D01*
X92163500Y-94518626D01*
X92327844Y-94915388D01*
X92631512Y-95219056D01*
X93028274Y-95383400D01*
X93252801Y-95383400D01*
X93252800Y-96959190D01*
X92866491Y-97345500D01*
X92613974Y-97345500D01*
X92217212Y-97509844D01*
X91913544Y-97813512D01*
X91749200Y-98210274D01*
X91749200Y-98639726D01*
X91913544Y-99036488D01*
X92217212Y-99340156D01*
X92613974Y-99504500D01*
X93043426Y-99504500D01*
X93440188Y-99340156D01*
X93743856Y-99036488D01*
X93908200Y-98639726D01*
X93908200Y-98387209D01*
X94458961Y-97836449D01*
X94520458Y-97795358D01*
X94561549Y-97733861D01*
X94561551Y-97733859D01*
X94683261Y-97551707D01*
X94692034Y-97507600D01*
X94723423Y-97554577D01*
X95107108Y-97810947D01*
X94902866Y-97907611D01*
X94526959Y-98322577D01*
X94366096Y-98710961D01*
X94488085Y-98933000D01*
X95631000Y-98933000D01*
X95631000Y-98913000D01*
X95885000Y-98913000D01*
X95885000Y-98933000D01*
X95905000Y-98933000D01*
X95905000Y-99187000D01*
X95885000Y-99187000D01*
X95885000Y-99207000D01*
X95631000Y-99207000D01*
X95631000Y-99187000D01*
X94488085Y-99187000D01*
X94366096Y-99409039D01*
X94526959Y-99797423D01*
X94902866Y-100212389D01*
X95049954Y-100282003D01*
X95034989Y-100357242D01*
X94723423Y-100565423D01*
X94406260Y-101040091D01*
X94294887Y-101600000D01*
X94406260Y-102159909D01*
X94723423Y-102634577D01*
X95075758Y-102870000D01*
X94723423Y-103105423D01*
X94406260Y-103580091D01*
X94294887Y-104140000D01*
X94406260Y-104699909D01*
X94723423Y-105174577D01*
X95075758Y-105410000D01*
X94723423Y-105645423D01*
X94406260Y-106120091D01*
X94294887Y-106680000D01*
X94406260Y-107239909D01*
X94723423Y-107714577D01*
X95075758Y-107950000D01*
X94723423Y-108185423D01*
X94406260Y-108660091D01*
X94294887Y-109220000D01*
X94406260Y-109779909D01*
X94723423Y-110254577D01*
X95075758Y-110490000D01*
X94723423Y-110725423D01*
X94406260Y-111200091D01*
X94294887Y-111760000D01*
X94366045Y-112117735D01*
X90540833Y-108292524D01*
X90806839Y-107894418D01*
X90922092Y-107315000D01*
X90806839Y-106735582D01*
X90478625Y-106244375D01*
X90463026Y-106233952D01*
X91362292Y-105334686D01*
X91440757Y-105282257D01*
X91533766Y-105143061D01*
X91648471Y-104971393D01*
X91648471Y-104971392D01*
X91648472Y-104971391D01*
X91703000Y-104697259D01*
X91703000Y-104697255D01*
X91721410Y-104604701D01*
X91703000Y-104512147D01*
X91703000Y-93558242D01*
X91805744Y-93806288D01*
X91805744Y-93806288D01*
G37*
X91805744Y-93806288D02*
X92109412Y-94109956D01*
X92163500Y-94132360D01*
X92163500Y-94518626D01*
X92327844Y-94915388D01*
X92631512Y-95219056D01*
X93028274Y-95383400D01*
X93252801Y-95383400D01*
X93252800Y-96959190D01*
X92866491Y-97345500D01*
X92613974Y-97345500D01*
X92217212Y-97509844D01*
X91913544Y-97813512D01*
X91749200Y-98210274D01*
X91749200Y-98639726D01*
X91913544Y-99036488D01*
X92217212Y-99340156D01*
X92613974Y-99504500D01*
X93043426Y-99504500D01*
X93440188Y-99340156D01*
X93743856Y-99036488D01*
X93908200Y-98639726D01*
X93908200Y-98387209D01*
X94458961Y-97836449D01*
X94520458Y-97795358D01*
X94561549Y-97733861D01*
X94561551Y-97733859D01*
X94683261Y-97551707D01*
X94692034Y-97507600D01*
X94723423Y-97554577D01*
X95107108Y-97810947D01*
X94902866Y-97907611D01*
X94526959Y-98322577D01*
X94366096Y-98710961D01*
X94488085Y-98933000D01*
X95631000Y-98933000D01*
X95631000Y-98913000D01*
X95885000Y-98913000D01*
X95885000Y-98933000D01*
X95905000Y-98933000D01*
X95905000Y-99187000D01*
X95885000Y-99187000D01*
X95885000Y-99207000D01*
X95631000Y-99207000D01*
X95631000Y-99187000D01*
X94488085Y-99187000D01*
X94366096Y-99409039D01*
X94526959Y-99797423D01*
X94902866Y-100212389D01*
X95049954Y-100282003D01*
X95034989Y-100357242D01*
X94723423Y-100565423D01*
X94406260Y-101040091D01*
X94294887Y-101600000D01*
X94406260Y-102159909D01*
X94723423Y-102634577D01*
X95075758Y-102870000D01*
X94723423Y-103105423D01*
X94406260Y-103580091D01*
X94294887Y-104140000D01*
X94406260Y-104699909D01*
X94723423Y-105174577D01*
X95075758Y-105410000D01*
X94723423Y-105645423D01*
X94406260Y-106120091D01*
X94294887Y-106680000D01*
X94406260Y-107239909D01*
X94723423Y-107714577D01*
X95075758Y-107950000D01*
X94723423Y-108185423D01*
X94406260Y-108660091D01*
X94294887Y-109220000D01*
X94406260Y-109779909D01*
X94723423Y-110254577D01*
X95075758Y-110490000D01*
X94723423Y-110725423D01*
X94406260Y-111200091D01*
X94294887Y-111760000D01*
X94366045Y-112117735D01*
X90540833Y-108292524D01*
X90806839Y-107894418D01*
X90922092Y-107315000D01*
X90806839Y-106735582D01*
X90478625Y-106244375D01*
X90463026Y-106233952D01*
X91362292Y-105334686D01*
X91440757Y-105282257D01*
X91533766Y-105143061D01*
X91648471Y-104971393D01*
X91648471Y-104971392D01*
X91648472Y-104971391D01*
X91703000Y-104697259D01*
X91703000Y-104697255D01*
X91721410Y-104604701D01*
X91703000Y-104512147D01*
X91703000Y-93558242D01*
X91805744Y-93806288D01*
G36*
X87517400Y-106010883D02*
X87224892Y-105873514D01*
X86995000Y-105994181D01*
X86995000Y-107188000D01*
X87015000Y-107188000D01*
X87015000Y-107442000D01*
X86995000Y-107442000D01*
X86995000Y-107462000D01*
X86741000Y-107462000D01*
X86741000Y-107442000D01*
X86721000Y-107442000D01*
X86721000Y-107188000D01*
X86741000Y-107188000D01*
X86741000Y-105994181D01*
X86511108Y-105873514D01*
X86422100Y-105915314D01*
X86422100Y-99850397D01*
X86721744Y-99910000D01*
X87014256Y-99910000D01*
X87447418Y-99823839D01*
X87517400Y-99777078D01*
X87517400Y-106010883D01*
X87517400Y-106010883D01*
G37*
X87517400Y-106010883D02*
X87224892Y-105873514D01*
X86995000Y-105994181D01*
X86995000Y-107188000D01*
X87015000Y-107188000D01*
X87015000Y-107442000D01*
X86995000Y-107442000D01*
X86995000Y-107462000D01*
X86741000Y-107462000D01*
X86741000Y-107442000D01*
X86721000Y-107442000D01*
X86721000Y-107188000D01*
X86741000Y-107188000D01*
X86741000Y-105994181D01*
X86511108Y-105873514D01*
X86422100Y-105915314D01*
X86422100Y-99850397D01*
X86721744Y-99910000D01*
X87014256Y-99910000D01*
X87447418Y-99823839D01*
X87517400Y-99777078D01*
X87517400Y-106010883D01*
G36*
X124047561Y-90970000D02*
X124438922Y-90970000D01*
X124837914Y-91368992D01*
X124890343Y-91447457D01*
X124918763Y-91466447D01*
X124886260Y-91515091D01*
X124774887Y-92075000D01*
X124797125Y-92186797D01*
X123343108Y-93640814D01*
X123264644Y-93693243D01*
X123212215Y-93771708D01*
X123212212Y-93771711D01*
X123056929Y-94004108D01*
X122983990Y-94370800D01*
X123002401Y-94463359D01*
X123002400Y-100463322D01*
X119681706Y-103784017D01*
X119652577Y-103740423D01*
X119268892Y-103484053D01*
X119473134Y-103387389D01*
X119849041Y-102972423D01*
X120009904Y-102584039D01*
X119887915Y-102362000D01*
X118745000Y-102362000D01*
X118745000Y-102382000D01*
X118491000Y-102382000D01*
X118491000Y-102362000D01*
X118471000Y-102362000D01*
X118471000Y-102108000D01*
X118491000Y-102108000D01*
X118491000Y-99822000D01*
X118745000Y-99822000D01*
X118745000Y-102108000D01*
X119887915Y-102108000D01*
X120009904Y-101885961D01*
X119849041Y-101497577D01*
X119473134Y-101082611D01*
X119224633Y-100965000D01*
X119473134Y-100847389D01*
X119849041Y-100432423D01*
X120009904Y-100044039D01*
X119887915Y-99822000D01*
X118745000Y-99822000D01*
X118491000Y-99822000D01*
X118471000Y-99822000D01*
X118471000Y-99568000D01*
X118491000Y-99568000D01*
X118491000Y-99548000D01*
X118745000Y-99548000D01*
X118745000Y-99568000D01*
X119887915Y-99568000D01*
X120009904Y-99345961D01*
X119849041Y-98957577D01*
X119682394Y-98773615D01*
X120668558Y-97787451D01*
X120730058Y-97746358D01*
X120892861Y-97502707D01*
X120935600Y-97287844D01*
X120935600Y-97287840D01*
X120950029Y-97215301D01*
X120935600Y-97142762D01*
X120935600Y-96894900D01*
X121164526Y-96894900D01*
X121561288Y-96730556D01*
X121864956Y-96426888D01*
X122029300Y-96030126D01*
X122029300Y-95600674D01*
X121864956Y-95203912D01*
X121561288Y-94900244D01*
X121467600Y-94861437D01*
X121467600Y-90928544D01*
X121616223Y-90981965D01*
X122186454Y-90954778D01*
X122255901Y-90926012D01*
X122255901Y-91284955D01*
X122077344Y-91463512D01*
X121913000Y-91860274D01*
X121913000Y-92289726D01*
X122077344Y-92686488D01*
X122381012Y-92990156D01*
X122777774Y-93154500D01*
X123207226Y-93154500D01*
X123603988Y-92990156D01*
X123907656Y-92686488D01*
X124072000Y-92289726D01*
X124072000Y-91860274D01*
X123907656Y-91463512D01*
X123729100Y-91284956D01*
X123729100Y-90838089D01*
X124047561Y-90970000D01*
X124047561Y-90970000D01*
G37*
X124047561Y-90970000D02*
X124438922Y-90970000D01*
X124837914Y-91368992D01*
X124890343Y-91447457D01*
X124918763Y-91466447D01*
X124886260Y-91515091D01*
X124774887Y-92075000D01*
X124797125Y-92186797D01*
X123343108Y-93640814D01*
X123264644Y-93693243D01*
X123212215Y-93771708D01*
X123212212Y-93771711D01*
X123056929Y-94004108D01*
X122983990Y-94370800D01*
X123002401Y-94463359D01*
X123002400Y-100463322D01*
X119681706Y-103784017D01*
X119652577Y-103740423D01*
X119268892Y-103484053D01*
X119473134Y-103387389D01*
X119849041Y-102972423D01*
X120009904Y-102584039D01*
X119887915Y-102362000D01*
X118745000Y-102362000D01*
X118745000Y-102382000D01*
X118491000Y-102382000D01*
X118491000Y-102362000D01*
X118471000Y-102362000D01*
X118471000Y-102108000D01*
X118491000Y-102108000D01*
X118491000Y-99822000D01*
X118745000Y-99822000D01*
X118745000Y-102108000D01*
X119887915Y-102108000D01*
X120009904Y-101885961D01*
X119849041Y-101497577D01*
X119473134Y-101082611D01*
X119224633Y-100965000D01*
X119473134Y-100847389D01*
X119849041Y-100432423D01*
X120009904Y-100044039D01*
X119887915Y-99822000D01*
X118745000Y-99822000D01*
X118491000Y-99822000D01*
X118471000Y-99822000D01*
X118471000Y-99568000D01*
X118491000Y-99568000D01*
X118491000Y-99548000D01*
X118745000Y-99548000D01*
X118745000Y-99568000D01*
X119887915Y-99568000D01*
X120009904Y-99345961D01*
X119849041Y-98957577D01*
X119682394Y-98773615D01*
X120668558Y-97787451D01*
X120730058Y-97746358D01*
X120892861Y-97502707D01*
X120935600Y-97287844D01*
X120935600Y-97287840D01*
X120950029Y-97215301D01*
X120935600Y-97142762D01*
X120935600Y-96894900D01*
X121164526Y-96894900D01*
X121561288Y-96730556D01*
X121864956Y-96426888D01*
X122029300Y-96030126D01*
X122029300Y-95600674D01*
X121864956Y-95203912D01*
X121561288Y-94900244D01*
X121467600Y-94861437D01*
X121467600Y-90928544D01*
X121616223Y-90981965D01*
X122186454Y-90954778D01*
X122255901Y-90926012D01*
X122255901Y-91284955D01*
X122077344Y-91463512D01*
X121913000Y-91860274D01*
X121913000Y-92289726D01*
X122077344Y-92686488D01*
X122381012Y-92990156D01*
X122777774Y-93154500D01*
X123207226Y-93154500D01*
X123603988Y-92990156D01*
X123907656Y-92686488D01*
X124072000Y-92289726D01*
X124072000Y-91860274D01*
X123907656Y-91463512D01*
X123729100Y-91284956D01*
X123729100Y-90838089D01*
X124047561Y-90970000D01*
G36*
X122026748Y-89520858D02*
X122012605Y-89535000D01*
X122026748Y-89549143D01*
X121847142Y-89728748D01*
X121833000Y-89714605D01*
X121818858Y-89728748D01*
X121639253Y-89549143D01*
X121653395Y-89535000D01*
X121639253Y-89520858D01*
X121818858Y-89341253D01*
X121833000Y-89355395D01*
X121847142Y-89341252D01*
X122026748Y-89520858D01*
X122026748Y-89520858D01*
G37*
X122026748Y-89520858D02*
X122012605Y-89535000D01*
X122026748Y-89549143D01*
X121847142Y-89728748D01*
X121833000Y-89714605D01*
X121818858Y-89728748D01*
X121639253Y-89549143D01*
X121653395Y-89535000D01*
X121639253Y-89520858D01*
X121818858Y-89341253D01*
X121833000Y-89355395D01*
X121847142Y-89341252D01*
X122026748Y-89520858D01*
G36*
X132232401Y-81656694D02*
X132073791Y-81580291D01*
X132058026Y-81577642D01*
X131826000Y-81698783D01*
X131826000Y-83058000D01*
X131846000Y-83058000D01*
X131846000Y-83312000D01*
X131826000Y-83312000D01*
X131826000Y-84671217D01*
X132058026Y-84792358D01*
X132073791Y-84789709D01*
X132232400Y-84713306D01*
X132232400Y-87510500D01*
X124123138Y-87510500D01*
X124050599Y-87496071D01*
X123978060Y-87510500D01*
X123978056Y-87510500D01*
X123763193Y-87553239D01*
X123519542Y-87716042D01*
X123478449Y-87777542D01*
X122809814Y-88446178D01*
X122776014Y-88412378D01*
X122661139Y-88527253D01*
X122587005Y-88281136D01*
X122565428Y-88273381D01*
X124385409Y-86453400D01*
X125657060Y-86453400D01*
X125729600Y-86467829D01*
X125802140Y-86453400D01*
X125802144Y-86453400D01*
X126017007Y-86410661D01*
X126260658Y-86247858D01*
X126301751Y-86186358D01*
X126580256Y-85907854D01*
X126743607Y-85875361D01*
X126987258Y-85712558D01*
X127028351Y-85651058D01*
X128188276Y-84491133D01*
X128574276Y-84749050D01*
X129159000Y-84865359D01*
X129743725Y-84749050D01*
X130239430Y-84417830D01*
X130432909Y-84128267D01*
X130796964Y-84535732D01*
X131324209Y-84789709D01*
X131339974Y-84792358D01*
X131572000Y-84671217D01*
X131572000Y-83312000D01*
X131552000Y-83312000D01*
X131552000Y-83058000D01*
X131572000Y-83058000D01*
X131572000Y-81698783D01*
X131339974Y-81577642D01*
X131324209Y-81580291D01*
X130796964Y-81834268D01*
X130432910Y-82241732D01*
X130239430Y-81952170D01*
X129743724Y-81620950D01*
X129159000Y-81504641D01*
X128938759Y-81548450D01*
X132232401Y-78254808D01*
X132232401Y-81656694D01*
X132232401Y-81656694D01*
G37*
X132232401Y-81656694D02*
X132073791Y-81580291D01*
X132058026Y-81577642D01*
X131826000Y-81698783D01*
X131826000Y-83058000D01*
X131846000Y-83058000D01*
X131846000Y-83312000D01*
X131826000Y-83312000D01*
X131826000Y-84671217D01*
X132058026Y-84792358D01*
X132073791Y-84789709D01*
X132232400Y-84713306D01*
X132232400Y-87510500D01*
X124123138Y-87510500D01*
X124050599Y-87496071D01*
X123978060Y-87510500D01*
X123978056Y-87510500D01*
X123763193Y-87553239D01*
X123519542Y-87716042D01*
X123478449Y-87777542D01*
X122809814Y-88446178D01*
X122776014Y-88412378D01*
X122661139Y-88527253D01*
X122587005Y-88281136D01*
X122565428Y-88273381D01*
X124385409Y-86453400D01*
X125657060Y-86453400D01*
X125729600Y-86467829D01*
X125802140Y-86453400D01*
X125802144Y-86453400D01*
X126017007Y-86410661D01*
X126260658Y-86247858D01*
X126301751Y-86186358D01*
X126580256Y-85907854D01*
X126743607Y-85875361D01*
X126987258Y-85712558D01*
X127028351Y-85651058D01*
X128188276Y-84491133D01*
X128574276Y-84749050D01*
X129159000Y-84865359D01*
X129743725Y-84749050D01*
X130239430Y-84417830D01*
X130432909Y-84128267D01*
X130796964Y-84535732D01*
X131324209Y-84789709D01*
X131339974Y-84792358D01*
X131572000Y-84671217D01*
X131572000Y-83312000D01*
X131552000Y-83312000D01*
X131552000Y-83058000D01*
X131572000Y-83058000D01*
X131572000Y-81698783D01*
X131339974Y-81577642D01*
X131324209Y-81580291D01*
X130796964Y-81834268D01*
X130432910Y-82241732D01*
X130239430Y-81952170D01*
X129743724Y-81620950D01*
X129159000Y-81504641D01*
X128938759Y-81548450D01*
X132232401Y-78254808D01*
X132232401Y-81656694D01*
G36*
X109474000Y-73406000D02*
X109494000Y-73406000D01*
X109494000Y-73660000D01*
X109474000Y-73660000D01*
X109474000Y-73680000D01*
X109220000Y-73680000D01*
X109220000Y-73660000D01*
X109200000Y-73660000D01*
X109200000Y-73406000D01*
X109220000Y-73406000D01*
X109220000Y-73386000D01*
X109474000Y-73386000D01*
X109474000Y-73406000D01*
X109474000Y-73406000D01*
G37*
X109474000Y-73406000D02*
X109494000Y-73406000D01*
X109494000Y-73660000D01*
X109474000Y-73660000D01*
X109474000Y-73680000D01*
X109220000Y-73680000D01*
X109220000Y-73660000D01*
X109200000Y-73660000D01*
X109200000Y-73406000D01*
X109220000Y-73406000D01*
X109220000Y-73386000D01*
X109474000Y-73386000D01*
X109474000Y-73406000D01*
G04 #@! TD*
M02*
