G04 #@! TF.GenerationSoftware,KiCad,Pcbnew,(5.0.0-3-g5ebb6b6)*
G04 #@! TF.CreationDate,2018-11-18T15:08:20+09:00*
G04 #@! TF.ProjectId,Z80-8251-PPI,5A38302D383235312D5050492E6B6963,rev?*
G04 #@! TF.SameCoordinates,Original*
G04 #@! TF.FileFunction,Copper,L1,Top,Signal*
G04 #@! TF.FilePolarity,Positive*
%FSLAX46Y46*%
G04 Gerber Fmt 4.6, Leading zero omitted, Abs format (unit mm)*
G04 Created by KiCad (PCBNEW (5.0.0-3-g5ebb6b6)) date *
%MOMM*%
%LPD*%
G01*
G04 APERTURE LIST*
G04 #@! TA.AperFunction,ComponentPad*
%ADD10O,1.727200X2.032000*%
G04 #@! TD*
G04 #@! TA.AperFunction,ComponentPad*
%ADD11C,1.600000*%
G04 #@! TD*
G04 #@! TA.AperFunction,ComponentPad*
%ADD12R,1.727200X1.727200*%
G04 #@! TD*
G04 #@! TA.AperFunction,ComponentPad*
%ADD13O,1.727200X1.727200*%
G04 #@! TD*
G04 #@! TA.AperFunction,ComponentPad*
%ADD14R,2.032000X1.727200*%
G04 #@! TD*
G04 #@! TA.AperFunction,ComponentPad*
%ADD15O,2.032000X1.727200*%
G04 #@! TD*
G04 #@! TA.AperFunction,ComponentPad*
%ADD16R,1.700000X1.700000*%
G04 #@! TD*
G04 #@! TA.AperFunction,ComponentPad*
%ADD17O,1.700000X1.700000*%
G04 #@! TD*
G04 #@! TA.AperFunction,ComponentPad*
%ADD18C,4.064000*%
G04 #@! TD*
G04 #@! TA.AperFunction,ComponentPad*
%ADD19O,1.600000X1.600000*%
G04 #@! TD*
G04 #@! TA.AperFunction,ComponentPad*
%ADD20R,1.600000X1.600000*%
G04 #@! TD*
G04 #@! TA.AperFunction,ComponentPad*
%ADD21C,1.422400*%
G04 #@! TD*
G04 #@! TA.AperFunction,ComponentPad*
%ADD22C,1.500000*%
G04 #@! TD*
G04 #@! TA.AperFunction,ComponentPad*
%ADD23R,1.500000X1.500000*%
G04 #@! TD*
G04 #@! TA.AperFunction,ViaPad*
%ADD24C,0.889000*%
G04 #@! TD*
G04 #@! TA.AperFunction,Conductor*
%ADD25C,0.609600*%
G04 #@! TD*
G04 #@! TA.AperFunction,Conductor*
%ADD26C,0.203200*%
G04 #@! TD*
G04 #@! TA.AperFunction,Conductor*
%ADD27C,0.254000*%
G04 #@! TD*
G04 APERTURE END LIST*
D10*
G04 #@! TO.P,P1,1*
G04 #@! TO.N,N/C*
X133223000Y-131445000D03*
G04 #@! TO.P,P1,2*
X135763000Y-131445000D03*
G04 #@! TO.P,P1,3*
X138303000Y-131445000D03*
G04 #@! TO.P,P1,4*
X140843000Y-131445000D03*
G04 #@! TO.P,P1,5*
G04 #@! TO.N,VCC*
X143383000Y-131445000D03*
G04 #@! TO.P,P1,6*
G04 #@! TO.N,GND*
X145923000Y-131445000D03*
G04 #@! TO.P,P1,7*
X148463000Y-131445000D03*
G04 #@! TO.P,P1,8*
G04 #@! TO.N,N/C*
X151003000Y-131445000D03*
G04 #@! TD*
G04 #@! TO.P,P2,1*
G04 #@! TO.N,~CE*
X156083000Y-131445000D03*
G04 #@! TO.P,P2,2*
G04 #@! TO.N,A1*
X158623000Y-131445000D03*
G04 #@! TO.P,P2,3*
G04 #@! TO.N,A2*
X161163000Y-131445000D03*
G04 #@! TO.P,P2,4*
G04 #@! TO.N,A3*
X163703000Y-131445000D03*
G04 #@! TO.P,P2,5*
G04 #@! TO.N,A4*
X166243000Y-131445000D03*
G04 #@! TO.P,P2,6*
G04 #@! TO.N,A5*
X168783000Y-131445000D03*
G04 #@! TD*
G04 #@! TO.P,P3,1*
G04 #@! TO.N,N/C*
X124079000Y-83185000D03*
G04 #@! TO.P,P3,2*
X126619000Y-83185000D03*
G04 #@! TO.P,P3,3*
X129159000Y-83185000D03*
G04 #@! TO.P,P3,4*
G04 #@! TO.N,GND*
X131699000Y-83185000D03*
G04 #@! TO.P,P3,5*
G04 #@! TO.N,/~RESIN*
X134239000Y-83185000D03*
G04 #@! TO.P,P3,6*
G04 #@! TO.N,A0*
X136779000Y-83185000D03*
G04 #@! TO.P,P3,7*
G04 #@! TO.N,~IOW*
X139319000Y-83185000D03*
G04 #@! TO.P,P3,8*
G04 #@! TO.N,~IOR*
X141859000Y-83185000D03*
G04 #@! TO.P,P3,9*
G04 #@! TO.N,D7*
X144399000Y-83185000D03*
G04 #@! TO.P,P3,10*
G04 #@! TO.N,D6*
X146939000Y-83185000D03*
G04 #@! TD*
G04 #@! TO.P,P4,1*
G04 #@! TO.N,D5*
X151003000Y-83185000D03*
G04 #@! TO.P,P4,2*
G04 #@! TO.N,D4*
X153543000Y-83185000D03*
G04 #@! TO.P,P4,3*
G04 #@! TO.N,D3*
X156083000Y-83185000D03*
G04 #@! TO.P,P4,4*
G04 #@! TO.N,D2*
X158623000Y-83185000D03*
G04 #@! TO.P,P4,5*
G04 #@! TO.N,D1*
X161163000Y-83185000D03*
G04 #@! TO.P,P4,6*
G04 #@! TO.N,D0*
X163703000Y-83185000D03*
G04 #@! TO.P,P4,7*
G04 #@! TO.N,N/C*
X166243000Y-83185000D03*
G04 #@! TO.P,P4,8*
X168783000Y-83185000D03*
G04 #@! TD*
D11*
G04 #@! TO.P,C1,1*
G04 #@! TO.N,Net-(C1-Pad1)*
X144653000Y-123190000D03*
G04 #@! TO.P,C1,2*
G04 #@! TO.N,GND*
X147153000Y-123190000D03*
G04 #@! TD*
G04 #@! TO.P,C2,1*
G04 #@! TO.N,Net-(C2-Pad1)*
X144653000Y-116205000D03*
G04 #@! TO.P,C2,2*
G04 #@! TO.N,GND*
X147153000Y-116205000D03*
G04 #@! TD*
G04 #@! TO.P,C3,1*
G04 #@! TO.N,VCC*
X113538000Y-116840000D03*
G04 #@! TO.P,C3,2*
G04 #@! TO.N,GND*
X116038000Y-116840000D03*
G04 #@! TD*
G04 #@! TO.P,C4,1*
G04 #@! TO.N,VCC*
X124333000Y-112395000D03*
G04 #@! TO.P,C4,2*
G04 #@! TO.N,GND*
X121833000Y-112395000D03*
G04 #@! TD*
G04 #@! TO.P,C5,1*
G04 #@! TO.N,VCC*
X124333000Y-89535000D03*
G04 #@! TO.P,C5,2*
G04 #@! TO.N,GND*
X121833000Y-89535000D03*
G04 #@! TD*
G04 #@! TO.P,C6,1*
G04 #@! TO.N,VCC*
X169291000Y-88011000D03*
G04 #@! TO.P,C6,2*
G04 #@! TO.N,GND*
X166791000Y-88011000D03*
G04 #@! TD*
D12*
G04 #@! TO.P,J1,1*
G04 #@! TO.N,VCC*
X106807000Y-76073000D03*
D13*
G04 #@! TO.P,J1,2*
G04 #@! TO.N,GND*
X106807000Y-73533000D03*
G04 #@! TO.P,J1,3*
G04 #@! TO.N,VCC*
X109347000Y-76073000D03*
G04 #@! TO.P,J1,4*
G04 #@! TO.N,GND*
X109347000Y-73533000D03*
G04 #@! TO.P,J1,5*
G04 #@! TO.N,N/C*
X111887000Y-76073000D03*
G04 #@! TO.P,J1,6*
X111887000Y-73533000D03*
G04 #@! TO.P,J1,7*
X114427000Y-76073000D03*
G04 #@! TO.P,J1,8*
G04 #@! TO.N,CLK*
X114427000Y-73533000D03*
G04 #@! TO.P,J1,9*
G04 #@! TO.N,D0*
X116967000Y-76073000D03*
G04 #@! TO.P,J1,10*
G04 #@! TO.N,D1*
X116967000Y-73533000D03*
G04 #@! TO.P,J1,11*
G04 #@! TO.N,D2*
X119507000Y-76073000D03*
G04 #@! TO.P,J1,12*
G04 #@! TO.N,D3*
X119507000Y-73533000D03*
G04 #@! TO.P,J1,13*
G04 #@! TO.N,D4*
X122047000Y-76073000D03*
G04 #@! TO.P,J1,14*
G04 #@! TO.N,D5*
X122047000Y-73533000D03*
G04 #@! TO.P,J1,15*
G04 #@! TO.N,D6*
X124587000Y-76073000D03*
G04 #@! TO.P,J1,16*
G04 #@! TO.N,D7*
X124587000Y-73533000D03*
G04 #@! TO.P,J1,17*
G04 #@! TO.N,~IOR*
X127127000Y-76073000D03*
G04 #@! TO.P,J1,18*
G04 #@! TO.N,N/C*
X127127000Y-73533000D03*
G04 #@! TO.P,J1,19*
G04 #@! TO.N,~IOW*
X129667000Y-76073000D03*
G04 #@! TO.P,J1,20*
G04 #@! TO.N,N/C*
X129667000Y-73533000D03*
G04 #@! TO.P,J1,21*
G04 #@! TO.N,RES*
X132207000Y-76073000D03*
G04 #@! TO.P,J1,22*
G04 #@! TO.N,N/C*
X132207000Y-73533000D03*
G04 #@! TO.P,J1,23*
G04 #@! TO.N,INT*
X134747000Y-76073000D03*
G04 #@! TO.P,J1,24*
G04 #@! TO.N,N/C*
X134747000Y-73533000D03*
G04 #@! TO.P,J1,25*
G04 #@! TO.N,A0*
X137287000Y-76073000D03*
G04 #@! TO.P,J1,26*
G04 #@! TO.N,A1*
X137287000Y-73533000D03*
G04 #@! TO.P,J1,27*
G04 #@! TO.N,A2*
X139827000Y-76073000D03*
G04 #@! TO.P,J1,28*
G04 #@! TO.N,A3*
X139827000Y-73533000D03*
G04 #@! TO.P,J1,29*
G04 #@! TO.N,A4*
X142367000Y-76073000D03*
G04 #@! TO.P,J1,30*
G04 #@! TO.N,A5*
X142367000Y-73533000D03*
G04 #@! TO.P,J1,31*
G04 #@! TO.N,A6*
X144907000Y-76073000D03*
G04 #@! TO.P,J1,32*
G04 #@! TO.N,A7*
X144907000Y-73533000D03*
G04 #@! TO.P,J1,33*
G04 #@! TO.N,N/C*
X147447000Y-76073000D03*
G04 #@! TO.P,J1,34*
X147447000Y-73533000D03*
G04 #@! TO.P,J1,35*
X149987000Y-76073000D03*
G04 #@! TO.P,J1,36*
X149987000Y-73533000D03*
G04 #@! TO.P,J1,37*
X152527000Y-76073000D03*
G04 #@! TO.P,J1,38*
X152527000Y-73533000D03*
G04 #@! TO.P,J1,39*
X155067000Y-76073000D03*
G04 #@! TO.P,J1,40*
X155067000Y-73533000D03*
G04 #@! TD*
D12*
G04 #@! TO.P,J2,1*
G04 #@! TO.N,Net-(J2-Pad1)*
X148463000Y-92710000D03*
D13*
G04 #@! TO.P,J2,2*
G04 #@! TO.N,Net-(J2-Pad10)*
X151003000Y-92710000D03*
G04 #@! TO.P,J2,3*
G04 #@! TO.N,Net-(J2-Pad3)*
X148463000Y-95250000D03*
G04 #@! TO.P,J2,4*
G04 #@! TO.N,Net-(J2-Pad10)*
X151003000Y-95250000D03*
G04 #@! TO.P,J2,5*
G04 #@! TO.N,Net-(J2-Pad5)*
X148463000Y-97790000D03*
G04 #@! TO.P,J2,6*
G04 #@! TO.N,Net-(J2-Pad10)*
X151003000Y-97790000D03*
G04 #@! TO.P,J2,7*
G04 #@! TO.N,Net-(J2-Pad7)*
X148463000Y-100330000D03*
G04 #@! TO.P,J2,8*
G04 #@! TO.N,Net-(J2-Pad10)*
X151003000Y-100330000D03*
G04 #@! TO.P,J2,9*
G04 #@! TO.N,Net-(J2-Pad9)*
X148463000Y-102870000D03*
G04 #@! TO.P,J2,10*
G04 #@! TO.N,Net-(J2-Pad10)*
X151003000Y-102870000D03*
G04 #@! TO.P,J2,11*
G04 #@! TO.N,Net-(J2-Pad11)*
X148463000Y-105410000D03*
G04 #@! TO.P,J2,12*
G04 #@! TO.N,Net-(J2-Pad10)*
X151003000Y-105410000D03*
G04 #@! TO.P,J2,13*
G04 #@! TO.N,Net-(J2-Pad13)*
X148463000Y-107950000D03*
G04 #@! TO.P,J2,14*
G04 #@! TO.N,Net-(J2-Pad10)*
X151003000Y-107950000D03*
G04 #@! TO.P,J2,15*
G04 #@! TO.N,Net-(J2-Pad15)*
X148463000Y-110490000D03*
G04 #@! TO.P,J2,16*
G04 #@! TO.N,Net-(J2-Pad10)*
X151003000Y-110490000D03*
G04 #@! TD*
D12*
G04 #@! TO.P,J3,1*
G04 #@! TO.N,Net-(J2-Pad1)*
X133223000Y-92710000D03*
D13*
G04 #@! TO.P,J3,2*
G04 #@! TO.N,Net-(J3-Pad10)*
X135763000Y-92710000D03*
G04 #@! TO.P,J3,3*
G04 #@! TO.N,Net-(J2-Pad3)*
X133223000Y-95250000D03*
G04 #@! TO.P,J3,4*
G04 #@! TO.N,Net-(J3-Pad10)*
X135763000Y-95250000D03*
G04 #@! TO.P,J3,5*
G04 #@! TO.N,Net-(J2-Pad5)*
X133223000Y-97790000D03*
G04 #@! TO.P,J3,6*
G04 #@! TO.N,Net-(J3-Pad10)*
X135763000Y-97790000D03*
G04 #@! TO.P,J3,7*
G04 #@! TO.N,Net-(J2-Pad7)*
X133223000Y-100330000D03*
G04 #@! TO.P,J3,8*
G04 #@! TO.N,Net-(J3-Pad10)*
X135763000Y-100330000D03*
G04 #@! TO.P,J3,9*
G04 #@! TO.N,Net-(J2-Pad9)*
X133223000Y-102870000D03*
G04 #@! TO.P,J3,10*
G04 #@! TO.N,Net-(J3-Pad10)*
X135763000Y-102870000D03*
G04 #@! TO.P,J3,11*
G04 #@! TO.N,Net-(J2-Pad11)*
X133223000Y-105410000D03*
G04 #@! TO.P,J3,12*
G04 #@! TO.N,Net-(J3-Pad10)*
X135763000Y-105410000D03*
G04 #@! TO.P,J3,13*
G04 #@! TO.N,Net-(J2-Pad13)*
X133223000Y-107950000D03*
G04 #@! TO.P,J3,14*
G04 #@! TO.N,Net-(J3-Pad10)*
X135763000Y-107950000D03*
G04 #@! TO.P,J3,15*
G04 #@! TO.N,Net-(J2-Pad15)*
X133223000Y-110490000D03*
G04 #@! TO.P,J3,16*
G04 #@! TO.N,Net-(J3-Pad10)*
X135763000Y-110490000D03*
G04 #@! TD*
D14*
G04 #@! TO.P,J4,1*
G04 #@! TO.N,GND*
X177038000Y-90805000D03*
D15*
G04 #@! TO.P,J4,2*
G04 #@! TO.N,Net-(J4-Pad2)*
X177038000Y-93345000D03*
G04 #@! TO.P,J4,3*
G04 #@! TO.N,N/C*
X177038000Y-95885000D03*
G04 #@! TO.P,J4,4*
G04 #@! TO.N,Net-(J4-Pad4)*
X177038000Y-98425000D03*
G04 #@! TO.P,J4,5*
G04 #@! TO.N,Net-(J4-Pad5)*
X177038000Y-100965000D03*
G04 #@! TO.P,J4,6*
G04 #@! TO.N,Net-(J4-Pad6)*
X177038000Y-103505000D03*
G04 #@! TD*
D16*
G04 #@! TO.P,J5,1*
G04 #@! TO.N,PA0*
X89344500Y-92837000D03*
D17*
G04 #@! TO.P,J5,2*
G04 #@! TO.N,PA1*
X86804500Y-92837000D03*
G04 #@! TO.P,J5,3*
G04 #@! TO.N,PA2*
X89344500Y-90297000D03*
G04 #@! TO.P,J5,4*
G04 #@! TO.N,PA3*
X86804500Y-90297000D03*
G04 #@! TO.P,J5,5*
G04 #@! TO.N,PA4*
X89344500Y-87757000D03*
G04 #@! TO.P,J5,6*
G04 #@! TO.N,PA5*
X86804500Y-87757000D03*
G04 #@! TO.P,J5,7*
G04 #@! TO.N,PA6*
X89344500Y-85217000D03*
G04 #@! TO.P,J5,8*
G04 #@! TO.N,PA7*
X86804500Y-85217000D03*
G04 #@! TO.P,J5,9*
G04 #@! TO.N,PC4*
X89344500Y-82677000D03*
G04 #@! TO.P,J5,10*
G04 #@! TO.N,PC5*
X86804500Y-82677000D03*
G04 #@! TO.P,J5,11*
G04 #@! TO.N,PC6*
X89344500Y-80137000D03*
G04 #@! TO.P,J5,12*
G04 #@! TO.N,PC7*
X86804500Y-80137000D03*
G04 #@! TO.P,J5,13*
G04 #@! TO.N,VCC*
X89344500Y-77597000D03*
G04 #@! TO.P,J5,14*
G04 #@! TO.N,GND*
X86804500Y-77597000D03*
G04 #@! TD*
D16*
G04 #@! TO.P,J6,1*
G04 #@! TO.N,PB0*
X89408000Y-122555000D03*
D17*
G04 #@! TO.P,J6,2*
G04 #@! TO.N,PB1*
X86868000Y-122555000D03*
G04 #@! TO.P,J6,3*
G04 #@! TO.N,PB2*
X89408000Y-120015000D03*
G04 #@! TO.P,J6,4*
G04 #@! TO.N,PB3*
X86868000Y-120015000D03*
G04 #@! TO.P,J6,5*
G04 #@! TO.N,PB4*
X89408000Y-117475000D03*
G04 #@! TO.P,J6,6*
G04 #@! TO.N,PB5*
X86868000Y-117475000D03*
G04 #@! TO.P,J6,7*
G04 #@! TO.N,PB6*
X89408000Y-114935000D03*
G04 #@! TO.P,J6,8*
G04 #@! TO.N,PB7*
X86868000Y-114935000D03*
G04 #@! TO.P,J6,9*
G04 #@! TO.N,PC0*
X89408000Y-112395000D03*
G04 #@! TO.P,J6,10*
G04 #@! TO.N,PC1*
X86868000Y-112395000D03*
G04 #@! TO.P,J6,11*
G04 #@! TO.N,PC2*
X89408000Y-109855000D03*
G04 #@! TO.P,J6,12*
G04 #@! TO.N,PC3*
X86868000Y-109855000D03*
G04 #@! TO.P,J6,13*
G04 #@! TO.N,VCC*
X89408000Y-107315000D03*
G04 #@! TO.P,J6,14*
G04 #@! TO.N,GND*
X86868000Y-107315000D03*
G04 #@! TD*
D12*
G04 #@! TO.P,J7,1*
G04 #@! TO.N,Net-(J2-Pad1)*
X140843000Y-92710000D03*
D13*
G04 #@! TO.P,J7,2*
G04 #@! TO.N,~CE*
X143383000Y-92710000D03*
G04 #@! TO.P,J7,3*
G04 #@! TO.N,Net-(J2-Pad3)*
X140843000Y-95250000D03*
G04 #@! TO.P,J7,4*
G04 #@! TO.N,~CE*
X143383000Y-95250000D03*
G04 #@! TO.P,J7,5*
G04 #@! TO.N,Net-(J2-Pad5)*
X140843000Y-97790000D03*
G04 #@! TO.P,J7,6*
G04 #@! TO.N,~CE*
X143383000Y-97790000D03*
G04 #@! TO.P,J7,7*
G04 #@! TO.N,Net-(J2-Pad7)*
X140843000Y-100330000D03*
G04 #@! TO.P,J7,8*
G04 #@! TO.N,~CE*
X143383000Y-100330000D03*
G04 #@! TO.P,J7,9*
G04 #@! TO.N,Net-(J2-Pad9)*
X140843000Y-102870000D03*
G04 #@! TO.P,J7,10*
G04 #@! TO.N,~CE*
X143383000Y-102870000D03*
G04 #@! TO.P,J7,11*
G04 #@! TO.N,Net-(J2-Pad11)*
X140843000Y-105410000D03*
G04 #@! TO.P,J7,12*
G04 #@! TO.N,~CE*
X143383000Y-105410000D03*
G04 #@! TO.P,J7,13*
G04 #@! TO.N,Net-(J2-Pad13)*
X140843000Y-107950000D03*
G04 #@! TO.P,J7,14*
G04 #@! TO.N,~CE*
X143383000Y-107950000D03*
G04 #@! TO.P,J7,15*
G04 #@! TO.N,Net-(J2-Pad15)*
X140843000Y-110490000D03*
G04 #@! TO.P,J7,16*
G04 #@! TO.N,~CE*
X143383000Y-110490000D03*
G04 #@! TD*
D18*
G04 #@! TO.P,P5,1*
G04 #@! TO.N,N/C*
X86523000Y-67285000D03*
G04 #@! TD*
G04 #@! TO.P,P6,1*
G04 #@! TO.N,N/C*
X175523000Y-67285000D03*
G04 #@! TD*
G04 #@! TO.P,P7,1*
G04 #@! TO.N,N/C*
X86513000Y-133285000D03*
G04 #@! TD*
G04 #@! TO.P,P8,1*
G04 #@! TO.N,N/C*
X175533000Y-133315000D03*
G04 #@! TD*
D11*
G04 #@! TO.P,R1,1*
G04 #@! TO.N,Net-(C2-Pad1)*
X139573000Y-115570000D03*
D19*
G04 #@! TO.P,R1,2*
G04 #@! TO.N,Net-(C1-Pad1)*
X139573000Y-125730000D03*
G04 #@! TD*
D20*
G04 #@! TO.P,U1,1*
G04 #@! TO.N,A5*
X118618000Y-92075000D03*
D19*
G04 #@! TO.P,U1,9*
G04 #@! TO.N,Net-(J2-Pad13)*
X126238000Y-109855000D03*
G04 #@! TO.P,U1,2*
G04 #@! TO.N,A6*
X118618000Y-94615000D03*
G04 #@! TO.P,U1,10*
G04 #@! TO.N,Net-(J2-Pad11)*
X126238000Y-107315000D03*
G04 #@! TO.P,U1,3*
G04 #@! TO.N,A7*
X118618000Y-97155000D03*
G04 #@! TO.P,U1,11*
G04 #@! TO.N,Net-(J2-Pad9)*
X126238000Y-104775000D03*
G04 #@! TO.P,U1,4*
G04 #@! TO.N,GND*
X118618000Y-99695000D03*
G04 #@! TO.P,U1,12*
G04 #@! TO.N,Net-(J2-Pad7)*
X126238000Y-102235000D03*
G04 #@! TO.P,U1,5*
G04 #@! TO.N,GND*
X118618000Y-102235000D03*
G04 #@! TO.P,U1,13*
G04 #@! TO.N,Net-(J2-Pad5)*
X126238000Y-99695000D03*
G04 #@! TO.P,U1,6*
G04 #@! TO.N,VCC*
X118618000Y-104775000D03*
G04 #@! TO.P,U1,14*
G04 #@! TO.N,Net-(J2-Pad3)*
X126238000Y-97155000D03*
G04 #@! TO.P,U1,7*
G04 #@! TO.N,Net-(J2-Pad15)*
X118618000Y-107315000D03*
G04 #@! TO.P,U1,15*
G04 #@! TO.N,Net-(J2-Pad1)*
X126238000Y-94615000D03*
G04 #@! TO.P,U1,8*
G04 #@! TO.N,GND*
X118618000Y-109855000D03*
G04 #@! TO.P,U1,16*
G04 #@! TO.N,VCC*
X126238000Y-92075000D03*
G04 #@! TD*
D20*
G04 #@! TO.P,U2,1*
G04 #@! TO.N,D2*
X156083000Y-90805000D03*
D19*
G04 #@! TO.P,U2,15*
G04 #@! TO.N,N/C*
X171323000Y-123825000D03*
G04 #@! TO.P,U2,2*
G04 #@! TO.N,D3*
X156083000Y-93345000D03*
G04 #@! TO.P,U2,16*
G04 #@! TO.N,N/C*
X171323000Y-121285000D03*
G04 #@! TO.P,U2,3*
G04 #@! TO.N,Net-(J4-Pad4)*
X156083000Y-95885000D03*
G04 #@! TO.P,U2,17*
G04 #@! TO.N,Net-(J4-Pad6)*
X171323000Y-118745000D03*
G04 #@! TO.P,U2,4*
G04 #@! TO.N,GND*
X156083000Y-98425000D03*
G04 #@! TO.P,U2,18*
G04 #@! TO.N,N/C*
X171323000Y-116205000D03*
G04 #@! TO.P,U2,5*
G04 #@! TO.N,D4*
X156083000Y-100965000D03*
G04 #@! TO.P,U2,19*
G04 #@! TO.N,Net-(J4-Pad5)*
X171323000Y-113665000D03*
G04 #@! TO.P,U2,6*
G04 #@! TO.N,D5*
X156083000Y-103505000D03*
G04 #@! TO.P,U2,20*
G04 #@! TO.N,CLK*
X171323000Y-111125000D03*
G04 #@! TO.P,U2,7*
G04 #@! TO.N,D6*
X156083000Y-106045000D03*
G04 #@! TO.P,U2,21*
G04 #@! TO.N,RES*
X171323000Y-108585000D03*
G04 #@! TO.P,U2,8*
G04 #@! TO.N,D7*
X156083000Y-108585000D03*
G04 #@! TO.P,U2,22*
G04 #@! TO.N,Net-(U2-Pad22)*
X171323000Y-106045000D03*
G04 #@! TO.P,U2,9*
G04 #@! TO.N,Net-(U2-Pad25)*
X156083000Y-111125000D03*
G04 #@! TO.P,U2,23*
G04 #@! TO.N,Net-(J4-Pad2)*
X171323000Y-103505000D03*
G04 #@! TO.P,U2,10*
G04 #@! TO.N,~IOW*
X156083000Y-113665000D03*
G04 #@! TO.P,U2,24*
G04 #@! TO.N,Net-(U2-Pad22)*
X171323000Y-100965000D03*
G04 #@! TO.P,U2,11*
G04 #@! TO.N,Net-(J2-Pad10)*
X156083000Y-116205000D03*
G04 #@! TO.P,U2,25*
G04 #@! TO.N,Net-(U2-Pad25)*
X171323000Y-98425000D03*
G04 #@! TO.P,U2,12*
G04 #@! TO.N,A0*
X156083000Y-118745000D03*
G04 #@! TO.P,U2,26*
G04 #@! TO.N,VCC*
X171323000Y-95885000D03*
G04 #@! TO.P,U2,13*
G04 #@! TO.N,~IOR*
X156083000Y-121285000D03*
G04 #@! TO.P,U2,27*
G04 #@! TO.N,D0*
X171323000Y-93345000D03*
G04 #@! TO.P,U2,14*
G04 #@! TO.N,INT*
X156083000Y-123825000D03*
G04 #@! TO.P,U2,28*
G04 #@! TO.N,D1*
X171323000Y-90805000D03*
G04 #@! TD*
G04 #@! TO.P,U3,1*
G04 #@! TO.N,PA3*
X95758000Y-83820000D03*
G04 #@! TO.P,U3,2*
G04 #@! TO.N,PA2*
X95758000Y-86360000D03*
G04 #@! TO.P,U3,3*
G04 #@! TO.N,PA1*
X95758000Y-88900000D03*
G04 #@! TO.P,U3,4*
G04 #@! TO.N,PA0*
X95758000Y-91440000D03*
G04 #@! TO.P,U3,5*
G04 #@! TO.N,~IOR*
X95758000Y-93980000D03*
G04 #@! TO.P,U3,6*
G04 #@! TO.N,Net-(J3-Pad10)*
X95758000Y-96520000D03*
G04 #@! TO.P,U3,7*
G04 #@! TO.N,GND*
X95758000Y-99060000D03*
G04 #@! TO.P,U3,8*
G04 #@! TO.N,A1*
X95758000Y-101600000D03*
G04 #@! TO.P,U3,9*
G04 #@! TO.N,A0*
X95758000Y-104140000D03*
G04 #@! TO.P,U3,10*
G04 #@! TO.N,PC7*
X95758000Y-106680000D03*
G04 #@! TO.P,U3,11*
G04 #@! TO.N,PC6*
X95758000Y-109220000D03*
G04 #@! TO.P,U3,12*
G04 #@! TO.N,PC5*
X95758000Y-111760000D03*
G04 #@! TO.P,U3,13*
G04 #@! TO.N,PC4*
X95758000Y-114300000D03*
G04 #@! TO.P,U3,14*
G04 #@! TO.N,PC0*
X95758000Y-116840000D03*
G04 #@! TO.P,U3,15*
G04 #@! TO.N,PC1*
X95758000Y-119380000D03*
G04 #@! TO.P,U3,16*
G04 #@! TO.N,PC2*
X95758000Y-121920000D03*
G04 #@! TO.P,U3,17*
G04 #@! TO.N,PC3*
X95758000Y-124460000D03*
G04 #@! TO.P,U3,18*
G04 #@! TO.N,PB0*
X95758000Y-127000000D03*
G04 #@! TO.P,U3,19*
G04 #@! TO.N,PB1*
X95758000Y-129540000D03*
G04 #@! TO.P,U3,20*
G04 #@! TO.N,PB2*
X95758000Y-132080000D03*
G04 #@! TO.P,U3,21*
G04 #@! TO.N,PB3*
X110998000Y-132080000D03*
G04 #@! TO.P,U3,22*
G04 #@! TO.N,PB4*
X110998000Y-129540000D03*
G04 #@! TO.P,U3,23*
G04 #@! TO.N,PB5*
X110998000Y-127000000D03*
G04 #@! TO.P,U3,24*
G04 #@! TO.N,PB6*
X110998000Y-124460000D03*
G04 #@! TO.P,U3,25*
G04 #@! TO.N,PB7*
X110998000Y-121920000D03*
G04 #@! TO.P,U3,26*
G04 #@! TO.N,VCC*
X110998000Y-119380000D03*
G04 #@! TO.P,U3,27*
G04 #@! TO.N,D7*
X110998000Y-116840000D03*
G04 #@! TO.P,U3,28*
G04 #@! TO.N,D6*
X110998000Y-114300000D03*
G04 #@! TO.P,U3,29*
G04 #@! TO.N,D5*
X110998000Y-111760000D03*
G04 #@! TO.P,U3,30*
G04 #@! TO.N,D4*
X110998000Y-109220000D03*
G04 #@! TO.P,U3,31*
G04 #@! TO.N,D3*
X110998000Y-106680000D03*
G04 #@! TO.P,U3,32*
G04 #@! TO.N,D2*
X110998000Y-104140000D03*
G04 #@! TO.P,U3,33*
G04 #@! TO.N,D1*
X110998000Y-101600000D03*
G04 #@! TO.P,U3,34*
G04 #@! TO.N,D0*
X110998000Y-99060000D03*
G04 #@! TO.P,U3,35*
G04 #@! TO.N,RES*
X110998000Y-96520000D03*
G04 #@! TO.P,U3,36*
G04 #@! TO.N,~IOW*
X110998000Y-93980000D03*
G04 #@! TO.P,U3,37*
G04 #@! TO.N,PA7*
X110998000Y-91440000D03*
G04 #@! TO.P,U3,38*
G04 #@! TO.N,PA6*
X110998000Y-88900000D03*
G04 #@! TO.P,U3,39*
G04 #@! TO.N,PA5*
X110998000Y-86360000D03*
G04 #@! TO.P,U3,40*
G04 #@! TO.N,PA4*
X110998000Y-83820000D03*
G04 #@! TD*
D20*
G04 #@! TO.P,U4,1*
G04 #@! TO.N,N/C*
X118618000Y-115570000D03*
D19*
G04 #@! TO.P,U4,9*
X126238000Y-133350000D03*
G04 #@! TO.P,U4,2*
X118618000Y-118110000D03*
G04 #@! TO.P,U4,10*
G04 #@! TO.N,Net-(C1-Pad1)*
X126238000Y-130810000D03*
G04 #@! TO.P,U4,3*
G04 #@! TO.N,N/C*
X118618000Y-120650000D03*
G04 #@! TO.P,U4,11*
G04 #@! TO.N,Net-(C2-Pad1)*
X126238000Y-128270000D03*
G04 #@! TO.P,U4,4*
G04 #@! TO.N,N/C*
X118618000Y-123190000D03*
G04 #@! TO.P,U4,12*
G04 #@! TO.N,GND*
X126238000Y-125730000D03*
G04 #@! TO.P,U4,5*
G04 #@! TO.N,Net-(U2-Pad25)*
X118618000Y-125730000D03*
G04 #@! TO.P,U4,13*
G04 #@! TO.N,N/C*
X126238000Y-123190000D03*
G04 #@! TO.P,U4,6*
X118618000Y-128270000D03*
G04 #@! TO.P,U4,14*
X126238000Y-120650000D03*
G04 #@! TO.P,U4,7*
X118618000Y-130810000D03*
G04 #@! TO.P,U4,15*
X126238000Y-118110000D03*
G04 #@! TO.P,U4,8*
G04 #@! TO.N,GND*
X118618000Y-133350000D03*
G04 #@! TO.P,U4,16*
G04 #@! TO.N,VCC*
X126238000Y-115570000D03*
G04 #@! TD*
D21*
G04 #@! TO.P,Y1,1*
G04 #@! TO.N,Net-(C2-Pad1)*
X133223000Y-117475000D03*
G04 #@! TO.P,Y1,2*
G04 #@! TO.N,Net-(C1-Pad1)*
X133223000Y-122555000D03*
G04 #@! TD*
D11*
G04 #@! TO.P,R2,1*
G04 #@! TO.N,Net-(Q1-Pad3)*
X165608000Y-78105000D03*
D19*
G04 #@! TO.P,R2,2*
G04 #@! TO.N,RES*
X165608000Y-67945000D03*
G04 #@! TD*
G04 #@! TO.P,R3,2*
G04 #@! TO.N,/~RESIN*
X170688000Y-67945000D03*
D11*
G04 #@! TO.P,R3,1*
G04 #@! TO.N,VCC*
X170688000Y-78105000D03*
G04 #@! TD*
D20*
G04 #@! TO.P,C7,1*
G04 #@! TO.N,VCC*
X95123000Y-71056500D03*
D11*
G04 #@! TO.P,C7,2*
G04 #@! TO.N,GND*
X97623000Y-71056500D03*
G04 #@! TD*
D22*
G04 #@! TO.P,Q1,2*
G04 #@! TO.N,/~RESIN*
X175243000Y-82565000D03*
G04 #@! TO.P,Q1,3*
G04 #@! TO.N,Net-(Q1-Pad3)*
X175243000Y-85105000D03*
D23*
G04 #@! TO.P,Q1,1*
G04 #@! TO.N,GND*
X175243000Y-80025000D03*
G04 #@! TD*
D24*
G04 #@! TO.N,GND*
X105438000Y-79257200D03*
G04 #@! TO.N,D6*
X124345000Y-81007600D03*
G04 #@! TO.N,~IOR*
X125420000Y-84970400D03*
G04 #@! TO.N,~IOW*
X137533000Y-78200800D03*
G04 #@! TO.N,A0*
X146022000Y-111656000D03*
G04 #@! TO.N,RES*
X120950000Y-95815400D03*
G04 #@! TO.N,A1*
X136511000Y-71184300D03*
G04 #@! TO.N,A5*
X122992000Y-92075000D03*
G04 #@! TO.N,A6*
X140528000Y-85781900D03*
G04 #@! TO.N,/~RESIN*
X174604200Y-88136400D03*
X139972400Y-90927000D03*
G04 #@! TD*
D25*
G04 #@! TO.N,GND*
X118618000Y-102235000D02*
X117308000Y-103545000D01*
X117308000Y-103545000D02*
X117308000Y-108545000D01*
X117308000Y-108545000D02*
X118618000Y-109855000D01*
X126238000Y-125730000D02*
X127543000Y-125730000D01*
X127543000Y-125730000D02*
X129746000Y-127932000D01*
X129746000Y-127932000D02*
X142410000Y-127932000D01*
X109347000Y-73533000D02*
X106807000Y-73533000D01*
X147153000Y-123190000D02*
X142410000Y-127932000D01*
X95758000Y-99060000D02*
X94452900Y-99060000D01*
X94452900Y-99060000D02*
X87553000Y-105960000D01*
X87553000Y-105960000D02*
X86868000Y-105960000D01*
X86868000Y-105960000D02*
X86868000Y-107315000D01*
X156083000Y-98425000D02*
X154540000Y-99967500D01*
X154540000Y-99967500D02*
X154540000Y-108903000D01*
X154540000Y-108903000D02*
X147239000Y-116205000D01*
X147239000Y-116205000D02*
X147153000Y-116205000D01*
X121833000Y-89535000D02*
X111555000Y-79257200D01*
X111555000Y-79257200D02*
X105438000Y-79257200D01*
X142410000Y-127932000D02*
X145923000Y-131445000D01*
X148463000Y-131445000D02*
X145923000Y-131445000D01*
X166791000Y-88011000D02*
X168114000Y-86687600D01*
X168114000Y-86687600D02*
X176403000Y-86687600D01*
X176403000Y-86687600D02*
X177038000Y-87322600D01*
X177038000Y-87322600D02*
X177038000Y-90805000D01*
G04 #@! TO.N,VCC*
X123628000Y-114265000D02*
X123628000Y-113100000D01*
X123628000Y-113100000D02*
X124333000Y-112395000D01*
X113538000Y-116840000D02*
X116113000Y-114265000D01*
X116113000Y-114265000D02*
X123628000Y-114265000D01*
X126238000Y-115570000D02*
X124933000Y-115570000D01*
X124933000Y-115570000D02*
X123628000Y-114265000D01*
X169291000Y-88011000D02*
X167983000Y-89319400D01*
X167983000Y-89319400D02*
X130299000Y-89319400D01*
X130299000Y-89319400D02*
X127543000Y-92075000D01*
X127543000Y-92075000D02*
X126238000Y-92075000D01*
X124333000Y-89535000D02*
X113008000Y-78209500D01*
X113008000Y-78209500D02*
X111484000Y-78209500D01*
X111484000Y-78209500D02*
X109347000Y-76073000D01*
X109347000Y-76073000D02*
X106807000Y-76073000D01*
X106807000Y-76073000D02*
X100418900Y-76136500D01*
X95123000Y-72466100D02*
X95123000Y-71056500D01*
X98793400Y-76136500D02*
X95123000Y-72466100D01*
X100418900Y-76136500D02*
X98793400Y-76136500D01*
X89344500Y-77597000D02*
X89344500Y-75336400D01*
X93624400Y-71056500D02*
X95123000Y-71056500D01*
X89344500Y-75336400D02*
X93624400Y-71056500D01*
D26*
G04 #@! TO.N,D0*
X116967000Y-76073000D02*
X118132000Y-76073000D01*
X118132000Y-76073000D02*
X118132000Y-76364400D01*
X118132000Y-76364400D02*
X121969000Y-80200600D01*
X121969000Y-80200600D02*
X145799000Y-80200600D01*
X145799000Y-80200600D02*
X149063000Y-83465000D01*
X149063000Y-83465000D02*
X149063000Y-83643300D01*
X149063000Y-83643300D02*
X150327000Y-84907100D01*
X150327000Y-84907100D02*
X161252000Y-84907100D01*
X161252000Y-84907100D02*
X162538000Y-83622100D01*
X162538000Y-83622100D02*
X162538000Y-83185000D01*
X162538000Y-83185000D02*
X163703000Y-83185000D01*
G04 #@! TO.N,D1*
X116967000Y-73533000D02*
X118132000Y-73533000D01*
X118132000Y-73533000D02*
X118132000Y-73170700D01*
X118132000Y-73170700D02*
X119354000Y-71948800D01*
X119354000Y-71948800D02*
X129743000Y-71948800D01*
X129743000Y-71948800D02*
X130937000Y-73142500D01*
X130937000Y-73142500D02*
X130937000Y-76501600D01*
X130937000Y-76501600D02*
X131724000Y-77289100D01*
X131724000Y-77289100D02*
X137677000Y-77289100D01*
X137677000Y-77289100D02*
X138040000Y-77651800D01*
X138040000Y-77651800D02*
X154901000Y-77651800D01*
X154901000Y-77651800D02*
X159998000Y-82747900D01*
X159998000Y-82747900D02*
X159998000Y-83185000D01*
X159998000Y-83185000D02*
X161163000Y-83185000D01*
G04 #@! TO.N,D2*
X119507000Y-76073000D02*
X120672000Y-76073000D01*
X120672000Y-76073000D02*
X120672000Y-76364400D01*
X120672000Y-76364400D02*
X124105000Y-79797100D01*
X124105000Y-79797100D02*
X145966000Y-79797100D01*
X145966000Y-79797100D02*
X149538000Y-83368900D01*
X149538000Y-83368900D02*
X149538000Y-83547200D01*
X149538000Y-83547200D02*
X150494000Y-84503600D01*
X150494000Y-84503600D02*
X156615000Y-84503600D01*
X156615000Y-84503600D02*
X157458000Y-83661500D01*
X157458000Y-83661500D02*
X157458000Y-83185000D01*
X157458000Y-83185000D02*
X158623000Y-83185000D01*
G04 #@! TO.N,D3*
X156083000Y-83185000D02*
X154918000Y-83185000D01*
X154918000Y-83185000D02*
X154918000Y-82747900D01*
X154918000Y-82747900D02*
X151117000Y-78947300D01*
X151117000Y-78947300D02*
X130843000Y-78947300D01*
X130843000Y-78947300D02*
X128397000Y-76501400D01*
X128397000Y-76501400D02*
X128397000Y-73134300D01*
X128397000Y-73134300D02*
X127615000Y-72352400D01*
X127615000Y-72352400D02*
X121491000Y-72352400D01*
X121491000Y-72352400D02*
X120672000Y-73170700D01*
X120672000Y-73170700D02*
X120672000Y-73533000D01*
X120672000Y-73533000D02*
X119507000Y-73533000D01*
G04 #@! TO.N,D4*
X122047000Y-76073000D02*
X123212000Y-76073000D01*
X123212000Y-76073000D02*
X123212000Y-76364400D01*
X123212000Y-76364400D02*
X126242000Y-79393600D01*
X126242000Y-79393600D02*
X149063000Y-79393600D01*
X149063000Y-79393600D02*
X152378000Y-82708500D01*
X152378000Y-82708500D02*
X152378000Y-83185000D01*
X152378000Y-83185000D02*
X153543000Y-83185000D01*
G04 #@! TO.N,D6*
X146939000Y-83185000D02*
X145774000Y-83185000D01*
X145774000Y-83185000D02*
X145774000Y-82708500D01*
X145774000Y-82708500D02*
X143669000Y-80604100D01*
X143669000Y-80604100D02*
X124748000Y-80604100D01*
X124748000Y-80604100D02*
X124345000Y-81007600D01*
G04 #@! TO.N,D7*
X110998000Y-116840000D02*
X112100000Y-116840000D01*
X112100000Y-116840000D02*
X112100000Y-116978000D01*
X112100000Y-116978000D02*
X114342000Y-119219000D01*
X114342000Y-119219000D02*
X145700000Y-119219000D01*
X145700000Y-119219000D02*
X155232000Y-109687000D01*
X155232000Y-109687000D02*
X156083000Y-109687000D01*
X156083000Y-109687000D02*
X156083000Y-108585000D01*
X144399000Y-83185000D02*
X142222000Y-81007600D01*
X142222000Y-81007600D02*
X135258000Y-81007600D01*
X135258000Y-81007600D02*
X134507000Y-81759000D01*
X134507000Y-81759000D02*
X121000000Y-81759000D01*
X121000000Y-81759000D02*
X115801000Y-76560200D01*
X115801000Y-76560200D02*
X115801000Y-75488700D01*
X115801000Y-75488700D02*
X116487000Y-74803000D01*
X116487000Y-74803000D02*
X122514000Y-74803000D01*
X122514000Y-74803000D02*
X123422000Y-73895200D01*
X123422000Y-73895200D02*
X123422000Y-73533000D01*
X123422000Y-73533000D02*
X124587000Y-73533000D01*
G04 #@! TO.N,~IOR*
X125826000Y-85376000D02*
X125826000Y-89682900D01*
X125826000Y-89682900D02*
X124576000Y-90932900D01*
X124576000Y-90932900D02*
X113084000Y-90932900D01*
X113084000Y-90932900D02*
X111307000Y-92710000D01*
X111307000Y-92710000D02*
X109115000Y-92710000D01*
X109115000Y-92710000D02*
X107845000Y-93980000D01*
X107845000Y-93980000D02*
X95758000Y-93980000D01*
X141859000Y-83185000D02*
X140694000Y-83185000D01*
X140694000Y-83185000D02*
X140694000Y-82708500D01*
X140694000Y-82708500D02*
X139832000Y-81846700D01*
X139832000Y-81846700D02*
X136306000Y-81846700D01*
X136306000Y-81846700D02*
X135509000Y-82644200D01*
X135509000Y-82644200D02*
X135509000Y-83753900D01*
X135509000Y-83753900D02*
X134360000Y-84903000D01*
X134360000Y-84903000D02*
X126299000Y-84903000D01*
X126299000Y-84903000D02*
X125826000Y-85376000D01*
X125826000Y-85376000D02*
X125420000Y-84970400D01*
G04 #@! TO.N,~IOW*
X110998000Y-93980000D02*
X112100000Y-93980000D01*
X112100000Y-93980000D02*
X112587000Y-93493200D01*
X112587000Y-93493200D02*
X122689000Y-93493200D01*
X122689000Y-93493200D02*
X130875000Y-85306600D01*
X130875000Y-85306600D02*
X136508000Y-85306600D01*
X136508000Y-85306600D02*
X138154000Y-83661500D01*
X138154000Y-83661500D02*
X138154000Y-83185000D01*
X138154000Y-83185000D02*
X139319000Y-83185000D01*
X137533000Y-78200800D02*
X131795000Y-78200800D01*
X131795000Y-78200800D02*
X129667000Y-76073000D01*
G04 #@! TO.N,A0*
X95758000Y-104140000D02*
X96859900Y-104140000D01*
X96859900Y-104140000D02*
X97961800Y-105242000D01*
X97961800Y-105242000D02*
X111628000Y-105242000D01*
X111628000Y-105242000D02*
X117343000Y-110957000D01*
X117343000Y-110957000D02*
X130894000Y-110957000D01*
X130894000Y-110957000D02*
X131593000Y-111656000D01*
X131593000Y-111656000D02*
X146022000Y-111656000D01*
G04 #@! TO.N,Net-(C1-Pad1)*
X139573000Y-125730000D02*
X142113000Y-125730000D01*
X142113000Y-125730000D02*
X144653000Y-123190000D01*
X133223000Y-122555000D02*
X135296000Y-122555000D01*
X135296000Y-122555000D02*
X138471000Y-125730000D01*
X138471000Y-125730000D02*
X139573000Y-125730000D01*
G04 #@! TO.N,Net-(C2-Pad1)*
X139573000Y-116205000D02*
X144653000Y-116205000D01*
X133223000Y-117475000D02*
X138303000Y-117475000D01*
X138303000Y-117475000D02*
X139573000Y-116205000D01*
X139573000Y-116205000D02*
X139573000Y-115570000D01*
G04 #@! TO.N,CLK*
X171323000Y-111125000D02*
X171323000Y-110023000D01*
X171323000Y-110023000D02*
X172425000Y-110023000D01*
X172425000Y-110023000D02*
X179216000Y-103232000D01*
X179216000Y-103232000D02*
X179216000Y-79988300D01*
X179216000Y-79988300D02*
X166031000Y-66802600D01*
X166031000Y-66802600D02*
X121961000Y-66802600D01*
X121961000Y-66802600D02*
X115592000Y-73170700D01*
X115592000Y-73170700D02*
X115592000Y-73533000D01*
X115592000Y-73533000D02*
X114427000Y-73533000D01*
G04 #@! TO.N,RES*
X110998000Y-96520000D02*
X112100000Y-96520000D01*
X112100000Y-96520000D02*
X112804000Y-95815400D01*
X112804000Y-95815400D02*
X120950000Y-95815400D01*
X132207000Y-76073000D02*
X132207000Y-74907500D01*
X132207000Y-74907500D02*
X132569000Y-74907500D01*
X132569000Y-74907500D02*
X133477000Y-73999700D01*
X133477000Y-73999700D02*
X133477000Y-73141300D01*
X133477000Y-73141300D02*
X138673000Y-67945100D01*
X138673000Y-67945100D02*
X164506000Y-67945100D01*
X164506000Y-67945100D02*
X164506000Y-67945000D01*
X164506000Y-67945000D02*
X165608000Y-67945000D01*
G04 #@! TO.N,A1*
X158623000Y-131445000D02*
X157458000Y-131445000D01*
X157458000Y-131445000D02*
X157458000Y-131882000D01*
X157458000Y-131882000D02*
X156555000Y-132785000D01*
X156555000Y-132785000D02*
X142917000Y-132785000D01*
X142917000Y-132785000D02*
X142113000Y-131981000D01*
X142113000Y-131981000D02*
X142113000Y-130895000D01*
X142113000Y-130895000D02*
X139812000Y-128593000D01*
X139812000Y-128593000D02*
X129036000Y-128593000D01*
X129036000Y-128593000D02*
X127443000Y-127000000D01*
X127443000Y-127000000D02*
X118271000Y-127000000D01*
X118271000Y-127000000D02*
X112176000Y-120905000D01*
X112176000Y-120905000D02*
X112176000Y-118996000D01*
X112176000Y-118996000D02*
X111290000Y-118110000D01*
X111290000Y-118110000D02*
X108988000Y-118110000D01*
X108988000Y-118110000D02*
X96373800Y-105496000D01*
X96373800Y-105496000D02*
X95493700Y-105496000D01*
X95493700Y-105496000D02*
X94613400Y-104615000D01*
X94613400Y-104615000D02*
X94613400Y-103618000D01*
X94613400Y-103618000D02*
X95529600Y-102702000D01*
X95529600Y-102702000D02*
X95758000Y-102702000D01*
X95758000Y-102702000D02*
X95758000Y-101600000D01*
X137287000Y-73533000D02*
X137287000Y-71960600D01*
X137287000Y-71960600D02*
X136511000Y-71184300D01*
G04 #@! TO.N,A5*
X118618000Y-92075000D02*
X122992000Y-92075000D01*
G04 #@! TO.N,A6*
X118618000Y-94615000D02*
X122138000Y-94615000D01*
X122138000Y-94615000D02*
X130971000Y-85781900D01*
X130971000Y-85781900D02*
X140528000Y-85781900D01*
G04 #@! TO.N,Net-(J2-Pad1)*
X140843000Y-92710000D02*
X142008000Y-92710000D01*
X142008000Y-92710000D02*
X142008000Y-92418600D01*
X142008000Y-92418600D02*
X142883000Y-91544500D01*
X142883000Y-91544500D02*
X146132000Y-91544500D01*
X146132000Y-91544500D02*
X147298000Y-92710000D01*
X147298000Y-92710000D02*
X148463000Y-92710000D01*
X133223000Y-92710000D02*
X134388000Y-92710000D01*
X134388000Y-92710000D02*
X134388000Y-92418600D01*
X134388000Y-92418600D02*
X135263000Y-91544500D01*
X135263000Y-91544500D02*
X138512000Y-91544500D01*
X138512000Y-91544500D02*
X139678000Y-92710000D01*
X139678000Y-92710000D02*
X140843000Y-92710000D01*
G04 #@! TO.N,Net-(J2-Pad3)*
X140843000Y-95250000D02*
X142008000Y-95250000D01*
X142008000Y-95250000D02*
X142008000Y-94958600D01*
X142008000Y-94958600D02*
X142908000Y-94059400D01*
X142908000Y-94059400D02*
X146107000Y-94059400D01*
X146107000Y-94059400D02*
X147298000Y-95250000D01*
X147298000Y-95250000D02*
X148463000Y-95250000D01*
X133223000Y-95250000D02*
X134388000Y-95250000D01*
X134388000Y-95250000D02*
X134388000Y-94958600D01*
X134388000Y-94958600D02*
X135288000Y-94059400D01*
X135288000Y-94059400D02*
X138487000Y-94059400D01*
X138487000Y-94059400D02*
X139678000Y-95250000D01*
X139678000Y-95250000D02*
X140843000Y-95250000D01*
G04 #@! TO.N,Net-(J2-Pad5)*
X140843000Y-97790000D02*
X142008000Y-97790000D01*
X142008000Y-97790000D02*
X142008000Y-97498600D01*
X142008000Y-97498600D02*
X142908000Y-96599400D01*
X142908000Y-96599400D02*
X146107000Y-96599400D01*
X146107000Y-96599400D02*
X147298000Y-97790000D01*
X147298000Y-97790000D02*
X148463000Y-97790000D01*
X140843000Y-97790000D02*
X139678000Y-97790000D01*
X139678000Y-97790000D02*
X138487000Y-96599400D01*
X138487000Y-96599400D02*
X135288000Y-96599400D01*
X135288000Y-96599400D02*
X134388000Y-97498600D01*
X134388000Y-97498600D02*
X134388000Y-97790000D01*
X134388000Y-97790000D02*
X133223000Y-97790000D01*
X126238000Y-99695000D02*
X130152000Y-99695000D01*
X130152000Y-99695000D02*
X132058000Y-97790000D01*
X132058000Y-97790000D02*
X133223000Y-97790000D01*
G04 #@! TO.N,Net-(J2-Pad7)*
X140843000Y-100330000D02*
X142008000Y-100330000D01*
X142008000Y-100330000D02*
X142008000Y-100039000D01*
X142008000Y-100039000D02*
X142908000Y-99139400D01*
X142908000Y-99139400D02*
X146107000Y-99139400D01*
X146107000Y-99139400D02*
X147298000Y-100330000D01*
X147298000Y-100330000D02*
X148463000Y-100330000D01*
X133223000Y-100330000D02*
X134388000Y-100330000D01*
X134388000Y-100330000D02*
X134388000Y-100039000D01*
X134388000Y-100039000D02*
X135288000Y-99139400D01*
X135288000Y-99139400D02*
X138487000Y-99139400D01*
X138487000Y-99139400D02*
X139678000Y-100330000D01*
X139678000Y-100330000D02*
X140843000Y-100330000D01*
G04 #@! TO.N,Net-(J2-Pad9)*
X133223000Y-102870000D02*
X134388000Y-102870000D01*
X134388000Y-102870000D02*
X134388000Y-102579000D01*
X134388000Y-102579000D02*
X135288000Y-101679000D01*
X135288000Y-101679000D02*
X138487000Y-101679000D01*
X138487000Y-101679000D02*
X139678000Y-102870000D01*
X139678000Y-102870000D02*
X140260000Y-102870000D01*
X140843000Y-102870000D02*
X140260000Y-102870000D01*
X140260000Y-102870000D02*
X141451000Y-101679000D01*
X141451000Y-101679000D02*
X146107000Y-101679000D01*
X146107000Y-101679000D02*
X147298000Y-102870000D01*
X147298000Y-102870000D02*
X148463000Y-102870000D01*
G04 #@! TO.N,Net-(J2-Pad11)*
X126238000Y-107315000D02*
X130152000Y-107315000D01*
X130152000Y-107315000D02*
X132058000Y-105410000D01*
X132058000Y-105410000D02*
X133223000Y-105410000D01*
X140843000Y-105410000D02*
X142008000Y-105410000D01*
X142008000Y-105410000D02*
X142008000Y-105119000D01*
X142008000Y-105119000D02*
X142886000Y-104241000D01*
X142886000Y-104241000D02*
X146128000Y-104241000D01*
X146128000Y-104241000D02*
X147298000Y-105410000D01*
X147298000Y-105410000D02*
X148463000Y-105410000D01*
X140843000Y-105410000D02*
X139678000Y-105410000D01*
X139678000Y-105410000D02*
X138487000Y-104219000D01*
X138487000Y-104219000D02*
X135217000Y-104219000D01*
X135217000Y-104219000D02*
X134388000Y-105048000D01*
X134388000Y-105048000D02*
X134388000Y-105410000D01*
X134388000Y-105410000D02*
X133223000Y-105410000D01*
G04 #@! TO.N,Net-(J2-Pad13)*
X140843000Y-107950000D02*
X142008000Y-107950000D01*
X142008000Y-107950000D02*
X142008000Y-107659000D01*
X142008000Y-107659000D02*
X142908000Y-106759000D01*
X142908000Y-106759000D02*
X146107000Y-106759000D01*
X146107000Y-106759000D02*
X147298000Y-107950000D01*
X147298000Y-107950000D02*
X148463000Y-107950000D01*
X133223000Y-107950000D02*
X134388000Y-107950000D01*
X134388000Y-107950000D02*
X134388000Y-107659000D01*
X134388000Y-107659000D02*
X135288000Y-106759000D01*
X135288000Y-106759000D02*
X138487000Y-106759000D01*
X138487000Y-106759000D02*
X139678000Y-107950000D01*
X139678000Y-107950000D02*
X140843000Y-107950000D01*
G04 #@! TO.N,Net-(J2-Pad15)*
X148463000Y-110490000D02*
X147298000Y-110490000D01*
X147298000Y-110490000D02*
X146089000Y-109281000D01*
X146089000Y-109281000D02*
X142926000Y-109281000D01*
X142926000Y-109281000D02*
X142008000Y-110199000D01*
X142008000Y-110199000D02*
X142008000Y-110490000D01*
X142008000Y-110490000D02*
X140843000Y-110490000D01*
X118618000Y-107315000D02*
X119720000Y-107315000D01*
X119720000Y-107315000D02*
X120822000Y-108417000D01*
X120822000Y-108417000D02*
X129984000Y-108417000D01*
X129984000Y-108417000D02*
X132058000Y-110490000D01*
X132058000Y-110490000D02*
X133223000Y-110490000D01*
X140843000Y-110490000D02*
X139678000Y-110490000D01*
X139678000Y-110490000D02*
X138487000Y-109299000D01*
X138487000Y-109299000D02*
X135217000Y-109299000D01*
X135217000Y-109299000D02*
X134388000Y-110128000D01*
X134388000Y-110128000D02*
X134388000Y-110490000D01*
X134388000Y-110490000D02*
X133223000Y-110490000D01*
G04 #@! TO.N,Net-(J3-Pad10)*
X95758000Y-96520000D02*
X96859900Y-96520000D01*
X96859900Y-96520000D02*
X100527000Y-100187000D01*
X100527000Y-100187000D02*
X111490000Y-100187000D01*
X111490000Y-100187000D02*
X112436000Y-101133000D01*
X112436000Y-101133000D02*
X130409000Y-101133000D01*
X130409000Y-101133000D02*
X130783000Y-101507000D01*
X130783000Y-101507000D02*
X134586000Y-101507000D01*
X134586000Y-101507000D02*
X135763000Y-100330000D01*
G04 #@! TO.N,Net-(J4-Pad4)*
X156083000Y-95885000D02*
X157185000Y-95885000D01*
X157185000Y-95885000D02*
X158559000Y-97259500D01*
X158559000Y-97259500D02*
X177038000Y-97259500D01*
X177038000Y-97259500D02*
X177038000Y-98425000D01*
G04 #@! TO.N,PA0*
X95758000Y-91440000D02*
X94656100Y-91440000D01*
X94656100Y-91440000D02*
X93259100Y-92837000D01*
X93259100Y-92837000D02*
X89344500Y-92837000D01*
G04 #@! TO.N,PA1*
X95758000Y-88900000D02*
X94656100Y-88900000D01*
X94656100Y-88900000D02*
X91871100Y-91685000D01*
X91871100Y-91685000D02*
X88293700Y-91685000D01*
X88293700Y-91685000D02*
X87956400Y-92022300D01*
X87956400Y-92022300D02*
X87956400Y-92837000D01*
X87956400Y-92837000D02*
X86804500Y-92837000D01*
G04 #@! TO.N,PA2*
X95758000Y-86360000D02*
X94433400Y-86360000D01*
X94433400Y-86360000D02*
X90496400Y-90297000D01*
X90496400Y-90297000D02*
X89344500Y-90297000D01*
G04 #@! TO.N,PA4*
X89344500Y-87757000D02*
X88192600Y-87757000D01*
X88192600Y-87757000D02*
X88192600Y-88045000D01*
X88192600Y-88045000D02*
X87297300Y-88940300D01*
X87297300Y-88940300D02*
X86354900Y-88940300D01*
X86354900Y-88940300D02*
X85208200Y-87793600D01*
X85208200Y-87793600D02*
X85208200Y-82637100D01*
X85208200Y-82637100D02*
X86361400Y-81483900D01*
X86361400Y-81483900D02*
X107560000Y-81483900D01*
X107560000Y-81483900D02*
X109896000Y-83820000D01*
X109896000Y-83820000D02*
X110998000Y-83820000D01*
G04 #@! TO.N,PA5*
X110998000Y-86360000D02*
X109896000Y-86360000D01*
X109896000Y-86360000D02*
X105796000Y-82259800D01*
X105796000Y-82259800D02*
X92338800Y-82259800D01*
X92338800Y-82259800D02*
X90651600Y-83947000D01*
X90651600Y-83947000D02*
X86437400Y-83947000D01*
X86437400Y-83947000D02*
X85611800Y-84772600D01*
X85611800Y-84772600D02*
X85611800Y-85681000D01*
X85611800Y-85681000D02*
X86535900Y-86605100D01*
X86535900Y-86605100D02*
X86804500Y-86605100D01*
X86804500Y-86605100D02*
X86804500Y-87757000D01*
G04 #@! TO.N,PA6*
X110998000Y-88900000D02*
X109896000Y-88900000D01*
X109896000Y-88900000D02*
X103686000Y-82690300D01*
X103686000Y-82690300D02*
X93023100Y-82690300D01*
X93023100Y-82690300D02*
X90496400Y-85217000D01*
X90496400Y-85217000D02*
X89344500Y-85217000D01*
G04 #@! TO.N,PA7*
X110998000Y-91440000D02*
X109896000Y-91440000D01*
X109896000Y-91440000D02*
X103696000Y-85239400D01*
X103696000Y-85239400D02*
X93869100Y-85239400D01*
X93869100Y-85239400D02*
X92705300Y-86403200D01*
X92705300Y-86403200D02*
X88874000Y-86403200D01*
X88874000Y-86403200D02*
X87956400Y-85485600D01*
X87956400Y-85485600D02*
X87956400Y-85217000D01*
X87956400Y-85217000D02*
X86804500Y-85217000D01*
G04 #@! TO.N,PB0*
X95758000Y-127000000D02*
X94656100Y-127000000D01*
X94656100Y-127000000D02*
X90559900Y-122904000D01*
X90559900Y-122904000D02*
X90559900Y-122555000D01*
X90559900Y-122555000D02*
X89408000Y-122555000D01*
G04 #@! TO.N,PB1*
X95758000Y-129540000D02*
X94190300Y-129540000D01*
X94190300Y-129540000D02*
X88019900Y-123370000D01*
X88019900Y-123370000D02*
X88019900Y-122555000D01*
X88019900Y-122555000D02*
X86868000Y-122555000D01*
G04 #@! TO.N,PB3*
X110998000Y-132080000D02*
X109896000Y-132080000D01*
X109896000Y-132080000D02*
X101006000Y-123190000D01*
X101006000Y-123190000D02*
X93712300Y-123190000D01*
X93712300Y-123190000D02*
X91925300Y-121403000D01*
X91925300Y-121403000D02*
X89139300Y-121403000D01*
X89139300Y-121403000D02*
X88019900Y-120284000D01*
X88019900Y-120284000D02*
X88019900Y-120015000D01*
X88019900Y-120015000D02*
X86868000Y-120015000D01*
G04 #@! TO.N,PB5*
X110998000Y-127000000D02*
X109896000Y-127000000D01*
X109896000Y-127000000D02*
X103546000Y-120650000D01*
X103546000Y-120650000D02*
X93341300Y-120650000D01*
X93341300Y-120650000D02*
X91436300Y-118745000D01*
X91436300Y-118745000D02*
X89021300Y-118745000D01*
X89021300Y-118745000D02*
X88019900Y-117744000D01*
X88019900Y-117744000D02*
X88019900Y-117475000D01*
X88019900Y-117475000D02*
X86868000Y-117475000D01*
G04 #@! TO.N,PB6*
X110998000Y-124460000D02*
X110998000Y-123358000D01*
X110998000Y-123358000D02*
X111136000Y-123358000D01*
X111136000Y-123358000D02*
X112102000Y-122391000D01*
X112102000Y-122391000D02*
X112102000Y-121434000D01*
X112102000Y-121434000D02*
X111319000Y-120650000D01*
X111319000Y-120650000D02*
X109896000Y-120650000D01*
X109896000Y-120650000D02*
X104658000Y-115412000D01*
X104658000Y-115412000D02*
X91037200Y-115412000D01*
X91037200Y-115412000D02*
X90559900Y-114935000D01*
X90559900Y-114935000D02*
X89408000Y-114935000D01*
G04 #@! TO.N,PB7*
X110998000Y-121920000D02*
X109896000Y-121920000D01*
X109896000Y-121920000D02*
X106086000Y-118110000D01*
X106086000Y-118110000D02*
X93341300Y-118110000D01*
X93341300Y-118110000D02*
X91436300Y-116205000D01*
X91436300Y-116205000D02*
X89021300Y-116205000D01*
X89021300Y-116205000D02*
X88019900Y-115204000D01*
X88019900Y-115204000D02*
X88019900Y-114935000D01*
X88019900Y-114935000D02*
X86868000Y-114935000D01*
G04 #@! TO.N,PC6*
X95758000Y-109220000D02*
X94656100Y-109220000D01*
X94656100Y-109220000D02*
X94021100Y-108585000D01*
X94021100Y-108585000D02*
X86450900Y-108585000D01*
X86450900Y-108585000D02*
X84349200Y-106483000D01*
X84349200Y-106483000D02*
X84349200Y-80894500D01*
X84349200Y-80894500D02*
X86297300Y-78946400D01*
X86297300Y-78946400D02*
X87270500Y-78946400D01*
X87270500Y-78946400D02*
X88192600Y-79868500D01*
X88192600Y-79868500D02*
X88192600Y-80137000D01*
X88192600Y-80137000D02*
X89344500Y-80137000D01*
G04 #@! TO.N,PC7*
X95758000Y-106680000D02*
X94207300Y-105129000D01*
X94207300Y-105129000D02*
X94207300Y-101537000D01*
X94207300Y-101537000D02*
X95414100Y-100330000D01*
X95414100Y-100330000D02*
X96046600Y-100330000D01*
X96046600Y-100330000D02*
X96866200Y-99510400D01*
X96866200Y-99510400D02*
X96866200Y-98590300D01*
X96866200Y-98590300D02*
X96196200Y-97920300D01*
X96196200Y-97920300D02*
X90217400Y-97920300D01*
X90217400Y-97920300D02*
X84752800Y-92455700D01*
X84752800Y-92455700D02*
X84752800Y-82188700D01*
X84752800Y-82188700D02*
X86804500Y-80137000D01*
G04 #@! TO.N,Net-(U2-Pad25)*
X171323000Y-98425000D02*
X170221000Y-98425000D01*
X170221000Y-98425000D02*
X157521000Y-111125000D01*
X157521000Y-111125000D02*
X156083000Y-111125000D01*
X118618000Y-125730000D02*
X119720000Y-125730000D01*
X119720000Y-125730000D02*
X120990000Y-124460000D01*
X120990000Y-124460000D02*
X128551000Y-124460000D01*
X128551000Y-124460000D02*
X132570000Y-120441000D01*
X132570000Y-120441000D02*
X145665000Y-120441000D01*
X145665000Y-120441000D02*
X154981000Y-111125000D01*
X154981000Y-111125000D02*
X156083000Y-111125000D01*
G04 #@! TO.N,/~RESIN*
X139972400Y-90927000D02*
X151188600Y-90927000D01*
X151188600Y-90927000D02*
X152193800Y-91932200D01*
X152193800Y-91932200D02*
X168163800Y-91932200D01*
X168163800Y-91932200D02*
X171959600Y-88136400D01*
X171959600Y-88136400D02*
X174604200Y-88136400D01*
G04 #@! TO.N,Net-(Q1-Pad3)*
X175243000Y-85105000D02*
X168243000Y-78105000D01*
X168243000Y-78105000D02*
X165608000Y-78105000D01*
G04 #@! TO.N,A3*
X139827000Y-73533000D02*
X140992000Y-73533000D01*
X140992000Y-73533000D02*
X140992000Y-73824500D01*
X140992000Y-73824500D02*
X141733000Y-74825000D01*
X141733000Y-74825000D02*
X171983000Y-74745000D01*
X171983000Y-74745000D02*
X178333000Y-80605000D01*
X178333000Y-80605000D02*
X178378000Y-98894200D01*
X178378000Y-98894200D02*
X177577000Y-99695000D01*
X177577000Y-99695000D02*
X176488000Y-99695000D01*
X176488000Y-99695000D02*
X173171000Y-103012000D01*
X173171000Y-103012000D02*
X173171000Y-103233000D01*
X173171000Y-103233000D02*
X171628000Y-104775000D01*
X171628000Y-104775000D02*
X171013000Y-104775000D01*
X171013000Y-104775000D02*
X163703000Y-112085000D01*
X163703000Y-112085000D02*
X163703000Y-131445000D01*
G04 #@! TO.N,A4*
X142367000Y-76073000D02*
X141202000Y-76073000D01*
X141202000Y-76073000D02*
X141202000Y-76364400D01*
X141202000Y-76364400D02*
X140318000Y-77248200D01*
X140318000Y-77248200D02*
X139271000Y-77248200D01*
X139271000Y-77248200D02*
X138646000Y-76623400D01*
X138646000Y-76623400D02*
X138646000Y-73059400D01*
X138646000Y-73059400D02*
X139743000Y-71505000D01*
X139743000Y-71505000D02*
X169953000Y-71555000D01*
X169953000Y-71555000D02*
X178793000Y-80455000D01*
X178793000Y-80455000D02*
X178809000Y-101059000D01*
X178809000Y-101059000D02*
X177633000Y-102235000D01*
X177633000Y-102235000D02*
X176500000Y-102235000D01*
X176500000Y-102235000D02*
X173289000Y-105446000D01*
X173289000Y-105446000D02*
X173289000Y-105680000D01*
X173289000Y-105680000D02*
X171653000Y-107315000D01*
X171653000Y-107315000D02*
X171027000Y-107315000D01*
X171027000Y-107315000D02*
X166243000Y-112099000D01*
X166243000Y-112099000D02*
X166243000Y-131445000D01*
G04 #@! TD*
D27*
G04 #@! TO.N,GND*
G36*
X180086000Y-136906000D02*
X81915000Y-136906000D01*
X81915000Y-132754501D01*
X83846000Y-132754501D01*
X83846000Y-133815499D01*
X84252026Y-134795734D01*
X85002266Y-135545974D01*
X85982501Y-135952000D01*
X87043499Y-135952000D01*
X88023734Y-135545974D01*
X88773974Y-134795734D01*
X89180000Y-133815499D01*
X89180000Y-133699039D01*
X117226096Y-133699039D01*
X117386959Y-134087423D01*
X117762866Y-134502389D01*
X118268959Y-134741914D01*
X118491000Y-134620629D01*
X118491000Y-133477000D01*
X118745000Y-133477000D01*
X118745000Y-134620629D01*
X118967041Y-134741914D01*
X119473134Y-134502389D01*
X119849041Y-134087423D01*
X120009904Y-133699039D01*
X119887915Y-133477000D01*
X118745000Y-133477000D01*
X118491000Y-133477000D01*
X117348085Y-133477000D01*
X117226096Y-133699039D01*
X89180000Y-133699039D01*
X89180000Y-132754501D01*
X88773974Y-131774266D01*
X88023734Y-131024026D01*
X87043499Y-130618000D01*
X85982501Y-130618000D01*
X85002266Y-131024026D01*
X84252026Y-131774266D01*
X83846000Y-132754501D01*
X81915000Y-132754501D01*
X81915000Y-80894500D01*
X83598171Y-80894500D01*
X83612601Y-80967045D01*
X83612600Y-106410434D01*
X83598171Y-106482947D01*
X83612600Y-106555513D01*
X83612600Y-106555543D01*
X83628378Y-106634865D01*
X83655319Y-106770356D01*
X83655333Y-106770377D01*
X83655339Y-106770406D01*
X83741011Y-106898623D01*
X83777016Y-106952517D01*
X83777033Y-106952534D01*
X83818142Y-107014058D01*
X83879622Y-107055138D01*
X85721760Y-108897540D01*
X85469161Y-109275582D01*
X85353908Y-109855000D01*
X85469161Y-110434418D01*
X85797375Y-110925625D01*
X86095761Y-111125000D01*
X85797375Y-111324375D01*
X85469161Y-111815582D01*
X85353908Y-112395000D01*
X85469161Y-112974418D01*
X85797375Y-113465625D01*
X86095761Y-113665000D01*
X85797375Y-113864375D01*
X85469161Y-114355582D01*
X85353908Y-114935000D01*
X85469161Y-115514418D01*
X85797375Y-116005625D01*
X86095761Y-116205000D01*
X85797375Y-116404375D01*
X85469161Y-116895582D01*
X85353908Y-117475000D01*
X85469161Y-118054418D01*
X85797375Y-118545625D01*
X86095761Y-118745000D01*
X85797375Y-118944375D01*
X85469161Y-119435582D01*
X85353908Y-120015000D01*
X85469161Y-120594418D01*
X85797375Y-121085625D01*
X86095761Y-121285000D01*
X85797375Y-121484375D01*
X85469161Y-121975582D01*
X85353908Y-122555000D01*
X85469161Y-123134418D01*
X85797375Y-123625625D01*
X86288582Y-123953839D01*
X86721744Y-124040000D01*
X87014256Y-124040000D01*
X87447418Y-123953839D01*
X87507626Y-123913609D01*
X87550353Y-123942159D01*
X93618156Y-130009569D01*
X93659242Y-130071058D01*
X93720751Y-130112157D01*
X93720760Y-130112166D01*
X93776850Y-130149642D01*
X93902893Y-130233861D01*
X93902907Y-130233864D01*
X93902916Y-130233870D01*
X94028478Y-130258841D01*
X94117756Y-130276600D01*
X94117772Y-130276600D01*
X94190324Y-130291029D01*
X94262853Y-130276600D01*
X94524321Y-130276600D01*
X94723423Y-130574577D01*
X95075758Y-130810000D01*
X94723423Y-131045423D01*
X94406260Y-131520091D01*
X94294887Y-132080000D01*
X94406260Y-132639909D01*
X94723423Y-133114577D01*
X95198091Y-133431740D01*
X95616667Y-133515000D01*
X95899333Y-133515000D01*
X96317909Y-133431740D01*
X96792577Y-133114577D01*
X97109740Y-132639909D01*
X97221113Y-132080000D01*
X97109740Y-131520091D01*
X96792577Y-131045423D01*
X96440242Y-130810000D01*
X96792577Y-130574577D01*
X97109740Y-130099909D01*
X97221113Y-129540000D01*
X97109740Y-128980091D01*
X96792577Y-128505423D01*
X96440242Y-128270000D01*
X96792577Y-128034577D01*
X97109740Y-127559909D01*
X97221113Y-127000000D01*
X97109740Y-126440091D01*
X96792577Y-125965423D01*
X96440242Y-125730000D01*
X96792577Y-125494577D01*
X97109740Y-125019909D01*
X97221113Y-124460000D01*
X97115013Y-123926600D01*
X100700891Y-123926600D01*
X109323851Y-132549561D01*
X109364942Y-132611058D01*
X109426439Y-132652149D01*
X109426441Y-132652151D01*
X109579619Y-132754501D01*
X109608593Y-132773861D01*
X109755257Y-132803034D01*
X109963423Y-133114577D01*
X110438091Y-133431740D01*
X110856667Y-133515000D01*
X111139333Y-133515000D01*
X111557909Y-133431740D01*
X112032577Y-133114577D01*
X112349740Y-132639909D01*
X112461113Y-132080000D01*
X112349740Y-131520091D01*
X112032577Y-131045423D01*
X111680242Y-130810000D01*
X112032577Y-130574577D01*
X112349740Y-130099909D01*
X112461113Y-129540000D01*
X112349740Y-128980091D01*
X112032577Y-128505423D01*
X111680242Y-128270000D01*
X112032577Y-128034577D01*
X112349740Y-127559909D01*
X112461113Y-127000000D01*
X112349740Y-126440091D01*
X112032577Y-125965423D01*
X111680242Y-125730000D01*
X112032577Y-125494577D01*
X112349740Y-125019909D01*
X112461113Y-124460000D01*
X112349740Y-123900091D01*
X112063535Y-123471754D01*
X112571721Y-122963042D01*
X112633058Y-122922058D01*
X112674256Y-122860401D01*
X112674394Y-122860263D01*
X112715116Y-122799250D01*
X112795861Y-122678407D01*
X112795899Y-122678214D01*
X112796010Y-122678048D01*
X112814439Y-122585148D01*
X117535874Y-127306584D01*
X117266260Y-127710091D01*
X117154887Y-128270000D01*
X117266260Y-128829909D01*
X117583423Y-129304577D01*
X117935758Y-129540000D01*
X117583423Y-129775423D01*
X117266260Y-130250091D01*
X117154887Y-130810000D01*
X117266260Y-131369909D01*
X117583423Y-131844577D01*
X117967108Y-132100947D01*
X117762866Y-132197611D01*
X117386959Y-132612577D01*
X117226096Y-133000961D01*
X117348085Y-133223000D01*
X118491000Y-133223000D01*
X118491000Y-133203000D01*
X118745000Y-133203000D01*
X118745000Y-133223000D01*
X119887915Y-133223000D01*
X120009904Y-133000961D01*
X119849041Y-132612577D01*
X119473134Y-132197611D01*
X119268892Y-132100947D01*
X119652577Y-131844577D01*
X119969740Y-131369909D01*
X120081113Y-130810000D01*
X119969740Y-130250091D01*
X119652577Y-129775423D01*
X119300242Y-129540000D01*
X119652577Y-129304577D01*
X119969740Y-128829909D01*
X120081113Y-128270000D01*
X119975013Y-127736600D01*
X124880987Y-127736600D01*
X124774887Y-128270000D01*
X124886260Y-128829909D01*
X125203423Y-129304577D01*
X125555758Y-129540000D01*
X125203423Y-129775423D01*
X124886260Y-130250091D01*
X124774887Y-130810000D01*
X124886260Y-131369909D01*
X125203423Y-131844577D01*
X125555758Y-132080000D01*
X125203423Y-132315423D01*
X124886260Y-132790091D01*
X124774887Y-133350000D01*
X124886260Y-133909909D01*
X125203423Y-134384577D01*
X125678091Y-134701740D01*
X126096667Y-134785000D01*
X126379333Y-134785000D01*
X126797909Y-134701740D01*
X127272577Y-134384577D01*
X127589740Y-133909909D01*
X127701113Y-133350000D01*
X127589740Y-132790091D01*
X127272577Y-132315423D01*
X126920242Y-132080000D01*
X127272577Y-131844577D01*
X127589740Y-131369909D01*
X127701113Y-130810000D01*
X127589740Y-130250091D01*
X127272577Y-129775423D01*
X126920242Y-129540000D01*
X127272577Y-129304577D01*
X127589740Y-128829909D01*
X127696165Y-128294875D01*
X128463850Y-129062560D01*
X128504942Y-129124058D01*
X128566439Y-129165149D01*
X128566441Y-129165151D01*
X128748593Y-129286861D01*
X128963456Y-129329600D01*
X128963459Y-129329600D01*
X129035999Y-129344029D01*
X129108540Y-129329600D01*
X139506797Y-129329600D01*
X140138142Y-129961220D01*
X139762570Y-130212170D01*
X139573000Y-130495881D01*
X139383430Y-130212170D01*
X138887724Y-129880950D01*
X138303000Y-129764641D01*
X137718275Y-129880950D01*
X137222570Y-130212170D01*
X137033000Y-130495881D01*
X136843430Y-130212170D01*
X136347724Y-129880950D01*
X135763000Y-129764641D01*
X135178275Y-129880950D01*
X134682570Y-130212170D01*
X134493000Y-130495881D01*
X134303430Y-130212170D01*
X133807724Y-129880950D01*
X133223000Y-129764641D01*
X132638275Y-129880950D01*
X132142570Y-130212170D01*
X131811350Y-130707876D01*
X131724400Y-131145003D01*
X131724400Y-131744998D01*
X131811350Y-132182125D01*
X132142570Y-132677830D01*
X132638276Y-133009050D01*
X133223000Y-133125359D01*
X133807725Y-133009050D01*
X134303430Y-132677830D01*
X134493000Y-132394119D01*
X134682570Y-132677830D01*
X135178276Y-133009050D01*
X135763000Y-133125359D01*
X136347725Y-133009050D01*
X136843430Y-132677830D01*
X137033000Y-132394119D01*
X137222570Y-132677830D01*
X137718276Y-133009050D01*
X138303000Y-133125359D01*
X138887725Y-133009050D01*
X139383430Y-132677830D01*
X139573000Y-132394119D01*
X139762570Y-132677830D01*
X140258276Y-133009050D01*
X140843000Y-133125359D01*
X141427725Y-133009050D01*
X141830329Y-132740038D01*
X142344850Y-133254560D01*
X142385942Y-133316058D01*
X142447439Y-133357149D01*
X142447441Y-133357151D01*
X142626808Y-133477000D01*
X142629593Y-133478861D01*
X142844456Y-133521600D01*
X142844459Y-133521600D01*
X142917000Y-133536029D01*
X142989540Y-133521600D01*
X156482460Y-133521600D01*
X156555000Y-133536029D01*
X156627540Y-133521600D01*
X156627544Y-133521600D01*
X156842407Y-133478861D01*
X157086058Y-133316058D01*
X157127151Y-133254558D01*
X157639268Y-132742442D01*
X158038276Y-133009050D01*
X158623000Y-133125359D01*
X159207725Y-133009050D01*
X159703430Y-132677830D01*
X159893000Y-132394119D01*
X160082570Y-132677830D01*
X160578276Y-133009050D01*
X161163000Y-133125359D01*
X161747725Y-133009050D01*
X162243430Y-132677830D01*
X162433000Y-132394119D01*
X162622570Y-132677830D01*
X163118276Y-133009050D01*
X163703000Y-133125359D01*
X164287725Y-133009050D01*
X164783430Y-132677830D01*
X164973000Y-132394119D01*
X165162570Y-132677830D01*
X165658276Y-133009050D01*
X166243000Y-133125359D01*
X166827725Y-133009050D01*
X167323430Y-132677830D01*
X167513000Y-132394119D01*
X167702570Y-132677830D01*
X168198276Y-133009050D01*
X168783000Y-133125359D01*
X169367725Y-133009050D01*
X169703785Y-132784501D01*
X172866000Y-132784501D01*
X172866000Y-133845499D01*
X173272026Y-134825734D01*
X174022266Y-135575974D01*
X175002501Y-135982000D01*
X176063499Y-135982000D01*
X177043734Y-135575974D01*
X177793974Y-134825734D01*
X178200000Y-133845499D01*
X178200000Y-132784501D01*
X177793974Y-131804266D01*
X177043734Y-131054026D01*
X176063499Y-130648000D01*
X175002501Y-130648000D01*
X174022266Y-131054026D01*
X173272026Y-131804266D01*
X172866000Y-132784501D01*
X169703785Y-132784501D01*
X169863430Y-132677830D01*
X170194650Y-132182124D01*
X170281600Y-131744997D01*
X170281600Y-131145002D01*
X170194650Y-130707875D01*
X169863430Y-130212170D01*
X169367724Y-129880950D01*
X168783000Y-129764641D01*
X168198275Y-129880950D01*
X167702570Y-130212170D01*
X167513000Y-130495881D01*
X167323430Y-130212170D01*
X166979600Y-129982430D01*
X166979600Y-112404109D01*
X170078422Y-109305288D01*
X170288423Y-109619577D01*
X170609537Y-109834139D01*
X170599966Y-109882257D01*
X170288423Y-110090423D01*
X169971260Y-110565091D01*
X169859887Y-111125000D01*
X169971260Y-111684909D01*
X170288423Y-112159577D01*
X170640758Y-112395000D01*
X170288423Y-112630423D01*
X169971260Y-113105091D01*
X169859887Y-113665000D01*
X169971260Y-114224909D01*
X170288423Y-114699577D01*
X170640758Y-114935000D01*
X170288423Y-115170423D01*
X169971260Y-115645091D01*
X169859887Y-116205000D01*
X169971260Y-116764909D01*
X170288423Y-117239577D01*
X170640758Y-117475000D01*
X170288423Y-117710423D01*
X169971260Y-118185091D01*
X169859887Y-118745000D01*
X169971260Y-119304909D01*
X170288423Y-119779577D01*
X170640758Y-120015000D01*
X170288423Y-120250423D01*
X169971260Y-120725091D01*
X169859887Y-121285000D01*
X169971260Y-121844909D01*
X170288423Y-122319577D01*
X170640758Y-122555000D01*
X170288423Y-122790423D01*
X169971260Y-123265091D01*
X169859887Y-123825000D01*
X169971260Y-124384909D01*
X170288423Y-124859577D01*
X170763091Y-125176740D01*
X171181667Y-125260000D01*
X171464333Y-125260000D01*
X171882909Y-125176740D01*
X172357577Y-124859577D01*
X172674740Y-124384909D01*
X172786113Y-123825000D01*
X172674740Y-123265091D01*
X172357577Y-122790423D01*
X172005242Y-122555000D01*
X172357577Y-122319577D01*
X172674740Y-121844909D01*
X172786113Y-121285000D01*
X172674740Y-120725091D01*
X172357577Y-120250423D01*
X172005242Y-120015000D01*
X172357577Y-119779577D01*
X172674740Y-119304909D01*
X172786113Y-118745000D01*
X172674740Y-118185091D01*
X172357577Y-117710423D01*
X172005242Y-117475000D01*
X172357577Y-117239577D01*
X172674740Y-116764909D01*
X172786113Y-116205000D01*
X172674740Y-115645091D01*
X172357577Y-115170423D01*
X172005242Y-114935000D01*
X172357577Y-114699577D01*
X172674740Y-114224909D01*
X172786113Y-113665000D01*
X172674740Y-113105091D01*
X172357577Y-112630423D01*
X172005242Y-112395000D01*
X172357577Y-112159577D01*
X172674740Y-111684909D01*
X172786113Y-111125000D01*
X172705214Y-110718292D01*
X172712407Y-110716861D01*
X172956058Y-110554058D01*
X172997151Y-110492558D01*
X179685558Y-103804151D01*
X179747058Y-103763058D01*
X179909861Y-103519407D01*
X179952600Y-103304544D01*
X179952600Y-103304541D01*
X179967029Y-103232001D01*
X179952600Y-103159460D01*
X179952600Y-80060850D01*
X179967029Y-79988320D01*
X179952600Y-79915769D01*
X179952600Y-79915756D01*
X179936297Y-79833794D01*
X179909869Y-79700912D01*
X179909863Y-79700903D01*
X179909861Y-79700893D01*
X179829813Y-79581093D01*
X179788163Y-79518756D01*
X179788155Y-79518748D01*
X179747058Y-79457242D01*
X179685568Y-79416155D01*
X168215020Y-67945000D01*
X169224887Y-67945000D01*
X169336260Y-68504909D01*
X169653423Y-68979577D01*
X170128091Y-69296740D01*
X170546667Y-69380000D01*
X170829333Y-69380000D01*
X171247909Y-69296740D01*
X171722577Y-68979577D01*
X172039740Y-68504909D01*
X172151113Y-67945000D01*
X172039740Y-67385091D01*
X171722577Y-66910423D01*
X171489224Y-66754501D01*
X172856000Y-66754501D01*
X172856000Y-67815499D01*
X173262026Y-68795734D01*
X174012266Y-69545974D01*
X174992501Y-69952000D01*
X176053499Y-69952000D01*
X177033734Y-69545974D01*
X177783974Y-68795734D01*
X178190000Y-67815499D01*
X178190000Y-66754501D01*
X177783974Y-65774266D01*
X177033734Y-65024026D01*
X176053499Y-64618000D01*
X174992501Y-64618000D01*
X174012266Y-65024026D01*
X173262026Y-65774266D01*
X172856000Y-66754501D01*
X171489224Y-66754501D01*
X171247909Y-66593260D01*
X170829333Y-66510000D01*
X170546667Y-66510000D01*
X170128091Y-66593260D01*
X169653423Y-66910423D01*
X169336260Y-67385091D01*
X169224887Y-67945000D01*
X168215020Y-67945000D01*
X166603158Y-66333053D01*
X166562058Y-66271542D01*
X166412908Y-66171883D01*
X166318424Y-66108747D01*
X166318417Y-66108746D01*
X166318407Y-66108739D01*
X166140682Y-66073387D01*
X166031019Y-66051571D01*
X165958470Y-66066000D01*
X122033567Y-66066000D01*
X121961053Y-66051571D01*
X121888486Y-66066000D01*
X121888456Y-66066000D01*
X121809285Y-66081748D01*
X121673642Y-66108719D01*
X121673620Y-66108734D01*
X121673593Y-66108739D01*
X121550677Y-66190869D01*
X121491482Y-66230416D01*
X121491464Y-66230434D01*
X121429942Y-66271542D01*
X121388864Y-66333020D01*
X115364180Y-72356853D01*
X115011725Y-72121350D01*
X114574598Y-72034400D01*
X114279402Y-72034400D01*
X113842275Y-72121350D01*
X113346570Y-72452570D01*
X113157000Y-72736281D01*
X112967430Y-72452570D01*
X112471725Y-72121350D01*
X112034598Y-72034400D01*
X111739402Y-72034400D01*
X111302275Y-72121350D01*
X110806570Y-72452570D01*
X110605146Y-72754021D01*
X110553821Y-72644510D01*
X110121947Y-72250312D01*
X109706026Y-72078042D01*
X109474000Y-72199183D01*
X109474000Y-73406000D01*
X109494000Y-73406000D01*
X109494000Y-73660000D01*
X109474000Y-73660000D01*
X109474000Y-73680000D01*
X109220000Y-73680000D01*
X109220000Y-73660000D01*
X106934000Y-73660000D01*
X106934000Y-73680000D01*
X106680000Y-73680000D01*
X106680000Y-73660000D01*
X105472531Y-73660000D01*
X105352032Y-73892027D01*
X105600179Y-74421490D01*
X105787950Y-74592881D01*
X105695635Y-74611243D01*
X105485591Y-74751591D01*
X105345243Y-74961635D01*
X105308163Y-75148053D01*
X100414285Y-75196700D01*
X99182678Y-75196700D01*
X97159951Y-73173973D01*
X105352032Y-73173973D01*
X105472531Y-73406000D01*
X106680000Y-73406000D01*
X106680000Y-72199183D01*
X106934000Y-72199183D01*
X106934000Y-73406000D01*
X109220000Y-73406000D01*
X109220000Y-72199183D01*
X108987974Y-72078042D01*
X108572053Y-72250312D01*
X108140179Y-72644510D01*
X108077000Y-72779313D01*
X108013821Y-72644510D01*
X107581947Y-72250312D01*
X107166026Y-72078042D01*
X106934000Y-72199183D01*
X106680000Y-72199183D01*
X106447974Y-72078042D01*
X106032053Y-72250312D01*
X105600179Y-72644510D01*
X105352032Y-73173973D01*
X97159951Y-73173973D01*
X96332539Y-72346562D01*
X96380809Y-72314309D01*
X96521157Y-72104265D01*
X96529117Y-72064245D01*
X96794861Y-72064245D01*
X96868995Y-72310364D01*
X97406223Y-72503465D01*
X97976454Y-72476278D01*
X98377005Y-72310364D01*
X98451139Y-72064245D01*
X97623000Y-71236105D01*
X96794861Y-72064245D01*
X96529117Y-72064245D01*
X96567693Y-71870313D01*
X96615255Y-71884639D01*
X97443395Y-71056500D01*
X97802605Y-71056500D01*
X98630745Y-71884639D01*
X98876864Y-71810505D01*
X99069965Y-71273277D01*
X99042778Y-70703046D01*
X98876864Y-70302495D01*
X98630745Y-70228361D01*
X97802605Y-71056500D01*
X97443395Y-71056500D01*
X96615255Y-70228361D01*
X96567693Y-70242687D01*
X96529118Y-70048755D01*
X96794861Y-70048755D01*
X97623000Y-70876895D01*
X98451139Y-70048755D01*
X98377005Y-69802636D01*
X97839777Y-69609535D01*
X97269546Y-69636722D01*
X96868995Y-69802636D01*
X96794861Y-70048755D01*
X96529118Y-70048755D01*
X96521157Y-70008735D01*
X96380809Y-69798691D01*
X96170765Y-69658343D01*
X95923000Y-69609060D01*
X94323000Y-69609060D01*
X94075235Y-69658343D01*
X93865191Y-69798691D01*
X93724843Y-70008735D01*
X93703885Y-70114100D01*
X93624400Y-70098290D01*
X93531846Y-70116700D01*
X93531841Y-70116700D01*
X93257709Y-70171228D01*
X93257707Y-70171229D01*
X93257708Y-70171229D01*
X93025310Y-70326512D01*
X93025308Y-70326514D01*
X92946843Y-70378943D01*
X92894414Y-70457408D01*
X88745409Y-74606414D01*
X88666944Y-74658843D01*
X88614515Y-74737308D01*
X88614512Y-74737311D01*
X88459229Y-74969708D01*
X88386290Y-75336400D01*
X88404701Y-75428959D01*
X88404701Y-76438960D01*
X88273875Y-76526375D01*
X88073147Y-76826786D01*
X87685858Y-76401817D01*
X87161392Y-76155514D01*
X86931500Y-76276181D01*
X86931500Y-77470000D01*
X86951500Y-77470000D01*
X86951500Y-77724000D01*
X86931500Y-77724000D01*
X86931500Y-77744000D01*
X86677500Y-77744000D01*
X86677500Y-77724000D01*
X85484345Y-77724000D01*
X85363024Y-77953890D01*
X85532855Y-78363924D01*
X85678382Y-78523609D01*
X83879640Y-80322351D01*
X83818143Y-80363442D01*
X83777052Y-80424939D01*
X83777049Y-80424942D01*
X83655339Y-80607094D01*
X83598171Y-80894500D01*
X81915000Y-80894500D01*
X81915000Y-77240110D01*
X85363024Y-77240110D01*
X85484345Y-77470000D01*
X86677500Y-77470000D01*
X86677500Y-76276181D01*
X86447608Y-76155514D01*
X85923142Y-76401817D01*
X85532855Y-76830076D01*
X85363024Y-77240110D01*
X81915000Y-77240110D01*
X81915000Y-66754501D01*
X83856000Y-66754501D01*
X83856000Y-67815499D01*
X84262026Y-68795734D01*
X85012266Y-69545974D01*
X85992501Y-69952000D01*
X87053499Y-69952000D01*
X88033734Y-69545974D01*
X88783974Y-68795734D01*
X89190000Y-67815499D01*
X89190000Y-66754501D01*
X88783974Y-65774266D01*
X88033734Y-65024026D01*
X87053499Y-64618000D01*
X85992501Y-64618000D01*
X85012266Y-65024026D01*
X84262026Y-65774266D01*
X83856000Y-66754501D01*
X81915000Y-66754501D01*
X81915000Y-63575000D01*
X180086000Y-63575000D01*
X180086000Y-136906000D01*
X180086000Y-136906000D01*
G37*
X180086000Y-136906000D02*
X81915000Y-136906000D01*
X81915000Y-132754501D01*
X83846000Y-132754501D01*
X83846000Y-133815499D01*
X84252026Y-134795734D01*
X85002266Y-135545974D01*
X85982501Y-135952000D01*
X87043499Y-135952000D01*
X88023734Y-135545974D01*
X88773974Y-134795734D01*
X89180000Y-133815499D01*
X89180000Y-133699039D01*
X117226096Y-133699039D01*
X117386959Y-134087423D01*
X117762866Y-134502389D01*
X118268959Y-134741914D01*
X118491000Y-134620629D01*
X118491000Y-133477000D01*
X118745000Y-133477000D01*
X118745000Y-134620629D01*
X118967041Y-134741914D01*
X119473134Y-134502389D01*
X119849041Y-134087423D01*
X120009904Y-133699039D01*
X119887915Y-133477000D01*
X118745000Y-133477000D01*
X118491000Y-133477000D01*
X117348085Y-133477000D01*
X117226096Y-133699039D01*
X89180000Y-133699039D01*
X89180000Y-132754501D01*
X88773974Y-131774266D01*
X88023734Y-131024026D01*
X87043499Y-130618000D01*
X85982501Y-130618000D01*
X85002266Y-131024026D01*
X84252026Y-131774266D01*
X83846000Y-132754501D01*
X81915000Y-132754501D01*
X81915000Y-80894500D01*
X83598171Y-80894500D01*
X83612601Y-80967045D01*
X83612600Y-106410434D01*
X83598171Y-106482947D01*
X83612600Y-106555513D01*
X83612600Y-106555543D01*
X83628378Y-106634865D01*
X83655319Y-106770356D01*
X83655333Y-106770377D01*
X83655339Y-106770406D01*
X83741011Y-106898623D01*
X83777016Y-106952517D01*
X83777033Y-106952534D01*
X83818142Y-107014058D01*
X83879622Y-107055138D01*
X85721760Y-108897540D01*
X85469161Y-109275582D01*
X85353908Y-109855000D01*
X85469161Y-110434418D01*
X85797375Y-110925625D01*
X86095761Y-111125000D01*
X85797375Y-111324375D01*
X85469161Y-111815582D01*
X85353908Y-112395000D01*
X85469161Y-112974418D01*
X85797375Y-113465625D01*
X86095761Y-113665000D01*
X85797375Y-113864375D01*
X85469161Y-114355582D01*
X85353908Y-114935000D01*
X85469161Y-115514418D01*
X85797375Y-116005625D01*
X86095761Y-116205000D01*
X85797375Y-116404375D01*
X85469161Y-116895582D01*
X85353908Y-117475000D01*
X85469161Y-118054418D01*
X85797375Y-118545625D01*
X86095761Y-118745000D01*
X85797375Y-118944375D01*
X85469161Y-119435582D01*
X85353908Y-120015000D01*
X85469161Y-120594418D01*
X85797375Y-121085625D01*
X86095761Y-121285000D01*
X85797375Y-121484375D01*
X85469161Y-121975582D01*
X85353908Y-122555000D01*
X85469161Y-123134418D01*
X85797375Y-123625625D01*
X86288582Y-123953839D01*
X86721744Y-124040000D01*
X87014256Y-124040000D01*
X87447418Y-123953839D01*
X87507626Y-123913609D01*
X87550353Y-123942159D01*
X93618156Y-130009569D01*
X93659242Y-130071058D01*
X93720751Y-130112157D01*
X93720760Y-130112166D01*
X93776850Y-130149642D01*
X93902893Y-130233861D01*
X93902907Y-130233864D01*
X93902916Y-130233870D01*
X94028478Y-130258841D01*
X94117756Y-130276600D01*
X94117772Y-130276600D01*
X94190324Y-130291029D01*
X94262853Y-130276600D01*
X94524321Y-130276600D01*
X94723423Y-130574577D01*
X95075758Y-130810000D01*
X94723423Y-131045423D01*
X94406260Y-131520091D01*
X94294887Y-132080000D01*
X94406260Y-132639909D01*
X94723423Y-133114577D01*
X95198091Y-133431740D01*
X95616667Y-133515000D01*
X95899333Y-133515000D01*
X96317909Y-133431740D01*
X96792577Y-133114577D01*
X97109740Y-132639909D01*
X97221113Y-132080000D01*
X97109740Y-131520091D01*
X96792577Y-131045423D01*
X96440242Y-130810000D01*
X96792577Y-130574577D01*
X97109740Y-130099909D01*
X97221113Y-129540000D01*
X97109740Y-128980091D01*
X96792577Y-128505423D01*
X96440242Y-128270000D01*
X96792577Y-128034577D01*
X97109740Y-127559909D01*
X97221113Y-127000000D01*
X97109740Y-126440091D01*
X96792577Y-125965423D01*
X96440242Y-125730000D01*
X96792577Y-125494577D01*
X97109740Y-125019909D01*
X97221113Y-124460000D01*
X97115013Y-123926600D01*
X100700891Y-123926600D01*
X109323851Y-132549561D01*
X109364942Y-132611058D01*
X109426439Y-132652149D01*
X109426441Y-132652151D01*
X109579619Y-132754501D01*
X109608593Y-132773861D01*
X109755257Y-132803034D01*
X109963423Y-133114577D01*
X110438091Y-133431740D01*
X110856667Y-133515000D01*
X111139333Y-133515000D01*
X111557909Y-133431740D01*
X112032577Y-133114577D01*
X112349740Y-132639909D01*
X112461113Y-132080000D01*
X112349740Y-131520091D01*
X112032577Y-131045423D01*
X111680242Y-130810000D01*
X112032577Y-130574577D01*
X112349740Y-130099909D01*
X112461113Y-129540000D01*
X112349740Y-128980091D01*
X112032577Y-128505423D01*
X111680242Y-128270000D01*
X112032577Y-128034577D01*
X112349740Y-127559909D01*
X112461113Y-127000000D01*
X112349740Y-126440091D01*
X112032577Y-125965423D01*
X111680242Y-125730000D01*
X112032577Y-125494577D01*
X112349740Y-125019909D01*
X112461113Y-124460000D01*
X112349740Y-123900091D01*
X112063535Y-123471754D01*
X112571721Y-122963042D01*
X112633058Y-122922058D01*
X112674256Y-122860401D01*
X112674394Y-122860263D01*
X112715116Y-122799250D01*
X112795861Y-122678407D01*
X112795899Y-122678214D01*
X112796010Y-122678048D01*
X112814439Y-122585148D01*
X117535874Y-127306584D01*
X117266260Y-127710091D01*
X117154887Y-128270000D01*
X117266260Y-128829909D01*
X117583423Y-129304577D01*
X117935758Y-129540000D01*
X117583423Y-129775423D01*
X117266260Y-130250091D01*
X117154887Y-130810000D01*
X117266260Y-131369909D01*
X117583423Y-131844577D01*
X117967108Y-132100947D01*
X117762866Y-132197611D01*
X117386959Y-132612577D01*
X117226096Y-133000961D01*
X117348085Y-133223000D01*
X118491000Y-133223000D01*
X118491000Y-133203000D01*
X118745000Y-133203000D01*
X118745000Y-133223000D01*
X119887915Y-133223000D01*
X120009904Y-133000961D01*
X119849041Y-132612577D01*
X119473134Y-132197611D01*
X119268892Y-132100947D01*
X119652577Y-131844577D01*
X119969740Y-131369909D01*
X120081113Y-130810000D01*
X119969740Y-130250091D01*
X119652577Y-129775423D01*
X119300242Y-129540000D01*
X119652577Y-129304577D01*
X119969740Y-128829909D01*
X120081113Y-128270000D01*
X119975013Y-127736600D01*
X124880987Y-127736600D01*
X124774887Y-128270000D01*
X124886260Y-128829909D01*
X125203423Y-129304577D01*
X125555758Y-129540000D01*
X125203423Y-129775423D01*
X124886260Y-130250091D01*
X124774887Y-130810000D01*
X124886260Y-131369909D01*
X125203423Y-131844577D01*
X125555758Y-132080000D01*
X125203423Y-132315423D01*
X124886260Y-132790091D01*
X124774887Y-133350000D01*
X124886260Y-133909909D01*
X125203423Y-134384577D01*
X125678091Y-134701740D01*
X126096667Y-134785000D01*
X126379333Y-134785000D01*
X126797909Y-134701740D01*
X127272577Y-134384577D01*
X127589740Y-133909909D01*
X127701113Y-133350000D01*
X127589740Y-132790091D01*
X127272577Y-132315423D01*
X126920242Y-132080000D01*
X127272577Y-131844577D01*
X127589740Y-131369909D01*
X127701113Y-130810000D01*
X127589740Y-130250091D01*
X127272577Y-129775423D01*
X126920242Y-129540000D01*
X127272577Y-129304577D01*
X127589740Y-128829909D01*
X127696165Y-128294875D01*
X128463850Y-129062560D01*
X128504942Y-129124058D01*
X128566439Y-129165149D01*
X128566441Y-129165151D01*
X128748593Y-129286861D01*
X128963456Y-129329600D01*
X128963459Y-129329600D01*
X129035999Y-129344029D01*
X129108540Y-129329600D01*
X139506797Y-129329600D01*
X140138142Y-129961220D01*
X139762570Y-130212170D01*
X139573000Y-130495881D01*
X139383430Y-130212170D01*
X138887724Y-129880950D01*
X138303000Y-129764641D01*
X137718275Y-129880950D01*
X137222570Y-130212170D01*
X137033000Y-130495881D01*
X136843430Y-130212170D01*
X136347724Y-129880950D01*
X135763000Y-129764641D01*
X135178275Y-129880950D01*
X134682570Y-130212170D01*
X134493000Y-130495881D01*
X134303430Y-130212170D01*
X133807724Y-129880950D01*
X133223000Y-129764641D01*
X132638275Y-129880950D01*
X132142570Y-130212170D01*
X131811350Y-130707876D01*
X131724400Y-131145003D01*
X131724400Y-131744998D01*
X131811350Y-132182125D01*
X132142570Y-132677830D01*
X132638276Y-133009050D01*
X133223000Y-133125359D01*
X133807725Y-133009050D01*
X134303430Y-132677830D01*
X134493000Y-132394119D01*
X134682570Y-132677830D01*
X135178276Y-133009050D01*
X135763000Y-133125359D01*
X136347725Y-133009050D01*
X136843430Y-132677830D01*
X137033000Y-132394119D01*
X137222570Y-132677830D01*
X137718276Y-133009050D01*
X138303000Y-133125359D01*
X138887725Y-133009050D01*
X139383430Y-132677830D01*
X139573000Y-132394119D01*
X139762570Y-132677830D01*
X140258276Y-133009050D01*
X140843000Y-133125359D01*
X141427725Y-133009050D01*
X141830329Y-132740038D01*
X142344850Y-133254560D01*
X142385942Y-133316058D01*
X142447439Y-133357149D01*
X142447441Y-133357151D01*
X142626808Y-133477000D01*
X142629593Y-133478861D01*
X142844456Y-133521600D01*
X142844459Y-133521600D01*
X142917000Y-133536029D01*
X142989540Y-133521600D01*
X156482460Y-133521600D01*
X156555000Y-133536029D01*
X156627540Y-133521600D01*
X156627544Y-133521600D01*
X156842407Y-133478861D01*
X157086058Y-133316058D01*
X157127151Y-133254558D01*
X157639268Y-132742442D01*
X158038276Y-133009050D01*
X158623000Y-133125359D01*
X159207725Y-133009050D01*
X159703430Y-132677830D01*
X159893000Y-132394119D01*
X160082570Y-132677830D01*
X160578276Y-133009050D01*
X161163000Y-133125359D01*
X161747725Y-133009050D01*
X162243430Y-132677830D01*
X162433000Y-132394119D01*
X162622570Y-132677830D01*
X163118276Y-133009050D01*
X163703000Y-133125359D01*
X164287725Y-133009050D01*
X164783430Y-132677830D01*
X164973000Y-132394119D01*
X165162570Y-132677830D01*
X165658276Y-133009050D01*
X166243000Y-133125359D01*
X166827725Y-133009050D01*
X167323430Y-132677830D01*
X167513000Y-132394119D01*
X167702570Y-132677830D01*
X168198276Y-133009050D01*
X168783000Y-133125359D01*
X169367725Y-133009050D01*
X169703785Y-132784501D01*
X172866000Y-132784501D01*
X172866000Y-133845499D01*
X173272026Y-134825734D01*
X174022266Y-135575974D01*
X175002501Y-135982000D01*
X176063499Y-135982000D01*
X177043734Y-135575974D01*
X177793974Y-134825734D01*
X178200000Y-133845499D01*
X178200000Y-132784501D01*
X177793974Y-131804266D01*
X177043734Y-131054026D01*
X176063499Y-130648000D01*
X175002501Y-130648000D01*
X174022266Y-131054026D01*
X173272026Y-131804266D01*
X172866000Y-132784501D01*
X169703785Y-132784501D01*
X169863430Y-132677830D01*
X170194650Y-132182124D01*
X170281600Y-131744997D01*
X170281600Y-131145002D01*
X170194650Y-130707875D01*
X169863430Y-130212170D01*
X169367724Y-129880950D01*
X168783000Y-129764641D01*
X168198275Y-129880950D01*
X167702570Y-130212170D01*
X167513000Y-130495881D01*
X167323430Y-130212170D01*
X166979600Y-129982430D01*
X166979600Y-112404109D01*
X170078422Y-109305288D01*
X170288423Y-109619577D01*
X170609537Y-109834139D01*
X170599966Y-109882257D01*
X170288423Y-110090423D01*
X169971260Y-110565091D01*
X169859887Y-111125000D01*
X169971260Y-111684909D01*
X170288423Y-112159577D01*
X170640758Y-112395000D01*
X170288423Y-112630423D01*
X169971260Y-113105091D01*
X169859887Y-113665000D01*
X169971260Y-114224909D01*
X170288423Y-114699577D01*
X170640758Y-114935000D01*
X170288423Y-115170423D01*
X169971260Y-115645091D01*
X169859887Y-116205000D01*
X169971260Y-116764909D01*
X170288423Y-117239577D01*
X170640758Y-117475000D01*
X170288423Y-117710423D01*
X169971260Y-118185091D01*
X169859887Y-118745000D01*
X169971260Y-119304909D01*
X170288423Y-119779577D01*
X170640758Y-120015000D01*
X170288423Y-120250423D01*
X169971260Y-120725091D01*
X169859887Y-121285000D01*
X169971260Y-121844909D01*
X170288423Y-122319577D01*
X170640758Y-122555000D01*
X170288423Y-122790423D01*
X169971260Y-123265091D01*
X169859887Y-123825000D01*
X169971260Y-124384909D01*
X170288423Y-124859577D01*
X170763091Y-125176740D01*
X171181667Y-125260000D01*
X171464333Y-125260000D01*
X171882909Y-125176740D01*
X172357577Y-124859577D01*
X172674740Y-124384909D01*
X172786113Y-123825000D01*
X172674740Y-123265091D01*
X172357577Y-122790423D01*
X172005242Y-122555000D01*
X172357577Y-122319577D01*
X172674740Y-121844909D01*
X172786113Y-121285000D01*
X172674740Y-120725091D01*
X172357577Y-120250423D01*
X172005242Y-120015000D01*
X172357577Y-119779577D01*
X172674740Y-119304909D01*
X172786113Y-118745000D01*
X172674740Y-118185091D01*
X172357577Y-117710423D01*
X172005242Y-117475000D01*
X172357577Y-117239577D01*
X172674740Y-116764909D01*
X172786113Y-116205000D01*
X172674740Y-115645091D01*
X172357577Y-115170423D01*
X172005242Y-114935000D01*
X172357577Y-114699577D01*
X172674740Y-114224909D01*
X172786113Y-113665000D01*
X172674740Y-113105091D01*
X172357577Y-112630423D01*
X172005242Y-112395000D01*
X172357577Y-112159577D01*
X172674740Y-111684909D01*
X172786113Y-111125000D01*
X172705214Y-110718292D01*
X172712407Y-110716861D01*
X172956058Y-110554058D01*
X172997151Y-110492558D01*
X179685558Y-103804151D01*
X179747058Y-103763058D01*
X179909861Y-103519407D01*
X179952600Y-103304544D01*
X179952600Y-103304541D01*
X179967029Y-103232001D01*
X179952600Y-103159460D01*
X179952600Y-80060850D01*
X179967029Y-79988320D01*
X179952600Y-79915769D01*
X179952600Y-79915756D01*
X179936297Y-79833794D01*
X179909869Y-79700912D01*
X179909863Y-79700903D01*
X179909861Y-79700893D01*
X179829813Y-79581093D01*
X179788163Y-79518756D01*
X179788155Y-79518748D01*
X179747058Y-79457242D01*
X179685568Y-79416155D01*
X168215020Y-67945000D01*
X169224887Y-67945000D01*
X169336260Y-68504909D01*
X169653423Y-68979577D01*
X170128091Y-69296740D01*
X170546667Y-69380000D01*
X170829333Y-69380000D01*
X171247909Y-69296740D01*
X171722577Y-68979577D01*
X172039740Y-68504909D01*
X172151113Y-67945000D01*
X172039740Y-67385091D01*
X171722577Y-66910423D01*
X171489224Y-66754501D01*
X172856000Y-66754501D01*
X172856000Y-67815499D01*
X173262026Y-68795734D01*
X174012266Y-69545974D01*
X174992501Y-69952000D01*
X176053499Y-69952000D01*
X177033734Y-69545974D01*
X177783974Y-68795734D01*
X178190000Y-67815499D01*
X178190000Y-66754501D01*
X177783974Y-65774266D01*
X177033734Y-65024026D01*
X176053499Y-64618000D01*
X174992501Y-64618000D01*
X174012266Y-65024026D01*
X173262026Y-65774266D01*
X172856000Y-66754501D01*
X171489224Y-66754501D01*
X171247909Y-66593260D01*
X170829333Y-66510000D01*
X170546667Y-66510000D01*
X170128091Y-66593260D01*
X169653423Y-66910423D01*
X169336260Y-67385091D01*
X169224887Y-67945000D01*
X168215020Y-67945000D01*
X166603158Y-66333053D01*
X166562058Y-66271542D01*
X166412908Y-66171883D01*
X166318424Y-66108747D01*
X166318417Y-66108746D01*
X166318407Y-66108739D01*
X166140682Y-66073387D01*
X166031019Y-66051571D01*
X165958470Y-66066000D01*
X122033567Y-66066000D01*
X121961053Y-66051571D01*
X121888486Y-66066000D01*
X121888456Y-66066000D01*
X121809285Y-66081748D01*
X121673642Y-66108719D01*
X121673620Y-66108734D01*
X121673593Y-66108739D01*
X121550677Y-66190869D01*
X121491482Y-66230416D01*
X121491464Y-66230434D01*
X121429942Y-66271542D01*
X121388864Y-66333020D01*
X115364180Y-72356853D01*
X115011725Y-72121350D01*
X114574598Y-72034400D01*
X114279402Y-72034400D01*
X113842275Y-72121350D01*
X113346570Y-72452570D01*
X113157000Y-72736281D01*
X112967430Y-72452570D01*
X112471725Y-72121350D01*
X112034598Y-72034400D01*
X111739402Y-72034400D01*
X111302275Y-72121350D01*
X110806570Y-72452570D01*
X110605146Y-72754021D01*
X110553821Y-72644510D01*
X110121947Y-72250312D01*
X109706026Y-72078042D01*
X109474000Y-72199183D01*
X109474000Y-73406000D01*
X109494000Y-73406000D01*
X109494000Y-73660000D01*
X109474000Y-73660000D01*
X109474000Y-73680000D01*
X109220000Y-73680000D01*
X109220000Y-73660000D01*
X106934000Y-73660000D01*
X106934000Y-73680000D01*
X106680000Y-73680000D01*
X106680000Y-73660000D01*
X105472531Y-73660000D01*
X105352032Y-73892027D01*
X105600179Y-74421490D01*
X105787950Y-74592881D01*
X105695635Y-74611243D01*
X105485591Y-74751591D01*
X105345243Y-74961635D01*
X105308163Y-75148053D01*
X100414285Y-75196700D01*
X99182678Y-75196700D01*
X97159951Y-73173973D01*
X105352032Y-73173973D01*
X105472531Y-73406000D01*
X106680000Y-73406000D01*
X106680000Y-72199183D01*
X106934000Y-72199183D01*
X106934000Y-73406000D01*
X109220000Y-73406000D01*
X109220000Y-72199183D01*
X108987974Y-72078042D01*
X108572053Y-72250312D01*
X108140179Y-72644510D01*
X108077000Y-72779313D01*
X108013821Y-72644510D01*
X107581947Y-72250312D01*
X107166026Y-72078042D01*
X106934000Y-72199183D01*
X106680000Y-72199183D01*
X106447974Y-72078042D01*
X106032053Y-72250312D01*
X105600179Y-72644510D01*
X105352032Y-73173973D01*
X97159951Y-73173973D01*
X96332539Y-72346562D01*
X96380809Y-72314309D01*
X96521157Y-72104265D01*
X96529117Y-72064245D01*
X96794861Y-72064245D01*
X96868995Y-72310364D01*
X97406223Y-72503465D01*
X97976454Y-72476278D01*
X98377005Y-72310364D01*
X98451139Y-72064245D01*
X97623000Y-71236105D01*
X96794861Y-72064245D01*
X96529117Y-72064245D01*
X96567693Y-71870313D01*
X96615255Y-71884639D01*
X97443395Y-71056500D01*
X97802605Y-71056500D01*
X98630745Y-71884639D01*
X98876864Y-71810505D01*
X99069965Y-71273277D01*
X99042778Y-70703046D01*
X98876864Y-70302495D01*
X98630745Y-70228361D01*
X97802605Y-71056500D01*
X97443395Y-71056500D01*
X96615255Y-70228361D01*
X96567693Y-70242687D01*
X96529118Y-70048755D01*
X96794861Y-70048755D01*
X97623000Y-70876895D01*
X98451139Y-70048755D01*
X98377005Y-69802636D01*
X97839777Y-69609535D01*
X97269546Y-69636722D01*
X96868995Y-69802636D01*
X96794861Y-70048755D01*
X96529118Y-70048755D01*
X96521157Y-70008735D01*
X96380809Y-69798691D01*
X96170765Y-69658343D01*
X95923000Y-69609060D01*
X94323000Y-69609060D01*
X94075235Y-69658343D01*
X93865191Y-69798691D01*
X93724843Y-70008735D01*
X93703885Y-70114100D01*
X93624400Y-70098290D01*
X93531846Y-70116700D01*
X93531841Y-70116700D01*
X93257709Y-70171228D01*
X93257707Y-70171229D01*
X93257708Y-70171229D01*
X93025310Y-70326512D01*
X93025308Y-70326514D01*
X92946843Y-70378943D01*
X92894414Y-70457408D01*
X88745409Y-74606414D01*
X88666944Y-74658843D01*
X88614515Y-74737308D01*
X88614512Y-74737311D01*
X88459229Y-74969708D01*
X88386290Y-75336400D01*
X88404701Y-75428959D01*
X88404701Y-76438960D01*
X88273875Y-76526375D01*
X88073147Y-76826786D01*
X87685858Y-76401817D01*
X87161392Y-76155514D01*
X86931500Y-76276181D01*
X86931500Y-77470000D01*
X86951500Y-77470000D01*
X86951500Y-77724000D01*
X86931500Y-77724000D01*
X86931500Y-77744000D01*
X86677500Y-77744000D01*
X86677500Y-77724000D01*
X85484345Y-77724000D01*
X85363024Y-77953890D01*
X85532855Y-78363924D01*
X85678382Y-78523609D01*
X83879640Y-80322351D01*
X83818143Y-80363442D01*
X83777052Y-80424939D01*
X83777049Y-80424942D01*
X83655339Y-80607094D01*
X83598171Y-80894500D01*
X81915000Y-80894500D01*
X81915000Y-77240110D01*
X85363024Y-77240110D01*
X85484345Y-77470000D01*
X86677500Y-77470000D01*
X86677500Y-76276181D01*
X86447608Y-76155514D01*
X85923142Y-76401817D01*
X85532855Y-76830076D01*
X85363024Y-77240110D01*
X81915000Y-77240110D01*
X81915000Y-66754501D01*
X83856000Y-66754501D01*
X83856000Y-67815499D01*
X84262026Y-68795734D01*
X85012266Y-69545974D01*
X85992501Y-69952000D01*
X87053499Y-69952000D01*
X88033734Y-69545974D01*
X88783974Y-68795734D01*
X89190000Y-67815499D01*
X89190000Y-66754501D01*
X88783974Y-65774266D01*
X88033734Y-65024026D01*
X87053499Y-64618000D01*
X85992501Y-64618000D01*
X85012266Y-65024026D01*
X84262026Y-65774266D01*
X83856000Y-66754501D01*
X81915000Y-66754501D01*
X81915000Y-63575000D01*
X180086000Y-63575000D01*
X180086000Y-136906000D01*
G36*
X170288423Y-99459577D02*
X170640758Y-99695000D01*
X170288423Y-99930423D01*
X169971260Y-100405091D01*
X169859887Y-100965000D01*
X169971260Y-101524909D01*
X170288423Y-101999577D01*
X170640758Y-102235000D01*
X170288423Y-102470423D01*
X169971260Y-102945091D01*
X169859887Y-103505000D01*
X169971260Y-104064909D01*
X170255695Y-104490595D01*
X163233442Y-111512849D01*
X163171942Y-111553942D01*
X163009139Y-111797594D01*
X162966400Y-112012457D01*
X162966400Y-112012460D01*
X162951971Y-112085000D01*
X162966400Y-112157540D01*
X162966401Y-129982429D01*
X162622570Y-130212170D01*
X162433000Y-130495881D01*
X162243430Y-130212170D01*
X161747724Y-129880950D01*
X161163000Y-129764641D01*
X160578275Y-129880950D01*
X160082570Y-130212170D01*
X159893000Y-130495881D01*
X159703430Y-130212170D01*
X159207724Y-129880950D01*
X158623000Y-129764641D01*
X158038275Y-129880950D01*
X157542570Y-130212170D01*
X157353000Y-130495881D01*
X157163430Y-130212170D01*
X156667724Y-129880950D01*
X156083000Y-129764641D01*
X155498275Y-129880950D01*
X155002570Y-130212170D01*
X154671350Y-130707876D01*
X154584400Y-131145003D01*
X154584400Y-131744998D01*
X154644750Y-132048400D01*
X152441249Y-132048400D01*
X152501600Y-131744997D01*
X152501600Y-131145002D01*
X152414650Y-130707875D01*
X152083430Y-130212170D01*
X151587724Y-129880950D01*
X151003000Y-129764641D01*
X150418275Y-129880950D01*
X149922570Y-130212170D01*
X149729091Y-130501733D01*
X149365036Y-130094268D01*
X148837791Y-129840291D01*
X148822026Y-129837642D01*
X148590000Y-129958783D01*
X148590000Y-131318000D01*
X148610000Y-131318000D01*
X148610000Y-131572000D01*
X148590000Y-131572000D01*
X148590000Y-131592000D01*
X148336000Y-131592000D01*
X148336000Y-131572000D01*
X146050000Y-131572000D01*
X146050000Y-131592000D01*
X145796000Y-131592000D01*
X145796000Y-131572000D01*
X145776000Y-131572000D01*
X145776000Y-131318000D01*
X145796000Y-131318000D01*
X145796000Y-129958783D01*
X146050000Y-129958783D01*
X146050000Y-131318000D01*
X148336000Y-131318000D01*
X148336000Y-129958783D01*
X148103974Y-129837642D01*
X148088209Y-129840291D01*
X147560964Y-130094268D01*
X147193000Y-130506108D01*
X146825036Y-130094268D01*
X146297791Y-129840291D01*
X146282026Y-129837642D01*
X146050000Y-129958783D01*
X145796000Y-129958783D01*
X145563974Y-129837642D01*
X145548209Y-129840291D01*
X145020964Y-130094268D01*
X144656910Y-130501732D01*
X144463430Y-130212170D01*
X143967724Y-129880950D01*
X143383000Y-129764641D01*
X142798275Y-129880950D01*
X142404123Y-130144314D01*
X140384197Y-128123510D01*
X140343058Y-128061942D01*
X140219531Y-127979404D01*
X140099557Y-127899202D01*
X140099478Y-127899186D01*
X140099407Y-127899139D01*
X139952148Y-127869847D01*
X139812163Y-127841971D01*
X139739541Y-127856400D01*
X129341110Y-127856400D01*
X128015150Y-126530441D01*
X127974058Y-126468942D01*
X127730407Y-126306139D01*
X127550652Y-126270383D01*
X127629904Y-126079039D01*
X127507915Y-125857000D01*
X126365000Y-125857000D01*
X126365000Y-125877000D01*
X126111000Y-125877000D01*
X126111000Y-125857000D01*
X124968085Y-125857000D01*
X124846096Y-126079039D01*
X124922456Y-126263400D01*
X120247553Y-126263400D01*
X120251058Y-126261058D01*
X120292151Y-126199558D01*
X121295110Y-125196600D01*
X124922456Y-125196600D01*
X124846096Y-125380961D01*
X124968085Y-125603000D01*
X126111000Y-125603000D01*
X126111000Y-125583000D01*
X126365000Y-125583000D01*
X126365000Y-125603000D01*
X127507915Y-125603000D01*
X127629904Y-125380961D01*
X127553544Y-125196600D01*
X128478460Y-125196600D01*
X128551000Y-125211029D01*
X128623540Y-125196600D01*
X128623544Y-125196600D01*
X128838407Y-125153861D01*
X129082058Y-124991058D01*
X129123151Y-124929558D01*
X131955511Y-122097198D01*
X131876800Y-122287224D01*
X131876800Y-122822776D01*
X132081746Y-123317561D01*
X132460439Y-123696254D01*
X132955224Y-123901200D01*
X133490776Y-123901200D01*
X133985561Y-123696254D01*
X134364254Y-123317561D01*
X134375007Y-123291600D01*
X134990891Y-123291600D01*
X137898851Y-126199560D01*
X137939942Y-126261058D01*
X138001439Y-126302149D01*
X138001441Y-126302151D01*
X138183593Y-126423861D01*
X138330257Y-126453034D01*
X138538423Y-126764577D01*
X139013091Y-127081740D01*
X139431667Y-127165000D01*
X139714333Y-127165000D01*
X140132909Y-127081740D01*
X140607577Y-126764577D01*
X140806679Y-126466600D01*
X142040460Y-126466600D01*
X142113000Y-126481029D01*
X142185540Y-126466600D01*
X142185544Y-126466600D01*
X142400407Y-126423861D01*
X142644058Y-126261058D01*
X142685151Y-126199558D01*
X144291298Y-124593411D01*
X144367561Y-124625000D01*
X144938439Y-124625000D01*
X145465862Y-124406534D01*
X145674651Y-124197745D01*
X146324861Y-124197745D01*
X146398995Y-124443864D01*
X146936223Y-124636965D01*
X147506454Y-124609778D01*
X147907005Y-124443864D01*
X147981139Y-124197745D01*
X147153000Y-123369605D01*
X146324861Y-124197745D01*
X145674651Y-124197745D01*
X145869534Y-124002862D01*
X145896525Y-123937701D01*
X145899136Y-123944005D01*
X146145255Y-124018139D01*
X146973395Y-123190000D01*
X147332605Y-123190000D01*
X148160745Y-124018139D01*
X148406864Y-123944005D01*
X148599965Y-123406777D01*
X148572778Y-122836546D01*
X148406864Y-122435995D01*
X148160745Y-122361861D01*
X147332605Y-123190000D01*
X146973395Y-123190000D01*
X146145255Y-122361861D01*
X145899136Y-122435995D01*
X145896710Y-122442746D01*
X145869534Y-122377138D01*
X145674651Y-122182255D01*
X146324861Y-122182255D01*
X147153000Y-123010395D01*
X147981139Y-122182255D01*
X147907005Y-121936136D01*
X147369777Y-121743035D01*
X146799546Y-121770222D01*
X146398995Y-121936136D01*
X146324861Y-122182255D01*
X145674651Y-122182255D01*
X145465862Y-121973466D01*
X144938439Y-121755000D01*
X144367561Y-121755000D01*
X143840138Y-121973466D01*
X143436466Y-122377138D01*
X143218000Y-122904561D01*
X143218000Y-123475439D01*
X143249589Y-123551702D01*
X141807891Y-124993400D01*
X140806679Y-124993400D01*
X140607577Y-124695423D01*
X140132909Y-124378260D01*
X139714333Y-124295000D01*
X139431667Y-124295000D01*
X139013091Y-124378260D01*
X138538423Y-124695423D01*
X138514274Y-124731564D01*
X135868151Y-122085442D01*
X135827058Y-122023942D01*
X135583407Y-121861139D01*
X135368544Y-121818400D01*
X135368540Y-121818400D01*
X135296000Y-121803971D01*
X135223460Y-121818400D01*
X134375007Y-121818400D01*
X134364254Y-121792439D01*
X133985561Y-121413746D01*
X133490776Y-121208800D01*
X132955224Y-121208800D01*
X132765198Y-121287511D01*
X132875109Y-121177600D01*
X145592460Y-121177600D01*
X145665000Y-121192029D01*
X145737540Y-121177600D01*
X145737544Y-121177600D01*
X145952407Y-121134861D01*
X146196058Y-120972058D01*
X146237151Y-120910558D01*
X155024274Y-112123436D01*
X155048423Y-112159577D01*
X155400758Y-112395000D01*
X155048423Y-112630423D01*
X154731260Y-113105091D01*
X154619887Y-113665000D01*
X154731260Y-114224909D01*
X155048423Y-114699577D01*
X155400758Y-114935000D01*
X155048423Y-115170423D01*
X154731260Y-115645091D01*
X154619887Y-116205000D01*
X154731260Y-116764909D01*
X155048423Y-117239577D01*
X155400758Y-117475000D01*
X155048423Y-117710423D01*
X154731260Y-118185091D01*
X154619887Y-118745000D01*
X154731260Y-119304909D01*
X155048423Y-119779577D01*
X155400758Y-120015000D01*
X155048423Y-120250423D01*
X154731260Y-120725091D01*
X154619887Y-121285000D01*
X154731260Y-121844909D01*
X155048423Y-122319577D01*
X155400758Y-122555000D01*
X155048423Y-122790423D01*
X154731260Y-123265091D01*
X154619887Y-123825000D01*
X154731260Y-124384909D01*
X155048423Y-124859577D01*
X155523091Y-125176740D01*
X155941667Y-125260000D01*
X156224333Y-125260000D01*
X156642909Y-125176740D01*
X157117577Y-124859577D01*
X157434740Y-124384909D01*
X157546113Y-123825000D01*
X157434740Y-123265091D01*
X157117577Y-122790423D01*
X156765242Y-122555000D01*
X157117577Y-122319577D01*
X157434740Y-121844909D01*
X157546113Y-121285000D01*
X157434740Y-120725091D01*
X157117577Y-120250423D01*
X156765242Y-120015000D01*
X157117577Y-119779577D01*
X157434740Y-119304909D01*
X157546113Y-118745000D01*
X157434740Y-118185091D01*
X157117577Y-117710423D01*
X156765242Y-117475000D01*
X157117577Y-117239577D01*
X157434740Y-116764909D01*
X157546113Y-116205000D01*
X157434740Y-115645091D01*
X157117577Y-115170423D01*
X156765242Y-114935000D01*
X157117577Y-114699577D01*
X157434740Y-114224909D01*
X157546113Y-113665000D01*
X157434740Y-113105091D01*
X157117577Y-112630423D01*
X156765242Y-112395000D01*
X157117577Y-112159577D01*
X157316679Y-111861600D01*
X157448460Y-111861600D01*
X157521000Y-111876029D01*
X157593540Y-111861600D01*
X157593544Y-111861600D01*
X157808407Y-111818861D01*
X158052058Y-111656058D01*
X158093151Y-111594558D01*
X170264274Y-99423436D01*
X170288423Y-99459577D01*
X170288423Y-99459577D01*
G37*
X170288423Y-99459577D02*
X170640758Y-99695000D01*
X170288423Y-99930423D01*
X169971260Y-100405091D01*
X169859887Y-100965000D01*
X169971260Y-101524909D01*
X170288423Y-101999577D01*
X170640758Y-102235000D01*
X170288423Y-102470423D01*
X169971260Y-102945091D01*
X169859887Y-103505000D01*
X169971260Y-104064909D01*
X170255695Y-104490595D01*
X163233442Y-111512849D01*
X163171942Y-111553942D01*
X163009139Y-111797594D01*
X162966400Y-112012457D01*
X162966400Y-112012460D01*
X162951971Y-112085000D01*
X162966400Y-112157540D01*
X162966401Y-129982429D01*
X162622570Y-130212170D01*
X162433000Y-130495881D01*
X162243430Y-130212170D01*
X161747724Y-129880950D01*
X161163000Y-129764641D01*
X160578275Y-129880950D01*
X160082570Y-130212170D01*
X159893000Y-130495881D01*
X159703430Y-130212170D01*
X159207724Y-129880950D01*
X158623000Y-129764641D01*
X158038275Y-129880950D01*
X157542570Y-130212170D01*
X157353000Y-130495881D01*
X157163430Y-130212170D01*
X156667724Y-129880950D01*
X156083000Y-129764641D01*
X155498275Y-129880950D01*
X155002570Y-130212170D01*
X154671350Y-130707876D01*
X154584400Y-131145003D01*
X154584400Y-131744998D01*
X154644750Y-132048400D01*
X152441249Y-132048400D01*
X152501600Y-131744997D01*
X152501600Y-131145002D01*
X152414650Y-130707875D01*
X152083430Y-130212170D01*
X151587724Y-129880950D01*
X151003000Y-129764641D01*
X150418275Y-129880950D01*
X149922570Y-130212170D01*
X149729091Y-130501733D01*
X149365036Y-130094268D01*
X148837791Y-129840291D01*
X148822026Y-129837642D01*
X148590000Y-129958783D01*
X148590000Y-131318000D01*
X148610000Y-131318000D01*
X148610000Y-131572000D01*
X148590000Y-131572000D01*
X148590000Y-131592000D01*
X148336000Y-131592000D01*
X148336000Y-131572000D01*
X146050000Y-131572000D01*
X146050000Y-131592000D01*
X145796000Y-131592000D01*
X145796000Y-131572000D01*
X145776000Y-131572000D01*
X145776000Y-131318000D01*
X145796000Y-131318000D01*
X145796000Y-129958783D01*
X146050000Y-129958783D01*
X146050000Y-131318000D01*
X148336000Y-131318000D01*
X148336000Y-129958783D01*
X148103974Y-129837642D01*
X148088209Y-129840291D01*
X147560964Y-130094268D01*
X147193000Y-130506108D01*
X146825036Y-130094268D01*
X146297791Y-129840291D01*
X146282026Y-129837642D01*
X146050000Y-129958783D01*
X145796000Y-129958783D01*
X145563974Y-129837642D01*
X145548209Y-129840291D01*
X145020964Y-130094268D01*
X144656910Y-130501732D01*
X144463430Y-130212170D01*
X143967724Y-129880950D01*
X143383000Y-129764641D01*
X142798275Y-129880950D01*
X142404123Y-130144314D01*
X140384197Y-128123510D01*
X140343058Y-128061942D01*
X140219531Y-127979404D01*
X140099557Y-127899202D01*
X140099478Y-127899186D01*
X140099407Y-127899139D01*
X139952148Y-127869847D01*
X139812163Y-127841971D01*
X139739541Y-127856400D01*
X129341110Y-127856400D01*
X128015150Y-126530441D01*
X127974058Y-126468942D01*
X127730407Y-126306139D01*
X127550652Y-126270383D01*
X127629904Y-126079039D01*
X127507915Y-125857000D01*
X126365000Y-125857000D01*
X126365000Y-125877000D01*
X126111000Y-125877000D01*
X126111000Y-125857000D01*
X124968085Y-125857000D01*
X124846096Y-126079039D01*
X124922456Y-126263400D01*
X120247553Y-126263400D01*
X120251058Y-126261058D01*
X120292151Y-126199558D01*
X121295110Y-125196600D01*
X124922456Y-125196600D01*
X124846096Y-125380961D01*
X124968085Y-125603000D01*
X126111000Y-125603000D01*
X126111000Y-125583000D01*
X126365000Y-125583000D01*
X126365000Y-125603000D01*
X127507915Y-125603000D01*
X127629904Y-125380961D01*
X127553544Y-125196600D01*
X128478460Y-125196600D01*
X128551000Y-125211029D01*
X128623540Y-125196600D01*
X128623544Y-125196600D01*
X128838407Y-125153861D01*
X129082058Y-124991058D01*
X129123151Y-124929558D01*
X131955511Y-122097198D01*
X131876800Y-122287224D01*
X131876800Y-122822776D01*
X132081746Y-123317561D01*
X132460439Y-123696254D01*
X132955224Y-123901200D01*
X133490776Y-123901200D01*
X133985561Y-123696254D01*
X134364254Y-123317561D01*
X134375007Y-123291600D01*
X134990891Y-123291600D01*
X137898851Y-126199560D01*
X137939942Y-126261058D01*
X138001439Y-126302149D01*
X138001441Y-126302151D01*
X138183593Y-126423861D01*
X138330257Y-126453034D01*
X138538423Y-126764577D01*
X139013091Y-127081740D01*
X139431667Y-127165000D01*
X139714333Y-127165000D01*
X140132909Y-127081740D01*
X140607577Y-126764577D01*
X140806679Y-126466600D01*
X142040460Y-126466600D01*
X142113000Y-126481029D01*
X142185540Y-126466600D01*
X142185544Y-126466600D01*
X142400407Y-126423861D01*
X142644058Y-126261058D01*
X142685151Y-126199558D01*
X144291298Y-124593411D01*
X144367561Y-124625000D01*
X144938439Y-124625000D01*
X145465862Y-124406534D01*
X145674651Y-124197745D01*
X146324861Y-124197745D01*
X146398995Y-124443864D01*
X146936223Y-124636965D01*
X147506454Y-124609778D01*
X147907005Y-124443864D01*
X147981139Y-124197745D01*
X147153000Y-123369605D01*
X146324861Y-124197745D01*
X145674651Y-124197745D01*
X145869534Y-124002862D01*
X145896525Y-123937701D01*
X145899136Y-123944005D01*
X146145255Y-124018139D01*
X146973395Y-123190000D01*
X147332605Y-123190000D01*
X148160745Y-124018139D01*
X148406864Y-123944005D01*
X148599965Y-123406777D01*
X148572778Y-122836546D01*
X148406864Y-122435995D01*
X148160745Y-122361861D01*
X147332605Y-123190000D01*
X146973395Y-123190000D01*
X146145255Y-122361861D01*
X145899136Y-122435995D01*
X145896710Y-122442746D01*
X145869534Y-122377138D01*
X145674651Y-122182255D01*
X146324861Y-122182255D01*
X147153000Y-123010395D01*
X147981139Y-122182255D01*
X147907005Y-121936136D01*
X147369777Y-121743035D01*
X146799546Y-121770222D01*
X146398995Y-121936136D01*
X146324861Y-122182255D01*
X145674651Y-122182255D01*
X145465862Y-121973466D01*
X144938439Y-121755000D01*
X144367561Y-121755000D01*
X143840138Y-121973466D01*
X143436466Y-122377138D01*
X143218000Y-122904561D01*
X143218000Y-123475439D01*
X143249589Y-123551702D01*
X141807891Y-124993400D01*
X140806679Y-124993400D01*
X140607577Y-124695423D01*
X140132909Y-124378260D01*
X139714333Y-124295000D01*
X139431667Y-124295000D01*
X139013091Y-124378260D01*
X138538423Y-124695423D01*
X138514274Y-124731564D01*
X135868151Y-122085442D01*
X135827058Y-122023942D01*
X135583407Y-121861139D01*
X135368544Y-121818400D01*
X135368540Y-121818400D01*
X135296000Y-121803971D01*
X135223460Y-121818400D01*
X134375007Y-121818400D01*
X134364254Y-121792439D01*
X133985561Y-121413746D01*
X133490776Y-121208800D01*
X132955224Y-121208800D01*
X132765198Y-121287511D01*
X132875109Y-121177600D01*
X145592460Y-121177600D01*
X145665000Y-121192029D01*
X145737540Y-121177600D01*
X145737544Y-121177600D01*
X145952407Y-121134861D01*
X146196058Y-120972058D01*
X146237151Y-120910558D01*
X155024274Y-112123436D01*
X155048423Y-112159577D01*
X155400758Y-112395000D01*
X155048423Y-112630423D01*
X154731260Y-113105091D01*
X154619887Y-113665000D01*
X154731260Y-114224909D01*
X155048423Y-114699577D01*
X155400758Y-114935000D01*
X155048423Y-115170423D01*
X154731260Y-115645091D01*
X154619887Y-116205000D01*
X154731260Y-116764909D01*
X155048423Y-117239577D01*
X155400758Y-117475000D01*
X155048423Y-117710423D01*
X154731260Y-118185091D01*
X154619887Y-118745000D01*
X154731260Y-119304909D01*
X155048423Y-119779577D01*
X155400758Y-120015000D01*
X155048423Y-120250423D01*
X154731260Y-120725091D01*
X154619887Y-121285000D01*
X154731260Y-121844909D01*
X155048423Y-122319577D01*
X155400758Y-122555000D01*
X155048423Y-122790423D01*
X154731260Y-123265091D01*
X154619887Y-123825000D01*
X154731260Y-124384909D01*
X155048423Y-124859577D01*
X155523091Y-125176740D01*
X155941667Y-125260000D01*
X156224333Y-125260000D01*
X156642909Y-125176740D01*
X157117577Y-124859577D01*
X157434740Y-124384909D01*
X157546113Y-123825000D01*
X157434740Y-123265091D01*
X157117577Y-122790423D01*
X156765242Y-122555000D01*
X157117577Y-122319577D01*
X157434740Y-121844909D01*
X157546113Y-121285000D01*
X157434740Y-120725091D01*
X157117577Y-120250423D01*
X156765242Y-120015000D01*
X157117577Y-119779577D01*
X157434740Y-119304909D01*
X157546113Y-118745000D01*
X157434740Y-118185091D01*
X157117577Y-117710423D01*
X156765242Y-117475000D01*
X157117577Y-117239577D01*
X157434740Y-116764909D01*
X157546113Y-116205000D01*
X157434740Y-115645091D01*
X157117577Y-115170423D01*
X156765242Y-114935000D01*
X157117577Y-114699577D01*
X157434740Y-114224909D01*
X157546113Y-113665000D01*
X157434740Y-113105091D01*
X157117577Y-112630423D01*
X156765242Y-112395000D01*
X157117577Y-112159577D01*
X157316679Y-111861600D01*
X157448460Y-111861600D01*
X157521000Y-111876029D01*
X157593540Y-111861600D01*
X157593544Y-111861600D01*
X157808407Y-111818861D01*
X158052058Y-111656058D01*
X158093151Y-111594558D01*
X170264274Y-99423436D01*
X170288423Y-99459577D01*
G36*
X117170560Y-116049457D02*
X117045745Y-116011861D01*
X116217605Y-116840000D01*
X117045745Y-117668139D01*
X117255336Y-117605008D01*
X117154887Y-118110000D01*
X117228962Y-118482400D01*
X114647013Y-118482400D01*
X114259017Y-118094577D01*
X114350862Y-118056534D01*
X114559651Y-117847745D01*
X115209861Y-117847745D01*
X115283995Y-118093864D01*
X115821223Y-118286965D01*
X116391454Y-118259778D01*
X116792005Y-118093864D01*
X116866139Y-117847745D01*
X116038000Y-117019605D01*
X115209861Y-117847745D01*
X114559651Y-117847745D01*
X114754534Y-117652862D01*
X114781525Y-117587701D01*
X114784136Y-117594005D01*
X115030255Y-117668139D01*
X115858395Y-116840000D01*
X115844252Y-116825858D01*
X116023858Y-116646252D01*
X116038000Y-116660395D01*
X116866139Y-115832255D01*
X116792005Y-115586136D01*
X116298373Y-115408705D01*
X116502278Y-115204800D01*
X117170560Y-115204800D01*
X117170560Y-116049457D01*
X117170560Y-116049457D01*
G37*
X117170560Y-116049457D02*
X117045745Y-116011861D01*
X116217605Y-116840000D01*
X117045745Y-117668139D01*
X117255336Y-117605008D01*
X117154887Y-118110000D01*
X117228962Y-118482400D01*
X114647013Y-118482400D01*
X114259017Y-118094577D01*
X114350862Y-118056534D01*
X114559651Y-117847745D01*
X115209861Y-117847745D01*
X115283995Y-118093864D01*
X115821223Y-118286965D01*
X116391454Y-118259778D01*
X116792005Y-118093864D01*
X116866139Y-117847745D01*
X116038000Y-117019605D01*
X115209861Y-117847745D01*
X114559651Y-117847745D01*
X114754534Y-117652862D01*
X114781525Y-117587701D01*
X114784136Y-117594005D01*
X115030255Y-117668139D01*
X115858395Y-116840000D01*
X115844252Y-116825858D01*
X116023858Y-116646252D01*
X116038000Y-116660395D01*
X116866139Y-115832255D01*
X116792005Y-115586136D01*
X116298373Y-115408705D01*
X116502278Y-115204800D01*
X117170560Y-115204800D01*
X117170560Y-116049457D01*
G36*
X154731260Y-92785091D02*
X154619887Y-93345000D01*
X154731260Y-93904909D01*
X155048423Y-94379577D01*
X155400758Y-94615000D01*
X155048423Y-94850423D01*
X154731260Y-95325091D01*
X154619887Y-95885000D01*
X154731260Y-96444909D01*
X155048423Y-96919577D01*
X155432108Y-97175947D01*
X155227866Y-97272611D01*
X154851959Y-97687577D01*
X154691096Y-98075961D01*
X154813085Y-98298000D01*
X155956000Y-98298000D01*
X155956000Y-98278000D01*
X156210000Y-98278000D01*
X156210000Y-98298000D01*
X157352915Y-98298000D01*
X157474904Y-98075961D01*
X157314041Y-97687577D01*
X156938134Y-97272611D01*
X156733892Y-97175947D01*
X157117577Y-96919577D01*
X157141657Y-96883539D01*
X157986812Y-97729002D01*
X158027942Y-97790558D01*
X158151038Y-97872808D01*
X158271467Y-97953308D01*
X158271533Y-97953321D01*
X158271593Y-97953361D01*
X158419444Y-97982771D01*
X158558863Y-98010529D01*
X158631472Y-97996100D01*
X169608190Y-97996100D01*
X157276309Y-110327982D01*
X157117577Y-110090423D01*
X156796463Y-109875861D01*
X156806034Y-109827743D01*
X157117577Y-109619577D01*
X157434740Y-109144909D01*
X157546113Y-108585000D01*
X157434740Y-108025091D01*
X157117577Y-107550423D01*
X156765242Y-107315000D01*
X157117577Y-107079577D01*
X157434740Y-106604909D01*
X157546113Y-106045000D01*
X157434740Y-105485091D01*
X157117577Y-105010423D01*
X156765242Y-104775000D01*
X157117577Y-104539577D01*
X157434740Y-104064909D01*
X157546113Y-103505000D01*
X157434740Y-102945091D01*
X157117577Y-102470423D01*
X156765242Y-102235000D01*
X157117577Y-101999577D01*
X157434740Y-101524909D01*
X157546113Y-100965000D01*
X157434740Y-100405091D01*
X157117577Y-99930423D01*
X156733892Y-99674053D01*
X156938134Y-99577389D01*
X157314041Y-99162423D01*
X157474904Y-98774039D01*
X157352915Y-98552000D01*
X156210000Y-98552000D01*
X156210000Y-98572000D01*
X155956000Y-98572000D01*
X155956000Y-98552000D01*
X154813085Y-98552000D01*
X154691096Y-98774039D01*
X154851959Y-99162423D01*
X155227866Y-99577389D01*
X155432108Y-99674053D01*
X155048423Y-99930423D01*
X154731260Y-100405091D01*
X154619887Y-100965000D01*
X154731260Y-101524909D01*
X155048423Y-101999577D01*
X155400758Y-102235000D01*
X155048423Y-102470423D01*
X154731260Y-102945091D01*
X154619887Y-103505000D01*
X154731260Y-104064909D01*
X155048423Y-104539577D01*
X155400758Y-104775000D01*
X155048423Y-105010423D01*
X154731260Y-105485091D01*
X154619887Y-106045000D01*
X154731260Y-106604909D01*
X155048423Y-107079577D01*
X155400758Y-107315000D01*
X155048423Y-107550423D01*
X154731260Y-108025091D01*
X154619887Y-108585000D01*
X154729640Y-109136766D01*
X154700942Y-109155942D01*
X154659851Y-109217439D01*
X148412555Y-115464735D01*
X148406864Y-115450995D01*
X148160745Y-115376861D01*
X147332605Y-116205000D01*
X147346748Y-116219143D01*
X147167143Y-116398748D01*
X147153000Y-116384605D01*
X146324861Y-117212745D01*
X146398995Y-117458864D01*
X146413289Y-117464002D01*
X145394891Y-118482400D01*
X134119415Y-118482400D01*
X134364254Y-118237561D01*
X134375007Y-118211600D01*
X138230460Y-118211600D01*
X138303000Y-118226029D01*
X138375540Y-118211600D01*
X138375544Y-118211600D01*
X138590407Y-118168861D01*
X138834058Y-118006058D01*
X138875151Y-117944558D01*
X139814710Y-117005000D01*
X139858439Y-117005000D01*
X140011500Y-116941600D01*
X143404877Y-116941600D01*
X143436466Y-117017862D01*
X143840138Y-117421534D01*
X144367561Y-117640000D01*
X144938439Y-117640000D01*
X145465862Y-117421534D01*
X145869534Y-117017862D01*
X145896525Y-116952701D01*
X145899136Y-116959005D01*
X146145255Y-117033139D01*
X146973395Y-116205000D01*
X146145255Y-115376861D01*
X145899136Y-115450995D01*
X145896710Y-115457746D01*
X145869534Y-115392138D01*
X145674651Y-115197255D01*
X146324861Y-115197255D01*
X147153000Y-116025395D01*
X147981139Y-115197255D01*
X147907005Y-114951136D01*
X147369777Y-114758035D01*
X146799546Y-114785222D01*
X146398995Y-114951136D01*
X146324861Y-115197255D01*
X145674651Y-115197255D01*
X145465862Y-114988466D01*
X144938439Y-114770000D01*
X144367561Y-114770000D01*
X143840138Y-114988466D01*
X143436466Y-115392138D01*
X143404877Y-115468400D01*
X141008000Y-115468400D01*
X141008000Y-115284561D01*
X140789534Y-114757138D01*
X140385862Y-114353466D01*
X139858439Y-114135000D01*
X139287561Y-114135000D01*
X138760138Y-114353466D01*
X138356466Y-114757138D01*
X138138000Y-115284561D01*
X138138000Y-115855439D01*
X138355576Y-116380714D01*
X137997891Y-116738400D01*
X134375007Y-116738400D01*
X134364254Y-116712439D01*
X133985561Y-116333746D01*
X133490776Y-116128800D01*
X132955224Y-116128800D01*
X132460439Y-116333746D01*
X132081746Y-116712439D01*
X131876800Y-117207224D01*
X131876800Y-117742776D01*
X132081746Y-118237561D01*
X132326585Y-118482400D01*
X127627038Y-118482400D01*
X127701113Y-118110000D01*
X127589740Y-117550091D01*
X127272577Y-117075423D01*
X126920242Y-116840000D01*
X127272577Y-116604577D01*
X127589740Y-116129909D01*
X127701113Y-115570000D01*
X127589740Y-115010091D01*
X127272577Y-114535423D01*
X126797909Y-114218260D01*
X126379333Y-114135000D01*
X126096667Y-114135000D01*
X125678091Y-114218260D01*
X125217857Y-114525779D01*
X124567800Y-113875723D01*
X124567800Y-113830000D01*
X124618439Y-113830000D01*
X125145862Y-113611534D01*
X125549534Y-113207862D01*
X125768000Y-112680439D01*
X125768000Y-112109561D01*
X125595703Y-111693600D01*
X130588891Y-111693600D01*
X131020850Y-112125560D01*
X131061942Y-112187058D01*
X131123439Y-112228149D01*
X131123441Y-112228151D01*
X131250816Y-112313260D01*
X131305593Y-112349861D01*
X131520456Y-112392600D01*
X131520459Y-112392600D01*
X131592999Y-112407029D01*
X131665540Y-112392600D01*
X145231956Y-112392600D01*
X145410512Y-112571156D01*
X145807274Y-112735500D01*
X146236726Y-112735500D01*
X146633488Y-112571156D01*
X146937156Y-112267488D01*
X147101500Y-111870726D01*
X147101500Y-111441274D01*
X146988862Y-111169341D01*
X147002519Y-111178466D01*
X147010593Y-111183861D01*
X147141697Y-111209939D01*
X147382570Y-111570430D01*
X147878275Y-111901650D01*
X148315402Y-111988600D01*
X148610598Y-111988600D01*
X149047725Y-111901650D01*
X149543430Y-111570430D01*
X149733000Y-111286719D01*
X149922570Y-111570430D01*
X150418275Y-111901650D01*
X150855402Y-111988600D01*
X151150598Y-111988600D01*
X151587725Y-111901650D01*
X152083430Y-111570430D01*
X152414650Y-111074725D01*
X152530959Y-110490000D01*
X152414650Y-109905275D01*
X152083430Y-109409570D01*
X151799719Y-109220000D01*
X152083430Y-109030430D01*
X152414650Y-108534725D01*
X152530959Y-107950000D01*
X152414650Y-107365275D01*
X152083430Y-106869570D01*
X151799719Y-106680000D01*
X152083430Y-106490430D01*
X152414650Y-105994725D01*
X152530959Y-105410000D01*
X152414650Y-104825275D01*
X152083430Y-104329570D01*
X151799719Y-104140000D01*
X152083430Y-103950430D01*
X152414650Y-103454725D01*
X152530959Y-102870000D01*
X152414650Y-102285275D01*
X152083430Y-101789570D01*
X151799719Y-101600000D01*
X152083430Y-101410430D01*
X152414650Y-100914725D01*
X152530959Y-100330000D01*
X152414650Y-99745275D01*
X152083430Y-99249570D01*
X151799719Y-99060000D01*
X152083430Y-98870430D01*
X152414650Y-98374725D01*
X152530959Y-97790000D01*
X152414650Y-97205275D01*
X152083430Y-96709570D01*
X151799719Y-96520000D01*
X152083430Y-96330430D01*
X152414650Y-95834725D01*
X152530959Y-95250000D01*
X152414650Y-94665275D01*
X152083430Y-94169570D01*
X151799719Y-93980000D01*
X152083430Y-93790430D01*
X152414650Y-93294725D01*
X152530959Y-92710000D01*
X152522764Y-92668800D01*
X154808963Y-92668800D01*
X154731260Y-92785091D01*
X154731260Y-92785091D01*
G37*
X154731260Y-92785091D02*
X154619887Y-93345000D01*
X154731260Y-93904909D01*
X155048423Y-94379577D01*
X155400758Y-94615000D01*
X155048423Y-94850423D01*
X154731260Y-95325091D01*
X154619887Y-95885000D01*
X154731260Y-96444909D01*
X155048423Y-96919577D01*
X155432108Y-97175947D01*
X155227866Y-97272611D01*
X154851959Y-97687577D01*
X154691096Y-98075961D01*
X154813085Y-98298000D01*
X155956000Y-98298000D01*
X155956000Y-98278000D01*
X156210000Y-98278000D01*
X156210000Y-98298000D01*
X157352915Y-98298000D01*
X157474904Y-98075961D01*
X157314041Y-97687577D01*
X156938134Y-97272611D01*
X156733892Y-97175947D01*
X157117577Y-96919577D01*
X157141657Y-96883539D01*
X157986812Y-97729002D01*
X158027942Y-97790558D01*
X158151038Y-97872808D01*
X158271467Y-97953308D01*
X158271533Y-97953321D01*
X158271593Y-97953361D01*
X158419444Y-97982771D01*
X158558863Y-98010529D01*
X158631472Y-97996100D01*
X169608190Y-97996100D01*
X157276309Y-110327982D01*
X157117577Y-110090423D01*
X156796463Y-109875861D01*
X156806034Y-109827743D01*
X157117577Y-109619577D01*
X157434740Y-109144909D01*
X157546113Y-108585000D01*
X157434740Y-108025091D01*
X157117577Y-107550423D01*
X156765242Y-107315000D01*
X157117577Y-107079577D01*
X157434740Y-106604909D01*
X157546113Y-106045000D01*
X157434740Y-105485091D01*
X157117577Y-105010423D01*
X156765242Y-104775000D01*
X157117577Y-104539577D01*
X157434740Y-104064909D01*
X157546113Y-103505000D01*
X157434740Y-102945091D01*
X157117577Y-102470423D01*
X156765242Y-102235000D01*
X157117577Y-101999577D01*
X157434740Y-101524909D01*
X157546113Y-100965000D01*
X157434740Y-100405091D01*
X157117577Y-99930423D01*
X156733892Y-99674053D01*
X156938134Y-99577389D01*
X157314041Y-99162423D01*
X157474904Y-98774039D01*
X157352915Y-98552000D01*
X156210000Y-98552000D01*
X156210000Y-98572000D01*
X155956000Y-98572000D01*
X155956000Y-98552000D01*
X154813085Y-98552000D01*
X154691096Y-98774039D01*
X154851959Y-99162423D01*
X155227866Y-99577389D01*
X155432108Y-99674053D01*
X155048423Y-99930423D01*
X154731260Y-100405091D01*
X154619887Y-100965000D01*
X154731260Y-101524909D01*
X155048423Y-101999577D01*
X155400758Y-102235000D01*
X155048423Y-102470423D01*
X154731260Y-102945091D01*
X154619887Y-103505000D01*
X154731260Y-104064909D01*
X155048423Y-104539577D01*
X155400758Y-104775000D01*
X155048423Y-105010423D01*
X154731260Y-105485091D01*
X154619887Y-106045000D01*
X154731260Y-106604909D01*
X155048423Y-107079577D01*
X155400758Y-107315000D01*
X155048423Y-107550423D01*
X154731260Y-108025091D01*
X154619887Y-108585000D01*
X154729640Y-109136766D01*
X154700942Y-109155942D01*
X154659851Y-109217439D01*
X148412555Y-115464735D01*
X148406864Y-115450995D01*
X148160745Y-115376861D01*
X147332605Y-116205000D01*
X147346748Y-116219143D01*
X147167143Y-116398748D01*
X147153000Y-116384605D01*
X146324861Y-117212745D01*
X146398995Y-117458864D01*
X146413289Y-117464002D01*
X145394891Y-118482400D01*
X134119415Y-118482400D01*
X134364254Y-118237561D01*
X134375007Y-118211600D01*
X138230460Y-118211600D01*
X138303000Y-118226029D01*
X138375540Y-118211600D01*
X138375544Y-118211600D01*
X138590407Y-118168861D01*
X138834058Y-118006058D01*
X138875151Y-117944558D01*
X139814710Y-117005000D01*
X139858439Y-117005000D01*
X140011500Y-116941600D01*
X143404877Y-116941600D01*
X143436466Y-117017862D01*
X143840138Y-117421534D01*
X144367561Y-117640000D01*
X144938439Y-117640000D01*
X145465862Y-117421534D01*
X145869534Y-117017862D01*
X145896525Y-116952701D01*
X145899136Y-116959005D01*
X146145255Y-117033139D01*
X146973395Y-116205000D01*
X146145255Y-115376861D01*
X145899136Y-115450995D01*
X145896710Y-115457746D01*
X145869534Y-115392138D01*
X145674651Y-115197255D01*
X146324861Y-115197255D01*
X147153000Y-116025395D01*
X147981139Y-115197255D01*
X147907005Y-114951136D01*
X147369777Y-114758035D01*
X146799546Y-114785222D01*
X146398995Y-114951136D01*
X146324861Y-115197255D01*
X145674651Y-115197255D01*
X145465862Y-114988466D01*
X144938439Y-114770000D01*
X144367561Y-114770000D01*
X143840138Y-114988466D01*
X143436466Y-115392138D01*
X143404877Y-115468400D01*
X141008000Y-115468400D01*
X141008000Y-115284561D01*
X140789534Y-114757138D01*
X140385862Y-114353466D01*
X139858439Y-114135000D01*
X139287561Y-114135000D01*
X138760138Y-114353466D01*
X138356466Y-114757138D01*
X138138000Y-115284561D01*
X138138000Y-115855439D01*
X138355576Y-116380714D01*
X137997891Y-116738400D01*
X134375007Y-116738400D01*
X134364254Y-116712439D01*
X133985561Y-116333746D01*
X133490776Y-116128800D01*
X132955224Y-116128800D01*
X132460439Y-116333746D01*
X132081746Y-116712439D01*
X131876800Y-117207224D01*
X131876800Y-117742776D01*
X132081746Y-118237561D01*
X132326585Y-118482400D01*
X127627038Y-118482400D01*
X127701113Y-118110000D01*
X127589740Y-117550091D01*
X127272577Y-117075423D01*
X126920242Y-116840000D01*
X127272577Y-116604577D01*
X127589740Y-116129909D01*
X127701113Y-115570000D01*
X127589740Y-115010091D01*
X127272577Y-114535423D01*
X126797909Y-114218260D01*
X126379333Y-114135000D01*
X126096667Y-114135000D01*
X125678091Y-114218260D01*
X125217857Y-114525779D01*
X124567800Y-113875723D01*
X124567800Y-113830000D01*
X124618439Y-113830000D01*
X125145862Y-113611534D01*
X125549534Y-113207862D01*
X125768000Y-112680439D01*
X125768000Y-112109561D01*
X125595703Y-111693600D01*
X130588891Y-111693600D01*
X131020850Y-112125560D01*
X131061942Y-112187058D01*
X131123439Y-112228149D01*
X131123441Y-112228151D01*
X131250816Y-112313260D01*
X131305593Y-112349861D01*
X131520456Y-112392600D01*
X131520459Y-112392600D01*
X131592999Y-112407029D01*
X131665540Y-112392600D01*
X145231956Y-112392600D01*
X145410512Y-112571156D01*
X145807274Y-112735500D01*
X146236726Y-112735500D01*
X146633488Y-112571156D01*
X146937156Y-112267488D01*
X147101500Y-111870726D01*
X147101500Y-111441274D01*
X146988862Y-111169341D01*
X147002519Y-111178466D01*
X147010593Y-111183861D01*
X147141697Y-111209939D01*
X147382570Y-111570430D01*
X147878275Y-111901650D01*
X148315402Y-111988600D01*
X148610598Y-111988600D01*
X149047725Y-111901650D01*
X149543430Y-111570430D01*
X149733000Y-111286719D01*
X149922570Y-111570430D01*
X150418275Y-111901650D01*
X150855402Y-111988600D01*
X151150598Y-111988600D01*
X151587725Y-111901650D01*
X152083430Y-111570430D01*
X152414650Y-111074725D01*
X152530959Y-110490000D01*
X152414650Y-109905275D01*
X152083430Y-109409570D01*
X151799719Y-109220000D01*
X152083430Y-109030430D01*
X152414650Y-108534725D01*
X152530959Y-107950000D01*
X152414650Y-107365275D01*
X152083430Y-106869570D01*
X151799719Y-106680000D01*
X152083430Y-106490430D01*
X152414650Y-105994725D01*
X152530959Y-105410000D01*
X152414650Y-104825275D01*
X152083430Y-104329570D01*
X151799719Y-104140000D01*
X152083430Y-103950430D01*
X152414650Y-103454725D01*
X152530959Y-102870000D01*
X152414650Y-102285275D01*
X152083430Y-101789570D01*
X151799719Y-101600000D01*
X152083430Y-101410430D01*
X152414650Y-100914725D01*
X152530959Y-100330000D01*
X152414650Y-99745275D01*
X152083430Y-99249570D01*
X151799719Y-99060000D01*
X152083430Y-98870430D01*
X152414650Y-98374725D01*
X152530959Y-97790000D01*
X152414650Y-97205275D01*
X152083430Y-96709570D01*
X151799719Y-96520000D01*
X152083430Y-96330430D01*
X152414650Y-95834725D01*
X152530959Y-95250000D01*
X152414650Y-94665275D01*
X152083430Y-94169570D01*
X151799719Y-93980000D01*
X152083430Y-93790430D01*
X152414650Y-93294725D01*
X152530959Y-92710000D01*
X152522764Y-92668800D01*
X154808963Y-92668800D01*
X154731260Y-92785091D01*
G36*
X122026748Y-112380858D02*
X122012605Y-112395000D01*
X122026748Y-112409142D01*
X121847142Y-112588748D01*
X121833000Y-112574605D01*
X121818858Y-112588748D01*
X121639252Y-112409142D01*
X121653395Y-112395000D01*
X121639252Y-112380858D01*
X121818858Y-112201252D01*
X121833000Y-112215395D01*
X121847142Y-112201252D01*
X122026748Y-112380858D01*
X122026748Y-112380858D01*
G37*
X122026748Y-112380858D02*
X122012605Y-112395000D01*
X122026748Y-112409142D01*
X121847142Y-112588748D01*
X121833000Y-112574605D01*
X121818858Y-112588748D01*
X121639252Y-112409142D01*
X121653395Y-112395000D01*
X121639252Y-112380858D01*
X121818858Y-112201252D01*
X121833000Y-112215395D01*
X121847142Y-112201252D01*
X122026748Y-112380858D01*
G36*
X120249849Y-108886558D02*
X120290942Y-108948058D01*
X120534593Y-109110861D01*
X120749456Y-109153600D01*
X120749459Y-109153600D01*
X120821999Y-109168029D01*
X120894540Y-109153600D01*
X124980801Y-109153600D01*
X124886260Y-109295091D01*
X124774887Y-109855000D01*
X124847570Y-110220400D01*
X120003128Y-110220400D01*
X120009904Y-110204039D01*
X119887915Y-109982000D01*
X118745000Y-109982000D01*
X118745000Y-110002000D01*
X118491000Y-110002000D01*
X118491000Y-109982000D01*
X118471000Y-109982000D01*
X118471000Y-109728000D01*
X118491000Y-109728000D01*
X118491000Y-109708000D01*
X118745000Y-109708000D01*
X118745000Y-109728000D01*
X119887915Y-109728000D01*
X120009904Y-109505961D01*
X119849041Y-109117577D01*
X119473134Y-108702611D01*
X119268892Y-108605947D01*
X119652577Y-108349577D01*
X119676726Y-108313435D01*
X120249849Y-108886558D01*
X120249849Y-108886558D01*
G37*
X120249849Y-108886558D02*
X120290942Y-108948058D01*
X120534593Y-109110861D01*
X120749456Y-109153600D01*
X120749459Y-109153600D01*
X120821999Y-109168029D01*
X120894540Y-109153600D01*
X124980801Y-109153600D01*
X124886260Y-109295091D01*
X124774887Y-109855000D01*
X124847570Y-110220400D01*
X120003128Y-110220400D01*
X120009904Y-110204039D01*
X119887915Y-109982000D01*
X118745000Y-109982000D01*
X118745000Y-110002000D01*
X118491000Y-110002000D01*
X118491000Y-109982000D01*
X118471000Y-109982000D01*
X118471000Y-109728000D01*
X118491000Y-109728000D01*
X118491000Y-109708000D01*
X118745000Y-109708000D01*
X118745000Y-109728000D01*
X119887915Y-109728000D01*
X120009904Y-109505961D01*
X119849041Y-109117577D01*
X119473134Y-108702611D01*
X119268892Y-108605947D01*
X119652577Y-108349577D01*
X119676726Y-108313435D01*
X120249849Y-108886558D01*
G36*
X117226096Y-101885961D02*
X117348085Y-102108000D01*
X118491000Y-102108000D01*
X118491000Y-102088000D01*
X118745000Y-102088000D01*
X118745000Y-102108000D01*
X119887915Y-102108000D01*
X120009904Y-101885961D01*
X120003128Y-101869600D01*
X124847570Y-101869600D01*
X124774887Y-102235000D01*
X124886260Y-102794909D01*
X125203423Y-103269577D01*
X125555758Y-103505000D01*
X125203423Y-103740423D01*
X124886260Y-104215091D01*
X124774887Y-104775000D01*
X124886260Y-105334909D01*
X125203423Y-105809577D01*
X125555758Y-106045000D01*
X125203423Y-106280423D01*
X124886260Y-106755091D01*
X124774887Y-107315000D01*
X124847570Y-107680400D01*
X121127109Y-107680400D01*
X120292151Y-106845442D01*
X120251058Y-106783942D01*
X120007407Y-106621139D01*
X119860743Y-106591966D01*
X119652577Y-106280423D01*
X119300242Y-106045000D01*
X119652577Y-105809577D01*
X119969740Y-105334909D01*
X120081113Y-104775000D01*
X119969740Y-104215091D01*
X119652577Y-103740423D01*
X119268892Y-103484053D01*
X119473134Y-103387389D01*
X119849041Y-102972423D01*
X120009904Y-102584039D01*
X119887915Y-102362000D01*
X118745000Y-102362000D01*
X118745000Y-102382000D01*
X118491000Y-102382000D01*
X118491000Y-102362000D01*
X117348085Y-102362000D01*
X117226096Y-102584039D01*
X117386959Y-102972423D01*
X117762866Y-103387389D01*
X117967108Y-103484053D01*
X117583423Y-103740423D01*
X117266260Y-104215091D01*
X117154887Y-104775000D01*
X117266260Y-105334909D01*
X117583423Y-105809577D01*
X117935758Y-106045000D01*
X117583423Y-106280423D01*
X117266260Y-106755091D01*
X117154887Y-107315000D01*
X117266260Y-107874909D01*
X117583423Y-108349577D01*
X117967108Y-108605947D01*
X117762866Y-108702611D01*
X117386959Y-109117577D01*
X117226096Y-109505961D01*
X117348084Y-109727998D01*
X117183000Y-109727998D01*
X117183000Y-109755290D01*
X112260770Y-104833061D01*
X112349740Y-104699909D01*
X112461113Y-104140000D01*
X112349740Y-103580091D01*
X112032577Y-103105423D01*
X111680242Y-102870000D01*
X112032577Y-102634577D01*
X112349740Y-102159909D01*
X112405810Y-101878024D01*
X112435999Y-101884029D01*
X112508540Y-101869600D01*
X117232872Y-101869600D01*
X117226096Y-101885961D01*
X117226096Y-101885961D01*
G37*
X117226096Y-101885961D02*
X117348085Y-102108000D01*
X118491000Y-102108000D01*
X118491000Y-102088000D01*
X118745000Y-102088000D01*
X118745000Y-102108000D01*
X119887915Y-102108000D01*
X120009904Y-101885961D01*
X120003128Y-101869600D01*
X124847570Y-101869600D01*
X124774887Y-102235000D01*
X124886260Y-102794909D01*
X125203423Y-103269577D01*
X125555758Y-103505000D01*
X125203423Y-103740423D01*
X124886260Y-104215091D01*
X124774887Y-104775000D01*
X124886260Y-105334909D01*
X125203423Y-105809577D01*
X125555758Y-106045000D01*
X125203423Y-106280423D01*
X124886260Y-106755091D01*
X124774887Y-107315000D01*
X124847570Y-107680400D01*
X121127109Y-107680400D01*
X120292151Y-106845442D01*
X120251058Y-106783942D01*
X120007407Y-106621139D01*
X119860743Y-106591966D01*
X119652577Y-106280423D01*
X119300242Y-106045000D01*
X119652577Y-105809577D01*
X119969740Y-105334909D01*
X120081113Y-104775000D01*
X119969740Y-104215091D01*
X119652577Y-103740423D01*
X119268892Y-103484053D01*
X119473134Y-103387389D01*
X119849041Y-102972423D01*
X120009904Y-102584039D01*
X119887915Y-102362000D01*
X118745000Y-102362000D01*
X118745000Y-102382000D01*
X118491000Y-102382000D01*
X118491000Y-102362000D01*
X117348085Y-102362000D01*
X117226096Y-102584039D01*
X117386959Y-102972423D01*
X117762866Y-103387389D01*
X117967108Y-103484053D01*
X117583423Y-103740423D01*
X117266260Y-104215091D01*
X117154887Y-104775000D01*
X117266260Y-105334909D01*
X117583423Y-105809577D01*
X117935758Y-106045000D01*
X117583423Y-106280423D01*
X117266260Y-106755091D01*
X117154887Y-107315000D01*
X117266260Y-107874909D01*
X117583423Y-108349577D01*
X117967108Y-108605947D01*
X117762866Y-108702611D01*
X117386959Y-109117577D01*
X117226096Y-109505961D01*
X117348084Y-109727998D01*
X117183000Y-109727998D01*
X117183000Y-109755290D01*
X112260770Y-104833061D01*
X112349740Y-104699909D01*
X112461113Y-104140000D01*
X112349740Y-103580091D01*
X112032577Y-103105423D01*
X111680242Y-102870000D01*
X112032577Y-102634577D01*
X112349740Y-102159909D01*
X112405810Y-101878024D01*
X112435999Y-101884029D01*
X112508540Y-101869600D01*
X117232872Y-101869600D01*
X117226096Y-101885961D01*
G36*
X89645249Y-98389858D02*
X89686342Y-98451358D01*
X89929993Y-98614161D01*
X90144856Y-98656900D01*
X90144860Y-98656900D01*
X90217399Y-98671329D01*
X90289938Y-98656900D01*
X94388487Y-98656900D01*
X94366096Y-98710961D01*
X94488085Y-98933000D01*
X95631000Y-98933000D01*
X95631000Y-98913000D01*
X95885000Y-98913000D01*
X95885000Y-98933000D01*
X95905000Y-98933000D01*
X95905000Y-99187000D01*
X95885000Y-99187000D01*
X95885000Y-99207000D01*
X95631000Y-99207000D01*
X95631000Y-99187000D01*
X94488085Y-99187000D01*
X94366096Y-99409039D01*
X94526959Y-99797423D01*
X94706643Y-99995777D01*
X93737713Y-100964869D01*
X93676243Y-101005942D01*
X93635135Y-101067464D01*
X93635110Y-101067489D01*
X93591346Y-101132999D01*
X93513440Y-101249593D01*
X93513434Y-101249624D01*
X93513415Y-101249652D01*
X93485194Y-101391593D01*
X93470701Y-101464456D01*
X93470701Y-101464485D01*
X93456271Y-101537062D01*
X93470701Y-101609575D01*
X93470700Y-105056424D01*
X93456271Y-105128928D01*
X93470700Y-105201505D01*
X93470700Y-105201543D01*
X93485206Y-105274470D01*
X93513411Y-105416339D01*
X93513432Y-105416370D01*
X93513439Y-105416406D01*
X93594878Y-105538288D01*
X93635104Y-105598503D01*
X93635129Y-105598528D01*
X93676242Y-105660058D01*
X93737713Y-105701132D01*
X94364831Y-106328371D01*
X94294887Y-106680000D01*
X94406260Y-107239909D01*
X94723423Y-107714577D01*
X95075758Y-107950000D01*
X94723423Y-108185423D01*
X94699314Y-108221505D01*
X94593251Y-108115442D01*
X94552158Y-108053942D01*
X94308507Y-107891139D01*
X94093644Y-107848400D01*
X94093640Y-107848400D01*
X94021100Y-107833971D01*
X93948560Y-107848400D01*
X90815993Y-107848400D01*
X90922092Y-107315000D01*
X90806839Y-106735582D01*
X90478625Y-106244375D01*
X89987418Y-105916161D01*
X89554256Y-105830000D01*
X89261744Y-105830000D01*
X88828582Y-105916161D01*
X88337375Y-106244375D01*
X88136647Y-106544786D01*
X87749358Y-106119817D01*
X87224892Y-105873514D01*
X86995000Y-105994181D01*
X86995000Y-107188000D01*
X87015000Y-107188000D01*
X87015000Y-107442000D01*
X86995000Y-107442000D01*
X86995000Y-107462000D01*
X86741000Y-107462000D01*
X86741000Y-107442000D01*
X86721000Y-107442000D01*
X86721000Y-107188000D01*
X86741000Y-107188000D01*
X86741000Y-105994181D01*
X86511108Y-105873514D01*
X85986642Y-106119817D01*
X85596355Y-106548076D01*
X85555215Y-106647404D01*
X85085800Y-106177922D01*
X85085800Y-93830409D01*
X89645249Y-98389858D01*
X89645249Y-98389858D01*
G37*
X89645249Y-98389858D02*
X89686342Y-98451358D01*
X89929993Y-98614161D01*
X90144856Y-98656900D01*
X90144860Y-98656900D01*
X90217399Y-98671329D01*
X90289938Y-98656900D01*
X94388487Y-98656900D01*
X94366096Y-98710961D01*
X94488085Y-98933000D01*
X95631000Y-98933000D01*
X95631000Y-98913000D01*
X95885000Y-98913000D01*
X95885000Y-98933000D01*
X95905000Y-98933000D01*
X95905000Y-99187000D01*
X95885000Y-99187000D01*
X95885000Y-99207000D01*
X95631000Y-99207000D01*
X95631000Y-99187000D01*
X94488085Y-99187000D01*
X94366096Y-99409039D01*
X94526959Y-99797423D01*
X94706643Y-99995777D01*
X93737713Y-100964869D01*
X93676243Y-101005942D01*
X93635135Y-101067464D01*
X93635110Y-101067489D01*
X93591346Y-101132999D01*
X93513440Y-101249593D01*
X93513434Y-101249624D01*
X93513415Y-101249652D01*
X93485194Y-101391593D01*
X93470701Y-101464456D01*
X93470701Y-101464485D01*
X93456271Y-101537062D01*
X93470701Y-101609575D01*
X93470700Y-105056424D01*
X93456271Y-105128928D01*
X93470700Y-105201505D01*
X93470700Y-105201543D01*
X93485206Y-105274470D01*
X93513411Y-105416339D01*
X93513432Y-105416370D01*
X93513439Y-105416406D01*
X93594878Y-105538288D01*
X93635104Y-105598503D01*
X93635129Y-105598528D01*
X93676242Y-105660058D01*
X93737713Y-105701132D01*
X94364831Y-106328371D01*
X94294887Y-106680000D01*
X94406260Y-107239909D01*
X94723423Y-107714577D01*
X95075758Y-107950000D01*
X94723423Y-108185423D01*
X94699314Y-108221505D01*
X94593251Y-108115442D01*
X94552158Y-108053942D01*
X94308507Y-107891139D01*
X94093644Y-107848400D01*
X94093640Y-107848400D01*
X94021100Y-107833971D01*
X93948560Y-107848400D01*
X90815993Y-107848400D01*
X90922092Y-107315000D01*
X90806839Y-106735582D01*
X90478625Y-106244375D01*
X89987418Y-105916161D01*
X89554256Y-105830000D01*
X89261744Y-105830000D01*
X88828582Y-105916161D01*
X88337375Y-106244375D01*
X88136647Y-106544786D01*
X87749358Y-106119817D01*
X87224892Y-105873514D01*
X86995000Y-105994181D01*
X86995000Y-107188000D01*
X87015000Y-107188000D01*
X87015000Y-107442000D01*
X86995000Y-107442000D01*
X86995000Y-107462000D01*
X86741000Y-107462000D01*
X86741000Y-107442000D01*
X86721000Y-107442000D01*
X86721000Y-107188000D01*
X86741000Y-107188000D01*
X86741000Y-105994181D01*
X86511108Y-105873514D01*
X85986642Y-106119817D01*
X85596355Y-106548076D01*
X85555215Y-106647404D01*
X85085800Y-106177922D01*
X85085800Y-93830409D01*
X89645249Y-98389858D01*
G36*
X125203423Y-93109577D02*
X125555758Y-93345000D01*
X125203423Y-93580423D01*
X124886260Y-94055091D01*
X124774887Y-94615000D01*
X124886260Y-95174909D01*
X125203423Y-95649577D01*
X125555758Y-95885000D01*
X125203423Y-96120423D01*
X124886260Y-96595091D01*
X124774887Y-97155000D01*
X124886260Y-97714909D01*
X125203423Y-98189577D01*
X125555758Y-98425000D01*
X125203423Y-98660423D01*
X124886260Y-99135091D01*
X124774887Y-99695000D01*
X124886260Y-100254909D01*
X124980801Y-100396400D01*
X119863961Y-100396400D01*
X120009904Y-100044039D01*
X119887915Y-99822000D01*
X118745000Y-99822000D01*
X118745000Y-99842000D01*
X118491000Y-99842000D01*
X118491000Y-99822000D01*
X117348085Y-99822000D01*
X117226096Y-100044039D01*
X117372039Y-100396400D01*
X112741110Y-100396400D01*
X112195482Y-99850773D01*
X112349740Y-99619909D01*
X112461113Y-99060000D01*
X112349740Y-98500091D01*
X112032577Y-98025423D01*
X111680242Y-97790000D01*
X112032577Y-97554577D01*
X112240743Y-97243035D01*
X112241752Y-97242834D01*
X112387407Y-97213861D01*
X112387544Y-97213769D01*
X112387701Y-97213738D01*
X112508684Y-97132826D01*
X112631058Y-97051058D01*
X112672239Y-96989427D01*
X113109293Y-96552000D01*
X117295052Y-96552000D01*
X117266260Y-96595091D01*
X117154887Y-97155000D01*
X117266260Y-97714909D01*
X117583423Y-98189577D01*
X117967108Y-98445947D01*
X117762866Y-98542611D01*
X117386959Y-98957577D01*
X117226096Y-99345961D01*
X117348085Y-99568000D01*
X118491000Y-99568000D01*
X118491000Y-99548000D01*
X118745000Y-99548000D01*
X118745000Y-99568000D01*
X119887915Y-99568000D01*
X120009904Y-99345961D01*
X119849041Y-98957577D01*
X119473134Y-98542611D01*
X119268892Y-98445947D01*
X119652577Y-98189577D01*
X119969740Y-97714909D01*
X120081113Y-97155000D01*
X119969740Y-96595091D01*
X119940948Y-96552000D01*
X120159956Y-96552000D01*
X120338512Y-96730556D01*
X120735274Y-96894900D01*
X121164726Y-96894900D01*
X121561488Y-96730556D01*
X121865156Y-96426888D01*
X122029500Y-96030126D01*
X122029500Y-95600674D01*
X121926330Y-95351600D01*
X122065462Y-95351600D01*
X122138004Y-95366029D01*
X122210542Y-95351600D01*
X122210544Y-95351600D01*
X122425407Y-95308861D01*
X122669058Y-95146058D01*
X122710154Y-95084554D01*
X124995814Y-92798868D01*
X125203423Y-93109577D01*
X125203423Y-93109577D01*
G37*
X125203423Y-93109577D02*
X125555758Y-93345000D01*
X125203423Y-93580423D01*
X124886260Y-94055091D01*
X124774887Y-94615000D01*
X124886260Y-95174909D01*
X125203423Y-95649577D01*
X125555758Y-95885000D01*
X125203423Y-96120423D01*
X124886260Y-96595091D01*
X124774887Y-97155000D01*
X124886260Y-97714909D01*
X125203423Y-98189577D01*
X125555758Y-98425000D01*
X125203423Y-98660423D01*
X124886260Y-99135091D01*
X124774887Y-99695000D01*
X124886260Y-100254909D01*
X124980801Y-100396400D01*
X119863961Y-100396400D01*
X120009904Y-100044039D01*
X119887915Y-99822000D01*
X118745000Y-99822000D01*
X118745000Y-99842000D01*
X118491000Y-99842000D01*
X118491000Y-99822000D01*
X117348085Y-99822000D01*
X117226096Y-100044039D01*
X117372039Y-100396400D01*
X112741110Y-100396400D01*
X112195482Y-99850773D01*
X112349740Y-99619909D01*
X112461113Y-99060000D01*
X112349740Y-98500091D01*
X112032577Y-98025423D01*
X111680242Y-97790000D01*
X112032577Y-97554577D01*
X112240743Y-97243035D01*
X112241752Y-97242834D01*
X112387407Y-97213861D01*
X112387544Y-97213769D01*
X112387701Y-97213738D01*
X112508684Y-97132826D01*
X112631058Y-97051058D01*
X112672239Y-96989427D01*
X113109293Y-96552000D01*
X117295052Y-96552000D01*
X117266260Y-96595091D01*
X117154887Y-97155000D01*
X117266260Y-97714909D01*
X117583423Y-98189577D01*
X117967108Y-98445947D01*
X117762866Y-98542611D01*
X117386959Y-98957577D01*
X117226096Y-99345961D01*
X117348085Y-99568000D01*
X118491000Y-99568000D01*
X118491000Y-99548000D01*
X118745000Y-99548000D01*
X118745000Y-99568000D01*
X119887915Y-99568000D01*
X120009904Y-99345961D01*
X119849041Y-98957577D01*
X119473134Y-98542611D01*
X119268892Y-98445947D01*
X119652577Y-98189577D01*
X119969740Y-97714909D01*
X120081113Y-97155000D01*
X119969740Y-96595091D01*
X119940948Y-96552000D01*
X120159956Y-96552000D01*
X120338512Y-96730556D01*
X120735274Y-96894900D01*
X121164726Y-96894900D01*
X121561488Y-96730556D01*
X121865156Y-96426888D01*
X122029500Y-96030126D01*
X122029500Y-95600674D01*
X121926330Y-95351600D01*
X122065462Y-95351600D01*
X122138004Y-95366029D01*
X122210542Y-95351600D01*
X122210544Y-95351600D01*
X122425407Y-95308861D01*
X122669058Y-95146058D01*
X122710154Y-95084554D01*
X124995814Y-92798868D01*
X125203423Y-93109577D01*
G36*
X175117555Y-78640000D02*
X175115998Y-78640000D01*
X175115998Y-78798748D01*
X174957250Y-78640000D01*
X174366691Y-78640000D01*
X174133302Y-78736673D01*
X173954673Y-78915301D01*
X173858000Y-79148690D01*
X173858000Y-79739250D01*
X174016750Y-79898000D01*
X175116000Y-79898000D01*
X175116000Y-79878000D01*
X175370000Y-79878000D01*
X175370000Y-79898000D01*
X175390000Y-79898000D01*
X175390000Y-80152000D01*
X175370000Y-80152000D01*
X175370000Y-80172000D01*
X175116000Y-80172000D01*
X175116000Y-80152000D01*
X174016750Y-80152000D01*
X173858000Y-80310750D01*
X173858000Y-80901310D01*
X173954673Y-81134699D01*
X174133302Y-81313327D01*
X174366691Y-81410000D01*
X174439313Y-81410000D01*
X174068853Y-81780460D01*
X173858000Y-82289506D01*
X173858000Y-82678290D01*
X170719709Y-79540000D01*
X170973439Y-79540000D01*
X171500862Y-79321534D01*
X171904534Y-78917862D01*
X172123000Y-78390439D01*
X172123000Y-77819561D01*
X171904534Y-77292138D01*
X171500862Y-76888466D01*
X170973439Y-76670000D01*
X170402561Y-76670000D01*
X169875138Y-76888466D01*
X169471466Y-77292138D01*
X169253000Y-77819561D01*
X169253000Y-78073291D01*
X168815151Y-77635442D01*
X168774058Y-77573942D01*
X168530407Y-77411139D01*
X168315544Y-77368400D01*
X168315540Y-77368400D01*
X168243000Y-77353971D01*
X168170460Y-77368400D01*
X166856123Y-77368400D01*
X166824534Y-77292138D01*
X166420862Y-76888466D01*
X165893439Y-76670000D01*
X165322561Y-76670000D01*
X164795138Y-76888466D01*
X164391466Y-77292138D01*
X164173000Y-77819561D01*
X164173000Y-78390439D01*
X164391466Y-78917862D01*
X164795138Y-79321534D01*
X165322561Y-79540000D01*
X165893439Y-79540000D01*
X166420862Y-79321534D01*
X166824534Y-78917862D01*
X166856123Y-78841600D01*
X167937891Y-78841600D01*
X173877857Y-84781567D01*
X173858000Y-84829506D01*
X173858000Y-85380494D01*
X174068853Y-85889540D01*
X174458460Y-86279147D01*
X174967506Y-86490000D01*
X175518494Y-86490000D01*
X176027540Y-86279147D01*
X176417147Y-85889540D01*
X176628000Y-85380494D01*
X176628000Y-84829506D01*
X176417147Y-84320460D01*
X176027540Y-83930853D01*
X175796130Y-83835000D01*
X176027540Y-83739147D01*
X176417147Y-83349540D01*
X176628000Y-82840494D01*
X176628000Y-82289506D01*
X176417147Y-81780460D01*
X176046687Y-81410000D01*
X176119309Y-81410000D01*
X176352698Y-81313327D01*
X176531327Y-81134699D01*
X176628000Y-80901310D01*
X176628000Y-80310750D01*
X176469252Y-80152002D01*
X176628000Y-80152002D01*
X176628000Y-80033890D01*
X177597193Y-80928296D01*
X177617808Y-89306400D01*
X177323750Y-89306400D01*
X177165000Y-89465150D01*
X177165000Y-90678000D01*
X177185000Y-90678000D01*
X177185000Y-90932000D01*
X177165000Y-90932000D01*
X177165000Y-90952000D01*
X176911000Y-90952000D01*
X176911000Y-90932000D01*
X175545750Y-90932000D01*
X175387000Y-91090750D01*
X175387000Y-91794910D01*
X175483673Y-92028299D01*
X175662302Y-92206927D01*
X175804367Y-92265772D01*
X175473950Y-92760275D01*
X175357641Y-93345000D01*
X175473950Y-93929725D01*
X175805170Y-94425430D01*
X176088881Y-94615000D01*
X175805170Y-94804570D01*
X175473950Y-95300275D01*
X175357641Y-95885000D01*
X175473950Y-96469725D01*
X175509480Y-96522900D01*
X172622628Y-96522900D01*
X172674740Y-96444909D01*
X172786113Y-95885000D01*
X172674740Y-95325091D01*
X172357577Y-94850423D01*
X172005242Y-94615000D01*
X172357577Y-94379577D01*
X172674740Y-93904909D01*
X172786113Y-93345000D01*
X172674740Y-92785091D01*
X172357577Y-92310423D01*
X172005242Y-92075000D01*
X172357577Y-91839577D01*
X172674740Y-91364909D01*
X172786113Y-90805000D01*
X172674740Y-90245091D01*
X172387423Y-89815090D01*
X175387000Y-89815090D01*
X175387000Y-90519250D01*
X175545750Y-90678000D01*
X176911000Y-90678000D01*
X176911000Y-89465150D01*
X176752250Y-89306400D01*
X175895691Y-89306400D01*
X175662302Y-89403073D01*
X175483673Y-89581701D01*
X175387000Y-89815090D01*
X172387423Y-89815090D01*
X172357577Y-89770423D01*
X171882909Y-89453260D01*
X171717376Y-89420333D01*
X172264710Y-88873000D01*
X173814156Y-88873000D01*
X173992712Y-89051556D01*
X174389474Y-89215900D01*
X174818926Y-89215900D01*
X175215688Y-89051556D01*
X175519356Y-88747888D01*
X175683700Y-88351126D01*
X175683700Y-87921674D01*
X175519356Y-87524912D01*
X175215688Y-87221244D01*
X174818926Y-87056900D01*
X174389474Y-87056900D01*
X173992712Y-87221244D01*
X173814156Y-87399800D01*
X172032140Y-87399800D01*
X171959600Y-87385371D01*
X171887059Y-87399800D01*
X171887056Y-87399800D01*
X171672193Y-87442539D01*
X171490041Y-87564249D01*
X171490039Y-87564251D01*
X171428542Y-87605342D01*
X171387451Y-87666839D01*
X170703478Y-88350812D01*
X170726000Y-88296439D01*
X170726000Y-87725561D01*
X170507534Y-87198138D01*
X170103862Y-86794466D01*
X169576439Y-86576000D01*
X169005561Y-86576000D01*
X168478138Y-86794466D01*
X168074466Y-87198138D01*
X168047475Y-87263299D01*
X168044864Y-87256995D01*
X167798745Y-87182861D01*
X166970605Y-88011000D01*
X166984748Y-88025143D01*
X166805143Y-88204748D01*
X166791000Y-88190605D01*
X166776858Y-88204748D01*
X166597253Y-88025143D01*
X166611395Y-88011000D01*
X165783255Y-87182861D01*
X165537136Y-87256995D01*
X165344035Y-87794223D01*
X165371222Y-88364454D01*
X165377496Y-88379600D01*
X130391589Y-88379600D01*
X130299069Y-88361190D01*
X130206479Y-88379600D01*
X130206441Y-88379600D01*
X130107259Y-88399329D01*
X129932372Y-88434102D01*
X129932343Y-88434121D01*
X129932309Y-88434128D01*
X129779448Y-88536267D01*
X129699963Y-88589369D01*
X129699938Y-88589394D01*
X129621443Y-88641843D01*
X129569032Y-88720281D01*
X127258177Y-91030801D01*
X126961855Y-90832805D01*
X130791362Y-87003255D01*
X165962861Y-87003255D01*
X166791000Y-87831395D01*
X167619139Y-87003255D01*
X167545005Y-86757136D01*
X167007777Y-86564035D01*
X166437546Y-86591222D01*
X166036995Y-86757136D01*
X165962861Y-87003255D01*
X130791362Y-87003255D01*
X131276112Y-86518500D01*
X139737956Y-86518500D01*
X139916512Y-86697056D01*
X140313274Y-86861400D01*
X140742726Y-86861400D01*
X141139488Y-86697056D01*
X141443156Y-86393388D01*
X141607500Y-85996626D01*
X141607500Y-85567174D01*
X141443156Y-85170412D01*
X141139488Y-84866744D01*
X140742726Y-84702400D01*
X140313274Y-84702400D01*
X139916512Y-84866744D01*
X139737956Y-85045300D01*
X137811437Y-85045300D01*
X138358843Y-84498194D01*
X138734276Y-84749050D01*
X139319000Y-84865359D01*
X139903725Y-84749050D01*
X140399430Y-84417830D01*
X140589000Y-84134119D01*
X140778570Y-84417830D01*
X141274276Y-84749050D01*
X141859000Y-84865359D01*
X142443725Y-84749050D01*
X142939430Y-84417830D01*
X143129000Y-84134119D01*
X143318570Y-84417830D01*
X143814276Y-84749050D01*
X144399000Y-84865359D01*
X144983725Y-84749050D01*
X145479430Y-84417830D01*
X145669000Y-84134119D01*
X145858570Y-84417830D01*
X146354276Y-84749050D01*
X146939000Y-84865359D01*
X147523725Y-84749050D01*
X148019430Y-84417830D01*
X148350650Y-83922124D01*
X148359041Y-83879940D01*
X148369139Y-83930707D01*
X148369156Y-83930733D01*
X148369162Y-83930761D01*
X148448176Y-84048994D01*
X148531942Y-84174358D01*
X148593467Y-84215467D01*
X149754865Y-85376682D01*
X149795942Y-85438158D01*
X149857467Y-85479268D01*
X149857487Y-85479288D01*
X149917720Y-85519528D01*
X150039593Y-85600961D01*
X150039622Y-85600967D01*
X150039648Y-85600984D01*
X150179832Y-85628856D01*
X150254456Y-85643700D01*
X150254488Y-85643700D01*
X150327059Y-85658129D01*
X150399569Y-85643700D01*
X161179315Y-85643700D01*
X161251708Y-85658129D01*
X161324395Y-85643700D01*
X161324544Y-85643700D01*
X161397796Y-85629129D01*
X161539136Y-85601072D01*
X161539258Y-85600991D01*
X161539407Y-85600961D01*
X161663177Y-85518260D01*
X161721335Y-85479433D01*
X161721434Y-85479334D01*
X161783058Y-85438158D01*
X161824073Y-85376775D01*
X162719169Y-84482376D01*
X163118276Y-84749050D01*
X163703000Y-84865359D01*
X164287725Y-84749050D01*
X164783430Y-84417830D01*
X164973000Y-84134119D01*
X165162570Y-84417830D01*
X165658276Y-84749050D01*
X166243000Y-84865359D01*
X166827725Y-84749050D01*
X167323430Y-84417830D01*
X167513000Y-84134119D01*
X167702570Y-84417830D01*
X168198276Y-84749050D01*
X168783000Y-84865359D01*
X169367725Y-84749050D01*
X169863430Y-84417830D01*
X170194650Y-83922124D01*
X170281600Y-83484997D01*
X170281600Y-82885002D01*
X170194650Y-82447875D01*
X169863430Y-81952170D01*
X169367724Y-81620950D01*
X168783000Y-81504641D01*
X168198275Y-81620950D01*
X167702570Y-81952170D01*
X167513000Y-82235881D01*
X167323430Y-81952170D01*
X166827724Y-81620950D01*
X166243000Y-81504641D01*
X165658275Y-81620950D01*
X165162570Y-81952170D01*
X164973000Y-82235881D01*
X164783430Y-81952170D01*
X164287724Y-81620950D01*
X163703000Y-81504641D01*
X163118275Y-81620950D01*
X162622570Y-81952170D01*
X162433000Y-82235881D01*
X162243430Y-81952170D01*
X161747724Y-81620950D01*
X161163000Y-81504641D01*
X160578275Y-81620950D01*
X160179292Y-81887542D01*
X155725990Y-77435028D01*
X156147430Y-77153430D01*
X156478650Y-76657725D01*
X156594959Y-76073000D01*
X156485475Y-75522587D01*
X171695883Y-75482361D01*
X175117555Y-78640000D01*
X175117555Y-78640000D01*
G37*
X175117555Y-78640000D02*
X175115998Y-78640000D01*
X175115998Y-78798748D01*
X174957250Y-78640000D01*
X174366691Y-78640000D01*
X174133302Y-78736673D01*
X173954673Y-78915301D01*
X173858000Y-79148690D01*
X173858000Y-79739250D01*
X174016750Y-79898000D01*
X175116000Y-79898000D01*
X175116000Y-79878000D01*
X175370000Y-79878000D01*
X175370000Y-79898000D01*
X175390000Y-79898000D01*
X175390000Y-80152000D01*
X175370000Y-80152000D01*
X175370000Y-80172000D01*
X175116000Y-80172000D01*
X175116000Y-80152000D01*
X174016750Y-80152000D01*
X173858000Y-80310750D01*
X173858000Y-80901310D01*
X173954673Y-81134699D01*
X174133302Y-81313327D01*
X174366691Y-81410000D01*
X174439313Y-81410000D01*
X174068853Y-81780460D01*
X173858000Y-82289506D01*
X173858000Y-82678290D01*
X170719709Y-79540000D01*
X170973439Y-79540000D01*
X171500862Y-79321534D01*
X171904534Y-78917862D01*
X172123000Y-78390439D01*
X172123000Y-77819561D01*
X171904534Y-77292138D01*
X171500862Y-76888466D01*
X170973439Y-76670000D01*
X170402561Y-76670000D01*
X169875138Y-76888466D01*
X169471466Y-77292138D01*
X169253000Y-77819561D01*
X169253000Y-78073291D01*
X168815151Y-77635442D01*
X168774058Y-77573942D01*
X168530407Y-77411139D01*
X168315544Y-77368400D01*
X168315540Y-77368400D01*
X168243000Y-77353971D01*
X168170460Y-77368400D01*
X166856123Y-77368400D01*
X166824534Y-77292138D01*
X166420862Y-76888466D01*
X165893439Y-76670000D01*
X165322561Y-76670000D01*
X164795138Y-76888466D01*
X164391466Y-77292138D01*
X164173000Y-77819561D01*
X164173000Y-78390439D01*
X164391466Y-78917862D01*
X164795138Y-79321534D01*
X165322561Y-79540000D01*
X165893439Y-79540000D01*
X166420862Y-79321534D01*
X166824534Y-78917862D01*
X166856123Y-78841600D01*
X167937891Y-78841600D01*
X173877857Y-84781567D01*
X173858000Y-84829506D01*
X173858000Y-85380494D01*
X174068853Y-85889540D01*
X174458460Y-86279147D01*
X174967506Y-86490000D01*
X175518494Y-86490000D01*
X176027540Y-86279147D01*
X176417147Y-85889540D01*
X176628000Y-85380494D01*
X176628000Y-84829506D01*
X176417147Y-84320460D01*
X176027540Y-83930853D01*
X175796130Y-83835000D01*
X176027540Y-83739147D01*
X176417147Y-83349540D01*
X176628000Y-82840494D01*
X176628000Y-82289506D01*
X176417147Y-81780460D01*
X176046687Y-81410000D01*
X176119309Y-81410000D01*
X176352698Y-81313327D01*
X176531327Y-81134699D01*
X176628000Y-80901310D01*
X176628000Y-80310750D01*
X176469252Y-80152002D01*
X176628000Y-80152002D01*
X176628000Y-80033890D01*
X177597193Y-80928296D01*
X177617808Y-89306400D01*
X177323750Y-89306400D01*
X177165000Y-89465150D01*
X177165000Y-90678000D01*
X177185000Y-90678000D01*
X177185000Y-90932000D01*
X177165000Y-90932000D01*
X177165000Y-90952000D01*
X176911000Y-90952000D01*
X176911000Y-90932000D01*
X175545750Y-90932000D01*
X175387000Y-91090750D01*
X175387000Y-91794910D01*
X175483673Y-92028299D01*
X175662302Y-92206927D01*
X175804367Y-92265772D01*
X175473950Y-92760275D01*
X175357641Y-93345000D01*
X175473950Y-93929725D01*
X175805170Y-94425430D01*
X176088881Y-94615000D01*
X175805170Y-94804570D01*
X175473950Y-95300275D01*
X175357641Y-95885000D01*
X175473950Y-96469725D01*
X175509480Y-96522900D01*
X172622628Y-96522900D01*
X172674740Y-96444909D01*
X172786113Y-95885000D01*
X172674740Y-95325091D01*
X172357577Y-94850423D01*
X172005242Y-94615000D01*
X172357577Y-94379577D01*
X172674740Y-93904909D01*
X172786113Y-93345000D01*
X172674740Y-92785091D01*
X172357577Y-92310423D01*
X172005242Y-92075000D01*
X172357577Y-91839577D01*
X172674740Y-91364909D01*
X172786113Y-90805000D01*
X172674740Y-90245091D01*
X172387423Y-89815090D01*
X175387000Y-89815090D01*
X175387000Y-90519250D01*
X175545750Y-90678000D01*
X176911000Y-90678000D01*
X176911000Y-89465150D01*
X176752250Y-89306400D01*
X175895691Y-89306400D01*
X175662302Y-89403073D01*
X175483673Y-89581701D01*
X175387000Y-89815090D01*
X172387423Y-89815090D01*
X172357577Y-89770423D01*
X171882909Y-89453260D01*
X171717376Y-89420333D01*
X172264710Y-88873000D01*
X173814156Y-88873000D01*
X173992712Y-89051556D01*
X174389474Y-89215900D01*
X174818926Y-89215900D01*
X175215688Y-89051556D01*
X175519356Y-88747888D01*
X175683700Y-88351126D01*
X175683700Y-87921674D01*
X175519356Y-87524912D01*
X175215688Y-87221244D01*
X174818926Y-87056900D01*
X174389474Y-87056900D01*
X173992712Y-87221244D01*
X173814156Y-87399800D01*
X172032140Y-87399800D01*
X171959600Y-87385371D01*
X171887059Y-87399800D01*
X171887056Y-87399800D01*
X171672193Y-87442539D01*
X171490041Y-87564249D01*
X171490039Y-87564251D01*
X171428542Y-87605342D01*
X171387451Y-87666839D01*
X170703478Y-88350812D01*
X170726000Y-88296439D01*
X170726000Y-87725561D01*
X170507534Y-87198138D01*
X170103862Y-86794466D01*
X169576439Y-86576000D01*
X169005561Y-86576000D01*
X168478138Y-86794466D01*
X168074466Y-87198138D01*
X168047475Y-87263299D01*
X168044864Y-87256995D01*
X167798745Y-87182861D01*
X166970605Y-88011000D01*
X166984748Y-88025143D01*
X166805143Y-88204748D01*
X166791000Y-88190605D01*
X166776858Y-88204748D01*
X166597253Y-88025143D01*
X166611395Y-88011000D01*
X165783255Y-87182861D01*
X165537136Y-87256995D01*
X165344035Y-87794223D01*
X165371222Y-88364454D01*
X165377496Y-88379600D01*
X130391589Y-88379600D01*
X130299069Y-88361190D01*
X130206479Y-88379600D01*
X130206441Y-88379600D01*
X130107259Y-88399329D01*
X129932372Y-88434102D01*
X129932343Y-88434121D01*
X129932309Y-88434128D01*
X129779448Y-88536267D01*
X129699963Y-88589369D01*
X129699938Y-88589394D01*
X129621443Y-88641843D01*
X129569032Y-88720281D01*
X127258177Y-91030801D01*
X126961855Y-90832805D01*
X130791362Y-87003255D01*
X165962861Y-87003255D01*
X166791000Y-87831395D01*
X167619139Y-87003255D01*
X167545005Y-86757136D01*
X167007777Y-86564035D01*
X166437546Y-86591222D01*
X166036995Y-86757136D01*
X165962861Y-87003255D01*
X130791362Y-87003255D01*
X131276112Y-86518500D01*
X139737956Y-86518500D01*
X139916512Y-86697056D01*
X140313274Y-86861400D01*
X140742726Y-86861400D01*
X141139488Y-86697056D01*
X141443156Y-86393388D01*
X141607500Y-85996626D01*
X141607500Y-85567174D01*
X141443156Y-85170412D01*
X141139488Y-84866744D01*
X140742726Y-84702400D01*
X140313274Y-84702400D01*
X139916512Y-84866744D01*
X139737956Y-85045300D01*
X137811437Y-85045300D01*
X138358843Y-84498194D01*
X138734276Y-84749050D01*
X139319000Y-84865359D01*
X139903725Y-84749050D01*
X140399430Y-84417830D01*
X140589000Y-84134119D01*
X140778570Y-84417830D01*
X141274276Y-84749050D01*
X141859000Y-84865359D01*
X142443725Y-84749050D01*
X142939430Y-84417830D01*
X143129000Y-84134119D01*
X143318570Y-84417830D01*
X143814276Y-84749050D01*
X144399000Y-84865359D01*
X144983725Y-84749050D01*
X145479430Y-84417830D01*
X145669000Y-84134119D01*
X145858570Y-84417830D01*
X146354276Y-84749050D01*
X146939000Y-84865359D01*
X147523725Y-84749050D01*
X148019430Y-84417830D01*
X148350650Y-83922124D01*
X148359041Y-83879940D01*
X148369139Y-83930707D01*
X148369156Y-83930733D01*
X148369162Y-83930761D01*
X148448176Y-84048994D01*
X148531942Y-84174358D01*
X148593467Y-84215467D01*
X149754865Y-85376682D01*
X149795942Y-85438158D01*
X149857467Y-85479268D01*
X149857487Y-85479288D01*
X149917720Y-85519528D01*
X150039593Y-85600961D01*
X150039622Y-85600967D01*
X150039648Y-85600984D01*
X150179832Y-85628856D01*
X150254456Y-85643700D01*
X150254488Y-85643700D01*
X150327059Y-85658129D01*
X150399569Y-85643700D01*
X161179315Y-85643700D01*
X161251708Y-85658129D01*
X161324395Y-85643700D01*
X161324544Y-85643700D01*
X161397796Y-85629129D01*
X161539136Y-85601072D01*
X161539258Y-85600991D01*
X161539407Y-85600961D01*
X161663177Y-85518260D01*
X161721335Y-85479433D01*
X161721434Y-85479334D01*
X161783058Y-85438158D01*
X161824073Y-85376775D01*
X162719169Y-84482376D01*
X163118276Y-84749050D01*
X163703000Y-84865359D01*
X164287725Y-84749050D01*
X164783430Y-84417830D01*
X164973000Y-84134119D01*
X165162570Y-84417830D01*
X165658276Y-84749050D01*
X166243000Y-84865359D01*
X166827725Y-84749050D01*
X167323430Y-84417830D01*
X167513000Y-84134119D01*
X167702570Y-84417830D01*
X168198276Y-84749050D01*
X168783000Y-84865359D01*
X169367725Y-84749050D01*
X169863430Y-84417830D01*
X170194650Y-83922124D01*
X170281600Y-83484997D01*
X170281600Y-82885002D01*
X170194650Y-82447875D01*
X169863430Y-81952170D01*
X169367724Y-81620950D01*
X168783000Y-81504641D01*
X168198275Y-81620950D01*
X167702570Y-81952170D01*
X167513000Y-82235881D01*
X167323430Y-81952170D01*
X166827724Y-81620950D01*
X166243000Y-81504641D01*
X165658275Y-81620950D01*
X165162570Y-81952170D01*
X164973000Y-82235881D01*
X164783430Y-81952170D01*
X164287724Y-81620950D01*
X163703000Y-81504641D01*
X163118275Y-81620950D01*
X162622570Y-81952170D01*
X162433000Y-82235881D01*
X162243430Y-81952170D01*
X161747724Y-81620950D01*
X161163000Y-81504641D01*
X160578275Y-81620950D01*
X160179292Y-81887542D01*
X155725990Y-77435028D01*
X156147430Y-77153430D01*
X156478650Y-76657725D01*
X156594959Y-76073000D01*
X156485475Y-75522587D01*
X171695883Y-75482361D01*
X175117555Y-78640000D01*
G36*
X93865191Y-72314309D02*
X94075235Y-72454657D01*
X94166109Y-72472733D01*
X94183200Y-72558654D01*
X94183200Y-72558658D01*
X94237728Y-72832790D01*
X94237729Y-72832791D01*
X94237729Y-72832792D01*
X94350752Y-73001942D01*
X94445443Y-73143657D01*
X94523911Y-73196088D01*
X98063414Y-76735592D01*
X98115843Y-76814057D01*
X98194308Y-76866486D01*
X98194309Y-76866487D01*
X98426707Y-77021771D01*
X98426708Y-77021771D01*
X98426709Y-77021772D01*
X98700841Y-77076300D01*
X98700849Y-77076300D01*
X98793399Y-77094709D01*
X98885949Y-77076300D01*
X100331059Y-77076300D01*
X100335688Y-77077173D01*
X100423512Y-77076300D01*
X100511459Y-77076300D01*
X100516085Y-77075380D01*
X105314078Y-77027686D01*
X105345243Y-77184365D01*
X105485591Y-77394409D01*
X105695635Y-77534757D01*
X105943400Y-77584040D01*
X107670600Y-77584040D01*
X107918365Y-77534757D01*
X108128409Y-77394409D01*
X108268757Y-77184365D01*
X108273932Y-77158349D01*
X108762275Y-77484650D01*
X109199402Y-77571600D01*
X109494598Y-77571600D01*
X109513047Y-77567930D01*
X110754046Y-78808639D01*
X110806443Y-78887057D01*
X110884953Y-78939516D01*
X110884995Y-78939558D01*
X110965968Y-78993648D01*
X111117309Y-79094772D01*
X111117365Y-79094783D01*
X111117411Y-79094814D01*
X111294190Y-79129956D01*
X111391441Y-79149300D01*
X111391501Y-79149300D01*
X111484112Y-79167710D01*
X111576609Y-79149300D01*
X112618711Y-79149300D01*
X121579472Y-88110458D01*
X121479546Y-88115222D01*
X121078995Y-88281136D01*
X121004861Y-88527255D01*
X121833000Y-89355395D01*
X121847143Y-89341253D01*
X122026748Y-89520858D01*
X122012605Y-89535000D01*
X122026748Y-89549142D01*
X121847142Y-89728748D01*
X121833000Y-89714605D01*
X121818858Y-89728748D01*
X121639252Y-89549142D01*
X121653395Y-89535000D01*
X120825255Y-88706861D01*
X120579136Y-88780995D01*
X120386035Y-89318223D01*
X120413222Y-89888454D01*
X120540736Y-90196300D01*
X113156529Y-90196300D01*
X113083978Y-90181871D01*
X112951350Y-90208256D01*
X112796593Y-90239039D01*
X112796584Y-90239045D01*
X112796573Y-90239047D01*
X112682143Y-90315512D01*
X112552942Y-90401842D01*
X112511843Y-90463351D01*
X112247753Y-90727456D01*
X112032577Y-90405423D01*
X111680242Y-90170000D01*
X112032577Y-89934577D01*
X112349740Y-89459909D01*
X112461113Y-88900000D01*
X112349740Y-88340091D01*
X112032577Y-87865423D01*
X111680242Y-87630000D01*
X112032577Y-87394577D01*
X112349740Y-86919909D01*
X112461113Y-86360000D01*
X112349740Y-85800091D01*
X112032577Y-85325423D01*
X111680242Y-85090000D01*
X112032577Y-84854577D01*
X112349740Y-84379909D01*
X112461113Y-83820000D01*
X112349740Y-83260091D01*
X112032577Y-82785423D01*
X111557909Y-82468260D01*
X111139333Y-82385000D01*
X110856667Y-82385000D01*
X110438091Y-82468260D01*
X109963423Y-82785423D01*
X109939282Y-82821552D01*
X108132156Y-81014350D01*
X108091058Y-80952842D01*
X107958624Y-80864352D01*
X107847421Y-80790045D01*
X107847414Y-80790044D01*
X107847407Y-80790039D01*
X107678424Y-80756426D01*
X107560016Y-80732871D01*
X107487468Y-80747300D01*
X90722704Y-80747300D01*
X90743339Y-80716418D01*
X90858592Y-80137000D01*
X90743339Y-79557582D01*
X90415125Y-79066375D01*
X90116739Y-78867000D01*
X90415125Y-78667625D01*
X90743339Y-78176418D01*
X90858592Y-77597000D01*
X90743339Y-77017582D01*
X90415125Y-76526375D01*
X90284300Y-76438961D01*
X90284300Y-75725677D01*
X93797290Y-72212688D01*
X93865191Y-72314309D01*
X93865191Y-72314309D01*
G37*
X93865191Y-72314309D02*
X94075235Y-72454657D01*
X94166109Y-72472733D01*
X94183200Y-72558654D01*
X94183200Y-72558658D01*
X94237728Y-72832790D01*
X94237729Y-72832791D01*
X94237729Y-72832792D01*
X94350752Y-73001942D01*
X94445443Y-73143657D01*
X94523911Y-73196088D01*
X98063414Y-76735592D01*
X98115843Y-76814057D01*
X98194308Y-76866486D01*
X98194309Y-76866487D01*
X98426707Y-77021771D01*
X98426708Y-77021771D01*
X98426709Y-77021772D01*
X98700841Y-77076300D01*
X98700849Y-77076300D01*
X98793399Y-77094709D01*
X98885949Y-77076300D01*
X100331059Y-77076300D01*
X100335688Y-77077173D01*
X100423512Y-77076300D01*
X100511459Y-77076300D01*
X100516085Y-77075380D01*
X105314078Y-77027686D01*
X105345243Y-77184365D01*
X105485591Y-77394409D01*
X105695635Y-77534757D01*
X105943400Y-77584040D01*
X107670600Y-77584040D01*
X107918365Y-77534757D01*
X108128409Y-77394409D01*
X108268757Y-77184365D01*
X108273932Y-77158349D01*
X108762275Y-77484650D01*
X109199402Y-77571600D01*
X109494598Y-77571600D01*
X109513047Y-77567930D01*
X110754046Y-78808639D01*
X110806443Y-78887057D01*
X110884953Y-78939516D01*
X110884995Y-78939558D01*
X110965968Y-78993648D01*
X111117309Y-79094772D01*
X111117365Y-79094783D01*
X111117411Y-79094814D01*
X111294190Y-79129956D01*
X111391441Y-79149300D01*
X111391501Y-79149300D01*
X111484112Y-79167710D01*
X111576609Y-79149300D01*
X112618711Y-79149300D01*
X121579472Y-88110458D01*
X121479546Y-88115222D01*
X121078995Y-88281136D01*
X121004861Y-88527255D01*
X121833000Y-89355395D01*
X121847143Y-89341253D01*
X122026748Y-89520858D01*
X122012605Y-89535000D01*
X122026748Y-89549142D01*
X121847142Y-89728748D01*
X121833000Y-89714605D01*
X121818858Y-89728748D01*
X121639252Y-89549142D01*
X121653395Y-89535000D01*
X120825255Y-88706861D01*
X120579136Y-88780995D01*
X120386035Y-89318223D01*
X120413222Y-89888454D01*
X120540736Y-90196300D01*
X113156529Y-90196300D01*
X113083978Y-90181871D01*
X112951350Y-90208256D01*
X112796593Y-90239039D01*
X112796584Y-90239045D01*
X112796573Y-90239047D01*
X112682143Y-90315512D01*
X112552942Y-90401842D01*
X112511843Y-90463351D01*
X112247753Y-90727456D01*
X112032577Y-90405423D01*
X111680242Y-90170000D01*
X112032577Y-89934577D01*
X112349740Y-89459909D01*
X112461113Y-88900000D01*
X112349740Y-88340091D01*
X112032577Y-87865423D01*
X111680242Y-87630000D01*
X112032577Y-87394577D01*
X112349740Y-86919909D01*
X112461113Y-86360000D01*
X112349740Y-85800091D01*
X112032577Y-85325423D01*
X111680242Y-85090000D01*
X112032577Y-84854577D01*
X112349740Y-84379909D01*
X112461113Y-83820000D01*
X112349740Y-83260091D01*
X112032577Y-82785423D01*
X111557909Y-82468260D01*
X111139333Y-82385000D01*
X110856667Y-82385000D01*
X110438091Y-82468260D01*
X109963423Y-82785423D01*
X109939282Y-82821552D01*
X108132156Y-81014350D01*
X108091058Y-80952842D01*
X107958624Y-80864352D01*
X107847421Y-80790045D01*
X107847414Y-80790044D01*
X107847407Y-80790039D01*
X107678424Y-80756426D01*
X107560016Y-80732871D01*
X107487468Y-80747300D01*
X90722704Y-80747300D01*
X90743339Y-80716418D01*
X90858592Y-80137000D01*
X90743339Y-79557582D01*
X90415125Y-79066375D01*
X90116739Y-78867000D01*
X90415125Y-78667625D01*
X90743339Y-78176418D01*
X90858592Y-77597000D01*
X90743339Y-77017582D01*
X90415125Y-76526375D01*
X90284300Y-76438961D01*
X90284300Y-75725677D01*
X93797290Y-72212688D01*
X93865191Y-72314309D01*
G36*
X131826000Y-83058000D02*
X131846000Y-83058000D01*
X131846000Y-83312000D01*
X131826000Y-83312000D01*
X131826000Y-83332000D01*
X131572000Y-83332000D01*
X131572000Y-83312000D01*
X131552000Y-83312000D01*
X131552000Y-83058000D01*
X131572000Y-83058000D01*
X131572000Y-83038000D01*
X131826000Y-83038000D01*
X131826000Y-83058000D01*
X131826000Y-83058000D01*
G37*
X131826000Y-83058000D02*
X131846000Y-83058000D01*
X131846000Y-83312000D01*
X131826000Y-83312000D01*
X131826000Y-83332000D01*
X131572000Y-83332000D01*
X131572000Y-83312000D01*
X131552000Y-83312000D01*
X131552000Y-83058000D01*
X131572000Y-83058000D01*
X131572000Y-83038000D01*
X131826000Y-83038000D01*
X131826000Y-83058000D01*
G04 #@! TD*
M02*
