G04 #@! TF.GenerationSoftware,KiCad,Pcbnew,(5.0.0-3-g5ebb6b6)*
G04 #@! TF.CreationDate,2019-03-17T21:35:56+09:00*
G04 #@! TF.ProjectId,Z80-8251-PPI,5A38302D383235312D5050492E6B6963,rev?*
G04 #@! TF.SameCoordinates,Original*
G04 #@! TF.FileFunction,Copper,L1,Top,Signal*
G04 #@! TF.FilePolarity,Positive*
%FSLAX46Y46*%
G04 Gerber Fmt 4.6, Leading zero omitted, Abs format (unit mm)*
G04 Created by KiCad (PCBNEW (5.0.0-3-g5ebb6b6)) date *
%MOMM*%
%LPD*%
G01*
G04 APERTURE LIST*
G04 #@! TA.AperFunction,ComponentPad*
%ADD10R,1.700000X1.700000*%
G04 #@! TD*
G04 #@! TA.AperFunction,ComponentPad*
%ADD11O,1.700000X1.700000*%
G04 #@! TD*
G04 #@! TA.AperFunction,ComponentPad*
%ADD12C,1.500000*%
G04 #@! TD*
G04 #@! TA.AperFunction,ComponentPad*
%ADD13R,1.500000X1.500000*%
G04 #@! TD*
G04 #@! TA.AperFunction,ComponentPad*
%ADD14R,1.600000X1.600000*%
G04 #@! TD*
G04 #@! TA.AperFunction,ComponentPad*
%ADD15O,1.600000X1.600000*%
G04 #@! TD*
G04 #@! TA.AperFunction,ComponentPad*
%ADD16C,1.600000*%
G04 #@! TD*
G04 #@! TA.AperFunction,ComponentPad*
%ADD17R,1.727200X1.727200*%
G04 #@! TD*
G04 #@! TA.AperFunction,ComponentPad*
%ADD18O,1.727200X1.727200*%
G04 #@! TD*
G04 #@! TA.AperFunction,ComponentPad*
%ADD19C,1.422400*%
G04 #@! TD*
G04 #@! TA.AperFunction,ViaPad*
%ADD20C,0.800000*%
G04 #@! TD*
G04 #@! TA.AperFunction,Conductor*
%ADD21C,0.600000*%
G04 #@! TD*
G04 #@! TA.AperFunction,Conductor*
%ADD22C,0.250000*%
G04 #@! TD*
G04 #@! TA.AperFunction,Conductor*
%ADD23C,0.254000*%
G04 #@! TD*
G04 APERTURE END LIST*
D10*
G04 #@! TO.P,J8,1*
G04 #@! TO.N,Net-(J8-Pad1)*
X176653000Y-92915000D03*
D11*
G04 #@! TO.P,J8,2*
G04 #@! TO.N,GND*
X176653000Y-95455000D03*
G04 #@! TD*
D10*
G04 #@! TO.P,J3,1*
G04 #@! TO.N,/IR6*
X176653000Y-115855000D03*
D11*
G04 #@! TO.P,J3,2*
G04 #@! TO.N,/IR3*
X176653000Y-118395000D03*
G04 #@! TO.P,J3,3*
G04 #@! TO.N,/IR2*
X176653000Y-120935000D03*
G04 #@! TO.P,J3,4*
G04 #@! TO.N,/IR1*
X176653000Y-123475000D03*
G04 #@! TO.P,J3,5*
G04 #@! TO.N,/IR0*
X176653000Y-126015000D03*
G04 #@! TD*
G04 #@! TO.P,J5,14*
G04 #@! TO.N,GND*
X83693000Y-79995000D03*
G04 #@! TO.P,J5,13*
G04 #@! TO.N,VCC*
X86233000Y-79995000D03*
G04 #@! TO.P,J5,12*
G04 #@! TO.N,PC7*
X83693000Y-82535000D03*
G04 #@! TO.P,J5,11*
G04 #@! TO.N,PC6*
X86233000Y-82535000D03*
G04 #@! TO.P,J5,10*
G04 #@! TO.N,PC5*
X83693000Y-85075000D03*
G04 #@! TO.P,J5,9*
G04 #@! TO.N,PC4*
X86233000Y-85075000D03*
G04 #@! TO.P,J5,8*
G04 #@! TO.N,PA7*
X83693000Y-87615000D03*
G04 #@! TO.P,J5,7*
G04 #@! TO.N,PA6*
X86233000Y-87615000D03*
G04 #@! TO.P,J5,6*
G04 #@! TO.N,PA5*
X83693000Y-90155000D03*
G04 #@! TO.P,J5,5*
G04 #@! TO.N,PA4*
X86233000Y-90155000D03*
G04 #@! TO.P,J5,4*
G04 #@! TO.N,PA3*
X83693000Y-92695000D03*
G04 #@! TO.P,J5,3*
G04 #@! TO.N,PA2*
X86233000Y-92695000D03*
G04 #@! TO.P,J5,2*
G04 #@! TO.N,PA1*
X83693000Y-95235000D03*
D10*
G04 #@! TO.P,J5,1*
G04 #@! TO.N,PA0*
X86233000Y-95235000D03*
G04 #@! TD*
G04 #@! TO.P,J6,1*
G04 #@! TO.N,PB0*
X86233000Y-123825000D03*
D11*
G04 #@! TO.P,J6,2*
G04 #@! TO.N,PB1*
X83693000Y-123825000D03*
G04 #@! TO.P,J6,3*
G04 #@! TO.N,PB2*
X86233000Y-121285000D03*
G04 #@! TO.P,J6,4*
G04 #@! TO.N,PB3*
X83693000Y-121285000D03*
G04 #@! TO.P,J6,5*
G04 #@! TO.N,PB4*
X86233000Y-118745000D03*
G04 #@! TO.P,J6,6*
G04 #@! TO.N,PB5*
X83693000Y-118745000D03*
G04 #@! TO.P,J6,7*
G04 #@! TO.N,PB6*
X86233000Y-116205000D03*
G04 #@! TO.P,J6,8*
G04 #@! TO.N,PB7*
X83693000Y-116205000D03*
G04 #@! TO.P,J6,9*
G04 #@! TO.N,PC0*
X86233000Y-113665000D03*
G04 #@! TO.P,J6,10*
G04 #@! TO.N,PC1*
X83693000Y-113665000D03*
G04 #@! TO.P,J6,11*
G04 #@! TO.N,PC2*
X86233000Y-111125000D03*
G04 #@! TO.P,J6,12*
G04 #@! TO.N,PC3*
X83693000Y-111125000D03*
G04 #@! TO.P,J6,13*
G04 #@! TO.N,VCC*
X86233000Y-108585000D03*
G04 #@! TO.P,J6,14*
G04 #@! TO.N,GND*
X83693000Y-108585000D03*
G04 #@! TD*
G04 #@! TO.P,JP1,3*
G04 #@! TO.N,A7*
X116815000Y-114275000D03*
G04 #@! TO.P,JP1,2*
G04 #@! TO.N,Net-(JP1-Pad2)*
X114275000Y-114275000D03*
D10*
G04 #@! TO.P,JP1,1*
G04 #@! TO.N,Net-(JP1-Pad1)*
X111735000Y-114275000D03*
G04 #@! TD*
G04 #@! TO.P,JP2,1*
G04 #@! TO.N,Net-(J4-Pad3)*
X171450000Y-72771000D03*
D11*
G04 #@! TO.P,JP2,2*
G04 #@! TO.N,VCC*
X168910000Y-72771000D03*
G04 #@! TO.P,JP2,3*
G04 #@! TO.N,SBC5V*
X166370000Y-72771000D03*
G04 #@! TD*
D12*
G04 #@! TO.P,Q1,2*
G04 #@! TO.N,Net-(JP1-Pad1)*
X113483000Y-122905000D03*
G04 #@! TO.P,Q1,3*
G04 #@! TO.N,Net-(Q1-Pad3)*
X116023000Y-122905000D03*
D13*
G04 #@! TO.P,Q1,1*
G04 #@! TO.N,GND*
X110943000Y-122905000D03*
G04 #@! TD*
D14*
G04 #@! TO.P,U3,1*
G04 #@! TO.N,PA3*
X91948000Y-80645000D03*
D15*
G04 #@! TO.P,U3,21*
G04 #@! TO.N,PB3*
X107188000Y-128905000D03*
G04 #@! TO.P,U3,2*
G04 #@! TO.N,PA2*
X91948000Y-83185000D03*
G04 #@! TO.P,U3,22*
G04 #@! TO.N,PB4*
X107188000Y-126365000D03*
G04 #@! TO.P,U3,3*
G04 #@! TO.N,PA1*
X91948000Y-85725000D03*
G04 #@! TO.P,U3,23*
G04 #@! TO.N,PB5*
X107188000Y-123825000D03*
G04 #@! TO.P,U3,4*
G04 #@! TO.N,PA0*
X91948000Y-88265000D03*
G04 #@! TO.P,U3,24*
G04 #@! TO.N,PB6*
X107188000Y-121285000D03*
G04 #@! TO.P,U3,5*
G04 #@! TO.N,~IOR*
X91948000Y-90805000D03*
G04 #@! TO.P,U3,25*
G04 #@! TO.N,PB7*
X107188000Y-118745000D03*
G04 #@! TO.P,U3,6*
G04 #@! TO.N,8255-CS*
X91948000Y-93345000D03*
G04 #@! TO.P,U3,26*
G04 #@! TO.N,VCC*
X107188000Y-116205000D03*
G04 #@! TO.P,U3,7*
G04 #@! TO.N,GND*
X91948000Y-95885000D03*
G04 #@! TO.P,U3,27*
G04 #@! TO.N,D7*
X107188000Y-113665000D03*
G04 #@! TO.P,U3,8*
G04 #@! TO.N,A1*
X91948000Y-98425000D03*
G04 #@! TO.P,U3,28*
G04 #@! TO.N,D6*
X107188000Y-111125000D03*
G04 #@! TO.P,U3,9*
G04 #@! TO.N,A0*
X91948000Y-100965000D03*
G04 #@! TO.P,U3,29*
G04 #@! TO.N,D5*
X107188000Y-108585000D03*
G04 #@! TO.P,U3,10*
G04 #@! TO.N,PC7*
X91948000Y-103505000D03*
G04 #@! TO.P,U3,30*
G04 #@! TO.N,D4*
X107188000Y-106045000D03*
G04 #@! TO.P,U3,11*
G04 #@! TO.N,PC6*
X91948000Y-106045000D03*
G04 #@! TO.P,U3,31*
G04 #@! TO.N,D3*
X107188000Y-103505000D03*
G04 #@! TO.P,U3,12*
G04 #@! TO.N,PC5*
X91948000Y-108585000D03*
G04 #@! TO.P,U3,32*
G04 #@! TO.N,D2*
X107188000Y-100965000D03*
G04 #@! TO.P,U3,13*
G04 #@! TO.N,PC4*
X91948000Y-111125000D03*
G04 #@! TO.P,U3,33*
G04 #@! TO.N,D1*
X107188000Y-98425000D03*
G04 #@! TO.P,U3,14*
G04 #@! TO.N,PC0*
X91948000Y-113665000D03*
G04 #@! TO.P,U3,34*
G04 #@! TO.N,D0*
X107188000Y-95885000D03*
G04 #@! TO.P,U3,15*
G04 #@! TO.N,PC1*
X91948000Y-116205000D03*
G04 #@! TO.P,U3,35*
G04 #@! TO.N,RES*
X107188000Y-93345000D03*
G04 #@! TO.P,U3,16*
G04 #@! TO.N,PC2*
X91948000Y-118745000D03*
G04 #@! TO.P,U3,36*
G04 #@! TO.N,~IOW*
X107188000Y-90805000D03*
G04 #@! TO.P,U3,17*
G04 #@! TO.N,PC3*
X91948000Y-121285000D03*
G04 #@! TO.P,U3,37*
G04 #@! TO.N,PA7*
X107188000Y-88265000D03*
G04 #@! TO.P,U3,18*
G04 #@! TO.N,PB0*
X91948000Y-123825000D03*
G04 #@! TO.P,U3,38*
G04 #@! TO.N,PA6*
X107188000Y-85725000D03*
G04 #@! TO.P,U3,19*
G04 #@! TO.N,PB1*
X91948000Y-126365000D03*
G04 #@! TO.P,U3,39*
G04 #@! TO.N,PA5*
X107188000Y-83185000D03*
G04 #@! TO.P,U3,20*
G04 #@! TO.N,PB2*
X91948000Y-128905000D03*
G04 #@! TO.P,U3,40*
G04 #@! TO.N,PA4*
X107188000Y-80645000D03*
G04 #@! TD*
D16*
G04 #@! TO.P,C1,2*
G04 #@! TO.N,GND*
X126893000Y-123915000D03*
G04 #@! TO.P,C1,1*
G04 #@! TO.N,Net-(C1-Pad1)*
X129393000Y-123915000D03*
G04 #@! TD*
G04 #@! TO.P,C2,1*
G04 #@! TO.N,Net-(C2-Pad1)*
X119273000Y-123985000D03*
G04 #@! TO.P,C2,2*
G04 #@! TO.N,GND*
X121773000Y-123985000D03*
G04 #@! TD*
G04 #@! TO.P,C3,2*
G04 #@! TO.N,GND*
X113443000Y-118105000D03*
G04 #@! TO.P,C3,1*
G04 #@! TO.N,VCC*
X110943000Y-118105000D03*
G04 #@! TD*
G04 #@! TO.P,C4,1*
G04 #@! TO.N,VCC*
X131953000Y-81280000D03*
G04 #@! TO.P,C4,2*
G04 #@! TO.N,GND*
X129453000Y-81280000D03*
G04 #@! TD*
G04 #@! TO.P,C5,2*
G04 #@! TO.N,GND*
X117388000Y-81280000D03*
G04 #@! TO.P,C5,1*
G04 #@! TO.N,VCC*
X119888000Y-81280000D03*
G04 #@! TD*
G04 #@! TO.P,C6,1*
G04 #@! TO.N,VCC*
X135128000Y-80010000D03*
G04 #@! TO.P,C6,2*
G04 #@! TO.N,GND*
X135128000Y-82510000D03*
G04 #@! TD*
G04 #@! TO.P,C8,2*
G04 #@! TO.N,GND*
X135043000Y-102365000D03*
G04 #@! TO.P,C8,1*
G04 #@! TO.N,VCC*
X135043000Y-99865000D03*
G04 #@! TD*
G04 #@! TO.P,C9,1*
G04 #@! TO.N,VCC*
X133273000Y-118255000D03*
G04 #@! TO.P,C9,2*
G04 #@! TO.N,GND*
X133273000Y-120755000D03*
G04 #@! TD*
D10*
G04 #@! TO.P,J4,1*
G04 #@! TO.N,GND*
X176809000Y-74041000D03*
D11*
G04 #@! TO.P,J4,2*
G04 #@! TO.N,Net-(J4-Pad2)*
X176809000Y-76581000D03*
G04 #@! TO.P,J4,3*
G04 #@! TO.N,Net-(J4-Pad3)*
X176809000Y-79121000D03*
G04 #@! TO.P,J4,4*
G04 #@! TO.N,Net-(J4-Pad4)*
X176809000Y-81661000D03*
G04 #@! TO.P,J4,5*
G04 #@! TO.N,Net-(J4-Pad5)*
X176809000Y-84201000D03*
G04 #@! TO.P,J4,6*
G04 #@! TO.N,Net-(J4-Pad6)*
X176809000Y-86741000D03*
G04 #@! TD*
G04 #@! TO.P,J2,8*
G04 #@! TO.N,Net-(J2-Pad2)*
X119253000Y-107315000D03*
G04 #@! TO.P,J2,7*
G04 #@! TO.N,Net-(J2-Pad7)*
X119253000Y-109855000D03*
G04 #@! TO.P,J2,6*
G04 #@! TO.N,Net-(J2-Pad2)*
X116713000Y-107315000D03*
G04 #@! TO.P,J2,5*
G04 #@! TO.N,Net-(J2-Pad5)*
X116713000Y-109855000D03*
G04 #@! TO.P,J2,4*
G04 #@! TO.N,Net-(J2-Pad2)*
X114173000Y-107315000D03*
G04 #@! TO.P,J2,3*
G04 #@! TO.N,Net-(J2-Pad3)*
X114173000Y-109855000D03*
G04 #@! TO.P,J2,2*
G04 #@! TO.N,Net-(J2-Pad2)*
X111633000Y-107315000D03*
D10*
G04 #@! TO.P,J2,1*
G04 #@! TO.N,Net-(J2-Pad1)*
X111633000Y-109855000D03*
G04 #@! TD*
G04 #@! TO.P,J7,1*
G04 #@! TO.N,Net-(J7-Pad1)*
X123698000Y-109855000D03*
D11*
G04 #@! TO.P,J7,2*
G04 #@! TO.N,Net-(J7-Pad2)*
X123698000Y-107315000D03*
G04 #@! TO.P,J7,3*
G04 #@! TO.N,Net-(J7-Pad1)*
X126238000Y-109855000D03*
G04 #@! TO.P,J7,4*
G04 #@! TO.N,Net-(J7-Pad4)*
X126238000Y-107315000D03*
G04 #@! TO.P,J7,5*
G04 #@! TO.N,Net-(J7-Pad1)*
X128778000Y-109855000D03*
G04 #@! TO.P,J7,6*
G04 #@! TO.N,Net-(J7-Pad6)*
X128778000Y-107315000D03*
G04 #@! TO.P,J7,7*
G04 #@! TO.N,Net-(J7-Pad1)*
X131318000Y-109855000D03*
G04 #@! TO.P,J7,8*
G04 #@! TO.N,Net-(J7-Pad8)*
X131318000Y-107315000D03*
G04 #@! TD*
D14*
G04 #@! TO.P,U1,1*
G04 #@! TO.N,Net-(J2-Pad2)*
X111633000Y-84455000D03*
D15*
G04 #@! TO.P,U1,9*
G04 #@! TO.N,Net-(J2-Pad7)*
X119253000Y-102235000D03*
G04 #@! TO.P,U1,2*
G04 #@! TO.N,A3*
X111633000Y-86995000D03*
G04 #@! TO.P,U1,10*
G04 #@! TO.N,Net-(J2-Pad5)*
X119253000Y-99695000D03*
G04 #@! TO.P,U1,3*
G04 #@! TO.N,A4*
X111633000Y-89535000D03*
G04 #@! TO.P,U1,11*
G04 #@! TO.N,Net-(J2-Pad3)*
X119253000Y-97155000D03*
G04 #@! TO.P,U1,4*
G04 #@! TO.N,8251A-CS*
X111633000Y-92075000D03*
G04 #@! TO.P,U1,12*
G04 #@! TO.N,Net-(J2-Pad1)*
X119253000Y-94615000D03*
G04 #@! TO.P,U1,5*
G04 #@! TO.N,8255-CS*
X111633000Y-94615000D03*
G04 #@! TO.P,U1,13*
G04 #@! TO.N,A6*
X119253000Y-92075000D03*
G04 #@! TO.P,U1,6*
G04 #@! TO.N,8259-CS*
X111633000Y-97155000D03*
G04 #@! TO.P,U1,14*
G04 #@! TO.N,A5*
X119253000Y-89535000D03*
G04 #@! TO.P,U1,7*
G04 #@! TO.N,8254-CS*
X111633000Y-99695000D03*
G04 #@! TO.P,U1,15*
G04 #@! TO.N,Net-(JP1-Pad2)*
X119253000Y-86995000D03*
G04 #@! TO.P,U1,8*
G04 #@! TO.N,GND*
X111633000Y-102235000D03*
G04 #@! TO.P,U1,16*
G04 #@! TO.N,VCC*
X119253000Y-84455000D03*
G04 #@! TD*
D14*
G04 #@! TO.P,U6,1*
G04 #@! TO.N,D7*
X138354000Y-115037000D03*
D15*
G04 #@! TO.P,U6,13*
G04 #@! TO.N,8254-2*
X166294000Y-99797000D03*
G04 #@! TO.P,U6,2*
G04 #@! TO.N,D6*
X140894000Y-115037000D03*
G04 #@! TO.P,U6,14*
G04 #@! TO.N,Net-(R5-Pad2)*
X163754000Y-99797000D03*
G04 #@! TO.P,U6,3*
G04 #@! TO.N,D5*
X143434000Y-115037000D03*
G04 #@! TO.P,U6,15*
G04 #@! TO.N,Net-(J7-Pad2)*
X161214000Y-99797000D03*
G04 #@! TO.P,U6,4*
G04 #@! TO.N,D4*
X145974000Y-115037000D03*
G04 #@! TO.P,U6,16*
G04 #@! TO.N,Net-(R6-Pad2)*
X158674000Y-99797000D03*
G04 #@! TO.P,U6,5*
G04 #@! TO.N,D3*
X148514000Y-115037000D03*
G04 #@! TO.P,U6,17*
G04 #@! TO.N,Net-(J8-Pad1)*
X156134000Y-99797000D03*
G04 #@! TO.P,U6,6*
G04 #@! TO.N,D2*
X151054000Y-115037000D03*
G04 #@! TO.P,U6,18*
G04 #@! TO.N,Net-(J7-Pad2)*
X153594000Y-99797000D03*
G04 #@! TO.P,U6,7*
G04 #@! TO.N,D1*
X153594000Y-115037000D03*
G04 #@! TO.P,U6,19*
G04 #@! TO.N,A0*
X151054000Y-99797000D03*
G04 #@! TO.P,U6,8*
G04 #@! TO.N,D0*
X156134000Y-115037000D03*
G04 #@! TO.P,U6,20*
G04 #@! TO.N,A1*
X148514000Y-99797000D03*
G04 #@! TO.P,U6,9*
G04 #@! TO.N,Net-(J7-Pad2)*
X158674000Y-115037000D03*
G04 #@! TO.P,U6,21*
G04 #@! TO.N,8254-CS*
X145974000Y-99797000D03*
G04 #@! TO.P,U6,10*
G04 #@! TO.N,8254-1*
X161214000Y-115037000D03*
G04 #@! TO.P,U6,22*
G04 #@! TO.N,~IOR*
X143434000Y-99797000D03*
G04 #@! TO.P,U6,11*
G04 #@! TO.N,Net-(R4-Pad2)*
X163754000Y-115037000D03*
G04 #@! TO.P,U6,23*
G04 #@! TO.N,~IOW*
X140894000Y-99797000D03*
G04 #@! TO.P,U6,12*
G04 #@! TO.N,GND*
X166294000Y-115037000D03*
G04 #@! TO.P,U6,24*
G04 #@! TO.N,VCC*
X138354000Y-99797000D03*
G04 #@! TD*
G04 #@! TO.P,U2,28*
G04 #@! TO.N,D1*
X138303000Y-80645000D03*
G04 #@! TO.P,U2,14*
G04 #@! TO.N,8251-A*
X171323000Y-95885000D03*
G04 #@! TO.P,U2,27*
G04 #@! TO.N,D0*
X140843000Y-80645000D03*
G04 #@! TO.P,U2,13*
G04 #@! TO.N,~IOR*
X168783000Y-95885000D03*
G04 #@! TO.P,U2,26*
G04 #@! TO.N,VCC*
X143383000Y-80645000D03*
G04 #@! TO.P,U2,12*
G04 #@! TO.N,A0*
X166243000Y-95885000D03*
G04 #@! TO.P,U2,25*
G04 #@! TO.N,Net-(J7-Pad1)*
X145923000Y-80645000D03*
G04 #@! TO.P,U2,11*
G04 #@! TO.N,8251A-CS*
X163703000Y-95885000D03*
G04 #@! TO.P,U2,24*
G04 #@! TO.N,Net-(U2-Pad22)*
X148463000Y-80645000D03*
G04 #@! TO.P,U2,10*
G04 #@! TO.N,~IOW*
X161163000Y-95885000D03*
G04 #@! TO.P,U2,23*
G04 #@! TO.N,Net-(J4-Pad2)*
X151003000Y-80645000D03*
G04 #@! TO.P,U2,9*
G04 #@! TO.N,Net-(J7-Pad1)*
X158623000Y-95885000D03*
G04 #@! TO.P,U2,22*
G04 #@! TO.N,Net-(U2-Pad22)*
X153543000Y-80645000D03*
G04 #@! TO.P,U2,8*
G04 #@! TO.N,D7*
X156083000Y-95885000D03*
G04 #@! TO.P,U2,21*
G04 #@! TO.N,RES*
X156083000Y-80645000D03*
G04 #@! TO.P,U2,7*
G04 #@! TO.N,D6*
X153543000Y-95885000D03*
G04 #@! TO.P,U2,20*
G04 #@! TO.N,CLK*
X158623000Y-80645000D03*
G04 #@! TO.P,U2,6*
G04 #@! TO.N,D5*
X151003000Y-95885000D03*
G04 #@! TO.P,U2,19*
G04 #@! TO.N,Net-(J4-Pad5)*
X161163000Y-80645000D03*
G04 #@! TO.P,U2,5*
G04 #@! TO.N,D4*
X148463000Y-95885000D03*
G04 #@! TO.P,U2,18*
G04 #@! TO.N,Net-(U2-Pad18)*
X163703000Y-80645000D03*
G04 #@! TO.P,U2,4*
G04 #@! TO.N,GND*
X145923000Y-95885000D03*
G04 #@! TO.P,U2,17*
G04 #@! TO.N,Net-(J4-Pad6)*
X166243000Y-80645000D03*
G04 #@! TO.P,U2,3*
G04 #@! TO.N,Net-(J4-Pad4)*
X143383000Y-95885000D03*
G04 #@! TO.P,U2,16*
G04 #@! TO.N,Net-(U2-Pad16)*
X168783000Y-80645000D03*
G04 #@! TO.P,U2,2*
G04 #@! TO.N,D3*
X140843000Y-95885000D03*
G04 #@! TO.P,U2,15*
G04 #@! TO.N,Net-(U2-Pad15)*
X171323000Y-80645000D03*
D14*
G04 #@! TO.P,U2,1*
G04 #@! TO.N,D2*
X138303000Y-95885000D03*
G04 #@! TD*
G04 #@! TO.P,U5,1*
G04 #@! TO.N,8259-CS*
X136613000Y-133935000D03*
D15*
G04 #@! TO.P,U5,15*
G04 #@! TO.N,Net-(U5-Pad15)*
X169633000Y-118695000D03*
G04 #@! TO.P,U5,2*
G04 #@! TO.N,~IOW*
X139153000Y-133935000D03*
G04 #@! TO.P,U5,16*
G04 #@! TO.N,VCC*
X167093000Y-118695000D03*
G04 #@! TO.P,U5,3*
G04 #@! TO.N,~IOR*
X141693000Y-133935000D03*
G04 #@! TO.P,U5,17*
G04 #@! TO.N,INT*
X164553000Y-118695000D03*
G04 #@! TO.P,U5,4*
G04 #@! TO.N,D7*
X144233000Y-133935000D03*
G04 #@! TO.P,U5,18*
G04 #@! TO.N,/IR0*
X162013000Y-118695000D03*
G04 #@! TO.P,U5,5*
G04 #@! TO.N,D6*
X146773000Y-133935000D03*
G04 #@! TO.P,U5,19*
G04 #@! TO.N,/IR1*
X159473000Y-118695000D03*
G04 #@! TO.P,U5,6*
G04 #@! TO.N,D5*
X149313000Y-133935000D03*
G04 #@! TO.P,U5,20*
G04 #@! TO.N,/IR2*
X156933000Y-118695000D03*
G04 #@! TO.P,U5,7*
G04 #@! TO.N,D4*
X151853000Y-133935000D03*
G04 #@! TO.P,U5,21*
G04 #@! TO.N,/IR3*
X154393000Y-118695000D03*
G04 #@! TO.P,U5,8*
G04 #@! TO.N,D3*
X154393000Y-133935000D03*
G04 #@! TO.P,U5,22*
G04 #@! TO.N,8254-2*
X151853000Y-118695000D03*
G04 #@! TO.P,U5,9*
G04 #@! TO.N,D2*
X156933000Y-133935000D03*
G04 #@! TO.P,U5,23*
G04 #@! TO.N,8254-1*
X149313000Y-118695000D03*
G04 #@! TO.P,U5,10*
G04 #@! TO.N,D1*
X159473000Y-133935000D03*
G04 #@! TO.P,U5,24*
G04 #@! TO.N,/IR6*
X146773000Y-118695000D03*
G04 #@! TO.P,U5,11*
G04 #@! TO.N,D0*
X162013000Y-133935000D03*
G04 #@! TO.P,U5,25*
G04 #@! TO.N,8251-A*
X144233000Y-118695000D03*
G04 #@! TO.P,U5,12*
G04 #@! TO.N,Net-(U5-Pad12)*
X164553000Y-133935000D03*
G04 #@! TO.P,U5,26*
G04 #@! TO.N,~INTA*
X141693000Y-118695000D03*
G04 #@! TO.P,U5,13*
G04 #@! TO.N,Net-(U5-Pad13)*
X167093000Y-133935000D03*
G04 #@! TO.P,U5,27*
G04 #@! TO.N,A0*
X139153000Y-118695000D03*
G04 #@! TO.P,U5,14*
G04 #@! TO.N,GND*
X169633000Y-133935000D03*
G04 #@! TO.P,U5,28*
G04 #@! TO.N,VCC*
X136613000Y-118695000D03*
G04 #@! TD*
G04 #@! TO.P,R1,2*
G04 #@! TO.N,Net-(C1-Pad1)*
X129403000Y-120495000D03*
D16*
G04 #@! TO.P,R1,1*
G04 #@! TO.N,Net-(C2-Pad1)*
X119243000Y-120495000D03*
G04 #@! TD*
G04 #@! TO.P,R4,1*
G04 #@! TO.N,VCC*
X170345000Y-110019000D03*
D15*
G04 #@! TO.P,R4,2*
G04 #@! TO.N,Net-(R4-Pad2)*
X170345000Y-99859000D03*
G04 #@! TD*
G04 #@! TO.P,R5,2*
G04 #@! TO.N,Net-(R5-Pad2)*
X173951000Y-99859000D03*
D16*
G04 #@! TO.P,R5,1*
G04 #@! TO.N,VCC*
X173951000Y-110019000D03*
G04 #@! TD*
G04 #@! TO.P,R6,1*
G04 #@! TO.N,VCC*
X177253000Y-110019000D03*
D15*
G04 #@! TO.P,R6,2*
G04 #@! TO.N,Net-(R6-Pad2)*
X177253000Y-99859000D03*
G04 #@! TD*
D17*
G04 #@! TO.P,J1,1*
G04 #@! TO.N,SBC5V*
X106807000Y-76073000D03*
D18*
G04 #@! TO.P,J1,2*
G04 #@! TO.N,GND*
X106807000Y-73533000D03*
G04 #@! TO.P,J1,3*
G04 #@! TO.N,SBC5V*
X109347000Y-76073000D03*
G04 #@! TO.P,J1,4*
G04 #@! TO.N,GND*
X109347000Y-73533000D03*
G04 #@! TO.P,J1,5*
G04 #@! TO.N,~INTA*
X111887000Y-76073000D03*
G04 #@! TO.P,J1,6*
G04 #@! TO.N,Net-(J1-Pad6)*
X111887000Y-73533000D03*
G04 #@! TO.P,J1,7*
G04 #@! TO.N,Net-(J1-Pad7)*
X114427000Y-76073000D03*
G04 #@! TO.P,J1,8*
G04 #@! TO.N,CLK*
X114427000Y-73533000D03*
G04 #@! TO.P,J1,9*
G04 #@! TO.N,D0*
X116967000Y-76073000D03*
G04 #@! TO.P,J1,10*
G04 #@! TO.N,D1*
X116967000Y-73533000D03*
G04 #@! TO.P,J1,11*
G04 #@! TO.N,D2*
X119507000Y-76073000D03*
G04 #@! TO.P,J1,12*
G04 #@! TO.N,D3*
X119507000Y-73533000D03*
G04 #@! TO.P,J1,13*
G04 #@! TO.N,D4*
X122047000Y-76073000D03*
G04 #@! TO.P,J1,14*
G04 #@! TO.N,D5*
X122047000Y-73533000D03*
G04 #@! TO.P,J1,15*
G04 #@! TO.N,D6*
X124587000Y-76073000D03*
G04 #@! TO.P,J1,16*
G04 #@! TO.N,D7*
X124587000Y-73533000D03*
G04 #@! TO.P,J1,17*
G04 #@! TO.N,~IOR*
X127127000Y-76073000D03*
G04 #@! TO.P,J1,18*
G04 #@! TO.N,Net-(J1-Pad18)*
X127127000Y-73533000D03*
G04 #@! TO.P,J1,19*
G04 #@! TO.N,~IOW*
X129667000Y-76073000D03*
G04 #@! TO.P,J1,20*
G04 #@! TO.N,Net-(J1-Pad20)*
X129667000Y-73533000D03*
G04 #@! TO.P,J1,21*
G04 #@! TO.N,RES*
X132207000Y-76073000D03*
G04 #@! TO.P,J1,22*
G04 #@! TO.N,Net-(J1-Pad22)*
X132207000Y-73533000D03*
G04 #@! TO.P,J1,23*
G04 #@! TO.N,INT*
X134747000Y-76073000D03*
G04 #@! TO.P,J1,24*
G04 #@! TO.N,Net-(J1-Pad24)*
X134747000Y-73533000D03*
G04 #@! TO.P,J1,25*
G04 #@! TO.N,A0*
X137287000Y-76073000D03*
G04 #@! TO.P,J1,26*
G04 #@! TO.N,A1*
X137287000Y-73533000D03*
G04 #@! TO.P,J1,27*
G04 #@! TO.N,Net-(J1-Pad27)*
X139827000Y-76073000D03*
G04 #@! TO.P,J1,28*
G04 #@! TO.N,A3*
X139827000Y-73533000D03*
G04 #@! TO.P,J1,29*
G04 #@! TO.N,A4*
X142367000Y-76073000D03*
G04 #@! TO.P,J1,30*
G04 #@! TO.N,A5*
X142367000Y-73533000D03*
G04 #@! TO.P,J1,31*
G04 #@! TO.N,A6*
X144907000Y-76073000D03*
G04 #@! TO.P,J1,32*
G04 #@! TO.N,A7*
X144907000Y-73533000D03*
G04 #@! TO.P,J1,33*
G04 #@! TO.N,Net-(J1-Pad33)*
X147447000Y-76073000D03*
G04 #@! TO.P,J1,34*
G04 #@! TO.N,Net-(J1-Pad34)*
X147447000Y-73533000D03*
G04 #@! TO.P,J1,35*
G04 #@! TO.N,Net-(J1-Pad35)*
X149987000Y-76073000D03*
G04 #@! TO.P,J1,36*
G04 #@! TO.N,Net-(J1-Pad36)*
X149987000Y-73533000D03*
G04 #@! TO.P,J1,37*
G04 #@! TO.N,Net-(J1-Pad37)*
X152527000Y-76073000D03*
G04 #@! TO.P,J1,38*
G04 #@! TO.N,Net-(J1-Pad38)*
X152527000Y-73533000D03*
G04 #@! TO.P,J1,39*
G04 #@! TO.N,Net-(J1-Pad39)*
X155067000Y-76073000D03*
G04 #@! TO.P,J1,40*
G04 #@! TO.N,Net-(J1-Pad40)*
X155067000Y-73533000D03*
G04 #@! TD*
D14*
G04 #@! TO.P,U4,1*
G04 #@! TO.N,Net-(U4-Pad1)*
X123698000Y-84455000D03*
D15*
G04 #@! TO.P,U4,9*
G04 #@! TO.N,Net-(U4-Pad9)*
X131318000Y-102235000D03*
G04 #@! TO.P,U4,2*
G04 #@! TO.N,Net-(U4-Pad2)*
X123698000Y-86995000D03*
G04 #@! TO.P,U4,10*
G04 #@! TO.N,Net-(C1-Pad1)*
X131318000Y-99695000D03*
G04 #@! TO.P,U4,3*
G04 #@! TO.N,Net-(U4-Pad3)*
X123698000Y-89535000D03*
G04 #@! TO.P,U4,11*
G04 #@! TO.N,Net-(C2-Pad1)*
X131318000Y-97155000D03*
G04 #@! TO.P,U4,4*
G04 #@! TO.N,Net-(J7-Pad6)*
X123698000Y-92075000D03*
G04 #@! TO.P,U4,12*
G04 #@! TO.N,GND*
X131318000Y-94615000D03*
G04 #@! TO.P,U4,5*
G04 #@! TO.N,Net-(J7-Pad4)*
X123698000Y-94615000D03*
G04 #@! TO.P,U4,13*
G04 #@! TO.N,Net-(U4-Pad13)*
X131318000Y-92075000D03*
G04 #@! TO.P,U4,6*
G04 #@! TO.N,Net-(J7-Pad8)*
X123698000Y-97155000D03*
G04 #@! TO.P,U4,14*
G04 #@! TO.N,Net-(U4-Pad14)*
X131318000Y-89535000D03*
G04 #@! TO.P,U4,7*
G04 #@! TO.N,Net-(J7-Pad2)*
X123698000Y-99695000D03*
G04 #@! TO.P,U4,15*
G04 #@! TO.N,Net-(U4-Pad15)*
X131318000Y-86995000D03*
G04 #@! TO.P,U4,8*
G04 #@! TO.N,GND*
X123698000Y-102235000D03*
G04 #@! TO.P,U4,16*
G04 #@! TO.N,VCC*
X131318000Y-84455000D03*
G04 #@! TD*
D19*
G04 #@! TO.P,Y1,1*
G04 #@! TO.N,Net-(C2-Pad1)*
X123563000Y-115145000D03*
G04 #@! TO.P,Y1,2*
G04 #@! TO.N,Net-(C1-Pad1)*
X128643000Y-115145000D03*
G04 #@! TD*
D16*
G04 #@! TO.P,R2,1*
G04 #@! TO.N,Net-(Q1-Pad3)*
X111100000Y-128676000D03*
D15*
G04 #@! TO.P,R2,2*
G04 #@! TO.N,A7*
X121260000Y-128676000D03*
G04 #@! TD*
G04 #@! TO.P,R3,2*
G04 #@! TO.N,VCC*
X111100000Y-132486000D03*
D16*
G04 #@! TO.P,R3,1*
G04 #@! TO.N,Net-(JP1-Pad1)*
X121260000Y-132486000D03*
G04 #@! TD*
D14*
G04 #@! TO.P,C7,1*
G04 #@! TO.N,VCC*
X98552000Y-73025000D03*
D16*
G04 #@! TO.P,C7,2*
G04 #@! TO.N,GND*
X96052000Y-73025000D03*
G04 #@! TD*
D20*
G04 #@! TO.N,GND*
X97155000Y-82677000D03*
X138430000Y-89662000D03*
X102108000Y-97028000D03*
X98679000Y-129032000D03*
X144272000Y-87122000D03*
G04 #@! TO.N,VCC*
X160274000Y-75819000D03*
X98552000Y-79248000D03*
G04 #@! TO.N,D0*
X155098900Y-90586400D03*
G04 #@! TO.N,D2*
X140338900Y-104956600D03*
X112550500Y-95885000D03*
G04 #@! TO.N,D3*
X141441100Y-107529200D03*
G04 #@! TO.N,D4*
X141303500Y-109865900D03*
G04 #@! TO.N,D5*
X140344300Y-111862600D03*
G04 #@! TO.N,~IOW*
X132459400Y-79044600D03*
G04 #@! TO.N,RES*
X114220400Y-79084600D03*
G04 #@! TO.N,A1*
X109460800Y-79282500D03*
X133435200Y-79595800D03*
G04 #@! TO.N,Net-(J2-Pad5)*
X117888300Y-106418100D03*
G04 #@! TO.N,PA0*
X87502700Y-88525500D03*
G04 #@! TO.N,PA1*
X90159300Y-94270400D03*
G04 #@! TO.N,PB2*
X88489700Y-122253900D03*
G04 #@! TO.N,~INTA*
X120510100Y-118564600D03*
G04 #@! TO.N,8254-2*
X149913200Y-111474700D03*
G04 #@! TO.N,8251A-CS*
X159226700Y-91397500D03*
G04 #@! TD*
D21*
G04 #@! TO.N,GND*
X176653000Y-95455000D02*
X175302700Y-95455000D01*
X175302700Y-95455000D02*
X173929900Y-94082200D01*
X173929900Y-94082200D02*
X147725800Y-94082200D01*
X147725800Y-94082200D02*
X145923000Y-95885000D01*
X105378400Y-77153700D02*
X105683200Y-77458500D01*
X105683200Y-77458500D02*
X111204900Y-77458500D01*
X111204900Y-77458500D02*
X115026400Y-81280000D01*
X115026400Y-81280000D02*
X117388000Y-81280000D01*
X111633000Y-102235000D02*
X112933300Y-102235000D01*
X123698000Y-102235000D02*
X122397700Y-102235000D01*
X122397700Y-102235000D02*
X121097400Y-103535300D01*
X121097400Y-103535300D02*
X114233600Y-103535300D01*
X114233600Y-103535300D02*
X112933300Y-102235000D01*
X105378400Y-77153700D02*
X105378400Y-74961600D01*
X105378400Y-74961600D02*
X106807000Y-73533000D01*
X83693000Y-79995000D02*
X86534300Y-77153700D01*
X129453000Y-81280000D02*
X128140000Y-79967000D01*
X128140000Y-79967000D02*
X118701000Y-79967000D01*
X118701000Y-79967000D02*
X117388000Y-81280000D01*
X109347000Y-73533000D02*
X108170900Y-73533000D01*
X106807000Y-73533000D02*
X108170900Y-73533000D01*
X83693000Y-107234700D02*
X83693000Y-102839700D01*
X83693000Y-102839700D02*
X90647700Y-95885000D01*
X83693000Y-108585000D02*
X83693000Y-107234700D01*
X91948000Y-95885000D02*
X90647700Y-95885000D01*
X90424000Y-77153700D02*
X93980000Y-77153700D01*
X86534300Y-77153700D02*
X90424000Y-77153700D01*
X96139000Y-74243370D02*
X96139000Y-77153700D01*
X96052000Y-74156370D02*
X96139000Y-74243370D01*
X96139000Y-77153700D02*
X105378400Y-77153700D01*
X96052000Y-73025000D02*
X96052000Y-74156370D01*
X93980000Y-77153700D02*
X96139000Y-77153700D01*
G04 #@! TO.N,VCC*
X87583300Y-79995000D02*
X88233600Y-79344700D01*
X88233600Y-79344700D02*
X96774000Y-79344700D01*
X108249900Y-79344700D02*
X108249900Y-79344800D01*
X108249900Y-79344800D02*
X109087900Y-80182800D01*
X109087900Y-80182800D02*
X109708000Y-80182800D01*
X109708000Y-80182800D02*
X113980200Y-84455000D01*
X113980200Y-84455000D02*
X117952700Y-84455000D01*
X135128000Y-80010000D02*
X133858000Y-81280000D01*
X133858000Y-81280000D02*
X131953000Y-81280000D01*
X135312700Y-118695000D02*
X134872700Y-118255000D01*
X134872700Y-118255000D02*
X133273000Y-118255000D01*
X119253000Y-84455000D02*
X120553300Y-84455000D01*
X131318000Y-83154700D02*
X121853600Y-83154700D01*
X121853600Y-83154700D02*
X120553300Y-84455000D01*
X131318000Y-83354800D02*
X131318000Y-83154700D01*
X131318000Y-84455000D02*
X131318000Y-83354800D01*
X131953000Y-81280000D02*
X131953000Y-82519700D01*
X131953000Y-82519700D02*
X131318000Y-83154700D01*
X119253000Y-84455000D02*
X117952700Y-84455000D01*
X86233000Y-79995000D02*
X87583300Y-79995000D01*
X136613000Y-118695000D02*
X135312700Y-118695000D01*
X138354000Y-99797000D02*
X137053700Y-99797000D01*
X135043000Y-99865000D02*
X136985700Y-99865000D01*
X136985700Y-99865000D02*
X137053700Y-99797000D01*
X170345000Y-110019000D02*
X173951000Y-110019000D01*
X177253000Y-110019000D02*
X173951000Y-110019000D01*
X96774000Y-79344700D02*
X108249900Y-79344700D01*
X145261700Y-78766300D02*
X143383000Y-80645000D01*
X157072700Y-78766300D02*
X145261700Y-78766300D01*
X157099000Y-78740000D02*
X157072700Y-78766300D01*
X157072700Y-78454615D02*
X159708315Y-75819000D01*
X159708315Y-75819000D02*
X160274000Y-75819000D01*
X157072700Y-78766300D02*
X157072700Y-78454615D01*
D22*
G04 #@! TO.N,D0*
X140843000Y-80645000D02*
X140843000Y-79519700D01*
X116967000Y-76073000D02*
X116967000Y-74884100D01*
X116967000Y-74884100D02*
X116595500Y-74884100D01*
X116595500Y-74884100D02*
X115752200Y-74040800D01*
X115752200Y-74040800D02*
X115752200Y-73052700D01*
X115752200Y-73052700D02*
X116963300Y-71841600D01*
X116963300Y-71841600D02*
X142362600Y-71841600D01*
X142362600Y-71841600D02*
X143633300Y-73112300D01*
X143633300Y-73112300D02*
X143633300Y-76729400D01*
X143633300Y-76729400D02*
X140843000Y-79519700D01*
X155098900Y-90586400D02*
X150784400Y-90586400D01*
X150784400Y-90586400D02*
X140843000Y-80645000D01*
G04 #@! TO.N,D1*
X138303000Y-80645000D02*
X138303000Y-79519700D01*
X116967000Y-73533000D02*
X118155900Y-73533000D01*
X118155900Y-73533000D02*
X118155900Y-73161500D01*
X118155900Y-73161500D02*
X118974100Y-72343300D01*
X118974100Y-72343300D02*
X140332400Y-72343300D01*
X140332400Y-72343300D02*
X141097000Y-73107900D01*
X141097000Y-73107900D02*
X141097000Y-76725700D01*
X141097000Y-76725700D02*
X138303000Y-79519700D01*
G04 #@! TO.N,D2*
X151054000Y-115037000D02*
X149928700Y-115037000D01*
X140338900Y-104956600D02*
X149928700Y-114546400D01*
X149928700Y-114546400D02*
X149928700Y-115037000D01*
X112550500Y-95885000D02*
X111300200Y-95885000D01*
X111300200Y-95885000D02*
X108313300Y-98871900D01*
X108313300Y-98871900D02*
X108313300Y-98993000D01*
X108313300Y-98993000D02*
X107466600Y-99839700D01*
X107466600Y-99839700D02*
X107188000Y-99839700D01*
X138303000Y-95885000D02*
X112550500Y-95885000D01*
X107188000Y-100965000D02*
X107188000Y-99839700D01*
G04 #@! TO.N,D3*
X141274100Y-108718400D02*
X147388700Y-114833000D01*
X147388700Y-114833000D02*
X147388700Y-115037000D01*
X108313300Y-103505000D02*
X109438600Y-104630300D01*
X109438600Y-104630300D02*
X118300800Y-104630300D01*
X118300800Y-104630300D02*
X120845300Y-107174800D01*
X120845300Y-107174800D02*
X120845300Y-109221600D01*
X120845300Y-109221600D02*
X123122100Y-111498400D01*
X123122100Y-111498400D02*
X137909100Y-111498400D01*
X137909100Y-111498400D02*
X140689100Y-108718400D01*
X140689100Y-108718400D02*
X141274100Y-108718400D01*
X141274100Y-108718400D02*
X141274100Y-107696200D01*
X141274100Y-107696200D02*
X141441100Y-107529200D01*
X148514000Y-115037000D02*
X147388700Y-115037000D01*
X107188000Y-103505000D02*
X108313300Y-103505000D01*
G04 #@! TO.N,D4*
X141303500Y-111137300D02*
X141303500Y-109865900D01*
X144848700Y-115037000D02*
X144848700Y-114682500D01*
X144848700Y-114682500D02*
X141303500Y-111137300D01*
X141303500Y-111137300D02*
X138969400Y-111137300D01*
X138969400Y-111137300D02*
X138157900Y-111948800D01*
X138157900Y-111948800D02*
X120489900Y-111948800D01*
X120489900Y-111948800D02*
X119571500Y-111030400D01*
X119571500Y-111030400D02*
X113628100Y-111030400D01*
X113628100Y-111030400D02*
X112808400Y-110210700D01*
X112808400Y-110210700D02*
X112808400Y-108870300D01*
X112808400Y-108870300D02*
X112617800Y-108679700D01*
X112617800Y-108679700D02*
X110948000Y-108679700D01*
X110948000Y-108679700D02*
X108313300Y-106045000D01*
X107188000Y-106045000D02*
X108313300Y-106045000D01*
X145974000Y-115037000D02*
X144848700Y-115037000D01*
G04 #@! TO.N,D5*
X139879900Y-112401600D02*
X139879900Y-112327000D01*
X139879900Y-112327000D02*
X140344300Y-111862600D01*
X142308700Y-115037000D02*
X142308700Y-114830400D01*
X142308700Y-114830400D02*
X139879900Y-112401600D01*
X139879900Y-112401600D02*
X119972000Y-112401600D01*
X119972000Y-112401600D02*
X119051200Y-111480800D01*
X119051200Y-111480800D02*
X111068400Y-111480800D01*
X111068400Y-111480800D02*
X108313300Y-108725700D01*
X108313300Y-108725700D02*
X108313300Y-108585000D01*
X143434000Y-115037000D02*
X142308700Y-115037000D01*
X107188000Y-108585000D02*
X108313300Y-108585000D01*
G04 #@! TO.N,D6*
X139768700Y-115037000D02*
X139768700Y-114333700D01*
X139768700Y-114333700D02*
X138287000Y-112852000D01*
X138287000Y-112852000D02*
X119050400Y-112852000D01*
X119050400Y-112852000D02*
X118129500Y-111931100D01*
X118129500Y-111931100D02*
X109119400Y-111931100D01*
X109119400Y-111931100D02*
X108313300Y-111125000D01*
X140894000Y-115037000D02*
X140894000Y-116162300D01*
X146773000Y-133935000D02*
X146773000Y-132809700D01*
X146773000Y-132809700D02*
X143107600Y-129144300D01*
X143107600Y-129144300D02*
X143107600Y-118375900D01*
X143107600Y-118375900D02*
X140894000Y-116162300D01*
X140894000Y-115037000D02*
X139768700Y-115037000D01*
X107188000Y-111125000D02*
X108313300Y-111125000D01*
G04 #@! TO.N,D7*
X137228700Y-115037000D02*
X136103400Y-113911700D01*
X136103400Y-113911700D02*
X118820800Y-113911700D01*
X118820800Y-113911700D02*
X117554400Y-112645300D01*
X117554400Y-112645300D02*
X109333000Y-112645300D01*
X109333000Y-112645300D02*
X108313300Y-113665000D01*
X107188000Y-113665000D02*
X108313300Y-113665000D01*
X138354000Y-115037000D02*
X137228700Y-115037000D01*
G04 #@! TO.N,~IOW*
X129667000Y-76073000D02*
X130865700Y-74874300D01*
X130865700Y-74874300D02*
X132736200Y-74874300D01*
X132736200Y-74874300D02*
X133477000Y-75615100D01*
X133477000Y-75615100D02*
X133477000Y-78027000D01*
X133477000Y-78027000D02*
X132459400Y-79044600D01*
X140894000Y-97964400D02*
X139428400Y-96498800D01*
X139428400Y-96498800D02*
X139428400Y-94890400D01*
X139428400Y-94890400D02*
X137936000Y-93398000D01*
X137936000Y-93398000D02*
X110906300Y-93398000D01*
X110906300Y-93398000D02*
X108313300Y-90805000D01*
X140894000Y-97964400D02*
X145446100Y-97964400D01*
X145446100Y-97964400D02*
X147048400Y-96362100D01*
X147048400Y-96362100D02*
X147048400Y-95644000D01*
X147048400Y-95644000D02*
X147932700Y-94759700D01*
X147932700Y-94759700D02*
X159193800Y-94759700D01*
X159193800Y-94759700D02*
X160037700Y-95603600D01*
X160037700Y-95603600D02*
X160037700Y-95885000D01*
X140894000Y-98671700D02*
X140894000Y-97964400D01*
X107188000Y-90805000D02*
X108313300Y-90805000D01*
X161163000Y-95885000D02*
X160037700Y-95885000D01*
X140894000Y-99797000D02*
X140894000Y-98671700D01*
G04 #@! TO.N,A0*
X91948000Y-100965000D02*
X93073300Y-100965000D01*
X139153000Y-118695000D02*
X138027700Y-118695000D01*
X138027700Y-118695000D02*
X138027700Y-118413700D01*
X138027700Y-118413700D02*
X136434900Y-116820900D01*
X136434900Y-116820900D02*
X121093100Y-116820900D01*
X121093100Y-116820900D02*
X117371800Y-113099600D01*
X117371800Y-113099600D02*
X109553600Y-113099600D01*
X109553600Y-113099600D02*
X107832900Y-114820300D01*
X107832900Y-114820300D02*
X106647300Y-114820300D01*
X106647300Y-114820300D02*
X93073300Y-101246300D01*
X93073300Y-101246300D02*
X93073300Y-100965000D01*
X166243000Y-95885000D02*
X165117700Y-95885000D01*
X165117700Y-95885000D02*
X165117700Y-96166400D01*
X165117700Y-96166400D02*
X164273800Y-97010300D01*
X164273800Y-97010300D02*
X159127700Y-97010300D01*
X159127700Y-97010300D02*
X158006000Y-98132000D01*
X158006000Y-98132000D02*
X152719000Y-98132000D01*
X152719000Y-98132000D02*
X151054000Y-99797000D01*
G04 #@! TO.N,Net-(C1-Pad1)*
X129403000Y-120495000D02*
X129403000Y-121620300D01*
X129403000Y-121620300D02*
X129393000Y-121630300D01*
X129393000Y-121630300D02*
X129393000Y-123915000D01*
G04 #@! TO.N,Net-(C2-Pad1)*
X119243000Y-120495000D02*
X119273000Y-120525000D01*
X119273000Y-120525000D02*
X119273000Y-123985000D01*
G04 #@! TO.N,CLK*
X157497700Y-80645000D02*
X157497700Y-80926400D01*
X157497700Y-80926400D02*
X156142700Y-82281400D01*
X156142700Y-82281400D02*
X143354100Y-82281400D01*
X143354100Y-82281400D02*
X142254600Y-81181900D01*
X142254600Y-81181900D02*
X142254600Y-80168500D01*
X142254600Y-80168500D02*
X143831600Y-78591500D01*
X143831600Y-78591500D02*
X144082600Y-78591500D01*
X144082600Y-78591500D02*
X146123800Y-76550300D01*
X146123800Y-76550300D02*
X146123800Y-72998000D01*
X146123800Y-72998000D02*
X144517000Y-71391200D01*
X144517000Y-71391200D02*
X116568800Y-71391200D01*
X116568800Y-71391200D02*
X114427000Y-73533000D01*
X158623000Y-80645000D02*
X157497700Y-80645000D01*
G04 #@! TO.N,RES*
X131018100Y-76073000D02*
X131018100Y-76444500D01*
X131018100Y-76444500D02*
X128378000Y-79084600D01*
X128378000Y-79084600D02*
X114220400Y-79084600D01*
X132207000Y-76073000D02*
X131018100Y-76073000D01*
G04 #@! TO.N,A1*
X133435200Y-79595800D02*
X133090600Y-79940400D01*
X133090600Y-79940400D02*
X131699800Y-79940400D01*
X131699800Y-79940400D02*
X130703000Y-80937200D01*
X130703000Y-80937200D02*
X130703000Y-81689100D01*
X130703000Y-81689100D02*
X129986700Y-82405400D01*
X129986700Y-82405400D02*
X115267400Y-82405400D01*
X115267400Y-82405400D02*
X112144500Y-79282500D01*
X112144500Y-79282500D02*
X109460800Y-79282500D01*
X137287000Y-74721900D02*
X136915400Y-74721900D01*
X136915400Y-74721900D02*
X136098100Y-75539200D01*
X136098100Y-75539200D02*
X136098100Y-76932900D01*
X136098100Y-76932900D02*
X133435200Y-79595800D01*
X137287000Y-73533000D02*
X137287000Y-74721900D01*
G04 #@! TO.N,A7*
X121260000Y-128676000D02*
X121260000Y-127550700D01*
X116815000Y-114275000D02*
X116815000Y-115450300D01*
X116815000Y-115450300D02*
X117767200Y-116402500D01*
X117767200Y-116402500D02*
X117767200Y-124198600D01*
X117767200Y-124198600D02*
X121119300Y-127550700D01*
X121119300Y-127550700D02*
X121260000Y-127550700D01*
G04 #@! TO.N,Net-(J2-Pad5)*
X117888300Y-106418100D02*
X117888300Y-107871800D01*
X117888300Y-107871800D02*
X117080400Y-108679700D01*
X117080400Y-108679700D02*
X116713000Y-108679700D01*
X116713000Y-109855000D02*
X116713000Y-108679700D01*
G04 #@! TO.N,Net-(J4-Pad2)*
X151003000Y-80645000D02*
X152128300Y-80645000D01*
X152128300Y-80645000D02*
X152128300Y-80363600D01*
X160395100Y-76581000D02*
X176809000Y-76581000D01*
X152972200Y-79519700D02*
X157456400Y-79519700D01*
X157456400Y-79519700D02*
X160395100Y-76581000D01*
X152128300Y-80363600D02*
X152972200Y-79519700D01*
G04 #@! TO.N,Net-(J4-Pad4)*
X176809000Y-81661000D02*
X176809000Y-82836300D01*
X143383000Y-95885000D02*
X144508300Y-95885000D01*
X144508300Y-95885000D02*
X144508300Y-95603700D01*
X144508300Y-95603700D02*
X147700200Y-92411800D01*
X147700200Y-92411800D02*
X172822100Y-92411800D01*
X172822100Y-92411800D02*
X177984300Y-87249600D01*
X177984300Y-87249600D02*
X177984300Y-83644200D01*
X177984300Y-83644200D02*
X177176400Y-82836300D01*
X177176400Y-82836300D02*
X176809000Y-82836300D01*
G04 #@! TO.N,Net-(J4-Pad5)*
X176809000Y-84201000D02*
X175633700Y-84201000D01*
X175633700Y-83319500D02*
X175633700Y-84201000D01*
X171832400Y-79518200D02*
X175633700Y-83319500D01*
X163133800Y-79518200D02*
X171832400Y-79518200D01*
X162288300Y-80363700D02*
X163133800Y-79518200D01*
X162288300Y-80645000D02*
X162288300Y-80363700D01*
X161163000Y-80645000D02*
X162288300Y-80645000D01*
G04 #@! TO.N,Net-(J4-Pad6)*
X166243000Y-80645000D02*
X167368300Y-80645000D01*
X167368300Y-80645000D02*
X167368300Y-80926300D01*
X167368300Y-80926300D02*
X173183000Y-86741000D01*
X173183000Y-86741000D02*
X176809000Y-86741000D01*
G04 #@! TO.N,PA0*
X91948000Y-88265000D02*
X87763200Y-88265000D01*
X87763200Y-88265000D02*
X87502700Y-88525500D01*
G04 #@! TO.N,PA1*
X84868300Y-95235000D02*
X84868300Y-94426900D01*
X84868300Y-94426900D02*
X85235500Y-94059700D01*
X85235500Y-94059700D02*
X89948600Y-94059700D01*
X89948600Y-94059700D02*
X90159300Y-94270400D01*
X83693000Y-95235000D02*
X84868300Y-95235000D01*
G04 #@! TO.N,PA2*
X86233000Y-92695000D02*
X85057700Y-92695000D01*
X91948000Y-83185000D02*
X90822700Y-83185000D01*
X90822700Y-83185000D02*
X87717300Y-86290400D01*
X87717300Y-86290400D02*
X83348800Y-86290400D01*
X83348800Y-86290400D02*
X82516600Y-87122600D01*
X82516600Y-87122600D02*
X82516600Y-90648300D01*
X82516600Y-90648300D02*
X83388000Y-91519700D01*
X83388000Y-91519700D02*
X84249800Y-91519700D01*
X84249800Y-91519700D02*
X85057700Y-92327600D01*
X85057700Y-92327600D02*
X85057700Y-92695000D01*
G04 #@! TO.N,PA4*
X86233000Y-90155000D02*
X87408300Y-90155000D01*
X107188000Y-80645000D02*
X107188000Y-81770300D01*
X107188000Y-81770300D02*
X107469300Y-81770300D01*
X107469300Y-81770300D02*
X108322100Y-82623100D01*
X108322100Y-82623100D02*
X108322100Y-88771300D01*
X108322100Y-88771300D02*
X107475400Y-89618000D01*
X107475400Y-89618000D02*
X106574800Y-89618000D01*
X106574800Y-89618000D02*
X104239800Y-91953000D01*
X104239800Y-91953000D02*
X89206300Y-91953000D01*
X89206300Y-91953000D02*
X87408300Y-90155000D01*
G04 #@! TO.N,PA6*
X87408300Y-87615000D02*
X87895200Y-87128100D01*
X87895200Y-87128100D02*
X104659600Y-87128100D01*
X104659600Y-87128100D02*
X106062700Y-85725000D01*
X86233000Y-87615000D02*
X87408300Y-87615000D01*
X107188000Y-85725000D02*
X106062700Y-85725000D01*
G04 #@! TO.N,PA7*
X83693000Y-87615000D02*
X84868300Y-87615000D01*
X107188000Y-88265000D02*
X106062700Y-88265000D01*
X106062700Y-88265000D02*
X104934800Y-89392900D01*
X104934800Y-89392900D02*
X87269900Y-89392900D01*
X87269900Y-89392900D02*
X86667300Y-88790300D01*
X86667300Y-88790300D02*
X85676200Y-88790300D01*
X85676200Y-88790300D02*
X84868300Y-87982400D01*
X84868300Y-87982400D02*
X84868300Y-87615000D01*
G04 #@! TO.N,PC0*
X91948000Y-113665000D02*
X86233000Y-113665000D01*
G04 #@! TO.N,PC1*
X83693000Y-113665000D02*
X84868300Y-113665000D01*
X91948000Y-116205000D02*
X90822700Y-116205000D01*
X90822700Y-116205000D02*
X89458000Y-114840300D01*
X89458000Y-114840300D02*
X85676200Y-114840300D01*
X85676200Y-114840300D02*
X84868300Y-114032400D01*
X84868300Y-114032400D02*
X84868300Y-113665000D01*
G04 #@! TO.N,PB0*
X91948000Y-123825000D02*
X86233000Y-123825000D01*
G04 #@! TO.N,PB1*
X90822700Y-126365000D02*
X86600300Y-126365000D01*
X86600300Y-126365000D02*
X84868300Y-124633000D01*
X84868300Y-124633000D02*
X84868300Y-123825000D01*
X83693000Y-123825000D02*
X84868300Y-123825000D01*
X91948000Y-126365000D02*
X90822700Y-126365000D01*
G04 #@! TO.N,PB2*
X88489700Y-122253900D02*
X87520800Y-121285000D01*
X87520800Y-121285000D02*
X86233000Y-121285000D01*
G04 #@! TO.N,PB3*
X83693000Y-121285000D02*
X83693000Y-122460300D01*
X107188000Y-128905000D02*
X106062700Y-128905000D01*
X106062700Y-128905000D02*
X104937400Y-127779700D01*
X104937400Y-127779700D02*
X85932900Y-127779700D01*
X85932900Y-127779700D02*
X82517700Y-124364500D01*
X82517700Y-124364500D02*
X82517700Y-123268200D01*
X82517700Y-123268200D02*
X83325600Y-122460300D01*
X83325600Y-122460300D02*
X83693000Y-122460300D01*
G04 #@! TO.N,PB4*
X86233000Y-118745000D02*
X87408300Y-118745000D01*
X107188000Y-126365000D02*
X107188000Y-125239700D01*
X107188000Y-125239700D02*
X107469300Y-125239700D01*
X107469300Y-125239700D02*
X108331400Y-124377600D01*
X108331400Y-124377600D02*
X108331400Y-123327000D01*
X108331400Y-123327000D02*
X107704000Y-122699600D01*
X107704000Y-122699600D02*
X106840400Y-122699600D01*
X106840400Y-122699600D02*
X104061100Y-119920300D01*
X104061100Y-119920300D02*
X88583600Y-119920300D01*
X88583600Y-119920300D02*
X87408300Y-118745000D01*
G04 #@! TO.N,PB5*
X83693000Y-119920300D02*
X84060400Y-119920300D01*
X84060400Y-119920300D02*
X84868300Y-120728200D01*
X84868300Y-120728200D02*
X84868300Y-121589900D01*
X84868300Y-121589900D02*
X85833400Y-122555000D01*
X85833400Y-122555000D02*
X87765100Y-122555000D01*
X87765100Y-122555000D02*
X88189300Y-122979200D01*
X88189300Y-122979200D02*
X88790200Y-122979200D01*
X88790200Y-122979200D02*
X89108400Y-122661000D01*
X89108400Y-122661000D02*
X104898700Y-122661000D01*
X104898700Y-122661000D02*
X106062700Y-123825000D01*
X83693000Y-118745000D02*
X83693000Y-119920300D01*
X107188000Y-123825000D02*
X106062700Y-123825000D01*
G04 #@! TO.N,PB6*
X86233000Y-116205000D02*
X87408300Y-116205000D01*
X107188000Y-121285000D02*
X106062700Y-121285000D01*
X106062700Y-121285000D02*
X102158000Y-117380300D01*
X102158000Y-117380300D02*
X88583600Y-117380300D01*
X88583600Y-117380300D02*
X87408300Y-116205000D01*
G04 #@! TO.N,PB7*
X83693000Y-116205000D02*
X83693000Y-115029700D01*
X107188000Y-118745000D02*
X106062700Y-118745000D01*
X106062700Y-118745000D02*
X99800400Y-112482700D01*
X99800400Y-112482700D02*
X83131800Y-112482700D01*
X83131800Y-112482700D02*
X82517700Y-113096800D01*
X82517700Y-113096800D02*
X82517700Y-114221800D01*
X82517700Y-114221800D02*
X83325600Y-115029700D01*
X83325600Y-115029700D02*
X83693000Y-115029700D01*
G04 #@! TO.N,Net-(U2-Pad22)*
X148463000Y-80645000D02*
X149588300Y-80645000D01*
X153543000Y-80645000D02*
X152413200Y-81774800D01*
X152413200Y-81774800D02*
X150494900Y-81774800D01*
X150494900Y-81774800D02*
X149588300Y-80868200D01*
X149588300Y-80868200D02*
X149588300Y-80645000D01*
G04 #@! TO.N,A3*
X111633000Y-86995000D02*
X112758300Y-86995000D01*
X139827000Y-73533000D02*
X139827000Y-74721900D01*
X139827000Y-74721900D02*
X139455400Y-74721900D01*
X139455400Y-74721900D02*
X138638100Y-75539200D01*
X138638100Y-75539200D02*
X138638100Y-78091500D01*
X138638100Y-78091500D02*
X135594200Y-81135400D01*
X135594200Y-81135400D02*
X134899100Y-81135400D01*
X134899100Y-81135400D02*
X133147500Y-82887000D01*
X133147500Y-82887000D02*
X133147500Y-84217400D01*
X133147500Y-84217400D02*
X131495200Y-85869700D01*
X131495200Y-85869700D02*
X113883600Y-85869700D01*
X113883600Y-85869700D02*
X112758300Y-86995000D01*
G04 #@! TO.N,A4*
X111633000Y-89535000D02*
X112758300Y-89535000D01*
X142367000Y-76073000D02*
X142367000Y-77261900D01*
X142367000Y-77261900D02*
X139573000Y-80055900D01*
X139573000Y-80055900D02*
X139573000Y-80993700D01*
X139573000Y-80993700D02*
X132157000Y-88409700D01*
X132157000Y-88409700D02*
X113883600Y-88409700D01*
X113883600Y-88409700D02*
X112758300Y-89535000D01*
G04 #@! TO.N,Net-(R6-Pad2)*
X177253000Y-99859000D02*
X176127700Y-99859000D01*
X176127700Y-99859000D02*
X174487400Y-98218700D01*
X174487400Y-98218700D02*
X160252300Y-98218700D01*
X160252300Y-98218700D02*
X158674000Y-99797000D01*
G04 #@! TO.N,Net-(R5-Pad2)*
X164879300Y-99797000D02*
X164879300Y-99604200D01*
X164879300Y-99604200D02*
X165811800Y-98671700D01*
X165811800Y-98671700D02*
X171638400Y-98671700D01*
X171638400Y-98671700D02*
X172825700Y-99859000D01*
X173951000Y-99859000D02*
X172825700Y-99859000D01*
X163754000Y-99797000D02*
X164879300Y-99797000D01*
G04 #@! TO.N,Net-(JP1-Pad1)*
X113483000Y-122905000D02*
X113483000Y-122268100D01*
X113483000Y-122268100D02*
X112193000Y-120978100D01*
X112193000Y-120978100D02*
X112193000Y-115908300D01*
X112193000Y-115908300D02*
X111735000Y-115450300D01*
X121260000Y-132486000D02*
X113483000Y-124709000D01*
X113483000Y-124709000D02*
X113483000Y-122905000D01*
X111735000Y-114275000D02*
X111735000Y-115450300D01*
G04 #@! TO.N,~INTA*
X120510100Y-118564600D02*
X129064200Y-118564600D01*
X129064200Y-118564600D02*
X130004600Y-119505000D01*
X130004600Y-119505000D02*
X134083000Y-119505000D01*
X134083000Y-119505000D02*
X134398300Y-119820300D01*
X134398300Y-119820300D02*
X139723800Y-119820300D01*
X139723800Y-119820300D02*
X140567700Y-118976400D01*
X140567700Y-118976400D02*
X140567700Y-118695000D01*
X141693000Y-118695000D02*
X140567700Y-118695000D01*
G04 #@! TO.N,8255-CS*
X91948000Y-93345000D02*
X93073300Y-93345000D01*
X111633000Y-94615000D02*
X94343300Y-94615000D01*
X94343300Y-94615000D02*
X93073300Y-93345000D01*
G04 #@! TO.N,8259-CS*
X111633000Y-97155000D02*
X111633000Y-98280300D01*
X136613000Y-133935000D02*
X121109000Y-133935000D01*
X121109000Y-133935000D02*
X112060900Y-124886900D01*
X112060900Y-124886900D02*
X112060900Y-122026300D01*
X112060900Y-122026300D02*
X107509600Y-117475000D01*
X107509600Y-117475000D02*
X106786100Y-117475000D01*
X106786100Y-117475000D02*
X105194500Y-115883400D01*
X105194500Y-115883400D02*
X105194500Y-115154000D01*
X105194500Y-115154000D02*
X92275500Y-102235000D01*
X92275500Y-102235000D02*
X91600600Y-102235000D01*
X91600600Y-102235000D02*
X90819300Y-101453700D01*
X90819300Y-101453700D02*
X90819300Y-100436900D01*
X90819300Y-100436900D02*
X91487300Y-99768900D01*
X91487300Y-99768900D02*
X102209300Y-99768900D01*
X102209300Y-99768900D02*
X104586600Y-102146200D01*
X104586600Y-102146200D02*
X107611500Y-102146200D01*
X107611500Y-102146200D02*
X110507700Y-99250000D01*
X110507700Y-99250000D02*
X110507700Y-99128700D01*
X110507700Y-99128700D02*
X111356100Y-98280300D01*
X111356100Y-98280300D02*
X111633000Y-98280300D01*
G04 #@! TO.N,/IR0*
X176653000Y-126015000D02*
X176653000Y-124839700D01*
X162013000Y-118695000D02*
X163138300Y-118695000D01*
X163138300Y-118695000D02*
X163138300Y-118976300D01*
X163138300Y-118976300D02*
X166367000Y-122205000D01*
X166367000Y-122205000D02*
X177073800Y-122205000D01*
X177073800Y-122205000D02*
X177828300Y-122959500D01*
X177828300Y-122959500D02*
X177828300Y-124031800D01*
X177828300Y-124031800D02*
X177020400Y-124839700D01*
X177020400Y-124839700D02*
X176653000Y-124839700D01*
G04 #@! TO.N,/IR1*
X159473000Y-118695000D02*
X160598300Y-118695000D01*
X160598300Y-118695000D02*
X160598300Y-118976300D01*
X160598300Y-118976300D02*
X165097000Y-123475000D01*
X165097000Y-123475000D02*
X176653000Y-123475000D01*
G04 #@! TO.N,/IR2*
X176653000Y-120935000D02*
X175477700Y-120935000D01*
X156933000Y-118695000D02*
X158058300Y-118695000D01*
X158058300Y-118695000D02*
X158058300Y-118413700D01*
X158058300Y-118413700D02*
X158908100Y-117563900D01*
X158908100Y-117563900D02*
X172106600Y-117563900D01*
X172106600Y-117563900D02*
X175477700Y-120935000D01*
G04 #@! TO.N,8254-2*
X166294000Y-99797000D02*
X154616300Y-111474700D01*
X154616300Y-111474700D02*
X149913200Y-111474700D01*
G04 #@! TO.N,8254-1*
X161214000Y-115037000D02*
X160088700Y-115037000D01*
X149313000Y-118695000D02*
X150438300Y-118695000D01*
X150438300Y-118695000D02*
X150438300Y-118514800D01*
X150438300Y-118514800D02*
X152790800Y-116162300D01*
X152790800Y-116162300D02*
X159244800Y-116162300D01*
X159244800Y-116162300D02*
X160088700Y-115318400D01*
X160088700Y-115318400D02*
X160088700Y-115037000D01*
G04 #@! TO.N,/IR6*
X176653000Y-115855000D02*
X175477700Y-115855000D01*
X146773000Y-118695000D02*
X147898300Y-118695000D01*
X147898300Y-118695000D02*
X147898300Y-118976300D01*
X147898300Y-118976300D02*
X148792400Y-119870400D01*
X148792400Y-119870400D02*
X152270800Y-119870400D01*
X152270800Y-119870400D02*
X153123000Y-119018200D01*
X153123000Y-119018200D02*
X153123000Y-118293800D01*
X153123000Y-118293800D02*
X154753600Y-116663200D01*
X154753600Y-116663200D02*
X174669500Y-116663200D01*
X174669500Y-116663200D02*
X175477700Y-115855000D01*
G04 #@! TO.N,8251-A*
X172448300Y-95885000D02*
X174331600Y-97768300D01*
X174331600Y-97768300D02*
X176826800Y-97768300D01*
X176826800Y-97768300D02*
X178433500Y-99375000D01*
X178433500Y-99375000D02*
X178433500Y-100325900D01*
X178433500Y-100325900D02*
X177511700Y-101247700D01*
X177511700Y-101247700D02*
X165701600Y-101247700D01*
X165701600Y-101247700D02*
X152324000Y-114625300D01*
X152324000Y-114625300D02*
X152324000Y-115358700D01*
X152324000Y-115358700D02*
X150563300Y-117119400D01*
X150563300Y-117119400D02*
X146652500Y-117119400D01*
X146652500Y-117119400D02*
X145358300Y-118413600D01*
X145358300Y-118413600D02*
X145358300Y-118695000D01*
X171323000Y-95885000D02*
X172448300Y-95885000D01*
X144233000Y-118695000D02*
X145358300Y-118695000D01*
G04 #@! TO.N,Net-(J7-Pad1)*
X132493300Y-109855000D02*
X138872500Y-103475800D01*
X138872500Y-103475800D02*
X146439900Y-103475800D01*
X146439900Y-103475800D02*
X149784000Y-100131700D01*
X149784000Y-100131700D02*
X149784000Y-99434500D01*
X149784000Y-99434500D02*
X151757900Y-97460600D01*
X151757900Y-97460600D02*
X156185800Y-97460600D01*
X156185800Y-97460600D02*
X157497700Y-96148700D01*
X157497700Y-96148700D02*
X157497700Y-95885000D01*
X131318000Y-109855000D02*
X132493300Y-109855000D01*
X158623000Y-95885000D02*
X157497700Y-95885000D01*
X126238000Y-109855000D02*
X123698000Y-109855000D01*
X131318000Y-109855000D02*
X128778000Y-109855000D01*
G04 #@! TO.N,8251A-CS*
X112758300Y-92075000D02*
X113883600Y-90949700D01*
X113883600Y-90949700D02*
X150510800Y-90949700D01*
X150510800Y-90949700D02*
X150958600Y-91397500D01*
X150958600Y-91397500D02*
X159226700Y-91397500D01*
X111633000Y-92075000D02*
X112758300Y-92075000D01*
G04 #@! TO.N,Net-(J7-Pad2)*
X152468700Y-99797000D02*
X152468700Y-100008000D01*
X152468700Y-100008000D02*
X148245400Y-104231300D01*
X148245400Y-104231300D02*
X139390800Y-104231300D01*
X139390800Y-104231300D02*
X132584100Y-111038000D01*
X132584100Y-111038000D02*
X128218300Y-111038000D01*
X128218300Y-111038000D02*
X127508000Y-110327700D01*
X127508000Y-110327700D02*
X127508000Y-109424000D01*
X127508000Y-109424000D02*
X126574300Y-108490300D01*
X126574300Y-108490300D02*
X125681200Y-108490300D01*
X125681200Y-108490300D02*
X124873300Y-107682400D01*
X124873300Y-107682400D02*
X124873300Y-107315000D01*
X153594000Y-99797000D02*
X152468700Y-99797000D01*
X123698000Y-107315000D02*
X124873300Y-107315000D01*
X161214000Y-99797000D02*
X160088700Y-99797000D01*
X153594000Y-99797000D02*
X154719300Y-99797000D01*
X154719300Y-99797000D02*
X154719300Y-100078300D01*
X154719300Y-100078300D02*
X155563300Y-100922300D01*
X155563300Y-100922300D02*
X159244800Y-100922300D01*
X159244800Y-100922300D02*
X160088700Y-100078400D01*
X160088700Y-100078400D02*
X160088700Y-99797000D01*
G04 #@! TO.N,8254-CS*
X111633000Y-99695000D02*
X112758300Y-99695000D01*
X145974000Y-99797000D02*
X144848700Y-99797000D01*
X144848700Y-99797000D02*
X144848700Y-100078400D01*
X144848700Y-100078400D02*
X144004800Y-100922300D01*
X144004800Y-100922300D02*
X140306400Y-100922300D01*
X140306400Y-100922300D02*
X132738300Y-108490400D01*
X132738300Y-108490400D02*
X130792400Y-108490400D01*
X130792400Y-108490400D02*
X130048000Y-107746000D01*
X130048000Y-107746000D02*
X130048000Y-106879000D01*
X130048000Y-106879000D02*
X123989300Y-100820300D01*
X123989300Y-100820300D02*
X113883600Y-100820300D01*
X113883600Y-100820300D02*
X112758300Y-99695000D01*
G04 #@! TO.N,Net-(J2-Pad2)*
X116713000Y-107315000D02*
X115348300Y-107315000D01*
X114173000Y-107315000D02*
X115348300Y-107315000D01*
G04 #@! TO.N,Net-(J7-Pad8)*
X123698000Y-97155000D02*
X123698000Y-98280300D01*
X123698000Y-98280300D02*
X123979300Y-98280300D01*
X123979300Y-98280300D02*
X131318000Y-105619000D01*
X131318000Y-105619000D02*
X131318000Y-107315000D01*
D21*
G04 #@! TO.N,SBC5V*
X109347000Y-76073000D02*
X106807000Y-76073000D01*
D22*
G04 #@! TO.N,/IR3*
X175477700Y-118395000D02*
X174196300Y-117113600D01*
X174196300Y-117113600D02*
X156827200Y-117113600D01*
X156827200Y-117113600D02*
X155518300Y-118422500D01*
X155518300Y-118422500D02*
X155518300Y-118695000D01*
X176653000Y-118395000D02*
X175477700Y-118395000D01*
X154393000Y-118695000D02*
X155518300Y-118695000D01*
G04 #@! TO.N,Net-(J8-Pad1)*
X176653000Y-94090300D02*
X177020400Y-94090300D01*
X177020400Y-94090300D02*
X177828300Y-94898200D01*
X177828300Y-94898200D02*
X177828300Y-95950500D01*
X177828300Y-95950500D02*
X177121400Y-96657400D01*
X177121400Y-96657400D02*
X174407000Y-96657400D01*
X174407000Y-96657400D02*
X172458200Y-94708600D01*
X172458200Y-94708600D02*
X168347500Y-94708600D01*
X168347500Y-94708600D02*
X167513000Y-95543100D01*
X167513000Y-95543100D02*
X167513000Y-96276800D01*
X167513000Y-96276800D02*
X166218700Y-97571100D01*
X166218700Y-97571100D02*
X159280600Y-97571100D01*
X159280600Y-97571100D02*
X157259300Y-99592400D01*
X157259300Y-99592400D02*
X157259300Y-99797000D01*
X176653000Y-92915000D02*
X176653000Y-94090300D01*
X156134000Y-99797000D02*
X157259300Y-99797000D01*
G04 #@! TD*
D23*
G04 #@! TO.N,GND*
G36*
X180138001Y-137085000D02*
X81863000Y-137085000D01*
X81863000Y-132780431D01*
X84518000Y-132780431D01*
X84518000Y-133669569D01*
X84858259Y-134491026D01*
X85486974Y-135119741D01*
X86308431Y-135460000D01*
X87197569Y-135460000D01*
X88019026Y-135119741D01*
X88647741Y-134491026D01*
X88988000Y-133669569D01*
X88988000Y-132780431D01*
X88866043Y-132486000D01*
X109636887Y-132486000D01*
X109748260Y-133045909D01*
X110065423Y-133520577D01*
X110540091Y-133837740D01*
X110958667Y-133921000D01*
X111241333Y-133921000D01*
X111659909Y-133837740D01*
X112134577Y-133520577D01*
X112451740Y-133045909D01*
X112563113Y-132486000D01*
X112451740Y-131926091D01*
X112134577Y-131451423D01*
X111659909Y-131134260D01*
X111241333Y-131051000D01*
X110958667Y-131051000D01*
X110540091Y-131134260D01*
X110065423Y-131451423D01*
X109748260Y-131926091D01*
X109636887Y-132486000D01*
X88866043Y-132486000D01*
X88647741Y-131958974D01*
X88019026Y-131330259D01*
X87197569Y-130990000D01*
X86308431Y-130990000D01*
X85486974Y-131330259D01*
X84858259Y-131958974D01*
X84518000Y-132780431D01*
X81863000Y-132780431D01*
X81863000Y-124752634D01*
X81969771Y-124912429D01*
X82033230Y-124954831D01*
X85342570Y-128264172D01*
X85384971Y-128327629D01*
X85636363Y-128495604D01*
X85858048Y-128539700D01*
X85858052Y-128539700D01*
X85932899Y-128554588D01*
X86007746Y-128539700D01*
X90557550Y-128539700D01*
X90484887Y-128905000D01*
X90596260Y-129464909D01*
X90913423Y-129939577D01*
X91388091Y-130256740D01*
X91806667Y-130340000D01*
X92089333Y-130340000D01*
X92507909Y-130256740D01*
X92982577Y-129939577D01*
X93299740Y-129464909D01*
X93411113Y-128905000D01*
X93338450Y-128539700D01*
X104622599Y-128539700D01*
X105472371Y-129389473D01*
X105514771Y-129452929D01*
X105766163Y-129620904D01*
X105967214Y-129660896D01*
X106153423Y-129939577D01*
X106628091Y-130256740D01*
X107046667Y-130340000D01*
X107329333Y-130340000D01*
X107747909Y-130256740D01*
X108222577Y-129939577D01*
X108539740Y-129464909D01*
X108651113Y-128905000D01*
X108548785Y-128390561D01*
X109665000Y-128390561D01*
X109665000Y-128961439D01*
X109883466Y-129488862D01*
X110287138Y-129892534D01*
X110814561Y-130111000D01*
X111385439Y-130111000D01*
X111912862Y-129892534D01*
X112316534Y-129488862D01*
X112535000Y-128961439D01*
X112535000Y-128390561D01*
X112316534Y-127863138D01*
X111912862Y-127459466D01*
X111385439Y-127241000D01*
X110814561Y-127241000D01*
X110287138Y-127459466D01*
X109883466Y-127863138D01*
X109665000Y-128390561D01*
X108548785Y-128390561D01*
X108539740Y-128345091D01*
X108222577Y-127870423D01*
X107870242Y-127635000D01*
X108222577Y-127399577D01*
X108539740Y-126924909D01*
X108651113Y-126365000D01*
X108539740Y-125805091D01*
X108315023Y-125468778D01*
X108815873Y-124967929D01*
X108879329Y-124925529D01*
X109047304Y-124674137D01*
X109091400Y-124452452D01*
X109091400Y-124452448D01*
X109106288Y-124377600D01*
X109091400Y-124302752D01*
X109091400Y-123401848D01*
X109106288Y-123327000D01*
X109091400Y-123252152D01*
X109091400Y-123252148D01*
X109079188Y-123190750D01*
X109558000Y-123190750D01*
X109558000Y-123781309D01*
X109654673Y-124014698D01*
X109833301Y-124193327D01*
X110066690Y-124290000D01*
X110657250Y-124290000D01*
X110816000Y-124131250D01*
X110816000Y-123032000D01*
X109716750Y-123032000D01*
X109558000Y-123190750D01*
X109079188Y-123190750D01*
X109047304Y-123030463D01*
X108879329Y-122779071D01*
X108815873Y-122736671D01*
X108294331Y-122215130D01*
X108293349Y-122213660D01*
X108539740Y-121844909D01*
X108651113Y-121285000D01*
X108539740Y-120725091D01*
X108222577Y-120250423D01*
X107870242Y-120015000D01*
X108222577Y-119779577D01*
X108429578Y-119469779D01*
X110479798Y-121520000D01*
X110066690Y-121520000D01*
X109833301Y-121616673D01*
X109654673Y-121795302D01*
X109558000Y-122028691D01*
X109558000Y-122619250D01*
X109716750Y-122778000D01*
X110816000Y-122778000D01*
X110816000Y-122758000D01*
X111070000Y-122758000D01*
X111070000Y-122778000D01*
X111090000Y-122778000D01*
X111090000Y-123032000D01*
X111070000Y-123032000D01*
X111070000Y-124131250D01*
X111228750Y-124290000D01*
X111300900Y-124290000D01*
X111300900Y-124812053D01*
X111286012Y-124886900D01*
X111300900Y-124961747D01*
X111300900Y-124961751D01*
X111344996Y-125183436D01*
X111512971Y-125434829D01*
X111576430Y-125477231D01*
X120518671Y-134419473D01*
X120561071Y-134482929D01*
X120624527Y-134525329D01*
X120812462Y-134650904D01*
X120860605Y-134660480D01*
X121034148Y-134695000D01*
X121034152Y-134695000D01*
X121109000Y-134709888D01*
X121183848Y-134695000D01*
X135165560Y-134695000D01*
X135165560Y-134735000D01*
X135214843Y-134982765D01*
X135355191Y-135192809D01*
X135565235Y-135333157D01*
X135813000Y-135382440D01*
X137413000Y-135382440D01*
X137660765Y-135333157D01*
X137870809Y-135192809D01*
X138011157Y-134982765D01*
X138037785Y-134848894D01*
X138118423Y-134969577D01*
X138593091Y-135286740D01*
X139011667Y-135370000D01*
X139294333Y-135370000D01*
X139712909Y-135286740D01*
X140187577Y-134969577D01*
X140423000Y-134617242D01*
X140658423Y-134969577D01*
X141133091Y-135286740D01*
X141551667Y-135370000D01*
X141834333Y-135370000D01*
X142252909Y-135286740D01*
X142727577Y-134969577D01*
X142963000Y-134617242D01*
X143198423Y-134969577D01*
X143673091Y-135286740D01*
X144091667Y-135370000D01*
X144374333Y-135370000D01*
X144792909Y-135286740D01*
X145267577Y-134969577D01*
X145503000Y-134617242D01*
X145738423Y-134969577D01*
X146213091Y-135286740D01*
X146631667Y-135370000D01*
X146914333Y-135370000D01*
X147332909Y-135286740D01*
X147807577Y-134969577D01*
X148043000Y-134617242D01*
X148278423Y-134969577D01*
X148753091Y-135286740D01*
X149171667Y-135370000D01*
X149454333Y-135370000D01*
X149872909Y-135286740D01*
X150347577Y-134969577D01*
X150583000Y-134617242D01*
X150818423Y-134969577D01*
X151293091Y-135286740D01*
X151711667Y-135370000D01*
X151994333Y-135370000D01*
X152412909Y-135286740D01*
X152887577Y-134969577D01*
X153123000Y-134617242D01*
X153358423Y-134969577D01*
X153833091Y-135286740D01*
X154251667Y-135370000D01*
X154534333Y-135370000D01*
X154952909Y-135286740D01*
X155427577Y-134969577D01*
X155663000Y-134617242D01*
X155898423Y-134969577D01*
X156373091Y-135286740D01*
X156791667Y-135370000D01*
X157074333Y-135370000D01*
X157492909Y-135286740D01*
X157967577Y-134969577D01*
X158203000Y-134617242D01*
X158438423Y-134969577D01*
X158913091Y-135286740D01*
X159331667Y-135370000D01*
X159614333Y-135370000D01*
X160032909Y-135286740D01*
X160507577Y-134969577D01*
X160743000Y-134617242D01*
X160978423Y-134969577D01*
X161453091Y-135286740D01*
X161871667Y-135370000D01*
X162154333Y-135370000D01*
X162572909Y-135286740D01*
X163047577Y-134969577D01*
X163283000Y-134617242D01*
X163518423Y-134969577D01*
X163993091Y-135286740D01*
X164411667Y-135370000D01*
X164694333Y-135370000D01*
X165112909Y-135286740D01*
X165587577Y-134969577D01*
X165823000Y-134617242D01*
X166058423Y-134969577D01*
X166533091Y-135286740D01*
X166951667Y-135370000D01*
X167234333Y-135370000D01*
X167652909Y-135286740D01*
X168127577Y-134969577D01*
X168383947Y-134585892D01*
X168480611Y-134790134D01*
X168895577Y-135166041D01*
X169283961Y-135326904D01*
X169506000Y-135204915D01*
X169506000Y-134062000D01*
X169760000Y-134062000D01*
X169760000Y-135204915D01*
X169982039Y-135326904D01*
X170370423Y-135166041D01*
X170785389Y-134790134D01*
X171024914Y-134284041D01*
X170903629Y-134062000D01*
X169760000Y-134062000D01*
X169506000Y-134062000D01*
X169486000Y-134062000D01*
X169486000Y-133808000D01*
X169506000Y-133808000D01*
X169506000Y-132665085D01*
X169760000Y-132665085D01*
X169760000Y-133808000D01*
X170903629Y-133808000D01*
X171024914Y-133585959D01*
X170785389Y-133079866D01*
X170498998Y-132820431D01*
X172558000Y-132820431D01*
X172558000Y-133709569D01*
X172898259Y-134531026D01*
X173526974Y-135159741D01*
X174348431Y-135500000D01*
X175237569Y-135500000D01*
X176059026Y-135159741D01*
X176687741Y-134531026D01*
X177028000Y-133709569D01*
X177028000Y-132820431D01*
X176687741Y-131998974D01*
X176059026Y-131370259D01*
X175237569Y-131030000D01*
X174348431Y-131030000D01*
X173526974Y-131370259D01*
X172898259Y-131998974D01*
X172558000Y-132820431D01*
X170498998Y-132820431D01*
X170370423Y-132703959D01*
X169982039Y-132543096D01*
X169760000Y-132665085D01*
X169506000Y-132665085D01*
X169283961Y-132543096D01*
X168895577Y-132703959D01*
X168480611Y-133079866D01*
X168383947Y-133284108D01*
X168127577Y-132900423D01*
X167652909Y-132583260D01*
X167234333Y-132500000D01*
X166951667Y-132500000D01*
X166533091Y-132583260D01*
X166058423Y-132900423D01*
X165823000Y-133252758D01*
X165587577Y-132900423D01*
X165112909Y-132583260D01*
X164694333Y-132500000D01*
X164411667Y-132500000D01*
X163993091Y-132583260D01*
X163518423Y-132900423D01*
X163283000Y-133252758D01*
X163047577Y-132900423D01*
X162572909Y-132583260D01*
X162154333Y-132500000D01*
X161871667Y-132500000D01*
X161453091Y-132583260D01*
X160978423Y-132900423D01*
X160743000Y-133252758D01*
X160507577Y-132900423D01*
X160032909Y-132583260D01*
X159614333Y-132500000D01*
X159331667Y-132500000D01*
X158913091Y-132583260D01*
X158438423Y-132900423D01*
X158203000Y-133252758D01*
X157967577Y-132900423D01*
X157492909Y-132583260D01*
X157074333Y-132500000D01*
X156791667Y-132500000D01*
X156373091Y-132583260D01*
X155898423Y-132900423D01*
X155663000Y-133252758D01*
X155427577Y-132900423D01*
X154952909Y-132583260D01*
X154534333Y-132500000D01*
X154251667Y-132500000D01*
X153833091Y-132583260D01*
X153358423Y-132900423D01*
X153123000Y-133252758D01*
X152887577Y-132900423D01*
X152412909Y-132583260D01*
X151994333Y-132500000D01*
X151711667Y-132500000D01*
X151293091Y-132583260D01*
X150818423Y-132900423D01*
X150583000Y-133252758D01*
X150347577Y-132900423D01*
X149872909Y-132583260D01*
X149454333Y-132500000D01*
X149171667Y-132500000D01*
X148753091Y-132583260D01*
X148278423Y-132900423D01*
X148043000Y-133252758D01*
X147807577Y-132900423D01*
X147528896Y-132714214D01*
X147488904Y-132513163D01*
X147447102Y-132450602D01*
X147363329Y-132325226D01*
X147363327Y-132325224D01*
X147320929Y-132261771D01*
X147257476Y-132219373D01*
X143867600Y-128829499D01*
X143867600Y-120085430D01*
X144091667Y-120130000D01*
X144374333Y-120130000D01*
X144792909Y-120046740D01*
X145267577Y-119729577D01*
X145453786Y-119450896D01*
X145540667Y-119433614D01*
X145738423Y-119729577D01*
X146213091Y-120046740D01*
X146631667Y-120130000D01*
X146914333Y-120130000D01*
X147332909Y-120046740D01*
X147669221Y-119822023D01*
X148202073Y-120354875D01*
X148244471Y-120418329D01*
X148307924Y-120460727D01*
X148307926Y-120460729D01*
X148404115Y-120525000D01*
X148495863Y-120586304D01*
X148717548Y-120630400D01*
X148717552Y-120630400D01*
X148792399Y-120645288D01*
X148867246Y-120630400D01*
X152195953Y-120630400D01*
X152270800Y-120645288D01*
X152345647Y-120630400D01*
X152345652Y-120630400D01*
X152567337Y-120586304D01*
X152818729Y-120418329D01*
X152861131Y-120354870D01*
X153435154Y-119780847D01*
X153833091Y-120046740D01*
X154251667Y-120130000D01*
X154534333Y-120130000D01*
X154952909Y-120046740D01*
X155427577Y-119729577D01*
X155613786Y-119450896D01*
X155700667Y-119433614D01*
X155898423Y-119729577D01*
X156373091Y-120046740D01*
X156791667Y-120130000D01*
X157074333Y-120130000D01*
X157492909Y-120046740D01*
X157967577Y-119729577D01*
X158153786Y-119450896D01*
X158240667Y-119433614D01*
X158438423Y-119729577D01*
X158913091Y-120046740D01*
X159331667Y-120130000D01*
X159614333Y-120130000D01*
X160032909Y-120046740D01*
X160369222Y-119822023D01*
X164506671Y-123959473D01*
X164549071Y-124022929D01*
X164800463Y-124190904D01*
X165022148Y-124235000D01*
X165022152Y-124235000D01*
X165097000Y-124249888D01*
X165171848Y-124235000D01*
X175374822Y-124235000D01*
X175582375Y-124545625D01*
X175880761Y-124745000D01*
X175582375Y-124944375D01*
X175254161Y-125435582D01*
X175138908Y-126015000D01*
X175254161Y-126594418D01*
X175582375Y-127085625D01*
X176073582Y-127413839D01*
X176506744Y-127500000D01*
X176799256Y-127500000D01*
X177232418Y-127413839D01*
X177723625Y-127085625D01*
X178051839Y-126594418D01*
X178167092Y-126015000D01*
X178051839Y-125435582D01*
X177830531Y-125104371D01*
X178312773Y-124622129D01*
X178376229Y-124579729D01*
X178544204Y-124328337D01*
X178588300Y-124106652D01*
X178588300Y-124106648D01*
X178603188Y-124031801D01*
X178588300Y-123956954D01*
X178588300Y-123034346D01*
X178603188Y-122959499D01*
X178588300Y-122884652D01*
X178588300Y-122884648D01*
X178544204Y-122662963D01*
X178376229Y-122411571D01*
X178312773Y-122369171D01*
X177813988Y-121870387D01*
X178051839Y-121514418D01*
X178167092Y-120935000D01*
X178051839Y-120355582D01*
X177723625Y-119864375D01*
X177425239Y-119665000D01*
X177723625Y-119465625D01*
X178051839Y-118974418D01*
X178167092Y-118395000D01*
X178051839Y-117815582D01*
X177723625Y-117324375D01*
X177705381Y-117312184D01*
X177750765Y-117303157D01*
X177960809Y-117162809D01*
X178101157Y-116952765D01*
X178150440Y-116705000D01*
X178150440Y-115005000D01*
X178101157Y-114757235D01*
X177960809Y-114547191D01*
X177750765Y-114406843D01*
X177503000Y-114357560D01*
X175803000Y-114357560D01*
X175555235Y-114406843D01*
X175345191Y-114547191D01*
X175204843Y-114757235D01*
X175155560Y-115005000D01*
X175155560Y-115156203D01*
X175118602Y-115180898D01*
X174993226Y-115264671D01*
X174993224Y-115264673D01*
X174929771Y-115307071D01*
X174887373Y-115370525D01*
X174354698Y-115903200D01*
X167434173Y-115903200D01*
X167446389Y-115892134D01*
X167685914Y-115386041D01*
X167564629Y-115164000D01*
X166421000Y-115164000D01*
X166421000Y-115184000D01*
X166167000Y-115184000D01*
X166167000Y-115164000D01*
X166147000Y-115164000D01*
X166147000Y-114910000D01*
X166167000Y-114910000D01*
X166167000Y-113767085D01*
X166421000Y-113767085D01*
X166421000Y-114910000D01*
X167564629Y-114910000D01*
X167685914Y-114687959D01*
X167446389Y-114181866D01*
X167031423Y-113805959D01*
X166643039Y-113645096D01*
X166421000Y-113767085D01*
X166167000Y-113767085D01*
X165944961Y-113645096D01*
X165556577Y-113805959D01*
X165141611Y-114181866D01*
X165044947Y-114386108D01*
X164788577Y-114002423D01*
X164313909Y-113685260D01*
X163895333Y-113602000D01*
X163612667Y-113602000D01*
X163194091Y-113685260D01*
X162719423Y-114002423D01*
X162484000Y-114354758D01*
X162248577Y-114002423D01*
X161773909Y-113685260D01*
X161355333Y-113602000D01*
X161072667Y-113602000D01*
X160654091Y-113685260D01*
X160179423Y-114002423D01*
X159993214Y-114281104D01*
X159906333Y-114298386D01*
X159708577Y-114002423D01*
X159233909Y-113685260D01*
X158815333Y-113602000D01*
X158532667Y-113602000D01*
X158114091Y-113685260D01*
X157639423Y-114002423D01*
X157404000Y-114354758D01*
X157168577Y-114002423D01*
X156693909Y-113685260D01*
X156275333Y-113602000D01*
X155992667Y-113602000D01*
X155574091Y-113685260D01*
X155099423Y-114002423D01*
X154864000Y-114354758D01*
X154628577Y-114002423D01*
X154264768Y-113759333D01*
X158290540Y-109733561D01*
X168910000Y-109733561D01*
X168910000Y-110304439D01*
X169128466Y-110831862D01*
X169532138Y-111235534D01*
X170059561Y-111454000D01*
X170630439Y-111454000D01*
X171157862Y-111235534D01*
X171439396Y-110954000D01*
X172856604Y-110954000D01*
X173138138Y-111235534D01*
X173665561Y-111454000D01*
X174236439Y-111454000D01*
X174763862Y-111235534D01*
X175045396Y-110954000D01*
X176158604Y-110954000D01*
X176440138Y-111235534D01*
X176967561Y-111454000D01*
X177538439Y-111454000D01*
X178065862Y-111235534D01*
X178469534Y-110831862D01*
X178688000Y-110304439D01*
X178688000Y-109733561D01*
X178469534Y-109206138D01*
X178065862Y-108802466D01*
X177538439Y-108584000D01*
X176967561Y-108584000D01*
X176440138Y-108802466D01*
X176158604Y-109084000D01*
X175045396Y-109084000D01*
X174763862Y-108802466D01*
X174236439Y-108584000D01*
X173665561Y-108584000D01*
X173138138Y-108802466D01*
X172856604Y-109084000D01*
X171439396Y-109084000D01*
X171157862Y-108802466D01*
X170630439Y-108584000D01*
X170059561Y-108584000D01*
X169532138Y-108802466D01*
X169128466Y-109206138D01*
X168910000Y-109733561D01*
X158290540Y-109733561D01*
X166016403Y-102007700D01*
X177436853Y-102007700D01*
X177511700Y-102022588D01*
X177586547Y-102007700D01*
X177586552Y-102007700D01*
X177808237Y-101963604D01*
X178059629Y-101795629D01*
X178102031Y-101732170D01*
X178917973Y-100916229D01*
X178981429Y-100873829D01*
X179149404Y-100622437D01*
X179193500Y-100400752D01*
X179193500Y-100400748D01*
X179208388Y-100325901D01*
X179193500Y-100251054D01*
X179193500Y-99449847D01*
X179208388Y-99375000D01*
X179193500Y-99300153D01*
X179193500Y-99300148D01*
X179149404Y-99078463D01*
X178981429Y-98827071D01*
X178917973Y-98784671D01*
X177471090Y-97337789D01*
X177669329Y-97205329D01*
X177711731Y-97141870D01*
X178312773Y-96540829D01*
X178376229Y-96498429D01*
X178544204Y-96247037D01*
X178588300Y-96025352D01*
X178588300Y-96025348D01*
X178603188Y-95950500D01*
X178588300Y-95875652D01*
X178588300Y-94973046D01*
X178603188Y-94898199D01*
X178588300Y-94823352D01*
X178588300Y-94823348D01*
X178544204Y-94601663D01*
X178376229Y-94350271D01*
X178312773Y-94307871D01*
X178067715Y-94062814D01*
X178101157Y-94012765D01*
X178150440Y-93765000D01*
X178150440Y-92065000D01*
X178101157Y-91817235D01*
X177960809Y-91607191D01*
X177750765Y-91466843D01*
X177503000Y-91417560D01*
X175803000Y-91417560D01*
X175555235Y-91466843D01*
X175345191Y-91607191D01*
X175204843Y-91817235D01*
X175155560Y-92065000D01*
X175155560Y-93765000D01*
X175204843Y-94012765D01*
X175345191Y-94222809D01*
X175555235Y-94363157D01*
X175658708Y-94383739D01*
X175381355Y-94688076D01*
X175211524Y-95098110D01*
X175332845Y-95328000D01*
X176526000Y-95328000D01*
X176526000Y-95308000D01*
X176780000Y-95308000D01*
X176780000Y-95328000D01*
X176800000Y-95328000D01*
X176800000Y-95582000D01*
X176780000Y-95582000D01*
X176780000Y-95602000D01*
X176526000Y-95602000D01*
X176526000Y-95582000D01*
X175332845Y-95582000D01*
X175211524Y-95811890D01*
X175246941Y-95897400D01*
X174721803Y-95897400D01*
X173048531Y-94224130D01*
X173006129Y-94160671D01*
X172754737Y-93992696D01*
X172533052Y-93948600D01*
X172533047Y-93948600D01*
X172458200Y-93933712D01*
X172383353Y-93948600D01*
X168422346Y-93948600D01*
X168347499Y-93933712D01*
X168272652Y-93948600D01*
X168272648Y-93948600D01*
X168050963Y-93992696D01*
X167799571Y-94160671D01*
X167757171Y-94224127D01*
X167189636Y-94791663D01*
X166802909Y-94533260D01*
X166384333Y-94450000D01*
X166101667Y-94450000D01*
X165683091Y-94533260D01*
X165208423Y-94850423D01*
X165022214Y-95129104D01*
X164935333Y-95146386D01*
X164737577Y-94850423D01*
X164262909Y-94533260D01*
X163844333Y-94450000D01*
X163561667Y-94450000D01*
X163143091Y-94533260D01*
X162668423Y-94850423D01*
X162433000Y-95202758D01*
X162197577Y-94850423D01*
X161722909Y-94533260D01*
X161304333Y-94450000D01*
X161021667Y-94450000D01*
X160603091Y-94533260D01*
X160266838Y-94757937D01*
X159784131Y-94275230D01*
X159741729Y-94211771D01*
X159490337Y-94043796D01*
X159268652Y-93999700D01*
X159268647Y-93999700D01*
X159193800Y-93984812D01*
X159118953Y-93999700D01*
X148007546Y-93999700D01*
X147932699Y-93984812D01*
X147857852Y-93999700D01*
X147857848Y-93999700D01*
X147636163Y-94043796D01*
X147384771Y-94211771D01*
X147342371Y-94275227D01*
X146819519Y-94798080D01*
X146660423Y-94653959D01*
X146570208Y-94616593D01*
X148015002Y-93171800D01*
X172747253Y-93171800D01*
X172822100Y-93186688D01*
X172896947Y-93171800D01*
X172896952Y-93171800D01*
X173118637Y-93127704D01*
X173370029Y-92959729D01*
X173412431Y-92896270D01*
X178468773Y-87839929D01*
X178532229Y-87797529D01*
X178700204Y-87546137D01*
X178744300Y-87324452D01*
X178744300Y-87324448D01*
X178759188Y-87249601D01*
X178744300Y-87174754D01*
X178744300Y-83719046D01*
X178759188Y-83644199D01*
X178744300Y-83569352D01*
X178744300Y-83569348D01*
X178700204Y-83347663D01*
X178532229Y-83096271D01*
X178468773Y-83053871D01*
X177986531Y-82571629D01*
X178207839Y-82240418D01*
X178323092Y-81661000D01*
X178207839Y-81081582D01*
X177879625Y-80590375D01*
X177581239Y-80391000D01*
X177879625Y-80191625D01*
X178207839Y-79700418D01*
X178323092Y-79121000D01*
X178207839Y-78541582D01*
X177879625Y-78050375D01*
X177581239Y-77851000D01*
X177879625Y-77651625D01*
X178207839Y-77160418D01*
X178323092Y-76581000D01*
X178207839Y-76001582D01*
X177879625Y-75510375D01*
X177857967Y-75495904D01*
X178018698Y-75429327D01*
X178197327Y-75250699D01*
X178294000Y-75017310D01*
X178294000Y-74326750D01*
X178135250Y-74168000D01*
X176936000Y-74168000D01*
X176936000Y-74188000D01*
X176682000Y-74188000D01*
X176682000Y-74168000D01*
X175482750Y-74168000D01*
X175324000Y-74326750D01*
X175324000Y-75017310D01*
X175420673Y-75250699D01*
X175599302Y-75429327D01*
X175760033Y-75495904D01*
X175738375Y-75510375D01*
X175530822Y-75821000D01*
X161309000Y-75821000D01*
X161309000Y-75613126D01*
X161151431Y-75232720D01*
X160860280Y-74941569D01*
X160479874Y-74784000D01*
X160068126Y-74784000D01*
X159826704Y-74884000D01*
X159800395Y-74884000D01*
X159708314Y-74865684D01*
X159616233Y-74884000D01*
X159616229Y-74884000D01*
X159343496Y-74938250D01*
X159034218Y-75144903D01*
X158982056Y-75222969D01*
X156476670Y-77728356D01*
X156398604Y-77780518D01*
X156364672Y-77831300D01*
X145917602Y-77831300D01*
X146503787Y-77245115D01*
X146862275Y-77484650D01*
X147299402Y-77571600D01*
X147594598Y-77571600D01*
X148031725Y-77484650D01*
X148527430Y-77153430D01*
X148717000Y-76869719D01*
X148906570Y-77153430D01*
X149402275Y-77484650D01*
X149839402Y-77571600D01*
X150134598Y-77571600D01*
X150571725Y-77484650D01*
X151067430Y-77153430D01*
X151257000Y-76869719D01*
X151446570Y-77153430D01*
X151942275Y-77484650D01*
X152379402Y-77571600D01*
X152674598Y-77571600D01*
X153111725Y-77484650D01*
X153607430Y-77153430D01*
X153797000Y-76869719D01*
X153986570Y-77153430D01*
X154482275Y-77484650D01*
X154919402Y-77571600D01*
X155214598Y-77571600D01*
X155651725Y-77484650D01*
X156147430Y-77153430D01*
X156478650Y-76657725D01*
X156594959Y-76073000D01*
X156478650Y-75488275D01*
X156147430Y-74992570D01*
X155863719Y-74803000D01*
X156147430Y-74613430D01*
X156478650Y-74117725D01*
X156594959Y-73533000D01*
X156478650Y-72948275D01*
X156360199Y-72771000D01*
X164855908Y-72771000D01*
X164971161Y-73350418D01*
X165299375Y-73841625D01*
X165790582Y-74169839D01*
X166223744Y-74256000D01*
X166516256Y-74256000D01*
X166949418Y-74169839D01*
X167440625Y-73841625D01*
X167640000Y-73543239D01*
X167839375Y-73841625D01*
X168330582Y-74169839D01*
X168763744Y-74256000D01*
X169056256Y-74256000D01*
X169489418Y-74169839D01*
X169980625Y-73841625D01*
X169992816Y-73823381D01*
X170001843Y-73868765D01*
X170142191Y-74078809D01*
X170352235Y-74219157D01*
X170600000Y-74268440D01*
X172300000Y-74268440D01*
X172547765Y-74219157D01*
X172757809Y-74078809D01*
X172898157Y-73868765D01*
X172947440Y-73621000D01*
X172947440Y-73064690D01*
X175324000Y-73064690D01*
X175324000Y-73755250D01*
X175482750Y-73914000D01*
X176682000Y-73914000D01*
X176682000Y-72714750D01*
X176936000Y-72714750D01*
X176936000Y-73914000D01*
X178135250Y-73914000D01*
X178294000Y-73755250D01*
X178294000Y-73064690D01*
X178197327Y-72831301D01*
X178018698Y-72652673D01*
X177785309Y-72556000D01*
X177094750Y-72556000D01*
X176936000Y-72714750D01*
X176682000Y-72714750D01*
X176523250Y-72556000D01*
X175832691Y-72556000D01*
X175599302Y-72652673D01*
X175420673Y-72831301D01*
X175324000Y-73064690D01*
X172947440Y-73064690D01*
X172947440Y-71921000D01*
X172898157Y-71673235D01*
X172757809Y-71463191D01*
X172547765Y-71322843D01*
X172300000Y-71273560D01*
X170600000Y-71273560D01*
X170352235Y-71322843D01*
X170142191Y-71463191D01*
X170001843Y-71673235D01*
X169992816Y-71718619D01*
X169980625Y-71700375D01*
X169489418Y-71372161D01*
X169056256Y-71286000D01*
X168763744Y-71286000D01*
X168330582Y-71372161D01*
X167839375Y-71700375D01*
X167640000Y-71998761D01*
X167440625Y-71700375D01*
X166949418Y-71372161D01*
X166516256Y-71286000D01*
X166223744Y-71286000D01*
X165790582Y-71372161D01*
X165299375Y-71700375D01*
X164971161Y-72191582D01*
X164855908Y-72771000D01*
X156360199Y-72771000D01*
X156147430Y-72452570D01*
X155651725Y-72121350D01*
X155214598Y-72034400D01*
X154919402Y-72034400D01*
X154482275Y-72121350D01*
X153986570Y-72452570D01*
X153797000Y-72736281D01*
X153607430Y-72452570D01*
X153111725Y-72121350D01*
X152674598Y-72034400D01*
X152379402Y-72034400D01*
X151942275Y-72121350D01*
X151446570Y-72452570D01*
X151257000Y-72736281D01*
X151067430Y-72452570D01*
X150571725Y-72121350D01*
X150134598Y-72034400D01*
X149839402Y-72034400D01*
X149402275Y-72121350D01*
X148906570Y-72452570D01*
X148717000Y-72736281D01*
X148527430Y-72452570D01*
X148031725Y-72121350D01*
X147594598Y-72034400D01*
X147299402Y-72034400D01*
X146862275Y-72121350D01*
X146538376Y-72337773D01*
X145107331Y-70906730D01*
X145064929Y-70843271D01*
X144813537Y-70675296D01*
X144591852Y-70631200D01*
X144591847Y-70631200D01*
X144517000Y-70616312D01*
X144442153Y-70631200D01*
X116643648Y-70631200D01*
X116568800Y-70616312D01*
X116493952Y-70631200D01*
X116493948Y-70631200D01*
X116272263Y-70675296D01*
X116020871Y-70843271D01*
X115978471Y-70906727D01*
X114804974Y-72080225D01*
X114574598Y-72034400D01*
X114279402Y-72034400D01*
X113842275Y-72121350D01*
X113346570Y-72452570D01*
X113157000Y-72736281D01*
X112967430Y-72452570D01*
X112471725Y-72121350D01*
X112034598Y-72034400D01*
X111739402Y-72034400D01*
X111302275Y-72121350D01*
X110806570Y-72452570D01*
X110605146Y-72754021D01*
X110553821Y-72644510D01*
X110121947Y-72250312D01*
X109706026Y-72078042D01*
X109474000Y-72199183D01*
X109474000Y-73406000D01*
X109494000Y-73406000D01*
X109494000Y-73660000D01*
X109474000Y-73660000D01*
X109474000Y-73680000D01*
X109220000Y-73680000D01*
X109220000Y-73660000D01*
X106934000Y-73660000D01*
X106934000Y-73680000D01*
X106680000Y-73680000D01*
X106680000Y-73660000D01*
X105472531Y-73660000D01*
X105352032Y-73892027D01*
X105600179Y-74421490D01*
X105787950Y-74592881D01*
X105695635Y-74611243D01*
X105485591Y-74751591D01*
X105345243Y-74961635D01*
X105295960Y-75209400D01*
X105295960Y-76936600D01*
X105345243Y-77184365D01*
X105485591Y-77394409D01*
X105695635Y-77534757D01*
X105943400Y-77584040D01*
X107670600Y-77584040D01*
X107918365Y-77534757D01*
X108128409Y-77394409D01*
X108268757Y-77184365D01*
X108273932Y-77158349D01*
X108762275Y-77484650D01*
X109199402Y-77571600D01*
X109494598Y-77571600D01*
X109931725Y-77484650D01*
X110427430Y-77153430D01*
X110617000Y-76869719D01*
X110806570Y-77153430D01*
X111302275Y-77484650D01*
X111739402Y-77571600D01*
X112034598Y-77571600D01*
X112471725Y-77484650D01*
X112967430Y-77153430D01*
X113157000Y-76869719D01*
X113346570Y-77153430D01*
X113842275Y-77484650D01*
X114279402Y-77571600D01*
X114574598Y-77571600D01*
X115011725Y-77484650D01*
X115507430Y-77153430D01*
X115697000Y-76869719D01*
X115886570Y-77153430D01*
X116382275Y-77484650D01*
X116819402Y-77571600D01*
X117114598Y-77571600D01*
X117551725Y-77484650D01*
X118047430Y-77153430D01*
X118237000Y-76869719D01*
X118426570Y-77153430D01*
X118922275Y-77484650D01*
X119359402Y-77571600D01*
X119654598Y-77571600D01*
X120091725Y-77484650D01*
X120587430Y-77153430D01*
X120777000Y-76869719D01*
X120966570Y-77153430D01*
X121462275Y-77484650D01*
X121899402Y-77571600D01*
X122194598Y-77571600D01*
X122631725Y-77484650D01*
X123127430Y-77153430D01*
X123317000Y-76869719D01*
X123506570Y-77153430D01*
X124002275Y-77484650D01*
X124439402Y-77571600D01*
X124734598Y-77571600D01*
X125171725Y-77484650D01*
X125667430Y-77153430D01*
X125857000Y-76869719D01*
X126046570Y-77153430D01*
X126542275Y-77484650D01*
X126979402Y-77571600D01*
X127274598Y-77571600D01*
X127711725Y-77484650D01*
X128207430Y-77153430D01*
X128397000Y-76869719D01*
X128586570Y-77153430D01*
X128974897Y-77412902D01*
X128063199Y-78324600D01*
X114924111Y-78324600D01*
X114806680Y-78207169D01*
X114426274Y-78049600D01*
X114014526Y-78049600D01*
X113634120Y-78207169D01*
X113342969Y-78498320D01*
X113185400Y-78878726D01*
X113185400Y-79248599D01*
X112734831Y-78798030D01*
X112692429Y-78734571D01*
X112441037Y-78566596D01*
X112219352Y-78522500D01*
X112219347Y-78522500D01*
X112144500Y-78507612D01*
X112069653Y-78522500D01*
X110164511Y-78522500D01*
X110047080Y-78405069D01*
X109666674Y-78247500D01*
X109254926Y-78247500D01*
X108874520Y-78405069D01*
X108735162Y-78544427D01*
X108614719Y-78463950D01*
X108341986Y-78409700D01*
X108249900Y-78391383D01*
X108157814Y-78409700D01*
X99177411Y-78409700D01*
X99138280Y-78370569D01*
X98757874Y-78213000D01*
X98346126Y-78213000D01*
X97965720Y-78370569D01*
X97926589Y-78409700D01*
X88325685Y-78409700D01*
X88233599Y-78391383D01*
X87915711Y-78454615D01*
X87868781Y-78463950D01*
X87559503Y-78670603D01*
X87507341Y-78748670D01*
X87314844Y-78941166D01*
X87303625Y-78924375D01*
X86812418Y-78596161D01*
X86379256Y-78510000D01*
X86086744Y-78510000D01*
X85653582Y-78596161D01*
X85162375Y-78924375D01*
X84961647Y-79224786D01*
X84574358Y-78799817D01*
X84049892Y-78553514D01*
X83820000Y-78674181D01*
X83820000Y-79868000D01*
X83840000Y-79868000D01*
X83840000Y-80122000D01*
X83820000Y-80122000D01*
X83820000Y-80142000D01*
X83566000Y-80142000D01*
X83566000Y-80122000D01*
X82372845Y-80122000D01*
X82251524Y-80351890D01*
X82421355Y-80761924D01*
X82811642Y-81190183D01*
X82941478Y-81251157D01*
X82622375Y-81464375D01*
X82294161Y-81955582D01*
X82178908Y-82535000D01*
X82294161Y-83114418D01*
X82622375Y-83605625D01*
X82920761Y-83805000D01*
X82622375Y-84004375D01*
X82294161Y-84495582D01*
X82178908Y-85075000D01*
X82294161Y-85654418D01*
X82540824Y-86023575D01*
X82032130Y-86532269D01*
X81968671Y-86574671D01*
X81863000Y-86732819D01*
X81863000Y-79638110D01*
X82251524Y-79638110D01*
X82372845Y-79868000D01*
X83566000Y-79868000D01*
X83566000Y-78674181D01*
X83336108Y-78553514D01*
X82811642Y-78799817D01*
X82421355Y-79228076D01*
X82251524Y-79638110D01*
X81863000Y-79638110D01*
X81863000Y-74032745D01*
X95223861Y-74032745D01*
X95297995Y-74278864D01*
X95835223Y-74471965D01*
X96405454Y-74444778D01*
X96806005Y-74278864D01*
X96880139Y-74032745D01*
X96052000Y-73204605D01*
X95223861Y-74032745D01*
X81863000Y-74032745D01*
X81863000Y-72808223D01*
X94605035Y-72808223D01*
X94632222Y-73378454D01*
X94798136Y-73779005D01*
X95044255Y-73853139D01*
X95872395Y-73025000D01*
X96231605Y-73025000D01*
X97059745Y-73853139D01*
X97107307Y-73838813D01*
X97153843Y-74072765D01*
X97294191Y-74282809D01*
X97504235Y-74423157D01*
X97752000Y-74472440D01*
X99352000Y-74472440D01*
X99599765Y-74423157D01*
X99809809Y-74282809D01*
X99950157Y-74072765D01*
X99999440Y-73825000D01*
X99999440Y-73173973D01*
X105352032Y-73173973D01*
X105472531Y-73406000D01*
X106680000Y-73406000D01*
X106680000Y-72199183D01*
X106934000Y-72199183D01*
X106934000Y-73406000D01*
X109220000Y-73406000D01*
X109220000Y-72199183D01*
X108987974Y-72078042D01*
X108572053Y-72250312D01*
X108140179Y-72644510D01*
X108077000Y-72779313D01*
X108013821Y-72644510D01*
X107581947Y-72250312D01*
X107166026Y-72078042D01*
X106934000Y-72199183D01*
X106680000Y-72199183D01*
X106447974Y-72078042D01*
X106032053Y-72250312D01*
X105600179Y-72644510D01*
X105352032Y-73173973D01*
X99999440Y-73173973D01*
X99999440Y-72225000D01*
X99950157Y-71977235D01*
X99809809Y-71767191D01*
X99599765Y-71626843D01*
X99352000Y-71577560D01*
X97752000Y-71577560D01*
X97504235Y-71626843D01*
X97294191Y-71767191D01*
X97153843Y-71977235D01*
X97107307Y-72211187D01*
X97059745Y-72196861D01*
X96231605Y-73025000D01*
X95872395Y-73025000D01*
X95044255Y-72196861D01*
X94798136Y-72270995D01*
X94605035Y-72808223D01*
X81863000Y-72808223D01*
X81863000Y-72017255D01*
X95223861Y-72017255D01*
X96052000Y-72845395D01*
X96880139Y-72017255D01*
X96806005Y-71771136D01*
X96268777Y-71578035D01*
X95698546Y-71605222D01*
X95297995Y-71771136D01*
X95223861Y-72017255D01*
X81863000Y-72017255D01*
X81863000Y-66763831D01*
X84480600Y-66763831D01*
X84480600Y-67652969D01*
X84820859Y-68474426D01*
X85449574Y-69103141D01*
X86271031Y-69443400D01*
X87160169Y-69443400D01*
X87981626Y-69103141D01*
X88610341Y-68474426D01*
X88950600Y-67652969D01*
X88950600Y-66770431D01*
X172588000Y-66770431D01*
X172588000Y-67659569D01*
X172928259Y-68481026D01*
X173556974Y-69109741D01*
X174378431Y-69450000D01*
X175267569Y-69450000D01*
X176089026Y-69109741D01*
X176717741Y-68481026D01*
X177058000Y-67659569D01*
X177058000Y-66770431D01*
X176717741Y-65948974D01*
X176089026Y-65320259D01*
X175267569Y-64980000D01*
X174378431Y-64980000D01*
X173556974Y-65320259D01*
X172928259Y-65948974D01*
X172588000Y-66770431D01*
X88950600Y-66770431D01*
X88950600Y-66763831D01*
X88610341Y-65942374D01*
X87981626Y-65313659D01*
X87160169Y-64973400D01*
X86271031Y-64973400D01*
X85449574Y-65313659D01*
X84820859Y-65942374D01*
X84480600Y-66763831D01*
X81863000Y-66763831D01*
X81863000Y-63575000D01*
X180138000Y-63575000D01*
X180138001Y-137085000D01*
X180138001Y-137085000D01*
G37*
X180138001Y-137085000D02*
X81863000Y-137085000D01*
X81863000Y-132780431D01*
X84518000Y-132780431D01*
X84518000Y-133669569D01*
X84858259Y-134491026D01*
X85486974Y-135119741D01*
X86308431Y-135460000D01*
X87197569Y-135460000D01*
X88019026Y-135119741D01*
X88647741Y-134491026D01*
X88988000Y-133669569D01*
X88988000Y-132780431D01*
X88866043Y-132486000D01*
X109636887Y-132486000D01*
X109748260Y-133045909D01*
X110065423Y-133520577D01*
X110540091Y-133837740D01*
X110958667Y-133921000D01*
X111241333Y-133921000D01*
X111659909Y-133837740D01*
X112134577Y-133520577D01*
X112451740Y-133045909D01*
X112563113Y-132486000D01*
X112451740Y-131926091D01*
X112134577Y-131451423D01*
X111659909Y-131134260D01*
X111241333Y-131051000D01*
X110958667Y-131051000D01*
X110540091Y-131134260D01*
X110065423Y-131451423D01*
X109748260Y-131926091D01*
X109636887Y-132486000D01*
X88866043Y-132486000D01*
X88647741Y-131958974D01*
X88019026Y-131330259D01*
X87197569Y-130990000D01*
X86308431Y-130990000D01*
X85486974Y-131330259D01*
X84858259Y-131958974D01*
X84518000Y-132780431D01*
X81863000Y-132780431D01*
X81863000Y-124752634D01*
X81969771Y-124912429D01*
X82033230Y-124954831D01*
X85342570Y-128264172D01*
X85384971Y-128327629D01*
X85636363Y-128495604D01*
X85858048Y-128539700D01*
X85858052Y-128539700D01*
X85932899Y-128554588D01*
X86007746Y-128539700D01*
X90557550Y-128539700D01*
X90484887Y-128905000D01*
X90596260Y-129464909D01*
X90913423Y-129939577D01*
X91388091Y-130256740D01*
X91806667Y-130340000D01*
X92089333Y-130340000D01*
X92507909Y-130256740D01*
X92982577Y-129939577D01*
X93299740Y-129464909D01*
X93411113Y-128905000D01*
X93338450Y-128539700D01*
X104622599Y-128539700D01*
X105472371Y-129389473D01*
X105514771Y-129452929D01*
X105766163Y-129620904D01*
X105967214Y-129660896D01*
X106153423Y-129939577D01*
X106628091Y-130256740D01*
X107046667Y-130340000D01*
X107329333Y-130340000D01*
X107747909Y-130256740D01*
X108222577Y-129939577D01*
X108539740Y-129464909D01*
X108651113Y-128905000D01*
X108548785Y-128390561D01*
X109665000Y-128390561D01*
X109665000Y-128961439D01*
X109883466Y-129488862D01*
X110287138Y-129892534D01*
X110814561Y-130111000D01*
X111385439Y-130111000D01*
X111912862Y-129892534D01*
X112316534Y-129488862D01*
X112535000Y-128961439D01*
X112535000Y-128390561D01*
X112316534Y-127863138D01*
X111912862Y-127459466D01*
X111385439Y-127241000D01*
X110814561Y-127241000D01*
X110287138Y-127459466D01*
X109883466Y-127863138D01*
X109665000Y-128390561D01*
X108548785Y-128390561D01*
X108539740Y-128345091D01*
X108222577Y-127870423D01*
X107870242Y-127635000D01*
X108222577Y-127399577D01*
X108539740Y-126924909D01*
X108651113Y-126365000D01*
X108539740Y-125805091D01*
X108315023Y-125468778D01*
X108815873Y-124967929D01*
X108879329Y-124925529D01*
X109047304Y-124674137D01*
X109091400Y-124452452D01*
X109091400Y-124452448D01*
X109106288Y-124377600D01*
X109091400Y-124302752D01*
X109091400Y-123401848D01*
X109106288Y-123327000D01*
X109091400Y-123252152D01*
X109091400Y-123252148D01*
X109079188Y-123190750D01*
X109558000Y-123190750D01*
X109558000Y-123781309D01*
X109654673Y-124014698D01*
X109833301Y-124193327D01*
X110066690Y-124290000D01*
X110657250Y-124290000D01*
X110816000Y-124131250D01*
X110816000Y-123032000D01*
X109716750Y-123032000D01*
X109558000Y-123190750D01*
X109079188Y-123190750D01*
X109047304Y-123030463D01*
X108879329Y-122779071D01*
X108815873Y-122736671D01*
X108294331Y-122215130D01*
X108293349Y-122213660D01*
X108539740Y-121844909D01*
X108651113Y-121285000D01*
X108539740Y-120725091D01*
X108222577Y-120250423D01*
X107870242Y-120015000D01*
X108222577Y-119779577D01*
X108429578Y-119469779D01*
X110479798Y-121520000D01*
X110066690Y-121520000D01*
X109833301Y-121616673D01*
X109654673Y-121795302D01*
X109558000Y-122028691D01*
X109558000Y-122619250D01*
X109716750Y-122778000D01*
X110816000Y-122778000D01*
X110816000Y-122758000D01*
X111070000Y-122758000D01*
X111070000Y-122778000D01*
X111090000Y-122778000D01*
X111090000Y-123032000D01*
X111070000Y-123032000D01*
X111070000Y-124131250D01*
X111228750Y-124290000D01*
X111300900Y-124290000D01*
X111300900Y-124812053D01*
X111286012Y-124886900D01*
X111300900Y-124961747D01*
X111300900Y-124961751D01*
X111344996Y-125183436D01*
X111512971Y-125434829D01*
X111576430Y-125477231D01*
X120518671Y-134419473D01*
X120561071Y-134482929D01*
X120624527Y-134525329D01*
X120812462Y-134650904D01*
X120860605Y-134660480D01*
X121034148Y-134695000D01*
X121034152Y-134695000D01*
X121109000Y-134709888D01*
X121183848Y-134695000D01*
X135165560Y-134695000D01*
X135165560Y-134735000D01*
X135214843Y-134982765D01*
X135355191Y-135192809D01*
X135565235Y-135333157D01*
X135813000Y-135382440D01*
X137413000Y-135382440D01*
X137660765Y-135333157D01*
X137870809Y-135192809D01*
X138011157Y-134982765D01*
X138037785Y-134848894D01*
X138118423Y-134969577D01*
X138593091Y-135286740D01*
X139011667Y-135370000D01*
X139294333Y-135370000D01*
X139712909Y-135286740D01*
X140187577Y-134969577D01*
X140423000Y-134617242D01*
X140658423Y-134969577D01*
X141133091Y-135286740D01*
X141551667Y-135370000D01*
X141834333Y-135370000D01*
X142252909Y-135286740D01*
X142727577Y-134969577D01*
X142963000Y-134617242D01*
X143198423Y-134969577D01*
X143673091Y-135286740D01*
X144091667Y-135370000D01*
X144374333Y-135370000D01*
X144792909Y-135286740D01*
X145267577Y-134969577D01*
X145503000Y-134617242D01*
X145738423Y-134969577D01*
X146213091Y-135286740D01*
X146631667Y-135370000D01*
X146914333Y-135370000D01*
X147332909Y-135286740D01*
X147807577Y-134969577D01*
X148043000Y-134617242D01*
X148278423Y-134969577D01*
X148753091Y-135286740D01*
X149171667Y-135370000D01*
X149454333Y-135370000D01*
X149872909Y-135286740D01*
X150347577Y-134969577D01*
X150583000Y-134617242D01*
X150818423Y-134969577D01*
X151293091Y-135286740D01*
X151711667Y-135370000D01*
X151994333Y-135370000D01*
X152412909Y-135286740D01*
X152887577Y-134969577D01*
X153123000Y-134617242D01*
X153358423Y-134969577D01*
X153833091Y-135286740D01*
X154251667Y-135370000D01*
X154534333Y-135370000D01*
X154952909Y-135286740D01*
X155427577Y-134969577D01*
X155663000Y-134617242D01*
X155898423Y-134969577D01*
X156373091Y-135286740D01*
X156791667Y-135370000D01*
X157074333Y-135370000D01*
X157492909Y-135286740D01*
X157967577Y-134969577D01*
X158203000Y-134617242D01*
X158438423Y-134969577D01*
X158913091Y-135286740D01*
X159331667Y-135370000D01*
X159614333Y-135370000D01*
X160032909Y-135286740D01*
X160507577Y-134969577D01*
X160743000Y-134617242D01*
X160978423Y-134969577D01*
X161453091Y-135286740D01*
X161871667Y-135370000D01*
X162154333Y-135370000D01*
X162572909Y-135286740D01*
X163047577Y-134969577D01*
X163283000Y-134617242D01*
X163518423Y-134969577D01*
X163993091Y-135286740D01*
X164411667Y-135370000D01*
X164694333Y-135370000D01*
X165112909Y-135286740D01*
X165587577Y-134969577D01*
X165823000Y-134617242D01*
X166058423Y-134969577D01*
X166533091Y-135286740D01*
X166951667Y-135370000D01*
X167234333Y-135370000D01*
X167652909Y-135286740D01*
X168127577Y-134969577D01*
X168383947Y-134585892D01*
X168480611Y-134790134D01*
X168895577Y-135166041D01*
X169283961Y-135326904D01*
X169506000Y-135204915D01*
X169506000Y-134062000D01*
X169760000Y-134062000D01*
X169760000Y-135204915D01*
X169982039Y-135326904D01*
X170370423Y-135166041D01*
X170785389Y-134790134D01*
X171024914Y-134284041D01*
X170903629Y-134062000D01*
X169760000Y-134062000D01*
X169506000Y-134062000D01*
X169486000Y-134062000D01*
X169486000Y-133808000D01*
X169506000Y-133808000D01*
X169506000Y-132665085D01*
X169760000Y-132665085D01*
X169760000Y-133808000D01*
X170903629Y-133808000D01*
X171024914Y-133585959D01*
X170785389Y-133079866D01*
X170498998Y-132820431D01*
X172558000Y-132820431D01*
X172558000Y-133709569D01*
X172898259Y-134531026D01*
X173526974Y-135159741D01*
X174348431Y-135500000D01*
X175237569Y-135500000D01*
X176059026Y-135159741D01*
X176687741Y-134531026D01*
X177028000Y-133709569D01*
X177028000Y-132820431D01*
X176687741Y-131998974D01*
X176059026Y-131370259D01*
X175237569Y-131030000D01*
X174348431Y-131030000D01*
X173526974Y-131370259D01*
X172898259Y-131998974D01*
X172558000Y-132820431D01*
X170498998Y-132820431D01*
X170370423Y-132703959D01*
X169982039Y-132543096D01*
X169760000Y-132665085D01*
X169506000Y-132665085D01*
X169283961Y-132543096D01*
X168895577Y-132703959D01*
X168480611Y-133079866D01*
X168383947Y-133284108D01*
X168127577Y-132900423D01*
X167652909Y-132583260D01*
X167234333Y-132500000D01*
X166951667Y-132500000D01*
X166533091Y-132583260D01*
X166058423Y-132900423D01*
X165823000Y-133252758D01*
X165587577Y-132900423D01*
X165112909Y-132583260D01*
X164694333Y-132500000D01*
X164411667Y-132500000D01*
X163993091Y-132583260D01*
X163518423Y-132900423D01*
X163283000Y-133252758D01*
X163047577Y-132900423D01*
X162572909Y-132583260D01*
X162154333Y-132500000D01*
X161871667Y-132500000D01*
X161453091Y-132583260D01*
X160978423Y-132900423D01*
X160743000Y-133252758D01*
X160507577Y-132900423D01*
X160032909Y-132583260D01*
X159614333Y-132500000D01*
X159331667Y-132500000D01*
X158913091Y-132583260D01*
X158438423Y-132900423D01*
X158203000Y-133252758D01*
X157967577Y-132900423D01*
X157492909Y-132583260D01*
X157074333Y-132500000D01*
X156791667Y-132500000D01*
X156373091Y-132583260D01*
X155898423Y-132900423D01*
X155663000Y-133252758D01*
X155427577Y-132900423D01*
X154952909Y-132583260D01*
X154534333Y-132500000D01*
X154251667Y-132500000D01*
X153833091Y-132583260D01*
X153358423Y-132900423D01*
X153123000Y-133252758D01*
X152887577Y-132900423D01*
X152412909Y-132583260D01*
X151994333Y-132500000D01*
X151711667Y-132500000D01*
X151293091Y-132583260D01*
X150818423Y-132900423D01*
X150583000Y-133252758D01*
X150347577Y-132900423D01*
X149872909Y-132583260D01*
X149454333Y-132500000D01*
X149171667Y-132500000D01*
X148753091Y-132583260D01*
X148278423Y-132900423D01*
X148043000Y-133252758D01*
X147807577Y-132900423D01*
X147528896Y-132714214D01*
X147488904Y-132513163D01*
X147447102Y-132450602D01*
X147363329Y-132325226D01*
X147363327Y-132325224D01*
X147320929Y-132261771D01*
X147257476Y-132219373D01*
X143867600Y-128829499D01*
X143867600Y-120085430D01*
X144091667Y-120130000D01*
X144374333Y-120130000D01*
X144792909Y-120046740D01*
X145267577Y-119729577D01*
X145453786Y-119450896D01*
X145540667Y-119433614D01*
X145738423Y-119729577D01*
X146213091Y-120046740D01*
X146631667Y-120130000D01*
X146914333Y-120130000D01*
X147332909Y-120046740D01*
X147669221Y-119822023D01*
X148202073Y-120354875D01*
X148244471Y-120418329D01*
X148307924Y-120460727D01*
X148307926Y-120460729D01*
X148404115Y-120525000D01*
X148495863Y-120586304D01*
X148717548Y-120630400D01*
X148717552Y-120630400D01*
X148792399Y-120645288D01*
X148867246Y-120630400D01*
X152195953Y-120630400D01*
X152270800Y-120645288D01*
X152345647Y-120630400D01*
X152345652Y-120630400D01*
X152567337Y-120586304D01*
X152818729Y-120418329D01*
X152861131Y-120354870D01*
X153435154Y-119780847D01*
X153833091Y-120046740D01*
X154251667Y-120130000D01*
X154534333Y-120130000D01*
X154952909Y-120046740D01*
X155427577Y-119729577D01*
X155613786Y-119450896D01*
X155700667Y-119433614D01*
X155898423Y-119729577D01*
X156373091Y-120046740D01*
X156791667Y-120130000D01*
X157074333Y-120130000D01*
X157492909Y-120046740D01*
X157967577Y-119729577D01*
X158153786Y-119450896D01*
X158240667Y-119433614D01*
X158438423Y-119729577D01*
X158913091Y-120046740D01*
X159331667Y-120130000D01*
X159614333Y-120130000D01*
X160032909Y-120046740D01*
X160369222Y-119822023D01*
X164506671Y-123959473D01*
X164549071Y-124022929D01*
X164800463Y-124190904D01*
X165022148Y-124235000D01*
X165022152Y-124235000D01*
X165097000Y-124249888D01*
X165171848Y-124235000D01*
X175374822Y-124235000D01*
X175582375Y-124545625D01*
X175880761Y-124745000D01*
X175582375Y-124944375D01*
X175254161Y-125435582D01*
X175138908Y-126015000D01*
X175254161Y-126594418D01*
X175582375Y-127085625D01*
X176073582Y-127413839D01*
X176506744Y-127500000D01*
X176799256Y-127500000D01*
X177232418Y-127413839D01*
X177723625Y-127085625D01*
X178051839Y-126594418D01*
X178167092Y-126015000D01*
X178051839Y-125435582D01*
X177830531Y-125104371D01*
X178312773Y-124622129D01*
X178376229Y-124579729D01*
X178544204Y-124328337D01*
X178588300Y-124106652D01*
X178588300Y-124106648D01*
X178603188Y-124031801D01*
X178588300Y-123956954D01*
X178588300Y-123034346D01*
X178603188Y-122959499D01*
X178588300Y-122884652D01*
X178588300Y-122884648D01*
X178544204Y-122662963D01*
X178376229Y-122411571D01*
X178312773Y-122369171D01*
X177813988Y-121870387D01*
X178051839Y-121514418D01*
X178167092Y-120935000D01*
X178051839Y-120355582D01*
X177723625Y-119864375D01*
X177425239Y-119665000D01*
X177723625Y-119465625D01*
X178051839Y-118974418D01*
X178167092Y-118395000D01*
X178051839Y-117815582D01*
X177723625Y-117324375D01*
X177705381Y-117312184D01*
X177750765Y-117303157D01*
X177960809Y-117162809D01*
X178101157Y-116952765D01*
X178150440Y-116705000D01*
X178150440Y-115005000D01*
X178101157Y-114757235D01*
X177960809Y-114547191D01*
X177750765Y-114406843D01*
X177503000Y-114357560D01*
X175803000Y-114357560D01*
X175555235Y-114406843D01*
X175345191Y-114547191D01*
X175204843Y-114757235D01*
X175155560Y-115005000D01*
X175155560Y-115156203D01*
X175118602Y-115180898D01*
X174993226Y-115264671D01*
X174993224Y-115264673D01*
X174929771Y-115307071D01*
X174887373Y-115370525D01*
X174354698Y-115903200D01*
X167434173Y-115903200D01*
X167446389Y-115892134D01*
X167685914Y-115386041D01*
X167564629Y-115164000D01*
X166421000Y-115164000D01*
X166421000Y-115184000D01*
X166167000Y-115184000D01*
X166167000Y-115164000D01*
X166147000Y-115164000D01*
X166147000Y-114910000D01*
X166167000Y-114910000D01*
X166167000Y-113767085D01*
X166421000Y-113767085D01*
X166421000Y-114910000D01*
X167564629Y-114910000D01*
X167685914Y-114687959D01*
X167446389Y-114181866D01*
X167031423Y-113805959D01*
X166643039Y-113645096D01*
X166421000Y-113767085D01*
X166167000Y-113767085D01*
X165944961Y-113645096D01*
X165556577Y-113805959D01*
X165141611Y-114181866D01*
X165044947Y-114386108D01*
X164788577Y-114002423D01*
X164313909Y-113685260D01*
X163895333Y-113602000D01*
X163612667Y-113602000D01*
X163194091Y-113685260D01*
X162719423Y-114002423D01*
X162484000Y-114354758D01*
X162248577Y-114002423D01*
X161773909Y-113685260D01*
X161355333Y-113602000D01*
X161072667Y-113602000D01*
X160654091Y-113685260D01*
X160179423Y-114002423D01*
X159993214Y-114281104D01*
X159906333Y-114298386D01*
X159708577Y-114002423D01*
X159233909Y-113685260D01*
X158815333Y-113602000D01*
X158532667Y-113602000D01*
X158114091Y-113685260D01*
X157639423Y-114002423D01*
X157404000Y-114354758D01*
X157168577Y-114002423D01*
X156693909Y-113685260D01*
X156275333Y-113602000D01*
X155992667Y-113602000D01*
X155574091Y-113685260D01*
X155099423Y-114002423D01*
X154864000Y-114354758D01*
X154628577Y-114002423D01*
X154264768Y-113759333D01*
X158290540Y-109733561D01*
X168910000Y-109733561D01*
X168910000Y-110304439D01*
X169128466Y-110831862D01*
X169532138Y-111235534D01*
X170059561Y-111454000D01*
X170630439Y-111454000D01*
X171157862Y-111235534D01*
X171439396Y-110954000D01*
X172856604Y-110954000D01*
X173138138Y-111235534D01*
X173665561Y-111454000D01*
X174236439Y-111454000D01*
X174763862Y-111235534D01*
X175045396Y-110954000D01*
X176158604Y-110954000D01*
X176440138Y-111235534D01*
X176967561Y-111454000D01*
X177538439Y-111454000D01*
X178065862Y-111235534D01*
X178469534Y-110831862D01*
X178688000Y-110304439D01*
X178688000Y-109733561D01*
X178469534Y-109206138D01*
X178065862Y-108802466D01*
X177538439Y-108584000D01*
X176967561Y-108584000D01*
X176440138Y-108802466D01*
X176158604Y-109084000D01*
X175045396Y-109084000D01*
X174763862Y-108802466D01*
X174236439Y-108584000D01*
X173665561Y-108584000D01*
X173138138Y-108802466D01*
X172856604Y-109084000D01*
X171439396Y-109084000D01*
X171157862Y-108802466D01*
X170630439Y-108584000D01*
X170059561Y-108584000D01*
X169532138Y-108802466D01*
X169128466Y-109206138D01*
X168910000Y-109733561D01*
X158290540Y-109733561D01*
X166016403Y-102007700D01*
X177436853Y-102007700D01*
X177511700Y-102022588D01*
X177586547Y-102007700D01*
X177586552Y-102007700D01*
X177808237Y-101963604D01*
X178059629Y-101795629D01*
X178102031Y-101732170D01*
X178917973Y-100916229D01*
X178981429Y-100873829D01*
X179149404Y-100622437D01*
X179193500Y-100400752D01*
X179193500Y-100400748D01*
X179208388Y-100325901D01*
X179193500Y-100251054D01*
X179193500Y-99449847D01*
X179208388Y-99375000D01*
X179193500Y-99300153D01*
X179193500Y-99300148D01*
X179149404Y-99078463D01*
X178981429Y-98827071D01*
X178917973Y-98784671D01*
X177471090Y-97337789D01*
X177669329Y-97205329D01*
X177711731Y-97141870D01*
X178312773Y-96540829D01*
X178376229Y-96498429D01*
X178544204Y-96247037D01*
X178588300Y-96025352D01*
X178588300Y-96025348D01*
X178603188Y-95950500D01*
X178588300Y-95875652D01*
X178588300Y-94973046D01*
X178603188Y-94898199D01*
X178588300Y-94823352D01*
X178588300Y-94823348D01*
X178544204Y-94601663D01*
X178376229Y-94350271D01*
X178312773Y-94307871D01*
X178067715Y-94062814D01*
X178101157Y-94012765D01*
X178150440Y-93765000D01*
X178150440Y-92065000D01*
X178101157Y-91817235D01*
X177960809Y-91607191D01*
X177750765Y-91466843D01*
X177503000Y-91417560D01*
X175803000Y-91417560D01*
X175555235Y-91466843D01*
X175345191Y-91607191D01*
X175204843Y-91817235D01*
X175155560Y-92065000D01*
X175155560Y-93765000D01*
X175204843Y-94012765D01*
X175345191Y-94222809D01*
X175555235Y-94363157D01*
X175658708Y-94383739D01*
X175381355Y-94688076D01*
X175211524Y-95098110D01*
X175332845Y-95328000D01*
X176526000Y-95328000D01*
X176526000Y-95308000D01*
X176780000Y-95308000D01*
X176780000Y-95328000D01*
X176800000Y-95328000D01*
X176800000Y-95582000D01*
X176780000Y-95582000D01*
X176780000Y-95602000D01*
X176526000Y-95602000D01*
X176526000Y-95582000D01*
X175332845Y-95582000D01*
X175211524Y-95811890D01*
X175246941Y-95897400D01*
X174721803Y-95897400D01*
X173048531Y-94224130D01*
X173006129Y-94160671D01*
X172754737Y-93992696D01*
X172533052Y-93948600D01*
X172533047Y-93948600D01*
X172458200Y-93933712D01*
X172383353Y-93948600D01*
X168422346Y-93948600D01*
X168347499Y-93933712D01*
X168272652Y-93948600D01*
X168272648Y-93948600D01*
X168050963Y-93992696D01*
X167799571Y-94160671D01*
X167757171Y-94224127D01*
X167189636Y-94791663D01*
X166802909Y-94533260D01*
X166384333Y-94450000D01*
X166101667Y-94450000D01*
X165683091Y-94533260D01*
X165208423Y-94850423D01*
X165022214Y-95129104D01*
X164935333Y-95146386D01*
X164737577Y-94850423D01*
X164262909Y-94533260D01*
X163844333Y-94450000D01*
X163561667Y-94450000D01*
X163143091Y-94533260D01*
X162668423Y-94850423D01*
X162433000Y-95202758D01*
X162197577Y-94850423D01*
X161722909Y-94533260D01*
X161304333Y-94450000D01*
X161021667Y-94450000D01*
X160603091Y-94533260D01*
X160266838Y-94757937D01*
X159784131Y-94275230D01*
X159741729Y-94211771D01*
X159490337Y-94043796D01*
X159268652Y-93999700D01*
X159268647Y-93999700D01*
X159193800Y-93984812D01*
X159118953Y-93999700D01*
X148007546Y-93999700D01*
X147932699Y-93984812D01*
X147857852Y-93999700D01*
X147857848Y-93999700D01*
X147636163Y-94043796D01*
X147384771Y-94211771D01*
X147342371Y-94275227D01*
X146819519Y-94798080D01*
X146660423Y-94653959D01*
X146570208Y-94616593D01*
X148015002Y-93171800D01*
X172747253Y-93171800D01*
X172822100Y-93186688D01*
X172896947Y-93171800D01*
X172896952Y-93171800D01*
X173118637Y-93127704D01*
X173370029Y-92959729D01*
X173412431Y-92896270D01*
X178468773Y-87839929D01*
X178532229Y-87797529D01*
X178700204Y-87546137D01*
X178744300Y-87324452D01*
X178744300Y-87324448D01*
X178759188Y-87249601D01*
X178744300Y-87174754D01*
X178744300Y-83719046D01*
X178759188Y-83644199D01*
X178744300Y-83569352D01*
X178744300Y-83569348D01*
X178700204Y-83347663D01*
X178532229Y-83096271D01*
X178468773Y-83053871D01*
X177986531Y-82571629D01*
X178207839Y-82240418D01*
X178323092Y-81661000D01*
X178207839Y-81081582D01*
X177879625Y-80590375D01*
X177581239Y-80391000D01*
X177879625Y-80191625D01*
X178207839Y-79700418D01*
X178323092Y-79121000D01*
X178207839Y-78541582D01*
X177879625Y-78050375D01*
X177581239Y-77851000D01*
X177879625Y-77651625D01*
X178207839Y-77160418D01*
X178323092Y-76581000D01*
X178207839Y-76001582D01*
X177879625Y-75510375D01*
X177857967Y-75495904D01*
X178018698Y-75429327D01*
X178197327Y-75250699D01*
X178294000Y-75017310D01*
X178294000Y-74326750D01*
X178135250Y-74168000D01*
X176936000Y-74168000D01*
X176936000Y-74188000D01*
X176682000Y-74188000D01*
X176682000Y-74168000D01*
X175482750Y-74168000D01*
X175324000Y-74326750D01*
X175324000Y-75017310D01*
X175420673Y-75250699D01*
X175599302Y-75429327D01*
X175760033Y-75495904D01*
X175738375Y-75510375D01*
X175530822Y-75821000D01*
X161309000Y-75821000D01*
X161309000Y-75613126D01*
X161151431Y-75232720D01*
X160860280Y-74941569D01*
X160479874Y-74784000D01*
X160068126Y-74784000D01*
X159826704Y-74884000D01*
X159800395Y-74884000D01*
X159708314Y-74865684D01*
X159616233Y-74884000D01*
X159616229Y-74884000D01*
X159343496Y-74938250D01*
X159034218Y-75144903D01*
X158982056Y-75222969D01*
X156476670Y-77728356D01*
X156398604Y-77780518D01*
X156364672Y-77831300D01*
X145917602Y-77831300D01*
X146503787Y-77245115D01*
X146862275Y-77484650D01*
X147299402Y-77571600D01*
X147594598Y-77571600D01*
X148031725Y-77484650D01*
X148527430Y-77153430D01*
X148717000Y-76869719D01*
X148906570Y-77153430D01*
X149402275Y-77484650D01*
X149839402Y-77571600D01*
X150134598Y-77571600D01*
X150571725Y-77484650D01*
X151067430Y-77153430D01*
X151257000Y-76869719D01*
X151446570Y-77153430D01*
X151942275Y-77484650D01*
X152379402Y-77571600D01*
X152674598Y-77571600D01*
X153111725Y-77484650D01*
X153607430Y-77153430D01*
X153797000Y-76869719D01*
X153986570Y-77153430D01*
X154482275Y-77484650D01*
X154919402Y-77571600D01*
X155214598Y-77571600D01*
X155651725Y-77484650D01*
X156147430Y-77153430D01*
X156478650Y-76657725D01*
X156594959Y-76073000D01*
X156478650Y-75488275D01*
X156147430Y-74992570D01*
X155863719Y-74803000D01*
X156147430Y-74613430D01*
X156478650Y-74117725D01*
X156594959Y-73533000D01*
X156478650Y-72948275D01*
X156360199Y-72771000D01*
X164855908Y-72771000D01*
X164971161Y-73350418D01*
X165299375Y-73841625D01*
X165790582Y-74169839D01*
X166223744Y-74256000D01*
X166516256Y-74256000D01*
X166949418Y-74169839D01*
X167440625Y-73841625D01*
X167640000Y-73543239D01*
X167839375Y-73841625D01*
X168330582Y-74169839D01*
X168763744Y-74256000D01*
X169056256Y-74256000D01*
X169489418Y-74169839D01*
X169980625Y-73841625D01*
X169992816Y-73823381D01*
X170001843Y-73868765D01*
X170142191Y-74078809D01*
X170352235Y-74219157D01*
X170600000Y-74268440D01*
X172300000Y-74268440D01*
X172547765Y-74219157D01*
X172757809Y-74078809D01*
X172898157Y-73868765D01*
X172947440Y-73621000D01*
X172947440Y-73064690D01*
X175324000Y-73064690D01*
X175324000Y-73755250D01*
X175482750Y-73914000D01*
X176682000Y-73914000D01*
X176682000Y-72714750D01*
X176936000Y-72714750D01*
X176936000Y-73914000D01*
X178135250Y-73914000D01*
X178294000Y-73755250D01*
X178294000Y-73064690D01*
X178197327Y-72831301D01*
X178018698Y-72652673D01*
X177785309Y-72556000D01*
X177094750Y-72556000D01*
X176936000Y-72714750D01*
X176682000Y-72714750D01*
X176523250Y-72556000D01*
X175832691Y-72556000D01*
X175599302Y-72652673D01*
X175420673Y-72831301D01*
X175324000Y-73064690D01*
X172947440Y-73064690D01*
X172947440Y-71921000D01*
X172898157Y-71673235D01*
X172757809Y-71463191D01*
X172547765Y-71322843D01*
X172300000Y-71273560D01*
X170600000Y-71273560D01*
X170352235Y-71322843D01*
X170142191Y-71463191D01*
X170001843Y-71673235D01*
X169992816Y-71718619D01*
X169980625Y-71700375D01*
X169489418Y-71372161D01*
X169056256Y-71286000D01*
X168763744Y-71286000D01*
X168330582Y-71372161D01*
X167839375Y-71700375D01*
X167640000Y-71998761D01*
X167440625Y-71700375D01*
X166949418Y-71372161D01*
X166516256Y-71286000D01*
X166223744Y-71286000D01*
X165790582Y-71372161D01*
X165299375Y-71700375D01*
X164971161Y-72191582D01*
X164855908Y-72771000D01*
X156360199Y-72771000D01*
X156147430Y-72452570D01*
X155651725Y-72121350D01*
X155214598Y-72034400D01*
X154919402Y-72034400D01*
X154482275Y-72121350D01*
X153986570Y-72452570D01*
X153797000Y-72736281D01*
X153607430Y-72452570D01*
X153111725Y-72121350D01*
X152674598Y-72034400D01*
X152379402Y-72034400D01*
X151942275Y-72121350D01*
X151446570Y-72452570D01*
X151257000Y-72736281D01*
X151067430Y-72452570D01*
X150571725Y-72121350D01*
X150134598Y-72034400D01*
X149839402Y-72034400D01*
X149402275Y-72121350D01*
X148906570Y-72452570D01*
X148717000Y-72736281D01*
X148527430Y-72452570D01*
X148031725Y-72121350D01*
X147594598Y-72034400D01*
X147299402Y-72034400D01*
X146862275Y-72121350D01*
X146538376Y-72337773D01*
X145107331Y-70906730D01*
X145064929Y-70843271D01*
X144813537Y-70675296D01*
X144591852Y-70631200D01*
X144591847Y-70631200D01*
X144517000Y-70616312D01*
X144442153Y-70631200D01*
X116643648Y-70631200D01*
X116568800Y-70616312D01*
X116493952Y-70631200D01*
X116493948Y-70631200D01*
X116272263Y-70675296D01*
X116020871Y-70843271D01*
X115978471Y-70906727D01*
X114804974Y-72080225D01*
X114574598Y-72034400D01*
X114279402Y-72034400D01*
X113842275Y-72121350D01*
X113346570Y-72452570D01*
X113157000Y-72736281D01*
X112967430Y-72452570D01*
X112471725Y-72121350D01*
X112034598Y-72034400D01*
X111739402Y-72034400D01*
X111302275Y-72121350D01*
X110806570Y-72452570D01*
X110605146Y-72754021D01*
X110553821Y-72644510D01*
X110121947Y-72250312D01*
X109706026Y-72078042D01*
X109474000Y-72199183D01*
X109474000Y-73406000D01*
X109494000Y-73406000D01*
X109494000Y-73660000D01*
X109474000Y-73660000D01*
X109474000Y-73680000D01*
X109220000Y-73680000D01*
X109220000Y-73660000D01*
X106934000Y-73660000D01*
X106934000Y-73680000D01*
X106680000Y-73680000D01*
X106680000Y-73660000D01*
X105472531Y-73660000D01*
X105352032Y-73892027D01*
X105600179Y-74421490D01*
X105787950Y-74592881D01*
X105695635Y-74611243D01*
X105485591Y-74751591D01*
X105345243Y-74961635D01*
X105295960Y-75209400D01*
X105295960Y-76936600D01*
X105345243Y-77184365D01*
X105485591Y-77394409D01*
X105695635Y-77534757D01*
X105943400Y-77584040D01*
X107670600Y-77584040D01*
X107918365Y-77534757D01*
X108128409Y-77394409D01*
X108268757Y-77184365D01*
X108273932Y-77158349D01*
X108762275Y-77484650D01*
X109199402Y-77571600D01*
X109494598Y-77571600D01*
X109931725Y-77484650D01*
X110427430Y-77153430D01*
X110617000Y-76869719D01*
X110806570Y-77153430D01*
X111302275Y-77484650D01*
X111739402Y-77571600D01*
X112034598Y-77571600D01*
X112471725Y-77484650D01*
X112967430Y-77153430D01*
X113157000Y-76869719D01*
X113346570Y-77153430D01*
X113842275Y-77484650D01*
X114279402Y-77571600D01*
X114574598Y-77571600D01*
X115011725Y-77484650D01*
X115507430Y-77153430D01*
X115697000Y-76869719D01*
X115886570Y-77153430D01*
X116382275Y-77484650D01*
X116819402Y-77571600D01*
X117114598Y-77571600D01*
X117551725Y-77484650D01*
X118047430Y-77153430D01*
X118237000Y-76869719D01*
X118426570Y-77153430D01*
X118922275Y-77484650D01*
X119359402Y-77571600D01*
X119654598Y-77571600D01*
X120091725Y-77484650D01*
X120587430Y-77153430D01*
X120777000Y-76869719D01*
X120966570Y-77153430D01*
X121462275Y-77484650D01*
X121899402Y-77571600D01*
X122194598Y-77571600D01*
X122631725Y-77484650D01*
X123127430Y-77153430D01*
X123317000Y-76869719D01*
X123506570Y-77153430D01*
X124002275Y-77484650D01*
X124439402Y-77571600D01*
X124734598Y-77571600D01*
X125171725Y-77484650D01*
X125667430Y-77153430D01*
X125857000Y-76869719D01*
X126046570Y-77153430D01*
X126542275Y-77484650D01*
X126979402Y-77571600D01*
X127274598Y-77571600D01*
X127711725Y-77484650D01*
X128207430Y-77153430D01*
X128397000Y-76869719D01*
X128586570Y-77153430D01*
X128974897Y-77412902D01*
X128063199Y-78324600D01*
X114924111Y-78324600D01*
X114806680Y-78207169D01*
X114426274Y-78049600D01*
X114014526Y-78049600D01*
X113634120Y-78207169D01*
X113342969Y-78498320D01*
X113185400Y-78878726D01*
X113185400Y-79248599D01*
X112734831Y-78798030D01*
X112692429Y-78734571D01*
X112441037Y-78566596D01*
X112219352Y-78522500D01*
X112219347Y-78522500D01*
X112144500Y-78507612D01*
X112069653Y-78522500D01*
X110164511Y-78522500D01*
X110047080Y-78405069D01*
X109666674Y-78247500D01*
X109254926Y-78247500D01*
X108874520Y-78405069D01*
X108735162Y-78544427D01*
X108614719Y-78463950D01*
X108341986Y-78409700D01*
X108249900Y-78391383D01*
X108157814Y-78409700D01*
X99177411Y-78409700D01*
X99138280Y-78370569D01*
X98757874Y-78213000D01*
X98346126Y-78213000D01*
X97965720Y-78370569D01*
X97926589Y-78409700D01*
X88325685Y-78409700D01*
X88233599Y-78391383D01*
X87915711Y-78454615D01*
X87868781Y-78463950D01*
X87559503Y-78670603D01*
X87507341Y-78748670D01*
X87314844Y-78941166D01*
X87303625Y-78924375D01*
X86812418Y-78596161D01*
X86379256Y-78510000D01*
X86086744Y-78510000D01*
X85653582Y-78596161D01*
X85162375Y-78924375D01*
X84961647Y-79224786D01*
X84574358Y-78799817D01*
X84049892Y-78553514D01*
X83820000Y-78674181D01*
X83820000Y-79868000D01*
X83840000Y-79868000D01*
X83840000Y-80122000D01*
X83820000Y-80122000D01*
X83820000Y-80142000D01*
X83566000Y-80142000D01*
X83566000Y-80122000D01*
X82372845Y-80122000D01*
X82251524Y-80351890D01*
X82421355Y-80761924D01*
X82811642Y-81190183D01*
X82941478Y-81251157D01*
X82622375Y-81464375D01*
X82294161Y-81955582D01*
X82178908Y-82535000D01*
X82294161Y-83114418D01*
X82622375Y-83605625D01*
X82920761Y-83805000D01*
X82622375Y-84004375D01*
X82294161Y-84495582D01*
X82178908Y-85075000D01*
X82294161Y-85654418D01*
X82540824Y-86023575D01*
X82032130Y-86532269D01*
X81968671Y-86574671D01*
X81863000Y-86732819D01*
X81863000Y-79638110D01*
X82251524Y-79638110D01*
X82372845Y-79868000D01*
X83566000Y-79868000D01*
X83566000Y-78674181D01*
X83336108Y-78553514D01*
X82811642Y-78799817D01*
X82421355Y-79228076D01*
X82251524Y-79638110D01*
X81863000Y-79638110D01*
X81863000Y-74032745D01*
X95223861Y-74032745D01*
X95297995Y-74278864D01*
X95835223Y-74471965D01*
X96405454Y-74444778D01*
X96806005Y-74278864D01*
X96880139Y-74032745D01*
X96052000Y-73204605D01*
X95223861Y-74032745D01*
X81863000Y-74032745D01*
X81863000Y-72808223D01*
X94605035Y-72808223D01*
X94632222Y-73378454D01*
X94798136Y-73779005D01*
X95044255Y-73853139D01*
X95872395Y-73025000D01*
X96231605Y-73025000D01*
X97059745Y-73853139D01*
X97107307Y-73838813D01*
X97153843Y-74072765D01*
X97294191Y-74282809D01*
X97504235Y-74423157D01*
X97752000Y-74472440D01*
X99352000Y-74472440D01*
X99599765Y-74423157D01*
X99809809Y-74282809D01*
X99950157Y-74072765D01*
X99999440Y-73825000D01*
X99999440Y-73173973D01*
X105352032Y-73173973D01*
X105472531Y-73406000D01*
X106680000Y-73406000D01*
X106680000Y-72199183D01*
X106934000Y-72199183D01*
X106934000Y-73406000D01*
X109220000Y-73406000D01*
X109220000Y-72199183D01*
X108987974Y-72078042D01*
X108572053Y-72250312D01*
X108140179Y-72644510D01*
X108077000Y-72779313D01*
X108013821Y-72644510D01*
X107581947Y-72250312D01*
X107166026Y-72078042D01*
X106934000Y-72199183D01*
X106680000Y-72199183D01*
X106447974Y-72078042D01*
X106032053Y-72250312D01*
X105600179Y-72644510D01*
X105352032Y-73173973D01*
X99999440Y-73173973D01*
X99999440Y-72225000D01*
X99950157Y-71977235D01*
X99809809Y-71767191D01*
X99599765Y-71626843D01*
X99352000Y-71577560D01*
X97752000Y-71577560D01*
X97504235Y-71626843D01*
X97294191Y-71767191D01*
X97153843Y-71977235D01*
X97107307Y-72211187D01*
X97059745Y-72196861D01*
X96231605Y-73025000D01*
X95872395Y-73025000D01*
X95044255Y-72196861D01*
X94798136Y-72270995D01*
X94605035Y-72808223D01*
X81863000Y-72808223D01*
X81863000Y-72017255D01*
X95223861Y-72017255D01*
X96052000Y-72845395D01*
X96880139Y-72017255D01*
X96806005Y-71771136D01*
X96268777Y-71578035D01*
X95698546Y-71605222D01*
X95297995Y-71771136D01*
X95223861Y-72017255D01*
X81863000Y-72017255D01*
X81863000Y-66763831D01*
X84480600Y-66763831D01*
X84480600Y-67652969D01*
X84820859Y-68474426D01*
X85449574Y-69103141D01*
X86271031Y-69443400D01*
X87160169Y-69443400D01*
X87981626Y-69103141D01*
X88610341Y-68474426D01*
X88950600Y-67652969D01*
X88950600Y-66770431D01*
X172588000Y-66770431D01*
X172588000Y-67659569D01*
X172928259Y-68481026D01*
X173556974Y-69109741D01*
X174378431Y-69450000D01*
X175267569Y-69450000D01*
X176089026Y-69109741D01*
X176717741Y-68481026D01*
X177058000Y-67659569D01*
X177058000Y-66770431D01*
X176717741Y-65948974D01*
X176089026Y-65320259D01*
X175267569Y-64980000D01*
X174378431Y-64980000D01*
X173556974Y-65320259D01*
X172928259Y-65948974D01*
X172588000Y-66770431D01*
X88950600Y-66770431D01*
X88950600Y-66763831D01*
X88610341Y-65942374D01*
X87981626Y-65313659D01*
X87160169Y-64973400D01*
X86271031Y-64973400D01*
X85449574Y-65313659D01*
X84820859Y-65942374D01*
X84480600Y-66763831D01*
X81863000Y-66763831D01*
X81863000Y-63575000D01*
X180138000Y-63575000D01*
X180138001Y-137085000D01*
G36*
X128368423Y-119460423D02*
X128051260Y-119935091D01*
X127939887Y-120495000D01*
X128051260Y-121054909D01*
X128368423Y-121529577D01*
X128633000Y-121706362D01*
X128633000Y-122676570D01*
X128580138Y-122698466D01*
X128176466Y-123102138D01*
X128149475Y-123167299D01*
X128146864Y-123160995D01*
X127900745Y-123086861D01*
X127072605Y-123915000D01*
X127900745Y-124743139D01*
X128146864Y-124669005D01*
X128149290Y-124662254D01*
X128176466Y-124727862D01*
X128580138Y-125131534D01*
X129107561Y-125350000D01*
X129678439Y-125350000D01*
X130205862Y-125131534D01*
X130609534Y-124727862D01*
X130828000Y-124200439D01*
X130828000Y-123629561D01*
X130609534Y-123102138D01*
X130205862Y-122698466D01*
X130153000Y-122676570D01*
X130153000Y-121762745D01*
X132444861Y-121762745D01*
X132518995Y-122008864D01*
X133056223Y-122201965D01*
X133626454Y-122174778D01*
X134027005Y-122008864D01*
X134101139Y-121762745D01*
X133273000Y-120934605D01*
X132444861Y-121762745D01*
X130153000Y-121762745D01*
X130153000Y-121745425D01*
X130158896Y-121715786D01*
X130437577Y-121529577D01*
X130754740Y-121054909D01*
X130866113Y-120495000D01*
X130820363Y-120265000D01*
X131924242Y-120265000D01*
X131826035Y-120538223D01*
X131853222Y-121108454D01*
X132019136Y-121509005D01*
X132265255Y-121583139D01*
X133093395Y-120755000D01*
X133079252Y-120740858D01*
X133258858Y-120561253D01*
X133273000Y-120575395D01*
X133287143Y-120561253D01*
X133466748Y-120740858D01*
X133452605Y-120755000D01*
X134280745Y-121583139D01*
X134526864Y-121509005D01*
X134719965Y-120971777D01*
X134701300Y-120580300D01*
X139648953Y-120580300D01*
X139723800Y-120595188D01*
X139798647Y-120580300D01*
X139798652Y-120580300D01*
X140020337Y-120536204D01*
X140271729Y-120368229D01*
X140314131Y-120304770D01*
X140796838Y-119822063D01*
X141133091Y-120046740D01*
X141551667Y-120130000D01*
X141834333Y-120130000D01*
X142252909Y-120046740D01*
X142347601Y-119983469D01*
X142347600Y-129069453D01*
X142332712Y-129144300D01*
X142347600Y-129219147D01*
X142347600Y-129219151D01*
X142391696Y-129440836D01*
X142559671Y-129692229D01*
X142623130Y-129734631D01*
X145768694Y-132880197D01*
X145738423Y-132900423D01*
X145503000Y-133252758D01*
X145267577Y-132900423D01*
X144792909Y-132583260D01*
X144374333Y-132500000D01*
X144091667Y-132500000D01*
X143673091Y-132583260D01*
X143198423Y-132900423D01*
X142963000Y-133252758D01*
X142727577Y-132900423D01*
X142252909Y-132583260D01*
X141834333Y-132500000D01*
X141551667Y-132500000D01*
X141133091Y-132583260D01*
X140658423Y-132900423D01*
X140423000Y-133252758D01*
X140187577Y-132900423D01*
X139712909Y-132583260D01*
X139294333Y-132500000D01*
X139011667Y-132500000D01*
X138593091Y-132583260D01*
X138118423Y-132900423D01*
X138037785Y-133021106D01*
X138011157Y-132887235D01*
X137870809Y-132677191D01*
X137660765Y-132536843D01*
X137413000Y-132487560D01*
X135813000Y-132487560D01*
X135565235Y-132536843D01*
X135355191Y-132677191D01*
X135214843Y-132887235D01*
X135165560Y-133135000D01*
X135165560Y-133175000D01*
X122527839Y-133175000D01*
X122695000Y-132771439D01*
X122695000Y-132200561D01*
X122476534Y-131673138D01*
X122072862Y-131269466D01*
X121545439Y-131051000D01*
X120974561Y-131051000D01*
X120921698Y-131072896D01*
X114243000Y-124394199D01*
X114243000Y-124089312D01*
X114267540Y-124079147D01*
X114657147Y-123689540D01*
X114753000Y-123458130D01*
X114848853Y-123689540D01*
X115238460Y-124079147D01*
X115747506Y-124290000D01*
X116298494Y-124290000D01*
X116807540Y-124079147D01*
X117007201Y-123879486D01*
X117007201Y-124123748D01*
X116992312Y-124198600D01*
X117051297Y-124495137D01*
X117171478Y-124675000D01*
X117219272Y-124746529D01*
X117282728Y-124788929D01*
X120189293Y-127695495D01*
X119908260Y-128116091D01*
X119796887Y-128676000D01*
X119908260Y-129235909D01*
X120225423Y-129710577D01*
X120700091Y-130027740D01*
X121118667Y-130111000D01*
X121401333Y-130111000D01*
X121819909Y-130027740D01*
X122294577Y-129710577D01*
X122611740Y-129235909D01*
X122723113Y-128676000D01*
X122611740Y-128116091D01*
X122294577Y-127641423D01*
X122015896Y-127455214D01*
X121975904Y-127254163D01*
X121807929Y-127002771D01*
X121556537Y-126834796D01*
X121458746Y-126815344D01*
X119915501Y-125272100D01*
X120085862Y-125201534D01*
X120294651Y-124992745D01*
X120944861Y-124992745D01*
X121018995Y-125238864D01*
X121556223Y-125431965D01*
X122126454Y-125404778D01*
X122527005Y-125238864D01*
X122601139Y-124992745D01*
X122531140Y-124922745D01*
X126064861Y-124922745D01*
X126138995Y-125168864D01*
X126676223Y-125361965D01*
X127246454Y-125334778D01*
X127647005Y-125168864D01*
X127721139Y-124922745D01*
X126893000Y-124094605D01*
X126064861Y-124922745D01*
X122531140Y-124922745D01*
X121773000Y-124164605D01*
X120944861Y-124992745D01*
X120294651Y-124992745D01*
X120489534Y-124797862D01*
X120516525Y-124732701D01*
X120519136Y-124739005D01*
X120765255Y-124813139D01*
X121593395Y-123985000D01*
X121952605Y-123985000D01*
X122780745Y-124813139D01*
X123026864Y-124739005D01*
X123219965Y-124201777D01*
X123195957Y-123698223D01*
X125446035Y-123698223D01*
X125473222Y-124268454D01*
X125639136Y-124669005D01*
X125885255Y-124743139D01*
X126713395Y-123915000D01*
X125885255Y-123086861D01*
X125639136Y-123160995D01*
X125446035Y-123698223D01*
X123195957Y-123698223D01*
X123192778Y-123631546D01*
X123026864Y-123230995D01*
X122780745Y-123156861D01*
X121952605Y-123985000D01*
X121593395Y-123985000D01*
X120765255Y-123156861D01*
X120519136Y-123230995D01*
X120516710Y-123237746D01*
X120489534Y-123172138D01*
X120294651Y-122977255D01*
X120944861Y-122977255D01*
X121773000Y-123805395D01*
X122601139Y-122977255D01*
X122580055Y-122907255D01*
X126064861Y-122907255D01*
X126893000Y-123735395D01*
X127721139Y-122907255D01*
X127647005Y-122661136D01*
X127109777Y-122468035D01*
X126539546Y-122495222D01*
X126138995Y-122661136D01*
X126064861Y-122907255D01*
X122580055Y-122907255D01*
X122527005Y-122731136D01*
X121989777Y-122538035D01*
X121419546Y-122565222D01*
X121018995Y-122731136D01*
X120944861Y-122977255D01*
X120294651Y-122977255D01*
X120085862Y-122768466D01*
X120033000Y-122746570D01*
X120033000Y-121721004D01*
X120055862Y-121711534D01*
X120459534Y-121307862D01*
X120678000Y-120780439D01*
X120678000Y-120209561D01*
X120459534Y-119682138D01*
X120376996Y-119599600D01*
X120715974Y-119599600D01*
X121096380Y-119442031D01*
X121213811Y-119324600D01*
X128571696Y-119324600D01*
X128368423Y-119460423D01*
X128368423Y-119460423D01*
G37*
X128368423Y-119460423D02*
X128051260Y-119935091D01*
X127939887Y-120495000D01*
X128051260Y-121054909D01*
X128368423Y-121529577D01*
X128633000Y-121706362D01*
X128633000Y-122676570D01*
X128580138Y-122698466D01*
X128176466Y-123102138D01*
X128149475Y-123167299D01*
X128146864Y-123160995D01*
X127900745Y-123086861D01*
X127072605Y-123915000D01*
X127900745Y-124743139D01*
X128146864Y-124669005D01*
X128149290Y-124662254D01*
X128176466Y-124727862D01*
X128580138Y-125131534D01*
X129107561Y-125350000D01*
X129678439Y-125350000D01*
X130205862Y-125131534D01*
X130609534Y-124727862D01*
X130828000Y-124200439D01*
X130828000Y-123629561D01*
X130609534Y-123102138D01*
X130205862Y-122698466D01*
X130153000Y-122676570D01*
X130153000Y-121762745D01*
X132444861Y-121762745D01*
X132518995Y-122008864D01*
X133056223Y-122201965D01*
X133626454Y-122174778D01*
X134027005Y-122008864D01*
X134101139Y-121762745D01*
X133273000Y-120934605D01*
X132444861Y-121762745D01*
X130153000Y-121762745D01*
X130153000Y-121745425D01*
X130158896Y-121715786D01*
X130437577Y-121529577D01*
X130754740Y-121054909D01*
X130866113Y-120495000D01*
X130820363Y-120265000D01*
X131924242Y-120265000D01*
X131826035Y-120538223D01*
X131853222Y-121108454D01*
X132019136Y-121509005D01*
X132265255Y-121583139D01*
X133093395Y-120755000D01*
X133079252Y-120740858D01*
X133258858Y-120561253D01*
X133273000Y-120575395D01*
X133287143Y-120561253D01*
X133466748Y-120740858D01*
X133452605Y-120755000D01*
X134280745Y-121583139D01*
X134526864Y-121509005D01*
X134719965Y-120971777D01*
X134701300Y-120580300D01*
X139648953Y-120580300D01*
X139723800Y-120595188D01*
X139798647Y-120580300D01*
X139798652Y-120580300D01*
X140020337Y-120536204D01*
X140271729Y-120368229D01*
X140314131Y-120304770D01*
X140796838Y-119822063D01*
X141133091Y-120046740D01*
X141551667Y-120130000D01*
X141834333Y-120130000D01*
X142252909Y-120046740D01*
X142347601Y-119983469D01*
X142347600Y-129069453D01*
X142332712Y-129144300D01*
X142347600Y-129219147D01*
X142347600Y-129219151D01*
X142391696Y-129440836D01*
X142559671Y-129692229D01*
X142623130Y-129734631D01*
X145768694Y-132880197D01*
X145738423Y-132900423D01*
X145503000Y-133252758D01*
X145267577Y-132900423D01*
X144792909Y-132583260D01*
X144374333Y-132500000D01*
X144091667Y-132500000D01*
X143673091Y-132583260D01*
X143198423Y-132900423D01*
X142963000Y-133252758D01*
X142727577Y-132900423D01*
X142252909Y-132583260D01*
X141834333Y-132500000D01*
X141551667Y-132500000D01*
X141133091Y-132583260D01*
X140658423Y-132900423D01*
X140423000Y-133252758D01*
X140187577Y-132900423D01*
X139712909Y-132583260D01*
X139294333Y-132500000D01*
X139011667Y-132500000D01*
X138593091Y-132583260D01*
X138118423Y-132900423D01*
X138037785Y-133021106D01*
X138011157Y-132887235D01*
X137870809Y-132677191D01*
X137660765Y-132536843D01*
X137413000Y-132487560D01*
X135813000Y-132487560D01*
X135565235Y-132536843D01*
X135355191Y-132677191D01*
X135214843Y-132887235D01*
X135165560Y-133135000D01*
X135165560Y-133175000D01*
X122527839Y-133175000D01*
X122695000Y-132771439D01*
X122695000Y-132200561D01*
X122476534Y-131673138D01*
X122072862Y-131269466D01*
X121545439Y-131051000D01*
X120974561Y-131051000D01*
X120921698Y-131072896D01*
X114243000Y-124394199D01*
X114243000Y-124089312D01*
X114267540Y-124079147D01*
X114657147Y-123689540D01*
X114753000Y-123458130D01*
X114848853Y-123689540D01*
X115238460Y-124079147D01*
X115747506Y-124290000D01*
X116298494Y-124290000D01*
X116807540Y-124079147D01*
X117007201Y-123879486D01*
X117007201Y-124123748D01*
X116992312Y-124198600D01*
X117051297Y-124495137D01*
X117171478Y-124675000D01*
X117219272Y-124746529D01*
X117282728Y-124788929D01*
X120189293Y-127695495D01*
X119908260Y-128116091D01*
X119796887Y-128676000D01*
X119908260Y-129235909D01*
X120225423Y-129710577D01*
X120700091Y-130027740D01*
X121118667Y-130111000D01*
X121401333Y-130111000D01*
X121819909Y-130027740D01*
X122294577Y-129710577D01*
X122611740Y-129235909D01*
X122723113Y-128676000D01*
X122611740Y-128116091D01*
X122294577Y-127641423D01*
X122015896Y-127455214D01*
X121975904Y-127254163D01*
X121807929Y-127002771D01*
X121556537Y-126834796D01*
X121458746Y-126815344D01*
X119915501Y-125272100D01*
X120085862Y-125201534D01*
X120294651Y-124992745D01*
X120944861Y-124992745D01*
X121018995Y-125238864D01*
X121556223Y-125431965D01*
X122126454Y-125404778D01*
X122527005Y-125238864D01*
X122601139Y-124992745D01*
X122531140Y-124922745D01*
X126064861Y-124922745D01*
X126138995Y-125168864D01*
X126676223Y-125361965D01*
X127246454Y-125334778D01*
X127647005Y-125168864D01*
X127721139Y-124922745D01*
X126893000Y-124094605D01*
X126064861Y-124922745D01*
X122531140Y-124922745D01*
X121773000Y-124164605D01*
X120944861Y-124992745D01*
X120294651Y-124992745D01*
X120489534Y-124797862D01*
X120516525Y-124732701D01*
X120519136Y-124739005D01*
X120765255Y-124813139D01*
X121593395Y-123985000D01*
X121952605Y-123985000D01*
X122780745Y-124813139D01*
X123026864Y-124739005D01*
X123219965Y-124201777D01*
X123195957Y-123698223D01*
X125446035Y-123698223D01*
X125473222Y-124268454D01*
X125639136Y-124669005D01*
X125885255Y-124743139D01*
X126713395Y-123915000D01*
X125885255Y-123086861D01*
X125639136Y-123160995D01*
X125446035Y-123698223D01*
X123195957Y-123698223D01*
X123192778Y-123631546D01*
X123026864Y-123230995D01*
X122780745Y-123156861D01*
X121952605Y-123985000D01*
X121593395Y-123985000D01*
X120765255Y-123156861D01*
X120519136Y-123230995D01*
X120516710Y-123237746D01*
X120489534Y-123172138D01*
X120294651Y-122977255D01*
X120944861Y-122977255D01*
X121773000Y-123805395D01*
X122601139Y-122977255D01*
X122580055Y-122907255D01*
X126064861Y-122907255D01*
X126893000Y-123735395D01*
X127721139Y-122907255D01*
X127647005Y-122661136D01*
X127109777Y-122468035D01*
X126539546Y-122495222D01*
X126138995Y-122661136D01*
X126064861Y-122907255D01*
X122580055Y-122907255D01*
X122527005Y-122731136D01*
X121989777Y-122538035D01*
X121419546Y-122565222D01*
X121018995Y-122731136D01*
X120944861Y-122977255D01*
X120294651Y-122977255D01*
X120085862Y-122768466D01*
X120033000Y-122746570D01*
X120033000Y-121721004D01*
X120055862Y-121711534D01*
X120459534Y-121307862D01*
X120678000Y-120780439D01*
X120678000Y-120209561D01*
X120459534Y-119682138D01*
X120376996Y-119599600D01*
X120715974Y-119599600D01*
X121096380Y-119442031D01*
X121213811Y-119324600D01*
X128571696Y-119324600D01*
X128368423Y-119460423D01*
G36*
X115744375Y-115345625D02*
X116061430Y-115557475D01*
X116099097Y-115746837D01*
X116220740Y-115928888D01*
X116267072Y-115998229D01*
X116330528Y-116040629D01*
X117007200Y-116717302D01*
X117007201Y-121930514D01*
X116807540Y-121730853D01*
X116298494Y-121520000D01*
X115747506Y-121520000D01*
X115238460Y-121730853D01*
X114848853Y-122120460D01*
X114753000Y-122351870D01*
X114657147Y-122120460D01*
X114267540Y-121730853D01*
X113845912Y-121556210D01*
X112953000Y-120663299D01*
X112953000Y-119453758D01*
X113226223Y-119551965D01*
X113796454Y-119524778D01*
X114197005Y-119358864D01*
X114271139Y-119112745D01*
X113443000Y-118284605D01*
X113428858Y-118298748D01*
X113249253Y-118119143D01*
X113263395Y-118105000D01*
X113622605Y-118105000D01*
X114450745Y-118933139D01*
X114696864Y-118859005D01*
X114889965Y-118321777D01*
X114862778Y-117751546D01*
X114696864Y-117350995D01*
X114450745Y-117276861D01*
X113622605Y-118105000D01*
X113263395Y-118105000D01*
X113249253Y-118090858D01*
X113428858Y-117911252D01*
X113443000Y-117925395D01*
X114271139Y-117097255D01*
X114197005Y-116851136D01*
X113659777Y-116658035D01*
X113089546Y-116685222D01*
X112953000Y-116741781D01*
X112953000Y-115983148D01*
X112967888Y-115908300D01*
X112953000Y-115833452D01*
X112953000Y-115833448D01*
X112919530Y-115665182D01*
X113042809Y-115582809D01*
X113183157Y-115372765D01*
X113192184Y-115327381D01*
X113204375Y-115345625D01*
X113695582Y-115673839D01*
X114128744Y-115760000D01*
X114421256Y-115760000D01*
X114854418Y-115673839D01*
X115345625Y-115345625D01*
X115545000Y-115047239D01*
X115744375Y-115345625D01*
X115744375Y-115345625D01*
G37*
X115744375Y-115345625D02*
X116061430Y-115557475D01*
X116099097Y-115746837D01*
X116220740Y-115928888D01*
X116267072Y-115998229D01*
X116330528Y-116040629D01*
X117007200Y-116717302D01*
X117007201Y-121930514D01*
X116807540Y-121730853D01*
X116298494Y-121520000D01*
X115747506Y-121520000D01*
X115238460Y-121730853D01*
X114848853Y-122120460D01*
X114753000Y-122351870D01*
X114657147Y-122120460D01*
X114267540Y-121730853D01*
X113845912Y-121556210D01*
X112953000Y-120663299D01*
X112953000Y-119453758D01*
X113226223Y-119551965D01*
X113796454Y-119524778D01*
X114197005Y-119358864D01*
X114271139Y-119112745D01*
X113443000Y-118284605D01*
X113428858Y-118298748D01*
X113249253Y-118119143D01*
X113263395Y-118105000D01*
X113622605Y-118105000D01*
X114450745Y-118933139D01*
X114696864Y-118859005D01*
X114889965Y-118321777D01*
X114862778Y-117751546D01*
X114696864Y-117350995D01*
X114450745Y-117276861D01*
X113622605Y-118105000D01*
X113263395Y-118105000D01*
X113249253Y-118090858D01*
X113428858Y-117911252D01*
X113443000Y-117925395D01*
X114271139Y-117097255D01*
X114197005Y-116851136D01*
X113659777Y-116658035D01*
X113089546Y-116685222D01*
X112953000Y-116741781D01*
X112953000Y-115983148D01*
X112967888Y-115908300D01*
X112953000Y-115833452D01*
X112953000Y-115833448D01*
X112919530Y-115665182D01*
X113042809Y-115582809D01*
X113183157Y-115372765D01*
X113192184Y-115327381D01*
X113204375Y-115345625D01*
X113695582Y-115673839D01*
X114128744Y-115760000D01*
X114421256Y-115760000D01*
X114854418Y-115673839D01*
X115345625Y-115345625D01*
X115545000Y-115047239D01*
X115744375Y-115345625D01*
G36*
X81905401Y-91101537D02*
X81968672Y-91196229D01*
X82032128Y-91238629D01*
X82540463Y-91746965D01*
X82294161Y-92115582D01*
X82178908Y-92695000D01*
X82294161Y-93274418D01*
X82622375Y-93765625D01*
X82920761Y-93965000D01*
X82622375Y-94164375D01*
X82294161Y-94655582D01*
X82178908Y-95235000D01*
X82294161Y-95814418D01*
X82622375Y-96305625D01*
X83113582Y-96633839D01*
X83546744Y-96720000D01*
X83839256Y-96720000D01*
X84272418Y-96633839D01*
X84763625Y-96305625D01*
X84775816Y-96287381D01*
X84784843Y-96332765D01*
X84925191Y-96542809D01*
X85135235Y-96683157D01*
X85383000Y-96732440D01*
X87083000Y-96732440D01*
X87330765Y-96683157D01*
X87540809Y-96542809D01*
X87681157Y-96332765D01*
X87730440Y-96085000D01*
X87730440Y-94819700D01*
X89266551Y-94819700D01*
X89281869Y-94856680D01*
X89573020Y-95147831D01*
X89953426Y-95305400D01*
X90365174Y-95305400D01*
X90710905Y-95162194D01*
X90556096Y-95535961D01*
X90678085Y-95758000D01*
X91821000Y-95758000D01*
X91821000Y-95738000D01*
X92075000Y-95738000D01*
X92075000Y-95758000D01*
X93217915Y-95758000D01*
X93339904Y-95535961D01*
X93179041Y-95147577D01*
X92803134Y-94732611D01*
X92598892Y-94635947D01*
X92982577Y-94379577D01*
X93002804Y-94349305D01*
X93752971Y-95099473D01*
X93795371Y-95162929D01*
X94046763Y-95330904D01*
X94268448Y-95375000D01*
X94268452Y-95375000D01*
X94343299Y-95389888D01*
X94418146Y-95375000D01*
X105826332Y-95375000D01*
X105724887Y-95885000D01*
X105836260Y-96444909D01*
X106153423Y-96919577D01*
X106505758Y-97155000D01*
X106153423Y-97390423D01*
X105836260Y-97865091D01*
X105724887Y-98425000D01*
X105836260Y-98984909D01*
X106153423Y-99459577D01*
X106449386Y-99657333D01*
X106432104Y-99744214D01*
X106153423Y-99930423D01*
X105836260Y-100405091D01*
X105724887Y-100965000D01*
X105808669Y-101386200D01*
X104901402Y-101386200D01*
X102799631Y-99284430D01*
X102757229Y-99220971D01*
X102505837Y-99052996D01*
X102284152Y-99008900D01*
X102284147Y-99008900D01*
X102209300Y-98994012D01*
X102134453Y-99008900D01*
X93283710Y-99008900D01*
X93299740Y-98984909D01*
X93411113Y-98425000D01*
X93299740Y-97865091D01*
X92982577Y-97390423D01*
X92598892Y-97134053D01*
X92803134Y-97037389D01*
X93179041Y-96622423D01*
X93339904Y-96234039D01*
X93217915Y-96012000D01*
X92075000Y-96012000D01*
X92075000Y-96032000D01*
X91821000Y-96032000D01*
X91821000Y-96012000D01*
X90678085Y-96012000D01*
X90556096Y-96234039D01*
X90716959Y-96622423D01*
X91092866Y-97037389D01*
X91297108Y-97134053D01*
X90913423Y-97390423D01*
X90596260Y-97865091D01*
X90484887Y-98425000D01*
X90596260Y-98984909D01*
X90836678Y-99344720D01*
X90334828Y-99846571D01*
X90271372Y-99888971D01*
X90228972Y-99952427D01*
X90228971Y-99952428D01*
X90103397Y-100140363D01*
X90044412Y-100436900D01*
X90059301Y-100511751D01*
X90059300Y-101378852D01*
X90044412Y-101453700D01*
X90059300Y-101528547D01*
X90059300Y-101528551D01*
X90103396Y-101750236D01*
X90271371Y-102001629D01*
X90334830Y-102044031D01*
X90852460Y-102561661D01*
X90596260Y-102945091D01*
X90484887Y-103505000D01*
X90596260Y-104064909D01*
X90913423Y-104539577D01*
X91265758Y-104775000D01*
X90913423Y-105010423D01*
X90596260Y-105485091D01*
X90484887Y-106045000D01*
X90596260Y-106604909D01*
X90913423Y-107079577D01*
X91265758Y-107315000D01*
X90913423Y-107550423D01*
X90596260Y-108025091D01*
X90484887Y-108585000D01*
X90596260Y-109144909D01*
X90913423Y-109619577D01*
X91265758Y-109855000D01*
X90913423Y-110090423D01*
X90596260Y-110565091D01*
X90484887Y-111125000D01*
X90596260Y-111684909D01*
X90621511Y-111722700D01*
X87619623Y-111722700D01*
X87631839Y-111704418D01*
X87747092Y-111125000D01*
X87631839Y-110545582D01*
X87303625Y-110054375D01*
X87005239Y-109855000D01*
X87303625Y-109655625D01*
X87631839Y-109164418D01*
X87747092Y-108585000D01*
X87631839Y-108005582D01*
X87303625Y-107514375D01*
X86812418Y-107186161D01*
X86379256Y-107100000D01*
X86086744Y-107100000D01*
X85653582Y-107186161D01*
X85162375Y-107514375D01*
X84961647Y-107814786D01*
X84574358Y-107389817D01*
X84049892Y-107143514D01*
X83820000Y-107264181D01*
X83820000Y-108458000D01*
X83840000Y-108458000D01*
X83840000Y-108712000D01*
X83820000Y-108712000D01*
X83820000Y-108732000D01*
X83566000Y-108732000D01*
X83566000Y-108712000D01*
X82372845Y-108712000D01*
X82251524Y-108941890D01*
X82421355Y-109351924D01*
X82811642Y-109780183D01*
X82941478Y-109841157D01*
X82622375Y-110054375D01*
X82294161Y-110545582D01*
X82178908Y-111125000D01*
X82294161Y-111704418D01*
X82510903Y-112028795D01*
X82033230Y-112506469D01*
X81969771Y-112548871D01*
X81863000Y-112708666D01*
X81863000Y-108228110D01*
X82251524Y-108228110D01*
X82372845Y-108458000D01*
X83566000Y-108458000D01*
X83566000Y-107264181D01*
X83336108Y-107143514D01*
X82811642Y-107389817D01*
X82421355Y-107818076D01*
X82251524Y-108228110D01*
X81863000Y-108228110D01*
X81863000Y-91038080D01*
X81905401Y-91101537D01*
X81905401Y-91101537D01*
G37*
X81905401Y-91101537D02*
X81968672Y-91196229D01*
X82032128Y-91238629D01*
X82540463Y-91746965D01*
X82294161Y-92115582D01*
X82178908Y-92695000D01*
X82294161Y-93274418D01*
X82622375Y-93765625D01*
X82920761Y-93965000D01*
X82622375Y-94164375D01*
X82294161Y-94655582D01*
X82178908Y-95235000D01*
X82294161Y-95814418D01*
X82622375Y-96305625D01*
X83113582Y-96633839D01*
X83546744Y-96720000D01*
X83839256Y-96720000D01*
X84272418Y-96633839D01*
X84763625Y-96305625D01*
X84775816Y-96287381D01*
X84784843Y-96332765D01*
X84925191Y-96542809D01*
X85135235Y-96683157D01*
X85383000Y-96732440D01*
X87083000Y-96732440D01*
X87330765Y-96683157D01*
X87540809Y-96542809D01*
X87681157Y-96332765D01*
X87730440Y-96085000D01*
X87730440Y-94819700D01*
X89266551Y-94819700D01*
X89281869Y-94856680D01*
X89573020Y-95147831D01*
X89953426Y-95305400D01*
X90365174Y-95305400D01*
X90710905Y-95162194D01*
X90556096Y-95535961D01*
X90678085Y-95758000D01*
X91821000Y-95758000D01*
X91821000Y-95738000D01*
X92075000Y-95738000D01*
X92075000Y-95758000D01*
X93217915Y-95758000D01*
X93339904Y-95535961D01*
X93179041Y-95147577D01*
X92803134Y-94732611D01*
X92598892Y-94635947D01*
X92982577Y-94379577D01*
X93002804Y-94349305D01*
X93752971Y-95099473D01*
X93795371Y-95162929D01*
X94046763Y-95330904D01*
X94268448Y-95375000D01*
X94268452Y-95375000D01*
X94343299Y-95389888D01*
X94418146Y-95375000D01*
X105826332Y-95375000D01*
X105724887Y-95885000D01*
X105836260Y-96444909D01*
X106153423Y-96919577D01*
X106505758Y-97155000D01*
X106153423Y-97390423D01*
X105836260Y-97865091D01*
X105724887Y-98425000D01*
X105836260Y-98984909D01*
X106153423Y-99459577D01*
X106449386Y-99657333D01*
X106432104Y-99744214D01*
X106153423Y-99930423D01*
X105836260Y-100405091D01*
X105724887Y-100965000D01*
X105808669Y-101386200D01*
X104901402Y-101386200D01*
X102799631Y-99284430D01*
X102757229Y-99220971D01*
X102505837Y-99052996D01*
X102284152Y-99008900D01*
X102284147Y-99008900D01*
X102209300Y-98994012D01*
X102134453Y-99008900D01*
X93283710Y-99008900D01*
X93299740Y-98984909D01*
X93411113Y-98425000D01*
X93299740Y-97865091D01*
X92982577Y-97390423D01*
X92598892Y-97134053D01*
X92803134Y-97037389D01*
X93179041Y-96622423D01*
X93339904Y-96234039D01*
X93217915Y-96012000D01*
X92075000Y-96012000D01*
X92075000Y-96032000D01*
X91821000Y-96032000D01*
X91821000Y-96012000D01*
X90678085Y-96012000D01*
X90556096Y-96234039D01*
X90716959Y-96622423D01*
X91092866Y-97037389D01*
X91297108Y-97134053D01*
X90913423Y-97390423D01*
X90596260Y-97865091D01*
X90484887Y-98425000D01*
X90596260Y-98984909D01*
X90836678Y-99344720D01*
X90334828Y-99846571D01*
X90271372Y-99888971D01*
X90228972Y-99952427D01*
X90228971Y-99952428D01*
X90103397Y-100140363D01*
X90044412Y-100436900D01*
X90059301Y-100511751D01*
X90059300Y-101378852D01*
X90044412Y-101453700D01*
X90059300Y-101528547D01*
X90059300Y-101528551D01*
X90103396Y-101750236D01*
X90271371Y-102001629D01*
X90334830Y-102044031D01*
X90852460Y-102561661D01*
X90596260Y-102945091D01*
X90484887Y-103505000D01*
X90596260Y-104064909D01*
X90913423Y-104539577D01*
X91265758Y-104775000D01*
X90913423Y-105010423D01*
X90596260Y-105485091D01*
X90484887Y-106045000D01*
X90596260Y-106604909D01*
X90913423Y-107079577D01*
X91265758Y-107315000D01*
X90913423Y-107550423D01*
X90596260Y-108025091D01*
X90484887Y-108585000D01*
X90596260Y-109144909D01*
X90913423Y-109619577D01*
X91265758Y-109855000D01*
X90913423Y-110090423D01*
X90596260Y-110565091D01*
X90484887Y-111125000D01*
X90596260Y-111684909D01*
X90621511Y-111722700D01*
X87619623Y-111722700D01*
X87631839Y-111704418D01*
X87747092Y-111125000D01*
X87631839Y-110545582D01*
X87303625Y-110054375D01*
X87005239Y-109855000D01*
X87303625Y-109655625D01*
X87631839Y-109164418D01*
X87747092Y-108585000D01*
X87631839Y-108005582D01*
X87303625Y-107514375D01*
X86812418Y-107186161D01*
X86379256Y-107100000D01*
X86086744Y-107100000D01*
X85653582Y-107186161D01*
X85162375Y-107514375D01*
X84961647Y-107814786D01*
X84574358Y-107389817D01*
X84049892Y-107143514D01*
X83820000Y-107264181D01*
X83820000Y-108458000D01*
X83840000Y-108458000D01*
X83840000Y-108712000D01*
X83820000Y-108712000D01*
X83820000Y-108732000D01*
X83566000Y-108732000D01*
X83566000Y-108712000D01*
X82372845Y-108712000D01*
X82251524Y-108941890D01*
X82421355Y-109351924D01*
X82811642Y-109780183D01*
X82941478Y-109841157D01*
X82622375Y-110054375D01*
X82294161Y-110545582D01*
X82178908Y-111125000D01*
X82294161Y-111704418D01*
X82510903Y-112028795D01*
X82033230Y-112506469D01*
X81969771Y-112548871D01*
X81863000Y-112708666D01*
X81863000Y-108228110D01*
X82251524Y-108228110D01*
X82372845Y-108458000D01*
X83566000Y-108458000D01*
X83566000Y-107264181D01*
X83336108Y-107143514D01*
X82811642Y-107389817D01*
X82421355Y-107818076D01*
X82251524Y-108228110D01*
X81863000Y-108228110D01*
X81863000Y-91038080D01*
X81905401Y-91101537D01*
G36*
X110598423Y-100729577D02*
X110982108Y-100985947D01*
X110777866Y-101082611D01*
X110401959Y-101497577D01*
X110241096Y-101885961D01*
X110363085Y-102108000D01*
X111506000Y-102108000D01*
X111506000Y-102088000D01*
X111760000Y-102088000D01*
X111760000Y-102108000D01*
X112902915Y-102108000D01*
X113024904Y-101885961D01*
X112864041Y-101497577D01*
X112488134Y-101082611D01*
X112283892Y-100985947D01*
X112667577Y-100729577D01*
X112687804Y-100699305D01*
X113293270Y-101304772D01*
X113335671Y-101368229D01*
X113587063Y-101536204D01*
X113808748Y-101580300D01*
X113808752Y-101580300D01*
X113883600Y-101595188D01*
X113958448Y-101580300D01*
X117964597Y-101580300D01*
X117901260Y-101675091D01*
X117789887Y-102235000D01*
X117901260Y-102794909D01*
X118218423Y-103269577D01*
X118693091Y-103586740D01*
X119111667Y-103670000D01*
X119394333Y-103670000D01*
X119812909Y-103586740D01*
X120287577Y-103269577D01*
X120604740Y-102794909D01*
X120646684Y-102584039D01*
X122306096Y-102584039D01*
X122466959Y-102972423D01*
X122842866Y-103387389D01*
X123348959Y-103626914D01*
X123571000Y-103505629D01*
X123571000Y-102362000D01*
X122428085Y-102362000D01*
X122306096Y-102584039D01*
X120646684Y-102584039D01*
X120716113Y-102235000D01*
X120604740Y-101675091D01*
X120541403Y-101580300D01*
X122432696Y-101580300D01*
X122306096Y-101885961D01*
X122428085Y-102108000D01*
X123571000Y-102108000D01*
X123571000Y-102088000D01*
X123825000Y-102088000D01*
X123825000Y-102108000D01*
X123845000Y-102108000D01*
X123845000Y-102362000D01*
X123825000Y-102362000D01*
X123825000Y-103505629D01*
X124047041Y-103626914D01*
X124553134Y-103387389D01*
X124929041Y-102972423D01*
X124969336Y-102875137D01*
X128085751Y-105991552D01*
X127707375Y-106244375D01*
X127508000Y-106542761D01*
X127308625Y-106244375D01*
X126817418Y-105916161D01*
X126384256Y-105830000D01*
X126091744Y-105830000D01*
X125658582Y-105916161D01*
X125167375Y-106244375D01*
X124968000Y-106542761D01*
X124768625Y-106244375D01*
X124277418Y-105916161D01*
X123844256Y-105830000D01*
X123551744Y-105830000D01*
X123118582Y-105916161D01*
X122627375Y-106244375D01*
X122299161Y-106735582D01*
X122183908Y-107315000D01*
X122299161Y-107894418D01*
X122627375Y-108385625D01*
X122645619Y-108397816D01*
X122600235Y-108406843D01*
X122390191Y-108547191D01*
X122249843Y-108757235D01*
X122200560Y-109005000D01*
X122200560Y-109502058D01*
X121605300Y-108906799D01*
X121605300Y-107249646D01*
X121620188Y-107174799D01*
X121605300Y-107099952D01*
X121605300Y-107099948D01*
X121561204Y-106878263D01*
X121482787Y-106760904D01*
X121435629Y-106690326D01*
X121435627Y-106690324D01*
X121393229Y-106626871D01*
X121329776Y-106584473D01*
X118891131Y-104145830D01*
X118848729Y-104082371D01*
X118597337Y-103914396D01*
X118375652Y-103870300D01*
X118375647Y-103870300D01*
X118300800Y-103855412D01*
X118225953Y-103870300D01*
X109753402Y-103870300D01*
X108903631Y-103020530D01*
X108861229Y-102957071D01*
X108609837Y-102789096D01*
X108408786Y-102749104D01*
X108298493Y-102584039D01*
X110241096Y-102584039D01*
X110401959Y-102972423D01*
X110777866Y-103387389D01*
X111283959Y-103626914D01*
X111506000Y-103505629D01*
X111506000Y-102362000D01*
X111760000Y-102362000D01*
X111760000Y-103505629D01*
X111982041Y-103626914D01*
X112488134Y-103387389D01*
X112864041Y-102972423D01*
X113024904Y-102584039D01*
X112902915Y-102362000D01*
X111760000Y-102362000D01*
X111506000Y-102362000D01*
X110363085Y-102362000D01*
X110241096Y-102584039D01*
X108298493Y-102584039D01*
X108278453Y-102554048D01*
X110399955Y-100432548D01*
X110598423Y-100729577D01*
X110598423Y-100729577D01*
G37*
X110598423Y-100729577D02*
X110982108Y-100985947D01*
X110777866Y-101082611D01*
X110401959Y-101497577D01*
X110241096Y-101885961D01*
X110363085Y-102108000D01*
X111506000Y-102108000D01*
X111506000Y-102088000D01*
X111760000Y-102088000D01*
X111760000Y-102108000D01*
X112902915Y-102108000D01*
X113024904Y-101885961D01*
X112864041Y-101497577D01*
X112488134Y-101082611D01*
X112283892Y-100985947D01*
X112667577Y-100729577D01*
X112687804Y-100699305D01*
X113293270Y-101304772D01*
X113335671Y-101368229D01*
X113587063Y-101536204D01*
X113808748Y-101580300D01*
X113808752Y-101580300D01*
X113883600Y-101595188D01*
X113958448Y-101580300D01*
X117964597Y-101580300D01*
X117901260Y-101675091D01*
X117789887Y-102235000D01*
X117901260Y-102794909D01*
X118218423Y-103269577D01*
X118693091Y-103586740D01*
X119111667Y-103670000D01*
X119394333Y-103670000D01*
X119812909Y-103586740D01*
X120287577Y-103269577D01*
X120604740Y-102794909D01*
X120646684Y-102584039D01*
X122306096Y-102584039D01*
X122466959Y-102972423D01*
X122842866Y-103387389D01*
X123348959Y-103626914D01*
X123571000Y-103505629D01*
X123571000Y-102362000D01*
X122428085Y-102362000D01*
X122306096Y-102584039D01*
X120646684Y-102584039D01*
X120716113Y-102235000D01*
X120604740Y-101675091D01*
X120541403Y-101580300D01*
X122432696Y-101580300D01*
X122306096Y-101885961D01*
X122428085Y-102108000D01*
X123571000Y-102108000D01*
X123571000Y-102088000D01*
X123825000Y-102088000D01*
X123825000Y-102108000D01*
X123845000Y-102108000D01*
X123845000Y-102362000D01*
X123825000Y-102362000D01*
X123825000Y-103505629D01*
X124047041Y-103626914D01*
X124553134Y-103387389D01*
X124929041Y-102972423D01*
X124969336Y-102875137D01*
X128085751Y-105991552D01*
X127707375Y-106244375D01*
X127508000Y-106542761D01*
X127308625Y-106244375D01*
X126817418Y-105916161D01*
X126384256Y-105830000D01*
X126091744Y-105830000D01*
X125658582Y-105916161D01*
X125167375Y-106244375D01*
X124968000Y-106542761D01*
X124768625Y-106244375D01*
X124277418Y-105916161D01*
X123844256Y-105830000D01*
X123551744Y-105830000D01*
X123118582Y-105916161D01*
X122627375Y-106244375D01*
X122299161Y-106735582D01*
X122183908Y-107315000D01*
X122299161Y-107894418D01*
X122627375Y-108385625D01*
X122645619Y-108397816D01*
X122600235Y-108406843D01*
X122390191Y-108547191D01*
X122249843Y-108757235D01*
X122200560Y-109005000D01*
X122200560Y-109502058D01*
X121605300Y-108906799D01*
X121605300Y-107249646D01*
X121620188Y-107174799D01*
X121605300Y-107099952D01*
X121605300Y-107099948D01*
X121561204Y-106878263D01*
X121482787Y-106760904D01*
X121435629Y-106690326D01*
X121435627Y-106690324D01*
X121393229Y-106626871D01*
X121329776Y-106584473D01*
X118891131Y-104145830D01*
X118848729Y-104082371D01*
X118597337Y-103914396D01*
X118375652Y-103870300D01*
X118375647Y-103870300D01*
X118300800Y-103855412D01*
X118225953Y-103870300D01*
X109753402Y-103870300D01*
X108903631Y-103020530D01*
X108861229Y-102957071D01*
X108609837Y-102789096D01*
X108408786Y-102749104D01*
X108298493Y-102584039D01*
X110241096Y-102584039D01*
X110401959Y-102972423D01*
X110777866Y-103387389D01*
X111283959Y-103626914D01*
X111506000Y-103505629D01*
X111506000Y-102362000D01*
X111760000Y-102362000D01*
X111760000Y-103505629D01*
X111982041Y-103626914D01*
X112488134Y-103387389D01*
X112864041Y-102972423D01*
X113024904Y-102584039D01*
X112902915Y-102362000D01*
X111760000Y-102362000D01*
X111506000Y-102362000D01*
X110363085Y-102362000D01*
X110241096Y-102584039D01*
X108298493Y-102584039D01*
X108278453Y-102554048D01*
X110399955Y-100432548D01*
X110598423Y-100729577D01*
G36*
X129854887Y-97155000D02*
X129966260Y-97714909D01*
X130283423Y-98189577D01*
X130635758Y-98425000D01*
X130283423Y-98660423D01*
X129966260Y-99135091D01*
X129854887Y-99695000D01*
X129966260Y-100254909D01*
X130283423Y-100729577D01*
X130635758Y-100965000D01*
X130283423Y-101200423D01*
X129966260Y-101675091D01*
X129854887Y-102235000D01*
X129966260Y-102794909D01*
X130283423Y-103269577D01*
X130758091Y-103586740D01*
X131176667Y-103670000D01*
X131459333Y-103670000D01*
X131877909Y-103586740D01*
X132198175Y-103372745D01*
X134214861Y-103372745D01*
X134288995Y-103618864D01*
X134826223Y-103811965D01*
X135396454Y-103784778D01*
X135797005Y-103618864D01*
X135871139Y-103372745D01*
X135043000Y-102544605D01*
X134214861Y-103372745D01*
X132198175Y-103372745D01*
X132352577Y-103269577D01*
X132669740Y-102794909D01*
X132781113Y-102235000D01*
X132763852Y-102148223D01*
X133596035Y-102148223D01*
X133623222Y-102718454D01*
X133789136Y-103119005D01*
X134035255Y-103193139D01*
X134863395Y-102365000D01*
X135222605Y-102365000D01*
X136050745Y-103193139D01*
X136296864Y-103119005D01*
X136489965Y-102581777D01*
X136462778Y-102011546D01*
X136296864Y-101610995D01*
X136050745Y-101536861D01*
X135222605Y-102365000D01*
X134863395Y-102365000D01*
X134035255Y-101536861D01*
X133789136Y-101610995D01*
X133596035Y-102148223D01*
X132763852Y-102148223D01*
X132669740Y-101675091D01*
X132352577Y-101200423D01*
X132000242Y-100965000D01*
X132352577Y-100729577D01*
X132669740Y-100254909D01*
X132781113Y-99695000D01*
X132669740Y-99135091D01*
X132352577Y-98660423D01*
X132000242Y-98425000D01*
X132352577Y-98189577D01*
X132669740Y-97714909D01*
X132781113Y-97155000D01*
X132679668Y-96645000D01*
X136855560Y-96645000D01*
X136855560Y-96685000D01*
X136904843Y-96932765D01*
X137045191Y-97142809D01*
X137255235Y-97283157D01*
X137503000Y-97332440D01*
X139103000Y-97332440D01*
X139173263Y-97318464D01*
X140134000Y-98279203D01*
X140134000Y-98578957D01*
X139859423Y-98762423D01*
X139624000Y-99114758D01*
X139388577Y-98762423D01*
X138913909Y-98445260D01*
X138495333Y-98362000D01*
X138212667Y-98362000D01*
X137794091Y-98445260D01*
X137319423Y-98762423D01*
X137252888Y-98862000D01*
X137145786Y-98862000D01*
X137053700Y-98843683D01*
X136961615Y-98862000D01*
X136961614Y-98862000D01*
X136688881Y-98916250D01*
X136668303Y-98930000D01*
X136137396Y-98930000D01*
X135855862Y-98648466D01*
X135328439Y-98430000D01*
X134757561Y-98430000D01*
X134230138Y-98648466D01*
X133826466Y-99052138D01*
X133608000Y-99579561D01*
X133608000Y-100150439D01*
X133826466Y-100677862D01*
X134230138Y-101081534D01*
X134295299Y-101108525D01*
X134288995Y-101111136D01*
X134214861Y-101357255D01*
X135043000Y-102185395D01*
X135871139Y-101357255D01*
X135797005Y-101111136D01*
X135790254Y-101108710D01*
X135855862Y-101081534D01*
X136137396Y-100800000D01*
X136893614Y-100800000D01*
X136985700Y-100818317D01*
X137077786Y-100800000D01*
X137272451Y-100761279D01*
X137319423Y-100831577D01*
X137794091Y-101148740D01*
X138212667Y-101232000D01*
X138495333Y-101232000D01*
X138913909Y-101148740D01*
X139188904Y-100964995D01*
X132830402Y-107323497D01*
X132832092Y-107315000D01*
X132716839Y-106735582D01*
X132388625Y-106244375D01*
X132078000Y-106036822D01*
X132078000Y-105693846D01*
X132092888Y-105618999D01*
X132078000Y-105544152D01*
X132078000Y-105544148D01*
X132033904Y-105322463D01*
X131865929Y-105071071D01*
X131802473Y-105028671D01*
X124825023Y-98051222D01*
X125049740Y-97714909D01*
X125161113Y-97155000D01*
X125059668Y-96645000D01*
X129956332Y-96645000D01*
X129854887Y-97155000D01*
X129854887Y-97155000D01*
G37*
X129854887Y-97155000D02*
X129966260Y-97714909D01*
X130283423Y-98189577D01*
X130635758Y-98425000D01*
X130283423Y-98660423D01*
X129966260Y-99135091D01*
X129854887Y-99695000D01*
X129966260Y-100254909D01*
X130283423Y-100729577D01*
X130635758Y-100965000D01*
X130283423Y-101200423D01*
X129966260Y-101675091D01*
X129854887Y-102235000D01*
X129966260Y-102794909D01*
X130283423Y-103269577D01*
X130758091Y-103586740D01*
X131176667Y-103670000D01*
X131459333Y-103670000D01*
X131877909Y-103586740D01*
X132198175Y-103372745D01*
X134214861Y-103372745D01*
X134288995Y-103618864D01*
X134826223Y-103811965D01*
X135396454Y-103784778D01*
X135797005Y-103618864D01*
X135871139Y-103372745D01*
X135043000Y-102544605D01*
X134214861Y-103372745D01*
X132198175Y-103372745D01*
X132352577Y-103269577D01*
X132669740Y-102794909D01*
X132781113Y-102235000D01*
X132763852Y-102148223D01*
X133596035Y-102148223D01*
X133623222Y-102718454D01*
X133789136Y-103119005D01*
X134035255Y-103193139D01*
X134863395Y-102365000D01*
X135222605Y-102365000D01*
X136050745Y-103193139D01*
X136296864Y-103119005D01*
X136489965Y-102581777D01*
X136462778Y-102011546D01*
X136296864Y-101610995D01*
X136050745Y-101536861D01*
X135222605Y-102365000D01*
X134863395Y-102365000D01*
X134035255Y-101536861D01*
X133789136Y-101610995D01*
X133596035Y-102148223D01*
X132763852Y-102148223D01*
X132669740Y-101675091D01*
X132352577Y-101200423D01*
X132000242Y-100965000D01*
X132352577Y-100729577D01*
X132669740Y-100254909D01*
X132781113Y-99695000D01*
X132669740Y-99135091D01*
X132352577Y-98660423D01*
X132000242Y-98425000D01*
X132352577Y-98189577D01*
X132669740Y-97714909D01*
X132781113Y-97155000D01*
X132679668Y-96645000D01*
X136855560Y-96645000D01*
X136855560Y-96685000D01*
X136904843Y-96932765D01*
X137045191Y-97142809D01*
X137255235Y-97283157D01*
X137503000Y-97332440D01*
X139103000Y-97332440D01*
X139173263Y-97318464D01*
X140134000Y-98279203D01*
X140134000Y-98578957D01*
X139859423Y-98762423D01*
X139624000Y-99114758D01*
X139388577Y-98762423D01*
X138913909Y-98445260D01*
X138495333Y-98362000D01*
X138212667Y-98362000D01*
X137794091Y-98445260D01*
X137319423Y-98762423D01*
X137252888Y-98862000D01*
X137145786Y-98862000D01*
X137053700Y-98843683D01*
X136961615Y-98862000D01*
X136961614Y-98862000D01*
X136688881Y-98916250D01*
X136668303Y-98930000D01*
X136137396Y-98930000D01*
X135855862Y-98648466D01*
X135328439Y-98430000D01*
X134757561Y-98430000D01*
X134230138Y-98648466D01*
X133826466Y-99052138D01*
X133608000Y-99579561D01*
X133608000Y-100150439D01*
X133826466Y-100677862D01*
X134230138Y-101081534D01*
X134295299Y-101108525D01*
X134288995Y-101111136D01*
X134214861Y-101357255D01*
X135043000Y-102185395D01*
X135871139Y-101357255D01*
X135797005Y-101111136D01*
X135790254Y-101108710D01*
X135855862Y-101081534D01*
X136137396Y-100800000D01*
X136893614Y-100800000D01*
X136985700Y-100818317D01*
X137077786Y-100800000D01*
X137272451Y-100761279D01*
X137319423Y-100831577D01*
X137794091Y-101148740D01*
X138212667Y-101232000D01*
X138495333Y-101232000D01*
X138913909Y-101148740D01*
X139188904Y-100964995D01*
X132830402Y-107323497D01*
X132832092Y-107315000D01*
X132716839Y-106735582D01*
X132388625Y-106244375D01*
X132078000Y-106036822D01*
X132078000Y-105693846D01*
X132092888Y-105618999D01*
X132078000Y-105544152D01*
X132078000Y-105544148D01*
X132033904Y-105322463D01*
X131865929Y-105071071D01*
X131802473Y-105028671D01*
X124825023Y-98051222D01*
X125049740Y-97714909D01*
X125161113Y-97155000D01*
X125059668Y-96645000D01*
X129956332Y-96645000D01*
X129854887Y-97155000D01*
G36*
X146050000Y-95758000D02*
X146070000Y-95758000D01*
X146070000Y-96012000D01*
X146050000Y-96012000D01*
X146050000Y-96032000D01*
X145796000Y-96032000D01*
X145796000Y-96012000D01*
X145776000Y-96012000D01*
X145776000Y-95758000D01*
X145796000Y-95758000D01*
X145796000Y-95738000D01*
X146050000Y-95738000D01*
X146050000Y-95758000D01*
X146050000Y-95758000D01*
G37*
X146050000Y-95758000D02*
X146070000Y-95758000D01*
X146070000Y-96012000D01*
X146050000Y-96012000D01*
X146050000Y-96032000D01*
X145796000Y-96032000D01*
X145796000Y-96012000D01*
X145776000Y-96012000D01*
X145776000Y-95758000D01*
X145796000Y-95758000D01*
X145796000Y-95738000D01*
X146050000Y-95738000D01*
X146050000Y-95758000D01*
G36*
X129926096Y-94265961D02*
X130048085Y-94488000D01*
X131191000Y-94488000D01*
X131191000Y-94468000D01*
X131445000Y-94468000D01*
X131445000Y-94488000D01*
X132587915Y-94488000D01*
X132709904Y-94265961D01*
X132665188Y-94158000D01*
X137621199Y-94158000D01*
X137900758Y-94437560D01*
X137503000Y-94437560D01*
X137255235Y-94486843D01*
X137045191Y-94627191D01*
X136904843Y-94837235D01*
X136855560Y-95085000D01*
X136855560Y-95125000D01*
X132643236Y-95125000D01*
X132709904Y-94964039D01*
X132587915Y-94742000D01*
X131445000Y-94742000D01*
X131445000Y-94762000D01*
X131191000Y-94762000D01*
X131191000Y-94742000D01*
X130048085Y-94742000D01*
X129926096Y-94964039D01*
X129992764Y-95125000D01*
X125059668Y-95125000D01*
X125161113Y-94615000D01*
X125070210Y-94158000D01*
X129970812Y-94158000D01*
X129926096Y-94265961D01*
X129926096Y-94265961D01*
G37*
X129926096Y-94265961D02*
X130048085Y-94488000D01*
X131191000Y-94488000D01*
X131191000Y-94468000D01*
X131445000Y-94468000D01*
X131445000Y-94488000D01*
X132587915Y-94488000D01*
X132709904Y-94265961D01*
X132665188Y-94158000D01*
X137621199Y-94158000D01*
X137900758Y-94437560D01*
X137503000Y-94437560D01*
X137255235Y-94486843D01*
X137045191Y-94627191D01*
X136904843Y-94837235D01*
X136855560Y-95085000D01*
X136855560Y-95125000D01*
X132643236Y-95125000D01*
X132709904Y-94964039D01*
X132587915Y-94742000D01*
X131445000Y-94742000D01*
X131445000Y-94762000D01*
X131191000Y-94762000D01*
X131191000Y-94742000D01*
X130048085Y-94742000D01*
X129926096Y-94964039D01*
X129992764Y-95125000D01*
X125059668Y-95125000D01*
X125161113Y-94615000D01*
X125070210Y-94158000D01*
X129970812Y-94158000D01*
X129926096Y-94265961D01*
G36*
X140283091Y-81996740D02*
X140701667Y-82080000D01*
X140984333Y-82080000D01*
X141166887Y-82043688D01*
X149312898Y-90189700D01*
X132606403Y-90189700D01*
X132669740Y-90094909D01*
X132781113Y-89535000D01*
X132670802Y-88980432D01*
X132704929Y-88957629D01*
X132747331Y-88894170D01*
X139900441Y-81741061D01*
X140283091Y-81996740D01*
X140283091Y-81996740D01*
G37*
X140283091Y-81996740D02*
X140701667Y-82080000D01*
X140984333Y-82080000D01*
X141166887Y-82043688D01*
X149312898Y-90189700D01*
X132606403Y-90189700D01*
X132669740Y-90094909D01*
X132781113Y-89535000D01*
X132670802Y-88980432D01*
X132704929Y-88957629D01*
X132747331Y-88894170D01*
X139900441Y-81741061D01*
X140283091Y-81996740D01*
G36*
X135321748Y-82495858D02*
X135307605Y-82510000D01*
X135321748Y-82524142D01*
X135142142Y-82703748D01*
X135128000Y-82689605D01*
X134299861Y-83517745D01*
X134373995Y-83763864D01*
X134911223Y-83956965D01*
X135481454Y-83929778D01*
X135619160Y-83872738D01*
X132733959Y-86757940D01*
X132669740Y-86435091D01*
X132403326Y-86036375D01*
X133631973Y-84807729D01*
X133695429Y-84765329D01*
X133863404Y-84513937D01*
X133907500Y-84292252D01*
X133907500Y-84292248D01*
X133922388Y-84217401D01*
X133907500Y-84142554D01*
X133907500Y-83274055D01*
X134120255Y-83338139D01*
X134948395Y-82510000D01*
X134934253Y-82495858D01*
X135113858Y-82316253D01*
X135128000Y-82330395D01*
X135142143Y-82316253D01*
X135321748Y-82495858D01*
X135321748Y-82495858D01*
G37*
X135321748Y-82495858D02*
X135307605Y-82510000D01*
X135321748Y-82524142D01*
X135142142Y-82703748D01*
X135128000Y-82689605D01*
X134299861Y-83517745D01*
X134373995Y-83763864D01*
X134911223Y-83956965D01*
X135481454Y-83929778D01*
X135619160Y-83872738D01*
X132733959Y-86757940D01*
X132669740Y-86435091D01*
X132403326Y-86036375D01*
X133631973Y-84807729D01*
X133695429Y-84765329D01*
X133863404Y-84513937D01*
X133907500Y-84292252D01*
X133907500Y-84292248D01*
X133922388Y-84217401D01*
X133907500Y-84142554D01*
X133907500Y-83274055D01*
X134120255Y-83338139D01*
X134948395Y-82510000D01*
X134934253Y-82495858D01*
X135113858Y-82316253D01*
X135128000Y-82330395D01*
X135142143Y-82316253D01*
X135321748Y-82495858D01*
G36*
X98346126Y-80283000D02*
X98757874Y-80283000D01*
X98765841Y-80279700D01*
X105797550Y-80279700D01*
X105724887Y-80645000D01*
X105836260Y-81204909D01*
X106153423Y-81679577D01*
X106432104Y-81865786D01*
X106449386Y-81952667D01*
X106153423Y-82150423D01*
X105836260Y-82625091D01*
X105724887Y-83185000D01*
X105836260Y-83744909D01*
X106153423Y-84219577D01*
X106505758Y-84455000D01*
X106153423Y-84690423D01*
X105967214Y-84969104D01*
X105766163Y-85009096D01*
X105514771Y-85177071D01*
X105472371Y-85240527D01*
X104344799Y-86368100D01*
X93244154Y-86368100D01*
X93299740Y-86284909D01*
X93411113Y-85725000D01*
X93299740Y-85165091D01*
X92982577Y-84690423D01*
X92630242Y-84455000D01*
X92982577Y-84219577D01*
X93299740Y-83744909D01*
X93411113Y-83185000D01*
X93299740Y-82625091D01*
X92982577Y-82150423D01*
X92861894Y-82069785D01*
X92995765Y-82043157D01*
X93205809Y-81902809D01*
X93346157Y-81692765D01*
X93395440Y-81445000D01*
X93395440Y-80279700D01*
X98338159Y-80279700D01*
X98346126Y-80283000D01*
X98346126Y-80283000D01*
G37*
X98346126Y-80283000D02*
X98757874Y-80283000D01*
X98765841Y-80279700D01*
X105797550Y-80279700D01*
X105724887Y-80645000D01*
X105836260Y-81204909D01*
X106153423Y-81679577D01*
X106432104Y-81865786D01*
X106449386Y-81952667D01*
X106153423Y-82150423D01*
X105836260Y-82625091D01*
X105724887Y-83185000D01*
X105836260Y-83744909D01*
X106153423Y-84219577D01*
X106505758Y-84455000D01*
X106153423Y-84690423D01*
X105967214Y-84969104D01*
X105766163Y-85009096D01*
X105514771Y-85177071D01*
X105472371Y-85240527D01*
X104344799Y-86368100D01*
X93244154Y-86368100D01*
X93299740Y-86284909D01*
X93411113Y-85725000D01*
X93299740Y-85165091D01*
X92982577Y-84690423D01*
X92630242Y-84455000D01*
X92982577Y-84219577D01*
X93299740Y-83744909D01*
X93411113Y-83185000D01*
X93299740Y-82625091D01*
X92982577Y-82150423D01*
X92861894Y-82069785D01*
X92995765Y-82043157D01*
X93205809Y-81902809D01*
X93346157Y-81692765D01*
X93395440Y-81445000D01*
X93395440Y-80279700D01*
X98338159Y-80279700D01*
X98346126Y-80283000D01*
G36*
X131622275Y-77484650D02*
X132059402Y-77571600D01*
X132354598Y-77571600D01*
X132717001Y-77499514D01*
X132717001Y-77712197D01*
X132419599Y-78009600D01*
X132253526Y-78009600D01*
X131873120Y-78167169D01*
X131581969Y-78458320D01*
X131424400Y-78838726D01*
X131424400Y-79220292D01*
X131403263Y-79224496D01*
X131151871Y-79392471D01*
X131109471Y-79455927D01*
X130402017Y-80163381D01*
X130396014Y-80157378D01*
X130281139Y-80272253D01*
X130207005Y-80026136D01*
X129669777Y-79833035D01*
X129099546Y-79860222D01*
X128698995Y-80026136D01*
X128624861Y-80272255D01*
X129453000Y-81100395D01*
X129467142Y-81086252D01*
X129646748Y-81265858D01*
X129632605Y-81280000D01*
X129646748Y-81294143D01*
X129467143Y-81473748D01*
X129453000Y-81459605D01*
X129438858Y-81473748D01*
X129259253Y-81294143D01*
X129273395Y-81280000D01*
X128445255Y-80451861D01*
X128199136Y-80525995D01*
X128006035Y-81063223D01*
X128033222Y-81633454D01*
X128038170Y-81645400D01*
X121289879Y-81645400D01*
X121323000Y-81565439D01*
X121323000Y-80994561D01*
X121104534Y-80467138D01*
X120700862Y-80063466D01*
X120173439Y-79845000D01*
X119602561Y-79845000D01*
X119075138Y-80063466D01*
X118671466Y-80467138D01*
X118644475Y-80532299D01*
X118641864Y-80525995D01*
X118395745Y-80451861D01*
X117567605Y-81280000D01*
X117581748Y-81294143D01*
X117402143Y-81473748D01*
X117388000Y-81459605D01*
X117373858Y-81473748D01*
X117194253Y-81294143D01*
X117208395Y-81280000D01*
X116380255Y-80451861D01*
X116134136Y-80525995D01*
X115941035Y-81063223D01*
X115968222Y-81633454D01*
X115973170Y-81645400D01*
X115582202Y-81645400D01*
X114056401Y-80119600D01*
X114426274Y-80119600D01*
X114806680Y-79962031D01*
X114924111Y-79844600D01*
X117362208Y-79844600D01*
X117034546Y-79860222D01*
X116633995Y-80026136D01*
X116559861Y-80272255D01*
X117388000Y-81100395D01*
X118216139Y-80272255D01*
X118142005Y-80026136D01*
X117636952Y-79844600D01*
X128303153Y-79844600D01*
X128378000Y-79859488D01*
X128452847Y-79844600D01*
X128452852Y-79844600D01*
X128674537Y-79800504D01*
X128925929Y-79632529D01*
X128968331Y-79569070D01*
X131280871Y-77256531D01*
X131622275Y-77484650D01*
X131622275Y-77484650D01*
G37*
X131622275Y-77484650D02*
X132059402Y-77571600D01*
X132354598Y-77571600D01*
X132717001Y-77499514D01*
X132717001Y-77712197D01*
X132419599Y-78009600D01*
X132253526Y-78009600D01*
X131873120Y-78167169D01*
X131581969Y-78458320D01*
X131424400Y-78838726D01*
X131424400Y-79220292D01*
X131403263Y-79224496D01*
X131151871Y-79392471D01*
X131109471Y-79455927D01*
X130402017Y-80163381D01*
X130396014Y-80157378D01*
X130281139Y-80272253D01*
X130207005Y-80026136D01*
X129669777Y-79833035D01*
X129099546Y-79860222D01*
X128698995Y-80026136D01*
X128624861Y-80272255D01*
X129453000Y-81100395D01*
X129467142Y-81086252D01*
X129646748Y-81265858D01*
X129632605Y-81280000D01*
X129646748Y-81294143D01*
X129467143Y-81473748D01*
X129453000Y-81459605D01*
X129438858Y-81473748D01*
X129259253Y-81294143D01*
X129273395Y-81280000D01*
X128445255Y-80451861D01*
X128199136Y-80525995D01*
X128006035Y-81063223D01*
X128033222Y-81633454D01*
X128038170Y-81645400D01*
X121289879Y-81645400D01*
X121323000Y-81565439D01*
X121323000Y-80994561D01*
X121104534Y-80467138D01*
X120700862Y-80063466D01*
X120173439Y-79845000D01*
X119602561Y-79845000D01*
X119075138Y-80063466D01*
X118671466Y-80467138D01*
X118644475Y-80532299D01*
X118641864Y-80525995D01*
X118395745Y-80451861D01*
X117567605Y-81280000D01*
X117581748Y-81294143D01*
X117402143Y-81473748D01*
X117388000Y-81459605D01*
X117373858Y-81473748D01*
X117194253Y-81294143D01*
X117208395Y-81280000D01*
X116380255Y-80451861D01*
X116134136Y-80525995D01*
X115941035Y-81063223D01*
X115968222Y-81633454D01*
X115973170Y-81645400D01*
X115582202Y-81645400D01*
X114056401Y-80119600D01*
X114426274Y-80119600D01*
X114806680Y-79962031D01*
X114924111Y-79844600D01*
X117362208Y-79844600D01*
X117034546Y-79860222D01*
X116633995Y-80026136D01*
X116559861Y-80272255D01*
X117388000Y-81100395D01*
X118216139Y-80272255D01*
X118142005Y-80026136D01*
X117636952Y-79844600D01*
X128303153Y-79844600D01*
X128378000Y-79859488D01*
X128452847Y-79844600D01*
X128452852Y-79844600D01*
X128674537Y-79800504D01*
X128925929Y-79632529D01*
X128968331Y-79569070D01*
X131280871Y-77256531D01*
X131622275Y-77484650D01*
G04 #@! TD*
M02*
