M48
;DRILL file {KiCad (5.0.0-3-g5ebb6b6)} date 
;FORMAT={-:-/ absolute / metric / decimal}
FMAT,2
METRIC,TZ
T1C0.400
T2C0.762
T3C0.800
T4C1.000
T5C1.016
T6C3.200
%
G90
G05
M71
T1
X87.503Y-88.525
X88.49Y-122.254
X90.159Y-94.27
X97.155Y-82.677
X98.552Y-79.248
X98.679Y-129.032
X102.108Y-97.028
X109.461Y-79.282
X112.55Y-95.885
X114.22Y-79.085
X117.888Y-106.418
X120.51Y-118.565
X132.459Y-79.045
X133.435Y-79.596
X138.43Y-89.662
X140.339Y-104.957
X140.344Y-111.863
X141.303Y-109.866
X141.441Y-107.529
X144.272Y-87.122
X149.913Y-111.475
X155.099Y-90.586
X159.227Y-91.397
X160.274Y-75.819
T2
X123.563Y-115.145
X128.643Y-115.145
T3
X135.128Y-80.01
X135.128Y-82.51
X119.243Y-120.495
X129.403Y-120.495
X126.893Y-123.915
X129.393Y-123.915
X173.951Y-99.859
X173.951Y-110.019
X133.273Y-118.255
X133.273Y-120.755
X123.698Y-84.455
X123.698Y-86.995
X123.698Y-89.535
X123.698Y-92.075
X123.698Y-94.615
X123.698Y-97.155
X123.698Y-99.695
X123.698Y-102.235
X131.318Y-84.455
X131.318Y-86.995
X131.318Y-89.535
X131.318Y-92.075
X131.318Y-94.615
X131.318Y-97.155
X131.318Y-99.695
X131.318Y-102.235
X110.943Y-118.105
X113.443Y-118.105
X136.613Y-118.695
X136.613Y-133.935
X139.153Y-118.695
X139.153Y-133.935
X141.693Y-118.695
X141.693Y-133.935
X144.233Y-118.695
X144.233Y-133.935
X146.773Y-118.695
X146.773Y-133.935
X149.313Y-118.695
X149.313Y-133.935
X151.853Y-118.695
X151.853Y-133.935
X154.393Y-118.695
X154.393Y-133.935
X156.933Y-118.695
X156.933Y-133.935
X159.473Y-118.695
X159.473Y-133.935
X162.013Y-118.695
X162.013Y-133.935
X164.553Y-118.695
X164.553Y-133.935
X167.093Y-118.695
X167.093Y-133.935
X169.633Y-118.695
X169.633Y-133.935
X117.388Y-81.28
X119.888Y-81.28
X110.943Y-122.905
X113.483Y-122.905
X116.023Y-122.905
X96.052Y-73.025
X98.552Y-73.025
X138.303Y-80.645
X138.303Y-95.885
X140.843Y-80.645
X140.843Y-95.885
X143.383Y-80.645
X143.383Y-95.885
X145.923Y-80.645
X145.923Y-95.885
X148.463Y-80.645
X148.463Y-95.885
X151.003Y-80.645
X151.003Y-95.885
X153.543Y-80.645
X153.543Y-95.885
X156.083Y-80.645
X156.083Y-95.885
X158.623Y-80.645
X158.623Y-95.885
X161.163Y-80.645
X161.163Y-95.885
X163.703Y-80.645
X163.703Y-95.885
X166.243Y-80.645
X166.243Y-95.885
X168.783Y-80.645
X168.783Y-95.885
X171.323Y-80.645
X171.323Y-95.885
X170.345Y-99.859
X170.345Y-110.019
X135.043Y-99.865
X135.043Y-102.365
X111.633Y-84.455
X111.633Y-86.995
X111.633Y-89.535
X111.633Y-92.075
X111.633Y-94.615
X111.633Y-97.155
X111.633Y-99.695
X111.633Y-102.235
X119.253Y-84.455
X119.253Y-86.995
X119.253Y-89.535
X119.253Y-92.075
X119.253Y-94.615
X119.253Y-97.155
X119.253Y-99.695
X119.253Y-102.235
X91.948Y-80.645
X91.948Y-83.185
X91.948Y-85.725
X91.948Y-88.265
X91.948Y-90.805
X91.948Y-93.345
X91.948Y-95.885
X91.948Y-98.425
X91.948Y-100.965
X91.948Y-103.505
X91.948Y-106.045
X91.948Y-108.585
X91.948Y-111.125
X91.948Y-113.665
X91.948Y-116.205
X91.948Y-118.745
X91.948Y-121.285
X91.948Y-123.825
X91.948Y-126.365
X91.948Y-128.905
X107.188Y-80.645
X107.188Y-83.185
X107.188Y-85.725
X107.188Y-88.265
X107.188Y-90.805
X107.188Y-93.345
X107.188Y-95.885
X107.188Y-98.425
X107.188Y-100.965
X107.188Y-103.505
X107.188Y-106.045
X107.188Y-108.585
X107.188Y-111.125
X107.188Y-113.665
X107.188Y-116.205
X107.188Y-118.745
X107.188Y-121.285
X107.188Y-123.825
X107.188Y-126.365
X107.188Y-128.905
X177.253Y-99.859
X177.253Y-110.019
X138.354Y-99.797
X138.354Y-115.037
X140.894Y-99.797
X140.894Y-115.037
X143.434Y-99.797
X143.434Y-115.037
X145.974Y-99.797
X145.974Y-115.037
X148.514Y-99.797
X148.514Y-115.037
X151.054Y-99.797
X151.054Y-115.037
X153.594Y-99.797
X153.594Y-115.037
X156.134Y-99.797
X156.134Y-115.037
X158.674Y-99.797
X158.674Y-115.037
X161.214Y-99.797
X161.214Y-115.037
X163.754Y-99.797
X163.754Y-115.037
X166.294Y-99.797
X166.294Y-115.037
X119.273Y-123.985
X121.773Y-123.985
X111.1Y-128.676
X121.26Y-128.676
X129.453Y-81.28
X131.953Y-81.28
X111.1Y-132.486
X121.26Y-132.486
T4
X123.698Y-107.315
X123.698Y-109.855
X126.238Y-107.315
X126.238Y-109.855
X128.778Y-107.315
X128.778Y-109.855
X131.318Y-107.315
X131.318Y-109.855
X83.693Y-108.585
X83.693Y-111.125
X83.693Y-113.665
X83.693Y-116.205
X83.693Y-118.745
X83.693Y-121.285
X83.693Y-123.825
X86.233Y-108.585
X86.233Y-111.125
X86.233Y-113.665
X86.233Y-116.205
X86.233Y-118.745
X86.233Y-121.285
X86.233Y-123.825
X176.653Y-115.855
X176.653Y-118.395
X176.653Y-120.935
X176.653Y-123.475
X176.653Y-126.015
X83.693Y-79.995
X83.693Y-82.535
X83.693Y-85.075
X83.693Y-87.615
X83.693Y-90.155
X83.693Y-92.695
X83.693Y-95.235
X86.233Y-79.995
X86.233Y-82.535
X86.233Y-85.075
X86.233Y-87.615
X86.233Y-90.155
X86.233Y-92.695
X86.233Y-95.235
X111.735Y-114.275
X114.275Y-114.275
X116.815Y-114.275
X176.653Y-92.915
X176.653Y-95.455
X176.809Y-74.041
X176.809Y-76.581
X176.809Y-79.121
X176.809Y-81.661
X176.809Y-84.201
X176.809Y-86.741
X111.633Y-107.315
X111.633Y-109.855
X114.173Y-107.315
X114.173Y-109.855
X116.713Y-107.315
X116.713Y-109.855
X119.253Y-107.315
X119.253Y-109.855
X166.37Y-72.771
X168.91Y-72.771
X171.45Y-72.771
T5
X106.807Y-73.533
X106.807Y-76.073
X109.347Y-73.533
X109.347Y-76.073
X111.887Y-73.533
X111.887Y-76.073
X114.427Y-73.533
X114.427Y-76.073
X116.967Y-73.533
X116.967Y-76.073
X119.507Y-73.533
X119.507Y-76.073
X122.047Y-73.533
X122.047Y-76.073
X124.587Y-73.533
X124.587Y-76.073
X127.127Y-73.533
X127.127Y-76.073
X129.667Y-73.533
X129.667Y-76.073
X132.207Y-73.533
X132.207Y-76.073
X134.747Y-73.533
X134.747Y-76.073
X137.287Y-73.533
X137.287Y-76.073
X139.827Y-73.533
X139.827Y-76.073
X142.367Y-73.533
X142.367Y-76.073
X144.907Y-73.533
X144.907Y-76.073
X147.447Y-73.533
X147.447Y-76.073
X149.987Y-73.533
X149.987Y-76.073
X152.527Y-73.533
X152.527Y-76.073
X155.067Y-73.533
X155.067Y-76.073
T6
X174.793Y-133.265
X86.753Y-133.225
X86.716Y-67.208
X174.823Y-67.215
T0
M30
