G04 #@! TF.GenerationSoftware,KiCad,Pcbnew,(5.0.0-3-g5ebb6b6)*
G04 #@! TF.CreationDate,2018-11-18T15:08:20+09:00*
G04 #@! TF.ProjectId,Z80-8251-PPI,5A38302D383235312D5050492E6B6963,rev?*
G04 #@! TF.SameCoordinates,Original*
G04 #@! TF.FileFunction,Legend,Top*
G04 #@! TF.FilePolarity,Positive*
%FSLAX46Y46*%
G04 Gerber Fmt 4.6, Leading zero omitted, Abs format (unit mm)*
G04 Created by KiCad (PCBNEW (5.0.0-3-g5ebb6b6)) date *
%MOMM*%
%LPD*%
G01*
G04 APERTURE LIST*
%ADD10C,0.300000*%
%ADD11C,0.200000*%
%ADD12C,0.150000*%
%ADD13C,0.120000*%
G04 APERTURE END LIST*
D10*
X104101828Y-72967042D02*
X102958971Y-73609900D01*
X102958971Y-72324185D01*
X104101828Y-72967042D01*
D11*
X129722523Y-110363571D02*
X130055857Y-110363571D01*
X130198714Y-110887380D02*
X129722523Y-110887380D01*
X129722523Y-109887380D01*
X130198714Y-109887380D01*
X130817761Y-109887380D02*
X130913000Y-109887380D01*
X131008238Y-109935000D01*
X131055857Y-109982619D01*
X131103476Y-110077857D01*
X131151095Y-110268333D01*
X131151095Y-110506428D01*
X131103476Y-110696904D01*
X131055857Y-110792142D01*
X131008238Y-110839761D01*
X130913000Y-110887380D01*
X130817761Y-110887380D01*
X130722523Y-110839761D01*
X130674904Y-110792142D01*
X130627285Y-110696904D01*
X130579666Y-110506428D01*
X130579666Y-110268333D01*
X130627285Y-110077857D01*
X130674904Y-109982619D01*
X130722523Y-109935000D01*
X130817761Y-109887380D01*
X130216333Y-108462142D02*
X130168714Y-108509761D01*
X130025857Y-108557380D01*
X129930619Y-108557380D01*
X129787761Y-108509761D01*
X129692523Y-108414523D01*
X129644904Y-108319285D01*
X129597285Y-108128809D01*
X129597285Y-107985952D01*
X129644904Y-107795476D01*
X129692523Y-107700238D01*
X129787761Y-107605000D01*
X129930619Y-107557380D01*
X130025857Y-107557380D01*
X130168714Y-107605000D01*
X130216333Y-107652619D01*
X130835380Y-107557380D02*
X130930619Y-107557380D01*
X131025857Y-107605000D01*
X131073476Y-107652619D01*
X131121095Y-107747857D01*
X131168714Y-107938333D01*
X131168714Y-108176428D01*
X131121095Y-108366904D01*
X131073476Y-108462142D01*
X131025857Y-108509761D01*
X130930619Y-108557380D01*
X130835380Y-108557380D01*
X130740142Y-108509761D01*
X130692523Y-108462142D01*
X130644904Y-108366904D01*
X130597285Y-108176428D01*
X130597285Y-107938333D01*
X130644904Y-107747857D01*
X130692523Y-107652619D01*
X130740142Y-107605000D01*
X130835380Y-107557380D01*
X129718714Y-105531666D02*
X130194904Y-105531666D01*
X129623476Y-105817380D02*
X129956809Y-104817380D01*
X130290142Y-105817380D01*
X130813952Y-104817380D02*
X130909190Y-104817380D01*
X131004428Y-104865000D01*
X131052047Y-104912619D01*
X131099666Y-105007857D01*
X131147285Y-105198333D01*
X131147285Y-105436428D01*
X131099666Y-105626904D01*
X131052047Y-105722142D01*
X131004428Y-105769761D01*
X130909190Y-105817380D01*
X130813952Y-105817380D01*
X130718714Y-105769761D01*
X130671095Y-105722142D01*
X130623476Y-105626904D01*
X130575857Y-105436428D01*
X130575857Y-105198333D01*
X130623476Y-105007857D01*
X130671095Y-104912619D01*
X130718714Y-104865000D01*
X130813952Y-104817380D01*
X129841571Y-102575952D02*
X129746333Y-102528333D01*
X129698714Y-102480714D01*
X129651095Y-102385476D01*
X129651095Y-102337857D01*
X129698714Y-102242619D01*
X129746333Y-102195000D01*
X129841571Y-102147380D01*
X130032047Y-102147380D01*
X130127285Y-102195000D01*
X130174904Y-102242619D01*
X130222523Y-102337857D01*
X130222523Y-102385476D01*
X130174904Y-102480714D01*
X130127285Y-102528333D01*
X130032047Y-102575952D01*
X129841571Y-102575952D01*
X129746333Y-102623571D01*
X129698714Y-102671190D01*
X129651095Y-102766428D01*
X129651095Y-102956904D01*
X129698714Y-103052142D01*
X129746333Y-103099761D01*
X129841571Y-103147380D01*
X130032047Y-103147380D01*
X130127285Y-103099761D01*
X130174904Y-103052142D01*
X130222523Y-102956904D01*
X130222523Y-102766428D01*
X130174904Y-102671190D01*
X130127285Y-102623571D01*
X130032047Y-102575952D01*
X130841571Y-102147380D02*
X130936809Y-102147380D01*
X131032047Y-102195000D01*
X131079666Y-102242619D01*
X131127285Y-102337857D01*
X131174904Y-102528333D01*
X131174904Y-102766428D01*
X131127285Y-102956904D01*
X131079666Y-103052142D01*
X131032047Y-103099761D01*
X130936809Y-103147380D01*
X130841571Y-103147380D01*
X130746333Y-103099761D01*
X130698714Y-103052142D01*
X130651095Y-102956904D01*
X130603476Y-102766428D01*
X130603476Y-102528333D01*
X130651095Y-102337857D01*
X130698714Y-102242619D01*
X130746333Y-102195000D01*
X130841571Y-102147380D01*
X130147285Y-99657380D02*
X129956809Y-99657380D01*
X129861571Y-99705000D01*
X129813952Y-99752619D01*
X129718714Y-99895476D01*
X129671095Y-100085952D01*
X129671095Y-100466904D01*
X129718714Y-100562142D01*
X129766333Y-100609761D01*
X129861571Y-100657380D01*
X130052047Y-100657380D01*
X130147285Y-100609761D01*
X130194904Y-100562142D01*
X130242523Y-100466904D01*
X130242523Y-100228809D01*
X130194904Y-100133571D01*
X130147285Y-100085952D01*
X130052047Y-100038333D01*
X129861571Y-100038333D01*
X129766333Y-100085952D01*
X129718714Y-100133571D01*
X129671095Y-100228809D01*
X130861571Y-99657380D02*
X130956809Y-99657380D01*
X131052047Y-99705000D01*
X131099666Y-99752619D01*
X131147285Y-99847857D01*
X131194904Y-100038333D01*
X131194904Y-100276428D01*
X131147285Y-100466904D01*
X131099666Y-100562142D01*
X131052047Y-100609761D01*
X130956809Y-100657380D01*
X130861571Y-100657380D01*
X130766333Y-100609761D01*
X130718714Y-100562142D01*
X130671095Y-100466904D01*
X130623476Y-100276428D01*
X130623476Y-100038333D01*
X130671095Y-99847857D01*
X130718714Y-99752619D01*
X130766333Y-99705000D01*
X130861571Y-99657380D01*
X130087285Y-97440714D02*
X130087285Y-98107380D01*
X129849190Y-97059761D02*
X129611095Y-97774047D01*
X130230142Y-97774047D01*
X130801571Y-97107380D02*
X130896809Y-97107380D01*
X130992047Y-97155000D01*
X131039666Y-97202619D01*
X131087285Y-97297857D01*
X131134904Y-97488333D01*
X131134904Y-97726428D01*
X131087285Y-97916904D01*
X131039666Y-98012142D01*
X130992047Y-98059761D01*
X130896809Y-98107380D01*
X130801571Y-98107380D01*
X130706333Y-98059761D01*
X130658714Y-98012142D01*
X130611095Y-97916904D01*
X130563476Y-97726428D01*
X130563476Y-97488333D01*
X130611095Y-97297857D01*
X130658714Y-97202619D01*
X130706333Y-97155000D01*
X130801571Y-97107380D01*
X129661095Y-94742619D02*
X129708714Y-94695000D01*
X129803952Y-94647380D01*
X130042047Y-94647380D01*
X130137285Y-94695000D01*
X130184904Y-94742619D01*
X130232523Y-94837857D01*
X130232523Y-94933095D01*
X130184904Y-95075952D01*
X129613476Y-95647380D01*
X130232523Y-95647380D01*
X130851571Y-94647380D02*
X130946809Y-94647380D01*
X131042047Y-94695000D01*
X131089666Y-94742619D01*
X131137285Y-94837857D01*
X131184904Y-95028333D01*
X131184904Y-95266428D01*
X131137285Y-95456904D01*
X131089666Y-95552142D01*
X131042047Y-95599761D01*
X130946809Y-95647380D01*
X130851571Y-95647380D01*
X130756333Y-95599761D01*
X130708714Y-95552142D01*
X130661095Y-95456904D01*
X130613476Y-95266428D01*
X130613476Y-95028333D01*
X130661095Y-94837857D01*
X130708714Y-94742619D01*
X130756333Y-94695000D01*
X130851571Y-94647380D01*
X129789190Y-92397380D02*
X129884428Y-92397380D01*
X129979666Y-92445000D01*
X130027285Y-92492619D01*
X130074904Y-92587857D01*
X130122523Y-92778333D01*
X130122523Y-93016428D01*
X130074904Y-93206904D01*
X130027285Y-93302142D01*
X129979666Y-93349761D01*
X129884428Y-93397380D01*
X129789190Y-93397380D01*
X129693952Y-93349761D01*
X129646333Y-93302142D01*
X129598714Y-93206904D01*
X129551095Y-93016428D01*
X129551095Y-92778333D01*
X129598714Y-92587857D01*
X129646333Y-92492619D01*
X129693952Y-92445000D01*
X129789190Y-92397380D01*
X130741571Y-92397380D02*
X130836809Y-92397380D01*
X130932047Y-92445000D01*
X130979666Y-92492619D01*
X131027285Y-92587857D01*
X131074904Y-92778333D01*
X131074904Y-93016428D01*
X131027285Y-93206904D01*
X130979666Y-93302142D01*
X130932047Y-93349761D01*
X130836809Y-93397380D01*
X130741571Y-93397380D01*
X130646333Y-93349761D01*
X130598714Y-93302142D01*
X130551095Y-93206904D01*
X130503476Y-93016428D01*
X130503476Y-92778333D01*
X130551095Y-92587857D01*
X130598714Y-92492619D01*
X130646333Y-92445000D01*
X130741571Y-92397380D01*
X175184428Y-104087857D02*
X175227285Y-104130714D01*
X175270142Y-104259285D01*
X175270142Y-104345000D01*
X175227285Y-104473571D01*
X175141571Y-104559285D01*
X175055857Y-104602142D01*
X174884428Y-104645000D01*
X174755857Y-104645000D01*
X174584428Y-104602142D01*
X174498714Y-104559285D01*
X174413000Y-104473571D01*
X174370142Y-104345000D01*
X174370142Y-104259285D01*
X174413000Y-104130714D01*
X174455857Y-104087857D01*
X174370142Y-103830714D02*
X174370142Y-103316428D01*
X175270142Y-103573571D02*
X174370142Y-103573571D01*
X175227285Y-103059285D02*
X175270142Y-102930714D01*
X175270142Y-102716428D01*
X175227285Y-102630714D01*
X175184428Y-102587857D01*
X175098714Y-102545000D01*
X175013000Y-102545000D01*
X174927285Y-102587857D01*
X174884428Y-102630714D01*
X174841571Y-102716428D01*
X174798714Y-102887857D01*
X174755857Y-102973571D01*
X174713000Y-103016428D01*
X174627285Y-103059285D01*
X174541571Y-103059285D01*
X174455857Y-103016428D01*
X174413000Y-102973571D01*
X174370142Y-102887857D01*
X174370142Y-102673571D01*
X174413000Y-102545000D01*
X175310142Y-96622142D02*
X174410142Y-96622142D01*
X175310142Y-96107857D01*
X174410142Y-96107857D01*
X175224428Y-95165000D02*
X175267285Y-95207857D01*
X175310142Y-95336428D01*
X175310142Y-95422142D01*
X175267285Y-95550714D01*
X175181571Y-95636428D01*
X175095857Y-95679285D01*
X174924428Y-95722142D01*
X174795857Y-95722142D01*
X174624428Y-95679285D01*
X174538714Y-95636428D01*
X174453000Y-95550714D01*
X174410142Y-95422142D01*
X174410142Y-95336428D01*
X174453000Y-95207857D01*
X174495857Y-95165000D01*
X174370142Y-101546428D02*
X174370142Y-101032142D01*
X175270142Y-101289285D02*
X174370142Y-101289285D01*
X175270142Y-100817857D02*
X174670142Y-100346428D01*
X174670142Y-100817857D02*
X175270142Y-100346428D01*
X175270142Y-98560714D02*
X174841571Y-98860714D01*
X175270142Y-99075000D02*
X174370142Y-99075000D01*
X174370142Y-98732142D01*
X174413000Y-98646428D01*
X174455857Y-98603571D01*
X174541571Y-98560714D01*
X174670142Y-98560714D01*
X174755857Y-98603571D01*
X174798714Y-98646428D01*
X174841571Y-98732142D01*
X174841571Y-99075000D01*
X175270142Y-98260714D02*
X174670142Y-97789285D01*
X174670142Y-98260714D02*
X175270142Y-97789285D01*
X175200142Y-93997857D02*
X174771571Y-94297857D01*
X175200142Y-94512142D02*
X174300142Y-94512142D01*
X174300142Y-94169285D01*
X174343000Y-94083571D01*
X174385857Y-94040714D01*
X174471571Y-93997857D01*
X174600142Y-93997857D01*
X174685857Y-94040714D01*
X174728714Y-94083571D01*
X174771571Y-94169285D01*
X174771571Y-94512142D01*
X174300142Y-93740714D02*
X174300142Y-93226428D01*
X175200142Y-93483571D02*
X174300142Y-93483571D01*
X175157285Y-92969285D02*
X175200142Y-92840714D01*
X175200142Y-92626428D01*
X175157285Y-92540714D01*
X175114428Y-92497857D01*
X175028714Y-92455000D01*
X174943000Y-92455000D01*
X174857285Y-92497857D01*
X174814428Y-92540714D01*
X174771571Y-92626428D01*
X174728714Y-92797857D01*
X174685857Y-92883571D01*
X174643000Y-92926428D01*
X174557285Y-92969285D01*
X174471571Y-92969285D01*
X174385857Y-92926428D01*
X174343000Y-92883571D01*
X174300142Y-92797857D01*
X174300142Y-92583571D01*
X174343000Y-92455000D01*
D10*
X176843000Y-88543571D02*
X176200142Y-87400714D01*
X177485857Y-87400714D01*
X176843000Y-88543571D01*
D11*
X174273000Y-90990714D02*
X174230142Y-91076428D01*
X174230142Y-91205000D01*
X174273000Y-91333571D01*
X174358714Y-91419285D01*
X174444428Y-91462142D01*
X174615857Y-91505000D01*
X174744428Y-91505000D01*
X174915857Y-91462142D01*
X175001571Y-91419285D01*
X175087285Y-91333571D01*
X175130142Y-91205000D01*
X175130142Y-91119285D01*
X175087285Y-90990714D01*
X175044428Y-90947857D01*
X174744428Y-90947857D01*
X174744428Y-91119285D01*
X175130142Y-90562142D02*
X174230142Y-90562142D01*
X175130142Y-90047857D01*
X174230142Y-90047857D01*
X175130142Y-89619285D02*
X174230142Y-89619285D01*
X174230142Y-89405000D01*
X174273000Y-89276428D01*
X174358714Y-89190714D01*
X174444428Y-89147857D01*
X174615857Y-89105000D01*
X174744428Y-89105000D01*
X174915857Y-89147857D01*
X175001571Y-89190714D01*
X175087285Y-89276428D01*
X175130142Y-89405000D01*
X175130142Y-89619285D01*
D10*
X146987285Y-80053571D02*
X146987285Y-78553571D01*
X147844428Y-80053571D02*
X147201571Y-79196428D01*
X147844428Y-78553571D02*
X146987285Y-79410714D01*
X148487285Y-78553571D02*
X148487285Y-79767857D01*
X148558714Y-79910714D01*
X148630142Y-79982142D01*
X148773000Y-80053571D01*
X149058714Y-80053571D01*
X149201571Y-79982142D01*
X149273000Y-79910714D01*
X149344428Y-79767857D01*
X149344428Y-78553571D01*
X150058714Y-80053571D02*
X150058714Y-78553571D01*
X150915857Y-80053571D01*
X150915857Y-78553571D01*
X151630142Y-80053571D02*
X151630142Y-78553571D01*
X152344428Y-79482142D02*
X153487285Y-79482142D01*
X154201571Y-80053571D02*
X154201571Y-78553571D01*
X155058714Y-80053571D01*
X155058714Y-78553571D01*
X155773000Y-79267857D02*
X156273000Y-79267857D01*
X156487285Y-80053571D02*
X155773000Y-80053571D01*
X155773000Y-78553571D01*
X156487285Y-78553571D01*
X156915857Y-78553571D02*
X157773000Y-78553571D01*
X157344428Y-80053571D02*
X157344428Y-78553571D01*
D12*
X98425000Y-83439000D02*
G75*
G03X98425000Y-83439000I-508000J0D01*
G01*
X104521000Y-81915000D02*
G75*
G02X102489000Y-81915000I-1016000J0D01*
G01*
D10*
X103235714Y-80053571D02*
X103235714Y-78553571D01*
X104092857Y-80053571D02*
X103450000Y-79196428D01*
X104092857Y-78553571D02*
X103235714Y-79410714D01*
X104592857Y-78553571D02*
X105592857Y-78553571D01*
X104592857Y-80053571D01*
X105592857Y-80053571D01*
X106378571Y-79196428D02*
X106235714Y-79125000D01*
X106164285Y-79053571D01*
X106092857Y-78910714D01*
X106092857Y-78839285D01*
X106164285Y-78696428D01*
X106235714Y-78625000D01*
X106378571Y-78553571D01*
X106664285Y-78553571D01*
X106807142Y-78625000D01*
X106878571Y-78696428D01*
X106950000Y-78839285D01*
X106950000Y-78910714D01*
X106878571Y-79053571D01*
X106807142Y-79125000D01*
X106664285Y-79196428D01*
X106378571Y-79196428D01*
X106235714Y-79267857D01*
X106164285Y-79339285D01*
X106092857Y-79482142D01*
X106092857Y-79767857D01*
X106164285Y-79910714D01*
X106235714Y-79982142D01*
X106378571Y-80053571D01*
X106664285Y-80053571D01*
X106807142Y-79982142D01*
X106878571Y-79910714D01*
X106950000Y-79767857D01*
X106950000Y-79482142D01*
X106878571Y-79339285D01*
X106807142Y-79267857D01*
X106664285Y-79196428D01*
X107878571Y-78553571D02*
X108021428Y-78553571D01*
X108164285Y-78625000D01*
X108235714Y-78696428D01*
X108307142Y-78839285D01*
X108378571Y-79125000D01*
X108378571Y-79482142D01*
X108307142Y-79767857D01*
X108235714Y-79910714D01*
X108164285Y-79982142D01*
X108021428Y-80053571D01*
X107878571Y-80053571D01*
X107735714Y-79982142D01*
X107664285Y-79910714D01*
X107592857Y-79767857D01*
X107521428Y-79482142D01*
X107521428Y-79125000D01*
X107592857Y-78839285D01*
X107664285Y-78696428D01*
X107735714Y-78625000D01*
X107878571Y-78553571D01*
X109021428Y-79482142D02*
X110164285Y-79482142D01*
X110878571Y-80053571D02*
X110878571Y-78553571D01*
X111878571Y-78553571D02*
X112164285Y-78553571D01*
X112307142Y-78625000D01*
X112450000Y-78767857D01*
X112521428Y-79053571D01*
X112521428Y-79553571D01*
X112450000Y-79839285D01*
X112307142Y-79982142D01*
X112164285Y-80053571D01*
X111878571Y-80053571D01*
X111735714Y-79982142D01*
X111592857Y-79839285D01*
X111521428Y-79553571D01*
X111521428Y-79053571D01*
X111592857Y-78767857D01*
X111735714Y-78625000D01*
X111878571Y-78553571D01*
X113664285Y-79267857D02*
X113878571Y-79339285D01*
X113950000Y-79410714D01*
X114021428Y-79553571D01*
X114021428Y-79767857D01*
X113950000Y-79910714D01*
X113878571Y-79982142D01*
X113735714Y-80053571D01*
X113164285Y-80053571D01*
X113164285Y-78553571D01*
X113664285Y-78553571D01*
X113807142Y-78625000D01*
X113878571Y-78696428D01*
X113950000Y-78839285D01*
X113950000Y-78982142D01*
X113878571Y-79125000D01*
X113807142Y-79196428D01*
X113664285Y-79267857D01*
X113164285Y-79267857D01*
X115807142Y-79910714D02*
X115878571Y-79982142D01*
X115807142Y-80053571D01*
X115735714Y-79982142D01*
X115807142Y-79910714D01*
X115807142Y-80053571D01*
X115807142Y-79125000D02*
X115878571Y-79196428D01*
X115807142Y-79267857D01*
X115735714Y-79196428D01*
X115807142Y-79125000D01*
X115807142Y-79267857D01*
X117521428Y-78553571D02*
X118521428Y-78553571D01*
X117521428Y-80053571D01*
X118521428Y-80053571D01*
X119307142Y-79196428D02*
X119164285Y-79125000D01*
X119092857Y-79053571D01*
X119021428Y-78910714D01*
X119021428Y-78839285D01*
X119092857Y-78696428D01*
X119164285Y-78625000D01*
X119307142Y-78553571D01*
X119592857Y-78553571D01*
X119735714Y-78625000D01*
X119807142Y-78696428D01*
X119878571Y-78839285D01*
X119878571Y-78910714D01*
X119807142Y-79053571D01*
X119735714Y-79125000D01*
X119592857Y-79196428D01*
X119307142Y-79196428D01*
X119164285Y-79267857D01*
X119092857Y-79339285D01*
X119021428Y-79482142D01*
X119021428Y-79767857D01*
X119092857Y-79910714D01*
X119164285Y-79982142D01*
X119307142Y-80053571D01*
X119592857Y-80053571D01*
X119735714Y-79982142D01*
X119807142Y-79910714D01*
X119878571Y-79767857D01*
X119878571Y-79482142D01*
X119807142Y-79339285D01*
X119735714Y-79267857D01*
X119592857Y-79196428D01*
X120807142Y-78553571D02*
X120950000Y-78553571D01*
X121092857Y-78625000D01*
X121164285Y-78696428D01*
X121235714Y-78839285D01*
X121307142Y-79125000D01*
X121307142Y-79482142D01*
X121235714Y-79767857D01*
X121164285Y-79910714D01*
X121092857Y-79982142D01*
X120950000Y-80053571D01*
X120807142Y-80053571D01*
X120664285Y-79982142D01*
X120592857Y-79910714D01*
X120521428Y-79767857D01*
X120450000Y-79482142D01*
X120450000Y-79125000D01*
X120521428Y-78839285D01*
X120592857Y-78696428D01*
X120664285Y-78625000D01*
X120807142Y-78553571D01*
X123092857Y-80053571D02*
X123092857Y-78553571D01*
X124878571Y-78482142D02*
X123592857Y-80410714D01*
X125664285Y-78553571D02*
X125950000Y-78553571D01*
X126092857Y-78625000D01*
X126235714Y-78767857D01*
X126307142Y-79053571D01*
X126307142Y-79553571D01*
X126235714Y-79839285D01*
X126092857Y-79982142D01*
X125950000Y-80053571D01*
X125664285Y-80053571D01*
X125521428Y-79982142D01*
X125378571Y-79839285D01*
X125307142Y-79553571D01*
X125307142Y-79053571D01*
X125378571Y-78767857D01*
X125521428Y-78625000D01*
X125664285Y-78553571D01*
X128592857Y-79267857D02*
X128807142Y-79339285D01*
X128878571Y-79410714D01*
X128950000Y-79553571D01*
X128950000Y-79767857D01*
X128878571Y-79910714D01*
X128807142Y-79982142D01*
X128664285Y-80053571D01*
X128092857Y-80053571D01*
X128092857Y-78553571D01*
X128592857Y-78553571D01*
X128735714Y-78625000D01*
X128807142Y-78696428D01*
X128878571Y-78839285D01*
X128878571Y-78982142D01*
X128807142Y-79125000D01*
X128735714Y-79196428D01*
X128592857Y-79267857D01*
X128092857Y-79267857D01*
X129878571Y-78553571D02*
X130164285Y-78553571D01*
X130307142Y-78625000D01*
X130450000Y-78767857D01*
X130521428Y-79053571D01*
X130521428Y-79553571D01*
X130450000Y-79839285D01*
X130307142Y-79982142D01*
X130164285Y-80053571D01*
X129878571Y-80053571D01*
X129735714Y-79982142D01*
X129592857Y-79839285D01*
X129521428Y-79553571D01*
X129521428Y-79053571D01*
X129592857Y-78767857D01*
X129735714Y-78625000D01*
X129878571Y-78553571D01*
X131092857Y-79625000D02*
X131807142Y-79625000D01*
X130950000Y-80053571D02*
X131450000Y-78553571D01*
X131950000Y-80053571D01*
X133307142Y-80053571D02*
X132807142Y-79339285D01*
X132450000Y-80053571D02*
X132450000Y-78553571D01*
X133021428Y-78553571D01*
X133164285Y-78625000D01*
X133235714Y-78696428D01*
X133307142Y-78839285D01*
X133307142Y-79053571D01*
X133235714Y-79196428D01*
X133164285Y-79267857D01*
X133021428Y-79339285D01*
X132450000Y-79339285D01*
X133950000Y-80053571D02*
X133950000Y-78553571D01*
X134307142Y-78553571D01*
X134521428Y-78625000D01*
X134664285Y-78767857D01*
X134735714Y-78910714D01*
X134807142Y-79196428D01*
X134807142Y-79410714D01*
X134735714Y-79696428D01*
X134664285Y-79839285D01*
X134521428Y-79982142D01*
X134307142Y-80053571D01*
X133950000Y-80053571D01*
X137450000Y-80053571D02*
X136950000Y-79339285D01*
X136592857Y-80053571D02*
X136592857Y-78553571D01*
X137164285Y-78553571D01*
X137307142Y-78625000D01*
X137378571Y-78696428D01*
X137450000Y-78839285D01*
X137450000Y-79053571D01*
X137378571Y-79196428D01*
X137307142Y-79267857D01*
X137164285Y-79339285D01*
X136592857Y-79339285D01*
X138092857Y-79267857D02*
X138592857Y-79267857D01*
X138807142Y-80053571D02*
X138092857Y-80053571D01*
X138092857Y-78553571D01*
X138807142Y-78553571D01*
X139235714Y-78553571D02*
X139735714Y-80053571D01*
X140235714Y-78553571D01*
X141521428Y-80053571D02*
X140664285Y-80053571D01*
X141092857Y-80053571D02*
X141092857Y-78553571D01*
X140950000Y-78767857D01*
X140807142Y-78910714D01*
X140664285Y-78982142D01*
X142164285Y-79910714D02*
X142235714Y-79982142D01*
X142164285Y-80053571D01*
X142092857Y-79982142D01*
X142164285Y-79910714D01*
X142164285Y-80053571D01*
X143664285Y-80053571D02*
X142807142Y-80053571D01*
X143235714Y-80053571D02*
X143235714Y-78553571D01*
X143092857Y-78767857D01*
X142950000Y-78910714D01*
X142807142Y-78982142D01*
D12*
X86068238Y-103112142D02*
X86020619Y-103159761D01*
X85877761Y-103207380D01*
X85782523Y-103207380D01*
X85639666Y-103159761D01*
X85544428Y-103064523D01*
X85496809Y-102969285D01*
X85449190Y-102778809D01*
X85449190Y-102635952D01*
X85496809Y-102445476D01*
X85544428Y-102350238D01*
X85639666Y-102255000D01*
X85782523Y-102207380D01*
X85877761Y-102207380D01*
X86020619Y-102255000D01*
X86068238Y-102302619D01*
X86687285Y-102207380D02*
X86877761Y-102207380D01*
X86973000Y-102255000D01*
X87068238Y-102350238D01*
X87115857Y-102540714D01*
X87115857Y-102874047D01*
X87068238Y-103064523D01*
X86973000Y-103159761D01*
X86877761Y-103207380D01*
X86687285Y-103207380D01*
X86592047Y-103159761D01*
X86496809Y-103064523D01*
X86449190Y-102874047D01*
X86449190Y-102540714D01*
X86496809Y-102350238D01*
X86592047Y-102255000D01*
X86687285Y-102207380D01*
X87544428Y-103207380D02*
X87544428Y-102207380D01*
X87877761Y-102921666D01*
X88211095Y-102207380D01*
X88211095Y-103207380D01*
X88687285Y-102826428D02*
X89449190Y-102826428D01*
X90258714Y-102683571D02*
X90401571Y-102731190D01*
X90449190Y-102778809D01*
X90496809Y-102874047D01*
X90496809Y-103016904D01*
X90449190Y-103112142D01*
X90401571Y-103159761D01*
X90306333Y-103207380D01*
X89925380Y-103207380D01*
X89925380Y-102207380D01*
X90258714Y-102207380D01*
X90353952Y-102255000D01*
X90401571Y-102302619D01*
X90449190Y-102397857D01*
X90449190Y-102493095D01*
X90401571Y-102588333D01*
X90353952Y-102635952D01*
X90258714Y-102683571D01*
X89925380Y-102683571D01*
X86139666Y-73992142D02*
X86092047Y-74039761D01*
X85949190Y-74087380D01*
X85853952Y-74087380D01*
X85711095Y-74039761D01*
X85615857Y-73944523D01*
X85568238Y-73849285D01*
X85520619Y-73658809D01*
X85520619Y-73515952D01*
X85568238Y-73325476D01*
X85615857Y-73230238D01*
X85711095Y-73135000D01*
X85853952Y-73087380D01*
X85949190Y-73087380D01*
X86092047Y-73135000D01*
X86139666Y-73182619D01*
X86758714Y-73087380D02*
X86949190Y-73087380D01*
X87044428Y-73135000D01*
X87139666Y-73230238D01*
X87187285Y-73420714D01*
X87187285Y-73754047D01*
X87139666Y-73944523D01*
X87044428Y-74039761D01*
X86949190Y-74087380D01*
X86758714Y-74087380D01*
X86663476Y-74039761D01*
X86568238Y-73944523D01*
X86520619Y-73754047D01*
X86520619Y-73420714D01*
X86568238Y-73230238D01*
X86663476Y-73135000D01*
X86758714Y-73087380D01*
X87615857Y-74087380D02*
X87615857Y-73087380D01*
X87949190Y-73801666D01*
X88282523Y-73087380D01*
X88282523Y-74087380D01*
X88758714Y-73706428D02*
X89520619Y-73706428D01*
X89949190Y-73801666D02*
X90425380Y-73801666D01*
X89853952Y-74087380D02*
X90187285Y-73087380D01*
X90520619Y-74087380D01*
X176474904Y-106102619D02*
X176522523Y-106055000D01*
X176617761Y-106007380D01*
X176855857Y-106007380D01*
X176951095Y-106055000D01*
X176998714Y-106102619D01*
X177046333Y-106197857D01*
X177046333Y-106293095D01*
X176998714Y-106435952D01*
X176427285Y-107007380D01*
X177046333Y-107007380D01*
X177379666Y-106007380D02*
X177998714Y-106007380D01*
X177665380Y-106388333D01*
X177808238Y-106388333D01*
X177903476Y-106435952D01*
X177951095Y-106483571D01*
X177998714Y-106578809D01*
X177998714Y-106816904D01*
X177951095Y-106912142D01*
X177903476Y-106959761D01*
X177808238Y-107007380D01*
X177522523Y-107007380D01*
X177427285Y-106959761D01*
X177379666Y-106912142D01*
X178379666Y-106102619D02*
X178427285Y-106055000D01*
X178522523Y-106007380D01*
X178760619Y-106007380D01*
X178855857Y-106055000D01*
X178903476Y-106102619D01*
X178951095Y-106197857D01*
X178951095Y-106293095D01*
X178903476Y-106435952D01*
X178332047Y-107007380D01*
X178951095Y-107007380D01*
X179951095Y-106912142D02*
X179903476Y-106959761D01*
X179760619Y-107007380D01*
X179665380Y-107007380D01*
X179522523Y-106959761D01*
X179427285Y-106864523D01*
X179379666Y-106769285D01*
X179332047Y-106578809D01*
X179332047Y-106435952D01*
X179379666Y-106245476D01*
X179427285Y-106150238D01*
X179522523Y-106055000D01*
X179665380Y-106007380D01*
X179760619Y-106007380D01*
X179903476Y-106055000D01*
X179951095Y-106102619D01*
X149225190Y-89923952D02*
X149129952Y-89876333D01*
X149082333Y-89828714D01*
X149034714Y-89733476D01*
X149034714Y-89685857D01*
X149082333Y-89590619D01*
X149129952Y-89543000D01*
X149225190Y-89495380D01*
X149415666Y-89495380D01*
X149510904Y-89543000D01*
X149558523Y-89590619D01*
X149606142Y-89685857D01*
X149606142Y-89733476D01*
X149558523Y-89828714D01*
X149510904Y-89876333D01*
X149415666Y-89923952D01*
X149225190Y-89923952D01*
X149129952Y-89971571D01*
X149082333Y-90019190D01*
X149034714Y-90114428D01*
X149034714Y-90304904D01*
X149082333Y-90400142D01*
X149129952Y-90447761D01*
X149225190Y-90495380D01*
X149415666Y-90495380D01*
X149510904Y-90447761D01*
X149558523Y-90400142D01*
X149606142Y-90304904D01*
X149606142Y-90114428D01*
X149558523Y-90019190D01*
X149510904Y-89971571D01*
X149415666Y-89923952D01*
X149987095Y-89590619D02*
X150034714Y-89543000D01*
X150129952Y-89495380D01*
X150368047Y-89495380D01*
X150463285Y-89543000D01*
X150510904Y-89590619D01*
X150558523Y-89685857D01*
X150558523Y-89781095D01*
X150510904Y-89923952D01*
X149939476Y-90495380D01*
X150558523Y-90495380D01*
X151463285Y-89495380D02*
X150987095Y-89495380D01*
X150939476Y-89971571D01*
X150987095Y-89923952D01*
X151082333Y-89876333D01*
X151320428Y-89876333D01*
X151415666Y-89923952D01*
X151463285Y-89971571D01*
X151510904Y-90066809D01*
X151510904Y-90304904D01*
X151463285Y-90400142D01*
X151415666Y-90447761D01*
X151320428Y-90495380D01*
X151082333Y-90495380D01*
X150987095Y-90447761D01*
X150939476Y-90400142D01*
X152463285Y-90495380D02*
X151891857Y-90495380D01*
X152177571Y-90495380D02*
X152177571Y-89495380D01*
X152082333Y-89638238D01*
X151987095Y-89733476D01*
X151891857Y-89781095D01*
X141962333Y-89495380D02*
X142152809Y-89495380D01*
X142248047Y-89543000D01*
X142343285Y-89638238D01*
X142390904Y-89828714D01*
X142390904Y-90162047D01*
X142343285Y-90352523D01*
X142248047Y-90447761D01*
X142152809Y-90495380D01*
X141962333Y-90495380D01*
X141867095Y-90447761D01*
X141771857Y-90352523D01*
X141724238Y-90162047D01*
X141724238Y-89828714D01*
X141771857Y-89638238D01*
X141867095Y-89543000D01*
X141962333Y-89495380D01*
X142819476Y-90495380D02*
X142819476Y-89495380D01*
X143200428Y-89495380D01*
X143295666Y-89543000D01*
X143343285Y-89590619D01*
X143390904Y-89685857D01*
X143390904Y-89828714D01*
X143343285Y-89923952D01*
X143295666Y-89971571D01*
X143200428Y-90019190D01*
X142819476Y-90019190D01*
X143819476Y-90495380D02*
X143819476Y-89495380D01*
X144152809Y-90209666D01*
X144486142Y-89495380D01*
X144486142Y-90495380D01*
X134509000Y-90495380D02*
X134509000Y-89495380D01*
X134889952Y-89495380D01*
X134985190Y-89543000D01*
X135032809Y-89590619D01*
X135080428Y-89685857D01*
X135080428Y-89828714D01*
X135032809Y-89923952D01*
X134985190Y-89971571D01*
X134889952Y-90019190D01*
X134509000Y-90019190D01*
X135509000Y-90495380D02*
X135509000Y-89495380D01*
X135889952Y-89495380D01*
X135985190Y-89543000D01*
X136032809Y-89590619D01*
X136080428Y-89685857D01*
X136080428Y-89828714D01*
X136032809Y-89923952D01*
X135985190Y-89971571D01*
X135889952Y-90019190D01*
X135509000Y-90019190D01*
X136509000Y-90495380D02*
X136509000Y-89495380D01*
D10*
X163524428Y-110235714D02*
X163453000Y-110378571D01*
X163381571Y-110450000D01*
X163238714Y-110521428D01*
X163167285Y-110521428D01*
X163024428Y-110450000D01*
X162953000Y-110378571D01*
X162881571Y-110235714D01*
X162881571Y-109950000D01*
X162953000Y-109807142D01*
X163024428Y-109735714D01*
X163167285Y-109664285D01*
X163238714Y-109664285D01*
X163381571Y-109735714D01*
X163453000Y-109807142D01*
X163524428Y-109950000D01*
X163524428Y-110235714D01*
X163595857Y-110378571D01*
X163667285Y-110450000D01*
X163810142Y-110521428D01*
X164095857Y-110521428D01*
X164238714Y-110450000D01*
X164310142Y-110378571D01*
X164381571Y-110235714D01*
X164381571Y-109950000D01*
X164310142Y-109807142D01*
X164238714Y-109735714D01*
X164095857Y-109664285D01*
X163810142Y-109664285D01*
X163667285Y-109735714D01*
X163595857Y-109807142D01*
X163524428Y-109950000D01*
X163024428Y-109092857D02*
X162953000Y-109021428D01*
X162881571Y-108878571D01*
X162881571Y-108521428D01*
X162953000Y-108378571D01*
X163024428Y-108307142D01*
X163167285Y-108235714D01*
X163310142Y-108235714D01*
X163524428Y-108307142D01*
X164381571Y-109164285D01*
X164381571Y-108235714D01*
X162881571Y-106878571D02*
X162881571Y-107592857D01*
X163595857Y-107664285D01*
X163524428Y-107592857D01*
X163453000Y-107450000D01*
X163453000Y-107092857D01*
X163524428Y-106950000D01*
X163595857Y-106878571D01*
X163738714Y-106807142D01*
X164095857Y-106807142D01*
X164238714Y-106878571D01*
X164310142Y-106950000D01*
X164381571Y-107092857D01*
X164381571Y-107450000D01*
X164310142Y-107592857D01*
X164238714Y-107664285D01*
X164381571Y-105378571D02*
X164381571Y-106235714D01*
X164381571Y-105807142D02*
X162881571Y-105807142D01*
X163095857Y-105950000D01*
X163238714Y-106092857D01*
X163310142Y-106235714D01*
X121606571Y-131337142D02*
X121606571Y-130337142D01*
X123106571Y-130980000D01*
X122106571Y-129122857D02*
X123106571Y-129122857D01*
X121535142Y-129480000D02*
X122606571Y-129837142D01*
X122606571Y-128908571D01*
X123106571Y-128337142D02*
X121606571Y-128337142D01*
X122320857Y-128337142D02*
X122320857Y-127480000D01*
X123106571Y-127480000D02*
X121606571Y-127480000D01*
X122963714Y-125908571D02*
X123035142Y-125980000D01*
X123106571Y-126194285D01*
X123106571Y-126337142D01*
X123035142Y-126551428D01*
X122892285Y-126694285D01*
X122749428Y-126765714D01*
X122463714Y-126837142D01*
X122249428Y-126837142D01*
X121963714Y-126765714D01*
X121820857Y-126694285D01*
X121678000Y-126551428D01*
X121606571Y-126337142D01*
X121606571Y-126194285D01*
X121678000Y-125980000D01*
X121749428Y-125908571D01*
X122106571Y-124622857D02*
X123106571Y-124622857D01*
X121535142Y-124980000D02*
X122606571Y-125337142D01*
X122606571Y-124408571D01*
X121606571Y-123551428D02*
X121606571Y-123408571D01*
X121678000Y-123265714D01*
X121749428Y-123194285D01*
X121892285Y-123122857D01*
X122178000Y-123051428D01*
X122535142Y-123051428D01*
X122820857Y-123122857D01*
X122963714Y-123194285D01*
X123035142Y-123265714D01*
X123106571Y-123408571D01*
X123106571Y-123551428D01*
X123035142Y-123694285D01*
X122963714Y-123765714D01*
X122820857Y-123837142D01*
X122535142Y-123908571D01*
X122178000Y-123908571D01*
X121892285Y-123837142D01*
X121749428Y-123765714D01*
X121678000Y-123694285D01*
X121606571Y-123551428D01*
X121606571Y-121765714D02*
X121606571Y-122051428D01*
X121678000Y-122194285D01*
X121749428Y-122265714D01*
X121963714Y-122408571D01*
X122249428Y-122480000D01*
X122820857Y-122480000D01*
X122963714Y-122408571D01*
X123035142Y-122337142D01*
X123106571Y-122194285D01*
X123106571Y-121908571D01*
X123035142Y-121765714D01*
X122963714Y-121694285D01*
X122820857Y-121622857D01*
X122463714Y-121622857D01*
X122320857Y-121694285D01*
X122249428Y-121765714D01*
X122178000Y-121908571D01*
X122178000Y-122194285D01*
X122249428Y-122337142D01*
X122320857Y-122408571D01*
X122463714Y-122480000D01*
X121606571Y-120694285D02*
X121606571Y-120551428D01*
X121678000Y-120408571D01*
X121749428Y-120337142D01*
X121892285Y-120265714D01*
X122178000Y-120194285D01*
X122535142Y-120194285D01*
X122820857Y-120265714D01*
X122963714Y-120337142D01*
X123035142Y-120408571D01*
X123106571Y-120551428D01*
X123106571Y-120694285D01*
X123035142Y-120837142D01*
X122963714Y-120908571D01*
X122820857Y-120980000D01*
X122535142Y-121051428D01*
X122178000Y-121051428D01*
X121892285Y-120980000D01*
X121749428Y-120908571D01*
X121678000Y-120837142D01*
X121606571Y-120694285D01*
X121606571Y-106492857D02*
X121606571Y-105492857D01*
X123106571Y-106135714D01*
X122106571Y-104278571D02*
X123106571Y-104278571D01*
X121535142Y-104635714D02*
X122606571Y-104992857D01*
X122606571Y-104064285D01*
X123106571Y-103492857D02*
X121606571Y-103492857D01*
X122320857Y-103492857D02*
X122320857Y-102635714D01*
X123106571Y-102635714D02*
X121606571Y-102635714D01*
X122963714Y-101064285D02*
X123035142Y-101135714D01*
X123106571Y-101350000D01*
X123106571Y-101492857D01*
X123035142Y-101707142D01*
X122892285Y-101850000D01*
X122749428Y-101921428D01*
X122463714Y-101992857D01*
X122249428Y-101992857D01*
X121963714Y-101921428D01*
X121820857Y-101850000D01*
X121678000Y-101707142D01*
X121606571Y-101492857D01*
X121606571Y-101350000D01*
X121678000Y-101135714D01*
X121749428Y-101064285D01*
X123106571Y-99635714D02*
X123106571Y-100492857D01*
X123106571Y-100064285D02*
X121606571Y-100064285D01*
X121820857Y-100207142D01*
X121963714Y-100350000D01*
X122035142Y-100492857D01*
X121606571Y-99135714D02*
X121606571Y-98207142D01*
X122178000Y-98707142D01*
X122178000Y-98492857D01*
X122249428Y-98350000D01*
X122320857Y-98278571D01*
X122463714Y-98207142D01*
X122820857Y-98207142D01*
X122963714Y-98278571D01*
X123035142Y-98350000D01*
X123106571Y-98492857D01*
X123106571Y-98921428D01*
X123035142Y-99064285D01*
X122963714Y-99135714D01*
X122249428Y-97350000D02*
X122178000Y-97492857D01*
X122106571Y-97564285D01*
X121963714Y-97635714D01*
X121892285Y-97635714D01*
X121749428Y-97564285D01*
X121678000Y-97492857D01*
X121606571Y-97350000D01*
X121606571Y-97064285D01*
X121678000Y-96921428D01*
X121749428Y-96850000D01*
X121892285Y-96778571D01*
X121963714Y-96778571D01*
X122106571Y-96850000D01*
X122178000Y-96921428D01*
X122249428Y-97064285D01*
X122249428Y-97350000D01*
X122320857Y-97492857D01*
X122392285Y-97564285D01*
X122535142Y-97635714D01*
X122820857Y-97635714D01*
X122963714Y-97564285D01*
X123035142Y-97492857D01*
X123106571Y-97350000D01*
X123106571Y-97064285D01*
X123035142Y-96921428D01*
X122963714Y-96850000D01*
X122820857Y-96778571D01*
X122535142Y-96778571D01*
X122392285Y-96850000D01*
X122320857Y-96921428D01*
X122249428Y-97064285D01*
X103199428Y-108330714D02*
X103128000Y-108473571D01*
X103056571Y-108545000D01*
X102913714Y-108616428D01*
X102842285Y-108616428D01*
X102699428Y-108545000D01*
X102628000Y-108473571D01*
X102556571Y-108330714D01*
X102556571Y-108045000D01*
X102628000Y-107902142D01*
X102699428Y-107830714D01*
X102842285Y-107759285D01*
X102913714Y-107759285D01*
X103056571Y-107830714D01*
X103128000Y-107902142D01*
X103199428Y-108045000D01*
X103199428Y-108330714D01*
X103270857Y-108473571D01*
X103342285Y-108545000D01*
X103485142Y-108616428D01*
X103770857Y-108616428D01*
X103913714Y-108545000D01*
X103985142Y-108473571D01*
X104056571Y-108330714D01*
X104056571Y-108045000D01*
X103985142Y-107902142D01*
X103913714Y-107830714D01*
X103770857Y-107759285D01*
X103485142Y-107759285D01*
X103342285Y-107830714D01*
X103270857Y-107902142D01*
X103199428Y-108045000D01*
X102699428Y-107187857D02*
X102628000Y-107116428D01*
X102556571Y-106973571D01*
X102556571Y-106616428D01*
X102628000Y-106473571D01*
X102699428Y-106402142D01*
X102842285Y-106330714D01*
X102985142Y-106330714D01*
X103199428Y-106402142D01*
X104056571Y-107259285D01*
X104056571Y-106330714D01*
X102556571Y-104973571D02*
X102556571Y-105687857D01*
X103270857Y-105759285D01*
X103199428Y-105687857D01*
X103128000Y-105545000D01*
X103128000Y-105187857D01*
X103199428Y-105045000D01*
X103270857Y-104973571D01*
X103413714Y-104902142D01*
X103770857Y-104902142D01*
X103913714Y-104973571D01*
X103985142Y-105045000D01*
X104056571Y-105187857D01*
X104056571Y-105545000D01*
X103985142Y-105687857D01*
X103913714Y-105759285D01*
X102556571Y-103545000D02*
X102556571Y-104259285D01*
X103270857Y-104330714D01*
X103199428Y-104259285D01*
X103128000Y-104116428D01*
X103128000Y-103759285D01*
X103199428Y-103616428D01*
X103270857Y-103545000D01*
X103413714Y-103473571D01*
X103770857Y-103473571D01*
X103913714Y-103545000D01*
X103985142Y-103616428D01*
X104056571Y-103759285D01*
X104056571Y-104116428D01*
X103985142Y-104259285D01*
X103913714Y-104330714D01*
D12*
X133675380Y-128619285D02*
X133675380Y-129190714D01*
X133675380Y-128905000D02*
X132675380Y-128905000D01*
X132818238Y-129000238D01*
X132913476Y-129095476D01*
X132961095Y-129190714D01*
G04 #@! TO.C,P1*
X134493000Y-132715000D02*
X152273000Y-132715000D01*
X152273000Y-132715000D02*
X152273000Y-130175000D01*
X152273000Y-130175000D02*
X134493000Y-130175000D01*
X131673000Y-132995000D02*
X133223000Y-132995000D01*
X134493000Y-132715000D02*
X134493000Y-130175000D01*
X133223000Y-129895000D02*
X131673000Y-129895000D01*
X131673000Y-129895000D02*
X131673000Y-132995000D01*
G04 #@! TO.C,P2*
X157353000Y-132715000D02*
X170053000Y-132715000D01*
X170053000Y-132715000D02*
X170053000Y-130175000D01*
X170053000Y-130175000D02*
X157353000Y-130175000D01*
X154533000Y-132995000D02*
X156083000Y-132995000D01*
X157353000Y-132715000D02*
X157353000Y-130175000D01*
X156083000Y-129895000D02*
X154533000Y-129895000D01*
X154533000Y-129895000D02*
X154533000Y-132995000D01*
G04 #@! TO.C,P3*
X125349000Y-84455000D02*
X148209000Y-84455000D01*
X148209000Y-84455000D02*
X148209000Y-81915000D01*
X148209000Y-81915000D02*
X125349000Y-81915000D01*
X122529000Y-84735000D02*
X124079000Y-84735000D01*
X125349000Y-84455000D02*
X125349000Y-81915000D01*
X124079000Y-81635000D02*
X122529000Y-81635000D01*
X122529000Y-81635000D02*
X122529000Y-84735000D01*
G04 #@! TO.C,P4*
X152273000Y-84455000D02*
X170053000Y-84455000D01*
X170053000Y-84455000D02*
X170053000Y-81915000D01*
X170053000Y-81915000D02*
X152273000Y-81915000D01*
X149453000Y-84735000D02*
X151003000Y-84735000D01*
X152273000Y-84455000D02*
X152273000Y-81915000D01*
X151003000Y-81635000D02*
X149453000Y-81635000D01*
X149453000Y-81635000D02*
X149453000Y-84735000D01*
D13*
G04 #@! TO.C,C1*
X143843000Y-121880000D02*
X147963000Y-121880000D01*
X143843000Y-124500000D02*
X147963000Y-124500000D01*
X143843000Y-121880000D02*
X143843000Y-122440000D01*
X143843000Y-123940000D02*
X143843000Y-124500000D01*
X147963000Y-121880000D02*
X147963000Y-122440000D01*
X147963000Y-123940000D02*
X147963000Y-124500000D01*
G04 #@! TO.C,C2*
X143843000Y-114895000D02*
X147963000Y-114895000D01*
X143843000Y-117515000D02*
X147963000Y-117515000D01*
X143843000Y-114895000D02*
X143843000Y-115455000D01*
X143843000Y-116955000D02*
X143843000Y-117515000D01*
X147963000Y-114895000D02*
X147963000Y-115455000D01*
X147963000Y-116955000D02*
X147963000Y-117515000D01*
G04 #@! TO.C,C3*
X112728000Y-115530000D02*
X116848000Y-115530000D01*
X112728000Y-118150000D02*
X116848000Y-118150000D01*
X112728000Y-115530000D02*
X112728000Y-116090000D01*
X112728000Y-117590000D02*
X112728000Y-118150000D01*
X116848000Y-115530000D02*
X116848000Y-116090000D01*
X116848000Y-117590000D02*
X116848000Y-118150000D01*
G04 #@! TO.C,C4*
X125143000Y-113705000D02*
X121023000Y-113705000D01*
X125143000Y-111085000D02*
X121023000Y-111085000D01*
X125143000Y-113705000D02*
X125143000Y-113145000D01*
X125143000Y-111645000D02*
X125143000Y-111085000D01*
X121023000Y-113705000D02*
X121023000Y-113145000D01*
X121023000Y-111645000D02*
X121023000Y-111085000D01*
G04 #@! TO.C,C5*
X125143000Y-90845000D02*
X121023000Y-90845000D01*
X125143000Y-88225000D02*
X121023000Y-88225000D01*
X125143000Y-90845000D02*
X125143000Y-90285000D01*
X125143000Y-88785000D02*
X125143000Y-88225000D01*
X121023000Y-90845000D02*
X121023000Y-90285000D01*
X121023000Y-88785000D02*
X121023000Y-88225000D01*
G04 #@! TO.C,C6*
X170101000Y-89321000D02*
X165981000Y-89321000D01*
X170101000Y-86701000D02*
X165981000Y-86701000D01*
X170101000Y-89321000D02*
X170101000Y-88761000D01*
X170101000Y-87261000D02*
X170101000Y-86701000D01*
X165981000Y-89321000D02*
X165981000Y-88761000D01*
X165981000Y-87261000D02*
X165981000Y-86701000D01*
D12*
G04 #@! TO.C,J1*
X116713000Y-74549000D02*
X116713000Y-75057000D01*
X117221000Y-74549000D02*
X117221000Y-75057000D01*
X119253000Y-74549000D02*
X119253000Y-75057000D01*
X119761000Y-74549000D02*
X119761000Y-75057000D01*
X114681000Y-74549000D02*
X114681000Y-75057000D01*
X114173000Y-74549000D02*
X114173000Y-75057000D01*
X112141000Y-74549000D02*
X112141000Y-75057000D01*
X111633000Y-74549000D02*
X111633000Y-75057000D01*
X109601000Y-74549000D02*
X109601000Y-75057000D01*
X109093000Y-74549000D02*
X109093000Y-75057000D01*
X107061000Y-74549000D02*
X107061000Y-75057000D01*
X106553000Y-74549000D02*
X106553000Y-75057000D01*
X147193000Y-74549000D02*
X147193000Y-75057000D01*
X147701000Y-74549000D02*
X147701000Y-75057000D01*
X149733000Y-74549000D02*
X149733000Y-75057000D01*
X150241000Y-74549000D02*
X150241000Y-75057000D01*
X145161000Y-74549000D02*
X145161000Y-75057000D01*
X144653000Y-74549000D02*
X144653000Y-75057000D01*
X142621000Y-74549000D02*
X142621000Y-75057000D01*
X142113000Y-74549000D02*
X142113000Y-75057000D01*
X152273000Y-74549000D02*
X152273000Y-75057000D01*
X152781000Y-74549000D02*
X152781000Y-75057000D01*
X154813000Y-74549000D02*
X154813000Y-75057000D01*
X155321000Y-74549000D02*
X155321000Y-75057000D01*
X137033000Y-74549000D02*
X137033000Y-75057000D01*
X137541000Y-74549000D02*
X137541000Y-75057000D01*
X139573000Y-74549000D02*
X139573000Y-75057000D01*
X140081000Y-74549000D02*
X140081000Y-75057000D01*
X135001000Y-74549000D02*
X135001000Y-75057000D01*
X134493000Y-74549000D02*
X134493000Y-75057000D01*
X132461000Y-74549000D02*
X132461000Y-75057000D01*
X131953000Y-74549000D02*
X131953000Y-75057000D01*
X121793000Y-74549000D02*
X121793000Y-75057000D01*
X122301000Y-74549000D02*
X122301000Y-75057000D01*
X124333000Y-74549000D02*
X124333000Y-75057000D01*
X124841000Y-74549000D02*
X124841000Y-75057000D01*
X129921000Y-74549000D02*
X129921000Y-75057000D01*
X129413000Y-74549000D02*
X129413000Y-75057000D01*
X127381000Y-74549000D02*
X127381000Y-75057000D01*
X126873000Y-74549000D02*
X126873000Y-75057000D01*
X152273000Y-72009000D02*
X152273000Y-72517000D01*
X152781000Y-72009000D02*
X152781000Y-72517000D01*
X154813000Y-72009000D02*
X154813000Y-72517000D01*
X155321000Y-72009000D02*
X155321000Y-72517000D01*
X150241000Y-72009000D02*
X150241000Y-72517000D01*
X149733000Y-72009000D02*
X149733000Y-72517000D01*
X147701000Y-72009000D02*
X147701000Y-72517000D01*
X147193000Y-72009000D02*
X147193000Y-72517000D01*
X131953000Y-72009000D02*
X131953000Y-72517000D01*
X132461000Y-72009000D02*
X132461000Y-72517000D01*
X134493000Y-72009000D02*
X134493000Y-72517000D01*
X135001000Y-72009000D02*
X135001000Y-72517000D01*
X129921000Y-72009000D02*
X129921000Y-72517000D01*
X129413000Y-72009000D02*
X129413000Y-72517000D01*
X127381000Y-72009000D02*
X127381000Y-72517000D01*
X126873000Y-72009000D02*
X126873000Y-72517000D01*
X137033000Y-72009000D02*
X137033000Y-72517000D01*
X137541000Y-72009000D02*
X137541000Y-72517000D01*
X139573000Y-72009000D02*
X139573000Y-72517000D01*
X140081000Y-72009000D02*
X140081000Y-72517000D01*
X145161000Y-72009000D02*
X145161000Y-72517000D01*
X144653000Y-72009000D02*
X144653000Y-72517000D01*
X142621000Y-72009000D02*
X142621000Y-72517000D01*
X142113000Y-72009000D02*
X142113000Y-72517000D01*
X121793000Y-72009000D02*
X121793000Y-72517000D01*
X122301000Y-72009000D02*
X122301000Y-72517000D01*
X124333000Y-72009000D02*
X124333000Y-72517000D01*
X124841000Y-72009000D02*
X124841000Y-72517000D01*
X119761000Y-72009000D02*
X119761000Y-72517000D01*
X119253000Y-72009000D02*
X119253000Y-72517000D01*
X117221000Y-72009000D02*
X117221000Y-72517000D01*
X116713000Y-72009000D02*
X116713000Y-72517000D01*
X106553000Y-72009000D02*
X106553000Y-72517000D01*
X107061000Y-72009000D02*
X107061000Y-72517000D01*
X109093000Y-72009000D02*
X109093000Y-72517000D01*
X109601000Y-72009000D02*
X109601000Y-72517000D01*
X114681000Y-72009000D02*
X114681000Y-72517000D01*
X114173000Y-72009000D02*
X114173000Y-72517000D01*
X112141000Y-72009000D02*
X112141000Y-72517000D01*
X111633000Y-72009000D02*
X111633000Y-72517000D01*
X105257000Y-76073000D02*
X105257000Y-77223000D01*
X105257000Y-77223000D02*
X106807000Y-77223000D01*
X106680000Y-69469000D02*
X106680000Y-63500000D01*
X106680000Y-63500000D02*
X106934000Y-63500000D01*
X106934000Y-63500000D02*
X106934000Y-69342000D01*
X106934000Y-69342000D02*
X106807000Y-69342000D01*
X106807000Y-69342000D02*
X106807000Y-63500000D01*
X146177000Y-72009000D02*
X146177000Y-69469000D01*
X146177000Y-72009000D02*
X148717000Y-72009000D01*
X148717000Y-72009000D02*
X148717000Y-69469000D01*
X147193000Y-69469000D02*
X147193000Y-63373000D01*
X147193000Y-63373000D02*
X147701000Y-63373000D01*
X147701000Y-63373000D02*
X147701000Y-69469000D01*
X148717000Y-69469000D02*
X146177000Y-69469000D01*
X151257000Y-69469000D02*
X148717000Y-69469000D01*
X150241000Y-63373000D02*
X150241000Y-69469000D01*
X149733000Y-63373000D02*
X150241000Y-63373000D01*
X149733000Y-69469000D02*
X149733000Y-63373000D01*
X151257000Y-72009000D02*
X151257000Y-69469000D01*
X148717000Y-72009000D02*
X151257000Y-72009000D01*
X148717000Y-72009000D02*
X148717000Y-69469000D01*
X153797000Y-72009000D02*
X153797000Y-69469000D01*
X153797000Y-72009000D02*
X156337000Y-72009000D01*
X154813000Y-69469000D02*
X154813000Y-63373000D01*
X154813000Y-63373000D02*
X155321000Y-63373000D01*
X155321000Y-63373000D02*
X155321000Y-69469000D01*
X156337000Y-69469000D02*
X153797000Y-69469000D01*
X153797000Y-69469000D02*
X151257000Y-69469000D01*
X152781000Y-63373000D02*
X152781000Y-69469000D01*
X152273000Y-63373000D02*
X152781000Y-63373000D01*
X152273000Y-69469000D02*
X152273000Y-63373000D01*
X153797000Y-72009000D02*
X153797000Y-69469000D01*
X151257000Y-72009000D02*
X153797000Y-72009000D01*
X151257000Y-72009000D02*
X151257000Y-69469000D01*
X156337000Y-72009000D02*
X156337000Y-69469000D01*
X125857000Y-72009000D02*
X125857000Y-69469000D01*
X125857000Y-72009000D02*
X128397000Y-72009000D01*
X128397000Y-72009000D02*
X128397000Y-69469000D01*
X126873000Y-69469000D02*
X126873000Y-63373000D01*
X126873000Y-63373000D02*
X127381000Y-63373000D01*
X127381000Y-63373000D02*
X127381000Y-69469000D01*
X128397000Y-69469000D02*
X125857000Y-69469000D01*
X130937000Y-69469000D02*
X128397000Y-69469000D01*
X129921000Y-63373000D02*
X129921000Y-69469000D01*
X129413000Y-63373000D02*
X129921000Y-63373000D01*
X129413000Y-69469000D02*
X129413000Y-63373000D01*
X130937000Y-72009000D02*
X130937000Y-69469000D01*
X128397000Y-72009000D02*
X130937000Y-72009000D01*
X128397000Y-72009000D02*
X128397000Y-69469000D01*
X133477000Y-72009000D02*
X133477000Y-69469000D01*
X133477000Y-72009000D02*
X136017000Y-72009000D01*
X136017000Y-72009000D02*
X136017000Y-69469000D01*
X134493000Y-69469000D02*
X134493000Y-63373000D01*
X134493000Y-63373000D02*
X135001000Y-63373000D01*
X135001000Y-63373000D02*
X135001000Y-69469000D01*
X136017000Y-69469000D02*
X133477000Y-69469000D01*
X133477000Y-69469000D02*
X130937000Y-69469000D01*
X132461000Y-63373000D02*
X132461000Y-69469000D01*
X131953000Y-63373000D02*
X132461000Y-63373000D01*
X131953000Y-69469000D02*
X131953000Y-63373000D01*
X133477000Y-72009000D02*
X133477000Y-69469000D01*
X130937000Y-72009000D02*
X133477000Y-72009000D01*
X130937000Y-72009000D02*
X130937000Y-69469000D01*
X141097000Y-72009000D02*
X141097000Y-69469000D01*
X141097000Y-72009000D02*
X143637000Y-72009000D01*
X143637000Y-72009000D02*
X143637000Y-69469000D01*
X142113000Y-69469000D02*
X142113000Y-63373000D01*
X142113000Y-63373000D02*
X142621000Y-63373000D01*
X142621000Y-63373000D02*
X142621000Y-69469000D01*
X143637000Y-69469000D02*
X141097000Y-69469000D01*
X146177000Y-69469000D02*
X143637000Y-69469000D01*
X145161000Y-63373000D02*
X145161000Y-69469000D01*
X144653000Y-63373000D02*
X145161000Y-63373000D01*
X144653000Y-69469000D02*
X144653000Y-63373000D01*
X146177000Y-72009000D02*
X146177000Y-69469000D01*
X143637000Y-72009000D02*
X146177000Y-72009000D01*
X143637000Y-72009000D02*
X143637000Y-69469000D01*
X138557000Y-72009000D02*
X138557000Y-69469000D01*
X138557000Y-72009000D02*
X141097000Y-72009000D01*
X141097000Y-72009000D02*
X141097000Y-69469000D01*
X139573000Y-69469000D02*
X139573000Y-63373000D01*
X139573000Y-63373000D02*
X140081000Y-63373000D01*
X140081000Y-63373000D02*
X140081000Y-69469000D01*
X141097000Y-69469000D02*
X138557000Y-69469000D01*
X138557000Y-69469000D02*
X136017000Y-69469000D01*
X137541000Y-63373000D02*
X137541000Y-69469000D01*
X137033000Y-63373000D02*
X137541000Y-63373000D01*
X137033000Y-69469000D02*
X137033000Y-63373000D01*
X138557000Y-72009000D02*
X138557000Y-69469000D01*
X136017000Y-72009000D02*
X138557000Y-72009000D01*
X136017000Y-72009000D02*
X136017000Y-69469000D01*
X115697000Y-72009000D02*
X115697000Y-69469000D01*
X115697000Y-72009000D02*
X118237000Y-72009000D01*
X118237000Y-72009000D02*
X118237000Y-69469000D01*
X116713000Y-69469000D02*
X116713000Y-63373000D01*
X116713000Y-63373000D02*
X117221000Y-63373000D01*
X117221000Y-63373000D02*
X117221000Y-69469000D01*
X118237000Y-69469000D02*
X115697000Y-69469000D01*
X120777000Y-69469000D02*
X118237000Y-69469000D01*
X119761000Y-63373000D02*
X119761000Y-69469000D01*
X119253000Y-63373000D02*
X119761000Y-63373000D01*
X119253000Y-69469000D02*
X119253000Y-63373000D01*
X120777000Y-72009000D02*
X120777000Y-69469000D01*
X118237000Y-72009000D02*
X120777000Y-72009000D01*
X118237000Y-72009000D02*
X118237000Y-69469000D01*
X123317000Y-72009000D02*
X123317000Y-69469000D01*
X123317000Y-72009000D02*
X125857000Y-72009000D01*
X125857000Y-72009000D02*
X125857000Y-69469000D01*
X124333000Y-69469000D02*
X124333000Y-63373000D01*
X124333000Y-63373000D02*
X124841000Y-63373000D01*
X124841000Y-63373000D02*
X124841000Y-69469000D01*
X125857000Y-69469000D02*
X123317000Y-69469000D01*
X123317000Y-69469000D02*
X120777000Y-69469000D01*
X122301000Y-63373000D02*
X122301000Y-69469000D01*
X121793000Y-63373000D02*
X122301000Y-63373000D01*
X121793000Y-69469000D02*
X121793000Y-63373000D01*
X123317000Y-72009000D02*
X123317000Y-69469000D01*
X120777000Y-72009000D02*
X123317000Y-72009000D01*
X120777000Y-72009000D02*
X120777000Y-69469000D01*
X110617000Y-72009000D02*
X110617000Y-69469000D01*
X110617000Y-72009000D02*
X113157000Y-72009000D01*
X113157000Y-72009000D02*
X113157000Y-69469000D01*
X111633000Y-69469000D02*
X111633000Y-63373000D01*
X111633000Y-63373000D02*
X112141000Y-63373000D01*
X112141000Y-63373000D02*
X112141000Y-69469000D01*
X113157000Y-69469000D02*
X110617000Y-69469000D01*
X115697000Y-69469000D02*
X113157000Y-69469000D01*
X114681000Y-63373000D02*
X114681000Y-69469000D01*
X114173000Y-63373000D02*
X114681000Y-63373000D01*
X114173000Y-69469000D02*
X114173000Y-63373000D01*
X115697000Y-72009000D02*
X115697000Y-69469000D01*
X113157000Y-72009000D02*
X115697000Y-72009000D01*
X113157000Y-72009000D02*
X113157000Y-69469000D01*
X108077000Y-72009000D02*
X108077000Y-69469000D01*
X108077000Y-72009000D02*
X110617000Y-72009000D01*
X110617000Y-72009000D02*
X110617000Y-69469000D01*
X109093000Y-69469000D02*
X109093000Y-63373000D01*
X109093000Y-63373000D02*
X109601000Y-63373000D01*
X109601000Y-63373000D02*
X109601000Y-69469000D01*
X110617000Y-69469000D02*
X108077000Y-69469000D01*
X108077000Y-69469000D02*
X105537000Y-69469000D01*
X107061000Y-63373000D02*
X107061000Y-69469000D01*
X106553000Y-63373000D02*
X107061000Y-63373000D01*
X106553000Y-69469000D02*
X106553000Y-63373000D01*
X108077000Y-72009000D02*
X108077000Y-69469000D01*
X105537000Y-72009000D02*
X108077000Y-72009000D01*
X105537000Y-72009000D02*
X105537000Y-69469000D01*
G04 #@! TO.C,J2*
X152273000Y-111760000D02*
X152273000Y-91440000D01*
X147193000Y-93980000D02*
X147193000Y-111760000D01*
X152273000Y-111760000D02*
X147193000Y-111760000D01*
X152273000Y-91440000D02*
X149733000Y-91440000D01*
X148463000Y-91160000D02*
X146913000Y-91160000D01*
X149733000Y-91440000D02*
X149733000Y-93980000D01*
X149733000Y-93980000D02*
X147193000Y-93980000D01*
X146913000Y-91160000D02*
X146913000Y-92710000D01*
G04 #@! TO.C,J3*
X137033000Y-111760000D02*
X137033000Y-91440000D01*
X131953000Y-93980000D02*
X131953000Y-111760000D01*
X137033000Y-111760000D02*
X131953000Y-111760000D01*
X137033000Y-91440000D02*
X134493000Y-91440000D01*
X133223000Y-91160000D02*
X131673000Y-91160000D01*
X134493000Y-91440000D02*
X134493000Y-93980000D01*
X134493000Y-93980000D02*
X131953000Y-93980000D01*
X131673000Y-91160000D02*
X131673000Y-92710000D01*
G04 #@! TO.C,J4*
X175738000Y-89255000D02*
X175738000Y-90805000D01*
X177038000Y-89255000D02*
X175738000Y-89255000D01*
X181229000Y-90678000D02*
X187071000Y-90678000D01*
X187071000Y-90678000D02*
X187071000Y-90932000D01*
X187071000Y-90932000D02*
X181229000Y-90932000D01*
X181229000Y-90932000D02*
X181229000Y-90805000D01*
X181229000Y-90805000D02*
X187071000Y-90805000D01*
X178562000Y-90551000D02*
X178181000Y-90551000D01*
X178562000Y-91059000D02*
X178181000Y-91059000D01*
X178562000Y-93091000D02*
X178181000Y-93091000D01*
X178562000Y-93599000D02*
X178181000Y-93599000D01*
X178562000Y-95631000D02*
X178181000Y-95631000D01*
X178562000Y-96139000D02*
X178181000Y-96139000D01*
X178562000Y-103759000D02*
X178181000Y-103759000D01*
X178562000Y-103251000D02*
X178181000Y-103251000D01*
X178562000Y-101219000D02*
X178181000Y-101219000D01*
X178562000Y-100711000D02*
X178181000Y-100711000D01*
X178562000Y-98679000D02*
X178181000Y-98679000D01*
X178562000Y-98171000D02*
X178181000Y-98171000D01*
X178562000Y-89535000D02*
X181102000Y-89535000D01*
X178562000Y-92075000D02*
X181102000Y-92075000D01*
X178562000Y-92075000D02*
X178562000Y-94615000D01*
X178562000Y-94615000D02*
X181102000Y-94615000D01*
X181102000Y-93091000D02*
X187198000Y-93091000D01*
X187198000Y-93091000D02*
X187198000Y-93599000D01*
X187198000Y-93599000D02*
X181102000Y-93599000D01*
X181102000Y-94615000D02*
X181102000Y-92075000D01*
X181102000Y-92075000D02*
X181102000Y-89535000D01*
X187198000Y-91059000D02*
X181102000Y-91059000D01*
X187198000Y-90551000D02*
X187198000Y-91059000D01*
X181102000Y-90551000D02*
X187198000Y-90551000D01*
X178562000Y-92075000D02*
X181102000Y-92075000D01*
X178562000Y-89535000D02*
X178562000Y-92075000D01*
X178562000Y-99695000D02*
X181102000Y-99695000D01*
X178562000Y-99695000D02*
X178562000Y-102235000D01*
X178562000Y-102235000D02*
X181102000Y-102235000D01*
X181102000Y-100711000D02*
X187198000Y-100711000D01*
X187198000Y-100711000D02*
X187198000Y-101219000D01*
X187198000Y-101219000D02*
X181102000Y-101219000D01*
X181102000Y-102235000D02*
X181102000Y-99695000D01*
X181102000Y-104775000D02*
X181102000Y-102235000D01*
X187198000Y-103759000D02*
X181102000Y-103759000D01*
X187198000Y-103251000D02*
X187198000Y-103759000D01*
X181102000Y-103251000D02*
X187198000Y-103251000D01*
X178562000Y-104775000D02*
X181102000Y-104775000D01*
X178562000Y-102235000D02*
X178562000Y-104775000D01*
X178562000Y-102235000D02*
X181102000Y-102235000D01*
X178562000Y-97155000D02*
X181102000Y-97155000D01*
X178562000Y-97155000D02*
X178562000Y-99695000D01*
X178562000Y-99695000D02*
X181102000Y-99695000D01*
X181102000Y-98171000D02*
X187198000Y-98171000D01*
X187198000Y-98171000D02*
X187198000Y-98679000D01*
X187198000Y-98679000D02*
X181102000Y-98679000D01*
X181102000Y-99695000D02*
X181102000Y-97155000D01*
X181102000Y-97155000D02*
X181102000Y-94615000D01*
X187198000Y-96139000D02*
X181102000Y-96139000D01*
X187198000Y-95631000D02*
X187198000Y-96139000D01*
X181102000Y-95631000D02*
X187198000Y-95631000D01*
X178562000Y-97155000D02*
X181102000Y-97155000D01*
X178562000Y-94615000D02*
X178562000Y-97155000D01*
X178562000Y-94615000D02*
X181102000Y-94615000D01*
D13*
G04 #@! TO.C,J5*
X90674500Y-76267000D02*
X85474500Y-76267000D01*
X90674500Y-91567000D02*
X90674500Y-76267000D01*
X85474500Y-94167000D02*
X85474500Y-76267000D01*
X90674500Y-91567000D02*
X88074500Y-91567000D01*
X88074500Y-91567000D02*
X88074500Y-94167000D01*
X88074500Y-94167000D02*
X85474500Y-94167000D01*
X90674500Y-92837000D02*
X90674500Y-94167000D01*
X90674500Y-94167000D02*
X89344500Y-94167000D01*
G04 #@! TO.C,J6*
X90738000Y-105985000D02*
X85538000Y-105985000D01*
X90738000Y-121285000D02*
X90738000Y-105985000D01*
X85538000Y-123885000D02*
X85538000Y-105985000D01*
X90738000Y-121285000D02*
X88138000Y-121285000D01*
X88138000Y-121285000D02*
X88138000Y-123885000D01*
X88138000Y-123885000D02*
X85538000Y-123885000D01*
X90738000Y-122555000D02*
X90738000Y-123885000D01*
X90738000Y-123885000D02*
X89408000Y-123885000D01*
D12*
G04 #@! TO.C,J7*
X144653000Y-111760000D02*
X144653000Y-91440000D01*
X139573000Y-93980000D02*
X139573000Y-111760000D01*
X144653000Y-111760000D02*
X139573000Y-111760000D01*
X144653000Y-91440000D02*
X142113000Y-91440000D01*
X140843000Y-91160000D02*
X139293000Y-91160000D01*
X142113000Y-91440000D02*
X142113000Y-93980000D01*
X142113000Y-93980000D02*
X139573000Y-93980000D01*
X139293000Y-91160000D02*
X139293000Y-92710000D01*
G04 #@! TO.C,P5*
X88809000Y-67285000D02*
G75*
G03X88809000Y-67285000I-2286000J0D01*
G01*
G04 #@! TO.C,P6*
X177809000Y-67285000D02*
G75*
G03X177809000Y-67285000I-2286000J0D01*
G01*
G04 #@! TO.C,P7*
X88799000Y-133285000D02*
G75*
G03X88799000Y-133285000I-2286000J0D01*
G01*
G04 #@! TO.C,P8*
X177819000Y-133315000D02*
G75*
G03X177819000Y-133315000I-2286000J0D01*
G01*
D13*
G04 #@! TO.C,R1*
X140883000Y-117440000D02*
X138263000Y-117440000D01*
X138263000Y-117440000D02*
X138263000Y-123860000D01*
X138263000Y-123860000D02*
X140883000Y-123860000D01*
X140883000Y-123860000D02*
X140883000Y-117440000D01*
X139573000Y-116550000D02*
X139573000Y-117440000D01*
X139573000Y-124750000D02*
X139573000Y-123860000D01*
G04 #@! TO.C,U1*
X121428000Y-90685000D02*
X119658000Y-90685000D01*
X119658000Y-90685000D02*
X119658000Y-111245000D01*
X119658000Y-111245000D02*
X125198000Y-111245000D01*
X125198000Y-111245000D02*
X125198000Y-90685000D01*
X125198000Y-90685000D02*
X123428000Y-90685000D01*
X117228000Y-90685000D02*
X117228000Y-111245000D01*
X117228000Y-111245000D02*
X127628000Y-111245000D01*
X127628000Y-111245000D02*
X127628000Y-90685000D01*
X127628000Y-90685000D02*
X117228000Y-90685000D01*
X123428000Y-90685000D02*
G75*
G02X121428000Y-90685000I-1000000J0D01*
G01*
G04 #@! TO.C,U2*
X162703000Y-89415000D02*
X157123000Y-89415000D01*
X157123000Y-89415000D02*
X157123000Y-125215000D01*
X157123000Y-125215000D02*
X170283000Y-125215000D01*
X170283000Y-125215000D02*
X170283000Y-89415000D01*
X170283000Y-89415000D02*
X164703000Y-89415000D01*
X154693000Y-89415000D02*
X154693000Y-125215000D01*
X154693000Y-125215000D02*
X172713000Y-125215000D01*
X172713000Y-125215000D02*
X172713000Y-89415000D01*
X172713000Y-89415000D02*
X154693000Y-89415000D01*
X164703000Y-89415000D02*
G75*
G02X162703000Y-89415000I-1000000J0D01*
G01*
D12*
G04 #@! TO.C,U3*
X95893000Y-81525000D02*
X95893000Y-82795000D01*
X110863000Y-81525000D02*
X110863000Y-82795000D01*
X110863000Y-134375000D02*
X110863000Y-133105000D01*
X95893000Y-134375000D02*
X95893000Y-133105000D01*
X95893000Y-81525000D02*
X110863000Y-81525000D01*
X95893000Y-134375000D02*
X110863000Y-134375000D01*
X95893000Y-82795000D02*
X94958000Y-82795000D01*
D13*
G04 #@! TO.C,U4*
X121428000Y-114180000D02*
X119658000Y-114180000D01*
X119658000Y-114180000D02*
X119658000Y-134740000D01*
X119658000Y-134740000D02*
X125198000Y-134740000D01*
X125198000Y-134740000D02*
X125198000Y-114180000D01*
X125198000Y-114180000D02*
X123428000Y-114180000D01*
X117228000Y-114180000D02*
X117228000Y-134740000D01*
X117228000Y-134740000D02*
X127628000Y-134740000D01*
X127628000Y-134740000D02*
X127628000Y-114180000D01*
X127628000Y-114180000D02*
X117228000Y-114180000D01*
X123428000Y-114180000D02*
G75*
G02X121428000Y-114180000I-1000000J0D01*
G01*
D12*
G04 #@! TO.C,Y1*
X130937000Y-122809000D02*
G75*
G03X135509000Y-122809000I2286000J0D01*
G01*
X135509000Y-117221000D02*
G75*
G03X130937000Y-117221000I-2286000J0D01*
G01*
X130937000Y-117221000D02*
X130937000Y-122809000D01*
X135509000Y-117221000D02*
X135509000Y-122809000D01*
D13*
G04 #@! TO.C,R2*
X164238000Y-76295000D02*
X166978000Y-76295000D01*
X166978000Y-76295000D02*
X166978000Y-69755000D01*
X166978000Y-69755000D02*
X164238000Y-69755000D01*
X164238000Y-69755000D02*
X164238000Y-76295000D01*
X165608000Y-77065000D02*
X165608000Y-76295000D01*
X165608000Y-68985000D02*
X165608000Y-69755000D01*
G04 #@! TO.C,R3*
X170688000Y-68985000D02*
X170688000Y-69755000D01*
X170688000Y-77065000D02*
X170688000Y-76295000D01*
X169318000Y-69755000D02*
X169318000Y-76295000D01*
X172058000Y-69755000D02*
X169318000Y-69755000D01*
X172058000Y-76295000D02*
X172058000Y-69755000D01*
X169318000Y-76295000D02*
X172058000Y-76295000D01*
G04 #@! TO.C,C7*
X98993000Y-71056500D02*
G75*
G03X98993000Y-71056500I-2620000J0D01*
G01*
X96373000Y-68476500D02*
X96373000Y-73636500D01*
X96413000Y-68476500D02*
X96413000Y-73636500D01*
X96453000Y-68477500D02*
X96453000Y-73635500D01*
X96493000Y-68478500D02*
X96493000Y-73634500D01*
X96533000Y-68480500D02*
X96533000Y-73632500D01*
X96573000Y-68483500D02*
X96573000Y-73629500D01*
X96613000Y-68487500D02*
X96613000Y-70016500D01*
X96613000Y-72096500D02*
X96613000Y-73625500D01*
X96653000Y-68491500D02*
X96653000Y-70016500D01*
X96653000Y-72096500D02*
X96653000Y-73621500D01*
X96693000Y-68495500D02*
X96693000Y-70016500D01*
X96693000Y-72096500D02*
X96693000Y-73617500D01*
X96733000Y-68500500D02*
X96733000Y-70016500D01*
X96733000Y-72096500D02*
X96733000Y-73612500D01*
X96773000Y-68506500D02*
X96773000Y-70016500D01*
X96773000Y-72096500D02*
X96773000Y-73606500D01*
X96813000Y-68513500D02*
X96813000Y-70016500D01*
X96813000Y-72096500D02*
X96813000Y-73599500D01*
X96853000Y-68520500D02*
X96853000Y-70016500D01*
X96853000Y-72096500D02*
X96853000Y-73592500D01*
X96893000Y-68528500D02*
X96893000Y-70016500D01*
X96893000Y-72096500D02*
X96893000Y-73584500D01*
X96933000Y-68536500D02*
X96933000Y-70016500D01*
X96933000Y-72096500D02*
X96933000Y-73576500D01*
X96973000Y-68545500D02*
X96973000Y-70016500D01*
X96973000Y-72096500D02*
X96973000Y-73567500D01*
X97013000Y-68555500D02*
X97013000Y-70016500D01*
X97013000Y-72096500D02*
X97013000Y-73557500D01*
X97053000Y-68565500D02*
X97053000Y-70016500D01*
X97053000Y-72096500D02*
X97053000Y-73547500D01*
X97094000Y-68576500D02*
X97094000Y-70016500D01*
X97094000Y-72096500D02*
X97094000Y-73536500D01*
X97134000Y-68588500D02*
X97134000Y-70016500D01*
X97134000Y-72096500D02*
X97134000Y-73524500D01*
X97174000Y-68601500D02*
X97174000Y-70016500D01*
X97174000Y-72096500D02*
X97174000Y-73511500D01*
X97214000Y-68614500D02*
X97214000Y-70016500D01*
X97214000Y-72096500D02*
X97214000Y-73498500D01*
X97254000Y-68628500D02*
X97254000Y-70016500D01*
X97254000Y-72096500D02*
X97254000Y-73484500D01*
X97294000Y-68642500D02*
X97294000Y-70016500D01*
X97294000Y-72096500D02*
X97294000Y-73470500D01*
X97334000Y-68658500D02*
X97334000Y-70016500D01*
X97334000Y-72096500D02*
X97334000Y-73454500D01*
X97374000Y-68674500D02*
X97374000Y-70016500D01*
X97374000Y-72096500D02*
X97374000Y-73438500D01*
X97414000Y-68691500D02*
X97414000Y-70016500D01*
X97414000Y-72096500D02*
X97414000Y-73421500D01*
X97454000Y-68708500D02*
X97454000Y-70016500D01*
X97454000Y-72096500D02*
X97454000Y-73404500D01*
X97494000Y-68727500D02*
X97494000Y-70016500D01*
X97494000Y-72096500D02*
X97494000Y-73385500D01*
X97534000Y-68746500D02*
X97534000Y-70016500D01*
X97534000Y-72096500D02*
X97534000Y-73366500D01*
X97574000Y-68766500D02*
X97574000Y-70016500D01*
X97574000Y-72096500D02*
X97574000Y-73346500D01*
X97614000Y-68788500D02*
X97614000Y-70016500D01*
X97614000Y-72096500D02*
X97614000Y-73324500D01*
X97654000Y-68809500D02*
X97654000Y-70016500D01*
X97654000Y-72096500D02*
X97654000Y-73303500D01*
X97694000Y-68832500D02*
X97694000Y-70016500D01*
X97694000Y-72096500D02*
X97694000Y-73280500D01*
X97734000Y-68856500D02*
X97734000Y-70016500D01*
X97734000Y-72096500D02*
X97734000Y-73256500D01*
X97774000Y-68881500D02*
X97774000Y-70016500D01*
X97774000Y-72096500D02*
X97774000Y-73231500D01*
X97814000Y-68907500D02*
X97814000Y-70016500D01*
X97814000Y-72096500D02*
X97814000Y-73205500D01*
X97854000Y-68934500D02*
X97854000Y-70016500D01*
X97854000Y-72096500D02*
X97854000Y-73178500D01*
X97894000Y-68961500D02*
X97894000Y-70016500D01*
X97894000Y-72096500D02*
X97894000Y-73151500D01*
X97934000Y-68991500D02*
X97934000Y-70016500D01*
X97934000Y-72096500D02*
X97934000Y-73121500D01*
X97974000Y-69021500D02*
X97974000Y-70016500D01*
X97974000Y-72096500D02*
X97974000Y-73091500D01*
X98014000Y-69052500D02*
X98014000Y-70016500D01*
X98014000Y-72096500D02*
X98014000Y-73060500D01*
X98054000Y-69085500D02*
X98054000Y-70016500D01*
X98054000Y-72096500D02*
X98054000Y-73027500D01*
X98094000Y-69119500D02*
X98094000Y-70016500D01*
X98094000Y-72096500D02*
X98094000Y-72993500D01*
X98134000Y-69155500D02*
X98134000Y-70016500D01*
X98134000Y-72096500D02*
X98134000Y-72957500D01*
X98174000Y-69192500D02*
X98174000Y-70016500D01*
X98174000Y-72096500D02*
X98174000Y-72920500D01*
X98214000Y-69230500D02*
X98214000Y-70016500D01*
X98214000Y-72096500D02*
X98214000Y-72882500D01*
X98254000Y-69271500D02*
X98254000Y-70016500D01*
X98254000Y-72096500D02*
X98254000Y-72841500D01*
X98294000Y-69313500D02*
X98294000Y-70016500D01*
X98294000Y-72096500D02*
X98294000Y-72799500D01*
X98334000Y-69357500D02*
X98334000Y-70016500D01*
X98334000Y-72096500D02*
X98334000Y-72755500D01*
X98374000Y-69403500D02*
X98374000Y-70016500D01*
X98374000Y-72096500D02*
X98374000Y-72709500D01*
X98414000Y-69451500D02*
X98414000Y-70016500D01*
X98414000Y-72096500D02*
X98414000Y-72661500D01*
X98454000Y-69502500D02*
X98454000Y-70016500D01*
X98454000Y-72096500D02*
X98454000Y-72610500D01*
X98494000Y-69556500D02*
X98494000Y-70016500D01*
X98494000Y-72096500D02*
X98494000Y-72556500D01*
X98534000Y-69613500D02*
X98534000Y-70016500D01*
X98534000Y-72096500D02*
X98534000Y-72499500D01*
X98574000Y-69673500D02*
X98574000Y-70016500D01*
X98574000Y-72096500D02*
X98574000Y-72439500D01*
X98614000Y-69737500D02*
X98614000Y-70016500D01*
X98614000Y-72096500D02*
X98614000Y-72375500D01*
X98654000Y-69805500D02*
X98654000Y-70016500D01*
X98654000Y-72096500D02*
X98654000Y-72307500D01*
X98694000Y-69878500D02*
X98694000Y-72234500D01*
X98734000Y-69958500D02*
X98734000Y-72154500D01*
X98774000Y-70045500D02*
X98774000Y-72067500D01*
X98814000Y-70141500D02*
X98814000Y-71971500D01*
X98854000Y-70251500D02*
X98854000Y-71861500D01*
X98894000Y-70379500D02*
X98894000Y-71733500D01*
X98934000Y-70538500D02*
X98934000Y-71574500D01*
X98974000Y-70772500D02*
X98974000Y-71340500D01*
X93568225Y-69581500D02*
X94068225Y-69581500D01*
X93818225Y-69331500D02*
X93818225Y-69831500D01*
G04 #@! TO.C,Q1*
X173393000Y-80765000D02*
X173393000Y-84365000D01*
X174120205Y-80240816D02*
G75*
G03X173393000Y-80765000I1122795J-2324184D01*
G01*
X176341807Y-80208600D02*
G75*
G02X177843000Y-82565000I-1098807J-2356400D01*
G01*
X176341807Y-84921400D02*
G75*
G03X177843000Y-82565000I-1098807J2356400D01*
G01*
X174120205Y-84889184D02*
G75*
G02X173393000Y-84365000I1122795J2324184D01*
G01*
G04 #@! TO.C,P1*
D12*
X141374904Y-129357380D02*
X141374904Y-128357380D01*
X141755857Y-128357380D01*
X141851095Y-128405000D01*
X141898714Y-128452619D01*
X141946333Y-128547857D01*
X141946333Y-128690714D01*
X141898714Y-128785952D01*
X141851095Y-128833571D01*
X141755857Y-128881190D01*
X141374904Y-128881190D01*
X142898714Y-129357380D02*
X142327285Y-129357380D01*
X142613000Y-129357380D02*
X142613000Y-128357380D01*
X142517761Y-128500238D01*
X142422523Y-128595476D01*
X142327285Y-128643095D01*
G04 #@! TO.C,P2*
X161948904Y-129357380D02*
X161948904Y-128357380D01*
X162329857Y-128357380D01*
X162425095Y-128405000D01*
X162472714Y-128452619D01*
X162520333Y-128547857D01*
X162520333Y-128690714D01*
X162472714Y-128785952D01*
X162425095Y-128833571D01*
X162329857Y-128881190D01*
X161948904Y-128881190D01*
X162901285Y-128452619D02*
X162948904Y-128405000D01*
X163044142Y-128357380D01*
X163282238Y-128357380D01*
X163377476Y-128405000D01*
X163425095Y-128452619D01*
X163472714Y-128547857D01*
X163472714Y-128643095D01*
X163425095Y-128785952D01*
X162853666Y-129357380D01*
X163472714Y-129357380D01*
G04 #@! TO.C,P3*
X134770904Y-86431380D02*
X134770904Y-85431380D01*
X135151857Y-85431380D01*
X135247095Y-85479000D01*
X135294714Y-85526619D01*
X135342333Y-85621857D01*
X135342333Y-85764714D01*
X135294714Y-85859952D01*
X135247095Y-85907571D01*
X135151857Y-85955190D01*
X134770904Y-85955190D01*
X135675666Y-85431380D02*
X136294714Y-85431380D01*
X135961380Y-85812333D01*
X136104238Y-85812333D01*
X136199476Y-85859952D01*
X136247095Y-85907571D01*
X136294714Y-86002809D01*
X136294714Y-86240904D01*
X136247095Y-86336142D01*
X136199476Y-86383761D01*
X136104238Y-86431380D01*
X135818523Y-86431380D01*
X135723285Y-86383761D01*
X135675666Y-86336142D01*
G04 #@! TO.C,P4*
X159154904Y-86431380D02*
X159154904Y-85431380D01*
X159535857Y-85431380D01*
X159631095Y-85479000D01*
X159678714Y-85526619D01*
X159726333Y-85621857D01*
X159726333Y-85764714D01*
X159678714Y-85859952D01*
X159631095Y-85907571D01*
X159535857Y-85955190D01*
X159154904Y-85955190D01*
X160583476Y-85764714D02*
X160583476Y-86431380D01*
X160345380Y-85383761D02*
X160107285Y-86098047D01*
X160726333Y-86098047D01*
G04 #@! TO.C,C1*
X149566333Y-123420142D02*
X149518714Y-123467761D01*
X149375857Y-123515380D01*
X149280619Y-123515380D01*
X149137761Y-123467761D01*
X149042523Y-123372523D01*
X148994904Y-123277285D01*
X148947285Y-123086809D01*
X148947285Y-122943952D01*
X148994904Y-122753476D01*
X149042523Y-122658238D01*
X149137761Y-122563000D01*
X149280619Y-122515380D01*
X149375857Y-122515380D01*
X149518714Y-122563000D01*
X149566333Y-122610619D01*
X150518714Y-123515380D02*
X149947285Y-123515380D01*
X150233000Y-123515380D02*
X150233000Y-122515380D01*
X150137761Y-122658238D01*
X150042523Y-122753476D01*
X149947285Y-122801095D01*
G04 #@! TO.C,C2*
X149566333Y-116816142D02*
X149518714Y-116863761D01*
X149375857Y-116911380D01*
X149280619Y-116911380D01*
X149137761Y-116863761D01*
X149042523Y-116768523D01*
X148994904Y-116673285D01*
X148947285Y-116482809D01*
X148947285Y-116339952D01*
X148994904Y-116149476D01*
X149042523Y-116054238D01*
X149137761Y-115959000D01*
X149280619Y-115911380D01*
X149375857Y-115911380D01*
X149518714Y-115959000D01*
X149566333Y-116006619D01*
X149947285Y-116006619D02*
X149994904Y-115959000D01*
X150090142Y-115911380D01*
X150328238Y-115911380D01*
X150423476Y-115959000D01*
X150471095Y-116006619D01*
X150518714Y-116101857D01*
X150518714Y-116197095D01*
X150471095Y-116339952D01*
X149899666Y-116911380D01*
X150518714Y-116911380D01*
G04 #@! TO.C,C3*
X114621333Y-114637142D02*
X114573714Y-114684761D01*
X114430857Y-114732380D01*
X114335619Y-114732380D01*
X114192761Y-114684761D01*
X114097523Y-114589523D01*
X114049904Y-114494285D01*
X114002285Y-114303809D01*
X114002285Y-114160952D01*
X114049904Y-113970476D01*
X114097523Y-113875238D01*
X114192761Y-113780000D01*
X114335619Y-113732380D01*
X114430857Y-113732380D01*
X114573714Y-113780000D01*
X114621333Y-113827619D01*
X114954666Y-113732380D02*
X115573714Y-113732380D01*
X115240380Y-114113333D01*
X115383238Y-114113333D01*
X115478476Y-114160952D01*
X115526095Y-114208571D01*
X115573714Y-114303809D01*
X115573714Y-114541904D01*
X115526095Y-114637142D01*
X115478476Y-114684761D01*
X115383238Y-114732380D01*
X115097523Y-114732380D01*
X115002285Y-114684761D01*
X114954666Y-114637142D01*
G04 #@! TO.C,C4*
X126198333Y-112752142D02*
X126150714Y-112799761D01*
X126007857Y-112847380D01*
X125912619Y-112847380D01*
X125769761Y-112799761D01*
X125674523Y-112704523D01*
X125626904Y-112609285D01*
X125579285Y-112418809D01*
X125579285Y-112275952D01*
X125626904Y-112085476D01*
X125674523Y-111990238D01*
X125769761Y-111895000D01*
X125912619Y-111847380D01*
X126007857Y-111847380D01*
X126150714Y-111895000D01*
X126198333Y-111942619D01*
X127055476Y-112180714D02*
X127055476Y-112847380D01*
X126817380Y-111799761D02*
X126579285Y-112514047D01*
X127198333Y-112514047D01*
G04 #@! TO.C,C5*
X126198333Y-89192142D02*
X126150714Y-89239761D01*
X126007857Y-89287380D01*
X125912619Y-89287380D01*
X125769761Y-89239761D01*
X125674523Y-89144523D01*
X125626904Y-89049285D01*
X125579285Y-88858809D01*
X125579285Y-88715952D01*
X125626904Y-88525476D01*
X125674523Y-88430238D01*
X125769761Y-88335000D01*
X125912619Y-88287380D01*
X126007857Y-88287380D01*
X126150714Y-88335000D01*
X126198333Y-88382619D01*
X127103095Y-88287380D02*
X126626904Y-88287380D01*
X126579285Y-88763571D01*
X126626904Y-88715952D01*
X126722142Y-88668333D01*
X126960238Y-88668333D01*
X127055476Y-88715952D01*
X127103095Y-88763571D01*
X127150714Y-88858809D01*
X127150714Y-89096904D01*
X127103095Y-89192142D01*
X127055476Y-89239761D01*
X126960238Y-89287380D01*
X126722142Y-89287380D01*
X126626904Y-89239761D01*
X126579285Y-89192142D01*
G04 #@! TO.C,C6*
X164576333Y-88212142D02*
X164528714Y-88259761D01*
X164385857Y-88307380D01*
X164290619Y-88307380D01*
X164147761Y-88259761D01*
X164052523Y-88164523D01*
X164004904Y-88069285D01*
X163957285Y-87878809D01*
X163957285Y-87735952D01*
X164004904Y-87545476D01*
X164052523Y-87450238D01*
X164147761Y-87355000D01*
X164290619Y-87307380D01*
X164385857Y-87307380D01*
X164528714Y-87355000D01*
X164576333Y-87402619D01*
X165433476Y-87307380D02*
X165243000Y-87307380D01*
X165147761Y-87355000D01*
X165100142Y-87402619D01*
X165004904Y-87545476D01*
X164957285Y-87735952D01*
X164957285Y-88116904D01*
X165004904Y-88212142D01*
X165052523Y-88259761D01*
X165147761Y-88307380D01*
X165338238Y-88307380D01*
X165433476Y-88259761D01*
X165481095Y-88212142D01*
X165528714Y-88116904D01*
X165528714Y-87878809D01*
X165481095Y-87783571D01*
X165433476Y-87735952D01*
X165338238Y-87688333D01*
X165147761Y-87688333D01*
X165052523Y-87735952D01*
X165004904Y-87783571D01*
X164957285Y-87878809D01*
G04 #@! TO.C,J1*
X103465380Y-77168333D02*
X104179666Y-77168333D01*
X104322523Y-77215952D01*
X104417761Y-77311190D01*
X104465380Y-77454047D01*
X104465380Y-77549285D01*
X104465380Y-76168333D02*
X104465380Y-76739761D01*
X104465380Y-76454047D02*
X103465380Y-76454047D01*
X103608238Y-76549285D01*
X103703476Y-76644523D01*
X103751095Y-76739761D01*
G04 #@! TO.C,J2*
X146859666Y-89495380D02*
X146859666Y-90209666D01*
X146812047Y-90352523D01*
X146716809Y-90447761D01*
X146573952Y-90495380D01*
X146478714Y-90495380D01*
X147288238Y-89590619D02*
X147335857Y-89543000D01*
X147431095Y-89495380D01*
X147669190Y-89495380D01*
X147764428Y-89543000D01*
X147812047Y-89590619D01*
X147859666Y-89685857D01*
X147859666Y-89781095D01*
X147812047Y-89923952D01*
X147240619Y-90495380D01*
X147859666Y-90495380D01*
G04 #@! TO.C,J3*
X131619666Y-89495380D02*
X131619666Y-90209666D01*
X131572047Y-90352523D01*
X131476809Y-90447761D01*
X131333952Y-90495380D01*
X131238714Y-90495380D01*
X132000619Y-89495380D02*
X132619666Y-89495380D01*
X132286333Y-89876333D01*
X132429190Y-89876333D01*
X132524428Y-89923952D01*
X132572047Y-89971571D01*
X132619666Y-90066809D01*
X132619666Y-90304904D01*
X132572047Y-90400142D01*
X132524428Y-90447761D01*
X132429190Y-90495380D01*
X132143476Y-90495380D01*
X132048238Y-90447761D01*
X132000619Y-90400142D01*
G04 #@! TO.C,J4*
X178789666Y-87517380D02*
X178789666Y-88231666D01*
X178742047Y-88374523D01*
X178646809Y-88469761D01*
X178503952Y-88517380D01*
X178408714Y-88517380D01*
X179694428Y-87850714D02*
X179694428Y-88517380D01*
X179456333Y-87469761D02*
X179218238Y-88184047D01*
X179837285Y-88184047D01*
G04 #@! TO.C,J5*
X87741166Y-94619380D02*
X87741166Y-95333666D01*
X87693547Y-95476523D01*
X87598309Y-95571761D01*
X87455452Y-95619380D01*
X87360214Y-95619380D01*
X88693547Y-94619380D02*
X88217357Y-94619380D01*
X88169738Y-95095571D01*
X88217357Y-95047952D01*
X88312595Y-95000333D01*
X88550690Y-95000333D01*
X88645928Y-95047952D01*
X88693547Y-95095571D01*
X88741166Y-95190809D01*
X88741166Y-95428904D01*
X88693547Y-95524142D01*
X88645928Y-95571761D01*
X88550690Y-95619380D01*
X88312595Y-95619380D01*
X88217357Y-95571761D01*
X88169738Y-95524142D01*
G04 #@! TO.C,J6*
X87804666Y-124337380D02*
X87804666Y-125051666D01*
X87757047Y-125194523D01*
X87661809Y-125289761D01*
X87518952Y-125337380D01*
X87423714Y-125337380D01*
X88709428Y-124337380D02*
X88518952Y-124337380D01*
X88423714Y-124385000D01*
X88376095Y-124432619D01*
X88280857Y-124575476D01*
X88233238Y-124765952D01*
X88233238Y-125146904D01*
X88280857Y-125242142D01*
X88328476Y-125289761D01*
X88423714Y-125337380D01*
X88614190Y-125337380D01*
X88709428Y-125289761D01*
X88757047Y-125242142D01*
X88804666Y-125146904D01*
X88804666Y-124908809D01*
X88757047Y-124813571D01*
X88709428Y-124765952D01*
X88614190Y-124718333D01*
X88423714Y-124718333D01*
X88328476Y-124765952D01*
X88280857Y-124813571D01*
X88233238Y-124908809D01*
G04 #@! TO.C,J7*
X139747666Y-89495380D02*
X139747666Y-90209666D01*
X139700047Y-90352523D01*
X139604809Y-90447761D01*
X139461952Y-90495380D01*
X139366714Y-90495380D01*
X140128619Y-89495380D02*
X140795285Y-89495380D01*
X140366714Y-90495380D01*
G04 #@! TO.C,R1*
X137993380Y-120689666D02*
X137517190Y-121023000D01*
X137993380Y-121261095D02*
X136993380Y-121261095D01*
X136993380Y-120880142D01*
X137041000Y-120784904D01*
X137088619Y-120737285D01*
X137183857Y-120689666D01*
X137326714Y-120689666D01*
X137421952Y-120737285D01*
X137469571Y-120784904D01*
X137517190Y-120880142D01*
X137517190Y-121261095D01*
X137993380Y-119737285D02*
X137993380Y-120308714D01*
X137993380Y-120023000D02*
X136993380Y-120023000D01*
X137136238Y-120118238D01*
X137231476Y-120213476D01*
X137279095Y-120308714D01*
G04 #@! TO.C,U1*
X117983095Y-89495380D02*
X117983095Y-90304904D01*
X118030714Y-90400142D01*
X118078333Y-90447761D01*
X118173571Y-90495380D01*
X118364047Y-90495380D01*
X118459285Y-90447761D01*
X118506904Y-90400142D01*
X118554523Y-90304904D01*
X118554523Y-89495380D01*
X119554523Y-90495380D02*
X118983095Y-90495380D01*
X119268809Y-90495380D02*
X119268809Y-89495380D01*
X119173571Y-89638238D01*
X119078333Y-89733476D01*
X118983095Y-89781095D01*
G04 #@! TO.C,U2*
X157099095Y-87971380D02*
X157099095Y-88780904D01*
X157146714Y-88876142D01*
X157194333Y-88923761D01*
X157289571Y-88971380D01*
X157480047Y-88971380D01*
X157575285Y-88923761D01*
X157622904Y-88876142D01*
X157670523Y-88780904D01*
X157670523Y-87971380D01*
X158099095Y-88066619D02*
X158146714Y-88019000D01*
X158241952Y-87971380D01*
X158480047Y-87971380D01*
X158575285Y-88019000D01*
X158622904Y-88066619D01*
X158670523Y-88161857D01*
X158670523Y-88257095D01*
X158622904Y-88399952D01*
X158051476Y-88971380D01*
X158670523Y-88971380D01*
G04 #@! TO.C,U3*
X96139095Y-79843380D02*
X96139095Y-80652904D01*
X96186714Y-80748142D01*
X96234333Y-80795761D01*
X96329571Y-80843380D01*
X96520047Y-80843380D01*
X96615285Y-80795761D01*
X96662904Y-80748142D01*
X96710523Y-80652904D01*
X96710523Y-79843380D01*
X97091476Y-79843380D02*
X97710523Y-79843380D01*
X97377190Y-80224333D01*
X97520047Y-80224333D01*
X97615285Y-80271952D01*
X97662904Y-80319571D01*
X97710523Y-80414809D01*
X97710523Y-80652904D01*
X97662904Y-80748142D01*
X97615285Y-80795761D01*
X97520047Y-80843380D01*
X97234333Y-80843380D01*
X97139095Y-80795761D01*
X97091476Y-80748142D01*
G04 #@! TO.C,U4*
X117475095Y-112863380D02*
X117475095Y-113672904D01*
X117522714Y-113768142D01*
X117570333Y-113815761D01*
X117665571Y-113863380D01*
X117856047Y-113863380D01*
X117951285Y-113815761D01*
X117998904Y-113768142D01*
X118046523Y-113672904D01*
X118046523Y-112863380D01*
X118951285Y-113196714D02*
X118951285Y-113863380D01*
X118713190Y-112815761D02*
X118475095Y-113530047D01*
X119094142Y-113530047D01*
G04 #@! TO.C,Y1*
X130149190Y-120671190D02*
X130625380Y-120671190D01*
X129625380Y-121004523D02*
X130149190Y-120671190D01*
X129625380Y-120337857D01*
X130625380Y-119480714D02*
X130625380Y-120052142D01*
X130625380Y-119766428D02*
X129625380Y-119766428D01*
X129768238Y-119861666D01*
X129863476Y-119956904D01*
X129911095Y-120052142D01*
G04 #@! TO.C,R2*
X163901380Y-73191666D02*
X163425190Y-73525000D01*
X163901380Y-73763095D02*
X162901380Y-73763095D01*
X162901380Y-73382142D01*
X162949000Y-73286904D01*
X162996619Y-73239285D01*
X163091857Y-73191666D01*
X163234714Y-73191666D01*
X163329952Y-73239285D01*
X163377571Y-73286904D01*
X163425190Y-73382142D01*
X163425190Y-73763095D01*
X162996619Y-72810714D02*
X162949000Y-72763095D01*
X162901380Y-72667857D01*
X162901380Y-72429761D01*
X162949000Y-72334523D01*
X162996619Y-72286904D01*
X163091857Y-72239285D01*
X163187095Y-72239285D01*
X163329952Y-72286904D01*
X163901380Y-72858333D01*
X163901380Y-72239285D01*
G04 #@! TO.C,R3*
X168981380Y-73191666D02*
X168505190Y-73525000D01*
X168981380Y-73763095D02*
X167981380Y-73763095D01*
X167981380Y-73382142D01*
X168029000Y-73286904D01*
X168076619Y-73239285D01*
X168171857Y-73191666D01*
X168314714Y-73191666D01*
X168409952Y-73239285D01*
X168457571Y-73286904D01*
X168505190Y-73382142D01*
X168505190Y-73763095D01*
X167981380Y-72858333D02*
X167981380Y-72239285D01*
X168362333Y-72572619D01*
X168362333Y-72429761D01*
X168409952Y-72334523D01*
X168457571Y-72286904D01*
X168552809Y-72239285D01*
X168790904Y-72239285D01*
X168886142Y-72286904D01*
X168933761Y-72334523D01*
X168981380Y-72429761D01*
X168981380Y-72715476D01*
X168933761Y-72810714D01*
X168886142Y-72858333D01*
G04 #@! TO.C,C7*
X96206333Y-67663642D02*
X96158714Y-67711261D01*
X96015857Y-67758880D01*
X95920619Y-67758880D01*
X95777761Y-67711261D01*
X95682523Y-67616023D01*
X95634904Y-67520785D01*
X95587285Y-67330309D01*
X95587285Y-67187452D01*
X95634904Y-66996976D01*
X95682523Y-66901738D01*
X95777761Y-66806500D01*
X95920619Y-66758880D01*
X96015857Y-66758880D01*
X96158714Y-66806500D01*
X96206333Y-66854119D01*
X96539666Y-66758880D02*
X97206333Y-66758880D01*
X96777761Y-67758880D01*
G04 #@! TO.C,Q1*
X179350619Y-82660238D02*
X179303000Y-82755476D01*
X179207761Y-82850714D01*
X179064904Y-82993571D01*
X179017285Y-83088809D01*
X179017285Y-83184047D01*
X179255380Y-83136428D02*
X179207761Y-83231666D01*
X179112523Y-83326904D01*
X178922047Y-83374523D01*
X178588714Y-83374523D01*
X178398238Y-83326904D01*
X178303000Y-83231666D01*
X178255380Y-83136428D01*
X178255380Y-82945952D01*
X178303000Y-82850714D01*
X178398238Y-82755476D01*
X178588714Y-82707857D01*
X178922047Y-82707857D01*
X179112523Y-82755476D01*
X179207761Y-82850714D01*
X179255380Y-82945952D01*
X179255380Y-83136428D01*
X179255380Y-81755476D02*
X179255380Y-82326904D01*
X179255380Y-82041190D02*
X178255380Y-82041190D01*
X178398238Y-82136428D01*
X178493476Y-82231666D01*
X178541095Y-82326904D01*
G04 #@! TD*
M02*
