G04 #@! TF.GenerationSoftware,KiCad,Pcbnew,(5.0.0-3-g5ebb6b6)*
G04 #@! TF.CreationDate,2018-11-18T15:08:20+09:00*
G04 #@! TF.ProjectId,Z80-8251-PPI,5A38302D383235312D5050492E6B6963,rev?*
G04 #@! TF.SameCoordinates,Original*
G04 #@! TF.FileFunction,Copper,L2,Bot,Signal*
G04 #@! TF.FilePolarity,Positive*
%FSLAX46Y46*%
G04 Gerber Fmt 4.6, Leading zero omitted, Abs format (unit mm)*
G04 Created by KiCad (PCBNEW (5.0.0-3-g5ebb6b6)) date *
%MOMM*%
%LPD*%
G01*
G04 APERTURE LIST*
G04 #@! TA.AperFunction,ComponentPad*
%ADD10O,1.727200X2.032000*%
G04 #@! TD*
G04 #@! TA.AperFunction,ComponentPad*
%ADD11C,1.600000*%
G04 #@! TD*
G04 #@! TA.AperFunction,ComponentPad*
%ADD12R,1.727200X1.727200*%
G04 #@! TD*
G04 #@! TA.AperFunction,ComponentPad*
%ADD13O,1.727200X1.727200*%
G04 #@! TD*
G04 #@! TA.AperFunction,ComponentPad*
%ADD14R,2.032000X1.727200*%
G04 #@! TD*
G04 #@! TA.AperFunction,ComponentPad*
%ADD15O,2.032000X1.727200*%
G04 #@! TD*
G04 #@! TA.AperFunction,ComponentPad*
%ADD16R,1.700000X1.700000*%
G04 #@! TD*
G04 #@! TA.AperFunction,ComponentPad*
%ADD17O,1.700000X1.700000*%
G04 #@! TD*
G04 #@! TA.AperFunction,ComponentPad*
%ADD18C,4.064000*%
G04 #@! TD*
G04 #@! TA.AperFunction,ComponentPad*
%ADD19O,1.600000X1.600000*%
G04 #@! TD*
G04 #@! TA.AperFunction,ComponentPad*
%ADD20R,1.600000X1.600000*%
G04 #@! TD*
G04 #@! TA.AperFunction,ComponentPad*
%ADD21C,1.422400*%
G04 #@! TD*
G04 #@! TA.AperFunction,ComponentPad*
%ADD22C,1.500000*%
G04 #@! TD*
G04 #@! TA.AperFunction,ComponentPad*
%ADD23R,1.500000X1.500000*%
G04 #@! TD*
G04 #@! TA.AperFunction,ViaPad*
%ADD24C,0.889000*%
G04 #@! TD*
G04 #@! TA.AperFunction,Conductor*
%ADD25C,0.609600*%
G04 #@! TD*
G04 #@! TA.AperFunction,Conductor*
%ADD26C,0.203200*%
G04 #@! TD*
G04 #@! TA.AperFunction,Conductor*
%ADD27C,0.254000*%
G04 #@! TD*
G04 APERTURE END LIST*
D10*
G04 #@! TO.P,P1,1*
G04 #@! TO.N,N/C*
X133223000Y-131445000D03*
G04 #@! TO.P,P1,2*
X135763000Y-131445000D03*
G04 #@! TO.P,P1,3*
X138303000Y-131445000D03*
G04 #@! TO.P,P1,4*
X140843000Y-131445000D03*
G04 #@! TO.P,P1,5*
G04 #@! TO.N,VCC*
X143383000Y-131445000D03*
G04 #@! TO.P,P1,6*
G04 #@! TO.N,GND*
X145923000Y-131445000D03*
G04 #@! TO.P,P1,7*
X148463000Y-131445000D03*
G04 #@! TO.P,P1,8*
G04 #@! TO.N,N/C*
X151003000Y-131445000D03*
G04 #@! TD*
G04 #@! TO.P,P2,1*
G04 #@! TO.N,~CE*
X156083000Y-131445000D03*
G04 #@! TO.P,P2,2*
G04 #@! TO.N,A1*
X158623000Y-131445000D03*
G04 #@! TO.P,P2,3*
G04 #@! TO.N,A2*
X161163000Y-131445000D03*
G04 #@! TO.P,P2,4*
G04 #@! TO.N,A3*
X163703000Y-131445000D03*
G04 #@! TO.P,P2,5*
G04 #@! TO.N,A4*
X166243000Y-131445000D03*
G04 #@! TO.P,P2,6*
G04 #@! TO.N,A5*
X168783000Y-131445000D03*
G04 #@! TD*
G04 #@! TO.P,P3,1*
G04 #@! TO.N,N/C*
X124079000Y-83185000D03*
G04 #@! TO.P,P3,2*
X126619000Y-83185000D03*
G04 #@! TO.P,P3,3*
X129159000Y-83185000D03*
G04 #@! TO.P,P3,4*
G04 #@! TO.N,GND*
X131699000Y-83185000D03*
G04 #@! TO.P,P3,5*
G04 #@! TO.N,/~RESIN*
X134239000Y-83185000D03*
G04 #@! TO.P,P3,6*
G04 #@! TO.N,A0*
X136779000Y-83185000D03*
G04 #@! TO.P,P3,7*
G04 #@! TO.N,~IOW*
X139319000Y-83185000D03*
G04 #@! TO.P,P3,8*
G04 #@! TO.N,~IOR*
X141859000Y-83185000D03*
G04 #@! TO.P,P3,9*
G04 #@! TO.N,D7*
X144399000Y-83185000D03*
G04 #@! TO.P,P3,10*
G04 #@! TO.N,D6*
X146939000Y-83185000D03*
G04 #@! TD*
G04 #@! TO.P,P4,1*
G04 #@! TO.N,D5*
X151003000Y-83185000D03*
G04 #@! TO.P,P4,2*
G04 #@! TO.N,D4*
X153543000Y-83185000D03*
G04 #@! TO.P,P4,3*
G04 #@! TO.N,D3*
X156083000Y-83185000D03*
G04 #@! TO.P,P4,4*
G04 #@! TO.N,D2*
X158623000Y-83185000D03*
G04 #@! TO.P,P4,5*
G04 #@! TO.N,D1*
X161163000Y-83185000D03*
G04 #@! TO.P,P4,6*
G04 #@! TO.N,D0*
X163703000Y-83185000D03*
G04 #@! TO.P,P4,7*
G04 #@! TO.N,N/C*
X166243000Y-83185000D03*
G04 #@! TO.P,P4,8*
X168783000Y-83185000D03*
G04 #@! TD*
D11*
G04 #@! TO.P,C1,1*
G04 #@! TO.N,Net-(C1-Pad1)*
X144653000Y-123190000D03*
G04 #@! TO.P,C1,2*
G04 #@! TO.N,GND*
X147153000Y-123190000D03*
G04 #@! TD*
G04 #@! TO.P,C2,1*
G04 #@! TO.N,Net-(C2-Pad1)*
X144653000Y-116205000D03*
G04 #@! TO.P,C2,2*
G04 #@! TO.N,GND*
X147153000Y-116205000D03*
G04 #@! TD*
G04 #@! TO.P,C3,1*
G04 #@! TO.N,VCC*
X113538000Y-116840000D03*
G04 #@! TO.P,C3,2*
G04 #@! TO.N,GND*
X116038000Y-116840000D03*
G04 #@! TD*
G04 #@! TO.P,C4,1*
G04 #@! TO.N,VCC*
X124333000Y-112395000D03*
G04 #@! TO.P,C4,2*
G04 #@! TO.N,GND*
X121833000Y-112395000D03*
G04 #@! TD*
G04 #@! TO.P,C5,1*
G04 #@! TO.N,VCC*
X124333000Y-89535000D03*
G04 #@! TO.P,C5,2*
G04 #@! TO.N,GND*
X121833000Y-89535000D03*
G04 #@! TD*
G04 #@! TO.P,C6,1*
G04 #@! TO.N,VCC*
X169291000Y-88011000D03*
G04 #@! TO.P,C6,2*
G04 #@! TO.N,GND*
X166791000Y-88011000D03*
G04 #@! TD*
D12*
G04 #@! TO.P,J1,1*
G04 #@! TO.N,VCC*
X106807000Y-76073000D03*
D13*
G04 #@! TO.P,J1,2*
G04 #@! TO.N,GND*
X106807000Y-73533000D03*
G04 #@! TO.P,J1,3*
G04 #@! TO.N,VCC*
X109347000Y-76073000D03*
G04 #@! TO.P,J1,4*
G04 #@! TO.N,GND*
X109347000Y-73533000D03*
G04 #@! TO.P,J1,5*
G04 #@! TO.N,N/C*
X111887000Y-76073000D03*
G04 #@! TO.P,J1,6*
X111887000Y-73533000D03*
G04 #@! TO.P,J1,7*
X114427000Y-76073000D03*
G04 #@! TO.P,J1,8*
G04 #@! TO.N,CLK*
X114427000Y-73533000D03*
G04 #@! TO.P,J1,9*
G04 #@! TO.N,D0*
X116967000Y-76073000D03*
G04 #@! TO.P,J1,10*
G04 #@! TO.N,D1*
X116967000Y-73533000D03*
G04 #@! TO.P,J1,11*
G04 #@! TO.N,D2*
X119507000Y-76073000D03*
G04 #@! TO.P,J1,12*
G04 #@! TO.N,D3*
X119507000Y-73533000D03*
G04 #@! TO.P,J1,13*
G04 #@! TO.N,D4*
X122047000Y-76073000D03*
G04 #@! TO.P,J1,14*
G04 #@! TO.N,D5*
X122047000Y-73533000D03*
G04 #@! TO.P,J1,15*
G04 #@! TO.N,D6*
X124587000Y-76073000D03*
G04 #@! TO.P,J1,16*
G04 #@! TO.N,D7*
X124587000Y-73533000D03*
G04 #@! TO.P,J1,17*
G04 #@! TO.N,~IOR*
X127127000Y-76073000D03*
G04 #@! TO.P,J1,18*
G04 #@! TO.N,N/C*
X127127000Y-73533000D03*
G04 #@! TO.P,J1,19*
G04 #@! TO.N,~IOW*
X129667000Y-76073000D03*
G04 #@! TO.P,J1,20*
G04 #@! TO.N,N/C*
X129667000Y-73533000D03*
G04 #@! TO.P,J1,21*
G04 #@! TO.N,RES*
X132207000Y-76073000D03*
G04 #@! TO.P,J1,22*
G04 #@! TO.N,N/C*
X132207000Y-73533000D03*
G04 #@! TO.P,J1,23*
G04 #@! TO.N,INT*
X134747000Y-76073000D03*
G04 #@! TO.P,J1,24*
G04 #@! TO.N,N/C*
X134747000Y-73533000D03*
G04 #@! TO.P,J1,25*
G04 #@! TO.N,A0*
X137287000Y-76073000D03*
G04 #@! TO.P,J1,26*
G04 #@! TO.N,A1*
X137287000Y-73533000D03*
G04 #@! TO.P,J1,27*
G04 #@! TO.N,A2*
X139827000Y-76073000D03*
G04 #@! TO.P,J1,28*
G04 #@! TO.N,A3*
X139827000Y-73533000D03*
G04 #@! TO.P,J1,29*
G04 #@! TO.N,A4*
X142367000Y-76073000D03*
G04 #@! TO.P,J1,30*
G04 #@! TO.N,A5*
X142367000Y-73533000D03*
G04 #@! TO.P,J1,31*
G04 #@! TO.N,A6*
X144907000Y-76073000D03*
G04 #@! TO.P,J1,32*
G04 #@! TO.N,A7*
X144907000Y-73533000D03*
G04 #@! TO.P,J1,33*
G04 #@! TO.N,N/C*
X147447000Y-76073000D03*
G04 #@! TO.P,J1,34*
X147447000Y-73533000D03*
G04 #@! TO.P,J1,35*
X149987000Y-76073000D03*
G04 #@! TO.P,J1,36*
X149987000Y-73533000D03*
G04 #@! TO.P,J1,37*
X152527000Y-76073000D03*
G04 #@! TO.P,J1,38*
X152527000Y-73533000D03*
G04 #@! TO.P,J1,39*
X155067000Y-76073000D03*
G04 #@! TO.P,J1,40*
X155067000Y-73533000D03*
G04 #@! TD*
D12*
G04 #@! TO.P,J2,1*
G04 #@! TO.N,Net-(J2-Pad1)*
X148463000Y-92710000D03*
D13*
G04 #@! TO.P,J2,2*
G04 #@! TO.N,Net-(J2-Pad10)*
X151003000Y-92710000D03*
G04 #@! TO.P,J2,3*
G04 #@! TO.N,Net-(J2-Pad3)*
X148463000Y-95250000D03*
G04 #@! TO.P,J2,4*
G04 #@! TO.N,Net-(J2-Pad10)*
X151003000Y-95250000D03*
G04 #@! TO.P,J2,5*
G04 #@! TO.N,Net-(J2-Pad5)*
X148463000Y-97790000D03*
G04 #@! TO.P,J2,6*
G04 #@! TO.N,Net-(J2-Pad10)*
X151003000Y-97790000D03*
G04 #@! TO.P,J2,7*
G04 #@! TO.N,Net-(J2-Pad7)*
X148463000Y-100330000D03*
G04 #@! TO.P,J2,8*
G04 #@! TO.N,Net-(J2-Pad10)*
X151003000Y-100330000D03*
G04 #@! TO.P,J2,9*
G04 #@! TO.N,Net-(J2-Pad9)*
X148463000Y-102870000D03*
G04 #@! TO.P,J2,10*
G04 #@! TO.N,Net-(J2-Pad10)*
X151003000Y-102870000D03*
G04 #@! TO.P,J2,11*
G04 #@! TO.N,Net-(J2-Pad11)*
X148463000Y-105410000D03*
G04 #@! TO.P,J2,12*
G04 #@! TO.N,Net-(J2-Pad10)*
X151003000Y-105410000D03*
G04 #@! TO.P,J2,13*
G04 #@! TO.N,Net-(J2-Pad13)*
X148463000Y-107950000D03*
G04 #@! TO.P,J2,14*
G04 #@! TO.N,Net-(J2-Pad10)*
X151003000Y-107950000D03*
G04 #@! TO.P,J2,15*
G04 #@! TO.N,Net-(J2-Pad15)*
X148463000Y-110490000D03*
G04 #@! TO.P,J2,16*
G04 #@! TO.N,Net-(J2-Pad10)*
X151003000Y-110490000D03*
G04 #@! TD*
D12*
G04 #@! TO.P,J3,1*
G04 #@! TO.N,Net-(J2-Pad1)*
X133223000Y-92710000D03*
D13*
G04 #@! TO.P,J3,2*
G04 #@! TO.N,Net-(J3-Pad10)*
X135763000Y-92710000D03*
G04 #@! TO.P,J3,3*
G04 #@! TO.N,Net-(J2-Pad3)*
X133223000Y-95250000D03*
G04 #@! TO.P,J3,4*
G04 #@! TO.N,Net-(J3-Pad10)*
X135763000Y-95250000D03*
G04 #@! TO.P,J3,5*
G04 #@! TO.N,Net-(J2-Pad5)*
X133223000Y-97790000D03*
G04 #@! TO.P,J3,6*
G04 #@! TO.N,Net-(J3-Pad10)*
X135763000Y-97790000D03*
G04 #@! TO.P,J3,7*
G04 #@! TO.N,Net-(J2-Pad7)*
X133223000Y-100330000D03*
G04 #@! TO.P,J3,8*
G04 #@! TO.N,Net-(J3-Pad10)*
X135763000Y-100330000D03*
G04 #@! TO.P,J3,9*
G04 #@! TO.N,Net-(J2-Pad9)*
X133223000Y-102870000D03*
G04 #@! TO.P,J3,10*
G04 #@! TO.N,Net-(J3-Pad10)*
X135763000Y-102870000D03*
G04 #@! TO.P,J3,11*
G04 #@! TO.N,Net-(J2-Pad11)*
X133223000Y-105410000D03*
G04 #@! TO.P,J3,12*
G04 #@! TO.N,Net-(J3-Pad10)*
X135763000Y-105410000D03*
G04 #@! TO.P,J3,13*
G04 #@! TO.N,Net-(J2-Pad13)*
X133223000Y-107950000D03*
G04 #@! TO.P,J3,14*
G04 #@! TO.N,Net-(J3-Pad10)*
X135763000Y-107950000D03*
G04 #@! TO.P,J3,15*
G04 #@! TO.N,Net-(J2-Pad15)*
X133223000Y-110490000D03*
G04 #@! TO.P,J3,16*
G04 #@! TO.N,Net-(J3-Pad10)*
X135763000Y-110490000D03*
G04 #@! TD*
D14*
G04 #@! TO.P,J4,1*
G04 #@! TO.N,GND*
X177038000Y-90805000D03*
D15*
G04 #@! TO.P,J4,2*
G04 #@! TO.N,Net-(J4-Pad2)*
X177038000Y-93345000D03*
G04 #@! TO.P,J4,3*
G04 #@! TO.N,N/C*
X177038000Y-95885000D03*
G04 #@! TO.P,J4,4*
G04 #@! TO.N,Net-(J4-Pad4)*
X177038000Y-98425000D03*
G04 #@! TO.P,J4,5*
G04 #@! TO.N,Net-(J4-Pad5)*
X177038000Y-100965000D03*
G04 #@! TO.P,J4,6*
G04 #@! TO.N,Net-(J4-Pad6)*
X177038000Y-103505000D03*
G04 #@! TD*
D16*
G04 #@! TO.P,J5,1*
G04 #@! TO.N,PA0*
X89344500Y-92837000D03*
D17*
G04 #@! TO.P,J5,2*
G04 #@! TO.N,PA1*
X86804500Y-92837000D03*
G04 #@! TO.P,J5,3*
G04 #@! TO.N,PA2*
X89344500Y-90297000D03*
G04 #@! TO.P,J5,4*
G04 #@! TO.N,PA3*
X86804500Y-90297000D03*
G04 #@! TO.P,J5,5*
G04 #@! TO.N,PA4*
X89344500Y-87757000D03*
G04 #@! TO.P,J5,6*
G04 #@! TO.N,PA5*
X86804500Y-87757000D03*
G04 #@! TO.P,J5,7*
G04 #@! TO.N,PA6*
X89344500Y-85217000D03*
G04 #@! TO.P,J5,8*
G04 #@! TO.N,PA7*
X86804500Y-85217000D03*
G04 #@! TO.P,J5,9*
G04 #@! TO.N,PC4*
X89344500Y-82677000D03*
G04 #@! TO.P,J5,10*
G04 #@! TO.N,PC5*
X86804500Y-82677000D03*
G04 #@! TO.P,J5,11*
G04 #@! TO.N,PC6*
X89344500Y-80137000D03*
G04 #@! TO.P,J5,12*
G04 #@! TO.N,PC7*
X86804500Y-80137000D03*
G04 #@! TO.P,J5,13*
G04 #@! TO.N,VCC*
X89344500Y-77597000D03*
G04 #@! TO.P,J5,14*
G04 #@! TO.N,GND*
X86804500Y-77597000D03*
G04 #@! TD*
D16*
G04 #@! TO.P,J6,1*
G04 #@! TO.N,PB0*
X89408000Y-122555000D03*
D17*
G04 #@! TO.P,J6,2*
G04 #@! TO.N,PB1*
X86868000Y-122555000D03*
G04 #@! TO.P,J6,3*
G04 #@! TO.N,PB2*
X89408000Y-120015000D03*
G04 #@! TO.P,J6,4*
G04 #@! TO.N,PB3*
X86868000Y-120015000D03*
G04 #@! TO.P,J6,5*
G04 #@! TO.N,PB4*
X89408000Y-117475000D03*
G04 #@! TO.P,J6,6*
G04 #@! TO.N,PB5*
X86868000Y-117475000D03*
G04 #@! TO.P,J6,7*
G04 #@! TO.N,PB6*
X89408000Y-114935000D03*
G04 #@! TO.P,J6,8*
G04 #@! TO.N,PB7*
X86868000Y-114935000D03*
G04 #@! TO.P,J6,9*
G04 #@! TO.N,PC0*
X89408000Y-112395000D03*
G04 #@! TO.P,J6,10*
G04 #@! TO.N,PC1*
X86868000Y-112395000D03*
G04 #@! TO.P,J6,11*
G04 #@! TO.N,PC2*
X89408000Y-109855000D03*
G04 #@! TO.P,J6,12*
G04 #@! TO.N,PC3*
X86868000Y-109855000D03*
G04 #@! TO.P,J6,13*
G04 #@! TO.N,VCC*
X89408000Y-107315000D03*
G04 #@! TO.P,J6,14*
G04 #@! TO.N,GND*
X86868000Y-107315000D03*
G04 #@! TD*
D12*
G04 #@! TO.P,J7,1*
G04 #@! TO.N,Net-(J2-Pad1)*
X140843000Y-92710000D03*
D13*
G04 #@! TO.P,J7,2*
G04 #@! TO.N,~CE*
X143383000Y-92710000D03*
G04 #@! TO.P,J7,3*
G04 #@! TO.N,Net-(J2-Pad3)*
X140843000Y-95250000D03*
G04 #@! TO.P,J7,4*
G04 #@! TO.N,~CE*
X143383000Y-95250000D03*
G04 #@! TO.P,J7,5*
G04 #@! TO.N,Net-(J2-Pad5)*
X140843000Y-97790000D03*
G04 #@! TO.P,J7,6*
G04 #@! TO.N,~CE*
X143383000Y-97790000D03*
G04 #@! TO.P,J7,7*
G04 #@! TO.N,Net-(J2-Pad7)*
X140843000Y-100330000D03*
G04 #@! TO.P,J7,8*
G04 #@! TO.N,~CE*
X143383000Y-100330000D03*
G04 #@! TO.P,J7,9*
G04 #@! TO.N,Net-(J2-Pad9)*
X140843000Y-102870000D03*
G04 #@! TO.P,J7,10*
G04 #@! TO.N,~CE*
X143383000Y-102870000D03*
G04 #@! TO.P,J7,11*
G04 #@! TO.N,Net-(J2-Pad11)*
X140843000Y-105410000D03*
G04 #@! TO.P,J7,12*
G04 #@! TO.N,~CE*
X143383000Y-105410000D03*
G04 #@! TO.P,J7,13*
G04 #@! TO.N,Net-(J2-Pad13)*
X140843000Y-107950000D03*
G04 #@! TO.P,J7,14*
G04 #@! TO.N,~CE*
X143383000Y-107950000D03*
G04 #@! TO.P,J7,15*
G04 #@! TO.N,Net-(J2-Pad15)*
X140843000Y-110490000D03*
G04 #@! TO.P,J7,16*
G04 #@! TO.N,~CE*
X143383000Y-110490000D03*
G04 #@! TD*
D18*
G04 #@! TO.P,P5,1*
G04 #@! TO.N,N/C*
X86523000Y-67285000D03*
G04 #@! TD*
G04 #@! TO.P,P6,1*
G04 #@! TO.N,N/C*
X175523000Y-67285000D03*
G04 #@! TD*
G04 #@! TO.P,P7,1*
G04 #@! TO.N,N/C*
X86513000Y-133285000D03*
G04 #@! TD*
G04 #@! TO.P,P8,1*
G04 #@! TO.N,N/C*
X175533000Y-133315000D03*
G04 #@! TD*
D11*
G04 #@! TO.P,R1,1*
G04 #@! TO.N,Net-(C2-Pad1)*
X139573000Y-115570000D03*
D19*
G04 #@! TO.P,R1,2*
G04 #@! TO.N,Net-(C1-Pad1)*
X139573000Y-125730000D03*
G04 #@! TD*
D20*
G04 #@! TO.P,U1,1*
G04 #@! TO.N,A5*
X118618000Y-92075000D03*
D19*
G04 #@! TO.P,U1,9*
G04 #@! TO.N,Net-(J2-Pad13)*
X126238000Y-109855000D03*
G04 #@! TO.P,U1,2*
G04 #@! TO.N,A6*
X118618000Y-94615000D03*
G04 #@! TO.P,U1,10*
G04 #@! TO.N,Net-(J2-Pad11)*
X126238000Y-107315000D03*
G04 #@! TO.P,U1,3*
G04 #@! TO.N,A7*
X118618000Y-97155000D03*
G04 #@! TO.P,U1,11*
G04 #@! TO.N,Net-(J2-Pad9)*
X126238000Y-104775000D03*
G04 #@! TO.P,U1,4*
G04 #@! TO.N,GND*
X118618000Y-99695000D03*
G04 #@! TO.P,U1,12*
G04 #@! TO.N,Net-(J2-Pad7)*
X126238000Y-102235000D03*
G04 #@! TO.P,U1,5*
G04 #@! TO.N,GND*
X118618000Y-102235000D03*
G04 #@! TO.P,U1,13*
G04 #@! TO.N,Net-(J2-Pad5)*
X126238000Y-99695000D03*
G04 #@! TO.P,U1,6*
G04 #@! TO.N,VCC*
X118618000Y-104775000D03*
G04 #@! TO.P,U1,14*
G04 #@! TO.N,Net-(J2-Pad3)*
X126238000Y-97155000D03*
G04 #@! TO.P,U1,7*
G04 #@! TO.N,Net-(J2-Pad15)*
X118618000Y-107315000D03*
G04 #@! TO.P,U1,15*
G04 #@! TO.N,Net-(J2-Pad1)*
X126238000Y-94615000D03*
G04 #@! TO.P,U1,8*
G04 #@! TO.N,GND*
X118618000Y-109855000D03*
G04 #@! TO.P,U1,16*
G04 #@! TO.N,VCC*
X126238000Y-92075000D03*
G04 #@! TD*
D20*
G04 #@! TO.P,U2,1*
G04 #@! TO.N,D2*
X156083000Y-90805000D03*
D19*
G04 #@! TO.P,U2,15*
G04 #@! TO.N,N/C*
X171323000Y-123825000D03*
G04 #@! TO.P,U2,2*
G04 #@! TO.N,D3*
X156083000Y-93345000D03*
G04 #@! TO.P,U2,16*
G04 #@! TO.N,N/C*
X171323000Y-121285000D03*
G04 #@! TO.P,U2,3*
G04 #@! TO.N,Net-(J4-Pad4)*
X156083000Y-95885000D03*
G04 #@! TO.P,U2,17*
G04 #@! TO.N,Net-(J4-Pad6)*
X171323000Y-118745000D03*
G04 #@! TO.P,U2,4*
G04 #@! TO.N,GND*
X156083000Y-98425000D03*
G04 #@! TO.P,U2,18*
G04 #@! TO.N,N/C*
X171323000Y-116205000D03*
G04 #@! TO.P,U2,5*
G04 #@! TO.N,D4*
X156083000Y-100965000D03*
G04 #@! TO.P,U2,19*
G04 #@! TO.N,Net-(J4-Pad5)*
X171323000Y-113665000D03*
G04 #@! TO.P,U2,6*
G04 #@! TO.N,D5*
X156083000Y-103505000D03*
G04 #@! TO.P,U2,20*
G04 #@! TO.N,CLK*
X171323000Y-111125000D03*
G04 #@! TO.P,U2,7*
G04 #@! TO.N,D6*
X156083000Y-106045000D03*
G04 #@! TO.P,U2,21*
G04 #@! TO.N,RES*
X171323000Y-108585000D03*
G04 #@! TO.P,U2,8*
G04 #@! TO.N,D7*
X156083000Y-108585000D03*
G04 #@! TO.P,U2,22*
G04 #@! TO.N,Net-(U2-Pad22)*
X171323000Y-106045000D03*
G04 #@! TO.P,U2,9*
G04 #@! TO.N,Net-(U2-Pad25)*
X156083000Y-111125000D03*
G04 #@! TO.P,U2,23*
G04 #@! TO.N,Net-(J4-Pad2)*
X171323000Y-103505000D03*
G04 #@! TO.P,U2,10*
G04 #@! TO.N,~IOW*
X156083000Y-113665000D03*
G04 #@! TO.P,U2,24*
G04 #@! TO.N,Net-(U2-Pad22)*
X171323000Y-100965000D03*
G04 #@! TO.P,U2,11*
G04 #@! TO.N,Net-(J2-Pad10)*
X156083000Y-116205000D03*
G04 #@! TO.P,U2,25*
G04 #@! TO.N,Net-(U2-Pad25)*
X171323000Y-98425000D03*
G04 #@! TO.P,U2,12*
G04 #@! TO.N,A0*
X156083000Y-118745000D03*
G04 #@! TO.P,U2,26*
G04 #@! TO.N,VCC*
X171323000Y-95885000D03*
G04 #@! TO.P,U2,13*
G04 #@! TO.N,~IOR*
X156083000Y-121285000D03*
G04 #@! TO.P,U2,27*
G04 #@! TO.N,D0*
X171323000Y-93345000D03*
G04 #@! TO.P,U2,14*
G04 #@! TO.N,INT*
X156083000Y-123825000D03*
G04 #@! TO.P,U2,28*
G04 #@! TO.N,D1*
X171323000Y-90805000D03*
G04 #@! TD*
G04 #@! TO.P,U3,1*
G04 #@! TO.N,PA3*
X95758000Y-83820000D03*
G04 #@! TO.P,U3,2*
G04 #@! TO.N,PA2*
X95758000Y-86360000D03*
G04 #@! TO.P,U3,3*
G04 #@! TO.N,PA1*
X95758000Y-88900000D03*
G04 #@! TO.P,U3,4*
G04 #@! TO.N,PA0*
X95758000Y-91440000D03*
G04 #@! TO.P,U3,5*
G04 #@! TO.N,~IOR*
X95758000Y-93980000D03*
G04 #@! TO.P,U3,6*
G04 #@! TO.N,Net-(J3-Pad10)*
X95758000Y-96520000D03*
G04 #@! TO.P,U3,7*
G04 #@! TO.N,GND*
X95758000Y-99060000D03*
G04 #@! TO.P,U3,8*
G04 #@! TO.N,A1*
X95758000Y-101600000D03*
G04 #@! TO.P,U3,9*
G04 #@! TO.N,A0*
X95758000Y-104140000D03*
G04 #@! TO.P,U3,10*
G04 #@! TO.N,PC7*
X95758000Y-106680000D03*
G04 #@! TO.P,U3,11*
G04 #@! TO.N,PC6*
X95758000Y-109220000D03*
G04 #@! TO.P,U3,12*
G04 #@! TO.N,PC5*
X95758000Y-111760000D03*
G04 #@! TO.P,U3,13*
G04 #@! TO.N,PC4*
X95758000Y-114300000D03*
G04 #@! TO.P,U3,14*
G04 #@! TO.N,PC0*
X95758000Y-116840000D03*
G04 #@! TO.P,U3,15*
G04 #@! TO.N,PC1*
X95758000Y-119380000D03*
G04 #@! TO.P,U3,16*
G04 #@! TO.N,PC2*
X95758000Y-121920000D03*
G04 #@! TO.P,U3,17*
G04 #@! TO.N,PC3*
X95758000Y-124460000D03*
G04 #@! TO.P,U3,18*
G04 #@! TO.N,PB0*
X95758000Y-127000000D03*
G04 #@! TO.P,U3,19*
G04 #@! TO.N,PB1*
X95758000Y-129540000D03*
G04 #@! TO.P,U3,20*
G04 #@! TO.N,PB2*
X95758000Y-132080000D03*
G04 #@! TO.P,U3,21*
G04 #@! TO.N,PB3*
X110998000Y-132080000D03*
G04 #@! TO.P,U3,22*
G04 #@! TO.N,PB4*
X110998000Y-129540000D03*
G04 #@! TO.P,U3,23*
G04 #@! TO.N,PB5*
X110998000Y-127000000D03*
G04 #@! TO.P,U3,24*
G04 #@! TO.N,PB6*
X110998000Y-124460000D03*
G04 #@! TO.P,U3,25*
G04 #@! TO.N,PB7*
X110998000Y-121920000D03*
G04 #@! TO.P,U3,26*
G04 #@! TO.N,VCC*
X110998000Y-119380000D03*
G04 #@! TO.P,U3,27*
G04 #@! TO.N,D7*
X110998000Y-116840000D03*
G04 #@! TO.P,U3,28*
G04 #@! TO.N,D6*
X110998000Y-114300000D03*
G04 #@! TO.P,U3,29*
G04 #@! TO.N,D5*
X110998000Y-111760000D03*
G04 #@! TO.P,U3,30*
G04 #@! TO.N,D4*
X110998000Y-109220000D03*
G04 #@! TO.P,U3,31*
G04 #@! TO.N,D3*
X110998000Y-106680000D03*
G04 #@! TO.P,U3,32*
G04 #@! TO.N,D2*
X110998000Y-104140000D03*
G04 #@! TO.P,U3,33*
G04 #@! TO.N,D1*
X110998000Y-101600000D03*
G04 #@! TO.P,U3,34*
G04 #@! TO.N,D0*
X110998000Y-99060000D03*
G04 #@! TO.P,U3,35*
G04 #@! TO.N,RES*
X110998000Y-96520000D03*
G04 #@! TO.P,U3,36*
G04 #@! TO.N,~IOW*
X110998000Y-93980000D03*
G04 #@! TO.P,U3,37*
G04 #@! TO.N,PA7*
X110998000Y-91440000D03*
G04 #@! TO.P,U3,38*
G04 #@! TO.N,PA6*
X110998000Y-88900000D03*
G04 #@! TO.P,U3,39*
G04 #@! TO.N,PA5*
X110998000Y-86360000D03*
G04 #@! TO.P,U3,40*
G04 #@! TO.N,PA4*
X110998000Y-83820000D03*
G04 #@! TD*
D20*
G04 #@! TO.P,U4,1*
G04 #@! TO.N,N/C*
X118618000Y-115570000D03*
D19*
G04 #@! TO.P,U4,9*
X126238000Y-133350000D03*
G04 #@! TO.P,U4,2*
X118618000Y-118110000D03*
G04 #@! TO.P,U4,10*
G04 #@! TO.N,Net-(C1-Pad1)*
X126238000Y-130810000D03*
G04 #@! TO.P,U4,3*
G04 #@! TO.N,N/C*
X118618000Y-120650000D03*
G04 #@! TO.P,U4,11*
G04 #@! TO.N,Net-(C2-Pad1)*
X126238000Y-128270000D03*
G04 #@! TO.P,U4,4*
G04 #@! TO.N,N/C*
X118618000Y-123190000D03*
G04 #@! TO.P,U4,12*
G04 #@! TO.N,GND*
X126238000Y-125730000D03*
G04 #@! TO.P,U4,5*
G04 #@! TO.N,Net-(U2-Pad25)*
X118618000Y-125730000D03*
G04 #@! TO.P,U4,13*
G04 #@! TO.N,N/C*
X126238000Y-123190000D03*
G04 #@! TO.P,U4,6*
X118618000Y-128270000D03*
G04 #@! TO.P,U4,14*
X126238000Y-120650000D03*
G04 #@! TO.P,U4,7*
X118618000Y-130810000D03*
G04 #@! TO.P,U4,15*
X126238000Y-118110000D03*
G04 #@! TO.P,U4,8*
G04 #@! TO.N,GND*
X118618000Y-133350000D03*
G04 #@! TO.P,U4,16*
G04 #@! TO.N,VCC*
X126238000Y-115570000D03*
G04 #@! TD*
D21*
G04 #@! TO.P,Y1,1*
G04 #@! TO.N,Net-(C2-Pad1)*
X133223000Y-117475000D03*
G04 #@! TO.P,Y1,2*
G04 #@! TO.N,Net-(C1-Pad1)*
X133223000Y-122555000D03*
G04 #@! TD*
D11*
G04 #@! TO.P,R2,1*
G04 #@! TO.N,Net-(Q1-Pad3)*
X165608000Y-78105000D03*
D19*
G04 #@! TO.P,R2,2*
G04 #@! TO.N,RES*
X165608000Y-67945000D03*
G04 #@! TD*
G04 #@! TO.P,R3,2*
G04 #@! TO.N,/~RESIN*
X170688000Y-67945000D03*
D11*
G04 #@! TO.P,R3,1*
G04 #@! TO.N,VCC*
X170688000Y-78105000D03*
G04 #@! TD*
D20*
G04 #@! TO.P,C7,1*
G04 #@! TO.N,VCC*
X95123000Y-71056500D03*
D11*
G04 #@! TO.P,C7,2*
G04 #@! TO.N,GND*
X97623000Y-71056500D03*
G04 #@! TD*
D22*
G04 #@! TO.P,Q1,2*
G04 #@! TO.N,/~RESIN*
X175243000Y-82565000D03*
G04 #@! TO.P,Q1,3*
G04 #@! TO.N,Net-(Q1-Pad3)*
X175243000Y-85105000D03*
D23*
G04 #@! TO.P,Q1,1*
G04 #@! TO.N,GND*
X175243000Y-80025000D03*
G04 #@! TD*
D24*
G04 #@! TO.N,GND*
X105438000Y-79257200D03*
G04 #@! TO.N,D6*
X124345000Y-81007600D03*
G04 #@! TO.N,~IOR*
X125420000Y-84970400D03*
G04 #@! TO.N,~IOW*
X137533000Y-78200800D03*
G04 #@! TO.N,A0*
X146022000Y-111656000D03*
G04 #@! TO.N,RES*
X120950000Y-95815400D03*
G04 #@! TO.N,A1*
X136511000Y-71184300D03*
G04 #@! TO.N,A5*
X122992000Y-92075000D03*
G04 #@! TO.N,A6*
X140528000Y-85781900D03*
G04 #@! TO.N,/~RESIN*
X174604200Y-88136400D03*
X139972400Y-90927000D03*
G04 #@! TD*
D25*
G04 #@! TO.N,GND*
X124933000Y-125730000D02*
X124933000Y-127035000D01*
X124933000Y-127035000D02*
X118618000Y-133350000D01*
X126238000Y-125730000D02*
X124933000Y-125730000D01*
X95758000Y-99060000D02*
X97116600Y-97701400D01*
X97116600Y-97701400D02*
X97116600Y-83316600D01*
X97116600Y-83316600D02*
X101379000Y-83316600D01*
X101379000Y-83316600D02*
X105438000Y-79257200D01*
X147153000Y-116205000D02*
X147153000Y-123190000D01*
X118618000Y-102235000D02*
X118618000Y-99695000D01*
X106807000Y-73533000D02*
X105438000Y-74901700D01*
X105438000Y-74901700D02*
X105438000Y-79257200D01*
X121833000Y-89535000D02*
X124982000Y-86385900D01*
X124982000Y-86385900D02*
X128498000Y-86385900D01*
X128498000Y-86385900D02*
X131699000Y-83185000D01*
X118618000Y-99695000D02*
X121946000Y-96366600D01*
X121946000Y-96366600D02*
X121946000Y-89648400D01*
X121946000Y-89648400D02*
X121833000Y-89535000D01*
X121833000Y-112395000D02*
X119853000Y-112395000D01*
X119853000Y-112395000D02*
X119660000Y-112202000D01*
X121833000Y-112395000D02*
X121833000Y-122630000D01*
X121833000Y-122630000D02*
X124933000Y-125730000D01*
X166791000Y-88011000D02*
X157388000Y-97413900D01*
X157388000Y-97413900D02*
X157388000Y-98425000D01*
X157388000Y-98425000D02*
X156083000Y-98425000D01*
X118618000Y-109855000D02*
X118618000Y-111160000D01*
X118618000Y-111160000D02*
X119660000Y-112202000D01*
X119660000Y-112202000D02*
X116038000Y-115824000D01*
X116038000Y-115824000D02*
X116038000Y-116840000D01*
G04 #@! TO.N,VCC*
X126238000Y-92075000D02*
X126238000Y-90769900D01*
X126238000Y-90769900D02*
X125568000Y-90769900D01*
X125568000Y-90769900D02*
X124333000Y-89535000D01*
X120020000Y-104775000D02*
X123942000Y-100853000D01*
X123942000Y-100853000D02*
X123942000Y-94370800D01*
X123942000Y-94370800D02*
X126238000Y-92075000D01*
X118618000Y-104775000D02*
X120020000Y-104775000D01*
X110998000Y-119380000D02*
X112303000Y-119380000D01*
X112303000Y-119380000D02*
X112303000Y-118075000D01*
X112303000Y-118075000D02*
X113538000Y-116840000D01*
X171323000Y-95885000D02*
X169291000Y-93853000D01*
X169291000Y-93853000D02*
X169291000Y-88011000D01*
X170688000Y-78105000D02*
X170688000Y-86614000D01*
X170688000Y-86614000D02*
X169291000Y-88011000D01*
X143383000Y-131445000D02*
X143383000Y-125903000D01*
X143383000Y-125903000D02*
X133050000Y-115570000D01*
X133050000Y-115570000D02*
X126238000Y-115570000D01*
X120020000Y-104775000D02*
X120020000Y-108082000D01*
X120020000Y-108082000D02*
X124333000Y-112395000D01*
X89344500Y-77597000D02*
X90699700Y-78952200D01*
X90699700Y-78952200D02*
X90699700Y-104668000D01*
X90699700Y-104668000D02*
X89408000Y-105960000D01*
X89408000Y-105960000D02*
X89408000Y-107315000D01*
D26*
G04 #@! TO.N,D0*
X110998000Y-99060000D02*
X110998000Y-97958100D01*
X110998000Y-97958100D02*
X111136000Y-97958100D01*
X111136000Y-97958100D02*
X112503000Y-96590600D01*
X112503000Y-96590600D02*
X112663000Y-81945000D01*
X112663000Y-81945000D02*
X116967000Y-77238500D01*
X116967000Y-77238500D02*
X116967000Y-76073000D01*
X163703000Y-83185000D02*
X164868000Y-83185000D01*
X164868000Y-83185000D02*
X164868000Y-84350500D01*
X164868000Y-84350500D02*
X167898000Y-87380300D01*
X167898000Y-87380300D02*
X167898000Y-94057800D01*
X167898000Y-94057800D02*
X170845000Y-97004200D01*
X170845000Y-97004200D02*
X171772000Y-97004200D01*
X171772000Y-97004200D02*
X172426000Y-96350100D01*
X172426000Y-96350100D02*
X172426000Y-95321500D01*
X172426000Y-95321500D02*
X171551000Y-94446900D01*
X171551000Y-94446900D02*
X171323000Y-94446900D01*
X171323000Y-94446900D02*
X171323000Y-93345000D01*
G04 #@! TO.N,D1*
X161163000Y-83185000D02*
X162328000Y-83185000D01*
X162328000Y-83185000D02*
X162328000Y-82747900D01*
X162328000Y-82747900D02*
X165075000Y-80001600D01*
X165075000Y-80001600D02*
X167184000Y-80001600D01*
X167184000Y-80001600D02*
X170191000Y-76994800D01*
X170191000Y-76994800D02*
X171145000Y-76994800D01*
X171145000Y-76994800D02*
X171802000Y-77652200D01*
X171802000Y-77652200D02*
X171802000Y-89223800D01*
X171802000Y-89223800D02*
X171323000Y-89703100D01*
X171323000Y-89703100D02*
X171323000Y-90805000D01*
X110998000Y-101600000D02*
X110998000Y-100498000D01*
X110998000Y-100498000D02*
X111136000Y-100498000D01*
X111136000Y-100498000D02*
X113109000Y-98525000D01*
X113109000Y-98525000D02*
X113109000Y-82524700D01*
X113109000Y-82524700D02*
X118158000Y-77475900D01*
X118158000Y-77475900D02*
X118158000Y-75526900D01*
X118158000Y-75526900D02*
X117329000Y-74698500D01*
X117329000Y-74698500D02*
X116967000Y-74698500D01*
X116967000Y-74698500D02*
X116967000Y-73533000D01*
G04 #@! TO.N,D2*
X158623000Y-83185000D02*
X158623000Y-87163100D01*
X158623000Y-87163100D02*
X156083000Y-89703100D01*
X156083000Y-89703100D02*
X156083000Y-90805000D01*
X110998000Y-104140000D02*
X110998000Y-103038000D01*
X110998000Y-103038000D02*
X111136000Y-103038000D01*
X111136000Y-103038000D02*
X113714000Y-100460000D01*
X113714000Y-100460000D02*
X113714000Y-83031700D01*
X113714000Y-83031700D02*
X119507000Y-77238500D01*
X119507000Y-77238500D02*
X119507000Y-76073000D01*
G04 #@! TO.N,D3*
X156083000Y-83185000D02*
X156083000Y-88091200D01*
X156083000Y-88091200D02*
X154981000Y-89193100D01*
X154981000Y-89193100D02*
X154981000Y-91730100D01*
X154981000Y-91730100D02*
X155494000Y-92243100D01*
X155494000Y-92243100D02*
X156083000Y-92243100D01*
X156083000Y-92243100D02*
X156083000Y-93345000D01*
X110998000Y-106680000D02*
X110998000Y-105578000D01*
X110998000Y-105578000D02*
X111136000Y-105578000D01*
X111136000Y-105578000D02*
X114220000Y-102494000D01*
X114220000Y-102494000D02*
X114220000Y-84495000D01*
X114220000Y-84495000D02*
X120680000Y-78035200D01*
X120680000Y-78035200D02*
X120680000Y-75508900D01*
X120680000Y-75508900D02*
X119869000Y-74698500D01*
X119869000Y-74698500D02*
X119507000Y-74698500D01*
X119507000Y-74698500D02*
X119507000Y-73533000D01*
G04 #@! TO.N,D4*
X156083000Y-100965000D02*
X156083000Y-99863100D01*
X156083000Y-99863100D02*
X155945000Y-99863100D01*
X155945000Y-99863100D02*
X154578000Y-98495500D01*
X154578000Y-98495500D02*
X154543000Y-89015000D01*
X154543000Y-89015000D02*
X154708000Y-88693400D01*
X154708000Y-88693400D02*
X154708000Y-83185000D01*
X154708000Y-83185000D02*
X153543000Y-83185000D01*
X110998000Y-109220000D02*
X110998000Y-108118000D01*
X110998000Y-108118000D02*
X111136000Y-108118000D01*
X111136000Y-108118000D02*
X116658000Y-102596000D01*
X116658000Y-102596000D02*
X116943000Y-82765000D01*
X116943000Y-82765000D02*
X121553000Y-78085000D01*
X121553000Y-78085000D02*
X122047000Y-76073000D01*
G04 #@! TO.N,D5*
X121565000Y-73533000D02*
X123140000Y-71958200D01*
X123140000Y-71958200D02*
X145055000Y-71958200D01*
X145055000Y-71958200D02*
X146163000Y-72955000D01*
X146163000Y-72955000D02*
X146143000Y-74035000D01*
X146143000Y-74035000D02*
X147139000Y-74907400D01*
X147139000Y-74907400D02*
X147973000Y-74907400D01*
X147973000Y-74907400D02*
X148717000Y-75651400D01*
X148717000Y-75651400D02*
X148717000Y-82064500D01*
X148717000Y-82064500D02*
X149838000Y-83185000D01*
X149838000Y-83185000D02*
X151003000Y-83185000D01*
X156083000Y-103505000D02*
X156083000Y-102403000D01*
X156083000Y-102403000D02*
X155945000Y-102403000D01*
X155945000Y-102403000D02*
X154093000Y-100605000D01*
X154093000Y-100605000D02*
X154123000Y-85705000D01*
X154123000Y-85705000D02*
X152168000Y-84350500D01*
X152168000Y-84350500D02*
X152168000Y-83185000D01*
X152168000Y-83185000D02*
X151003000Y-83185000D01*
X110998000Y-111760000D02*
X110998000Y-110658000D01*
X110998000Y-110658000D02*
X110860000Y-110658000D01*
X110860000Y-110658000D02*
X109896000Y-109694000D01*
X109896000Y-109694000D02*
X109896000Y-88443500D01*
X109896000Y-88443500D02*
X110542000Y-87798100D01*
X110542000Y-87798100D02*
X111141000Y-87798100D01*
X111141000Y-87798100D02*
X112100000Y-86839000D01*
X112100000Y-86839000D02*
X112100000Y-80993600D01*
X112100000Y-80993600D02*
X115697000Y-77396500D01*
X115697000Y-77396500D02*
X115697000Y-73152300D01*
X115697000Y-73152300D02*
X116520000Y-72328900D01*
X116520000Y-72328900D02*
X120040000Y-72328900D01*
X120040000Y-72328900D02*
X120882000Y-73170800D01*
X120882000Y-73170800D02*
X120882000Y-73533000D01*
X120882000Y-73533000D02*
X121565000Y-73533000D01*
X122047000Y-73533000D02*
X121565000Y-73533000D01*
G04 #@! TO.N,D6*
X146939000Y-83185000D02*
X148104000Y-83185000D01*
X148104000Y-83185000D02*
X153153000Y-88605000D01*
X153153000Y-88605000D02*
X153213000Y-103755000D01*
X153213000Y-103755000D02*
X156083000Y-106045000D01*
X110998000Y-114300000D02*
X110998000Y-113198000D01*
X110998000Y-113198000D02*
X111136000Y-113198000D01*
X111136000Y-113198000D02*
X117314000Y-107020000D01*
X117314000Y-107020000D02*
X117314000Y-99404900D01*
X117314000Y-99404900D02*
X118152000Y-98567700D01*
X118152000Y-98567700D02*
X118847000Y-98567700D01*
X118847000Y-98567700D02*
X120199000Y-97215300D01*
X120199000Y-97215300D02*
X120199000Y-95492700D01*
X120199000Y-95492700D02*
X120327000Y-95364400D01*
X120327000Y-95364400D02*
X120327000Y-85024900D01*
X120327000Y-85024900D02*
X124345000Y-81007600D01*
X124587000Y-76073000D02*
X124587000Y-80765200D01*
X124587000Y-80765200D02*
X124345000Y-81007600D01*
G04 #@! TO.N,D7*
X156083000Y-108585000D02*
X156083000Y-107483000D01*
X156083000Y-107483000D02*
X155945000Y-107483000D01*
X155945000Y-107483000D02*
X152673000Y-104395000D01*
X152673000Y-104395000D02*
X152653000Y-91865000D01*
X152653000Y-91865000D02*
X144537000Y-83185000D01*
X144537000Y-83185000D02*
X144399000Y-83185000D01*
G04 #@! TO.N,~IOR*
X127127000Y-76073000D02*
X127127000Y-77238500D01*
X127127000Y-77238500D02*
X125420000Y-78945200D01*
X125420000Y-78945200D02*
X125420000Y-84970400D01*
X141859000Y-83185000D02*
X143024000Y-83185000D01*
X143024000Y-83185000D02*
X143024000Y-83622100D01*
X143024000Y-83622100D02*
X149657000Y-90254900D01*
X149657000Y-90254900D02*
X150228000Y-90254900D01*
X150228000Y-90254900D02*
X152169000Y-92195800D01*
X152169000Y-92195800D02*
X152169000Y-108779000D01*
X152169000Y-108779000D02*
X155785000Y-112395000D01*
X155785000Y-112395000D02*
X156377000Y-112395000D01*
X156377000Y-112395000D02*
X157589000Y-113608000D01*
X157589000Y-113608000D02*
X157589000Y-118814000D01*
X157589000Y-118814000D02*
X156221000Y-120183000D01*
X156221000Y-120183000D02*
X156083000Y-120183000D01*
X156083000Y-120183000D02*
X156083000Y-121285000D01*
G04 #@! TO.N,~IOW*
X139319000Y-83185000D02*
X139319000Y-79987000D01*
X139319000Y-79987000D02*
X137533000Y-78200800D01*
X139319000Y-83185000D02*
X139319000Y-85748200D01*
X139319000Y-85748200D02*
X147161000Y-93590600D01*
X147161000Y-93590600D02*
X147161000Y-105804000D01*
X147161000Y-105804000D02*
X147932000Y-106576000D01*
X147932000Y-106576000D02*
X148771000Y-106576000D01*
X148771000Y-106576000D02*
X149733000Y-107538000D01*
X149733000Y-107538000D02*
X149733000Y-111417000D01*
X149733000Y-111417000D02*
X155690000Y-117374000D01*
X155690000Y-117374000D02*
X156497000Y-117374000D01*
X156497000Y-117374000D02*
X157185000Y-116686000D01*
X157185000Y-116686000D02*
X157185000Y-114767000D01*
X157185000Y-114767000D02*
X156083000Y-113665000D01*
G04 #@! TO.N,A0*
X146528000Y-110505000D02*
X146573000Y-110460000D01*
X146573000Y-110460000D02*
X146573000Y-110455000D01*
X146528000Y-110505000D02*
X146583000Y-110485000D01*
X146583000Y-110485000D02*
X146520700Y-110571100D01*
X146520700Y-110571100D02*
X146473000Y-110525000D01*
X146473000Y-110525000D02*
X146528000Y-110505000D01*
X146520700Y-110571100D02*
X146022000Y-111261000D01*
X146022000Y-111261000D02*
X146022000Y-111656000D01*
X156083000Y-118745000D02*
X154981000Y-118745000D01*
X154981000Y-118745000D02*
X146520700Y-110571100D01*
X136779000Y-83185000D02*
X137944000Y-83185000D01*
X137944000Y-83185000D02*
X137944000Y-84992400D01*
X137944000Y-84992400D02*
X146663000Y-93745000D01*
X146663000Y-93745000D02*
X146573000Y-110455000D01*
X137287000Y-76073000D02*
X137287000Y-77238500D01*
X137287000Y-77238500D02*
X136779000Y-77746500D01*
X136779000Y-77746500D02*
X136779000Y-83185000D01*
G04 #@! TO.N,~CE*
X143383000Y-110490000D02*
X143383000Y-111656000D01*
X143383000Y-111656000D02*
X144184000Y-111656000D01*
X144184000Y-111656000D02*
X154918000Y-122389000D01*
X154918000Y-122389000D02*
X154918000Y-131445000D01*
X154918000Y-131445000D02*
X156083000Y-131445000D01*
X143383000Y-110490000D02*
X143383000Y-107950000D01*
X143383000Y-107950000D02*
X143383000Y-105410000D01*
X143383000Y-105410000D02*
X143383000Y-102870000D01*
X143383000Y-102870000D02*
X143383000Y-100330000D01*
X143383000Y-100330000D02*
X143383000Y-97790000D01*
X143383000Y-97790000D02*
X143383000Y-95250000D01*
X143383000Y-95250000D02*
X143383000Y-92710000D01*
G04 #@! TO.N,Net-(C1-Pad1)*
X126238000Y-130810000D02*
X126238000Y-129708000D01*
X126238000Y-129708000D02*
X126376000Y-129708000D01*
X126376000Y-129708000D02*
X133223000Y-122861000D01*
X133223000Y-122861000D02*
X133223000Y-122555000D01*
G04 #@! TO.N,Net-(C2-Pad1)*
X126238000Y-128270000D02*
X126238000Y-127168000D01*
X126238000Y-127168000D02*
X126376000Y-127168000D01*
X126376000Y-127168000D02*
X133223000Y-120321000D01*
X133223000Y-120321000D02*
X133223000Y-117475000D01*
G04 #@! TO.N,RES*
X165608000Y-67945000D02*
X165608000Y-69046900D01*
X165608000Y-69046900D02*
X172830000Y-76268400D01*
X172830000Y-76268400D02*
X172830000Y-98504600D01*
X172830000Y-98504600D02*
X171639000Y-99695000D01*
X171639000Y-99695000D02*
X171019000Y-99695000D01*
X171019000Y-99695000D02*
X169813000Y-100901000D01*
X169813000Y-100901000D02*
X169813000Y-106201000D01*
X169813000Y-106201000D02*
X171095000Y-107483000D01*
X171095000Y-107483000D02*
X171323000Y-107483000D01*
X171323000Y-107483000D02*
X171323000Y-108585000D01*
X132207000Y-76073000D02*
X132207000Y-77238500D01*
X132207000Y-77238500D02*
X127896000Y-81549900D01*
X127896000Y-81549900D02*
X127896000Y-83742100D01*
X127896000Y-83742100D02*
X126456000Y-85181500D01*
X126456000Y-85181500D02*
X126265000Y-85181500D01*
X126265000Y-85181500D02*
X126265000Y-85181600D01*
X126265000Y-85181600D02*
X125730000Y-85716800D01*
X125730000Y-85716800D02*
X124080000Y-85716800D01*
X124080000Y-85716800D02*
X120731000Y-89066100D01*
X120731000Y-89066100D02*
X120731000Y-95596600D01*
X120731000Y-95596600D02*
X120950000Y-95815400D01*
G04 #@! TO.N,INT*
X156083000Y-123825000D02*
X156083000Y-122723000D01*
X156083000Y-122723000D02*
X155953000Y-122723000D01*
X155953000Y-122723000D02*
X145247000Y-112018000D01*
X145247000Y-112018000D02*
X145247000Y-92926100D01*
X145247000Y-92926100D02*
X141940000Y-89618400D01*
X141940000Y-89618400D02*
X141361000Y-89618400D01*
X141361000Y-89618400D02*
X135509000Y-83766000D01*
X135509000Y-83766000D02*
X135509000Y-78000500D01*
X135509000Y-78000500D02*
X134747000Y-77238500D01*
X134747000Y-77238500D02*
X134747000Y-76073000D01*
G04 #@! TO.N,A1*
X95758000Y-101600000D02*
X95758000Y-100498000D01*
X95758000Y-100498000D02*
X95895700Y-100498000D01*
X95895700Y-100498000D02*
X108077000Y-88316800D01*
X108077000Y-88316800D02*
X108077000Y-73111100D01*
X108077000Y-73111100D02*
X110004000Y-71184300D01*
X110004000Y-71184300D02*
X136511000Y-71184300D01*
G04 #@! TO.N,A5*
X132969000Y-88247100D02*
X124051000Y-88247100D01*
X124051000Y-88247100D02*
X122992000Y-89305200D01*
X122992000Y-89305200D02*
X122992000Y-92075000D01*
X168783000Y-131445000D02*
X167618000Y-131445000D01*
X167618000Y-131445000D02*
X167618000Y-131922000D01*
X167618000Y-131922000D02*
X166760000Y-132779000D01*
X166760000Y-132779000D02*
X155154000Y-132779000D01*
X155154000Y-132779000D02*
X145903000Y-123527000D01*
X145903000Y-123527000D02*
X145903000Y-120137000D01*
X145903000Y-120137000D02*
X138706000Y-112941000D01*
X138706000Y-112941000D02*
X138706000Y-93984600D01*
X138706000Y-93984600D02*
X132969000Y-88247100D01*
X132969000Y-88247100D02*
X132969000Y-77238400D01*
X132969000Y-77238400D02*
X133477000Y-76730400D01*
X133477000Y-76730400D02*
X133477000Y-75680500D01*
X133477000Y-75680500D02*
X134250000Y-74907400D01*
X134250000Y-74907400D02*
X140189000Y-74907400D01*
X140189000Y-74907400D02*
X141202000Y-73895200D01*
X141202000Y-73895200D02*
X141202000Y-73533000D01*
X141202000Y-73533000D02*
X142367000Y-73533000D01*
G04 #@! TO.N,A6*
X144907000Y-76073000D02*
X144907000Y-77238500D01*
X144907000Y-77238500D02*
X140528000Y-81617800D01*
X140528000Y-81617800D02*
X140528000Y-85781900D01*
G04 #@! TO.N,A7*
X118618000Y-97155000D02*
X118618000Y-96053100D01*
X118618000Y-96053100D02*
X118846000Y-96053100D01*
X118846000Y-96053100D02*
X119893000Y-94865000D01*
X119893000Y-94865000D02*
X119924000Y-81063100D01*
X119924000Y-81063100D02*
X123218000Y-77768500D01*
X123218000Y-77768500D02*
X123218000Y-75759100D01*
X123218000Y-75759100D02*
X124070000Y-74907400D01*
X124070000Y-74907400D02*
X127417000Y-74907400D01*
X127417000Y-74907400D02*
X128397000Y-73927500D01*
X128397000Y-73927500D02*
X128397000Y-73120600D01*
X128397000Y-73120600D02*
X129156000Y-72361800D01*
X129156000Y-72361800D02*
X142862000Y-72361800D01*
X142862000Y-72361800D02*
X143742000Y-73241600D01*
X143742000Y-73241600D02*
X143742000Y-73533000D01*
X143742000Y-73533000D02*
X144907000Y-73533000D01*
G04 #@! TO.N,Net-(J2-Pad1)*
X126238000Y-94615000D02*
X130152000Y-94615000D01*
X130152000Y-94615000D02*
X132058000Y-92710000D01*
X132058000Y-92710000D02*
X133223000Y-92710000D01*
G04 #@! TO.N,Net-(J2-Pad10)*
X156083000Y-116205000D02*
X156083000Y-115103000D01*
X156083000Y-115103000D02*
X155945000Y-115103000D01*
X155945000Y-115103000D02*
X151586000Y-110744000D01*
X151586000Y-110744000D02*
X151586000Y-110490000D01*
X151003000Y-110490000D02*
X151586000Y-110490000D01*
X151586000Y-110490000D02*
X151586000Y-109698000D01*
X151586000Y-109698000D02*
X151003000Y-109116000D01*
X151003000Y-109116000D02*
X151003000Y-107950000D01*
X151003000Y-107950000D02*
X151003000Y-105410000D01*
X151003000Y-105410000D02*
X151003000Y-102870000D01*
X151003000Y-102870000D02*
X151003000Y-100330000D01*
X151003000Y-100330000D02*
X151003000Y-97790000D01*
X151003000Y-97790000D02*
X151003000Y-95250000D01*
X151003000Y-95250000D02*
X151003000Y-92710000D01*
G04 #@! TO.N,Net-(J2-Pad3)*
X126238000Y-97155000D02*
X130152000Y-97155000D01*
X130152000Y-97155000D02*
X132058000Y-95250000D01*
X132058000Y-95250000D02*
X133223000Y-95250000D01*
G04 #@! TO.N,Net-(J2-Pad7)*
X126238000Y-102235000D02*
X130152000Y-102235000D01*
X130152000Y-102235000D02*
X132058000Y-100330000D01*
X132058000Y-100330000D02*
X133223000Y-100330000D01*
G04 #@! TO.N,Net-(J2-Pad9)*
X126238000Y-104775000D02*
X130152000Y-104775000D01*
X130152000Y-104775000D02*
X132058000Y-102870000D01*
X132058000Y-102870000D02*
X133223000Y-102870000D01*
G04 #@! TO.N,Net-(J2-Pad13)*
X126238000Y-109855000D02*
X130152000Y-109855000D01*
X130152000Y-109855000D02*
X132058000Y-107950000D01*
X132058000Y-107950000D02*
X133223000Y-107950000D01*
G04 #@! TO.N,Net-(J3-Pad10)*
X135763000Y-110490000D02*
X135763000Y-107950000D01*
X135763000Y-107950000D02*
X135763000Y-105410000D01*
X135763000Y-105410000D02*
X135763000Y-102870000D01*
X135763000Y-102870000D02*
X135763000Y-100330000D01*
X135763000Y-100330000D02*
X135763000Y-97790000D01*
X135763000Y-97790000D02*
X135763000Y-95250000D01*
X135763000Y-95250000D02*
X135763000Y-92710000D01*
G04 #@! TO.N,Net-(J4-Pad2)*
X177038000Y-93345000D02*
X177038000Y-94510500D01*
X177038000Y-94510500D02*
X176562000Y-94510500D01*
X176562000Y-94510500D02*
X173515000Y-97557000D01*
X173515000Y-97557000D02*
X173515000Y-101313000D01*
X173515000Y-101313000D02*
X171323000Y-103505000D01*
G04 #@! TO.N,Net-(J4-Pad5)*
X171323000Y-113665000D02*
X171323000Y-112563000D01*
X171323000Y-112563000D02*
X171461000Y-112563000D01*
X171461000Y-112563000D02*
X174633000Y-109391000D01*
X174633000Y-109391000D02*
X174633000Y-104059000D01*
X174633000Y-104059000D02*
X176562000Y-102130000D01*
X176562000Y-102130000D02*
X177038000Y-102130000D01*
X177038000Y-102130000D02*
X177038000Y-100965000D01*
G04 #@! TO.N,Net-(J4-Pad6)*
X171323000Y-118745000D02*
X171323000Y-117643000D01*
X171323000Y-117643000D02*
X171461000Y-117643000D01*
X171461000Y-117643000D02*
X177038000Y-112066000D01*
X177038000Y-112066000D02*
X177038000Y-103505000D01*
G04 #@! TO.N,PA3*
X95758000Y-83820000D02*
X95758000Y-81775400D01*
X95758000Y-81775400D02*
X89996300Y-76013700D01*
X89996300Y-76013700D02*
X86755500Y-76013700D01*
X86755500Y-76013700D02*
X85637800Y-77131400D01*
X85637800Y-77131400D02*
X85637800Y-88247000D01*
X85637800Y-88247000D02*
X86535900Y-89145100D01*
X86535900Y-89145100D02*
X86804500Y-89145100D01*
X86804500Y-89145100D02*
X86804500Y-90297000D01*
G04 #@! TO.N,PC0*
X95758000Y-116840000D02*
X94656100Y-116840000D01*
X94656100Y-116840000D02*
X90559900Y-112744000D01*
X90559900Y-112744000D02*
X90559900Y-112395000D01*
X90559900Y-112395000D02*
X89408000Y-112395000D01*
G04 #@! TO.N,PC1*
X95758000Y-119380000D02*
X94656100Y-119380000D01*
X94656100Y-119380000D02*
X94656100Y-118554000D01*
X94656100Y-118554000D02*
X89767500Y-113665000D01*
X89767500Y-113665000D02*
X89021300Y-113665000D01*
X89021300Y-113665000D02*
X88019900Y-112664000D01*
X88019900Y-112664000D02*
X88019900Y-112395000D01*
X88019900Y-112395000D02*
X86868000Y-112395000D01*
G04 #@! TO.N,PC2*
X95758000Y-121920000D02*
X95758000Y-120818000D01*
X95758000Y-120818000D02*
X95895700Y-120818000D01*
X95895700Y-120818000D02*
X96878800Y-119835000D01*
X96878800Y-119835000D02*
X96878800Y-116388000D01*
X96878800Y-116388000D02*
X96117500Y-115627000D01*
X96117500Y-115627000D02*
X95517300Y-115627000D01*
X95517300Y-115627000D02*
X90559900Y-110670000D01*
X90559900Y-110670000D02*
X90559900Y-109855000D01*
X90559900Y-109855000D02*
X89408000Y-109855000D01*
G04 #@! TO.N,PC3*
X95758000Y-124460000D02*
X94656100Y-124460000D01*
X94656100Y-124460000D02*
X94656100Y-123609000D01*
X94656100Y-123609000D02*
X89791700Y-118745000D01*
X89791700Y-118745000D02*
X89037800Y-118745000D01*
X89037800Y-118745000D02*
X88256000Y-117963000D01*
X88256000Y-117963000D02*
X88256000Y-117199000D01*
X88256000Y-117199000D02*
X87262200Y-116205000D01*
X87262200Y-116205000D02*
X86489000Y-116205000D01*
X86489000Y-116205000D02*
X85669200Y-115385000D01*
X85669200Y-115385000D02*
X85669200Y-111937000D01*
X85669200Y-111937000D02*
X86599400Y-111007000D01*
X86599400Y-111007000D02*
X86868000Y-111007000D01*
X86868000Y-111007000D02*
X86868000Y-109855000D01*
G04 #@! TO.N,PB2*
X95758000Y-132080000D02*
X95758000Y-130978000D01*
X95758000Y-130978000D02*
X95620100Y-130978000D01*
X95620100Y-130978000D02*
X94656100Y-130014000D01*
X94656100Y-130014000D02*
X94656100Y-125600000D01*
X94656100Y-125600000D02*
X90222600Y-121167000D01*
X90222600Y-121167000D02*
X89408000Y-121167000D01*
X89408000Y-121167000D02*
X89408000Y-120015000D01*
G04 #@! TO.N,PB4*
X110998000Y-129540000D02*
X109896000Y-129540000D01*
X109896000Y-129540000D02*
X103546000Y-123190000D01*
X103546000Y-123190000D02*
X95460200Y-123190000D01*
X95460200Y-123190000D02*
X90559900Y-118290000D01*
X90559900Y-118290000D02*
X90559900Y-117475000D01*
X90559900Y-117475000D02*
X89408000Y-117475000D01*
G04 #@! TO.N,PC4*
X95758000Y-114300000D02*
X90043000Y-108585000D01*
X90043000Y-108585000D02*
X89011500Y-108585000D01*
X89011500Y-108585000D02*
X88191600Y-107765000D01*
X88191600Y-107765000D02*
X88191600Y-84713200D01*
X88191600Y-84713200D02*
X89075900Y-83828900D01*
X89075900Y-83828900D02*
X89344500Y-83828900D01*
X89344500Y-83828900D02*
X89344500Y-82677000D01*
G04 #@! TO.N,PC5*
X95758000Y-111760000D02*
X95758000Y-110658000D01*
X95758000Y-110658000D02*
X95620100Y-110658000D01*
X95620100Y-110658000D02*
X94656100Y-109694000D01*
X94656100Y-109694000D02*
X94656100Y-81262900D01*
X94656100Y-81262900D02*
X89819300Y-76426100D01*
X89819300Y-76426100D02*
X88867700Y-76426100D01*
X88867700Y-76426100D02*
X88074500Y-77219300D01*
X88074500Y-77219300D02*
X88074500Y-80523600D01*
X88074500Y-80523600D02*
X87073000Y-81525100D01*
X87073000Y-81525100D02*
X86804500Y-81525100D01*
X86804500Y-81525100D02*
X86804500Y-82677000D01*
G04 #@! TO.N,Net-(U2-Pad22)*
X171323000Y-100965000D02*
X171323000Y-102067000D01*
X171323000Y-102067000D02*
X171185000Y-102067000D01*
X171185000Y-102067000D02*
X170219000Y-103033000D01*
X170219000Y-103033000D02*
X170219000Y-104068000D01*
X170219000Y-104068000D02*
X171095000Y-104943000D01*
X171095000Y-104943000D02*
X171323000Y-104943000D01*
X171323000Y-104943000D02*
X171323000Y-106045000D01*
G04 #@! TO.N,/~RESIN*
X174604200Y-88136400D02*
X174151600Y-87683800D01*
X174151600Y-87683800D02*
X174151600Y-83656400D01*
X174151600Y-83656400D02*
X175243000Y-82565000D01*
X175243000Y-82565000D02*
X173301100Y-80623100D01*
X173301100Y-80623100D02*
X173301100Y-71660000D01*
X173301100Y-71660000D02*
X170688000Y-69046900D01*
X134239000Y-83185000D02*
X134239000Y-85193600D01*
X134239000Y-85193600D02*
X139972400Y-90927000D01*
X170688000Y-67945000D02*
X170688000Y-69046900D01*
G04 #@! TO.N,A2*
X139827000Y-76073000D02*
X140992000Y-76073000D01*
X140992000Y-76073000D02*
X140992000Y-75781600D01*
X140992000Y-75781600D02*
X141873000Y-74901300D01*
X141873000Y-74901300D02*
X145384000Y-74901300D01*
X145384000Y-74901300D02*
X146280000Y-75797400D01*
X146280000Y-75797400D02*
X146280000Y-80526800D01*
X146280000Y-80526800D02*
X153673000Y-88145000D01*
X153673000Y-88145000D02*
X153673000Y-102875000D01*
X153673000Y-102875000D02*
X155753000Y-104775000D01*
X155753000Y-104775000D02*
X156380000Y-104775000D01*
X156380000Y-104775000D02*
X161163000Y-109558000D01*
X161163000Y-109558000D02*
X161163000Y-131445000D01*
G04 #@! TD*
D27*
G04 #@! TO.N,GND*
G36*
X180086000Y-136906000D02*
X81915000Y-136906000D01*
X81915000Y-132754501D01*
X83846000Y-132754501D01*
X83846000Y-133815499D01*
X84252026Y-134795734D01*
X85002266Y-135545974D01*
X85982501Y-135952000D01*
X87043499Y-135952000D01*
X88023734Y-135545974D01*
X88773974Y-134795734D01*
X89180000Y-133815499D01*
X89180000Y-133699039D01*
X117226096Y-133699039D01*
X117386959Y-134087423D01*
X117762866Y-134502389D01*
X118268959Y-134741914D01*
X118491000Y-134620629D01*
X118491000Y-133477000D01*
X118745000Y-133477000D01*
X118745000Y-134620629D01*
X118967041Y-134741914D01*
X119473134Y-134502389D01*
X119849041Y-134087423D01*
X120009904Y-133699039D01*
X119887915Y-133477000D01*
X118745000Y-133477000D01*
X118491000Y-133477000D01*
X117348085Y-133477000D01*
X117226096Y-133699039D01*
X89180000Y-133699039D01*
X89180000Y-132754501D01*
X88773974Y-131774266D01*
X88023734Y-131024026D01*
X87043499Y-130618000D01*
X85982501Y-130618000D01*
X85002266Y-131024026D01*
X84252026Y-131774266D01*
X83846000Y-132754501D01*
X81915000Y-132754501D01*
X81915000Y-106958110D01*
X85426524Y-106958110D01*
X85547845Y-107188000D01*
X86741000Y-107188000D01*
X86741000Y-105994181D01*
X86511108Y-105873514D01*
X85986642Y-106119817D01*
X85596355Y-106548076D01*
X85426524Y-106958110D01*
X81915000Y-106958110D01*
X81915000Y-77131400D01*
X84886771Y-77131400D01*
X84901200Y-77203940D01*
X84901201Y-88174455D01*
X84886771Y-88247000D01*
X84943939Y-88534406D01*
X85065649Y-88716558D01*
X85065652Y-88716561D01*
X85106743Y-88778058D01*
X85168240Y-88819149D01*
X85670425Y-89321335D01*
X85405661Y-89717582D01*
X85290408Y-90297000D01*
X85405661Y-90876418D01*
X85733875Y-91367625D01*
X86032261Y-91567000D01*
X85733875Y-91766375D01*
X85405661Y-92257582D01*
X85290408Y-92837000D01*
X85405661Y-93416418D01*
X85733875Y-93907625D01*
X86225082Y-94235839D01*
X86658244Y-94322000D01*
X86950756Y-94322000D01*
X87383918Y-94235839D01*
X87455001Y-94188343D01*
X87455000Y-105981579D01*
X87224892Y-105873514D01*
X86995000Y-105994181D01*
X86995000Y-107188000D01*
X87015000Y-107188000D01*
X87015000Y-107442000D01*
X86995000Y-107442000D01*
X86995000Y-107462000D01*
X86741000Y-107462000D01*
X86741000Y-107442000D01*
X85547845Y-107442000D01*
X85426524Y-107671890D01*
X85596355Y-108081924D01*
X85986642Y-108510183D01*
X86116478Y-108571157D01*
X85797375Y-108784375D01*
X85469161Y-109275582D01*
X85353908Y-109855000D01*
X85469161Y-110434418D01*
X85733935Y-110830681D01*
X85199673Y-111364829D01*
X85138143Y-111405942D01*
X85058520Y-111525105D01*
X84975370Y-111649520D01*
X84975362Y-111649560D01*
X84975340Y-111649593D01*
X84947228Y-111790919D01*
X84918171Y-111936920D01*
X84932601Y-112009506D01*
X84932600Y-115312414D01*
X84918171Y-115384909D01*
X84932600Y-115457495D01*
X84932600Y-115457543D01*
X84947310Y-115531493D01*
X84975304Y-115672321D01*
X84975330Y-115672360D01*
X84975339Y-115672406D01*
X85058051Y-115796194D01*
X85096992Y-115854488D01*
X85097023Y-115854519D01*
X85138142Y-115916058D01*
X85199605Y-115957127D01*
X85737032Y-116494685D01*
X85469161Y-116895582D01*
X85353908Y-117475000D01*
X85469161Y-118054418D01*
X85797375Y-118545625D01*
X86095761Y-118745000D01*
X85797375Y-118944375D01*
X85469161Y-119435582D01*
X85353908Y-120015000D01*
X85469161Y-120594418D01*
X85797375Y-121085625D01*
X86095761Y-121285000D01*
X85797375Y-121484375D01*
X85469161Y-121975582D01*
X85353908Y-122555000D01*
X85469161Y-123134418D01*
X85797375Y-123625625D01*
X86288582Y-123953839D01*
X86721744Y-124040000D01*
X87014256Y-124040000D01*
X87447418Y-123953839D01*
X87938625Y-123625625D01*
X87950816Y-123607381D01*
X87959843Y-123652765D01*
X88100191Y-123862809D01*
X88310235Y-124003157D01*
X88558000Y-124052440D01*
X90258000Y-124052440D01*
X90505765Y-124003157D01*
X90715809Y-123862809D01*
X90856157Y-123652765D01*
X90905440Y-123405000D01*
X90905440Y-122891413D01*
X93919501Y-125905135D01*
X93919500Y-129941460D01*
X93905071Y-130014000D01*
X93919500Y-130086540D01*
X93919500Y-130086543D01*
X93962239Y-130301406D01*
X94125042Y-130545058D01*
X94186542Y-130586151D01*
X94692337Y-131091947D01*
X94406260Y-131520091D01*
X94294887Y-132080000D01*
X94406260Y-132639909D01*
X94723423Y-133114577D01*
X95198091Y-133431740D01*
X95616667Y-133515000D01*
X95899333Y-133515000D01*
X96317909Y-133431740D01*
X96792577Y-133114577D01*
X97109740Y-132639909D01*
X97221113Y-132080000D01*
X97109740Y-131520091D01*
X96792577Y-131045423D01*
X96481034Y-130837257D01*
X96471463Y-130789139D01*
X96792577Y-130574577D01*
X97109740Y-130099909D01*
X97221113Y-129540000D01*
X97109740Y-128980091D01*
X96792577Y-128505423D01*
X96440242Y-128270000D01*
X96792577Y-128034577D01*
X97109740Y-127559909D01*
X97221113Y-127000000D01*
X97109740Y-126440091D01*
X96792577Y-125965423D01*
X96440242Y-125730000D01*
X96792577Y-125494577D01*
X97109740Y-125019909D01*
X97221113Y-124460000D01*
X97115013Y-123926600D01*
X103240891Y-123926600D01*
X109323851Y-130009561D01*
X109364942Y-130071058D01*
X109426439Y-130112149D01*
X109426441Y-130112151D01*
X109576130Y-130212170D01*
X109608593Y-130233861D01*
X109755257Y-130263034D01*
X109963423Y-130574577D01*
X110315758Y-130810000D01*
X109963423Y-131045423D01*
X109646260Y-131520091D01*
X109534887Y-132080000D01*
X109646260Y-132639909D01*
X109963423Y-133114577D01*
X110438091Y-133431740D01*
X110856667Y-133515000D01*
X111139333Y-133515000D01*
X111557909Y-133431740D01*
X112032577Y-133114577D01*
X112349740Y-132639909D01*
X112461113Y-132080000D01*
X112349740Y-131520091D01*
X112032577Y-131045423D01*
X111680242Y-130810000D01*
X112032577Y-130574577D01*
X112349740Y-130099909D01*
X112461113Y-129540000D01*
X112349740Y-128980091D01*
X112032577Y-128505423D01*
X111680242Y-128270000D01*
X112032577Y-128034577D01*
X112349740Y-127559909D01*
X112461113Y-127000000D01*
X112349740Y-126440091D01*
X112032577Y-125965423D01*
X111680242Y-125730000D01*
X112032577Y-125494577D01*
X112349740Y-125019909D01*
X112461113Y-124460000D01*
X112349740Y-123900091D01*
X112032577Y-123425423D01*
X111680242Y-123190000D01*
X112032577Y-122954577D01*
X112349740Y-122479909D01*
X112461113Y-121920000D01*
X112349740Y-121360091D01*
X112032577Y-120885423D01*
X111680242Y-120650000D01*
X112032577Y-120414577D01*
X112095905Y-120319800D01*
X112210441Y-120319800D01*
X112303000Y-120338211D01*
X112395559Y-120319800D01*
X112669691Y-120265272D01*
X112980557Y-120057557D01*
X113188272Y-119746691D01*
X113261211Y-119380000D01*
X113242800Y-119287441D01*
X113242800Y-118464277D01*
X113432077Y-118275000D01*
X113823439Y-118275000D01*
X114350862Y-118056534D01*
X114559651Y-117847745D01*
X115209861Y-117847745D01*
X115283995Y-118093864D01*
X115821223Y-118286965D01*
X116391454Y-118259778D01*
X116792005Y-118093864D01*
X116866139Y-117847745D01*
X116038000Y-117019605D01*
X115209861Y-117847745D01*
X114559651Y-117847745D01*
X114754534Y-117652862D01*
X114781525Y-117587701D01*
X114784136Y-117594005D01*
X115030255Y-117668139D01*
X115858395Y-116840000D01*
X116217605Y-116840000D01*
X117045745Y-117668139D01*
X117255336Y-117605008D01*
X117154887Y-118110000D01*
X117266260Y-118669909D01*
X117583423Y-119144577D01*
X117935758Y-119380000D01*
X117583423Y-119615423D01*
X117266260Y-120090091D01*
X117154887Y-120650000D01*
X117266260Y-121209909D01*
X117583423Y-121684577D01*
X117935758Y-121920000D01*
X117583423Y-122155423D01*
X117266260Y-122630091D01*
X117154887Y-123190000D01*
X117266260Y-123749909D01*
X117583423Y-124224577D01*
X117935758Y-124460000D01*
X117583423Y-124695423D01*
X117266260Y-125170091D01*
X117154887Y-125730000D01*
X117266260Y-126289909D01*
X117583423Y-126764577D01*
X117935758Y-127000000D01*
X117583423Y-127235423D01*
X117266260Y-127710091D01*
X117154887Y-128270000D01*
X117266260Y-128829909D01*
X117583423Y-129304577D01*
X117935758Y-129540000D01*
X117583423Y-129775423D01*
X117266260Y-130250091D01*
X117154887Y-130810000D01*
X117266260Y-131369909D01*
X117583423Y-131844577D01*
X117967108Y-132100947D01*
X117762866Y-132197611D01*
X117386959Y-132612577D01*
X117226096Y-133000961D01*
X117348085Y-133223000D01*
X118491000Y-133223000D01*
X118491000Y-133203000D01*
X118745000Y-133203000D01*
X118745000Y-133223000D01*
X119887915Y-133223000D01*
X120009904Y-133000961D01*
X119849041Y-132612577D01*
X119473134Y-132197611D01*
X119268892Y-132100947D01*
X119652577Y-131844577D01*
X119969740Y-131369909D01*
X120081113Y-130810000D01*
X119969740Y-130250091D01*
X119652577Y-129775423D01*
X119300242Y-129540000D01*
X119652577Y-129304577D01*
X119969740Y-128829909D01*
X120081113Y-128270000D01*
X119969740Y-127710091D01*
X119652577Y-127235423D01*
X119300242Y-127000000D01*
X119652577Y-126764577D01*
X119969740Y-126289909D01*
X120081113Y-125730000D01*
X119969740Y-125170091D01*
X119652577Y-124695423D01*
X119300242Y-124460000D01*
X119652577Y-124224577D01*
X119969740Y-123749909D01*
X120081113Y-123190000D01*
X119969740Y-122630091D01*
X119652577Y-122155423D01*
X119300242Y-121920000D01*
X119652577Y-121684577D01*
X119969740Y-121209909D01*
X120081113Y-120650000D01*
X119969740Y-120090091D01*
X119652577Y-119615423D01*
X119300242Y-119380000D01*
X119652577Y-119144577D01*
X119969740Y-118669909D01*
X120081113Y-118110000D01*
X119969740Y-117550091D01*
X119652577Y-117075423D01*
X119531894Y-116994785D01*
X119665765Y-116968157D01*
X119875809Y-116827809D01*
X120016157Y-116617765D01*
X120065440Y-116370000D01*
X120065440Y-115570000D01*
X124774887Y-115570000D01*
X124886260Y-116129909D01*
X125203423Y-116604577D01*
X125555758Y-116840000D01*
X125203423Y-117075423D01*
X124886260Y-117550091D01*
X124774887Y-118110000D01*
X124886260Y-118669909D01*
X125203423Y-119144577D01*
X125555758Y-119380000D01*
X125203423Y-119615423D01*
X124886260Y-120090091D01*
X124774887Y-120650000D01*
X124886260Y-121209909D01*
X125203423Y-121684577D01*
X125555758Y-121920000D01*
X125203423Y-122155423D01*
X124886260Y-122630091D01*
X124774887Y-123190000D01*
X124886260Y-123749909D01*
X125203423Y-124224577D01*
X125587108Y-124480947D01*
X125382866Y-124577611D01*
X125006959Y-124992577D01*
X124846096Y-125380961D01*
X124968085Y-125603000D01*
X126111000Y-125603000D01*
X126111000Y-125583000D01*
X126365000Y-125583000D01*
X126365000Y-125603000D01*
X126385000Y-125603000D01*
X126385000Y-125857000D01*
X126365000Y-125857000D01*
X126365000Y-125877000D01*
X126111000Y-125877000D01*
X126111000Y-125857000D01*
X124968085Y-125857000D01*
X124846096Y-126079039D01*
X125006959Y-126467423D01*
X125382866Y-126882389D01*
X125529936Y-126951995D01*
X125514966Y-127027257D01*
X125203423Y-127235423D01*
X124886260Y-127710091D01*
X124774887Y-128270000D01*
X124886260Y-128829909D01*
X125203423Y-129304577D01*
X125524537Y-129519139D01*
X125514966Y-129567257D01*
X125203423Y-129775423D01*
X124886260Y-130250091D01*
X124774887Y-130810000D01*
X124886260Y-131369909D01*
X125203423Y-131844577D01*
X125555758Y-132080000D01*
X125203423Y-132315423D01*
X124886260Y-132790091D01*
X124774887Y-133350000D01*
X124886260Y-133909909D01*
X125203423Y-134384577D01*
X125678091Y-134701740D01*
X126096667Y-134785000D01*
X126379333Y-134785000D01*
X126797909Y-134701740D01*
X127272577Y-134384577D01*
X127589740Y-133909909D01*
X127701113Y-133350000D01*
X127589740Y-132790091D01*
X127272577Y-132315423D01*
X126920242Y-132080000D01*
X127272577Y-131844577D01*
X127589740Y-131369909D01*
X127701113Y-130810000D01*
X127589740Y-130250091D01*
X127303703Y-129822006D01*
X131395709Y-125730000D01*
X138109887Y-125730000D01*
X138221260Y-126289909D01*
X138538423Y-126764577D01*
X139013091Y-127081740D01*
X139431667Y-127165000D01*
X139714333Y-127165000D01*
X140132909Y-127081740D01*
X140607577Y-126764577D01*
X140924740Y-126289909D01*
X141036113Y-125730000D01*
X140924740Y-125170091D01*
X140607577Y-124695423D01*
X140132909Y-124378260D01*
X139714333Y-124295000D01*
X139431667Y-124295000D01*
X139013091Y-124378260D01*
X138538423Y-124695423D01*
X138221260Y-125170091D01*
X138109887Y-125730000D01*
X131395709Y-125730000D01*
X133224510Y-123901200D01*
X133490776Y-123901200D01*
X133985561Y-123696254D01*
X134364254Y-123317561D01*
X134569200Y-122822776D01*
X134569200Y-122287224D01*
X134364254Y-121792439D01*
X133985561Y-121413746D01*
X133490776Y-121208800D01*
X133376910Y-121208800D01*
X133692561Y-120893149D01*
X133754058Y-120852058D01*
X133795149Y-120790561D01*
X133795151Y-120790559D01*
X133916861Y-120608407D01*
X133943764Y-120473155D01*
X133959600Y-120393544D01*
X133959600Y-120393541D01*
X133974029Y-120321001D01*
X133959600Y-120248460D01*
X133959600Y-118627007D01*
X133985561Y-118616254D01*
X134364254Y-118237561D01*
X134371351Y-118220428D01*
X142443201Y-126292279D01*
X142443200Y-130118204D01*
X142302570Y-130212170D01*
X142113000Y-130495881D01*
X141923430Y-130212170D01*
X141427724Y-129880950D01*
X140843000Y-129764641D01*
X140258275Y-129880950D01*
X139762570Y-130212170D01*
X139573000Y-130495881D01*
X139383430Y-130212170D01*
X138887724Y-129880950D01*
X138303000Y-129764641D01*
X137718275Y-129880950D01*
X137222570Y-130212170D01*
X137033000Y-130495881D01*
X136843430Y-130212170D01*
X136347724Y-129880950D01*
X135763000Y-129764641D01*
X135178275Y-129880950D01*
X134682570Y-130212170D01*
X134493000Y-130495881D01*
X134303430Y-130212170D01*
X133807724Y-129880950D01*
X133223000Y-129764641D01*
X132638275Y-129880950D01*
X132142570Y-130212170D01*
X131811350Y-130707876D01*
X131724400Y-131145003D01*
X131724400Y-131744998D01*
X131811350Y-132182125D01*
X132142570Y-132677830D01*
X132638276Y-133009050D01*
X133223000Y-133125359D01*
X133807725Y-133009050D01*
X134303430Y-132677830D01*
X134493000Y-132394119D01*
X134682570Y-132677830D01*
X135178276Y-133009050D01*
X135763000Y-133125359D01*
X136347725Y-133009050D01*
X136843430Y-132677830D01*
X137033000Y-132394119D01*
X137222570Y-132677830D01*
X137718276Y-133009050D01*
X138303000Y-133125359D01*
X138887725Y-133009050D01*
X139383430Y-132677830D01*
X139573000Y-132394119D01*
X139762570Y-132677830D01*
X140258276Y-133009050D01*
X140843000Y-133125359D01*
X141427725Y-133009050D01*
X141923430Y-132677830D01*
X142113000Y-132394119D01*
X142302570Y-132677830D01*
X142798276Y-133009050D01*
X143383000Y-133125359D01*
X143967725Y-133009050D01*
X144463430Y-132677830D01*
X144656909Y-132388267D01*
X145020964Y-132795732D01*
X145548209Y-133049709D01*
X145563974Y-133052358D01*
X145796000Y-132931217D01*
X145796000Y-131572000D01*
X146050000Y-131572000D01*
X146050000Y-132931217D01*
X146282026Y-133052358D01*
X146297791Y-133049709D01*
X146825036Y-132795732D01*
X147193000Y-132383892D01*
X147560964Y-132795732D01*
X148088209Y-133049709D01*
X148103974Y-133052358D01*
X148336000Y-132931217D01*
X148336000Y-131572000D01*
X146050000Y-131572000D01*
X145796000Y-131572000D01*
X145776000Y-131572000D01*
X145776000Y-131318000D01*
X145796000Y-131318000D01*
X145796000Y-129958783D01*
X146050000Y-129958783D01*
X146050000Y-131318000D01*
X148336000Y-131318000D01*
X148336000Y-129958783D01*
X148103974Y-129837642D01*
X148088209Y-129840291D01*
X147560964Y-130094268D01*
X147193000Y-130506108D01*
X146825036Y-130094268D01*
X146297791Y-129840291D01*
X146282026Y-129837642D01*
X146050000Y-129958783D01*
X145796000Y-129958783D01*
X145563974Y-129837642D01*
X145548209Y-129840291D01*
X145020964Y-130094268D01*
X144656910Y-130501732D01*
X144463430Y-130212170D01*
X144322800Y-130118204D01*
X144322800Y-125995554D01*
X144341210Y-125903000D01*
X144322800Y-125810446D01*
X144322800Y-125810441D01*
X144268272Y-125536309D01*
X144221909Y-125466923D01*
X144112988Y-125303910D01*
X144112986Y-125303908D01*
X144060557Y-125225443D01*
X143982092Y-125173014D01*
X133779988Y-114970911D01*
X133727557Y-114892443D01*
X133416691Y-114684728D01*
X133142559Y-114630200D01*
X133142554Y-114630200D01*
X133050000Y-114611790D01*
X132957446Y-114630200D01*
X127335905Y-114630200D01*
X127272577Y-114535423D01*
X126797909Y-114218260D01*
X126379333Y-114135000D01*
X126096667Y-114135000D01*
X125678091Y-114218260D01*
X125203423Y-114535423D01*
X124886260Y-115010091D01*
X124774887Y-115570000D01*
X120065440Y-115570000D01*
X120065440Y-114770000D01*
X120016157Y-114522235D01*
X119875809Y-114312191D01*
X119665765Y-114171843D01*
X119418000Y-114122560D01*
X117818000Y-114122560D01*
X117570235Y-114171843D01*
X117360191Y-114312191D01*
X117219843Y-114522235D01*
X117170560Y-114770000D01*
X117170560Y-116049457D01*
X117045745Y-116011861D01*
X116217605Y-116840000D01*
X115858395Y-116840000D01*
X115030255Y-116011861D01*
X114784136Y-116085995D01*
X114781710Y-116092746D01*
X114754534Y-116027138D01*
X114559651Y-115832255D01*
X115209861Y-115832255D01*
X116038000Y-116660395D01*
X116866139Y-115832255D01*
X116792005Y-115586136D01*
X116254777Y-115393035D01*
X115684546Y-115420222D01*
X115283995Y-115586136D01*
X115209861Y-115832255D01*
X114559651Y-115832255D01*
X114350862Y-115623466D01*
X113823439Y-115405000D01*
X113252561Y-115405000D01*
X112725138Y-115623466D01*
X112321466Y-116027138D01*
X112267606Y-116157168D01*
X112032577Y-115805423D01*
X111680242Y-115570000D01*
X112032577Y-115334577D01*
X112349740Y-114859909D01*
X112461113Y-114300000D01*
X112349740Y-113740091D01*
X112124333Y-113402745D01*
X121004861Y-113402745D01*
X121078995Y-113648864D01*
X121616223Y-113841965D01*
X122186454Y-113814778D01*
X122587005Y-113648864D01*
X122661139Y-113402745D01*
X121833000Y-112574605D01*
X121004861Y-113402745D01*
X112124333Y-113402745D01*
X112063703Y-113312006D01*
X113197486Y-112178223D01*
X120386035Y-112178223D01*
X120413222Y-112748454D01*
X120579136Y-113149005D01*
X120825255Y-113223139D01*
X121653395Y-112395000D01*
X120825255Y-111566861D01*
X120579136Y-111640995D01*
X120386035Y-112178223D01*
X113197486Y-112178223D01*
X115171670Y-110204039D01*
X117226096Y-110204039D01*
X117386959Y-110592423D01*
X117762866Y-111007389D01*
X118268959Y-111246914D01*
X118491000Y-111125629D01*
X118491000Y-109982000D01*
X118745000Y-109982000D01*
X118745000Y-111125629D01*
X118967041Y-111246914D01*
X119473134Y-111007389D01*
X119849041Y-110592423D01*
X120009904Y-110204039D01*
X119887915Y-109982000D01*
X118745000Y-109982000D01*
X118491000Y-109982000D01*
X117348085Y-109982000D01*
X117226096Y-110204039D01*
X115171670Y-110204039D01*
X117360204Y-108015505D01*
X117583423Y-108349577D01*
X117967108Y-108605947D01*
X117762866Y-108702611D01*
X117386959Y-109117577D01*
X117226096Y-109505961D01*
X117348085Y-109728000D01*
X118491000Y-109728000D01*
X118491000Y-109708000D01*
X118745000Y-109708000D01*
X118745000Y-109728000D01*
X119887915Y-109728000D01*
X120009904Y-109505961D01*
X119935681Y-109326758D01*
X121579385Y-110970462D01*
X121479546Y-110975222D01*
X121078995Y-111141136D01*
X121004861Y-111387255D01*
X121833000Y-112215395D01*
X121847143Y-112201253D01*
X122026748Y-112380858D01*
X122012605Y-112395000D01*
X122840745Y-113223139D01*
X123086864Y-113149005D01*
X123089290Y-113142254D01*
X123116466Y-113207862D01*
X123520138Y-113611534D01*
X124047561Y-113830000D01*
X124618439Y-113830000D01*
X125145862Y-113611534D01*
X125549534Y-113207862D01*
X125768000Y-112680439D01*
X125768000Y-112109561D01*
X125549534Y-111582138D01*
X125145862Y-111178466D01*
X124618439Y-110960000D01*
X124227077Y-110960000D01*
X120959800Y-107692723D01*
X120959800Y-105164277D01*
X124541093Y-101582985D01*
X124619557Y-101530557D01*
X124671986Y-101452092D01*
X124671988Y-101452090D01*
X124827271Y-101219692D01*
X124827272Y-101219691D01*
X124881800Y-100945559D01*
X124881800Y-100945554D01*
X124900210Y-100853000D01*
X124881800Y-100760446D01*
X124881800Y-100232487D01*
X124886260Y-100254909D01*
X125203423Y-100729577D01*
X125555758Y-100965000D01*
X125203423Y-101200423D01*
X124886260Y-101675091D01*
X124774887Y-102235000D01*
X124886260Y-102794909D01*
X125203423Y-103269577D01*
X125555758Y-103505000D01*
X125203423Y-103740423D01*
X124886260Y-104215091D01*
X124774887Y-104775000D01*
X124886260Y-105334909D01*
X125203423Y-105809577D01*
X125555758Y-106045000D01*
X125203423Y-106280423D01*
X124886260Y-106755091D01*
X124774887Y-107315000D01*
X124886260Y-107874909D01*
X125203423Y-108349577D01*
X125555758Y-108585000D01*
X125203423Y-108820423D01*
X124886260Y-109295091D01*
X124774887Y-109855000D01*
X124886260Y-110414909D01*
X125203423Y-110889577D01*
X125678091Y-111206740D01*
X126096667Y-111290000D01*
X126379333Y-111290000D01*
X126797909Y-111206740D01*
X127272577Y-110889577D01*
X127471679Y-110591600D01*
X130079363Y-110591600D01*
X130151803Y-110606029D01*
X130224442Y-110591600D01*
X130224544Y-110591600D01*
X130298283Y-110576932D01*
X130439224Y-110548936D01*
X130439306Y-110548881D01*
X130439407Y-110548861D01*
X130562426Y-110466662D01*
X130621408Y-110427274D01*
X130621476Y-110427206D01*
X130683058Y-110386058D01*
X130724097Y-110324639D01*
X132093084Y-108956370D01*
X132142570Y-109030430D01*
X132426281Y-109220000D01*
X132142570Y-109409570D01*
X131811350Y-109905275D01*
X131695041Y-110490000D01*
X131811350Y-111074725D01*
X132142570Y-111570430D01*
X132638275Y-111901650D01*
X133075402Y-111988600D01*
X133370598Y-111988600D01*
X133807725Y-111901650D01*
X134303430Y-111570430D01*
X134493000Y-111286719D01*
X134682570Y-111570430D01*
X135178275Y-111901650D01*
X135615402Y-111988600D01*
X135910598Y-111988600D01*
X136347725Y-111901650D01*
X136843430Y-111570430D01*
X137174650Y-111074725D01*
X137290959Y-110490000D01*
X137174650Y-109905275D01*
X136843430Y-109409570D01*
X136559719Y-109220000D01*
X136843430Y-109030430D01*
X137174650Y-108534725D01*
X137290959Y-107950000D01*
X137174650Y-107365275D01*
X136843430Y-106869570D01*
X136559719Y-106680000D01*
X136843430Y-106490430D01*
X137174650Y-105994725D01*
X137290959Y-105410000D01*
X137174650Y-104825275D01*
X136843430Y-104329570D01*
X136559719Y-104140000D01*
X136843430Y-103950430D01*
X137174650Y-103454725D01*
X137290959Y-102870000D01*
X137174650Y-102285275D01*
X136843430Y-101789570D01*
X136559719Y-101600000D01*
X136843430Y-101410430D01*
X137174650Y-100914725D01*
X137290959Y-100330000D01*
X137174650Y-99745275D01*
X136843430Y-99249570D01*
X136559719Y-99060000D01*
X136843430Y-98870430D01*
X137174650Y-98374725D01*
X137290959Y-97790000D01*
X137174650Y-97205275D01*
X136843430Y-96709570D01*
X136559719Y-96520000D01*
X136843430Y-96330430D01*
X137174650Y-95834725D01*
X137290959Y-95250000D01*
X137174650Y-94665275D01*
X136843430Y-94169570D01*
X136559719Y-93980000D01*
X136843430Y-93790430D01*
X137094485Y-93414700D01*
X137969401Y-94289692D01*
X137969400Y-112868485D01*
X137954971Y-112941052D01*
X137982011Y-113076942D01*
X138012139Y-113228406D01*
X138012154Y-113228428D01*
X138012159Y-113228454D01*
X138092389Y-113348509D01*
X138174942Y-113472058D01*
X138236464Y-113513166D01*
X138984100Y-114260698D01*
X138760138Y-114353466D01*
X138356466Y-114757138D01*
X138138000Y-115284561D01*
X138138000Y-115855439D01*
X138356466Y-116382862D01*
X138760138Y-116786534D01*
X139287561Y-117005000D01*
X139858439Y-117005000D01*
X140385862Y-116786534D01*
X140789534Y-116382862D01*
X140882379Y-116158714D01*
X145166401Y-120442140D01*
X145166400Y-121849425D01*
X144938439Y-121755000D01*
X144367561Y-121755000D01*
X143840138Y-121973466D01*
X143436466Y-122377138D01*
X143218000Y-122904561D01*
X143218000Y-123475439D01*
X143436466Y-124002862D01*
X143840138Y-124406534D01*
X144367561Y-124625000D01*
X144938439Y-124625000D01*
X145465862Y-124406534D01*
X145603332Y-124269064D01*
X151121978Y-129788307D01*
X151003000Y-129764641D01*
X150418275Y-129880950D01*
X149922570Y-130212170D01*
X149729091Y-130501733D01*
X149365036Y-130094268D01*
X148837791Y-129840291D01*
X148822026Y-129837642D01*
X148590000Y-129958783D01*
X148590000Y-131318000D01*
X148610000Y-131318000D01*
X148610000Y-131572000D01*
X148590000Y-131572000D01*
X148590000Y-132931217D01*
X148822026Y-133052358D01*
X148837791Y-133049709D01*
X149365036Y-132795732D01*
X149729090Y-132388268D01*
X149922570Y-132677830D01*
X150418276Y-133009050D01*
X151003000Y-133125359D01*
X151587725Y-133009050D01*
X152083430Y-132677830D01*
X152414650Y-132182124D01*
X152501600Y-131744997D01*
X152501600Y-131168079D01*
X154581838Y-133248542D01*
X154622942Y-133310058D01*
X154748694Y-133394083D01*
X154866556Y-133472845D01*
X154866575Y-133472849D01*
X154866593Y-133472861D01*
X155023070Y-133503986D01*
X155153959Y-133530029D01*
X155226519Y-133515600D01*
X166687244Y-133515600D01*
X166759563Y-133530029D01*
X166832324Y-133515600D01*
X166832544Y-133515600D01*
X166904614Y-133501264D01*
X167047001Y-133473028D01*
X167047185Y-133472905D01*
X167047407Y-133472861D01*
X167170418Y-133390667D01*
X167229224Y-133351424D01*
X167229374Y-133351274D01*
X167291058Y-133310058D01*
X167332032Y-133248736D01*
X167823026Y-132758316D01*
X168198276Y-133009050D01*
X168783000Y-133125359D01*
X169367725Y-133009050D01*
X169703785Y-132784501D01*
X172866000Y-132784501D01*
X172866000Y-133845499D01*
X173272026Y-134825734D01*
X174022266Y-135575974D01*
X175002501Y-135982000D01*
X176063499Y-135982000D01*
X177043734Y-135575974D01*
X177793974Y-134825734D01*
X178200000Y-133845499D01*
X178200000Y-132784501D01*
X177793974Y-131804266D01*
X177043734Y-131054026D01*
X176063499Y-130648000D01*
X175002501Y-130648000D01*
X174022266Y-131054026D01*
X173272026Y-131804266D01*
X172866000Y-132784501D01*
X169703785Y-132784501D01*
X169863430Y-132677830D01*
X170194650Y-132182124D01*
X170281600Y-131744997D01*
X170281600Y-131145002D01*
X170194650Y-130707875D01*
X169863430Y-130212170D01*
X169367724Y-129880950D01*
X168783000Y-129764641D01*
X168198275Y-129880950D01*
X167702570Y-130212170D01*
X167513000Y-130495881D01*
X167323430Y-130212170D01*
X166827724Y-129880950D01*
X166243000Y-129764641D01*
X165658275Y-129880950D01*
X165162570Y-130212170D01*
X164973000Y-130495881D01*
X164783430Y-130212170D01*
X164287724Y-129880950D01*
X163703000Y-129764641D01*
X163118275Y-129880950D01*
X162622570Y-130212170D01*
X162433000Y-130495881D01*
X162243430Y-130212170D01*
X161899600Y-129982430D01*
X161899600Y-109630538D01*
X161914029Y-109557999D01*
X161899600Y-109485460D01*
X161899600Y-109485456D01*
X161856861Y-109270593D01*
X161694058Y-109026942D01*
X161632558Y-108985849D01*
X157145098Y-104498389D01*
X157434740Y-104064909D01*
X157546113Y-103505000D01*
X157434740Y-102945091D01*
X157117577Y-102470423D01*
X156806034Y-102262257D01*
X156796463Y-102214139D01*
X157117577Y-101999577D01*
X157434740Y-101524909D01*
X157546113Y-100965000D01*
X157434740Y-100405091D01*
X157117577Y-99930423D01*
X156806011Y-99722242D01*
X156791046Y-99647003D01*
X156938134Y-99577389D01*
X157314041Y-99162423D01*
X157474904Y-98774039D01*
X157352915Y-98552000D01*
X156210000Y-98552000D01*
X156210000Y-98572000D01*
X155956000Y-98572000D01*
X155956000Y-98552000D01*
X155936000Y-98552000D01*
X155936000Y-98298000D01*
X155956000Y-98298000D01*
X155956000Y-98278000D01*
X156210000Y-98278000D01*
X156210000Y-98298000D01*
X157352915Y-98298000D01*
X157474904Y-98075961D01*
X157314041Y-97687577D01*
X156938134Y-97272611D01*
X156733892Y-97175947D01*
X157117577Y-96919577D01*
X157434740Y-96444909D01*
X157546113Y-95885000D01*
X157434740Y-95325091D01*
X157117577Y-94850423D01*
X156765242Y-94615000D01*
X157117577Y-94379577D01*
X157434740Y-93904909D01*
X157546113Y-93345000D01*
X157434740Y-92785091D01*
X157117577Y-92310423D01*
X156996894Y-92229785D01*
X157130765Y-92203157D01*
X157340809Y-92062809D01*
X157481157Y-91852765D01*
X157530440Y-91605000D01*
X157530440Y-90005000D01*
X157481157Y-89757235D01*
X157340809Y-89547191D01*
X157304727Y-89523082D01*
X159033586Y-87794223D01*
X165344035Y-87794223D01*
X165371222Y-88364454D01*
X165537136Y-88765005D01*
X165783255Y-88839139D01*
X166611395Y-88011000D01*
X165783255Y-87182861D01*
X165537136Y-87256995D01*
X165344035Y-87794223D01*
X159033586Y-87794223D01*
X159092558Y-87735251D01*
X159154058Y-87694158D01*
X159316861Y-87450507D01*
X159359600Y-87235644D01*
X159359600Y-87235640D01*
X159374029Y-87163101D01*
X159359600Y-87090562D01*
X159359600Y-84647570D01*
X159703430Y-84417830D01*
X159893000Y-84134119D01*
X160082570Y-84417830D01*
X160578276Y-84749050D01*
X161163000Y-84865359D01*
X161747725Y-84749050D01*
X162243430Y-84417830D01*
X162433000Y-84134119D01*
X162622570Y-84417830D01*
X163118276Y-84749050D01*
X163703000Y-84865359D01*
X164253016Y-84755954D01*
X164253826Y-84757165D01*
X164336943Y-84881558D01*
X164398452Y-84922657D01*
X166175625Y-86699713D01*
X166036995Y-86757136D01*
X165962861Y-87003255D01*
X166791000Y-87831395D01*
X166805143Y-87817253D01*
X166984748Y-87996858D01*
X166970605Y-88011000D01*
X166984748Y-88025143D01*
X166805142Y-88204748D01*
X166791000Y-88190605D01*
X165962861Y-89018745D01*
X166036995Y-89264864D01*
X166574223Y-89457965D01*
X167144454Y-89430778D01*
X167161400Y-89423759D01*
X167161401Y-93985293D01*
X167146971Y-94057876D01*
X167175675Y-94202106D01*
X167204140Y-94345207D01*
X167204161Y-94345239D01*
X167204169Y-94345277D01*
X167286877Y-94469031D01*
X167366943Y-94588858D01*
X167428473Y-94629971D01*
X170248799Y-97449724D01*
X169971260Y-97865091D01*
X169859887Y-98425000D01*
X169971260Y-98984909D01*
X170258098Y-99414192D01*
X169343442Y-100328849D01*
X169281942Y-100369942D01*
X169119139Y-100613594D01*
X169076400Y-100828457D01*
X169076400Y-100828460D01*
X169061971Y-100901000D01*
X169076400Y-100973540D01*
X169076401Y-106128455D01*
X169061971Y-106201000D01*
X169119139Y-106488406D01*
X169240849Y-106670558D01*
X169240852Y-106670561D01*
X169281943Y-106732058D01*
X169343440Y-106773149D01*
X170221248Y-107650958D01*
X169971260Y-108025091D01*
X169859887Y-108585000D01*
X169971260Y-109144909D01*
X170288423Y-109619577D01*
X170640758Y-109855000D01*
X170288423Y-110090423D01*
X169971260Y-110565091D01*
X169859887Y-111125000D01*
X169971260Y-111684909D01*
X170288423Y-112159577D01*
X170609537Y-112374139D01*
X170599966Y-112422257D01*
X170288423Y-112630423D01*
X169971260Y-113105091D01*
X169859887Y-113665000D01*
X169971260Y-114224909D01*
X170288423Y-114699577D01*
X170640758Y-114935000D01*
X170288423Y-115170423D01*
X169971260Y-115645091D01*
X169859887Y-116205000D01*
X169971260Y-116764909D01*
X170288423Y-117239577D01*
X170609537Y-117454139D01*
X170599966Y-117502257D01*
X170288423Y-117710423D01*
X169971260Y-118185091D01*
X169859887Y-118745000D01*
X169971260Y-119304909D01*
X170288423Y-119779577D01*
X170640758Y-120015000D01*
X170288423Y-120250423D01*
X169971260Y-120725091D01*
X169859887Y-121285000D01*
X169971260Y-121844909D01*
X170288423Y-122319577D01*
X170640758Y-122555000D01*
X170288423Y-122790423D01*
X169971260Y-123265091D01*
X169859887Y-123825000D01*
X169971260Y-124384909D01*
X170288423Y-124859577D01*
X170763091Y-125176740D01*
X171181667Y-125260000D01*
X171464333Y-125260000D01*
X171882909Y-125176740D01*
X172357577Y-124859577D01*
X172674740Y-124384909D01*
X172786113Y-123825000D01*
X172674740Y-123265091D01*
X172357577Y-122790423D01*
X172005242Y-122555000D01*
X172357577Y-122319577D01*
X172674740Y-121844909D01*
X172786113Y-121285000D01*
X172674740Y-120725091D01*
X172357577Y-120250423D01*
X172005242Y-120015000D01*
X172357577Y-119779577D01*
X172674740Y-119304909D01*
X172786113Y-118745000D01*
X172674740Y-118185091D01*
X172388703Y-117757006D01*
X177507561Y-112638149D01*
X177569058Y-112597058D01*
X177610149Y-112535561D01*
X177610151Y-112535559D01*
X177731861Y-112353407D01*
X177738017Y-112322457D01*
X177774600Y-112138544D01*
X177774600Y-112138541D01*
X177789029Y-112066001D01*
X177774600Y-111993460D01*
X177774600Y-104916754D01*
X177775125Y-104916650D01*
X178270830Y-104585430D01*
X178602050Y-104089725D01*
X178718359Y-103505000D01*
X178602050Y-102920275D01*
X178270830Y-102424570D01*
X177987119Y-102235000D01*
X178270830Y-102045430D01*
X178602050Y-101549725D01*
X178718359Y-100965000D01*
X178602050Y-100380275D01*
X178270830Y-99884570D01*
X177987119Y-99695000D01*
X178270830Y-99505430D01*
X178602050Y-99009725D01*
X178718359Y-98425000D01*
X178602050Y-97840275D01*
X178270830Y-97344570D01*
X177987119Y-97155000D01*
X178270830Y-96965430D01*
X178602050Y-96469725D01*
X178718359Y-95885000D01*
X178602050Y-95300275D01*
X178270830Y-94804570D01*
X177987119Y-94615000D01*
X178270830Y-94425430D01*
X178602050Y-93929725D01*
X178718359Y-93345000D01*
X178602050Y-92760275D01*
X178271633Y-92265772D01*
X178413698Y-92206927D01*
X178592327Y-92028299D01*
X178689000Y-91794910D01*
X178689000Y-91090750D01*
X178530250Y-90932000D01*
X177165000Y-90932000D01*
X177165000Y-90952000D01*
X176911000Y-90952000D01*
X176911000Y-90932000D01*
X175545750Y-90932000D01*
X175387000Y-91090750D01*
X175387000Y-91794910D01*
X175483673Y-92028299D01*
X175662302Y-92206927D01*
X175804367Y-92265772D01*
X175473950Y-92760275D01*
X175357641Y-93345000D01*
X175473950Y-93929725D01*
X175725117Y-94305622D01*
X173566600Y-96463785D01*
X173566600Y-89815090D01*
X175387000Y-89815090D01*
X175387000Y-90519250D01*
X175545750Y-90678000D01*
X176911000Y-90678000D01*
X176911000Y-89465150D01*
X177165000Y-89465150D01*
X177165000Y-90678000D01*
X178530250Y-90678000D01*
X178689000Y-90519250D01*
X178689000Y-89815090D01*
X178592327Y-89581701D01*
X178413698Y-89403073D01*
X178180309Y-89306400D01*
X177323750Y-89306400D01*
X177165000Y-89465150D01*
X176911000Y-89465150D01*
X176752250Y-89306400D01*
X175895691Y-89306400D01*
X175662302Y-89403073D01*
X175483673Y-89581701D01*
X175387000Y-89815090D01*
X173566600Y-89815090D01*
X173566600Y-88452282D01*
X173689044Y-88747888D01*
X173992712Y-89051556D01*
X174389474Y-89215900D01*
X174818926Y-89215900D01*
X175215688Y-89051556D01*
X175519356Y-88747888D01*
X175683700Y-88351126D01*
X175683700Y-87921674D01*
X175519356Y-87524912D01*
X175215688Y-87221244D01*
X174888200Y-87085594D01*
X174888200Y-86457150D01*
X174967506Y-86490000D01*
X175518494Y-86490000D01*
X176027540Y-86279147D01*
X176417147Y-85889540D01*
X176628000Y-85380494D01*
X176628000Y-84829506D01*
X176417147Y-84320460D01*
X176027540Y-83930853D01*
X175796130Y-83835000D01*
X176027540Y-83739147D01*
X176417147Y-83349540D01*
X176628000Y-82840494D01*
X176628000Y-82289506D01*
X176417147Y-81780460D01*
X176046687Y-81410000D01*
X176119309Y-81410000D01*
X176352698Y-81313327D01*
X176531327Y-81134699D01*
X176628000Y-80901310D01*
X176628000Y-80310750D01*
X176469250Y-80152000D01*
X175370000Y-80152000D01*
X175370000Y-80172000D01*
X175116000Y-80172000D01*
X175116000Y-80152000D01*
X175096000Y-80152000D01*
X175096000Y-79898000D01*
X175116000Y-79898000D01*
X175116000Y-78798750D01*
X175370000Y-78798750D01*
X175370000Y-79898000D01*
X176469250Y-79898000D01*
X176628000Y-79739250D01*
X176628000Y-79148690D01*
X176531327Y-78915301D01*
X176352698Y-78736673D01*
X176119309Y-78640000D01*
X175528750Y-78640000D01*
X175370000Y-78798750D01*
X175116000Y-78798750D01*
X174957250Y-78640000D01*
X174366691Y-78640000D01*
X174133302Y-78736673D01*
X174037700Y-78832274D01*
X174037700Y-71732538D01*
X174052129Y-71659999D01*
X174037700Y-71587460D01*
X174037700Y-71587456D01*
X173994961Y-71372593D01*
X173832158Y-71128942D01*
X173770658Y-71087849D01*
X171686495Y-69003686D01*
X171722577Y-68979577D01*
X172039740Y-68504909D01*
X172151113Y-67945000D01*
X172039740Y-67385091D01*
X171722577Y-66910423D01*
X171489224Y-66754501D01*
X172856000Y-66754501D01*
X172856000Y-67815499D01*
X173262026Y-68795734D01*
X174012266Y-69545974D01*
X174992501Y-69952000D01*
X176053499Y-69952000D01*
X177033734Y-69545974D01*
X177783974Y-68795734D01*
X178190000Y-67815499D01*
X178190000Y-66754501D01*
X177783974Y-65774266D01*
X177033734Y-65024026D01*
X176053499Y-64618000D01*
X174992501Y-64618000D01*
X174012266Y-65024026D01*
X173262026Y-65774266D01*
X172856000Y-66754501D01*
X171489224Y-66754501D01*
X171247909Y-66593260D01*
X170829333Y-66510000D01*
X170546667Y-66510000D01*
X170128091Y-66593260D01*
X169653423Y-66910423D01*
X169336260Y-67385091D01*
X169224887Y-67945000D01*
X169336260Y-68504909D01*
X169653423Y-68979577D01*
X169964989Y-69187759D01*
X169994139Y-69334306D01*
X170115849Y-69516458D01*
X170115852Y-69516461D01*
X170156943Y-69577958D01*
X170218440Y-69619049D01*
X172564501Y-71965110D01*
X172564501Y-74961245D01*
X166606515Y-69003673D01*
X166642577Y-68979577D01*
X166959740Y-68504909D01*
X167071113Y-67945000D01*
X166959740Y-67385091D01*
X166642577Y-66910423D01*
X166167909Y-66593260D01*
X165749333Y-66510000D01*
X165466667Y-66510000D01*
X165048091Y-66593260D01*
X164573423Y-66910423D01*
X164256260Y-67385091D01*
X164144887Y-67945000D01*
X164256260Y-68504909D01*
X164573423Y-68979577D01*
X164884989Y-69187759D01*
X164887426Y-69200007D01*
X164914140Y-69334307D01*
X164914146Y-69334316D01*
X164914149Y-69334330D01*
X164998917Y-69461185D01*
X165076943Y-69577958D01*
X165138453Y-69619058D01*
X172093400Y-76573524D01*
X172093400Y-76901751D01*
X171717215Y-76525337D01*
X171676058Y-76463742D01*
X171552928Y-76381469D01*
X171432617Y-76301027D01*
X171432505Y-76301005D01*
X171432407Y-76300939D01*
X171286060Y-76271829D01*
X171145228Y-76243771D01*
X171072573Y-76258200D01*
X170263552Y-76258200D01*
X170191025Y-76243771D01*
X170118473Y-76258200D01*
X170118456Y-76258200D01*
X170028060Y-76276181D01*
X169903616Y-76300930D01*
X169903607Y-76300936D01*
X169903593Y-76300939D01*
X169784717Y-76380370D01*
X169721460Y-76422634D01*
X169721451Y-76422643D01*
X169659942Y-76463742D01*
X169618856Y-76525231D01*
X166878906Y-79265000D01*
X166477396Y-79265000D01*
X166824534Y-78917862D01*
X167043000Y-78390439D01*
X167043000Y-77819561D01*
X166824534Y-77292138D01*
X166420862Y-76888466D01*
X165893439Y-76670000D01*
X165322561Y-76670000D01*
X164795138Y-76888466D01*
X164391466Y-77292138D01*
X164173000Y-77819561D01*
X164173000Y-78390439D01*
X164391466Y-78917862D01*
X164783846Y-79310242D01*
X164668073Y-79387600D01*
X164605514Y-79429389D01*
X164605479Y-79429424D01*
X164543942Y-79470542D01*
X164502877Y-79532000D01*
X162146724Y-81887553D01*
X161747724Y-81620950D01*
X161163000Y-81504641D01*
X160578275Y-81620950D01*
X160082570Y-81952170D01*
X159893000Y-82235881D01*
X159703430Y-81952170D01*
X159207724Y-81620950D01*
X158623000Y-81504641D01*
X158038275Y-81620950D01*
X157542570Y-81952170D01*
X157353000Y-82235881D01*
X157163430Y-81952170D01*
X156667724Y-81620950D01*
X156083000Y-81504641D01*
X155498275Y-81620950D01*
X155002570Y-81952170D01*
X154813000Y-82235881D01*
X154623430Y-81952170D01*
X154127724Y-81620950D01*
X153543000Y-81504641D01*
X152958275Y-81620950D01*
X152462570Y-81952170D01*
X152273000Y-82235881D01*
X152083430Y-81952170D01*
X151587724Y-81620950D01*
X151003000Y-81504641D01*
X150418275Y-81620950D01*
X149922570Y-81952170D01*
X149812046Y-82117581D01*
X149453600Y-81759295D01*
X149453600Y-77494859D01*
X149839402Y-77571600D01*
X150134598Y-77571600D01*
X150571725Y-77484650D01*
X151067430Y-77153430D01*
X151257000Y-76869719D01*
X151446570Y-77153430D01*
X151942275Y-77484650D01*
X152379402Y-77571600D01*
X152674598Y-77571600D01*
X153111725Y-77484650D01*
X153607430Y-77153430D01*
X153797000Y-76869719D01*
X153986570Y-77153430D01*
X154482275Y-77484650D01*
X154919402Y-77571600D01*
X155214598Y-77571600D01*
X155651725Y-77484650D01*
X156147430Y-77153430D01*
X156478650Y-76657725D01*
X156594959Y-76073000D01*
X156478650Y-75488275D01*
X156147430Y-74992570D01*
X155863719Y-74803000D01*
X156147430Y-74613430D01*
X156478650Y-74117725D01*
X156594959Y-73533000D01*
X156478650Y-72948275D01*
X156147430Y-72452570D01*
X155651725Y-72121350D01*
X155214598Y-72034400D01*
X154919402Y-72034400D01*
X154482275Y-72121350D01*
X153986570Y-72452570D01*
X153797000Y-72736281D01*
X153607430Y-72452570D01*
X153111725Y-72121350D01*
X152674598Y-72034400D01*
X152379402Y-72034400D01*
X151942275Y-72121350D01*
X151446570Y-72452570D01*
X151257000Y-72736281D01*
X151067430Y-72452570D01*
X150571725Y-72121350D01*
X150134598Y-72034400D01*
X149839402Y-72034400D01*
X149402275Y-72121350D01*
X148906570Y-72452570D01*
X148717000Y-72736281D01*
X148527430Y-72452570D01*
X148031725Y-72121350D01*
X147594598Y-72034400D01*
X147299402Y-72034400D01*
X146862275Y-72121350D01*
X146561265Y-72322479D01*
X145616217Y-71472277D01*
X145586058Y-71427142D01*
X145508274Y-71375168D01*
X145493718Y-71362073D01*
X145448076Y-71334945D01*
X145342407Y-71264339D01*
X145322682Y-71260415D01*
X145305399Y-71250143D01*
X145179649Y-71231964D01*
X145127544Y-71221600D01*
X145107954Y-71221600D01*
X145015378Y-71208217D01*
X144962775Y-71221600D01*
X137590500Y-71221600D01*
X137590500Y-70969574D01*
X137426156Y-70572812D01*
X137122488Y-70269144D01*
X136725726Y-70104800D01*
X136296274Y-70104800D01*
X135899512Y-70269144D01*
X135720956Y-70447700D01*
X110076559Y-70447700D01*
X110004038Y-70433271D01*
X109931478Y-70447700D01*
X109931456Y-70447700D01*
X109854618Y-70462984D01*
X109716629Y-70490424D01*
X109716612Y-70490435D01*
X109716593Y-70490439D01*
X109594797Y-70571821D01*
X109534471Y-70612125D01*
X109534457Y-70612139D01*
X109472942Y-70653242D01*
X109431860Y-70714725D01*
X107746187Y-72400224D01*
X107581947Y-72250312D01*
X107166026Y-72078042D01*
X106934000Y-72199183D01*
X106934000Y-73406000D01*
X106954000Y-73406000D01*
X106954000Y-73660000D01*
X106934000Y-73660000D01*
X106934000Y-73680000D01*
X106680000Y-73680000D01*
X106680000Y-73660000D01*
X105472531Y-73660000D01*
X105352032Y-73892027D01*
X105600179Y-74421490D01*
X105787950Y-74592881D01*
X105695635Y-74611243D01*
X105485591Y-74751591D01*
X105345243Y-74961635D01*
X105295960Y-75209400D01*
X105295960Y-76936600D01*
X105345243Y-77184365D01*
X105485591Y-77394409D01*
X105695635Y-77534757D01*
X105943400Y-77584040D01*
X107340401Y-77584040D01*
X107340400Y-88011688D01*
X97000869Y-98351135D01*
X96989041Y-98322577D01*
X96613134Y-97907611D01*
X96408892Y-97810947D01*
X96792577Y-97554577D01*
X97109740Y-97079909D01*
X97221113Y-96520000D01*
X97109740Y-95960091D01*
X96792577Y-95485423D01*
X96440242Y-95250000D01*
X96792577Y-95014577D01*
X97109740Y-94539909D01*
X97221113Y-93980000D01*
X97109740Y-93420091D01*
X96792577Y-92945423D01*
X96440242Y-92710000D01*
X96792577Y-92474577D01*
X97109740Y-91999909D01*
X97221113Y-91440000D01*
X97109740Y-90880091D01*
X96792577Y-90405423D01*
X96440242Y-90170000D01*
X96792577Y-89934577D01*
X97109740Y-89459909D01*
X97221113Y-88900000D01*
X97109740Y-88340091D01*
X96792577Y-87865423D01*
X96440242Y-87630000D01*
X96792577Y-87394577D01*
X97109740Y-86919909D01*
X97221113Y-86360000D01*
X97109740Y-85800091D01*
X96792577Y-85325423D01*
X96440242Y-85090000D01*
X96792577Y-84854577D01*
X97109740Y-84379909D01*
X97221113Y-83820000D01*
X97109740Y-83260091D01*
X96792577Y-82785423D01*
X96494600Y-82586321D01*
X96494600Y-81847940D01*
X96509029Y-81775399D01*
X96494600Y-81702859D01*
X96494600Y-81702856D01*
X96451861Y-81487993D01*
X96360037Y-81350569D01*
X96330151Y-81305841D01*
X96330149Y-81305839D01*
X96289058Y-81244342D01*
X96227561Y-81203251D01*
X90568451Y-75544142D01*
X90527358Y-75482642D01*
X90283707Y-75319839D01*
X90068844Y-75277100D01*
X90068840Y-75277100D01*
X89996300Y-75262671D01*
X89923760Y-75277100D01*
X86828038Y-75277100D01*
X86755499Y-75262671D01*
X86682960Y-75277100D01*
X86682956Y-75277100D01*
X86468093Y-75319839D01*
X86224442Y-75482642D01*
X86183349Y-75544142D01*
X85168242Y-76559249D01*
X85106742Y-76600342D01*
X84943939Y-76843994D01*
X84901200Y-77058857D01*
X84901200Y-77058860D01*
X84886771Y-77131400D01*
X81915000Y-77131400D01*
X81915000Y-73173973D01*
X105352032Y-73173973D01*
X105472531Y-73406000D01*
X106680000Y-73406000D01*
X106680000Y-72199183D01*
X106447974Y-72078042D01*
X106032053Y-72250312D01*
X105600179Y-72644510D01*
X105352032Y-73173973D01*
X81915000Y-73173973D01*
X81915000Y-70256500D01*
X93675560Y-70256500D01*
X93675560Y-71856500D01*
X93724843Y-72104265D01*
X93865191Y-72314309D01*
X94075235Y-72454657D01*
X94323000Y-72503940D01*
X95923000Y-72503940D01*
X96170765Y-72454657D01*
X96380809Y-72314309D01*
X96521157Y-72104265D01*
X96529117Y-72064245D01*
X96794861Y-72064245D01*
X96868995Y-72310364D01*
X97406223Y-72503465D01*
X97976454Y-72476278D01*
X98377005Y-72310364D01*
X98451139Y-72064245D01*
X97623000Y-71236105D01*
X96794861Y-72064245D01*
X96529117Y-72064245D01*
X96567693Y-71870313D01*
X96615255Y-71884639D01*
X97443395Y-71056500D01*
X97802605Y-71056500D01*
X98630745Y-71884639D01*
X98876864Y-71810505D01*
X99069965Y-71273277D01*
X99042778Y-70703046D01*
X98876864Y-70302495D01*
X98630745Y-70228361D01*
X97802605Y-71056500D01*
X97443395Y-71056500D01*
X96615255Y-70228361D01*
X96567693Y-70242687D01*
X96529118Y-70048755D01*
X96794861Y-70048755D01*
X97623000Y-70876895D01*
X98451139Y-70048755D01*
X98377005Y-69802636D01*
X97839777Y-69609535D01*
X97269546Y-69636722D01*
X96868995Y-69802636D01*
X96794861Y-70048755D01*
X96529118Y-70048755D01*
X96521157Y-70008735D01*
X96380809Y-69798691D01*
X96170765Y-69658343D01*
X95923000Y-69609060D01*
X94323000Y-69609060D01*
X94075235Y-69658343D01*
X93865191Y-69798691D01*
X93724843Y-70008735D01*
X93675560Y-70256500D01*
X81915000Y-70256500D01*
X81915000Y-66754501D01*
X83856000Y-66754501D01*
X83856000Y-67815499D01*
X84262026Y-68795734D01*
X85012266Y-69545974D01*
X85992501Y-69952000D01*
X87053499Y-69952000D01*
X88033734Y-69545974D01*
X88783974Y-68795734D01*
X89190000Y-67815499D01*
X89190000Y-66754501D01*
X88783974Y-65774266D01*
X88033734Y-65024026D01*
X87053499Y-64618000D01*
X85992501Y-64618000D01*
X85012266Y-65024026D01*
X84262026Y-65774266D01*
X83856000Y-66754501D01*
X81915000Y-66754501D01*
X81915000Y-63575000D01*
X180086000Y-63575000D01*
X180086000Y-136906000D01*
X180086000Y-136906000D01*
G37*
X180086000Y-136906000D02*
X81915000Y-136906000D01*
X81915000Y-132754501D01*
X83846000Y-132754501D01*
X83846000Y-133815499D01*
X84252026Y-134795734D01*
X85002266Y-135545974D01*
X85982501Y-135952000D01*
X87043499Y-135952000D01*
X88023734Y-135545974D01*
X88773974Y-134795734D01*
X89180000Y-133815499D01*
X89180000Y-133699039D01*
X117226096Y-133699039D01*
X117386959Y-134087423D01*
X117762866Y-134502389D01*
X118268959Y-134741914D01*
X118491000Y-134620629D01*
X118491000Y-133477000D01*
X118745000Y-133477000D01*
X118745000Y-134620629D01*
X118967041Y-134741914D01*
X119473134Y-134502389D01*
X119849041Y-134087423D01*
X120009904Y-133699039D01*
X119887915Y-133477000D01*
X118745000Y-133477000D01*
X118491000Y-133477000D01*
X117348085Y-133477000D01*
X117226096Y-133699039D01*
X89180000Y-133699039D01*
X89180000Y-132754501D01*
X88773974Y-131774266D01*
X88023734Y-131024026D01*
X87043499Y-130618000D01*
X85982501Y-130618000D01*
X85002266Y-131024026D01*
X84252026Y-131774266D01*
X83846000Y-132754501D01*
X81915000Y-132754501D01*
X81915000Y-106958110D01*
X85426524Y-106958110D01*
X85547845Y-107188000D01*
X86741000Y-107188000D01*
X86741000Y-105994181D01*
X86511108Y-105873514D01*
X85986642Y-106119817D01*
X85596355Y-106548076D01*
X85426524Y-106958110D01*
X81915000Y-106958110D01*
X81915000Y-77131400D01*
X84886771Y-77131400D01*
X84901200Y-77203940D01*
X84901201Y-88174455D01*
X84886771Y-88247000D01*
X84943939Y-88534406D01*
X85065649Y-88716558D01*
X85065652Y-88716561D01*
X85106743Y-88778058D01*
X85168240Y-88819149D01*
X85670425Y-89321335D01*
X85405661Y-89717582D01*
X85290408Y-90297000D01*
X85405661Y-90876418D01*
X85733875Y-91367625D01*
X86032261Y-91567000D01*
X85733875Y-91766375D01*
X85405661Y-92257582D01*
X85290408Y-92837000D01*
X85405661Y-93416418D01*
X85733875Y-93907625D01*
X86225082Y-94235839D01*
X86658244Y-94322000D01*
X86950756Y-94322000D01*
X87383918Y-94235839D01*
X87455001Y-94188343D01*
X87455000Y-105981579D01*
X87224892Y-105873514D01*
X86995000Y-105994181D01*
X86995000Y-107188000D01*
X87015000Y-107188000D01*
X87015000Y-107442000D01*
X86995000Y-107442000D01*
X86995000Y-107462000D01*
X86741000Y-107462000D01*
X86741000Y-107442000D01*
X85547845Y-107442000D01*
X85426524Y-107671890D01*
X85596355Y-108081924D01*
X85986642Y-108510183D01*
X86116478Y-108571157D01*
X85797375Y-108784375D01*
X85469161Y-109275582D01*
X85353908Y-109855000D01*
X85469161Y-110434418D01*
X85733935Y-110830681D01*
X85199673Y-111364829D01*
X85138143Y-111405942D01*
X85058520Y-111525105D01*
X84975370Y-111649520D01*
X84975362Y-111649560D01*
X84975340Y-111649593D01*
X84947228Y-111790919D01*
X84918171Y-111936920D01*
X84932601Y-112009506D01*
X84932600Y-115312414D01*
X84918171Y-115384909D01*
X84932600Y-115457495D01*
X84932600Y-115457543D01*
X84947310Y-115531493D01*
X84975304Y-115672321D01*
X84975330Y-115672360D01*
X84975339Y-115672406D01*
X85058051Y-115796194D01*
X85096992Y-115854488D01*
X85097023Y-115854519D01*
X85138142Y-115916058D01*
X85199605Y-115957127D01*
X85737032Y-116494685D01*
X85469161Y-116895582D01*
X85353908Y-117475000D01*
X85469161Y-118054418D01*
X85797375Y-118545625D01*
X86095761Y-118745000D01*
X85797375Y-118944375D01*
X85469161Y-119435582D01*
X85353908Y-120015000D01*
X85469161Y-120594418D01*
X85797375Y-121085625D01*
X86095761Y-121285000D01*
X85797375Y-121484375D01*
X85469161Y-121975582D01*
X85353908Y-122555000D01*
X85469161Y-123134418D01*
X85797375Y-123625625D01*
X86288582Y-123953839D01*
X86721744Y-124040000D01*
X87014256Y-124040000D01*
X87447418Y-123953839D01*
X87938625Y-123625625D01*
X87950816Y-123607381D01*
X87959843Y-123652765D01*
X88100191Y-123862809D01*
X88310235Y-124003157D01*
X88558000Y-124052440D01*
X90258000Y-124052440D01*
X90505765Y-124003157D01*
X90715809Y-123862809D01*
X90856157Y-123652765D01*
X90905440Y-123405000D01*
X90905440Y-122891413D01*
X93919501Y-125905135D01*
X93919500Y-129941460D01*
X93905071Y-130014000D01*
X93919500Y-130086540D01*
X93919500Y-130086543D01*
X93962239Y-130301406D01*
X94125042Y-130545058D01*
X94186542Y-130586151D01*
X94692337Y-131091947D01*
X94406260Y-131520091D01*
X94294887Y-132080000D01*
X94406260Y-132639909D01*
X94723423Y-133114577D01*
X95198091Y-133431740D01*
X95616667Y-133515000D01*
X95899333Y-133515000D01*
X96317909Y-133431740D01*
X96792577Y-133114577D01*
X97109740Y-132639909D01*
X97221113Y-132080000D01*
X97109740Y-131520091D01*
X96792577Y-131045423D01*
X96481034Y-130837257D01*
X96471463Y-130789139D01*
X96792577Y-130574577D01*
X97109740Y-130099909D01*
X97221113Y-129540000D01*
X97109740Y-128980091D01*
X96792577Y-128505423D01*
X96440242Y-128270000D01*
X96792577Y-128034577D01*
X97109740Y-127559909D01*
X97221113Y-127000000D01*
X97109740Y-126440091D01*
X96792577Y-125965423D01*
X96440242Y-125730000D01*
X96792577Y-125494577D01*
X97109740Y-125019909D01*
X97221113Y-124460000D01*
X97115013Y-123926600D01*
X103240891Y-123926600D01*
X109323851Y-130009561D01*
X109364942Y-130071058D01*
X109426439Y-130112149D01*
X109426441Y-130112151D01*
X109576130Y-130212170D01*
X109608593Y-130233861D01*
X109755257Y-130263034D01*
X109963423Y-130574577D01*
X110315758Y-130810000D01*
X109963423Y-131045423D01*
X109646260Y-131520091D01*
X109534887Y-132080000D01*
X109646260Y-132639909D01*
X109963423Y-133114577D01*
X110438091Y-133431740D01*
X110856667Y-133515000D01*
X111139333Y-133515000D01*
X111557909Y-133431740D01*
X112032577Y-133114577D01*
X112349740Y-132639909D01*
X112461113Y-132080000D01*
X112349740Y-131520091D01*
X112032577Y-131045423D01*
X111680242Y-130810000D01*
X112032577Y-130574577D01*
X112349740Y-130099909D01*
X112461113Y-129540000D01*
X112349740Y-128980091D01*
X112032577Y-128505423D01*
X111680242Y-128270000D01*
X112032577Y-128034577D01*
X112349740Y-127559909D01*
X112461113Y-127000000D01*
X112349740Y-126440091D01*
X112032577Y-125965423D01*
X111680242Y-125730000D01*
X112032577Y-125494577D01*
X112349740Y-125019909D01*
X112461113Y-124460000D01*
X112349740Y-123900091D01*
X112032577Y-123425423D01*
X111680242Y-123190000D01*
X112032577Y-122954577D01*
X112349740Y-122479909D01*
X112461113Y-121920000D01*
X112349740Y-121360091D01*
X112032577Y-120885423D01*
X111680242Y-120650000D01*
X112032577Y-120414577D01*
X112095905Y-120319800D01*
X112210441Y-120319800D01*
X112303000Y-120338211D01*
X112395559Y-120319800D01*
X112669691Y-120265272D01*
X112980557Y-120057557D01*
X113188272Y-119746691D01*
X113261211Y-119380000D01*
X113242800Y-119287441D01*
X113242800Y-118464277D01*
X113432077Y-118275000D01*
X113823439Y-118275000D01*
X114350862Y-118056534D01*
X114559651Y-117847745D01*
X115209861Y-117847745D01*
X115283995Y-118093864D01*
X115821223Y-118286965D01*
X116391454Y-118259778D01*
X116792005Y-118093864D01*
X116866139Y-117847745D01*
X116038000Y-117019605D01*
X115209861Y-117847745D01*
X114559651Y-117847745D01*
X114754534Y-117652862D01*
X114781525Y-117587701D01*
X114784136Y-117594005D01*
X115030255Y-117668139D01*
X115858395Y-116840000D01*
X116217605Y-116840000D01*
X117045745Y-117668139D01*
X117255336Y-117605008D01*
X117154887Y-118110000D01*
X117266260Y-118669909D01*
X117583423Y-119144577D01*
X117935758Y-119380000D01*
X117583423Y-119615423D01*
X117266260Y-120090091D01*
X117154887Y-120650000D01*
X117266260Y-121209909D01*
X117583423Y-121684577D01*
X117935758Y-121920000D01*
X117583423Y-122155423D01*
X117266260Y-122630091D01*
X117154887Y-123190000D01*
X117266260Y-123749909D01*
X117583423Y-124224577D01*
X117935758Y-124460000D01*
X117583423Y-124695423D01*
X117266260Y-125170091D01*
X117154887Y-125730000D01*
X117266260Y-126289909D01*
X117583423Y-126764577D01*
X117935758Y-127000000D01*
X117583423Y-127235423D01*
X117266260Y-127710091D01*
X117154887Y-128270000D01*
X117266260Y-128829909D01*
X117583423Y-129304577D01*
X117935758Y-129540000D01*
X117583423Y-129775423D01*
X117266260Y-130250091D01*
X117154887Y-130810000D01*
X117266260Y-131369909D01*
X117583423Y-131844577D01*
X117967108Y-132100947D01*
X117762866Y-132197611D01*
X117386959Y-132612577D01*
X117226096Y-133000961D01*
X117348085Y-133223000D01*
X118491000Y-133223000D01*
X118491000Y-133203000D01*
X118745000Y-133203000D01*
X118745000Y-133223000D01*
X119887915Y-133223000D01*
X120009904Y-133000961D01*
X119849041Y-132612577D01*
X119473134Y-132197611D01*
X119268892Y-132100947D01*
X119652577Y-131844577D01*
X119969740Y-131369909D01*
X120081113Y-130810000D01*
X119969740Y-130250091D01*
X119652577Y-129775423D01*
X119300242Y-129540000D01*
X119652577Y-129304577D01*
X119969740Y-128829909D01*
X120081113Y-128270000D01*
X119969740Y-127710091D01*
X119652577Y-127235423D01*
X119300242Y-127000000D01*
X119652577Y-126764577D01*
X119969740Y-126289909D01*
X120081113Y-125730000D01*
X119969740Y-125170091D01*
X119652577Y-124695423D01*
X119300242Y-124460000D01*
X119652577Y-124224577D01*
X119969740Y-123749909D01*
X120081113Y-123190000D01*
X119969740Y-122630091D01*
X119652577Y-122155423D01*
X119300242Y-121920000D01*
X119652577Y-121684577D01*
X119969740Y-121209909D01*
X120081113Y-120650000D01*
X119969740Y-120090091D01*
X119652577Y-119615423D01*
X119300242Y-119380000D01*
X119652577Y-119144577D01*
X119969740Y-118669909D01*
X120081113Y-118110000D01*
X119969740Y-117550091D01*
X119652577Y-117075423D01*
X119531894Y-116994785D01*
X119665765Y-116968157D01*
X119875809Y-116827809D01*
X120016157Y-116617765D01*
X120065440Y-116370000D01*
X120065440Y-115570000D01*
X124774887Y-115570000D01*
X124886260Y-116129909D01*
X125203423Y-116604577D01*
X125555758Y-116840000D01*
X125203423Y-117075423D01*
X124886260Y-117550091D01*
X124774887Y-118110000D01*
X124886260Y-118669909D01*
X125203423Y-119144577D01*
X125555758Y-119380000D01*
X125203423Y-119615423D01*
X124886260Y-120090091D01*
X124774887Y-120650000D01*
X124886260Y-121209909D01*
X125203423Y-121684577D01*
X125555758Y-121920000D01*
X125203423Y-122155423D01*
X124886260Y-122630091D01*
X124774887Y-123190000D01*
X124886260Y-123749909D01*
X125203423Y-124224577D01*
X125587108Y-124480947D01*
X125382866Y-124577611D01*
X125006959Y-124992577D01*
X124846096Y-125380961D01*
X124968085Y-125603000D01*
X126111000Y-125603000D01*
X126111000Y-125583000D01*
X126365000Y-125583000D01*
X126365000Y-125603000D01*
X126385000Y-125603000D01*
X126385000Y-125857000D01*
X126365000Y-125857000D01*
X126365000Y-125877000D01*
X126111000Y-125877000D01*
X126111000Y-125857000D01*
X124968085Y-125857000D01*
X124846096Y-126079039D01*
X125006959Y-126467423D01*
X125382866Y-126882389D01*
X125529936Y-126951995D01*
X125514966Y-127027257D01*
X125203423Y-127235423D01*
X124886260Y-127710091D01*
X124774887Y-128270000D01*
X124886260Y-128829909D01*
X125203423Y-129304577D01*
X125524537Y-129519139D01*
X125514966Y-129567257D01*
X125203423Y-129775423D01*
X124886260Y-130250091D01*
X124774887Y-130810000D01*
X124886260Y-131369909D01*
X125203423Y-131844577D01*
X125555758Y-132080000D01*
X125203423Y-132315423D01*
X124886260Y-132790091D01*
X124774887Y-133350000D01*
X124886260Y-133909909D01*
X125203423Y-134384577D01*
X125678091Y-134701740D01*
X126096667Y-134785000D01*
X126379333Y-134785000D01*
X126797909Y-134701740D01*
X127272577Y-134384577D01*
X127589740Y-133909909D01*
X127701113Y-133350000D01*
X127589740Y-132790091D01*
X127272577Y-132315423D01*
X126920242Y-132080000D01*
X127272577Y-131844577D01*
X127589740Y-131369909D01*
X127701113Y-130810000D01*
X127589740Y-130250091D01*
X127303703Y-129822006D01*
X131395709Y-125730000D01*
X138109887Y-125730000D01*
X138221260Y-126289909D01*
X138538423Y-126764577D01*
X139013091Y-127081740D01*
X139431667Y-127165000D01*
X139714333Y-127165000D01*
X140132909Y-127081740D01*
X140607577Y-126764577D01*
X140924740Y-126289909D01*
X141036113Y-125730000D01*
X140924740Y-125170091D01*
X140607577Y-124695423D01*
X140132909Y-124378260D01*
X139714333Y-124295000D01*
X139431667Y-124295000D01*
X139013091Y-124378260D01*
X138538423Y-124695423D01*
X138221260Y-125170091D01*
X138109887Y-125730000D01*
X131395709Y-125730000D01*
X133224510Y-123901200D01*
X133490776Y-123901200D01*
X133985561Y-123696254D01*
X134364254Y-123317561D01*
X134569200Y-122822776D01*
X134569200Y-122287224D01*
X134364254Y-121792439D01*
X133985561Y-121413746D01*
X133490776Y-121208800D01*
X133376910Y-121208800D01*
X133692561Y-120893149D01*
X133754058Y-120852058D01*
X133795149Y-120790561D01*
X133795151Y-120790559D01*
X133916861Y-120608407D01*
X133943764Y-120473155D01*
X133959600Y-120393544D01*
X133959600Y-120393541D01*
X133974029Y-120321001D01*
X133959600Y-120248460D01*
X133959600Y-118627007D01*
X133985561Y-118616254D01*
X134364254Y-118237561D01*
X134371351Y-118220428D01*
X142443201Y-126292279D01*
X142443200Y-130118204D01*
X142302570Y-130212170D01*
X142113000Y-130495881D01*
X141923430Y-130212170D01*
X141427724Y-129880950D01*
X140843000Y-129764641D01*
X140258275Y-129880950D01*
X139762570Y-130212170D01*
X139573000Y-130495881D01*
X139383430Y-130212170D01*
X138887724Y-129880950D01*
X138303000Y-129764641D01*
X137718275Y-129880950D01*
X137222570Y-130212170D01*
X137033000Y-130495881D01*
X136843430Y-130212170D01*
X136347724Y-129880950D01*
X135763000Y-129764641D01*
X135178275Y-129880950D01*
X134682570Y-130212170D01*
X134493000Y-130495881D01*
X134303430Y-130212170D01*
X133807724Y-129880950D01*
X133223000Y-129764641D01*
X132638275Y-129880950D01*
X132142570Y-130212170D01*
X131811350Y-130707876D01*
X131724400Y-131145003D01*
X131724400Y-131744998D01*
X131811350Y-132182125D01*
X132142570Y-132677830D01*
X132638276Y-133009050D01*
X133223000Y-133125359D01*
X133807725Y-133009050D01*
X134303430Y-132677830D01*
X134493000Y-132394119D01*
X134682570Y-132677830D01*
X135178276Y-133009050D01*
X135763000Y-133125359D01*
X136347725Y-133009050D01*
X136843430Y-132677830D01*
X137033000Y-132394119D01*
X137222570Y-132677830D01*
X137718276Y-133009050D01*
X138303000Y-133125359D01*
X138887725Y-133009050D01*
X139383430Y-132677830D01*
X139573000Y-132394119D01*
X139762570Y-132677830D01*
X140258276Y-133009050D01*
X140843000Y-133125359D01*
X141427725Y-133009050D01*
X141923430Y-132677830D01*
X142113000Y-132394119D01*
X142302570Y-132677830D01*
X142798276Y-133009050D01*
X143383000Y-133125359D01*
X143967725Y-133009050D01*
X144463430Y-132677830D01*
X144656909Y-132388267D01*
X145020964Y-132795732D01*
X145548209Y-133049709D01*
X145563974Y-133052358D01*
X145796000Y-132931217D01*
X145796000Y-131572000D01*
X146050000Y-131572000D01*
X146050000Y-132931217D01*
X146282026Y-133052358D01*
X146297791Y-133049709D01*
X146825036Y-132795732D01*
X147193000Y-132383892D01*
X147560964Y-132795732D01*
X148088209Y-133049709D01*
X148103974Y-133052358D01*
X148336000Y-132931217D01*
X148336000Y-131572000D01*
X146050000Y-131572000D01*
X145796000Y-131572000D01*
X145776000Y-131572000D01*
X145776000Y-131318000D01*
X145796000Y-131318000D01*
X145796000Y-129958783D01*
X146050000Y-129958783D01*
X146050000Y-131318000D01*
X148336000Y-131318000D01*
X148336000Y-129958783D01*
X148103974Y-129837642D01*
X148088209Y-129840291D01*
X147560964Y-130094268D01*
X147193000Y-130506108D01*
X146825036Y-130094268D01*
X146297791Y-129840291D01*
X146282026Y-129837642D01*
X146050000Y-129958783D01*
X145796000Y-129958783D01*
X145563974Y-129837642D01*
X145548209Y-129840291D01*
X145020964Y-130094268D01*
X144656910Y-130501732D01*
X144463430Y-130212170D01*
X144322800Y-130118204D01*
X144322800Y-125995554D01*
X144341210Y-125903000D01*
X144322800Y-125810446D01*
X144322800Y-125810441D01*
X144268272Y-125536309D01*
X144221909Y-125466923D01*
X144112988Y-125303910D01*
X144112986Y-125303908D01*
X144060557Y-125225443D01*
X143982092Y-125173014D01*
X133779988Y-114970911D01*
X133727557Y-114892443D01*
X133416691Y-114684728D01*
X133142559Y-114630200D01*
X133142554Y-114630200D01*
X133050000Y-114611790D01*
X132957446Y-114630200D01*
X127335905Y-114630200D01*
X127272577Y-114535423D01*
X126797909Y-114218260D01*
X126379333Y-114135000D01*
X126096667Y-114135000D01*
X125678091Y-114218260D01*
X125203423Y-114535423D01*
X124886260Y-115010091D01*
X124774887Y-115570000D01*
X120065440Y-115570000D01*
X120065440Y-114770000D01*
X120016157Y-114522235D01*
X119875809Y-114312191D01*
X119665765Y-114171843D01*
X119418000Y-114122560D01*
X117818000Y-114122560D01*
X117570235Y-114171843D01*
X117360191Y-114312191D01*
X117219843Y-114522235D01*
X117170560Y-114770000D01*
X117170560Y-116049457D01*
X117045745Y-116011861D01*
X116217605Y-116840000D01*
X115858395Y-116840000D01*
X115030255Y-116011861D01*
X114784136Y-116085995D01*
X114781710Y-116092746D01*
X114754534Y-116027138D01*
X114559651Y-115832255D01*
X115209861Y-115832255D01*
X116038000Y-116660395D01*
X116866139Y-115832255D01*
X116792005Y-115586136D01*
X116254777Y-115393035D01*
X115684546Y-115420222D01*
X115283995Y-115586136D01*
X115209861Y-115832255D01*
X114559651Y-115832255D01*
X114350862Y-115623466D01*
X113823439Y-115405000D01*
X113252561Y-115405000D01*
X112725138Y-115623466D01*
X112321466Y-116027138D01*
X112267606Y-116157168D01*
X112032577Y-115805423D01*
X111680242Y-115570000D01*
X112032577Y-115334577D01*
X112349740Y-114859909D01*
X112461113Y-114300000D01*
X112349740Y-113740091D01*
X112124333Y-113402745D01*
X121004861Y-113402745D01*
X121078995Y-113648864D01*
X121616223Y-113841965D01*
X122186454Y-113814778D01*
X122587005Y-113648864D01*
X122661139Y-113402745D01*
X121833000Y-112574605D01*
X121004861Y-113402745D01*
X112124333Y-113402745D01*
X112063703Y-113312006D01*
X113197486Y-112178223D01*
X120386035Y-112178223D01*
X120413222Y-112748454D01*
X120579136Y-113149005D01*
X120825255Y-113223139D01*
X121653395Y-112395000D01*
X120825255Y-111566861D01*
X120579136Y-111640995D01*
X120386035Y-112178223D01*
X113197486Y-112178223D01*
X115171670Y-110204039D01*
X117226096Y-110204039D01*
X117386959Y-110592423D01*
X117762866Y-111007389D01*
X118268959Y-111246914D01*
X118491000Y-111125629D01*
X118491000Y-109982000D01*
X118745000Y-109982000D01*
X118745000Y-111125629D01*
X118967041Y-111246914D01*
X119473134Y-111007389D01*
X119849041Y-110592423D01*
X120009904Y-110204039D01*
X119887915Y-109982000D01*
X118745000Y-109982000D01*
X118491000Y-109982000D01*
X117348085Y-109982000D01*
X117226096Y-110204039D01*
X115171670Y-110204039D01*
X117360204Y-108015505D01*
X117583423Y-108349577D01*
X117967108Y-108605947D01*
X117762866Y-108702611D01*
X117386959Y-109117577D01*
X117226096Y-109505961D01*
X117348085Y-109728000D01*
X118491000Y-109728000D01*
X118491000Y-109708000D01*
X118745000Y-109708000D01*
X118745000Y-109728000D01*
X119887915Y-109728000D01*
X120009904Y-109505961D01*
X119935681Y-109326758D01*
X121579385Y-110970462D01*
X121479546Y-110975222D01*
X121078995Y-111141136D01*
X121004861Y-111387255D01*
X121833000Y-112215395D01*
X121847143Y-112201253D01*
X122026748Y-112380858D01*
X122012605Y-112395000D01*
X122840745Y-113223139D01*
X123086864Y-113149005D01*
X123089290Y-113142254D01*
X123116466Y-113207862D01*
X123520138Y-113611534D01*
X124047561Y-113830000D01*
X124618439Y-113830000D01*
X125145862Y-113611534D01*
X125549534Y-113207862D01*
X125768000Y-112680439D01*
X125768000Y-112109561D01*
X125549534Y-111582138D01*
X125145862Y-111178466D01*
X124618439Y-110960000D01*
X124227077Y-110960000D01*
X120959800Y-107692723D01*
X120959800Y-105164277D01*
X124541093Y-101582985D01*
X124619557Y-101530557D01*
X124671986Y-101452092D01*
X124671988Y-101452090D01*
X124827271Y-101219692D01*
X124827272Y-101219691D01*
X124881800Y-100945559D01*
X124881800Y-100945554D01*
X124900210Y-100853000D01*
X124881800Y-100760446D01*
X124881800Y-100232487D01*
X124886260Y-100254909D01*
X125203423Y-100729577D01*
X125555758Y-100965000D01*
X125203423Y-101200423D01*
X124886260Y-101675091D01*
X124774887Y-102235000D01*
X124886260Y-102794909D01*
X125203423Y-103269577D01*
X125555758Y-103505000D01*
X125203423Y-103740423D01*
X124886260Y-104215091D01*
X124774887Y-104775000D01*
X124886260Y-105334909D01*
X125203423Y-105809577D01*
X125555758Y-106045000D01*
X125203423Y-106280423D01*
X124886260Y-106755091D01*
X124774887Y-107315000D01*
X124886260Y-107874909D01*
X125203423Y-108349577D01*
X125555758Y-108585000D01*
X125203423Y-108820423D01*
X124886260Y-109295091D01*
X124774887Y-109855000D01*
X124886260Y-110414909D01*
X125203423Y-110889577D01*
X125678091Y-111206740D01*
X126096667Y-111290000D01*
X126379333Y-111290000D01*
X126797909Y-111206740D01*
X127272577Y-110889577D01*
X127471679Y-110591600D01*
X130079363Y-110591600D01*
X130151803Y-110606029D01*
X130224442Y-110591600D01*
X130224544Y-110591600D01*
X130298283Y-110576932D01*
X130439224Y-110548936D01*
X130439306Y-110548881D01*
X130439407Y-110548861D01*
X130562426Y-110466662D01*
X130621408Y-110427274D01*
X130621476Y-110427206D01*
X130683058Y-110386058D01*
X130724097Y-110324639D01*
X132093084Y-108956370D01*
X132142570Y-109030430D01*
X132426281Y-109220000D01*
X132142570Y-109409570D01*
X131811350Y-109905275D01*
X131695041Y-110490000D01*
X131811350Y-111074725D01*
X132142570Y-111570430D01*
X132638275Y-111901650D01*
X133075402Y-111988600D01*
X133370598Y-111988600D01*
X133807725Y-111901650D01*
X134303430Y-111570430D01*
X134493000Y-111286719D01*
X134682570Y-111570430D01*
X135178275Y-111901650D01*
X135615402Y-111988600D01*
X135910598Y-111988600D01*
X136347725Y-111901650D01*
X136843430Y-111570430D01*
X137174650Y-111074725D01*
X137290959Y-110490000D01*
X137174650Y-109905275D01*
X136843430Y-109409570D01*
X136559719Y-109220000D01*
X136843430Y-109030430D01*
X137174650Y-108534725D01*
X137290959Y-107950000D01*
X137174650Y-107365275D01*
X136843430Y-106869570D01*
X136559719Y-106680000D01*
X136843430Y-106490430D01*
X137174650Y-105994725D01*
X137290959Y-105410000D01*
X137174650Y-104825275D01*
X136843430Y-104329570D01*
X136559719Y-104140000D01*
X136843430Y-103950430D01*
X137174650Y-103454725D01*
X137290959Y-102870000D01*
X137174650Y-102285275D01*
X136843430Y-101789570D01*
X136559719Y-101600000D01*
X136843430Y-101410430D01*
X137174650Y-100914725D01*
X137290959Y-100330000D01*
X137174650Y-99745275D01*
X136843430Y-99249570D01*
X136559719Y-99060000D01*
X136843430Y-98870430D01*
X137174650Y-98374725D01*
X137290959Y-97790000D01*
X137174650Y-97205275D01*
X136843430Y-96709570D01*
X136559719Y-96520000D01*
X136843430Y-96330430D01*
X137174650Y-95834725D01*
X137290959Y-95250000D01*
X137174650Y-94665275D01*
X136843430Y-94169570D01*
X136559719Y-93980000D01*
X136843430Y-93790430D01*
X137094485Y-93414700D01*
X137969401Y-94289692D01*
X137969400Y-112868485D01*
X137954971Y-112941052D01*
X137982011Y-113076942D01*
X138012139Y-113228406D01*
X138012154Y-113228428D01*
X138012159Y-113228454D01*
X138092389Y-113348509D01*
X138174942Y-113472058D01*
X138236464Y-113513166D01*
X138984100Y-114260698D01*
X138760138Y-114353466D01*
X138356466Y-114757138D01*
X138138000Y-115284561D01*
X138138000Y-115855439D01*
X138356466Y-116382862D01*
X138760138Y-116786534D01*
X139287561Y-117005000D01*
X139858439Y-117005000D01*
X140385862Y-116786534D01*
X140789534Y-116382862D01*
X140882379Y-116158714D01*
X145166401Y-120442140D01*
X145166400Y-121849425D01*
X144938439Y-121755000D01*
X144367561Y-121755000D01*
X143840138Y-121973466D01*
X143436466Y-122377138D01*
X143218000Y-122904561D01*
X143218000Y-123475439D01*
X143436466Y-124002862D01*
X143840138Y-124406534D01*
X144367561Y-124625000D01*
X144938439Y-124625000D01*
X145465862Y-124406534D01*
X145603332Y-124269064D01*
X151121978Y-129788307D01*
X151003000Y-129764641D01*
X150418275Y-129880950D01*
X149922570Y-130212170D01*
X149729091Y-130501733D01*
X149365036Y-130094268D01*
X148837791Y-129840291D01*
X148822026Y-129837642D01*
X148590000Y-129958783D01*
X148590000Y-131318000D01*
X148610000Y-131318000D01*
X148610000Y-131572000D01*
X148590000Y-131572000D01*
X148590000Y-132931217D01*
X148822026Y-133052358D01*
X148837791Y-133049709D01*
X149365036Y-132795732D01*
X149729090Y-132388268D01*
X149922570Y-132677830D01*
X150418276Y-133009050D01*
X151003000Y-133125359D01*
X151587725Y-133009050D01*
X152083430Y-132677830D01*
X152414650Y-132182124D01*
X152501600Y-131744997D01*
X152501600Y-131168079D01*
X154581838Y-133248542D01*
X154622942Y-133310058D01*
X154748694Y-133394083D01*
X154866556Y-133472845D01*
X154866575Y-133472849D01*
X154866593Y-133472861D01*
X155023070Y-133503986D01*
X155153959Y-133530029D01*
X155226519Y-133515600D01*
X166687244Y-133515600D01*
X166759563Y-133530029D01*
X166832324Y-133515600D01*
X166832544Y-133515600D01*
X166904614Y-133501264D01*
X167047001Y-133473028D01*
X167047185Y-133472905D01*
X167047407Y-133472861D01*
X167170418Y-133390667D01*
X167229224Y-133351424D01*
X167229374Y-133351274D01*
X167291058Y-133310058D01*
X167332032Y-133248736D01*
X167823026Y-132758316D01*
X168198276Y-133009050D01*
X168783000Y-133125359D01*
X169367725Y-133009050D01*
X169703785Y-132784501D01*
X172866000Y-132784501D01*
X172866000Y-133845499D01*
X173272026Y-134825734D01*
X174022266Y-135575974D01*
X175002501Y-135982000D01*
X176063499Y-135982000D01*
X177043734Y-135575974D01*
X177793974Y-134825734D01*
X178200000Y-133845499D01*
X178200000Y-132784501D01*
X177793974Y-131804266D01*
X177043734Y-131054026D01*
X176063499Y-130648000D01*
X175002501Y-130648000D01*
X174022266Y-131054026D01*
X173272026Y-131804266D01*
X172866000Y-132784501D01*
X169703785Y-132784501D01*
X169863430Y-132677830D01*
X170194650Y-132182124D01*
X170281600Y-131744997D01*
X170281600Y-131145002D01*
X170194650Y-130707875D01*
X169863430Y-130212170D01*
X169367724Y-129880950D01*
X168783000Y-129764641D01*
X168198275Y-129880950D01*
X167702570Y-130212170D01*
X167513000Y-130495881D01*
X167323430Y-130212170D01*
X166827724Y-129880950D01*
X166243000Y-129764641D01*
X165658275Y-129880950D01*
X165162570Y-130212170D01*
X164973000Y-130495881D01*
X164783430Y-130212170D01*
X164287724Y-129880950D01*
X163703000Y-129764641D01*
X163118275Y-129880950D01*
X162622570Y-130212170D01*
X162433000Y-130495881D01*
X162243430Y-130212170D01*
X161899600Y-129982430D01*
X161899600Y-109630538D01*
X161914029Y-109557999D01*
X161899600Y-109485460D01*
X161899600Y-109485456D01*
X161856861Y-109270593D01*
X161694058Y-109026942D01*
X161632558Y-108985849D01*
X157145098Y-104498389D01*
X157434740Y-104064909D01*
X157546113Y-103505000D01*
X157434740Y-102945091D01*
X157117577Y-102470423D01*
X156806034Y-102262257D01*
X156796463Y-102214139D01*
X157117577Y-101999577D01*
X157434740Y-101524909D01*
X157546113Y-100965000D01*
X157434740Y-100405091D01*
X157117577Y-99930423D01*
X156806011Y-99722242D01*
X156791046Y-99647003D01*
X156938134Y-99577389D01*
X157314041Y-99162423D01*
X157474904Y-98774039D01*
X157352915Y-98552000D01*
X156210000Y-98552000D01*
X156210000Y-98572000D01*
X155956000Y-98572000D01*
X155956000Y-98552000D01*
X155936000Y-98552000D01*
X155936000Y-98298000D01*
X155956000Y-98298000D01*
X155956000Y-98278000D01*
X156210000Y-98278000D01*
X156210000Y-98298000D01*
X157352915Y-98298000D01*
X157474904Y-98075961D01*
X157314041Y-97687577D01*
X156938134Y-97272611D01*
X156733892Y-97175947D01*
X157117577Y-96919577D01*
X157434740Y-96444909D01*
X157546113Y-95885000D01*
X157434740Y-95325091D01*
X157117577Y-94850423D01*
X156765242Y-94615000D01*
X157117577Y-94379577D01*
X157434740Y-93904909D01*
X157546113Y-93345000D01*
X157434740Y-92785091D01*
X157117577Y-92310423D01*
X156996894Y-92229785D01*
X157130765Y-92203157D01*
X157340809Y-92062809D01*
X157481157Y-91852765D01*
X157530440Y-91605000D01*
X157530440Y-90005000D01*
X157481157Y-89757235D01*
X157340809Y-89547191D01*
X157304727Y-89523082D01*
X159033586Y-87794223D01*
X165344035Y-87794223D01*
X165371222Y-88364454D01*
X165537136Y-88765005D01*
X165783255Y-88839139D01*
X166611395Y-88011000D01*
X165783255Y-87182861D01*
X165537136Y-87256995D01*
X165344035Y-87794223D01*
X159033586Y-87794223D01*
X159092558Y-87735251D01*
X159154058Y-87694158D01*
X159316861Y-87450507D01*
X159359600Y-87235644D01*
X159359600Y-87235640D01*
X159374029Y-87163101D01*
X159359600Y-87090562D01*
X159359600Y-84647570D01*
X159703430Y-84417830D01*
X159893000Y-84134119D01*
X160082570Y-84417830D01*
X160578276Y-84749050D01*
X161163000Y-84865359D01*
X161747725Y-84749050D01*
X162243430Y-84417830D01*
X162433000Y-84134119D01*
X162622570Y-84417830D01*
X163118276Y-84749050D01*
X163703000Y-84865359D01*
X164253016Y-84755954D01*
X164253826Y-84757165D01*
X164336943Y-84881558D01*
X164398452Y-84922657D01*
X166175625Y-86699713D01*
X166036995Y-86757136D01*
X165962861Y-87003255D01*
X166791000Y-87831395D01*
X166805143Y-87817253D01*
X166984748Y-87996858D01*
X166970605Y-88011000D01*
X166984748Y-88025143D01*
X166805142Y-88204748D01*
X166791000Y-88190605D01*
X165962861Y-89018745D01*
X166036995Y-89264864D01*
X166574223Y-89457965D01*
X167144454Y-89430778D01*
X167161400Y-89423759D01*
X167161401Y-93985293D01*
X167146971Y-94057876D01*
X167175675Y-94202106D01*
X167204140Y-94345207D01*
X167204161Y-94345239D01*
X167204169Y-94345277D01*
X167286877Y-94469031D01*
X167366943Y-94588858D01*
X167428473Y-94629971D01*
X170248799Y-97449724D01*
X169971260Y-97865091D01*
X169859887Y-98425000D01*
X169971260Y-98984909D01*
X170258098Y-99414192D01*
X169343442Y-100328849D01*
X169281942Y-100369942D01*
X169119139Y-100613594D01*
X169076400Y-100828457D01*
X169076400Y-100828460D01*
X169061971Y-100901000D01*
X169076400Y-100973540D01*
X169076401Y-106128455D01*
X169061971Y-106201000D01*
X169119139Y-106488406D01*
X169240849Y-106670558D01*
X169240852Y-106670561D01*
X169281943Y-106732058D01*
X169343440Y-106773149D01*
X170221248Y-107650958D01*
X169971260Y-108025091D01*
X169859887Y-108585000D01*
X169971260Y-109144909D01*
X170288423Y-109619577D01*
X170640758Y-109855000D01*
X170288423Y-110090423D01*
X169971260Y-110565091D01*
X169859887Y-111125000D01*
X169971260Y-111684909D01*
X170288423Y-112159577D01*
X170609537Y-112374139D01*
X170599966Y-112422257D01*
X170288423Y-112630423D01*
X169971260Y-113105091D01*
X169859887Y-113665000D01*
X169971260Y-114224909D01*
X170288423Y-114699577D01*
X170640758Y-114935000D01*
X170288423Y-115170423D01*
X169971260Y-115645091D01*
X169859887Y-116205000D01*
X169971260Y-116764909D01*
X170288423Y-117239577D01*
X170609537Y-117454139D01*
X170599966Y-117502257D01*
X170288423Y-117710423D01*
X169971260Y-118185091D01*
X169859887Y-118745000D01*
X169971260Y-119304909D01*
X170288423Y-119779577D01*
X170640758Y-120015000D01*
X170288423Y-120250423D01*
X169971260Y-120725091D01*
X169859887Y-121285000D01*
X169971260Y-121844909D01*
X170288423Y-122319577D01*
X170640758Y-122555000D01*
X170288423Y-122790423D01*
X169971260Y-123265091D01*
X169859887Y-123825000D01*
X169971260Y-124384909D01*
X170288423Y-124859577D01*
X170763091Y-125176740D01*
X171181667Y-125260000D01*
X171464333Y-125260000D01*
X171882909Y-125176740D01*
X172357577Y-124859577D01*
X172674740Y-124384909D01*
X172786113Y-123825000D01*
X172674740Y-123265091D01*
X172357577Y-122790423D01*
X172005242Y-122555000D01*
X172357577Y-122319577D01*
X172674740Y-121844909D01*
X172786113Y-121285000D01*
X172674740Y-120725091D01*
X172357577Y-120250423D01*
X172005242Y-120015000D01*
X172357577Y-119779577D01*
X172674740Y-119304909D01*
X172786113Y-118745000D01*
X172674740Y-118185091D01*
X172388703Y-117757006D01*
X177507561Y-112638149D01*
X177569058Y-112597058D01*
X177610149Y-112535561D01*
X177610151Y-112535559D01*
X177731861Y-112353407D01*
X177738017Y-112322457D01*
X177774600Y-112138544D01*
X177774600Y-112138541D01*
X177789029Y-112066001D01*
X177774600Y-111993460D01*
X177774600Y-104916754D01*
X177775125Y-104916650D01*
X178270830Y-104585430D01*
X178602050Y-104089725D01*
X178718359Y-103505000D01*
X178602050Y-102920275D01*
X178270830Y-102424570D01*
X177987119Y-102235000D01*
X178270830Y-102045430D01*
X178602050Y-101549725D01*
X178718359Y-100965000D01*
X178602050Y-100380275D01*
X178270830Y-99884570D01*
X177987119Y-99695000D01*
X178270830Y-99505430D01*
X178602050Y-99009725D01*
X178718359Y-98425000D01*
X178602050Y-97840275D01*
X178270830Y-97344570D01*
X177987119Y-97155000D01*
X178270830Y-96965430D01*
X178602050Y-96469725D01*
X178718359Y-95885000D01*
X178602050Y-95300275D01*
X178270830Y-94804570D01*
X177987119Y-94615000D01*
X178270830Y-94425430D01*
X178602050Y-93929725D01*
X178718359Y-93345000D01*
X178602050Y-92760275D01*
X178271633Y-92265772D01*
X178413698Y-92206927D01*
X178592327Y-92028299D01*
X178689000Y-91794910D01*
X178689000Y-91090750D01*
X178530250Y-90932000D01*
X177165000Y-90932000D01*
X177165000Y-90952000D01*
X176911000Y-90952000D01*
X176911000Y-90932000D01*
X175545750Y-90932000D01*
X175387000Y-91090750D01*
X175387000Y-91794910D01*
X175483673Y-92028299D01*
X175662302Y-92206927D01*
X175804367Y-92265772D01*
X175473950Y-92760275D01*
X175357641Y-93345000D01*
X175473950Y-93929725D01*
X175725117Y-94305622D01*
X173566600Y-96463785D01*
X173566600Y-89815090D01*
X175387000Y-89815090D01*
X175387000Y-90519250D01*
X175545750Y-90678000D01*
X176911000Y-90678000D01*
X176911000Y-89465150D01*
X177165000Y-89465150D01*
X177165000Y-90678000D01*
X178530250Y-90678000D01*
X178689000Y-90519250D01*
X178689000Y-89815090D01*
X178592327Y-89581701D01*
X178413698Y-89403073D01*
X178180309Y-89306400D01*
X177323750Y-89306400D01*
X177165000Y-89465150D01*
X176911000Y-89465150D01*
X176752250Y-89306400D01*
X175895691Y-89306400D01*
X175662302Y-89403073D01*
X175483673Y-89581701D01*
X175387000Y-89815090D01*
X173566600Y-89815090D01*
X173566600Y-88452282D01*
X173689044Y-88747888D01*
X173992712Y-89051556D01*
X174389474Y-89215900D01*
X174818926Y-89215900D01*
X175215688Y-89051556D01*
X175519356Y-88747888D01*
X175683700Y-88351126D01*
X175683700Y-87921674D01*
X175519356Y-87524912D01*
X175215688Y-87221244D01*
X174888200Y-87085594D01*
X174888200Y-86457150D01*
X174967506Y-86490000D01*
X175518494Y-86490000D01*
X176027540Y-86279147D01*
X176417147Y-85889540D01*
X176628000Y-85380494D01*
X176628000Y-84829506D01*
X176417147Y-84320460D01*
X176027540Y-83930853D01*
X175796130Y-83835000D01*
X176027540Y-83739147D01*
X176417147Y-83349540D01*
X176628000Y-82840494D01*
X176628000Y-82289506D01*
X176417147Y-81780460D01*
X176046687Y-81410000D01*
X176119309Y-81410000D01*
X176352698Y-81313327D01*
X176531327Y-81134699D01*
X176628000Y-80901310D01*
X176628000Y-80310750D01*
X176469250Y-80152000D01*
X175370000Y-80152000D01*
X175370000Y-80172000D01*
X175116000Y-80172000D01*
X175116000Y-80152000D01*
X175096000Y-80152000D01*
X175096000Y-79898000D01*
X175116000Y-79898000D01*
X175116000Y-78798750D01*
X175370000Y-78798750D01*
X175370000Y-79898000D01*
X176469250Y-79898000D01*
X176628000Y-79739250D01*
X176628000Y-79148690D01*
X176531327Y-78915301D01*
X176352698Y-78736673D01*
X176119309Y-78640000D01*
X175528750Y-78640000D01*
X175370000Y-78798750D01*
X175116000Y-78798750D01*
X174957250Y-78640000D01*
X174366691Y-78640000D01*
X174133302Y-78736673D01*
X174037700Y-78832274D01*
X174037700Y-71732538D01*
X174052129Y-71659999D01*
X174037700Y-71587460D01*
X174037700Y-71587456D01*
X173994961Y-71372593D01*
X173832158Y-71128942D01*
X173770658Y-71087849D01*
X171686495Y-69003686D01*
X171722577Y-68979577D01*
X172039740Y-68504909D01*
X172151113Y-67945000D01*
X172039740Y-67385091D01*
X171722577Y-66910423D01*
X171489224Y-66754501D01*
X172856000Y-66754501D01*
X172856000Y-67815499D01*
X173262026Y-68795734D01*
X174012266Y-69545974D01*
X174992501Y-69952000D01*
X176053499Y-69952000D01*
X177033734Y-69545974D01*
X177783974Y-68795734D01*
X178190000Y-67815499D01*
X178190000Y-66754501D01*
X177783974Y-65774266D01*
X177033734Y-65024026D01*
X176053499Y-64618000D01*
X174992501Y-64618000D01*
X174012266Y-65024026D01*
X173262026Y-65774266D01*
X172856000Y-66754501D01*
X171489224Y-66754501D01*
X171247909Y-66593260D01*
X170829333Y-66510000D01*
X170546667Y-66510000D01*
X170128091Y-66593260D01*
X169653423Y-66910423D01*
X169336260Y-67385091D01*
X169224887Y-67945000D01*
X169336260Y-68504909D01*
X169653423Y-68979577D01*
X169964989Y-69187759D01*
X169994139Y-69334306D01*
X170115849Y-69516458D01*
X170115852Y-69516461D01*
X170156943Y-69577958D01*
X170218440Y-69619049D01*
X172564501Y-71965110D01*
X172564501Y-74961245D01*
X166606515Y-69003673D01*
X166642577Y-68979577D01*
X166959740Y-68504909D01*
X167071113Y-67945000D01*
X166959740Y-67385091D01*
X166642577Y-66910423D01*
X166167909Y-66593260D01*
X165749333Y-66510000D01*
X165466667Y-66510000D01*
X165048091Y-66593260D01*
X164573423Y-66910423D01*
X164256260Y-67385091D01*
X164144887Y-67945000D01*
X164256260Y-68504909D01*
X164573423Y-68979577D01*
X164884989Y-69187759D01*
X164887426Y-69200007D01*
X164914140Y-69334307D01*
X164914146Y-69334316D01*
X164914149Y-69334330D01*
X164998917Y-69461185D01*
X165076943Y-69577958D01*
X165138453Y-69619058D01*
X172093400Y-76573524D01*
X172093400Y-76901751D01*
X171717215Y-76525337D01*
X171676058Y-76463742D01*
X171552928Y-76381469D01*
X171432617Y-76301027D01*
X171432505Y-76301005D01*
X171432407Y-76300939D01*
X171286060Y-76271829D01*
X171145228Y-76243771D01*
X171072573Y-76258200D01*
X170263552Y-76258200D01*
X170191025Y-76243771D01*
X170118473Y-76258200D01*
X170118456Y-76258200D01*
X170028060Y-76276181D01*
X169903616Y-76300930D01*
X169903607Y-76300936D01*
X169903593Y-76300939D01*
X169784717Y-76380370D01*
X169721460Y-76422634D01*
X169721451Y-76422643D01*
X169659942Y-76463742D01*
X169618856Y-76525231D01*
X166878906Y-79265000D01*
X166477396Y-79265000D01*
X166824534Y-78917862D01*
X167043000Y-78390439D01*
X167043000Y-77819561D01*
X166824534Y-77292138D01*
X166420862Y-76888466D01*
X165893439Y-76670000D01*
X165322561Y-76670000D01*
X164795138Y-76888466D01*
X164391466Y-77292138D01*
X164173000Y-77819561D01*
X164173000Y-78390439D01*
X164391466Y-78917862D01*
X164783846Y-79310242D01*
X164668073Y-79387600D01*
X164605514Y-79429389D01*
X164605479Y-79429424D01*
X164543942Y-79470542D01*
X164502877Y-79532000D01*
X162146724Y-81887553D01*
X161747724Y-81620950D01*
X161163000Y-81504641D01*
X160578275Y-81620950D01*
X160082570Y-81952170D01*
X159893000Y-82235881D01*
X159703430Y-81952170D01*
X159207724Y-81620950D01*
X158623000Y-81504641D01*
X158038275Y-81620950D01*
X157542570Y-81952170D01*
X157353000Y-82235881D01*
X157163430Y-81952170D01*
X156667724Y-81620950D01*
X156083000Y-81504641D01*
X155498275Y-81620950D01*
X155002570Y-81952170D01*
X154813000Y-82235881D01*
X154623430Y-81952170D01*
X154127724Y-81620950D01*
X153543000Y-81504641D01*
X152958275Y-81620950D01*
X152462570Y-81952170D01*
X152273000Y-82235881D01*
X152083430Y-81952170D01*
X151587724Y-81620950D01*
X151003000Y-81504641D01*
X150418275Y-81620950D01*
X149922570Y-81952170D01*
X149812046Y-82117581D01*
X149453600Y-81759295D01*
X149453600Y-77494859D01*
X149839402Y-77571600D01*
X150134598Y-77571600D01*
X150571725Y-77484650D01*
X151067430Y-77153430D01*
X151257000Y-76869719D01*
X151446570Y-77153430D01*
X151942275Y-77484650D01*
X152379402Y-77571600D01*
X152674598Y-77571600D01*
X153111725Y-77484650D01*
X153607430Y-77153430D01*
X153797000Y-76869719D01*
X153986570Y-77153430D01*
X154482275Y-77484650D01*
X154919402Y-77571600D01*
X155214598Y-77571600D01*
X155651725Y-77484650D01*
X156147430Y-77153430D01*
X156478650Y-76657725D01*
X156594959Y-76073000D01*
X156478650Y-75488275D01*
X156147430Y-74992570D01*
X155863719Y-74803000D01*
X156147430Y-74613430D01*
X156478650Y-74117725D01*
X156594959Y-73533000D01*
X156478650Y-72948275D01*
X156147430Y-72452570D01*
X155651725Y-72121350D01*
X155214598Y-72034400D01*
X154919402Y-72034400D01*
X154482275Y-72121350D01*
X153986570Y-72452570D01*
X153797000Y-72736281D01*
X153607430Y-72452570D01*
X153111725Y-72121350D01*
X152674598Y-72034400D01*
X152379402Y-72034400D01*
X151942275Y-72121350D01*
X151446570Y-72452570D01*
X151257000Y-72736281D01*
X151067430Y-72452570D01*
X150571725Y-72121350D01*
X150134598Y-72034400D01*
X149839402Y-72034400D01*
X149402275Y-72121350D01*
X148906570Y-72452570D01*
X148717000Y-72736281D01*
X148527430Y-72452570D01*
X148031725Y-72121350D01*
X147594598Y-72034400D01*
X147299402Y-72034400D01*
X146862275Y-72121350D01*
X146561265Y-72322479D01*
X145616217Y-71472277D01*
X145586058Y-71427142D01*
X145508274Y-71375168D01*
X145493718Y-71362073D01*
X145448076Y-71334945D01*
X145342407Y-71264339D01*
X145322682Y-71260415D01*
X145305399Y-71250143D01*
X145179649Y-71231964D01*
X145127544Y-71221600D01*
X145107954Y-71221600D01*
X145015378Y-71208217D01*
X144962775Y-71221600D01*
X137590500Y-71221600D01*
X137590500Y-70969574D01*
X137426156Y-70572812D01*
X137122488Y-70269144D01*
X136725726Y-70104800D01*
X136296274Y-70104800D01*
X135899512Y-70269144D01*
X135720956Y-70447700D01*
X110076559Y-70447700D01*
X110004038Y-70433271D01*
X109931478Y-70447700D01*
X109931456Y-70447700D01*
X109854618Y-70462984D01*
X109716629Y-70490424D01*
X109716612Y-70490435D01*
X109716593Y-70490439D01*
X109594797Y-70571821D01*
X109534471Y-70612125D01*
X109534457Y-70612139D01*
X109472942Y-70653242D01*
X109431860Y-70714725D01*
X107746187Y-72400224D01*
X107581947Y-72250312D01*
X107166026Y-72078042D01*
X106934000Y-72199183D01*
X106934000Y-73406000D01*
X106954000Y-73406000D01*
X106954000Y-73660000D01*
X106934000Y-73660000D01*
X106934000Y-73680000D01*
X106680000Y-73680000D01*
X106680000Y-73660000D01*
X105472531Y-73660000D01*
X105352032Y-73892027D01*
X105600179Y-74421490D01*
X105787950Y-74592881D01*
X105695635Y-74611243D01*
X105485591Y-74751591D01*
X105345243Y-74961635D01*
X105295960Y-75209400D01*
X105295960Y-76936600D01*
X105345243Y-77184365D01*
X105485591Y-77394409D01*
X105695635Y-77534757D01*
X105943400Y-77584040D01*
X107340401Y-77584040D01*
X107340400Y-88011688D01*
X97000869Y-98351135D01*
X96989041Y-98322577D01*
X96613134Y-97907611D01*
X96408892Y-97810947D01*
X96792577Y-97554577D01*
X97109740Y-97079909D01*
X97221113Y-96520000D01*
X97109740Y-95960091D01*
X96792577Y-95485423D01*
X96440242Y-95250000D01*
X96792577Y-95014577D01*
X97109740Y-94539909D01*
X97221113Y-93980000D01*
X97109740Y-93420091D01*
X96792577Y-92945423D01*
X96440242Y-92710000D01*
X96792577Y-92474577D01*
X97109740Y-91999909D01*
X97221113Y-91440000D01*
X97109740Y-90880091D01*
X96792577Y-90405423D01*
X96440242Y-90170000D01*
X96792577Y-89934577D01*
X97109740Y-89459909D01*
X97221113Y-88900000D01*
X97109740Y-88340091D01*
X96792577Y-87865423D01*
X96440242Y-87630000D01*
X96792577Y-87394577D01*
X97109740Y-86919909D01*
X97221113Y-86360000D01*
X97109740Y-85800091D01*
X96792577Y-85325423D01*
X96440242Y-85090000D01*
X96792577Y-84854577D01*
X97109740Y-84379909D01*
X97221113Y-83820000D01*
X97109740Y-83260091D01*
X96792577Y-82785423D01*
X96494600Y-82586321D01*
X96494600Y-81847940D01*
X96509029Y-81775399D01*
X96494600Y-81702859D01*
X96494600Y-81702856D01*
X96451861Y-81487993D01*
X96360037Y-81350569D01*
X96330151Y-81305841D01*
X96330149Y-81305839D01*
X96289058Y-81244342D01*
X96227561Y-81203251D01*
X90568451Y-75544142D01*
X90527358Y-75482642D01*
X90283707Y-75319839D01*
X90068844Y-75277100D01*
X90068840Y-75277100D01*
X89996300Y-75262671D01*
X89923760Y-75277100D01*
X86828038Y-75277100D01*
X86755499Y-75262671D01*
X86682960Y-75277100D01*
X86682956Y-75277100D01*
X86468093Y-75319839D01*
X86224442Y-75482642D01*
X86183349Y-75544142D01*
X85168242Y-76559249D01*
X85106742Y-76600342D01*
X84943939Y-76843994D01*
X84901200Y-77058857D01*
X84901200Y-77058860D01*
X84886771Y-77131400D01*
X81915000Y-77131400D01*
X81915000Y-73173973D01*
X105352032Y-73173973D01*
X105472531Y-73406000D01*
X106680000Y-73406000D01*
X106680000Y-72199183D01*
X106447974Y-72078042D01*
X106032053Y-72250312D01*
X105600179Y-72644510D01*
X105352032Y-73173973D01*
X81915000Y-73173973D01*
X81915000Y-70256500D01*
X93675560Y-70256500D01*
X93675560Y-71856500D01*
X93724843Y-72104265D01*
X93865191Y-72314309D01*
X94075235Y-72454657D01*
X94323000Y-72503940D01*
X95923000Y-72503940D01*
X96170765Y-72454657D01*
X96380809Y-72314309D01*
X96521157Y-72104265D01*
X96529117Y-72064245D01*
X96794861Y-72064245D01*
X96868995Y-72310364D01*
X97406223Y-72503465D01*
X97976454Y-72476278D01*
X98377005Y-72310364D01*
X98451139Y-72064245D01*
X97623000Y-71236105D01*
X96794861Y-72064245D01*
X96529117Y-72064245D01*
X96567693Y-71870313D01*
X96615255Y-71884639D01*
X97443395Y-71056500D01*
X97802605Y-71056500D01*
X98630745Y-71884639D01*
X98876864Y-71810505D01*
X99069965Y-71273277D01*
X99042778Y-70703046D01*
X98876864Y-70302495D01*
X98630745Y-70228361D01*
X97802605Y-71056500D01*
X97443395Y-71056500D01*
X96615255Y-70228361D01*
X96567693Y-70242687D01*
X96529118Y-70048755D01*
X96794861Y-70048755D01*
X97623000Y-70876895D01*
X98451139Y-70048755D01*
X98377005Y-69802636D01*
X97839777Y-69609535D01*
X97269546Y-69636722D01*
X96868995Y-69802636D01*
X96794861Y-70048755D01*
X96529118Y-70048755D01*
X96521157Y-70008735D01*
X96380809Y-69798691D01*
X96170765Y-69658343D01*
X95923000Y-69609060D01*
X94323000Y-69609060D01*
X94075235Y-69658343D01*
X93865191Y-69798691D01*
X93724843Y-70008735D01*
X93675560Y-70256500D01*
X81915000Y-70256500D01*
X81915000Y-66754501D01*
X83856000Y-66754501D01*
X83856000Y-67815499D01*
X84262026Y-68795734D01*
X85012266Y-69545974D01*
X85992501Y-69952000D01*
X87053499Y-69952000D01*
X88033734Y-69545974D01*
X88783974Y-68795734D01*
X89190000Y-67815499D01*
X89190000Y-66754501D01*
X88783974Y-65774266D01*
X88033734Y-65024026D01*
X87053499Y-64618000D01*
X85992501Y-64618000D01*
X85012266Y-65024026D01*
X84262026Y-65774266D01*
X83856000Y-66754501D01*
X81915000Y-66754501D01*
X81915000Y-63575000D01*
X180086000Y-63575000D01*
X180086000Y-136906000D01*
G36*
X139762570Y-111570430D02*
X140258275Y-111901650D01*
X140695402Y-111988600D01*
X140990598Y-111988600D01*
X141427725Y-111901650D01*
X141923430Y-111570430D01*
X142113000Y-111286719D01*
X142302570Y-111570430D01*
X142662831Y-111811149D01*
X142689139Y-111943407D01*
X142851942Y-112187058D01*
X143095593Y-112349861D01*
X143310456Y-112392600D01*
X143383000Y-112407030D01*
X143455544Y-112392600D01*
X143878911Y-112392600D01*
X146426352Y-114939804D01*
X146398995Y-114951136D01*
X146324861Y-115197255D01*
X147153000Y-116025395D01*
X147167143Y-116011253D01*
X147346748Y-116190858D01*
X147332605Y-116205000D01*
X148160745Y-117033139D01*
X148406864Y-116959005D01*
X148417143Y-116930409D01*
X154181400Y-122694130D01*
X154181401Y-130764530D01*
X147874769Y-124457217D01*
X147907005Y-124443864D01*
X147981139Y-124197745D01*
X147153000Y-123369605D01*
X147138858Y-123383748D01*
X146959253Y-123204143D01*
X146973395Y-123190000D01*
X147332605Y-123190000D01*
X148160745Y-124018139D01*
X148406864Y-123944005D01*
X148599965Y-123406777D01*
X148572778Y-122836546D01*
X148406864Y-122435995D01*
X148160745Y-122361861D01*
X147332605Y-123190000D01*
X146973395Y-123190000D01*
X146959253Y-123175858D01*
X147138858Y-122996252D01*
X147153000Y-123010395D01*
X147981139Y-122182255D01*
X147907005Y-121936136D01*
X147369777Y-121743035D01*
X146799546Y-121770222D01*
X146639600Y-121836474D01*
X146639600Y-120209514D01*
X146654029Y-120136947D01*
X146626632Y-119999259D01*
X146596861Y-119849593D01*
X146596846Y-119849571D01*
X146596841Y-119849545D01*
X146514361Y-119726123D01*
X146434058Y-119605942D01*
X146372539Y-119564836D01*
X144447435Y-117640000D01*
X144938439Y-117640000D01*
X145465862Y-117421534D01*
X145674651Y-117212745D01*
X146324861Y-117212745D01*
X146398995Y-117458864D01*
X146936223Y-117651965D01*
X147506454Y-117624778D01*
X147907005Y-117458864D01*
X147981139Y-117212745D01*
X147153000Y-116384605D01*
X146324861Y-117212745D01*
X145674651Y-117212745D01*
X145869534Y-117017862D01*
X145896525Y-116952701D01*
X145899136Y-116959005D01*
X146145255Y-117033139D01*
X146973395Y-116205000D01*
X146145255Y-115376861D01*
X145899136Y-115450995D01*
X145896710Y-115457746D01*
X145869534Y-115392138D01*
X145465862Y-114988466D01*
X144938439Y-114770000D01*
X144367561Y-114770000D01*
X143840138Y-114988466D01*
X143436466Y-115392138D01*
X143218000Y-115919561D01*
X143218000Y-116410736D01*
X139442600Y-112635862D01*
X139442600Y-111091562D01*
X139762570Y-111570430D01*
X139762570Y-111570430D01*
G37*
X139762570Y-111570430D02*
X140258275Y-111901650D01*
X140695402Y-111988600D01*
X140990598Y-111988600D01*
X141427725Y-111901650D01*
X141923430Y-111570430D01*
X142113000Y-111286719D01*
X142302570Y-111570430D01*
X142662831Y-111811149D01*
X142689139Y-111943407D01*
X142851942Y-112187058D01*
X143095593Y-112349861D01*
X143310456Y-112392600D01*
X143383000Y-112407030D01*
X143455544Y-112392600D01*
X143878911Y-112392600D01*
X146426352Y-114939804D01*
X146398995Y-114951136D01*
X146324861Y-115197255D01*
X147153000Y-116025395D01*
X147167143Y-116011253D01*
X147346748Y-116190858D01*
X147332605Y-116205000D01*
X148160745Y-117033139D01*
X148406864Y-116959005D01*
X148417143Y-116930409D01*
X154181400Y-122694130D01*
X154181401Y-130764530D01*
X147874769Y-124457217D01*
X147907005Y-124443864D01*
X147981139Y-124197745D01*
X147153000Y-123369605D01*
X147138858Y-123383748D01*
X146959253Y-123204143D01*
X146973395Y-123190000D01*
X147332605Y-123190000D01*
X148160745Y-124018139D01*
X148406864Y-123944005D01*
X148599965Y-123406777D01*
X148572778Y-122836546D01*
X148406864Y-122435995D01*
X148160745Y-122361861D01*
X147332605Y-123190000D01*
X146973395Y-123190000D01*
X146959253Y-123175858D01*
X147138858Y-122996252D01*
X147153000Y-123010395D01*
X147981139Y-122182255D01*
X147907005Y-121936136D01*
X147369777Y-121743035D01*
X146799546Y-121770222D01*
X146639600Y-121836474D01*
X146639600Y-120209514D01*
X146654029Y-120136947D01*
X146626632Y-119999259D01*
X146596861Y-119849593D01*
X146596846Y-119849571D01*
X146596841Y-119849545D01*
X146514361Y-119726123D01*
X146434058Y-119605942D01*
X146372539Y-119564836D01*
X144447435Y-117640000D01*
X144938439Y-117640000D01*
X145465862Y-117421534D01*
X145674651Y-117212745D01*
X146324861Y-117212745D01*
X146398995Y-117458864D01*
X146936223Y-117651965D01*
X147506454Y-117624778D01*
X147907005Y-117458864D01*
X147981139Y-117212745D01*
X147153000Y-116384605D01*
X146324861Y-117212745D01*
X145674651Y-117212745D01*
X145869534Y-117017862D01*
X145896525Y-116952701D01*
X145899136Y-116959005D01*
X146145255Y-117033139D01*
X146973395Y-116205000D01*
X146145255Y-115376861D01*
X145899136Y-115450995D01*
X145896710Y-115457746D01*
X145869534Y-115392138D01*
X145465862Y-114988466D01*
X144938439Y-114770000D01*
X144367561Y-114770000D01*
X143840138Y-114988466D01*
X143436466Y-115392138D01*
X143218000Y-115919561D01*
X143218000Y-116410736D01*
X139442600Y-112635862D01*
X139442600Y-111091562D01*
X139762570Y-111570430D01*
G36*
X124047561Y-90970000D02*
X124438985Y-90970000D01*
X124838025Y-91369009D01*
X124890443Y-91447457D01*
X124918794Y-91466401D01*
X124886260Y-91515091D01*
X124774887Y-92075000D01*
X124797114Y-92186741D01*
X123342928Y-93640802D01*
X123264444Y-93693243D01*
X123167486Y-93838350D01*
X123056745Y-94004070D01*
X123056741Y-94004091D01*
X123056729Y-94004109D01*
X123019968Y-94188919D01*
X122983790Y-94370759D01*
X123002201Y-94463339D01*
X123002200Y-100463722D01*
X119681786Y-103784137D01*
X119652577Y-103740423D01*
X119268892Y-103484053D01*
X119473134Y-103387389D01*
X119849041Y-102972423D01*
X120009904Y-102584039D01*
X119887915Y-102362000D01*
X118745000Y-102362000D01*
X118745000Y-102382000D01*
X118491000Y-102382000D01*
X118491000Y-102362000D01*
X118471000Y-102362000D01*
X118471000Y-102108000D01*
X118491000Y-102108000D01*
X118491000Y-99822000D01*
X118745000Y-99822000D01*
X118745000Y-102108000D01*
X119887915Y-102108000D01*
X120009904Y-101885961D01*
X119849041Y-101497577D01*
X119473134Y-101082611D01*
X119224633Y-100965000D01*
X119473134Y-100847389D01*
X119849041Y-100432423D01*
X120009904Y-100044039D01*
X119887915Y-99822000D01*
X118745000Y-99822000D01*
X118491000Y-99822000D01*
X118471000Y-99822000D01*
X118471000Y-99568000D01*
X118491000Y-99568000D01*
X118491000Y-99548000D01*
X118745000Y-99548000D01*
X118745000Y-99568000D01*
X119887915Y-99568000D01*
X120009904Y-99345961D01*
X119849041Y-98957577D01*
X119682540Y-98773776D01*
X120668604Y-97787420D01*
X120730058Y-97746358D01*
X120771182Y-97684812D01*
X120771220Y-97684774D01*
X120811407Y-97624611D01*
X120892861Y-97502707D01*
X120892872Y-97502652D01*
X120892904Y-97502604D01*
X120921155Y-97360466D01*
X120935600Y-97287844D01*
X120935600Y-97287786D01*
X120950029Y-97215189D01*
X120935600Y-97142704D01*
X120935600Y-96894900D01*
X121164726Y-96894900D01*
X121561488Y-96730556D01*
X121865156Y-96426888D01*
X122029500Y-96030126D01*
X122029500Y-95600674D01*
X121865156Y-95203912D01*
X121561488Y-94900244D01*
X121467600Y-94861354D01*
X121467600Y-90928544D01*
X121616223Y-90981965D01*
X122186454Y-90954778D01*
X122255401Y-90926219D01*
X122255401Y-91284955D01*
X122076844Y-91463512D01*
X121912500Y-91860274D01*
X121912500Y-92289726D01*
X122076844Y-92686488D01*
X122380512Y-92990156D01*
X122777274Y-93154500D01*
X123206726Y-93154500D01*
X123603488Y-92990156D01*
X123907156Y-92686488D01*
X124071500Y-92289726D01*
X124071500Y-91860274D01*
X123907156Y-91463512D01*
X123728600Y-91284956D01*
X123728600Y-90837882D01*
X124047561Y-90970000D01*
X124047561Y-90970000D01*
G37*
X124047561Y-90970000D02*
X124438985Y-90970000D01*
X124838025Y-91369009D01*
X124890443Y-91447457D01*
X124918794Y-91466401D01*
X124886260Y-91515091D01*
X124774887Y-92075000D01*
X124797114Y-92186741D01*
X123342928Y-93640802D01*
X123264444Y-93693243D01*
X123167486Y-93838350D01*
X123056745Y-94004070D01*
X123056741Y-94004091D01*
X123056729Y-94004109D01*
X123019968Y-94188919D01*
X122983790Y-94370759D01*
X123002201Y-94463339D01*
X123002200Y-100463722D01*
X119681786Y-103784137D01*
X119652577Y-103740423D01*
X119268892Y-103484053D01*
X119473134Y-103387389D01*
X119849041Y-102972423D01*
X120009904Y-102584039D01*
X119887915Y-102362000D01*
X118745000Y-102362000D01*
X118745000Y-102382000D01*
X118491000Y-102382000D01*
X118491000Y-102362000D01*
X118471000Y-102362000D01*
X118471000Y-102108000D01*
X118491000Y-102108000D01*
X118491000Y-99822000D01*
X118745000Y-99822000D01*
X118745000Y-102108000D01*
X119887915Y-102108000D01*
X120009904Y-101885961D01*
X119849041Y-101497577D01*
X119473134Y-101082611D01*
X119224633Y-100965000D01*
X119473134Y-100847389D01*
X119849041Y-100432423D01*
X120009904Y-100044039D01*
X119887915Y-99822000D01*
X118745000Y-99822000D01*
X118491000Y-99822000D01*
X118471000Y-99822000D01*
X118471000Y-99568000D01*
X118491000Y-99568000D01*
X118491000Y-99548000D01*
X118745000Y-99548000D01*
X118745000Y-99568000D01*
X119887915Y-99568000D01*
X120009904Y-99345961D01*
X119849041Y-98957577D01*
X119682540Y-98773776D01*
X120668604Y-97787420D01*
X120730058Y-97746358D01*
X120771182Y-97684812D01*
X120771220Y-97684774D01*
X120811407Y-97624611D01*
X120892861Y-97502707D01*
X120892872Y-97502652D01*
X120892904Y-97502604D01*
X120921155Y-97360466D01*
X120935600Y-97287844D01*
X120935600Y-97287786D01*
X120950029Y-97215189D01*
X120935600Y-97142704D01*
X120935600Y-96894900D01*
X121164726Y-96894900D01*
X121561488Y-96730556D01*
X121865156Y-96426888D01*
X122029500Y-96030126D01*
X122029500Y-95600674D01*
X121865156Y-95203912D01*
X121561488Y-94900244D01*
X121467600Y-94861354D01*
X121467600Y-90928544D01*
X121616223Y-90981965D01*
X122186454Y-90954778D01*
X122255401Y-90926219D01*
X122255401Y-91284955D01*
X122076844Y-91463512D01*
X121912500Y-91860274D01*
X121912500Y-92289726D01*
X122076844Y-92686488D01*
X122380512Y-92990156D01*
X122777274Y-93154500D01*
X123206726Y-93154500D01*
X123603488Y-92990156D01*
X123907156Y-92686488D01*
X124071500Y-92289726D01*
X124071500Y-91860274D01*
X123907156Y-91463512D01*
X123728600Y-91284956D01*
X123728600Y-90837882D01*
X124047561Y-90970000D01*
G36*
X95885000Y-98933000D02*
X95905000Y-98933000D01*
X95905000Y-99187000D01*
X95885000Y-99187000D01*
X95885000Y-99207000D01*
X95631000Y-99207000D01*
X95631000Y-99187000D01*
X95611000Y-99187000D01*
X95611000Y-98933000D01*
X95631000Y-98933000D01*
X95631000Y-98913000D01*
X95885000Y-98913000D01*
X95885000Y-98933000D01*
X95885000Y-98933000D01*
G37*
X95885000Y-98933000D02*
X95905000Y-98933000D01*
X95905000Y-99187000D01*
X95885000Y-99187000D01*
X95885000Y-99207000D01*
X95631000Y-99207000D01*
X95631000Y-99187000D01*
X95611000Y-99187000D01*
X95611000Y-98933000D01*
X95631000Y-98933000D01*
X95631000Y-98913000D01*
X95885000Y-98913000D01*
X95885000Y-98933000D01*
G36*
X122026748Y-89520858D02*
X122012605Y-89535000D01*
X122026748Y-89549143D01*
X121847142Y-89728748D01*
X121833000Y-89714605D01*
X121818858Y-89728748D01*
X121639253Y-89549143D01*
X121653395Y-89535000D01*
X121639253Y-89520858D01*
X121818858Y-89341253D01*
X121833000Y-89355395D01*
X121847142Y-89341252D01*
X122026748Y-89520858D01*
X122026748Y-89520858D01*
G37*
X122026748Y-89520858D02*
X122012605Y-89535000D01*
X122026748Y-89549143D01*
X121847142Y-89728748D01*
X121833000Y-89714605D01*
X121818858Y-89728748D01*
X121639253Y-89549143D01*
X121653395Y-89535000D01*
X121639253Y-89520858D01*
X121818858Y-89341253D01*
X121833000Y-89355395D01*
X121847142Y-89341252D01*
X122026748Y-89520858D01*
G36*
X132232401Y-81656694D02*
X132073791Y-81580291D01*
X132058026Y-81577642D01*
X131826000Y-81698783D01*
X131826000Y-83058000D01*
X131846000Y-83058000D01*
X131846000Y-83312000D01*
X131826000Y-83312000D01*
X131826000Y-84671217D01*
X132058026Y-84792358D01*
X132073791Y-84789709D01*
X132232400Y-84713306D01*
X132232400Y-87510500D01*
X124123699Y-87510500D01*
X124051319Y-87496071D01*
X123978617Y-87510500D01*
X123978456Y-87510500D01*
X123906408Y-87524831D01*
X123763888Y-87553117D01*
X123763753Y-87553207D01*
X123763593Y-87553239D01*
X123641990Y-87634492D01*
X123581684Y-87674750D01*
X123581572Y-87674862D01*
X123519942Y-87716042D01*
X123478938Y-87777409D01*
X122809707Y-88446071D01*
X122776014Y-88412378D01*
X122661139Y-88527253D01*
X122587005Y-88281136D01*
X122565342Y-88273350D01*
X124385129Y-86453400D01*
X125657530Y-86453400D01*
X125730140Y-86467829D01*
X125870139Y-86439954D01*
X126017407Y-86410661D01*
X126017467Y-86410621D01*
X126017536Y-86410607D01*
X126137597Y-86330352D01*
X126261058Y-86247858D01*
X126302190Y-86186300D01*
X126580651Y-85907735D01*
X126601840Y-85903520D01*
X126743261Y-85875421D01*
X126743327Y-85875377D01*
X126743407Y-85875361D01*
X126865648Y-85793682D01*
X126925439Y-85753749D01*
X126925494Y-85753694D01*
X126987058Y-85712558D01*
X127028108Y-85651123D01*
X128188459Y-84491255D01*
X128574276Y-84749050D01*
X129159000Y-84865359D01*
X129743725Y-84749050D01*
X130239430Y-84417830D01*
X130432909Y-84128267D01*
X130796964Y-84535732D01*
X131324209Y-84789709D01*
X131339974Y-84792358D01*
X131572000Y-84671217D01*
X131572000Y-83312000D01*
X131552000Y-83312000D01*
X131552000Y-83058000D01*
X131572000Y-83058000D01*
X131572000Y-81698783D01*
X131339974Y-81577642D01*
X131324209Y-81580291D01*
X130796964Y-81834268D01*
X130432910Y-82241732D01*
X130239430Y-81952170D01*
X129743724Y-81620950D01*
X129159000Y-81504641D01*
X128939199Y-81548362D01*
X132232401Y-78254855D01*
X132232401Y-81656694D01*
X132232401Y-81656694D01*
G37*
X132232401Y-81656694D02*
X132073791Y-81580291D01*
X132058026Y-81577642D01*
X131826000Y-81698783D01*
X131826000Y-83058000D01*
X131846000Y-83058000D01*
X131846000Y-83312000D01*
X131826000Y-83312000D01*
X131826000Y-84671217D01*
X132058026Y-84792358D01*
X132073791Y-84789709D01*
X132232400Y-84713306D01*
X132232400Y-87510500D01*
X124123699Y-87510500D01*
X124051319Y-87496071D01*
X123978617Y-87510500D01*
X123978456Y-87510500D01*
X123906408Y-87524831D01*
X123763888Y-87553117D01*
X123763753Y-87553207D01*
X123763593Y-87553239D01*
X123641990Y-87634492D01*
X123581684Y-87674750D01*
X123581572Y-87674862D01*
X123519942Y-87716042D01*
X123478938Y-87777409D01*
X122809707Y-88446071D01*
X122776014Y-88412378D01*
X122661139Y-88527253D01*
X122587005Y-88281136D01*
X122565342Y-88273350D01*
X124385129Y-86453400D01*
X125657530Y-86453400D01*
X125730140Y-86467829D01*
X125870139Y-86439954D01*
X126017407Y-86410661D01*
X126017467Y-86410621D01*
X126017536Y-86410607D01*
X126137597Y-86330352D01*
X126261058Y-86247858D01*
X126302190Y-86186300D01*
X126580651Y-85907735D01*
X126601840Y-85903520D01*
X126743261Y-85875421D01*
X126743327Y-85875377D01*
X126743407Y-85875361D01*
X126865648Y-85793682D01*
X126925439Y-85753749D01*
X126925494Y-85753694D01*
X126987058Y-85712558D01*
X127028108Y-85651123D01*
X128188459Y-84491255D01*
X128574276Y-84749050D01*
X129159000Y-84865359D01*
X129743725Y-84749050D01*
X130239430Y-84417830D01*
X130432909Y-84128267D01*
X130796964Y-84535732D01*
X131324209Y-84789709D01*
X131339974Y-84792358D01*
X131572000Y-84671217D01*
X131572000Y-83312000D01*
X131552000Y-83312000D01*
X131552000Y-83058000D01*
X131572000Y-83058000D01*
X131572000Y-81698783D01*
X131339974Y-81577642D01*
X131324209Y-81580291D01*
X130796964Y-81834268D01*
X130432910Y-82241732D01*
X130239430Y-81952170D01*
X129743724Y-81620950D01*
X129159000Y-81504641D01*
X128939199Y-81548362D01*
X132232401Y-78254855D01*
X132232401Y-81656694D01*
G36*
X86931500Y-77470000D02*
X86951500Y-77470000D01*
X86951500Y-77724000D01*
X86931500Y-77724000D01*
X86931500Y-77744000D01*
X86677500Y-77744000D01*
X86677500Y-77724000D01*
X86657500Y-77724000D01*
X86657500Y-77470000D01*
X86677500Y-77470000D01*
X86677500Y-77450000D01*
X86931500Y-77450000D01*
X86931500Y-77470000D01*
X86931500Y-77470000D01*
G37*
X86931500Y-77470000D02*
X86951500Y-77470000D01*
X86951500Y-77724000D01*
X86931500Y-77724000D01*
X86931500Y-77744000D01*
X86677500Y-77744000D01*
X86677500Y-77724000D01*
X86657500Y-77724000D01*
X86657500Y-77470000D01*
X86677500Y-77470000D01*
X86677500Y-77450000D01*
X86931500Y-77450000D01*
X86931500Y-77470000D01*
G36*
X109474000Y-73406000D02*
X109494000Y-73406000D01*
X109494000Y-73660000D01*
X109474000Y-73660000D01*
X109474000Y-73680000D01*
X109220000Y-73680000D01*
X109220000Y-73660000D01*
X109200000Y-73660000D01*
X109200000Y-73406000D01*
X109220000Y-73406000D01*
X109220000Y-73386000D01*
X109474000Y-73386000D01*
X109474000Y-73406000D01*
X109474000Y-73406000D01*
G37*
X109474000Y-73406000D02*
X109494000Y-73406000D01*
X109494000Y-73660000D01*
X109474000Y-73660000D01*
X109474000Y-73680000D01*
X109220000Y-73680000D01*
X109220000Y-73660000D01*
X109200000Y-73660000D01*
X109200000Y-73406000D01*
X109220000Y-73406000D01*
X109220000Y-73386000D01*
X109474000Y-73386000D01*
X109474000Y-73406000D01*
G04 #@! TD*
M02*
