M48
;DRILL file {KiCad (5.0.0-3-g5ebb6b6)} date 
;FORMAT={-:-/ absolute / metric / decimal}
FMAT,2
METRIC,TZ
T1C0.635
T2C0.750
T3C0.762
T4C0.800
T5C1.000
T6C1.016
T7C3.048
%
G90
G05
M71
T1
X92.721Y-93.195
X92.829Y-98.425
X93.243Y-94.304
X105.438Y-79.257
X120.95Y-95.815
X122.992Y-92.075
X124.345Y-81.008
X125.42Y-84.97
X136.511Y-71.184
X137.533Y-78.201
X140.528Y-85.782
X146.022Y-111.656
T2
X173.863Y-81.915
X175.133Y-81.915
X176.403Y-81.915
T3
X133.223Y-117.475
X133.223Y-122.555
T4
X121.833Y-89.535
X124.333Y-89.535
X144.653Y-116.205
X147.153Y-116.205
X118.618Y-92.075
X118.618Y-94.615
X118.618Y-97.155
X118.618Y-99.695
X118.618Y-102.235
X118.618Y-104.775
X118.618Y-107.315
X118.618Y-109.855
X126.238Y-92.075
X126.238Y-94.615
X126.238Y-97.155
X126.238Y-99.695
X126.238Y-102.235
X126.238Y-104.775
X126.238Y-107.315
X126.238Y-109.855
X156.083Y-90.805
X156.083Y-93.345
X156.083Y-95.885
X156.083Y-98.425
X156.083Y-100.965
X156.083Y-103.505
X156.083Y-106.045
X156.083Y-108.585
X156.083Y-111.125
X156.083Y-113.665
X156.083Y-116.205
X156.083Y-118.745
X156.083Y-121.285
X156.083Y-123.825
X171.323Y-90.805
X171.323Y-93.345
X171.323Y-95.885
X171.323Y-98.425
X171.323Y-100.965
X171.323Y-103.505
X171.323Y-106.045
X171.323Y-108.585
X171.323Y-111.125
X171.323Y-113.665
X171.323Y-116.205
X171.323Y-118.745
X171.323Y-121.285
X171.323Y-123.825
X121.833Y-112.395
X124.333Y-112.395
X170.688Y-67.945
X170.688Y-78.105
X144.653Y-123.19
X147.153Y-123.19
X118.618Y-115.57
X118.618Y-118.11
X118.618Y-120.65
X118.618Y-123.19
X118.618Y-125.73
X118.618Y-128.27
X118.618Y-130.81
X118.618Y-133.35
X126.238Y-115.57
X126.238Y-118.11
X126.238Y-120.65
X126.238Y-123.19
X126.238Y-125.73
X126.238Y-128.27
X126.238Y-130.81
X126.238Y-133.35
X166.791Y-88.011
X169.291Y-88.011
X139.573Y-115.57
X139.573Y-125.73
X113.538Y-116.84
X116.038Y-116.84
X95.758Y-83.82
X95.758Y-86.36
X95.758Y-88.9
X95.758Y-91.44
X95.758Y-93.98
X95.758Y-96.52
X95.758Y-99.06
X95.758Y-101.6
X95.758Y-104.14
X95.758Y-106.68
X95.758Y-109.22
X95.758Y-111.76
X95.758Y-114.3
X95.758Y-116.84
X95.758Y-119.38
X95.758Y-121.92
X95.758Y-124.46
X95.758Y-127.
X95.758Y-129.54
X95.758Y-132.08
X110.998Y-83.82
X110.998Y-86.36
X110.998Y-88.9
X110.998Y-91.44
X110.998Y-93.98
X110.998Y-96.52
X110.998Y-99.06
X110.998Y-101.6
X110.998Y-104.14
X110.998Y-106.68
X110.998Y-109.22
X110.998Y-111.76
X110.998Y-114.3
X110.998Y-116.84
X110.998Y-119.38
X110.998Y-121.92
X110.998Y-124.46
X110.998Y-127.
X110.998Y-129.54
X110.998Y-132.08
X165.608Y-67.945
X165.608Y-78.105
T5
X86.868Y-83.185
X86.868Y-85.725
X86.868Y-88.265
X86.868Y-90.805
X86.868Y-93.345
X86.868Y-95.885
X86.868Y-98.425
X89.408Y-83.185
X89.408Y-85.725
X89.408Y-88.265
X89.408Y-90.805
X89.408Y-93.345
X89.408Y-95.885
X89.408Y-98.425
X86.868Y-107.315
X86.868Y-109.855
X86.868Y-112.395
X86.868Y-114.935
X86.868Y-117.475
X86.868Y-120.015
X86.868Y-122.555
X89.408Y-107.315
X89.408Y-109.855
X89.408Y-112.395
X89.408Y-114.935
X89.408Y-117.475
X89.408Y-120.015
X89.408Y-122.555
T6
X133.223Y-92.71
X133.223Y-95.25
X133.223Y-97.79
X133.223Y-100.33
X133.223Y-102.87
X133.223Y-105.41
X133.223Y-107.95
X133.223Y-110.49
X135.763Y-92.71
X135.763Y-95.25
X135.763Y-97.79
X135.763Y-100.33
X135.763Y-102.87
X135.763Y-105.41
X135.763Y-107.95
X135.763Y-110.49
X151.003Y-83.185
X153.543Y-83.185
X156.083Y-83.185
X158.623Y-83.185
X161.163Y-83.185
X163.703Y-83.185
X166.243Y-83.185
X168.783Y-83.185
X124.079Y-83.185
X126.619Y-83.185
X129.159Y-83.185
X131.699Y-83.185
X134.239Y-83.185
X136.779Y-83.185
X139.319Y-83.185
X141.859Y-83.185
X144.399Y-83.185
X146.939Y-83.185
X133.223Y-131.445
X135.763Y-131.445
X138.303Y-131.445
X140.843Y-131.445
X143.383Y-131.445
X145.923Y-131.445
X148.463Y-131.445
X151.003Y-131.445
X106.807Y-73.533
X106.807Y-76.073
X109.347Y-73.533
X109.347Y-76.073
X111.887Y-73.533
X111.887Y-76.073
X114.427Y-73.533
X114.427Y-76.073
X116.967Y-73.533
X116.967Y-76.073
X119.507Y-73.533
X119.507Y-76.073
X122.047Y-73.533
X122.047Y-76.073
X124.587Y-73.533
X124.587Y-76.073
X127.127Y-73.533
X127.127Y-76.073
X129.667Y-73.533
X129.667Y-76.073
X132.207Y-73.533
X132.207Y-76.073
X134.747Y-73.533
X134.747Y-76.073
X137.287Y-73.533
X137.287Y-76.073
X139.827Y-73.533
X139.827Y-76.073
X142.367Y-73.533
X142.367Y-76.073
X144.907Y-73.533
X144.907Y-76.073
X147.447Y-73.533
X147.447Y-76.073
X149.987Y-73.533
X149.987Y-76.073
X152.527Y-73.533
X152.527Y-76.073
X155.067Y-73.533
X155.067Y-76.073
X177.038Y-90.805
X177.038Y-93.345
X177.038Y-95.885
X177.038Y-98.425
X177.038Y-100.965
X177.038Y-103.505
X140.843Y-92.71
X140.843Y-95.25
X140.843Y-97.79
X140.843Y-100.33
X140.843Y-102.87
X140.843Y-105.41
X140.843Y-107.95
X140.843Y-110.49
X143.383Y-92.71
X143.383Y-95.25
X143.383Y-97.79
X143.383Y-100.33
X143.383Y-102.87
X143.383Y-105.41
X143.383Y-107.95
X143.383Y-110.49
X156.083Y-131.445
X158.623Y-131.445
X161.163Y-131.445
X163.703Y-131.445
X166.243Y-131.445
X168.783Y-131.445
X148.463Y-92.71
X148.463Y-95.25
X148.463Y-97.79
X148.463Y-100.33
X148.463Y-102.87
X148.463Y-105.41
X148.463Y-107.95
X148.463Y-110.49
X151.003Y-92.71
X151.003Y-95.25
X151.003Y-97.79
X151.003Y-100.33
X151.003Y-102.87
X151.003Y-105.41
X151.003Y-107.95
X151.003Y-110.49
T7
X86.523Y-67.285
X175.533Y-133.315
X86.513Y-133.285
X175.523Y-67.285
T0
M30
